<?xml version="1.0" encoding="utf-8"?>
<!-- Generator: Adobe Illustrator 21.0.2, SVG Export Plug-In . SVG Version: 6.00 Build 0)  -->
<svg version="1.1" id="Layer_1" xmlns="http://www.w3.org/2000/svg" xmlns:xlink="http://www.w3.org/1999/xlink" x="0px" y="0px"
	 viewBox="0 0 553.2 88" style="enable-background:new 0 0 553.2 88;" xml:space="preserve">
<style type="text/css">
	.st0{fill:#00428D;}
	.st1{fill:#FFFFFF;}
	.st2{fill:#FF8A19;}
</style>
<g>
	<g>
		<rect y="38.5" class="st0" width="458.7" height="21"/>
	</g>
	<g>
		<path class="st0" d="M494.2,88h-4c-21.5,0-39-17.5-39-39v0c0-21.5,17.5-49,39-49h4V88z"/>
	</g>
	<g>
		<path class="st0" d="M545.2,31h-37c-4.4,0-8-3.6-8-8l0,0c0-4.4,3.6-8,8-8h37c4.4,0,8,3.6,8,8l0,0C553.2,27.4,549.6,31,545.2,31z"
			/>
	</g>
	<g>
		<path class="st0" d="M545.2,81h-37c-4.4,0-8-3.6-8-8l0,0c0-4.4,3.6-8,8-8h37c4.4,0,8,3.6,8,8l0,0C553.2,77.4,549.6,81,545.2,81z"
			/>
	</g>
	<polygon class="st1" points="238.4,36.1 225.7,45.2 233,48.8 223.2,52.5 233,55.7 219.4,61.5 334,61.5 328.5,56.5 334,51.7 
		328.5,48.8 334,43.6 322.2,40.4 334,36.1 	"/>
	<polygon class="st2" points="236.5,31 229.3,23 233,18.7 	"/>
	<polygon class="st2" points="260.9,42.7 268.2,18.7 278.5,24.9 	"/>
	<polygon class="st2" points="253,56.7 265.1,76.1 259,81 	"/>
	<polygon class="st2" points="312.4,39.4 291.6,27 297.7,19.4 	"/>
	<polygon class="st2" points="286.7,82 306.6,60.1 296,83.7 	"/>
	<polygon class="st2" points="303.4,48.4 296.8,59.5 293.2,53.4 	"/>
	<polygon class="st2" points="277.4,68.5 267.1,56.9 281.2,61.9 	"/>
	<polygon class="st2" points="322.2,56.7 319.2,68.9 325.3,68.9 	"/>
	<polygon class="st2" points="236.5,59.5 246.6,73 236.5,73.8 	"/>
	<polygon class="st2" points="242.9,40.8 249.9,42.7 242.9,44.6 241,51.6 239.1,44.6 232.1,42.7 239.1,40.8 241,33.8 	"/>
	<polygon class="st2" points="325.4,78.4 330.4,79.7 325.4,81.1 324.1,86 322.7,81.1 317.7,79.7 322.7,78.4 324.1,73.4 	"/>
	<polygon class="st2" points="288.7,34.7 293.7,36.1 288.7,37.4 287.3,42.4 286,37.4 281,36.1 286,34.7 287.3,29.7 	"/>
</g>
</svg>
