<?xml version="1.0" encoding="utf-8"?>
<!-- Generator: Adobe Illustrator 21.0.2, SVG Export Plug-In . SVG Version: 6.00 Build 0)  -->
<svg version="1.1" id="Layer_1" xmlns="http://www.w3.org/2000/svg" xmlns:xlink="http://www.w3.org/1999/xlink" x="0px" y="0px"
	 viewBox="0 0 499 486.6" style="enable-background:new 0 0 499 486.6;" xml:space="preserve">
<style type="text/css">
	.st0{fill:url(#SVGID_1_);}
	.st1{fill:#31C5F0;}
</style>
<radialGradient id="SVGID_1_" cx="-802.6141" cy="-803.3162" r="0.6371" gradientTransform="matrix(545.6736 0 0 528.3113 438136.9063 424521.6563)" gradientUnits="userSpaceOnUse">
	<stop  offset="0" style="stop-color:#34364E;stop-opacity:0.98"/>
	<stop  offset="1" style="stop-color:#0C0824"/>
</radialGradient>
<path class="st0" d="M20.8,20.8h457.5v445H20.8V20.8z"/>
<path class="st1" d="M20.8,20.8h457.5v445H20.8V20.8z M0,486.6h499V0H0V486.6z M336.5,199.7c-16.4,0-22,8.3-22,15.2
	c0,7.5,3.7,12.7,25.8,24.1c32.6,15.8,42.8,31,42.8,53.2c0,33.3-25.4,51.2-59.7,51.2c-18.1,0-33.7-3.7-42.6-8.9
	c-1.5-0.6-1.7-1.7-1.7-3.3v-30.7c0-2.1,1-2.7,2.5-1.7c13.1,8.5,28.1,12.3,41.8,12.3c16.4,0,23.3-6.9,23.3-16.2
	c0-7.5-4.8-14.1-25.8-25c-29.5-14.1-41.8-28.4-41.8-52.4c0-26.8,21-49.1,57.4-49.1c17.9,0,30.4,2.7,37.2,5.8c1.7,1,2.1,2.7,2.1,4.2
	v28.5c0,1.7-1,2.7-3.1,2.1C363.5,203.2,350,199.7,336.5,199.7L336.5,199.7z M157.7,224.4c4.8,0.4,8.5,0.4,16.8,0.4
	c24.3,0,47.2-8.5,47.2-41.6c0-26.4-16.4-39.7-44.1-39.7c-8.3,0-16.2,0.4-20,0.6L157.7,224.4L157.7,224.4z M120.6,114
	c0-1.5,2.9-2.5,4.6-2.5c13.3-0.6,33.1-1,53.6-1c57.6,0,80.1,31.6,80.1,71.9c0,52.8-38.3,75.5-85.3,75.5c-7.9,0-10.6-0.4-16.2-0.4
	v79.8c0,1.7-0.6,2.5-2.5,2.5h-31.8c-1.7,0-2.5-0.6-2.5-2.5L120.6,114L120.6,114z"/>
</svg>
