<?xml version="1.0" encoding="utf-8"?>
<!-- Generator: Adobe Illustrator 21.0.2, SVG Export Plug-In . SVG Version: 6.00 Build 0)  -->
<svg version="1.1" id="Layer_1" xmlns="http://www.w3.org/2000/svg" xmlns:xlink="http://www.w3.org/1999/xlink" x="0px" y="0px"
	 viewBox="0 0 256 256" style="enable-background:new 0 0 256 256;" xml:space="preserve">
<style type="text/css">
	.st0{fill:#DC395F;}
	.st1{fill:#FFFFFF;}
</style>
<g>
	<path class="st0" d="M232.8,0H23.2C10.4,0,0,10.4,0,23.2v209.6C0,245.6,10.4,256,23.2,256h209.6c12.8,0,23.2-10.4,23.2-23.2V23.2
		C256,10.4,245.6,0,232.8,0"/>
	<path class="st1" d="M85.6,80.5c8.5,0,15.6-6.7,15.6-15.4c0-8.7-7.1-15.4-15.6-15.4s-15.6,6.7-15.6,15.4
		C69.9,73.9,77,80.5,85.6,80.5"/>
	<path class="st1" d="M53.1,163.1c-0.9,3.9-1.4,8.1-1.4,11.6c0,13.6,7.4,22.6,23,22.6c13,0,23.5-7.7,31.1-20.1l-4.6,18.6h25.8
		l14.7-59c3.7-14.9,10.8-22.7,21.6-22.7c8.5,0,13.8,5.3,13.8,14c0,2.5-0.2,5.3-1.2,8.3l-7.6,27.1c-1.2,3.9-1.6,7.8-1.6,11.5
		c0,12.9,7.6,22.3,23.5,22.3c13.6,0,24.4-8.7,30.4-29.7l-10.1-3.9c-5.1,14-9.4,16.6-12.9,16.6c-3.5,0-5.3-2.3-5.3-6.9
		c0-2.1,0.5-4.4,1.2-7.1l7.4-26.4c1.8-6.2,2.5-11.7,2.5-16.8c0-19.8-12-30.1-26.4-30.1c-13.6,0-27.4,12.2-34.3,25.1l5.1-23.1h-39.3
		l-5.5,20.4h18.4l-11.3,45.4c-8.9,19.8-25.2,20.1-27.3,19.6c-3.4-0.8-5.5-2-5.5-6.4c0-2.5,0.5-6.2,1.6-10.5l17.2-68.4H52.2
		l-5.5,20.4h18.2L53.1,163.1"/>
</g>
</svg>
