<?xml version="1.0" encoding="utf-8"?>
<!-- Generator: Adobe Illustrator 21.0.2, SVG Export Plug-In . SVG Version: 6.00 Build 0)  -->
<svg version="1.1" id="layer" xmlns="http://www.w3.org/2000/svg" xmlns:xlink="http://www.w3.org/1999/xlink" x="0px" y="0px"
	 viewBox="0 0 202.6 202.6" style="enable-background:new 0 0 202.6 202.6;" xml:space="preserve">
<style type="text/css">
	.st0{fill:#3880FF;}
</style>
<g>
	<g id="icon">
		<path id="Shape" class="st0" d="M101.3,55.3c-25.5,0-46.2,20.7-46.2,46.2s20.7,46.2,46.2,46.2s46.2-20.7,46.2-46.2
			C147.4,75.9,126.7,55.3,101.3,55.3z"/>
		<circle id="Oval" class="st0" cx="167.5" cy="38.3" r="21.1"/>
		<path id="Shape_1_" class="st0" d="M193.4,59.4l-0.8-1.9l-1.4,1.7c-3.4,3.9-7.9,6.9-12.7,8.7l-1.4,0.6l0.6,1.4
			C182,80,184,90.7,184,101.6c0,45.6-37.1,82.8-82.8,82.8s-82.7-37.2-82.7-82.8s37.1-82.8,82.8-82.8c12.4,0,24.2,2.8,35.4,8l1.2,0.6
			l0.6-1.4c2.1-4.8,5.2-9,9.4-12.3l1.7-1.4l-1.9-1C133.2,3.9,117.7,0,101.3,0C45.5,0,0,45.5,0,101.3s45.5,101.3,101.3,101.3
			s101.3-45.5,101.3-101.3C202.5,86.8,199.4,72.8,193.4,59.4z"/>
	</g>
</g>
</svg>
