<?xml version="1.0"?>
<svg xmlns="http://www.w3.org/2000/svg" id="Layer_1" enable-background="new 0 0 481.906 481.906" height="512px" viewBox="0 0 481.906 481.906" width="512px"><g><path d="m481.8 221.649v184.882c0 29.214-23.768 52.981-52.981 52.981h-375.838c-29.214 0-52.981-23.767-52.981-52.981v-263.886c0-29.214 23.767-52.981 52.981-52.981h213.019c4.971 0 9 4.029 9 9s-4.029 9-9 9h-213.019c-19.289 0-34.981 15.692-34.981 34.981v26.685l205.872 99.978c10.822 5.255 23.235 5.255 34.056 0l83.012-40.313c4.476-2.172 9.856-.306 12.027 4.164 2.172 4.471.307 9.856-4.164 12.027l-83.012 40.313c-15.817 7.682-33.964 7.683-49.783 0l-198.008-96.159v217.191c0 19.289 15.692 34.981 34.981 34.981h375.838c19.289 0 34.981-15.692 34.981-34.981v-184.882c0-4.971 4.029-9 9-9s9 4.029 9 9zm-341.223 84.558-87.712 87.712c-5.687 5.687-1.581 15.364 6.364 15.364 2.303 0 4.607-.879 6.364-2.636l87.712-87.712c3.515-3.515 3.515-9.213 0-12.728-3.514-3.514-9.214-3.514-12.728 0zm187.919 0c-3.515 3.515-3.515 9.213 0 12.728l87.712 87.712c3.516 3.515 9.213 3.515 12.729 0 3.515-3.515 3.515-9.213 0-12.728l-87.712-87.712c-3.517-3.514-9.214-3.514-12.729 0zm-1.922-165.865c-30.397-30.398-30.397-79.858 0-110.255 10.254-10.255 26.853-10.257 37.109 0l19.1 19.1c11.8 11.799 11.8 30.999 0 42.798-4.781 4.782-4.781 12.562 0 17.343l12.191 12.19c4.791 4.792 12.548 4.794 17.342 0 11.8-11.799 30.998-11.8 42.8 0l19.099 19.099c10.255 10.255 10.257 26.853-.001 37.11-30.466 30.468-79.783 30.471-110.254 0zm12.728-12.728 37.386 37.385c23.433 23.433 61.362 23.436 84.798 0 3.221-3.221 3.222-8.432.001-11.654-.101 0 1.332 1.333-19.1-19.1-4.782-4.781-12.563-4.78-17.343 0-11.827 11.828-30.971 11.829-42.799 0l-12.191-12.19c-11.799-11.8-11.799-30.999 0-42.799 4.792-4.792 4.793-12.55 0-17.343l-19.099-19.099c-3.221-3.22-8.433-3.221-11.653 0-23.38 23.379-23.38 61.42 0 84.8z" data-original="#000000" class="active-path" data-old_color="#000000" fill="#FFFFFF"/></g> </svg>
