<?xml version="1.0" encoding="utf-8"?>
<!-- Generator: Adobe Illustrator 21.0.2, SVG Export Plug-In . SVG Version: 6.00 Build 0)  -->
<svg version="1.1" id="Layer_1" xmlns="http://www.w3.org/2000/svg" xmlns:xlink="http://www.w3.org/1999/xlink" x="0px" y="0px"
	 viewBox="0 0 512 512" style="enable-background:new 0 0 512 512;" xml:space="preserve">
<style type="text/css">
	.st0{fill:#FFFFFF;}
	.st1{fill:#084EB1;}
</style>
<path class="st0" d="M512,256c0,141.4-114.6,256-256,256S0,397.4,0,256S114.6,0,256,0S512,114.6,512,256z"/>
<g>
	<path class="st1" d="M223.1,411h-48.2c-15.6,0-28.2-12.7-28.2-28.2V129.2c0-15.6,12.7-28.2,28.2-28.2H352
		c15.6,0,28.2,12.7,28.2,28.2v88.6c0,8.3,6.7,15,15,15c8.3,0,15-6.7,15-15v-88.6c0-32.1-26.1-58.2-58.2-58.2H174.9
		c-32.1,0-58.2,26.1-58.2,58.2v253.6c0,32.1,26.1,58.2,58.2,58.2h48.2c8.3,0,15-6.7,15-15S231.4,411,223.1,411z"/>
	<path class="st1" d="M337.6,157.4H189.2c-8.3,0-15,6.7-15,15s6.7,15,15,15h148.4c8.3,0,15-6.7,15-15S345.9,157.4,337.6,157.4z"/>
	<path class="st1" d="M352.6,230.1c0-8.3-6.7-15-15-15H189.2c-8.3,0-15,6.7-15,15c0,8.3,6.7,15,15,15h148.4
		C345.9,245.1,352.6,238.4,352.6,230.1z"/>
	<path class="st1" d="M189.2,272.7c-8.3,0-15,6.7-15,15s6.7,15,15,15h90.1c8.3,0,15-6.7,15-15s-6.7-15-15-15H189.2z"/>
	<path class="st1" d="M435.6,279.8c-17.1-17.1-44.9-17.1-61.9,0l-79.1,78.9c-1.7,1.7-3,3.9-3.8,6.3l-17.2,56.7
		c-1.6,5.2-0.2,10.9,3.6,14.8c2.9,2.9,6.8,4.5,10.7,4.5c1.3,0,2.7-0.2,4-0.5l58.1-16.1c2.5-0.7,4.8-2,6.6-3.8l78.9-78.8
		C452.7,324.6,452.7,296.8,435.6,279.8z M414.4,301c5.4,5.4,5.4,14.2,0,19.5l-2.4,2.4l-19.5-19.5l2.4-2.4
		C400.2,295.6,409,295.6,414.4,301z M338.3,396.5l-28.1,7.8l8.2-27l52.8-52.7l19.5,19.5L338.3,396.5z"/>
</g>
</svg>
