<?xml version="1.0" encoding="utf-8"?>
<!-- Generator: Adobe Illustrator 21.0.2, SVG Export Plug-In . SVG Version: 6.00 Build 0)  -->
<svg version="1.1" id="Capa_1" xmlns="http://www.w3.org/2000/svg" xmlns:xlink="http://www.w3.org/1999/xlink" x="0px" y="0px"
	 viewBox="0 0 368 368" style="enable-background:new 0 0 368 368;" xml:space="preserve">
<style type="text/css">
	.st0{fill:#CCE4FF;}
	.st1{fill:#007AFF;}
</style>
<polygon class="st0" points="232,184 56,184 8,72 "/>
<g>
	<path class="st1" d="M285.7,2.3C284.2,0.8,282.1,0,280,0H136c-13.2,0-24,10.8-24,24v48c0,4.4,3.6,8,8,8s8-3.6,8-8V24
		c0-4.4,3.6-8,8-8h120v32h-88c-4.4,0-8,3.6-8,8s3.6,8,8,8h88v40c0,4.4,3.6,8,8,8h88v232c0,4.4-3.6,8-8,8H136c-4.4,0-8-3.6-8-8v-48
		c0-4.4-3.6-8-8-8s-8,3.6-8,8v48c0,13.2,10.8,24,24,24h208c13.2,0,24-10.8,24-24V104V88c0-2.1-0.8-4.2-2.3-5.7L285.7,2.3z M272,16
		h4.7L352,91.3V96h-80L272,16L272,16z"/>
	<path class="st1" d="M2.5,301.8C4,303.3,6,304,8,304c1.2,0,2.4-0.3,3.6-0.8l224-112c0.7-0.4,1.4-0.9,2-1.4c0.1-0.1,0.2-0.3,0.3-0.4
		c0.5-0.6,0.9-1.2,1.3-1.9c0.1-0.2,0.2-0.5,0.3-0.7c0.3-0.9,0.6-1.8,0.6-2.8s-0.2-1.9-0.6-2.8c-0.1-0.2-0.2-0.5-0.3-0.7
		c-0.3-0.7-0.7-1.3-1.3-1.9c-0.1-0.1-0.2-0.3-0.3-0.4c-0.6-0.6-1.2-1.1-2-1.4l-224-112c-3-1.5-6.6-1-9.1,1.3c-2.4,2.3-3.2,5.9-1.9,9
		L47.3,184L0.6,292.8C-0.7,295.9,0.1,299.5,2.5,301.8z M24,88.9L198.1,176H61.3L24,88.9z M61.3,192h136.8L24,279.1L61.3,192z"/>
	<path class="st1" d="M160,312c0,4.4,3.6,8,8,8h144c4.4,0,8-3.6,8-8V152c0-4.4-3.6-8-8-8s-8,3.6-8,8v152H168
		C163.6,304,160,307.6,160,312z"/>
</g>
</svg>
