<?xml version="1.0" encoding="utf-8"?>
<!-- Generator: Adobe Illustrator 21.0.2, SVG Export Plug-In . SVG Version: 6.00 Build 0)  -->
<svg version="1.1" id="Layer_1" xmlns="http://www.w3.org/2000/svg" xmlns:xlink="http://www.w3.org/1999/xlink" x="0px" y="0px"
	 viewBox="0 0 250.6 48.7" style="enable-background:new 0 0 250.6 48.7;" xml:space="preserve">
<style type="text/css">
	.st0{fill-rule:evenodd;clip-rule:evenodd;fill:url(#SVGID_1_);}
	.st1{fill-rule:evenodd;clip-rule:evenodd;fill:url(#SVGID_2_);}
	.st2{fill-rule:evenodd;clip-rule:evenodd;fill:url(#SVGID_3_);}
	.st3{fill-rule:evenodd;clip-rule:evenodd;fill:url(#SVGID_4_);}
	.st4{fill-rule:evenodd;clip-rule:evenodd;fill:url(#SVGID_5_);}
	.st5{fill-rule:evenodd;clip-rule:evenodd;fill:url(#SVGID_6_);}
	.st6{fill-rule:evenodd;clip-rule:evenodd;fill:url(#SVGID_7_);}
	.st7{fill-rule:evenodd;clip-rule:evenodd;fill:url(#SVGID_8_);}
	.st8{fill-rule:evenodd;clip-rule:evenodd;fill:url(#SVGID_9_);}
	.st9{fill:url(#SVGID_10_);}
	.st10{fill:url(#SVGID_11_);}
	.st11{fill:url(#SVGID_12_);}
</style>
<g>
	<linearGradient id="SVGID_1_" gradientUnits="userSpaceOnUse" x1="0" y1="25.4224" x2="24.8437" y2="25.4224">
		<stop  offset="0" style="stop-color:#23BAED"/>
		<stop  offset="1" style="stop-color:#3CC6EE"/>
	</linearGradient>
	<path class="st0" d="M17.5,25.4c0-1.7-0.4-3.1-1.2-4.3c-0.9-1.3-2.2-2-3.8-2c-1.6,0-2.9,0.7-3.8,2c-0.8,1.2-1.2,2.6-1.2,4.3
		c0,1.7,0.4,3.1,1.2,4.3c0.9,1.3,2.2,2,3.8,2c1.6,0,2.9-0.7,3.8-2C17.1,28.5,17.5,27.1,17.5,25.4z M24.8,25.4c0,3.7-1.1,6.9-3.3,9.5
		c-2.3,2.7-5.4,4-9.1,4c-3.7,0-6.7-1.3-9.1-4C1.1,32.3,0,29.1,0,25.4c0-3.8,1.1-6.9,3.4-9.5c2.4-2.6,5.4-4,9.1-4
		c3.7,0,6.7,1.3,9.1,4C23.7,18.5,24.8,21.6,24.8,25.4z"/>
	<linearGradient id="SVGID_2_" gradientUnits="userSpaceOnUse" x1="26.6977" y1="30.3507" x2="51.5415" y2="30.3507">
		<stop  offset="0" style="stop-color:#23BAED"/>
		<stop  offset="1" style="stop-color:#3CC6EE"/>
	</linearGradient>
	<path class="st1" d="M44.2,25.4c0-1.7-0.4-3.1-1.2-4.3c-0.9-1.3-2.2-2-3.8-2s-2.9,0.7-3.8,2c-0.8,1.2-1.2,2.6-1.2,4.3
		c0,1.7,0.4,3.1,1.2,4.3c0.9,1.3,2.2,2,3.8,2s2.9-0.7,3.8-2C43.7,28.5,44.2,27.1,44.2,25.4z M51.5,25.4c0,3.5-1,6.6-3,9.2
		c-2.2,2.9-5,4.3-8.3,4.3c-2.4,0-4.4-0.7-6.1-2.1c0,0.3,0,1.1,0.1,2.3c0.1,1.2,0.1,2.2,0.1,3c0,4.4-1.3,6.6-3.9,6.6
		c-1.1,0-1.9-0.4-2.6-1.1c-0.7-0.8-1-1.7-1-2.7V16.3c0-1,0.4-1.9,1.1-2.7c0.7-0.8,1.6-1.1,2.6-1.1c1.6,0,2.7,0.8,3.4,2.3
		c1.5-1.9,3.7-2.8,6.3-2.8c3.4,0,6.2,1.4,8.4,4.2C50.5,18.8,51.5,21.9,51.5,25.4z"/>
	<linearGradient id="SVGID_3_" gradientUnits="userSpaceOnUse" x1="53.564" y1="25.4224" x2="78.4067" y2="25.4224">
		<stop  offset="0" style="stop-color:#23BAED"/>
		<stop  offset="1" style="stop-color:#3CC6EE"/>
	</linearGradient>
	<path class="st2" d="M71,22.8c0-1.1-0.6-2.2-1.6-3.1c-1-0.9-2.1-1.4-3.2-1.4c-1.2,0-2.3,0.5-3.3,1.4c-1,0.9-1.5,2-1.5,3.1H71z
		 M78.4,24.6c0,1.2-0.3,2.1-0.9,2.6c-0.6,0.5-1.5,0.7-2.7,0.7H61.5c0,1.4,0.7,2.5,2,3.3c1.1,0.6,2.4,0.9,3.9,0.9
		c1.2,0,2.6-0.4,4.3-1.2c1.7-0.8,2.8-1.2,3.2-1.2c0.9,0,1.6,0.3,2.2,0.9c0.6,0.6,0.9,1.4,0.9,2.3c0,2-1.5,3.6-4.5,4.7
		c-2.3,0.8-4.6,1.3-7,1.3c-3.9,0-7-1.3-9.3-3.8c-2.4-2.6-3.6-5.8-3.6-9.6c0-3.7,1.2-6.8,3.7-9.5c2.5-2.6,5.5-3.9,9.2-3.9
		c3.4,0,6.2,1.2,8.5,3.7C77.3,18.2,78.4,21.2,78.4,24.6z"/>
	<linearGradient id="SVGID_4_" gradientUnits="userSpaceOnUse" x1="80.3672" y1="25.1798" x2="103.2148" y2="25.1798">
		<stop  offset="0" style="stop-color:#23BAED"/>
		<stop  offset="1" style="stop-color:#3CC6EE"/>
	</linearGradient>
	<path class="st3" d="M103.2,34.5c0,1.1-0.3,2-1,2.7c-0.7,0.8-1.6,1.1-2.6,1.1c-2.6,0-3.9-2-3.9-6.1c0-0.8,0.1-2,0.2-3.7
		c0.1-1.7,0.2-2.9,0.2-3.7c0-4.3-1.4-6.5-4.2-6.5c-2.8,0-4.2,2.2-4.2,6.5c0,0.8,0,2,0.1,3.7c0.1,1.7,0.1,2.9,0.1,3.7
		c0,4.1-1.3,6.1-3.8,6.1c-1.1,0-1.9-0.4-2.6-1.1c-0.7-0.8-1-1.7-1-2.7V16.3c0-1.1,0.3-2,1-2.7c0.7-0.7,1.6-1.1,2.6-1.1
		c1.8,0,3,0.8,3.7,2.3c1.2-1.9,3.3-2.8,6.3-2.8c2.8,0,5,0.7,6.7,2.2c1.7,1.6,2.5,3.8,2.5,6.5V34.5z"/>
	<g>
		<linearGradient id="SVGID_5_" gradientUnits="userSpaceOnUse" x1="105.2109" y1="25.4224" x2="126.3789" y2="25.4224">
			<stop  offset="0" style="stop-color:#23BAED"/>
			<stop  offset="1" style="stop-color:#3CC6EE"/>
		</linearGradient>
		<path class="st4" d="M126.4,33.7c0,1.7-1.1,3-3.3,4c-1.7,0.8-3.6,1.2-5.5,1.2c-3.7,0-6.7-1.3-9.1-4c-2.2-2.6-3.4-5.7-3.4-9.5
			c0-3.8,1.1-6.9,3.4-9.5c2.3-2.6,5.3-3.9,9-3.9c2.1,0,4,0.3,5.5,0.9c2.1,0.8,3.2,2.2,3.2,4c0,0.9-0.3,1.7-0.8,2.4
			c-0.6,0.7-1.3,1-2.2,1c-0.6,0-1.5-0.2-2.6-0.6c-1.1-0.4-2-0.6-2.7-0.6c-1.8,0-3.1,0.6-4.1,1.9c-0.9,1.1-1.4,2.6-1.4,4.4
			c0,1.7,0.4,3.1,1.2,4.3c0.9,1.4,2.2,2,3.8,2c0.7,0,1.7-0.2,3-0.6c1.3-0.4,2.2-0.6,2.7-0.6c0.8,0,1.5,0.4,2.1,1
			C126.1,32.1,126.4,32.9,126.4,33.7z"/>
		<linearGradient id="SVGID_6_" gradientUnits="userSpaceOnUse" x1="128.3769" y1="25.4224" x2="153.2187" y2="25.4224">
			<stop  offset="0" style="stop-color:#23BAED"/>
			<stop  offset="1" style="stop-color:#3CC6EE"/>
		</linearGradient>
		<path class="st5" d="M145.8,25.4c0-1.7-0.4-3.1-1.2-4.3c-0.9-1.3-2.2-2-3.8-2c-1.6,0-2.9,0.7-3.8,2c-0.8,1.2-1.2,2.6-1.2,4.3
			c0,1.7,0.4,3.1,1.2,4.3c0.9,1.3,2.2,2,3.9,2c1.6,0,2.9-0.7,3.8-2C145.4,28.5,145.8,27.1,145.8,25.4z M153.2,34.5
			c0,1.1-0.3,2-1,2.7c-0.7,0.8-1.6,1.1-2.7,1.1c-1.6,0-2.8-0.8-3.4-2.3c-1.5,1.9-3.7,2.8-6.3,2.8c-3.4,0-6.2-1.4-8.4-4.3
			c-2-2.6-3-5.7-3-9.2c0-3.5,1-6.6,3-9.2c2.2-2.8,5-4.2,8.4-4.2c2.7,0,4.8,0.9,6.3,2.8c0.7-1.6,1.8-2.3,3.4-2.3c1,0,1.9,0.4,2.6,1.1
			c0.7,0.8,1.1,1.7,1.1,2.7V34.5z"/>
		<linearGradient id="SVGID_7_" gradientUnits="userSpaceOnUse" x1="155.8066" y1="25.1798" x2="172.0566" y2="25.1798">
			<stop  offset="0" style="stop-color:#23BAED"/>
			<stop  offset="1" style="stop-color:#3CC6EE"/>
		</linearGradient>
		<path class="st6" d="M172.1,15.8c0,1.6-0.8,2.7-2.3,3.3c-1.4,0.5-2.8,1-4.2,1.5c-1.5,0.9-2.3,2.5-2.3,4.9v9.1c0,1.1-0.4,2-1,2.7
			c-0.7,0.8-1.6,1.1-2.7,1.1c-1.1,0-2-0.4-2.6-1.1c-0.7-0.8-1-1.7-1-2.7V16.3c0-1.1,0.3-2,1-2.7c0.7-0.7,1.6-1.1,2.7-1.1
			c1.8,0,3,0.8,3.7,2.3c1.6-1.9,3.3-2.8,5.1-2.8c1,0,1.9,0.4,2.7,1.1C171.7,13.9,172.1,14.8,172.1,15.8z"/>
		<linearGradient id="SVGID_8_" gradientUnits="userSpaceOnUse" x1="173.3183" y1="21.1924" x2="191.3183" y2="21.1924">
			<stop  offset="0" style="stop-color:#23BAED"/>
			<stop  offset="1" style="stop-color:#3CC6EE"/>
		</linearGradient>
		<path class="st7" d="M191.3,16.1c0,1.6-0.6,2.7-1.9,3.1c-0.6,0.2-1.9,0.3-3.9,0.3v14.9c0,1.1-0.4,2-1,2.7
			c-0.7,0.8-1.6,1.1-2.7,1.1c-1,0-1.9-0.4-2.6-1.1c-0.7-0.8-1.1-1.7-1.1-2.7V19.6c-1.5,0-2.6-0.2-3.3-0.6c-1-0.5-1.4-1.5-1.4-2.9
			c0-1.4,0.5-2.3,1.5-2.8c0.7-0.4,1.8-0.6,3.3-0.6v-1.5V9.6c0-3.7,1.2-5.6,3.7-5.6c2.5,0,3.7,1.9,3.7,5.6v1.7v1.5
			c2,0,3.3,0.1,3.9,0.3C190.7,13.5,191.3,14.5,191.3,16.1z"/>
	</g>
	<g>
		<linearGradient id="SVGID_9_" gradientUnits="userSpaceOnUse" x1="101.793" y1="5.9312" x2="110.5889" y2="5.9312">
			<stop  offset="0" style="stop-color:#23BAED"/>
			<stop  offset="1" style="stop-color:#3CC6EE"/>
		</linearGradient>
		<path class="st8" d="M106.2,3.8h-1v1.9h1c0.6,0,1-0.1,1.2-0.2c0.2-0.1,0.3-0.4,0.3-0.8c0-0.3-0.1-0.5-0.4-0.7
			C107.1,3.9,106.7,3.8,106.2,3.8z M106.3,3.3c0.7,0,1.2,0.1,1.6,0.3c0.3,0.2,0.5,0.6,0.5,1.1c0,0.4-0.1,0.7-0.3,0.9
			c-0.2,0.2-0.5,0.4-0.9,0.4l1.1,2.4h-0.8l-1.1-2.3h-1.3v2.3h-0.7V3.3H106.3z M110.2,5.9c0-0.5-0.1-1-0.3-1.5
			c-0.2-0.5-0.5-0.9-0.8-1.3c-0.4-0.4-0.8-0.7-1.3-0.9c-0.5-0.2-1-0.3-1.5-0.3c-0.5,0-1,0.1-1.5,0.3c-0.5,0.2-0.9,0.5-1.3,0.8
			c-0.4,0.4-0.7,0.8-0.9,1.3c-0.2,0.5-0.3,1-0.3,1.5s0.1,1,0.3,1.5c0.2,0.5,0.5,0.9,0.9,1.3c0.4,0.4,0.8,0.7,1.3,0.9
			c0.5,0.2,1,0.3,1.5,0.3c0.5,0,1-0.1,1.5-0.3c0.5-0.2,0.9-0.5,1.3-0.9c0.4-0.4,0.7-0.8,0.9-1.3C110.1,7,110.2,6.5,110.2,5.9z
			 M106.2,1.5c0.6,0,1.2,0.1,1.7,0.3c0.5,0.2,1,0.5,1.4,1c0.4,0.4,0.7,0.9,0.9,1.4c0.2,0.5,0.3,1.1,0.3,1.7c0,0.6-0.1,1.2-0.3,1.7
			c-0.2,0.5-0.5,1-0.9,1.4c-0.4,0.4-0.9,0.8-1.5,1c-0.5,0.2-1.1,0.3-1.7,0.3s-1.1-0.1-1.7-0.3c-0.5-0.2-1-0.5-1.4-1
			c-0.4-0.4-0.7-0.9-1-1.4c-0.2-0.5-0.3-1.1-0.3-1.7s0.1-1.1,0.3-1.7c0.2-0.5,0.5-1,1-1.4c0.4-0.4,0.9-0.7,1.4-1
			C105,1.6,105.6,1.5,106.2,1.5z"/>
	</g>
	<linearGradient id="SVGID_10_" gradientUnits="userSpaceOnUse" x1="196.7754" y1="14.0201" x2="250.634" y2="14.0201">
		<stop  offset="0" style="stop-color:#23BAED"/>
		<stop  offset="1" style="stop-color:#3CC6EE"/>
	</linearGradient>
	<path class="st9" d="M196.8,0c6.9,7.3,13.4,8.4,38.8,8.4c25.4,0,14.3,5.7-1.5,19.7c5-8.7,22.1-16.3-6-15.9
		C201.3,12.6,199.7,4.4,196.8,0z"/>
	<linearGradient id="SVGID_11_" gradientUnits="userSpaceOnUse" x1="207.1894" y1="34.9249" x2="214.8808" y2="34.9249">
		<stop  offset="0" style="stop-color:#23BAED"/>
		<stop  offset="1" style="stop-color:#3CC6EE"/>
	</linearGradient>
	<path class="st10" d="M214.9,34.9c0,2.1-1.7,3.8-3.8,3.8c-2.1,0-3.8-1.7-3.8-3.8c0-2.1,1.7-3.9,3.8-3.9
		C213.2,31.1,214.9,32.8,214.9,34.9z"/>
	<linearGradient id="SVGID_12_" gradientUnits="userSpaceOnUse" x1="224.7109" y1="34.9249" x2="232.4023" y2="34.9249">
		<stop  offset="0" style="stop-color:#23BAED"/>
		<stop  offset="1" style="stop-color:#3CC6EE"/>
	</linearGradient>
	<path class="st11" d="M232.4,34.9c0,2.1-1.7,3.8-3.8,3.8c-2.1,0-3.8-1.7-3.8-3.8c0-2.1,1.7-3.9,3.8-3.9
		C230.7,31.1,232.4,32.8,232.4,34.9z"/>
</g>
</svg>
