<?xml version="1.0" encoding="utf-8"?>
<!-- Generator: Adobe Illustrator 21.0.2, SVG Export Plug-In . SVG Version: 6.00 Build 0)  -->
<svg version="1.1" id="Layer_1" xmlns="http://www.w3.org/2000/svg" xmlns:xlink="http://www.w3.org/1999/xlink" x="0px" y="0px"
	 viewBox="0 0 256 204" style="enable-background:new 0 0 256 204;" xml:space="preserve">
<style type="text/css">
	.st0{fill:#1A1918;}
</style>
<g>
	<path class="st0" d="M162.9,40.7c-4.8-4.8-12.6-4.8-17.5,0l-78.6,78.6c-9.7,9.6-25.3,9.6-34.9,0c-9.7-9.6-9.7-25.3,0-34.9L109,7.2
		c-9.6-9.6-25.3-9.6-34.9,0L14.5,66.9c-19.3,19.3-19.3,50.6,0,69.9c19.3,19.3,50.6,19.3,69.9,0l78.6-78.6
		C167.8,53.3,167.8,45.5,162.9,40.7L162.9,40.7z M189.1,14.5c-19.3-19.3-50.6-19.3-69.9,0L40.7,93.1c-4.8,4.8-4.8,12.6,0,17.5
		c4.8,4.8,12.6,4.8,17.5,0l78.6-78.6c9.6-9.6,25.3-9.6,34.9,0c4.8,4.8,12.6,4.8,17.5,0C194,27.1,194,19.3,189.1,14.5L189.1,14.5z
		 M215.3,93.1c-4.8-4.8-12.6-4.8-17.5,0l-78.6,78.6c-9.6,9.6-25.3,9.6-34.9,0c-4.8-4.8-12.6-4.8-17.5,0c-4.8,4.8-4.8,12.6,0,17.5
		c19.3,19.3,50.6,19.3,69.9,0l78.6-78.6C220.2,105.7,220.2,97.9,215.3,93.1L215.3,93.1z M241.5,66.9c-19.3-19.3-50.6-19.3-69.9,0
		l-78.6,78.6c-4.8,4.8-4.8,12.6,0,17.5c4.8,4.8,12.6,4.8,17.5,0l78.6-78.6c9.6-9.6,25.3-9.6,34.9,0c9.6,9.6,9.6,25.3,0,34.9
		L147,196.4c9.6,9.6,25.3,9.6,34.9,0l59.6-59.6C260.8,117.4,260.8,86.2,241.5,66.9L241.5,66.9z"/>
</g>
</svg>
