<?xml version="1.0" encoding="utf-8"?>
<!-- Generator: Adobe Illustrator 21.0.2, SVG Export Plug-In . SVG Version: 6.00 Build 0)  -->
<svg version="1.1" id="Layer_1" xmlns="http://www.w3.org/2000/svg" xmlns:xlink="http://www.w3.org/1999/xlink" x="0px" y="0px"
	 viewBox="0 0 512 512" style="enable-background:new 0 0 512 512;" xml:space="preserve">
<g id="XMLID_1423_">
	<g id="XMLID_2880_">
		<g id="XMLID_924_">
			<path id="XMLID_1259_" d="M458.1,409.1c5.2-7.5,8.3-16.6,8.3-26.5v-9.1c0-25.6-20.8-46.4-46.4-46.4s-46.4,20.8-46.4,46.4v9.1
				c0,9.8,3.1,19,8.3,26.5c-18.1,0.5-34.1,9.8-43.9,23.8c-9.7-13.9-25.7-23.2-43.9-23.8c5.2-7.5,8.3-16.6,8.3-26.5v-9.1
				c0-25.6-20.8-46.4-46.4-46.4s-46.4,20.8-46.4,46.4v9.1c0,9.8,3.1,19,8.3,26.5c-18.2,0.5-34.2,9.9-43.9,23.9
				c-9.7-14-25.8-23.3-43.9-23.9c5.2-7.5,8.3-16.6,8.3-26.5v-9.1c0-25.6-20.8-46.4-46.4-46.4s-46.4,20.8-46.4,46.4v9.1
				c0,9.8,3.1,19,8.3,26.5C24,410,0,434.6,0,464.6v37.3c0,5.5,4.5,10,10,10h492c5.5,0,10-4.5,10-10v-37.3
				C512,434.6,488,410,458.1,409.1z M393.6,373.5c0-14.6,11.9-26.4,26.4-26.4c14.6,0,26.4,11.9,26.4,26.4v9.1
				c0,14.6-11.9,26.4-26.4,26.4c-14.6,0-26.4-11.9-26.4-26.4V373.5z M229.6,373.5c0-14.6,11.9-26.4,26.4-26.4
				c14.6,0,26.4,11.9,26.4,26.4v9.1c0,14.6-11.9,26.4-26.4,26.4c-14.6,0-26.4-11.9-26.4-26.4L229.6,373.5L229.6,373.5z M65.5,373.5
				c0-14.6,11.9-26.4,26.4-26.4s26.4,11.9,26.4,26.4v9.1c0,14.6-11.9,26.4-26.4,26.4s-26.4-11.9-26.4-26.4V373.5z M164,491.9H20
				v-27.3c0-19.6,15.9-35.5,35.5-35.5h72.9c19.6,0,35.5,15.9,35.5,35.5L164,491.9L164,491.9z M184.1,464.6
				c0-19.6,15.9-35.5,35.5-35.5h72.9c19.6,0,35.5,15.9,35.5,35.5v27.3h-144L184.1,464.6L184.1,464.6z M492,491.9H348v-27.3
				c0-19.6,15.9-35.5,35.5-35.5h72.9c19.6,0,35.5,15.9,35.5,35.5L492,491.9L492,491.9z"/>
			<path id="XMLID_1309_" d="M187,268.8c-2.6,0-5.2,1.1-7.1,2.9c-1.9,1.9-2.9,4.4-2.9,7.1c0,2.6,1.1,5.2,2.9,7.1
				c1.9,1.9,4.4,2.9,7.1,2.9c2.6,0,5.2-1.1,7.1-2.9c1.9-1.9,2.9-4.4,2.9-7.1c0-2.6-1.1-5.2-2.9-7.1
				C192.2,269.8,189.6,268.8,187,268.8z"/>
			<path id="XMLID_1315_" d="M64,288.8h83c5.5,0,10-4.5,10-10s-4.5-10-10-10H74V198c0-18.6,15.1-33.7,33.7-33.7h16.5V211
				c0,4,2.4,7.6,6.1,9.2c3.7,1.6,8,0.8,10.8-2l35.8-34.4v30.1c0,5.5,4.5,10,10,10c5.5,0,10-4.5,10-10v-30.1l35.8,34.4
				c1.9,1.8,4.4,2.8,6.9,2.8c1.3,0,2.7-0.3,3.9-0.8c3.7-1.6,6.1-5.2,6.1-9.2v-46.7h16.5c18.6,0,33.7,15.1,33.7,33.7v70.8h-73
				c-5.5,0-10,4.5-10,10s4.5,10,10,10h83c5.5,0,10-4.5,10-10V198c0-29.6-24.1-53.7-53.7-53.7h-32.8c10.9-11.5,17.7-27,17.7-44.1v-23
				V66.6v-2.4c0-35.3-28.8-64.1-64.1-64.1s-64.1,28.8-64.1,64.1v2.4v10.6v23c0,17.1,6.7,32.6,17.7,44.1h-32.8
				C78.1,144.3,54,168.4,54,198v80.8C54,284.3,58.5,288.8,64,288.8z M144.2,164.3h24.2l-24.2,23.3L144.2,164.3L144.2,164.3z
				 M229.7,187.5l-24.2-23.3h24.2L229.7,187.5L229.7,187.5z M142.8,64.2c0-24.3,19.8-44.1,44.1-44.1c22.8,0,41.6,17.3,43.9,39.5
				l-20.9-12.3c-4.2-2.5-9.6-1.5-12.7,2.2c-9.4,11.2-23.2,17.7-37.9,17.7h-16.5v-0.6V64.2z M142.8,100.2v-13h16.5
				c17.7,0,34.6-6.7,47.3-18.6l24.4,14.4v17.3c0,24.3-19.8,44.1-44.1,44.1S142.8,124.5,142.8,100.2z"/>
			<path id="XMLID_1330_" d="M322.7,162.7c1.6,1,3.5,1.6,5.4,1.6c1.4,0,2.9-0.3,4.2-0.9l33.9-15.9h124.2c11.8,0,21.5-9.6,21.5-21.5
				V21.5c0-11.8-9.6-21.5-21.5-21.5H339.6c-11.8,0-21.5,9.6-21.5,21.5v132.8C318.1,157.7,319.9,160.9,322.7,162.7z M338.1,21.5
				c0-0.8,0.7-1.5,1.5-1.5h150.9c0.8,0,1.5,0.7,1.5,1.5V126c0,0.8-0.7,1.5-1.5,1.5H364c-1.5,0-2.9,0.3-4.2,0.9l-21.7,10.2V21.5z"/>
			<path id="XMLID_1331_" d="M367.3,62.6h95.3c5.5,0,10-4.5,10-10s-4.5-10-10-10h-95.3c-5.5,0-10,4.5-10,10S361.8,62.6,367.3,62.6z"
				/>
			<path id="XMLID_1332_" d="M367.3,102.6h65.7c5.5,0,10-4.5,10-10c0-5.5-4.5-10-10-10h-65.7c-5.5,0-10,4.5-10,10
				C357.3,98.1,361.8,102.6,367.3,102.6z"/>
		</g>
	</g>
</g>
</svg>
