<?xml version="1.0" encoding="utf-8"?>
<!-- Generator: Adobe Illustrator 21.0.2, SVG Export Plug-In . SVG Version: 6.00 Build 0)  -->
<svg version="1.1" id="OBJECTS" xmlns="http://www.w3.org/2000/svg" xmlns:xlink="http://www.w3.org/1999/xlink" x="0px" y="0px"
	 viewBox="0 0 402 364.4" style="enable-background:new 0 0 402 364.4;" xml:space="preserve">
<style type="text/css">
	.st0{clip-path:url(#SVGID_2_);}
	.st1{fill:#FF9291;}
	.st2{fill:#101C5D;}
	.st3{fill:#F27781;}
	.st4{fill:#2B3DFF;}
	.st5{fill:#EEC130;}
	.st6{fill:#121F69;}
	.st7{fill:none;stroke:#FFFFFF;stroke-miterlimit:10;}
	.st8{fill:#FFA2A1;}
	.st9{fill:#FFB0AF;}
	.st10{clip-path:url(#SVGID_4_);fill:#FFB0AF;}
	.st11{fill:#FFFFFF;}
	.st12{fill:#CAD0D2;}
	.st13{fill:#E1E3E7;}
	.st14{fill:#F3F4F8;}
	.st15{fill:#0A2C4A;}
	.st16{fill:#0E3E68;}
	.st17{fill:#0C3559;}
	.st18{clip-path:url(#SVGID_6_);fill:#FFFFFF;}
	.st19{clip-path:url(#SVGID_6_);fill:#BDBEBE;}
	.st20{clip-path:url(#SVGID_6_);}
	.st21{fill:#FF5821;}
	.st22{fill:#E13354;}
	.st23{fill:#FF3A5A;}
	.st24{fill:#FFAF21;}
	.st25{fill:#FF5773;}
	.st26{fill:#162885;}
	.st27{fill:#6A97FB;}
	.st28{fill:#FFA9A8;}
	.st29{fill:#FF9391;}
	.st30{fill:#1A004A;}
	.st31{fill:#004091;}
	.st32{fill:#1E34C2;}
	.st33{fill:#14216F;}
	.st34{fill:#101A57;}
	.st35{fill:#142378;}
	.st36{fill:#FE9393;}
	.st37{fill:url(#SVGID_7_);}
	.st38{opacity:0.7;fill:#FFFFFF;}
	.st39{fill:none;stroke:#0069C7;stroke-miterlimit:10;}
	.st40{fill:#5180FC;}
	.st41{fill:url(#SVGID_8_);}
	.st42{fill:#1B2EAD;}
</style>
<g>
	<defs>
		<rect id="SVGID_1_" width="402" height="364.4"/>
	</defs>
	<clipPath id="SVGID_2_">
		<use xlink:href="#SVGID_1_"  style="overflow:visible;"/>
	</clipPath>
	<g class="st0">
		<g>
			<g>
				<path class="st1" d="M48.4,94.3l9.9-15.4c0,0-1.8-0.9-1-5.8c0.6-3.3,4.7-9.4,5.3-11.1c1.5-4.2,4.6-8.6,6.7-9
					c2.1-0.4,12,6.1,13.6,10.7c1.2,3.3-8.5,17-12.4,20.2C65.6,87.9,60,102.9,60,102.9L48.4,94.3z"/>
				<path class="st2" d="M65.2,160.8c-4.3-1.3-20.9-9.9-36.9-14.1c-9.2-2.4-12-10.6-9.2-16.4l39.5-51.7L71,83.3l-9,36.4l27.7,0
					L65.2,160.8z"/>
				<g>
					<path class="st3" d="M124.4,466c1,1.9,0.3,6.2,0.3,6.2s-19.5,2.3-25.8,0.3c-1.6-0.5-4.4-2.4-7-4.3c-0.4-0.3-1.2-2.2-1.6-2.6
						c-0.8-0.6-1.2,0.4-1.9-0.2c-1.7-1.4-4.4-3.8-4.4-3.9c-1.7-11.3-0.6-25.1-0.6-25.1s15.1-4.4,16.6,1.2
						C103.7,451,121.6,460.6,124.4,466"/>
					<path class="st4" d="M124.9,468.4c-6,0.8-18.7,2.5-21,1.9c-9.5-2.4-16.6-10.1-20.5-14.1c0.1,1.6,0.3,3.3,0.6,5.3
						c0,0.1,2.6,2.5,4.4,3.9c0.7,0.5,1.1-0.4,1.9,0.2c0.4,0.3,1.2,2.2,1.6,2.6c2.6,1.9,5.4,3.8,7,4.3c6.3,2,25.8-0.3,25.8-0.3
						S125,470.3,124.9,468.4"/>
					<path class="st4" d="M114.3,457.5c0.1,0.5-0.7,0.7-1.8,0.6c-2.2-0.2-4.5-0.1-6.7,0.3c-1.1,0.2-2.1,0-2.1-0.5
						c0-0.5,0.8-1.2,1.9-1.3c2.2-0.3,4.4-0.4,6.6-0.2C113.3,456.4,114.2,457,114.3,457.5"/>
					<path class="st4" d="M110.6,454c0.1,0.5-0.7,0.8-1.8,0.9c-2.2,0-4.4,0.4-6.6,1c-1.1,0.3-2,0.2-2.1-0.4c0-0.5,0.8-1.3,1.9-1.6
						c2.2-0.6,4.4-0.9,6.6-0.9C109.6,453.1,110.5,453.6,110.6,454"/>
					<path class="st4" d="M106.9,450.9c0.1,0.5-0.8,1-1.8,1.1c-2.2,0.3-4.4,0.8-6.5,1.6c-1.1,0.4-2,0.4-2-0.2c0-0.6,0.8-1.4,1.9-1.8
						c2.2-0.8,4.3-1.3,6.5-1.5C106,450,106.9,450.4,106.9,450.9"/>
				</g>
				<path class="st2" d="M30.9,218.4C19.1,236.1,1.3,301.2,0.1,318.9c-0.1,1.9-0.3,9.5,0.2,14l27.2,104.9c0,0,23.3-0.4,22.2-3
					c0,0,1.2-37.8-1.2-56.8c-1.7-13.9-6.3-27.9-9.2-35.9c-1.6-4.5-1.5-9.3,0.3-13.7l37.3-90L30.9,218.4z"/>
				<path class="st2" d="M53.4,229c-0.5,1-1.9,58.9,3.7,106.7c6.9,58.8,25.5,112.6,25.5,112.6c2.5,1.7,6.8,2.1,12.8,2
					c5.8-0.1,10.1-2.8,9.4-3.9c0,0-0.7-43.4-1.8-57.8c-1-13.2-6.2-52.4-6.2-52.4l8.6-94.3L53.4,229z"/>
				<path class="st5" d="M28.3,221.1c0,0,7.7,11.1,21,15.7c13.3,4.6,30.4,9.2,30.4,9.2l35.2-112.8L28.3,221.1z"/>
				<path class="st6" d="M69.2,125c0,0,33.4-5.8,35.7-5.4c1.2,0.2,25.1,6.6,25.1,6.6l18.1,7.7l7.4,11.4l-39.7,56.5L104.6,275
					l-46.5-9.1l10.8-82.6l-46.3,68.3l-13-10.2L69.2,125z"/>
				<polygon class="st5" points="131.9,126.7 87.4,161.4 100,116 				"/>
				<path class="st7" d="M82.3,147c1.6,5.6,6.9,9.7,12.5,11c5.7,1.4,11.7,0.4,17.2-1.5"/>
				<g>
					<path class="st4" d="M41.9,453.1l-10,9.6c-0.8,0.7-1.7,1.2-2.7,1.4l-19,4.1c-1,0.2-1.9,0.1-2.9-0.2l-5.4-1.9v3.2l5.9,2.1
						c0.9,0.3,1.9,0.4,2.9,0.2l19-4.1c1-0.2,2-0.7,2.7-1.4l7.6-7.6l1.2,2.4l9.4-2.6l0.3-8.5L41.9,453.1z"/>
					<path class="st3" d="M10.2,468.2l19-4.1c1-0.2,2-0.7,2.7-1.4l10-9.3l9.2-3.5l-2.7-14.5l-20.8,1.9l-1.8,7.7l-5,6L1.9,463.5v2.5
						l5.4,1.9C8.2,468.3,9.2,468.4,10.2,468.2z"/>
					<g>
						<path class="st4" d="M19,457.5c-0.2,0.6-1.2,0.3-2.6-0.5c-3.5-1.9-3.1-1.6-2.5-2.3c0.4-0.4,0.9-0.9,2.9,0.2
							C18.1,455.8,19.1,456.9,19,457.5"/>
						<path class="st4" d="M22.4,454.2c-0.2,0.6-1.2,0.3-2.6-0.5c-3.5-1.9-3.1-1.6-2.5-2.3c0.4-0.4,0.9-0.9,2.9,0.2
							C21.6,452.5,22.6,453.6,22.4,454.2"/>
						<path class="st4" d="M25.4,450.7c-0.2,0.6-1.2,0.3-2.6-0.5c-3.5-1.9-3.1-1.6-2.5-2.3c0.4-0.4,0.9-0.9,2.9,0.2
							C24.6,448.9,25.6,450,25.4,450.7"/>
					</g>
				</g>
				<path class="st8" d="M125.7,94.1l4.4,32.2c0,0-10.2,2.6-19.1,2.5c-8.9-0.1-13.3-4.6-13.3-4.6l9.8-37.7L125.7,94.1z"/>
				<g>
					<g>
						<path class="st9" d="M93.6,91.5c-1.2,3.9,0.6,10.2,2.9,13.6c1.7,2.6,5,3.5,8,4.1c6.8,1.4,10.8,1.8,15.9-2.7
							c5.1-4.5,11.3-14.5,13.8-20.7c1.1-2.7,2-5.5,1.7-8.4c-0.4-4.3-3.6-7.9-6.7-10.9C108.2,46.7,98.5,75.9,93.6,91.5z"/>
						<path class="st8" d="M101.5,67.5c2.4,5.6,8.6,8.5,14.2,11c2.5,1.1,5,2.1,7.7,2.8c-0.7,1.4-1.4,2.8-1.9,4.3
							c0.8,0.7,1.6,1.4,2.4,2.1c0.2,0.2,0.4,0.3,0.6,0.3c0.3,0,0.6-0.2,0.8-0.4c2-1.7,4.1-3.4,6.1-5.1c-1.1-2.7-2-5.7-2.3-8.6
							c-7.7-0.3-15.3-1.6-22.7-4C104.6,69.4,102.7,69,101.5,67.5z"/>
						<path class="st2" d="M144.1,86.7c-0.5-0.3-0.5-0.9-0.1-1.2c7.8-7.4,8.7-15.8,4.7-18.7c-2.3-1.7-3.9-1.2-4.9-0.6
							c-0.5,0.4-1.2,0.1-1.2-0.5c-0.9-9.2-10-14.1-23.3-15.8c-0.3-1-0.8-2-1.3-2.8c-3.7-5.5-11.6-7.7-17.6-5c-0.5,0.2-1,0.5-1.5,0.8
							c-0.1,0-0.3,0-0.4,0.1c-2.1,1.1-3.8,3.2-4.9,5.7c-1.6,3-0.8,8.7-0.8,8.7c0.1,0.5,0.3,1,0.4,1.4c0.7,2.1,2.1,4.5,4.4,7.2
							c2.4,2.8,5.6,4.8,8.9,6.4c4.9,2.4,10.1,4.3,15.6,4.7c1.2,0.1,2.4,0.1,3.7,0c0,2.5-0.9,5.3-1.7,7.1c-0.3,0.8,1.8,2.2,2.6,2.5
							l0.7,0.2l2.9-0.2c0.5,0,0.9,0.4,0.8,0.9l-3.2,9.2c-0.1,0.4,0.3,0.8,0.7,0.9c1.8,0.2,7.1,1.3,12.9-2.3
							C147,91.8,145.6,87.6,144.1,86.7z"/>
						<g>
							<defs>
								<path id="SVGID_3_" d="M124.6,89.8l0.2,5.4c4.3,0.5,14.3-7.5,9.8-11.9c-0.3-0.3-0.6-0.5-1-0.7
									C129.3,80.4,124.6,89.8,124.6,89.8"/>
							</defs>
							<use xlink:href="#SVGID_3_"  style="overflow:visible;fill:#FFB0AF;"/>
							<clipPath id="SVGID_4_">
								<use xlink:href="#SVGID_3_"  style="overflow:visible;"/>
							</clipPath>
							
								<rect x="121.9" y="81.4" transform="matrix(0.764 -0.6452 0.6452 0.764 -27.0074 105.8498)" class="st10" width="18.6" height="16.9"/>
						</g>
						<g>
							<path class="st2" d="M141.6,55.1c-5.1-5.7-13.5-8.4-21-6.5l-0.3,0.1l0-0.3c-0.5-3.9-3.5-7.3-7.3-8.2l0.1-0.5
								c3.9,1,7,4.4,7.6,8.4c7.6-1.8,16,0.9,21.2,6.7L141.6,55.1z"/>
						</g>
						<g>
							<path class="st2" d="M145,95.2l-0.2-0.4c1.6-0.7,2.8-2.2,3.2-4.1c0.4-1.9,0.1-3.8-1-5.1l0.4-0.3c1.2,1.4,1.6,3.5,1.1,5.5
								C148,92.8,146.7,94.5,145,95.2z"/>
						</g>
					</g>
					<g>
						<g>
							<path class="st2" d="M100.4,88.6c-1.2-0.5-2.4-1.1-3.5-1.8l-0.2-0.1l0.2-0.1c2.9-2.2,5.2-5.1,6.8-8.3l0.3,0.1
								c-1.6,3.2-3.9,6.1-6.7,8.3c1,0.6,2.1,1.2,3.2,1.6L100.4,88.6z"/>
						</g>
						<g>
							<path class="st8" d="M114,94.8c-0.1,0.8-0.2,1.5,0,2.3c0.5,2.1,2.7,3.5,4.9,3.3c2.1-0.1,4.1-1.6,5.1-3.5
								c0.8-1.4,1.1-3.2,0.3-4.6C121.2,87.5,114.9,89.7,114,94.8z"/>
						</g>
						<g>
							<path class="st2" d="M109.6,78c1.8-0.4,2.8,0.1,4.2-0.2c1.4-0.3,2.9-0.4,4.1,0.3c1.2,0.7,1.7,2.7,0.6,3.6
								c-0.8,0.6-1.9,0.4-2.9,0.2c-1.7-0.4-3.4-0.7-5-1.1c-0.6-0.1-1.3-0.3-1.7-0.7c-0.5-0.4-0.6-1.2-0.2-1.7"/>
						</g>
						<g>
							<path class="st2" d="M101.1,73.7c0.9,0.5,1.8,1,2.1,2c0.3,0.9-0.5,2.2-1.5,1.9c-0.3-0.1-0.6-0.4-0.8-0.6
								c-0.5-0.6-1.1-1.2-1.6-1.9c-0.4-0.4-0.8-1-0.5-1.5c0.2-0.4,0.7-0.4,1.1-0.3"/>
						</g>
						<g>
							<circle class="st2" cx="110" cy="84.1" r="1.5"/>
						</g>
						<g>
							<circle class="st2" cx="99.5" cy="79.6" r="1"/>
						</g>
					</g>
					
						<ellipse transform="matrix(0.3265 -0.9452 0.9452 0.3265 -24.2526 155.2791)" class="st11" cx="96.8" cy="94.7" rx="2.4" ry="1.6"/>
				</g>
				<g>
					<path class="st12" d="M85,93.6c1.1,0.8,2.1,1.6,3.2,2.3c4.6-2.2,7.8-6.5,8.4-11.6c-1.1-0.8-2.1-1.6-3.2-2.3
						C90.6,85.8,87.8,89.7,85,93.6z"/>
					<path class="st13" d="M88.5,88.7c1.6-2.2,3.2-4.5,4.9-6.7c1.1,0.8,2.1,1.6,3.2,2.3c-0.4,2.9-1.6,5.6-3.4,7.8
						C91.7,90.9,90.1,89.8,88.5,88.7z"/>
					<path class="st13" d="M48,115.2c-0.5,0.6-0.7,1.2-0.4,1.4l7.6,6.5c0.2,0.2,0.8-0.1,1.3-0.6l25-29.3c0.5-0.6,0.7-1.2,0.4-1.4
						l-7.6-6.5c-0.2-0.2-0.8,0.1-1.3,0.6L48,115.2z"/>
					<path class="st14" d="M47.5,115.8l26.3-31c0.2-0.2,0.6-0.3,0.8-0.1l7.6,6.5c0.2,0.2,0.3,0.5,0.1,0.7l-6.2-5.3
						c-0.2-0.2-0.6-0.2-0.8,0.1l-26.3,31c0,0-0.1,0.1-0.1,0.1l-1.4-1.2C47.3,116.5,47.2,116.1,47.5,115.8z"/>
					<path class="st12" d="M79.8,91.3c0.2-0.2,0.2-0.6-0.1-0.8l-6.3-5.3l0.2-0.3c0.2-0.2,0.6-0.3,0.8-0.1l7.6,6.5
						c0.2,0.2,0.3,0.6,0.1,0.8l-26.5,30.9c-0.2,0.2-0.6,0.3-0.8,0.1l-1.4-1.2L79.8,91.3z"/>
					<path class="st15" d="M82,92.9c1.2,0.9,2.5,1.8,3.7,2.7c5.3-2.5,9-7.6,9.7-13.4c-1.2-0.9-2.5-1.8-3.7-2.7
						C88.5,84,85.3,88.5,82,92.9z"/>
					<path class="st15" d="M82,92.9c1.2,0.9,2.5,1.8,3.7,2.7c5.3-2.5,9-7.6,9.7-13.4c-1.2-0.9-2.5-1.8-3.7-2.7
						C88.5,84,85.3,88.5,82,92.9z"/>
					<path class="st16" d="M68.5,84.9c1.2,0.9,13.3,9.4,14.5,10.3c5.3-2.5,10.2-8.5,11-14.3c-1.2-0.9-12.6-10.7-13.9-11.6
						C76.9,73.8,71.8,80.4,68.5,84.9z"/>
					<path class="st17" d="M87.7,91.9c-1.5,1.3-3.1,2.5-4.7,3.2c-1.2-0.9-13.3-9.4-14.5-10.3c0.9-1.3,2-2.8,3.2-4.3
						C77.4,84.6,84.7,89.7,87.7,91.9z"/>
					<path class="st17" d="M80.1,69.3c1.2,0.9,12.6,10.7,13.9,11.6c-0.1,0.6-0.2,1.2-0.4,1.8c-3-2.4-12.3-10-14.7-11.8
						C79.4,70.3,79.7,69.8,80.1,69.3z"/>
					<path class="st16" d="M87.7,91.9c-3.1-2.2-10.3-7.3-16-11.4c2.4-3.2,5.1-6.8,7.3-9.7c2.4,1.8,11.7,9.5,14.7,11.8
						C92.7,86.1,90.5,89.4,87.7,91.9z"/>
					<path class="st13" d="M48.7,58.5c4.2-5.8,8.7-10.9,13.3-15.3c1.7,8,8.2,17.5,18.1,26.1l0,0c0,0.5-1.8,4.5-4.8,8.6
						c-3,4.1-6,6.9-6.5,7.1l0,0c0,0,0,0,0,0l0,0l0,0c-11.2-6.7-22.5-9.9-30.5-9C41,70.2,44.5,64.3,48.7,58.5z"/>
					<path class="st14" d="M49.4,57.6c0.7-0.9,1.4-1.9,2.1-2.8c2.2-2.7,4.7-5,7.4-7c3,6.3,10.5,14.8,20.6,23.3
						c-0.7,1.6-2.2,4.1-4.1,6.8c-0.9,1.2-1.7,2.2-2.5,3.2c-11.2-7.4-21.7-12.2-28.7-13.3C45.3,64.3,47.1,60.8,49.4,57.6z"/>
					<path class="st11" d="M62.9,56.6c0,0,10.1,12.6,17.6,18c5.5,3.9,10.2,7.7,10.2,7.7l-0.4,0.8c0,0-12.1-8.3-17.1-12.7
						c-5.3-4.7-11.6-11.5-11.6-11.5L62.9,56.6z"/>
					<g>
						
							<ellipse transform="matrix(0.5872 -0.8095 0.8095 0.5872 -27.2935 64.8593)" class="st15" cx="49.9" cy="59.2" rx="20.5" ry="7.2"/>
						
							<ellipse transform="matrix(0.5871 -0.8095 0.8095 0.5871 -27.132 63.8452)" class="st15" cx="49" cy="58.5" rx="20.5" ry="6.5"/>
					</g>
					
						<ellipse transform="matrix(0.5871 -0.8095 0.8095 0.5871 -27.1321 63.8444)" class="st12" cx="49" cy="58.5" rx="19.9" ry="6.3"/>
					<g>
						<defs>
							
								<ellipse id="SVGID_5_" transform="matrix(0.5871 -0.8095 0.8095 0.5871 -27.1321 63.8444)" cx="49" cy="58.5" rx="19.9" ry="6.3"/>
						</defs>
						<clipPath id="SVGID_6_">
							<use xlink:href="#SVGID_5_"  style="overflow:visible;"/>
						</clipPath>
						<path class="st18" d="M55.5,50.5c-0.5,3.3-0.4,6.7,0.7,9.8c-0.6-0.6-0.9-1.3-1.2-2c-1.1-2.6-1.4-5.5-1.2-8.4
							c0.1-2.8,0.6-5.7,1.2-8.5c0-0.1,3-0.3,3.3-0.3c0.1,0.6-0.5,1.5-0.7,2.1c-0.3,0.8-0.6,1.6-0.8,2.4
							C56.1,47.2,55.7,48.8,55.5,50.5z"/>
						<path class="st19" d="M36.3,68c1.1-2.6,2.2-5.2,3.5-7.7c2.5-0.3,5.1,0.1,7.5,0.9c2.4,0.8,4.7,2,6.9,3.2
							c-0.1,0-1.7,2.4-2.3,2.5c-1,0.2-2.4-0.3-3.4-0.4c-2.6-0.2-5.3-0.3-7.9,0.2C39.1,66.9,37.7,67.4,36.3,68z"/>
						<g class="st20">
							<polygon class="st21" points="59.2,72.3 65,64 48.9,54 44.2,60.8 							"/>
							<polygon class="st22" points="59.2,72.3 44.2,60.8 45.9,58.3 61.4,69.2 							"/>
							<polygon class="st23" points="65,64 61.4,69.2 45.9,58.3 48.9,54 							"/>
							
								<ellipse transform="matrix(0.5693 -0.8222 0.8222 0.5693 -27.135 63.0253)" class="st24" cx="46.6" cy="57.4" rx="4.1" ry="0.9"/>
							
								<ellipse transform="matrix(0.5692 -0.8222 0.8222 0.5692 -27.1349 63.0267)" class="st16" cx="46.6" cy="57.4" rx="1.8" ry="0.4"/>
							<polygon class="st25" points="48.9,55.3 63.9,65.4 63.1,66.6 48.2,56.6 							"/>
						</g>
					</g>
				</g>
				<g>
					<path class="st8" d="M77.6,96.2C74.8,91.5,69,82.3,69,82.3C60.2,80.3,47,78,46.2,78.1c-0.5,0.1-0.8,1.4,0.8,1.8l11.9,3
						l-12.3-2.2c-0.7,0.2-0.8,0.5-0.7,1.1c0.1,0.4,0.4,0.7,0.8,0.8l13.5,3.1l-13.4-2.2c-1,0.3-0.4,1.8,0.6,2.1l10.4,2.7l-10.2-1.4
						c-0.5,0.1-0.4,0.9,0.3,1.5c1.1,1,11.2,4,11.2,4s2.7,14,5.9,17.9c3.2,3.9,8.2,3.1,8.2,3.1l3.8,19.6l15.1-10.8
						C92.3,122.3,80.5,100.9,77.6,96.2z"/>
					<path class="st26" d="M71.5,122.4c0,0,16.3,72.2,22.6,77.2c6.4,4.9,41.6-19.9,51.8-30.6c10.2-10.7,13.4-25.8,6.9-32.2
						c-2.8-2.8-10.3-8.5-22.1-1.4c-11.7,7-22.4,21-22.4,21L90,113L71.5,122.4z"/>
				</g>
			</g>
			<g>
				<g>
					<path class="st9" d="M69.2,51.7c-1.1-0.5-2.4-0.1-2.8,0.9l-3.8,9.6c-0.2,0.5,0,1.1,0.6,1.4l0,0c0.6,0.3,1.4,0.2,1.7-0.4
						l5.4-8.9c0.6-0.9,0.1-2.1-0.9-2.6L69.2,51.7z"/>
					<path class="st9" d="M73.6,55.2c-1-0.7-2.4-0.4-2.9,0.6l-5,9.1c-0.3,0.5-0.1,1.1,0.4,1.5l0,0c0.6,0.4,1.3,0.3,1.8-0.2l6.5-8.1
						c0.7-0.8,0.4-2-0.6-2.7L73.6,55.2z"/>
					<path class="st9" d="M77.3,58.1c-1-0.7-2.4-0.4-2.9,0.6l-5,9.1c-0.3,0.5-0.1,1.1,0.4,1.5l0,0c0.6,0.4,1.3,0.3,1.8-0.2l6.5-8.1
						c0.7-0.8,0.4-2-0.6-2.7L77.3,58.1z"/>
					<path class="st9" d="M81.7,61.3c-0.9-0.7-2.2-0.5-2.8,0.4l-5.4,8.4c-0.3,0.5-0.2,1.1,0.3,1.5l0,0c0.5,0.4,1.3,0.4,1.7-0.1
						l6.8-7.4c0.7-0.8,0.5-1.9-0.4-2.6L81.7,61.3z"/>
				</g>
			</g>
		</g>
		<g>
			<path class="st11" d="M114.5,132.5c-1,0-2,0-3.1-0.1c-3.7-0.2-12.5-0.6-14.8-4.3l0.6-2c1.3,2,7.3,4.1,14.3,4.4
				c6.4,0.3,16.1-1.5,18.3-2.2l-3.2,2.6C124.2,132.2,120.2,132.5,114.5,132.5z"/>
		</g>
		<g>
			<g>
				<ellipse class="st27" cx="231.8" cy="153.9" rx="4.5" ry="5.6"/>
			</g>
			<g>
				<polygon class="st27" points="262.6,32 303.9,31.9 304.3,334.5 262.6,334.5 				"/>
			</g>
		</g>
		<g>
			<g>
				<g>
					<g>
						<path class="st28" d="M233.5,100.7c-0.7,3.5-2.8,8.5-4.2,8.3c-1.4-0.3-2-3.3-1.3-6.8c0.7-3.5,2.3-6,3.7-5.8
							C233.1,96.8,234.2,97.3,233.5,100.7z"/>
					</g>
					<g>
						<g>
							<path class="st29" d="M201.6,130.8l-0.1-18.8l17.6-0.1l0.1,16.2c-5.5,3.7-11.6,6.4-18,7.9
								C201.5,134.2,201.6,132.5,201.6,130.8z"/>
						</g>
						<g>
							<path class="st8" d="M219.2,128.1l0,2.6c0,6.8,1.9,13.5,5.4,19.3l0.1,0.1l-28.4,0.1l0,0c2.6-4.4,4.3-9.2,5-14.2
								C207.6,134.4,213.8,131.7,219.2,128.1z"/>
						</g>
					</g>
					<g>
						<path class="st2" d="M176.2,115.2c0.6,8.7,2.6,18-1.3,25.9c-2,4.1-5.5,7.3-8.9,10.3c-3.4,3-7,6.1-9.3,10
							c-2.3,3.9-3.2,9-1.1,13.1c1.3,2.4,3.4,4.1,5.8,5.4c8.2,4.5,19,3.5,26.5-2c7.6-5.5,11.8-15,11.6-24.4
							c-0.1-6.4-2.1-12.5-4.2-18.5c-1-3-2.1-6.1-1.6-9.2c0.5-2.9,2.3-5.4,3.6-8.1c2.9-6.1,2.5-17.8-6.4-18.4
							C182.3,98.8,175.7,107.2,176.2,115.2z"/>
					</g>
					<g>
						<path class="st9" d="M191.6,95.4c0.1,9.7,1.8,18.4,6.1,24.2c3.3,4.4,8.6,8.1,13.2,8.1c4.7,0,10-3.8,13.3-8.4
							c4.1-5.8,5.7-14.4,5.7-24c-0.1-17.3-8.7-24.5-19.2-24.4C200,70.8,191.5,78,191.6,95.4z"/>
					</g>
					<g>
						<path class="st2" d="M187.6,102.5c-1.5-5.5-2.5-11.2-1.8-16.8c0.7-5.6,3.1-11.2,7.3-14.9c4.3-3.7,10.5-5.3,15.8-3.3
							c9.4,3.5,1.7,8.6-2.2,14c-2.5,3.4-6.9,11.2-10.2,13.8C195.7,95.9,187.7,103,187.6,102.5z"/>
					</g>
					<g>
						<path class="st9" d="M186.5,101.6c1,3.4,3.7,8.2,5.1,7.8c1.3-0.4,1.6-3.5,0.6-6.8c-1-3.4-3-5.8-4.3-5.3
							C186.5,97.6,185.5,98.2,186.5,101.6z"/>
					</g>
					<g>
						<path class="st8" d="M229.5,96.7c-3.6-0.2-7-1.6-10-3.5c-3-1.9-10.3-8.2-11.7-11.6c-1.9,4.4-2.4,6.4-7.3,12.3
							c-2.8,3.4-4.6,4.2-8.8,5.5c4.2-8.4,7.6-16.1,15.1-21.8c1.4-1.1,2.9-2.1,4.7-2.4c4,2.7,7.9,5.6,11.2,9.2
							C225.8,87.9,228.3,92.1,229.5,96.7z"/>
					</g>
					<g>
						<path class="st2" d="M214.1,86.4c3.6,4.7,14.8,10.8,19.2,11.2c2.9-3.3,3.3-11.1,1.9-15.2c-0.9-2.7-5.4-8.8-7.4-10.7
							c-3.5-3.5-10.8-5.5-15.2-5.3C198.8,66.9,211,82.5,214.1,86.4z"/>
					</g>
					<g>
						<path class="st30" d="M160.5,152c0,0-0.1,0-0.1,0c-0.1-0.1-0.1-0.2-0.1-0.3c1.4-2.1,3.5-3.6,5.5-5c1.5-1.1,3.1-2.2,4.3-3.6
							c2.4-2.6,4-6.3,4.4-10.3c0.4-3.4-0.1-7.2-1.3-11.3c0-0.1,0-0.3,0.2-0.3c0.1,0,0.3,0,0.3,0.2c1.2,4.2,1.7,8,1.3,11.5
							c-0.4,4.1-2.1,7.9-4.6,10.6c-1.3,1.4-2.9,2.5-4.4,3.7c-2,1.4-4,2.9-5.4,4.9C160.6,152,160.5,152,160.5,152z"/>
					</g>
					<g>
						<path class="st30" d="M172.6,186.2c-3.5,0-6.9-0.7-10-2.3c-0.2-0.1-0.2-0.3-0.2-0.5c0.1-0.2,0.3-0.2,0.5-0.2
							c6.6,3.2,15,2.9,21.3-1c0.2-0.1,0.4,0,0.5,0.1c0.1,0.2,0,0.4-0.1,0.5C181,185.1,176.8,186.2,172.6,186.2z"/>
					</g>
					<g>
						<path class="st8" d="M201.3,112.9c0.3,1.2,0.4,2.6-0.5,3.4c-0.7,0.6-1.8,0.6-2.6,0.2c-0.8-0.4-1.4-1.2-1.9-1.9
							c-0.4-0.7-0.8-1.4-1.1-2.1c-0.9-2.1-0.5-5.4,2.6-4.8C199.8,108.1,200.8,111.1,201.3,112.9z"/>
					</g>
					<g>
						<path class="st8" d="M226.2,114.1c-0.7,1.5-1.9,2.9-3.6,3.3c-0.2,0.1-0.5,0.1-0.8,0c-0.3-0.1-0.5-0.3-0.7-0.6
							c-1.3-1.7-0.9-4.2-0.1-6.1c0.6-1.3,1.4-2.5,2.7-3C228,106.2,227,112.1,226.2,114.1z"/>
					</g>
					<g>
						<path class="st11" d="M216.8,116c-0.9,2.8-2.8,4.2-5.1,4.2c-2.1,0-4.6-1.4-5.2-4.4c0,0,3.6,0.7,4.8,0.7
							C212.6,116.5,216.8,116,216.8,116z"/>
					</g>
					<g>
						<g>
							<path class="st31" d="M228.8,86.3c-0.1,0-0.2-0.1-0.2-0.2c-2-5.2-6.6-9.4-12.1-10.8c-0.1,0-0.2-0.2-0.2-0.3
								c0-0.1,0.2-0.2,0.3-0.2c5.6,1.5,10.3,5.7,12.4,11.1C229,86.1,229,86.3,228.8,86.3C228.8,86.3,228.8,86.3,228.8,86.3z"/>
						</g>
						<g>
							<path class="st31" d="M191,94.7C191,94.7,191,94.7,191,94.7c-0.2,0-0.3-0.2-0.2-0.3c0.7-3,1.5-6.1,3-8.9
								c2.6-4.9,7-8.8,12.3-10.5c0.1,0,0.3,0,0.3,0.2c0,0.1,0,0.3-0.2,0.3c-5.2,1.7-9.6,5.4-12.1,10.3c-1.4,2.8-2.2,5.9-2.9,8.8
								C191.3,94.6,191.2,94.7,191,94.7z"/>
						</g>
						<g>
							<path class="st31" d="M184.5,154.5c-0.1,0-0.2,0-0.2-0.1c-0.1-0.1,0-0.3,0.1-0.3c3.9-2.4,6.2-7,5.8-11.5
								c-0.2-2.2-1-4.4-1.8-6.5c-0.9-2.4-1.9-5-1.9-7.6c0-4.5,2.6-8.3,5.4-12.2c0.1-0.1,0.2-0.1,0.3-0.1c0.1,0.1,0.1,0.2,0.1,0.3
								c-2.8,3.8-5.3,7.6-5.3,11.9c0,2.6,0.9,5,1.8,7.4c0.8,2.1,1.6,4.3,1.8,6.6c0.4,4.7-2,9.5-6,12
								C184.6,154.5,184.5,154.5,184.5,154.5z"/>
						</g>
						<g>
							<path class="st31" d="M160.9,163.1c-0.1,0-0.2-0.1-0.2-0.2c0-0.1,0-0.3,0.2-0.3c9.3-3,16.6-11.1,18.5-20.7
								c0-0.1,0.1-0.2,0.3-0.2c0.1,0,0.2,0.2,0.2,0.3C177.8,151.8,170.4,160.1,160.9,163.1C160.9,163.1,160.9,163.1,160.9,163.1z"/>
						</g>
						<g>
							<path class="st31" d="M193.7,78c0,0-0.1,0-0.1,0c-0.1-0.1-0.1-0.2-0.1-0.3c2.7-4.2,7.4-6.9,12.3-7c0.1,0,0.2,0.1,0.2,0.2
								c0,0.1-0.1,0.2-0.2,0.2c-4.8,0.2-9.4,2.8-11.9,6.8C193.9,77.9,193.8,78,193.7,78z"/>
						</g>
					</g>
					<g>
						<path class="st2" d="M210.1,111.6l-0.1-0.3c0.9-0.4,1.8-0.8,2.7-1.2c-1.3-3.7-1.8-7.6-1.5-11.5l0.3,0
							c-0.3,3.9,0.3,7.9,1.6,11.5l0.1,0.1l-0.1,0.1C212,110.7,211.1,111.1,210.1,111.6z"/>
					</g>
				</g>
				<g>
					<g>
						<circle class="st2" cx="218.4" cy="100.8" r="1.8"/>
						<circle class="st2" cx="202.1" cy="100.8" r="1.8"/>
					</g>
					<g>
						<g>
							<path class="st2" d="M204.3,97.7c-0.1,0-0.2,0-0.3-0.1c-1.5-1.1-3.6-1.3-5.2-0.5c-0.2,0.1-0.5,0-0.6-0.2
								c-0.1-0.2,0-0.5,0.2-0.6c2-0.9,4.4-0.7,6.2,0.6c0.2,0.2,0.3,0.4,0.1,0.7C204.6,97.6,204.4,97.7,204.3,97.7z"/>
						</g>
						<g>
							<path class="st2" d="M215.7,97.5c-0.2,0-0.3-0.1-0.4-0.2c-0.1-0.2-0.1-0.5,0.1-0.7c1.8-1.2,4.3-1.3,6.2-0.2
								c0.2,0.1,0.3,0.4,0.2,0.6c-0.1,0.2-0.4,0.3-0.6,0.2c-1.6-0.9-3.7-0.8-5.3,0.2C215.9,97.5,215.8,97.5,215.7,97.5z"/>
						</g>
					</g>
				</g>
			</g>
			<path class="st32" d="M178.6,258c0,1.5-6.8,21.3-11.7,35.5c-3.3,9.4-4.4,19.4-3.3,29.3l8.7,79.9h74.7l7.4-79.7
				c1-11.2-0.5-22.5-4.6-32.9l-12.4-32.2L178.6,258z"/>
			<g>
				<path class="st33" d="M252.6,161.2c1.7,4.1,13.2,33.9,19.6,51.1c2.9,7.7,4.1,17.8,2.1,25.8l-19.5,62.5l-13.9-30.1l0.9-59.9
					L252.6,161.2z"/>
				<g>
					<path class="st34" d="M267.2,226.8c-5.5-2-12.4-3.2-17.9-3.3c-0.3,1.8-0.4,3.2-0.6,5.4C254,227.6,260.9,226.6,267.2,226.8z"/>
					<path class="st34" d="M269.4,228c-7.3,1-20.1,9.6-27.9,20.1c-0.5,5,2.8,8.3,1.9,13c2.4-7.8,9.3-17.1,12.6-21.4
						C258.4,236.6,265.5,229.1,269.4,228z"/>
				</g>
			</g>
			<path class="st35" d="M254.8,301.5l-33.5,4.3l-10-34.7L198.1,303l-35.4-1.6l12.6-52.9l-6.6-89.6l26.2-15.4h31.4l23.5,14.8
				c2.7,1.7,4.3,4.9,3.9,8.1l-11.9,84.7L254.8,301.5z"/>
			<path class="st6" d="M171.9,246.5l-25.6-10.2l7-41.9c0.6-3.4,1.7-6.8,3.2-9.9l12.4-25.2h0c11,5.8,21.3,38.6,19.4,50.7
				L171.9,246.5z"/>
			<path class="st34" d="M146.3,236.9c1-4.4,3.9-8.1,7.6-10.7c3.6-2.6,7.9-4.1,12.3-5.1c4.9-1.1,13.7-2.9,18.5-1.2
				c0,3.6-0.1,6.9-0.7,9.5C172.5,228.3,155.8,230.6,146.3,236.9z"/>
			<path class="st8" d="M195.2,143.4l14.6,26.8c1.4,2.6,5.2,2.3,6.2-0.4l10.1-26.4l-15.4-3.2L195.2,143.4z"/>
			<path class="st5" d="M215.3,199.7l-13.1-18.3l-1.6-22.9l7.4,3.7c3.1,1.5,6.8,1.3,9.6-0.7l8.8-6L215.3,199.7z"/>
			<g>
				<g>
					<polygon class="st34" points="197.7,141.8 214.7,200.1 191.1,173.1 195.5,167.4 188.9,167.5 182.5,150.8 					"/>
					<polygon class="st32" points="199.7,139.2 214,199 192.8,171.6 197.2,166 190.6,166.1 184.2,148.7 					"/>
				</g>
				<g>
					<polygon class="st34" points="225.2,142 214.2,200.4 235.6,171.5 231.3,166.1 237.4,165.9 241.1,152.7 					"/>
					<polygon class="st32" points="221,138.6 214.8,199.2 233.8,170.2 228.9,165 235.5,164.5 239.8,149.6 					"/>
				</g>
			</g>
			<polygon class="st27" points="235.8,253.3 186.5,253.3 183.4,192.6 240.8,192.6 			"/>
			<g>
				<path class="st8" d="M239.3,210.1l5.3,5.5c1.9,1.5,2.8,3.9,2.3,6.3c-1.2,6-3.7,16.8-5.4,18.4c-2.4,2.2-19.3,0.5-22.9,1.3
					c-3.6,0.8-23.6,9.1-23.6,9.1l-1.6-15.4c0,0,17.8-3.5,20.1-4.1c1.3-0.3,3.2-2.8,4.5-4.8c1.2-1.8,3-3.1,5.1-3.7l15.1-4.3
					L239.3,210.1z"/>
				<path class="st36" d="M247.2,220.7c0,0-1.6,9.4-2.4,10.4c-0.9,1-4.9-0.1-4.9-0.1s2.1-0.4,3.3-1.7
					C244.4,227.9,247.2,220.7,247.2,220.7z"/>
				<g>
					<linearGradient id="SVGID_7_" gradientUnits="userSpaceOnUse" x1="228.1037" y1="229.2003" x2="239.0786" y2="217.2793">
						<stop  offset="0.1339" style="stop-color:#FFA7A6"/>
						<stop  offset="0.4978" style="stop-color:#FFB0AF"/>
						<stop  offset="0.9889" style="stop-color:#FFC7C6"/>
					</linearGradient>
					<path class="st37" d="M220.8,222.8c1-1,2.9-1.9,4.3-2.4c8.1-2.8,16.8-3.7,25.2-2.6c0.5,1-0.4,2.1-1.3,2.8
						c-3.7,2.5-8.8,1.6-12.8,3.5c-2,0.9-3.6,2.5-5.4,3.7c-1.8,1.3-4,2.3-6.1,2C221,229.3,217.7,225.7,220.8,222.8z"/>
					<path class="st38" d="M246.7,219.7c2.3-0.4,2.4-1.2,3.1-1.9c0.2-0.1-4.5-0.2-5.1-0.2c-0.7,0-0.9,0.7-1.1,2
						C244.6,219.9,245.7,219.9,246.7,219.7z"/>
				</g>
				<path class="st36" d="M243.7,234.3c0.2-0.1,0.5-0.3,0.5-0.6c-0.1,0.7-0.4,1.4-0.6,2.1c0.1-0.2-1.5-1-1.6-1.1
					C242.5,234.7,243.1,234.7,243.7,234.3z"/>
				<path class="st36" d="M242.4,238.2c0.2-0.1,0.5-0.3,0.5-0.5c-0.2,0.6-0.4,1.2-0.7,1.8c0.1-0.1-1.3-1-1.4-1.1
					C241.3,238.4,241.9,238.4,242.4,238.2z"/>
			</g>
			<path class="st2" d="M183.4,192.6c0.2,0,57.3,0,57.3,0l-4.1-3.8h-49L183.4,192.6z"/>
			<line class="st39" x1="185.7" y1="191.7" x2="238.7" y2="191.7"/>
			<line class="st39" x1="186.9" y1="190.2" x2="237.2" y2="190.1"/>
			<g>
				<path class="st6" d="M204.3,232.2l3.4,15.8L166,260.2c-4.8,1-12.2,1.2-16.6-5.1l-2.1-8c-1.2-4.4-1.4-9.1-0.5-13.6l0-0.2
					c3.8-3,12.9-5.4,19.9-6.5c3.5-0.6,7.1-0.5,10.6,0.2L204.3,232.2z"/>
				<g>
					<polygon class="st34" points="193.6,230.1 200.3,250.6 198.1,230.7 					"/>
					<polygon class="st11" points="204.5,228.9 209.9,249.8 200.9,253.3 197.2,228.1 					"/>
				</g>
			</g>
			<g>
				<g>
					<polygon class="st40" points="244.1,259.6 242.6,254.1 267.6,80.8 270.9,81.2 					"/>
				</g>
				<path class="st5" d="M382.8,107.2l-16.1,12.8l8,26.5c0,0-15.8-9-28.9-9.2c-7.3-0.1-16.9,8.9-29.6,9.7
					c-10.3,0.7-24.1-1.7-32.6-9.2c-8.5-7.5-10.6-8.1-15.9-8.1c-5.4,0-8,2-8,2l7.3-45.6c0,0,10-2.7,20.6,2.9
					c5.4,2.8,16.6,11.5,21.8,11.1c9.3-0.8,9.1-7.1,18.4-10.1c9.4-2.9,16.1-4.1,33.8,4.1C379.1,102.3,382.8,107.2,382.8,107.2z"/>
				<g>
					<path d="M274.6,113.7c0.5,0.1,1,0.1,1.3-0.1c0.4-0.2,0.6-0.6,0.8-1.3l3.3-10.1l1.5,0.5l-3.2,10c-0.7,2.2-2,3-3.9,2.4l-0.5-0.2
						c-0.2-0.1-0.3-0.1-0.5-0.2l0.4-1.4C274,113.5,274.3,113.6,274.6,113.7z"/>
					<path d="M284.8,105c0.8-0.3,1.6-0.2,2.6,0.3c0.9,0.5,1.5,1.1,1.7,2c0.2,0.8,0,1.7-0.5,2.7l-3.4,6.4c-0.5,1-1.2,1.6-1.9,1.9
						c-0.8,0.3-1.6,0.2-2.6-0.3c-0.9-0.5-1.5-1.1-1.7-1.9c-0.2-0.8,0-1.7,0.5-2.7l3.4-6.4C283.4,105.9,284.1,105.3,284.8,105z
						 M280.5,115.6c0.1,0.4,0.4,0.8,0.9,1c1,0.5,1.8,0.2,2.4-1l3.5-6.5c0.3-0.6,0.4-1.1,0.3-1.5c-0.1-0.4-0.4-0.8-0.9-1.1
						c-0.5-0.3-0.9-0.3-1.3-0.1c-0.4,0.2-0.8,0.6-1.1,1.1l-3.5,6.5C280.6,114.6,280.4,115.2,280.5,115.6z"/>
					<path d="M286.3,120.8l-1.4-0.7l6.6-12.3l1.4,0.7L286.3,120.8z"/>
					<path d="M288.9,122.3l4.6-13.2l1.9,0.6l-0.2,10.6l3.3-9.6l1.3,0.5l-4.6,13.2l-1.5-0.5l0.3-11.9l-3.7,10.7L288.9,122.3z"/>
					<path d="M303.6,112.4c0.6-0.6,1.4-0.9,2.4-0.8c1.1,0,1.8,0.4,2.4,1c0.5,0.6,0.8,1.5,0.7,2.6l-0.3,7.2c0,1.1-0.4,1.9-0.9,2.5
						c-0.6,0.6-1.4,0.9-2.4,0.8c-1,0-1.8-0.4-2.3-1c-0.5-0.6-0.8-1.5-0.7-2.6l0.3-7.2C302.7,113.9,303,113,303.6,112.4z
						 M304.2,123.8c0.3,0.4,0.7,0.5,1.2,0.6c1.1,0,1.7-0.6,1.7-1.9l0.3-7.4c0-0.6-0.1-1.1-0.3-1.5c-0.3-0.4-0.7-0.6-1.2-0.6
						c-0.5,0-1,0.1-1.3,0.5c-0.3,0.3-0.5,0.8-0.5,1.5l-0.3,7.4C303.8,123,304,123.5,304.2,123.8z"/>
					<path d="M313.7,124.4c0.5,0,0.9-0.2,1.2-0.5c0.3-0.4,0.4-0.9,0.4-1.5l-0.2-10.7l1.5,0l0.2,10.6c0,1.1-0.2,2-0.7,2.6
						c-0.5,0.6-1.3,1-2.3,1c-1,0-1.8-0.3-2.4-0.9s-0.8-1.5-0.8-2.6l-0.2-10.6l1.5,0l0.2,10.7C312.1,123.8,312.7,124.4,313.7,124.4z"
						/>
					<path d="M323,111.7c0.6,0.5,0.9,1.2,1.1,2.3l0.2,1.1c0.1,0.8,0.1,1.4-0.1,1.9s-0.6,0.9-1.2,1.2c0.6,0.1,1.1,0.4,1.5,0.8
						c0.3,0.4,0.6,1,0.7,1.8l0.3,2.2c0.1,0.4,0.1,0.7,0.2,1c0.1,0.3,0.2,0.5,0.3,0.7l-1.6,0.2c-0.1-0.2-0.2-0.4-0.3-0.6
						c-0.1-0.2-0.1-0.6-0.2-1l-0.3-2.2c-0.1-0.8-0.4-1.3-0.7-1.5s-0.9-0.3-1.6-0.2l-1.1,0.2l0.9,5.9l-1.5,0.2l-2.1-13.8l3.1-0.5
						C321.6,111.1,322.4,111.2,323,111.7z M322.5,117.2c0.3-0.3,0.4-0.8,0.3-1.6l-0.2-1.3c-0.1-0.6-0.3-1.1-0.6-1.4
						c-0.3-0.3-0.7-0.4-1.3-0.3l-1.5,0.2l0.8,5.1l1.1-0.2C321.7,117.7,322.2,117.5,322.5,117.2z"/>
					<path d="M329.9,110.6l-2.5,0.7l-0.4-1.4l6.5-1.8l0.4,1.4l-2.5,0.7l3.3,12.1l-1.5,0.4L329.9,110.6z"/>
					<path d="M341.4,113.9l-3.3,0.8l1.2,4.8l4.1-1l0.3,1.4l-5.6,1.4l-3.4-13.6l5.6-1.4l0.3,1.4l-4.1,1l1.2,4.6l3.3-0.8L341.4,113.9z
						"/>
					<path d="M345.5,119.6l-1.4,0.1l1.9-14.1l2.3-0.1l3.4,13.8l-1.6,0.1l-0.7-2.8l-3.5,0.2L345.5,119.6z M349.1,115.2l-2-8l-1.1,8.2
						L349.1,115.2z"/>
					<path d="M355.8,119.9l-0.6-11.4l-1.7,11l-1.3-0.2l2.2-13.8l2.2,0.3l0.5,11.4l3.9-10.7l2.2,0.3l-2.2,13.8l-1.5-0.2l1.7-11.1
						l-3.9,10.8L355.8,119.9z"/>
				</g>
			</g>
			<g>
				<polygon class="st11" points="248,274.3 265.6,283 257.5,294.5 251.3,290.4 				"/>
				<polygon class="st8" points="251.3,290.3 257.6,294.3 254.9,301.3 				"/>
			</g>
		</g>
		<g>
			
				<linearGradient id="SVGID_8_" gradientUnits="userSpaceOnUse" x1="573.5244" y1="151.3221" x2="632.5646" y2="151.3221" gradientTransform="matrix(0.9788 0.2047 -0.2047 0.9788 -185.3726 -14.646)">
				<stop  offset="0.3131" style="stop-color:#FE6A6B"/>
				<stop  offset="1" style="stop-color:#FFB0AF"/>
			</linearGradient>
			<path class="st41" d="M345,275.5c-1.2-2.9-0.7-9.5,3.2-10.1c0.3-0.1,0.6,0,0.9,0c1.3,0.2,2.6,0.5,3.9,0.9c3.8,1.1,6.8-3.4,4.7-7
				c-1.5-2.6-3.2-5-4.7-7.6c-2.4-4-4.6-8.5-5.2-13.2c-0.4-2.9,2.6-4.8,4.8-3.3l6,4.3c1.7,1.2,3.8-0.5,3.3-2.6
				c-2.6-10.7-4.3-22-1.2-32.1c0.7-2.4,3.5-3.1,5.2-1.4c4.1,4.3,6.8,10.1,7.5,16.2c0.5,4.3,0.3,9.3,2,13c0.7,1.5,2.7,1.6,3.7,0.3
				c1.2-1.7,2.8-3.2,4.5-4.3c2.6-1.6,6-0.2,6.8,3c0.9,3.5,0.3,7.8-0.9,11.4c-2,5.9-5.2,12.1-2.8,18.1c0.1,0.2,0.2,0.5,0.4,0.6
				c3.6,4.2,7.5-4,11.8-3c1.9,0.4,3.1,2.7,3.1,4.8c0,2.1-1.3,9.6-1.7,11.6c-4,16.7-11,34.4-18,35.4c-5.2,0.8-20.1-13.2-21.5-14.5
				C354,289.9,348.7,284.4,345,275.5z"/>
			<g>
				<g>
					<path class="st11" d="M394.1,335.7c-0.1,0-0.1,0-0.2-0.1c-4.8-8.6-8.9-17.7-12.1-27.1c-2.8-8.3-6-21.8-8.8-38.1
						c-2.6-14.8-4.7-30.2-5.6-41.2c0-0.1,0.1-0.2,0.2-0.2c0.1,0,0.2,0.1,0.2,0.2c2.3,27.8,9.5,64.7,14.5,79.3
						c3.2,9.4,7.3,18.5,12.1,27.1C394.3,335.5,394.3,335.6,394.1,335.7C394.2,335.7,394.2,335.7,394.1,335.7z"/>
				</g>
				<g>
					<path class="st11" d="M371.4,263c-2.7,0-4.8-2.5-6.6-4.9l-2.4-3.3c-0.1-0.1,0-0.2,0-0.3c0.1-0.1,0.2,0,0.3,0l2.4,3.3
						c1.8,2.5,4.1,5.1,6.8,4.7c1.6-0.2,3.2-1.5,4.1-3.4c0.9-1.8,1.2-3.9,1.4-5.7c0-0.1,0.1-0.2,0.2-0.2c0.1,0,0.2,0.1,0.2,0.2
						c-0.3,1.9-0.6,4-1.5,5.9c-1,2.1-2.7,3.4-4.4,3.6C371.8,263,371.6,263,371.4,263z"/>
				</g>
				<g>
					<path class="st11" d="M376.4,293.4c-0.7,0-1.2-0.1-1.6-0.3c-3-1.1-5.9-3.6-8.2-7.1c-2.1-3.1-3.5-6.7-4.9-10.1
						c0-0.1,0-0.2,0.1-0.2c0.1,0,0.2,0,0.2,0.1c1.4,3.4,2.8,7,4.8,10.1c1.6,2.4,4.2,5.6,8,7c2.5,0.9,5.3-0.6,7.7-4.2
						c1.7-2.6,3-8.6,3.8-12.2c0.1-0.4,0.1-0.7,0.2-1c0-0.1,0.1-0.2,0.2-0.1c0.1,0,0.2,0.1,0.1,0.2c-0.1,0.3-0.1,0.6-0.2,1
						c-0.8,3.6-2.1,9.6-3.8,12.3C380.4,292.6,378,293.4,376.4,293.4z"/>
				</g>
			</g>
			<g>
				<g>
					<path class="st11" d="M375.8,241.6c0,0.2-0.1,0.4,0,0.6c0.1,0.5,0.7,0.8,1.2,0.7c0.5-0.1,0.9-0.5,1.2-0.9
						c0.5-0.6,0.8-1.4,0.9-2.2c0.1-0.5,0-1.2-0.4-1.4c-0.3-0.1-0.6,0-0.9,0.1C376.7,239.2,376,240.4,375.8,241.6z"/>
					<path class="st11" d="M383.2,250c0,0.1,0,0.2,0,0.3c0.1,0.3,0.4,0.4,0.7,0.4c0.3,0,0.5-0.3,0.6-0.5c0.3-0.4,0.4-0.8,0.5-1.2
						c0-0.3,0-0.6-0.2-0.8c-0.2-0.1-0.3,0-0.5,0.1C383.7,248.6,383.3,249.3,383.2,250z"/>
					<path class="st11" d="M380.9,243c0-0.1,0-0.2-0.1-0.2c-0.1-0.2-0.4-0.2-0.5-0.1c-0.2,0.1-0.2,0.3-0.3,0.5c-0.1,0.3-0.1,0.7,0,1
						c0,0.2,0.2,0.4,0.4,0.4c0.1,0,0.2-0.1,0.3-0.2C381,244,381,243.5,380.9,243z"/>
					<path class="st11" d="M383.7,240.1c0,0,0-0.1-0.1-0.1c-0.1-0.1-0.2-0.1-0.3,0c-0.1,0.1-0.1,0.2-0.2,0.3c0,0.2,0,0.4,0,0.6
						c0,0.1,0.1,0.3,0.2,0.3c0.1,0,0.1-0.1,0.2-0.1C383.7,240.8,383.8,240.4,383.7,240.1z"/>
					<path class="st11" d="M385.5,243.8c0-0.1,0-0.2-0.1-0.2c-0.1-0.2-0.4-0.2-0.5-0.1c-0.2,0.1-0.2,0.3-0.3,0.5
						c-0.1,0.3-0.1,0.7,0,1c0,0.2,0.2,0.4,0.4,0.4c0.1,0,0.2-0.1,0.3-0.2C385.6,244.9,385.6,244.3,385.5,243.8z"/>
				</g>
				<g>
					<path class="st11" d="M390.8,265.3c-0.1,0.2-0.2,0.3-0.3,0.5c-0.1,0.5,0.3,1,0.8,1.2c0.5,0.1,1,0,1.4-0.3
						c0.7-0.4,1.3-0.9,1.8-1.6c0.3-0.4,0.5-1,0.2-1.4c-0.2-0.2-0.5-0.3-0.8-0.3C392.7,263.6,391.6,264.4,390.8,265.3z"/>
					<path class="st11" d="M393.9,276.1c-0.1,0.1-0.1,0.2-0.2,0.3c-0.1,0.3,0.2,0.6,0.4,0.6c0.3,0.1,0.5,0,0.8-0.2
						c0.4-0.2,0.7-0.5,1-0.9c0.2-0.2,0.3-0.6,0.1-0.8c-0.1-0.1-0.3-0.2-0.5-0.1C395,275.1,394.3,275.5,393.9,276.1z"/>
					<path class="st11" d="M394.8,268.8c0-0.1,0-0.2,0-0.2c0-0.2-0.3-0.3-0.5-0.3c-0.2,0-0.3,0.2-0.5,0.3c-0.2,0.3-0.3,0.6-0.4,0.9
						c0,0.2,0,0.5,0.1,0.5c0.1,0.1,0.2,0,0.3-0.1C394.4,269.8,394.7,269.3,394.8,268.8z"/>
					<path class="st11" d="M397.7,263.7c0.1,0,0.2,0,0.2,0c0.2-0.1,0.3-0.3,0.2-0.5c-0.1-0.2-0.2-0.3-0.4-0.5
						c-0.3-0.2-0.6-0.3-0.9-0.3c-0.2,0-0.4,0-0.5,0.2c0,0.1,0,0.3,0.1,0.4C396.8,263.4,397.3,263.7,397.7,263.7z"/>
					<path class="st11" d="M398.6,267.4c0,0,0-0.1,0-0.1c0-0.1-0.2-0.2-0.3-0.2c-0.1,0-0.2,0.1-0.3,0.2c-0.1,0.2-0.2,0.3-0.2,0.5
						c0,0.1,0,0.3,0.1,0.3c0.1,0,0.1,0,0.2,0C398.3,268,398.5,267.7,398.6,267.4z"/>
					<path class="st11" d="M398.7,271.5c0-0.1,0-0.2,0-0.2c0-0.2-0.3-0.3-0.5-0.3c-0.2,0-0.3,0.2-0.5,0.3c-0.2,0.3-0.3,0.6-0.4,0.9
						c0,0.2,0,0.5,0.1,0.5c0.1,0.1,0.2,0,0.3-0.1C398.3,272.5,398.5,272,398.7,271.5z"/>
				</g>
			</g>
		</g>
		<g>
			<g>
				<path class="st32" d="M358.4,258c-1.7-2-4.7-1.9-6.1,0.7c-2.1,3.8-3.1,8.5-2.5,13c0.2,0.8,0.3,1.7,0.5,2.5
					c-0.2-0.8-0.4-1.6-0.5-2.5c-2.4-13-4.5-26.5-9.6-38.2c-1.8-4-5.4-4.8-8-3.1c-0.4,0.2-0.7,0.6-1,0.9c-4.8,6.3-6.4,15.9-4,23.9
					c-5-11.3-11.7-21.5-19.7-30c-2.3-2.5-5.4-4.9-8.3-2.6c-1,0.9-1.7,2.2-2.1,3.6c-4,14.7,8,25.9,13.7,36.7
					c-4.9-4.6-11.8-8.7-17-4.3c-2,1.7-3.3,4.4-3.7,7.4c-0.8,5.7,1.6,10.7,4.1,15.3c4.8,8.7,18.8,13.5,15.6,12.4
					c-1.4,0.2-2.8,0.5-4.2,1c-1.1,0.4-2.1,0.9-2.9,1.9c-0.9,1.2-1.2,2.9-1.2,4.5c-0.5,9.1,4.2,17.6,10.3,22.9
					c3.9,3.4,15.4,8.8,12.8,7.7c-0.9,0.4-1.7,0.9-2.3,1.7c-2.8,3.4-3.1,9-1.5,13.4c1.5,4.4,3.9,7.8,7.3,10.4c4.1,3.1,7,4.9,9.7,5.9
					c8.8-17.6,15.1-37,18.4-57.2C358.8,290.1,359.5,274,358.4,258z"/>
				<path class="st42" d="M381.1,297.5c-1.3-5.1-9.3-5.9-10.9-1c-1.2,3.8-1.9,7.8-2.1,11.8c0.4-16.9-2.7-33.8-8.9-49
					c-0.2-0.5-0.5-1-0.9-1.4c1.1,16,0.4,32.1-2.1,47.8c-3.3,20.2-9.6,39.6-18.4,57.2c3.9,1.5,7.4,1.3,13.4,1.2
					c9.4-0.2,22.5-0.2,29.9-0.2C385.2,340.4,386.8,320,381.1,297.5z"/>
			</g>
			<g>
				<path class="st11" d="M338.3,268.2c-0.1,0.2-0.2,0.3-0.3,0.5c-0.1,0.5,0.3,1,0.8,1.2c0.5,0.1,1,0,1.4-0.3
					c0.7-0.4,1.3-0.9,1.8-1.6c0.3-0.4,0.5-1,0.2-1.4c-0.2-0.2-0.5-0.3-0.8-0.3C340.2,266.4,339.1,267.2,338.3,268.2z"/>
				<path class="st11" d="M341.5,278.9c-0.1,0.1-0.1,0.2-0.2,0.3c-0.1,0.3,0.2,0.6,0.4,0.6c0.3,0.1,0.5,0,0.8-0.2
					c0.4-0.2,0.7-0.5,1-0.9c0.2-0.2,0.3-0.6,0.1-0.8c-0.1-0.1-0.3-0.2-0.5-0.1C342.5,277.9,341.9,278.4,341.5,278.9z"/>
				<path class="st11" d="M342.4,271.6c0-0.1,0-0.2,0-0.2c0-0.2-0.3-0.3-0.5-0.3c-0.2,0-0.3,0.2-0.5,0.4c-0.2,0.3-0.3,0.6-0.4,0.9
					c0,0.2,0,0.5,0.1,0.5c0.1,0.1,0.2,0,0.3-0.1C342,272.6,342.3,272.1,342.4,271.6z"/>
				<path class="st11" d="M346.1,270.3c0,0,0-0.1,0-0.1c0-0.1-0.2-0.2-0.3-0.2c-0.1,0-0.2,0.1-0.3,0.2c-0.1,0.2-0.2,0.4-0.2,0.6
					c0,0.1,0,0.3,0.1,0.3c0.1,0,0.1,0,0.2,0C345.9,270.9,346,270.6,346.1,270.3z"/>
				<path class="st11" d="M346.2,274.4c0-0.1,0-0.2,0-0.2c0-0.2-0.3-0.3-0.5-0.3c-0.2,0-0.3,0.2-0.5,0.4c-0.2,0.3-0.3,0.6-0.4,0.9
					c0,0.2,0,0.5,0.1,0.5c0.1,0.1,0.2,0,0.3-0.1C345.8,275.3,346.1,274.8,346.2,274.4z"/>
			</g>
			<g>
				<path class="st11" d="M326.4,298.4c-0.1-0.2-0.2-0.4-0.3-0.5c-0.4-0.4-1-0.3-1.4,0c-0.4,0.3-0.5,0.8-0.5,1.3
					c-0.1,0.8,0.1,1.6,0.4,2.4c0.2,0.5,0.6,1,1.1,0.9c0.3,0,0.5-0.3,0.7-0.6C326.8,301,326.8,299.6,326.4,298.4z"/>
				<path class="st11" d="M337.9,300.8c0.2-0.1,0.4-0.2,0.5-0.3c0.3-0.4,0.2-1.1-0.1-1.4c-0.4-0.3-0.9-0.4-1.4-0.4
					c-0.8,0-1.6,0.2-2.3,0.6c-0.4,0.2-0.9,0.7-0.8,1.2c0.1,0.3,0.3,0.5,0.6,0.6C335.4,301.5,336.8,301.4,337.9,300.8z"/>
				<path class="st11" d="M335.7,305.6c0,0,0-0.1,0-0.1c0-0.1-0.1-0.2-0.2-0.3c-0.1,0-0.2,0-0.2,0.1c-0.1,0.1-0.2,0.3-0.2,0.5
					c0,0.1,0,0.3,0,0.3c0,0.1,0.1,0,0.2,0C335.5,306.1,335.7,305.9,335.7,305.6z"/>
				<path class="st11" d="M315.7,295.1c0-0.1-0.1-0.2-0.2-0.3c-0.2-0.2-0.6-0.2-0.8,0c-0.2,0.2-0.3,0.5-0.3,0.7c0,0.4,0,0.9,0.2,1.3
					c0.1,0.3,0.3,0.6,0.6,0.5c0.2,0,0.3-0.2,0.4-0.3C316,296.5,315.9,295.7,315.7,295.1z"/>
				<path class="st11" d="M330.8,302.9c0-0.1-0.1-0.2-0.2-0.3c-0.2-0.2-0.6-0.2-0.8,0c-0.2,0.2-0.3,0.5-0.3,0.7c0,0.4,0,0.9,0.2,1.3
					c0.1,0.3,0.3,0.6,0.6,0.5c0.2,0,0.3-0.2,0.4-0.3C331.1,304.4,331.1,303.6,330.8,302.9z"/>
				<path class="st11" d="M321.3,299.9c0.1,0.1,0.1,0.1,0.2,0.1c0.2,0.1,0.4,0,0.5-0.2c0.1-0.2,0-0.4,0-0.6
					c-0.1-0.3-0.3-0.6-0.5-0.8c-0.1-0.1-0.4-0.3-0.5-0.2c-0.1,0.1-0.1,0.2-0.1,0.3C320.7,299,321,299.5,321.3,299.9z"/>
				<path class="st11" d="M342.4,312.4c0.1,0.1,0.1,0.1,0.2,0.1c0.2,0.1,0.4,0,0.5-0.2c0.1-0.2,0-0.4,0-0.6
					c-0.1-0.3-0.3-0.6-0.5-0.8c-0.1-0.1-0.4-0.3-0.5-0.2c-0.1,0.1-0.1,0.2-0.1,0.3C341.8,311.6,342.1,312.1,342.4,312.4z"/>
				<path class="st11" d="M320.4,303.7c0,0,0.1,0.1,0.1,0.1c0.1,0,0.3,0,0.3-0.1c0-0.1,0-0.2,0-0.4c-0.1-0.2-0.2-0.4-0.3-0.5
					c-0.1-0.1-0.2-0.2-0.3-0.1c-0.1,0-0.1,0.1-0.1,0.2C320,303.2,320.2,303.5,320.4,303.7z"/>
				<path class="st11" d="M329.3,306.3c0,0,0.1,0.1,0.1,0.1c0.1,0,0.3,0,0.3-0.1c0-0.1,0-0.2,0-0.4c-0.1-0.2-0.2-0.4-0.3-0.5
					c-0.1-0.1-0.2-0.2-0.3-0.1c-0.1,0-0.1,0.1-0.1,0.2C328.9,305.8,329.1,306.1,329.3,306.3z"/>
				<path class="st11" d="M316.9,301.6c0.1,0.1,0.1,0.1,0.2,0.1c0.2,0.1,0.4,0,0.5-0.2c0.1-0.2,0-0.4,0-0.6
					c-0.1-0.3-0.3-0.6-0.5-0.8c-0.1-0.1-0.4-0.3-0.5-0.2c-0.1,0.1-0.1,0.2-0.1,0.3C316.3,300.7,316.6,301.2,316.9,301.6z"/>
				<path class="st11" d="M325.1,310.8c0.1,0.1,0.1,0.1,0.2,0.1c0.2,0.1,0.4,0,0.5-0.2c0.1-0.2,0-0.4,0-0.6
					c-0.1-0.3-0.3-0.6-0.5-0.8c-0.1-0.1-0.4-0.3-0.5-0.2c-0.1,0.1-0.1,0.2-0.1,0.3C324.6,309.9,324.8,310.4,325.1,310.8z"/>
			</g>
			<g>
				<g>
					<path class="st11" d="M367.2,364c-7.6-26-17.2-50.7-28.5-73.5c-11.6-23.3-25.3-45.3-40.8-65.3l0.3-0.2
						c15.5,20,29.2,42,40.8,65.3c11.3,22.8,20.9,47.5,28.5,73.5L367.2,364z"/>
				</g>
				<g>
					<path class="st11" d="M319,281.1c-1.8,0-3.7-0.1-5.4-0.5c-6.3-1.3-11.7-4.8-15.1-9.9l0.3-0.2c3.4,5.1,8.7,8.5,14.9,9.8
						c7.2,1.4,16.5-0.8,19.1-1.5l0.1,0.3C330.8,279.7,324.9,281.1,319,281.1z"/>
				</g>
				<g>
					<path class="st11" d="M329.4,272.2l-0.3-0.1c3.3-9.6,4.5-20.1,3.5-31.2l0.3,0C333.9,252,332.8,262.6,329.4,272.2z"/>
				</g>
				<g>
					<path class="st11" d="M344.1,348.2c-6.5,0-12.9-1.9-18.6-5.8l0.2-0.3c10.7,7.2,24.1,7.6,35.1,1.1l0.2,0.3
						C355.7,346.7,349.9,348.2,344.1,348.2z"/>
				</g>
				<g>
					<path class="st11" d="M359.3,338.7l-0.2-0.3c1-0.7,1.6-1.6,2.3-2.7c0.2-0.4,0.5-0.8,0.7-1.1c5.3-7.6,9.3-16.8,11.6-26.3
						l0.3,0.1c-2.3,9.6-6.3,18.8-11.6,26.5c-0.3,0.4-0.5,0.8-0.7,1.1C361,337,360.4,338,359.3,338.7z"/>
				</g>
				<g>
					<path class="st11" d="M340.1,316.7c-10.8,0-21.7-3.6-31.1-10.3l0.2-0.3c12.2,8.8,27.1,12.2,40.8,9.2l0.1,0.3
						C346.8,316.4,343.5,316.7,340.1,316.7z"/>
				</g>
				<g>
					<path class="st11" d="M347.8,309.2l-0.3-0.1c4.5-12.7,7.2-26.3,8.2-41.4l0.3,0C355,282.9,352.3,296.4,347.8,309.2z"/>
				</g>
			</g>
		</g>
	</g>
</g>
</svg>
