<?xml version="1.0" encoding="utf-8"?>
<!-- Generator: Adobe Illustrator 21.0.2, SVG Export Plug-In . SVG Version: 6.00 Build 0)  -->
<svg version="1.1" id="Capa_1" xmlns="http://www.w3.org/2000/svg" xmlns:xlink="http://www.w3.org/1999/xlink" x="0px" y="0px"
	 viewBox="0 0 512 512" style="enable-background:new 0 0 512 512;" xml:space="preserve">
<g>
	<g>
		<path d="M62.7,494.9c-1.9-1.9-4.4-2.9-7.1-2.9c-2.6,0-5.2,1.1-7.1,2.9c-1.9,1.9-2.9,4.4-2.9,7.1s1.1,5.2,2.9,7.1
			c1.9,1.9,4.4,2.9,7.1,2.9c2.6,0,5.2-1.1,7.1-2.9c1.9-1.9,2.9-4.4,2.9-7.1S64.6,496.8,62.7,494.9z"/>
	</g>
</g>
<g>
	<g>
		<path d="M373.1,424.3c-1.9-1.9-4.4-2.9-7.1-2.9s-5.2,1.1-7.1,2.9c-1.9,1.9-2.9,4.4-2.9,7.1c0,2.6,1.1,5.2,2.9,7.1
			c1.9,1.9,4.4,2.9,7.1,2.9s5.2-1.1,7.1-2.9c1.9-1.9,2.9-4.4,2.9-7.1C376,428.7,374.9,426.1,373.1,424.3z"/>
	</g>
</g>
<g>
	<g>
		<path d="M479.7,161.6c7.6-7.6,12.3-18.1,12.3-29.6v-8c0-23.2-18.8-42-42-42s-42,18.8-42,42v8c0,11.5,4.7,22,12.3,29.6
			c-16.4,9-28.3,25.2-31.5,44.4H343c-16.5,0-30,13.5-30,30c0,3.5,0.6,6.9,1.7,10H197.3c1.1-3.1,1.7-6.5,1.7-10c0-16.5-13.5-30-30-30
			h-45.8c-3.1-19.1-15-35.4-31.4-44.4C99.3,154,104,143.5,104,132v-8c0-23.2-18.8-42-42-42s-42,18.8-42,42v8
			c0,11.5,4.7,22,12.3,29.6C13,172.2,0,192.6,0,216v100v12.2C0,359.5,25.5,385,56.8,385H136v95.5c0,4.1,0.8,7.9,2.2,11.5H98.7
			c-5.5,0-10,4.5-10,10s4.5,10,10,10h357.7c5.5,0,10-4.5,10-10s-4.5-10-10-10h-82.5c1.4-3.6,2.2-7.4,2.2-11.5V469
			c0-5.5-4.5-10-10-10s-10,4.5-10,10v11.5c0,6.3-5.2,11.5-11.5,11.5s-11.5-5.2-11.5-11.5V354.3c0-15.6,12.7-28.3,28.3-28.3H398h8h86
			v2.2c0,20.3-16.5,36.8-36.8,36.8H366c-5.5,0-10,4.5-10,10v16c0,5.5,4.5,10,10,10s10-4.5,10-10v-6h79.2c31.3,0,56.8-25.5,56.8-56.8
			V316V216C512,192.6,499,172.2,479.7,161.6z M428,124c0-12.1,9.9-22,22-22s22,9.9,22,22v8c0,12.1-9.9,22-22,22s-22-9.9-22-22V124z
			 M40,124c0-12.1,9.9-22,22-22s22,9.9,22,22v8c0,12.1-9.9,22-22,22s-22-9.9-22-22V124z M20,216c0-23.2,18.8-42,42-42s42,18.8,42,42
			c0,5.5,4.5,10,10,10h55c5.5,0,10,4.5,10,10s-4.5,10-10,10h-58.2c-15.9,0-30.4-8.7-37.9-22.7c-2.6-4.9-8.7-6.7-13.5-4.1
			c-4.9,2.6-6.7,8.7-4.1,13.5c10,18.7,28.6,30.9,49.4,33c-0.4,1-0.6,2.1-0.6,3.3v37H20V216z M143.4,306H124v-37c0-1-0.2-2.1-0.5-3
			h19.8c-3.4,5.9-5.4,12.7-5.4,20S140,300.1,143.4,306z M179,480.5c0,6.3-5.2,11.5-11.5,11.5s-11.5-5.2-11.5-11.5V375
			c0-5.5-4.5-10-10-10H56.8C36.5,365,20,348.5,20,328.2V326h86h8h36.8c15.6,0,28.3,12.7,28.3,28.3V480.5z M226,492h-29.2
			c1.4-3.6,2.2-7.4,2.2-11.5V354.3c0-10.5-3.4-20.3-9.2-28.3H226V492z M266,492h-20V326h20V492z M315.2,492H286V326h36.2
			c-5.8,7.9-9.2,17.7-9.2,28.3v126.3C313,484.6,313.8,488.4,315.2,492z M334,306H178c-11,0-20-9-20-20s9-20,20-20h156
			c11,0,20,9,20,20S345,306,334,306z M388,269v37h-19.4c3.4-5.9,5.4-12.7,5.4-20s-2-14.1-5.4-20h19.8C388.2,266.9,388,268,388,269z
			 M492,306h-84v-37c0-1.2-0.2-2.3-0.6-3.3c20.8-2,39.4-14.3,49.4-33c2.6-4.9,0.8-10.9-4.1-13.5c-4.9-2.6-10.9-0.8-13.5,4.1
			c-7.5,14-22,22.7-38,22.7H343c-5.5,0-10-4.5-10-10s4.5-10,10-10h55c5.5,0,10-4.5,10-10c0-23.2,18.8-42,42-42s42,18.8,42,42V306z"
			/>
	</g>
</g>
<g>
	<g>
		<path d="M328,0H184c-16.5,0-30,13.5-30,30v98c0,16.5,13.5,30,30,30h34.9l30.1,30.1c2,2,4.5,2.9,7.1,2.9s5.1-1,7.1-2.9l30.1-30.1
			H328c16.5,0,30-13.5,30-30V30C358,13.5,344.5,0,328,0z M338,128c0,5.5-4.5,10-10,10h-39c-2.7,0-5.2,1.1-7.1,2.9L256,166.9
			l-25.9-25.9c-1.9-1.9-4.4-2.9-7.1-2.9h-39c-5.5,0-10-4.5-10-10V30c0-5.5,4.5-10,10-10h144c5.5,0,10,4.5,10,10V128z"/>
	</g>
</g>
<g>
	<g>
		<path d="M216.1,68.1c-1.9-1.9-4.4-2.9-7.1-2.9s-5.2,1.1-7.1,2.9c-1.9,1.9-2.9,4.4-2.9,7.1s1.1,5.2,2.9,7.1
			c1.9,1.9,4.4,2.9,7.1,2.9s5.2-1.1,7.1-2.9c1.9-1.9,2.9-4.4,2.9-7.1S217.9,70,216.1,68.1z"/>
	</g>
</g>
<g>
	<g>
		<path d="M263.1,68.1c-1.9-1.9-4.4-2.9-7.1-2.9s-5.2,1.1-7.1,2.9s-2.9,4.4-2.9,7.1s1.1,5.2,2.9,7.1c1.9,1.9,4.4,2.9,7.1,2.9
			s5.2-1.1,7.1-2.9c1.9-1.9,2.9-4.4,2.9-7.1S264.9,70,263.1,68.1z"/>
	</g>
</g>
<g>
	<g>
		<path d="M310.1,68.1c-1.9-1.9-4.4-2.9-7.1-2.9s-5.2,1.1-7.1,2.9c-1.9,1.9-2.9,4.4-2.9,7.1s1.1,5.2,2.9,7.1
			c1.9,1.9,4.4,2.9,7.1,2.9s5.2-1.1,7.1-2.9c1.9-1.9,2.9-4.4,2.9-7.1S311.9,70,310.1,68.1z"/>
	</g>
</g>
</svg>
