<?xml version="1.0" encoding="utf-8"?>
<!-- Generator: Adobe Illustrator 21.0.2, SVG Export Plug-In . SVG Version: 6.00 Build 0)  -->
<svg version="1.1" xmlns="http://www.w3.org/2000/svg" xmlns:xlink="http://www.w3.org/1999/xlink" x="0px" y="0px"
	 viewBox="0 0 442.4 405.6" style="enable-background:new 0 0 442.4 405.6;" xml:space="preserve">
<style type="text/css">
	.st0{fill:#E0E0E0;}
	.st1{fill:#F0F0F0;}
	.st2{fill:#CCCCCC;}
	.st3{fill:#B7B7B7;}
	.st4{fill:#EBEBEB;}
	.st5{fill:#FAFAFA;}
	.st6{opacity:0.8;}
	.st7{fill:#7C70D6;}
	.st8{display:none;opacity:0.7;fill:#FAFAFA;}
	.st9{fill:#603EFF;}
	.st10{display:none;opacity:0.8;fill:#FAFAFA;}
	.st11{fill:#8184EB;}
	.st12{fill:#263238;}
	.st13{fill:#FFFFFF;}
	.st14{fill:#B4B9F6;}
	.st15{opacity:0.2;}
	.st16{fill:#636BCE;}
	.st17{opacity:0.2;fill:#8184EB;}
	.st18{fill:#D9DFF6;}
	.st19{opacity:0.7;fill:#D9DFF6;}
	.st20{opacity:0.7;fill:#FAFAFA;}
	.st21{fill:#9796F7;}
	.st22{fill:#D9DFF7;}
	.st23{opacity:0.6;fill:#FAFAFA;}
	.st24{opacity:0.1;fill:#FAFAFA;}
	.st25{fill:#27DEBF;}
	.st26{fill:#FFA8A7;}
	.st27{fill:#130159;}
	.st28{fill:#681EF7;}
	.st29{fill:#F28F8F;}
	.st30{fill:#01E4D0;}
	.st31{fill:#00CDC4;}
	.st32{fill:#5601F3;}
</style>
<g id="Floor">
</g>
<g id="Shadow">
</g>
<g id="Boxes">
</g>
<g id="Window">
</g>
<g id="Speech_Bubble">
</g>
<g id="Picture">
</g>
<g id="Box">
</g>
<g id="Cloud">
</g>
<g id="Character">
	<g>
		<g id="XMLID_290_">
			<path class="st0" d="M224.3,346c-10,4.8-26.3,4.8-36.3,0c-10-4.8-10-12.5,0-17.3c10-4.8,26.3-4.8,36.3,0
				C234.3,333.5,234.3,341.2,224.3,346z"/>
		</g>
		<g>
			<g id="boxes">
				<g id="XMLID_252_">
					<g id="XMLID_264_">
						<polygon class="st1" points="327.7,230 374,203.2 420.4,230 374,256.7 						"/>
					</g>
					<g id="XMLID_263_">
						<polygon class="st2" points="374,292.4 327.7,265.6 327.7,230 374,256.7 						"/>
					</g>
					<g id="XMLID_56_">
						<g id="XMLID_14718_">
							<path class="st0" d="M367.1,284.1c0.1,0,0.2,0,0.3-0.1c0.2-0.1,0.3-0.3,0.3-0.6v-0.7c0-0.1-0.1-0.2-0.2-0.2
								c-0.1,0-0.2,0.1-0.2,0.2v0.7c0,0.1,0,0.1,0,0.2c0,0-0.1,0-0.2,0c-0.2-0.1-0.4-0.6-0.4-1.1v-4.2c0-0.1-0.1-0.2-0.2-0.2
								c-0.1,0-0.2,0.1-0.2,0.2v4.2c0,0.6,0.3,1.3,0.7,1.5C366.9,284.1,367,284.1,367.1,284.1z"/>
						</g>
						<g id="XMLID_14717_">
							<path class="st0" d="M363.3,276.8v-0.1c0-1,0.3-1.7,1-2.1c0.6-0.4,1.4-0.3,2.3,0.2c1.7,1,3,3.3,3,5.3v0.4L363.3,276.8z
								 M364.5,275c-0.4,0.3-0.7,0.8-0.7,1.5l5.3,3.1c-0.2-1.7-1.4-3.6-2.8-4.4c-0.4-0.2-0.8-0.4-1.2-0.4
								C364.9,274.8,364.7,274.9,364.5,275z"/>
						</g>
					</g>
					<g id="XMLID_50_">
						<g id="XMLID_49_">
							<g id="XMLID_14720_">
								<path class="st0" d="M358.6,279.3c0.1,0,0.2-0.1,0.2-0.2v-6.8c0-0.1-0.1-0.2-0.2-0.2c-0.1,0-0.2,0.1-0.2,0.2v6.8
									C358.4,279.1,358.5,279.3,358.6,279.3z"/>
							</g>
							<g id="XMLID_51_">
								<path class="st0" d="M359.3,274C359.3,274,359.4,274,359.3,274c0.2-0.1,0.3-0.2,0.2-0.3l-0.8-2l-0.9,1.1
									c-0.1,0.1-0.1,0.2,0,0.3c0.1,0.1,0.2,0.1,0.3,0l0.4-0.5l0.5,1.3C359.1,274,359.2,274,359.3,274z"/>
							</g>
						</g>
						<g id="XMLID_52_">
							<g id="XMLID_54_">
								<path class="st0" d="M356.4,278c0.1,0,0.2-0.1,0.2-0.2v-6.8c0-0.1-0.1-0.2-0.2-0.2c-0.1,0-0.2,0.1-0.2,0.2v6.8
									C356.2,277.9,356.3,278,356.4,278z"/>
							</g>
							<g id="XMLID_53_">
								<path class="st0" d="M357.1,272.8C357.1,272.8,357.2,272.8,357.1,272.8c0.2-0.1,0.3-0.2,0.2-0.3l-0.8-2l-0.9,1.1
									c-0.1,0.1-0.1,0.2,0,0.3c0.1,0.1,0.2,0.1,0.3,0l0.4-0.5l0.5,1.3C356.9,272.7,357,272.8,357.1,272.8z"/>
							</g>
						</g>
					</g>
					<g id="XMLID_262_">
						<polygon class="st3" points="374,292.4 420.4,265.6 420.4,230 374,256.7 						"/>
					</g>
					<g id="XMLID_261_">
						<polygon class="st4" points="398.9,278 395.5,280 395.5,244.4 398.9,242.4 						"/>
					</g>
					<g id="XMLID_260_">
						<path class="st0" d="M347.6,248.1l6.6,3.8c1.4,0.8,2.5,2.4,2.5,3.7c0,1.2-1.1,1.6-2.5,0.8l-6.6-3.8c-1.4-0.8-2.5-2.4-2.5-3.7
							C345.1,247.7,346.2,247.3,347.6,248.1z"/>
					</g>
					<g id="XMLID_259_">
						<polygon class="st5" points="395.5,244.4 349.1,217.6 352.6,215.6 398.9,242.4 						"/>
					</g>
					<g id="XMLID_258_">
						<polygon class="st5" points="352.6,244.4 398.9,217.6 395.5,215.6 349.1,242.4 						"/>
					</g>
					<g id="XMLID_55_" class="st6">
						<polygon class="st0" points="418.3,228.8 373.9,254.4 329.7,228.9 374,203.2 						"/>
					</g>
					<g id="XMLID_253_">
						<polygon class="st1" points="352.6,247.9 352.6,244.4 349.1,242.4 349.1,245.9 						"/>
					</g>
				</g>
				<g id="XMLID_225_">
					<g id="XMLID_14608_">
						<polygon class="st1" points="329.8,189.9 376.1,163.1 422.4,189.9 376.1,216.6 						"/>
					</g>
					<g id="XMLID_14725_" class="st6">
						<polygon class="st0" points="418.5,190.3 374.5,215.7 329.8,189.9 373.8,164.5 						"/>
					</g>
					<g id="XMLID_4724_">
						<polygon class="st2" points="376.1,252.3 329.8,225.5 329.8,189.9 376.1,216.6 						"/>
					</g>
					<g id="XMLID_547_">
						<g id="XMLID_4399_">
							<path class="st0" d="M369.2,244c0.1,0,0.2,0,0.3-0.1c0.2-0.1,0.3-0.3,0.3-0.6v-0.7c0-0.1-0.1-0.2-0.2-0.2
								c-0.1,0-0.2,0.1-0.2,0.2v0.7c0,0.1,0,0.1,0,0.2c0,0-0.1,0-0.2,0c-0.2-0.1-0.4-0.6-0.4-1.1v-4.2c0-0.1-0.1-0.2-0.2-0.2
								c-0.1,0-0.2,0.1-0.2,0.2v4.2c0,0.6,0.3,1.3,0.7,1.5C369,244,369.1,244,369.2,244z"/>
						</g>
						<g id="XMLID_1846_">
							<path class="st0" d="M365.4,236.7v-0.1c0-1,0.3-1.7,1-2.1c0.6-0.4,1.4-0.3,2.3,0.2c1.7,1,3,3.3,3,5.3v0.4L365.4,236.7z
								 M366.6,234.8c-0.4,0.3-0.7,0.8-0.7,1.5l5.3,3.1c-0.2-1.7-1.4-3.6-2.8-4.4c-0.4-0.2-0.8-0.4-1.2-0.4
								C367,234.7,366.8,234.7,366.6,234.8z"/>
						</g>
					</g>
					<g id="XMLID_47_">
						<g id="XMLID_541_">
							<g id="XMLID_546_">
								<path class="st0" d="M360.7,239.1c0.1,0,0.2-0.1,0.2-0.2v-6.8c0-0.1-0.1-0.2-0.2-0.2c-0.1,0-0.2,0.1-0.2,0.2v6.8
									C360.5,239,360.6,239.1,360.7,239.1z"/>
							</g>
							<g id="XMLID_542_">
								<path class="st0" d="M361.4,233.9C361.4,233.9,361.4,233.9,361.4,233.9c0.2-0.1,0.3-0.2,0.2-0.3l-0.8-2l-0.9,1.1
									c-0.1,0.1-0.1,0.2,0,0.3c0.1,0.1,0.2,0.1,0.3,0l0.4-0.5l0.5,1.3C361.2,233.9,361.3,233.9,361.4,233.9z"/>
							</g>
						</g>
						<g id="XMLID_48_">
							<g id="XMLID_534_">
								<path class="st0" d="M358.5,237.9c0.1,0,0.2-0.1,0.2-0.2v-6.8c0-0.1-0.1-0.2-0.2-0.2c-0.1,0-0.2,0.1-0.2,0.2v6.8
									C358.3,237.8,358.4,237.9,358.5,237.9z"/>
							</g>
							<g id="XMLID_533_">
								<path class="st0" d="M359.2,232.7C359.2,232.7,359.3,232.7,359.2,232.7c0.2-0.1,0.3-0.2,0.2-0.3l-0.8-2l-0.9,1.1
									c-0.1,0.1-0.1,0.2,0,0.3c0.1,0.1,0.2,0.1,0.3,0l0.4-0.5l0.5,1.3C359,232.6,359.1,232.7,359.2,232.7z"/>
							</g>
						</g>
					</g>
					<g id="XMLID_44_">
						<polygon class="st3" points="376.1,252.3 422.4,225.5 422.4,189.9 376.1,216.6 						"/>
					</g>
					<g id="XMLID_38_">
						<polygon class="st4" points="401,237.9 397.5,239.9 397.5,204.3 401,202.2 						"/>
					</g>
					<g id="XMLID_235_">
						<path class="st0" d="M349.6,208l6.6,3.8c1.4,0.8,2.5,2.4,2.5,3.7c0,1.2-1.1,1.6-2.5,0.8l-6.6-3.8c-1.4-0.8-2.5-2.4-2.5-3.7
							C347.2,207.6,348.3,207.2,349.6,208z"/>
					</g>
					<g id="XMLID_234_">
						<polygon class="st5" points="397.5,204.3 351.2,177.5 354.7,175.5 401,202.2 						"/>
					</g>
					<g id="XMLID_233_">
						<polygon class="st5" points="354.7,204.3 401,177.5 397.5,175.5 351.2,202.2 						"/>
					</g>
					<g id="XMLID_231_">
						<polygon class="st1" points="354.7,207.8 354.7,204.3 351.2,202.2 351.2,205.8 						"/>
					</g>
					<g id="XMLID_14722_" class="st6">
						<polygon class="st0" points="374.5,215.7 370.4,218.1 329.8,194.7 329.8,189.9 						"/>
					</g>
				</g>
				<g id="XMLID_14609_">
					<g id="XMLID_14721_">
						<polygon class="st1" points="325.2,154.2 371.5,127.5 417.8,154.2 371.5,181 						"/>
					</g>
					<g id="XMLID_14719_">
						<polygon class="st2" points="371.5,216.6 325.2,189.9 325.2,154.2 371.5,181 						"/>
					</g>
					<g id="XMLID_14623_">
						<g id="XMLID_14625_">
							<path class="st0" d="M364.6,208.3c0.1,0,0.2,0,0.3-0.1c0.2-0.1,0.3-0.3,0.3-0.6v-0.7c0-0.1-0.1-0.2-0.2-0.2
								c-0.1,0-0.2,0.1-0.2,0.2v0.7c0,0.1,0,0.1,0,0.2c0,0-0.1,0-0.2,0c-0.2-0.1-0.4-0.6-0.4-1.1v-4.2c0-0.1-0.1-0.2-0.2-0.2
								c-0.1,0-0.2,0.1-0.2,0.2v4.2c0,0.6,0.3,1.3,0.7,1.5C364.3,208.3,364.5,208.3,364.6,208.3z"/>
						</g>
						<g id="XMLID_14624_">
							<path class="st0" d="M360.8,201v-0.1c0-1,0.3-1.7,1-2.1c0.6-0.4,1.4-0.3,2.3,0.2c1.7,1,3,3.3,3,5.3v0.4L360.8,201z
								 M362,199.2c-0.4,0.3-0.7,0.8-0.7,1.5l5.3,3.1c-0.2-1.7-1.4-3.6-2.8-4.4c-0.4-0.2-0.8-0.4-1.2-0.4
								C362.4,199,362.2,199.1,362,199.2z"/>
						</g>
					</g>
					<g id="XMLID_14616_">
						<g id="XMLID_14620_">
							<g id="XMLID_14622_">
								<path class="st0" d="M356,203.5c0.1,0,0.2-0.1,0.2-0.2v-6.8c0-0.1-0.1-0.2-0.2-0.2c-0.1,0-0.2,0.1-0.2,0.2v6.8
									C355.8,203.4,355.9,203.5,356,203.5z"/>
							</g>
							<g id="XMLID_14621_">
								<path class="st0" d="M356.7,198.3C356.8,198.3,356.8,198.3,356.7,198.3c0.2-0.1,0.3-0.2,0.2-0.3l-0.8-2l-0.9,1.1
									c-0.1,0.1-0.1,0.2,0,0.3c0.1,0.1,0.2,0.1,0.3,0l0.4-0.5l0.5,1.3C356.6,198.2,356.6,198.3,356.7,198.3z"/>
							</g>
						</g>
						<g id="XMLID_14617_">
							<g id="XMLID_14619_">
								<path class="st0" d="M353.8,202.2c0.1,0,0.2-0.1,0.2-0.2v-6.8c0-0.1-0.1-0.2-0.2-0.2c-0.1,0-0.2,0.1-0.2,0.2v6.8
									C353.6,202.1,353.7,202.2,353.8,202.2z"/>
							</g>
							<g id="XMLID_14618_">
								<path class="st0" d="M354.5,197C354.6,197,354.6,197,354.5,197c0.2-0.1,0.3-0.2,0.2-0.3l-0.8-2l-0.9,1.1
									c-0.1,0.1-0.1,0.2,0,0.3c0.1,0.1,0.2,0.1,0.3,0l0.4-0.5l0.5,1.3C354.4,197,354.5,197,354.5,197z"/>
							</g>
						</g>
					</g>
					<g id="XMLID_14615_">
						<polygon class="st3" points="371.5,216.6 417.8,189.9 417.8,154.2 371.5,181 						"/>
					</g>
					<g id="XMLID_14614_">
						<polygon class="st4" points="396.4,202.2 392.9,204.3 392.9,168.6 396.4,166.6 						"/>
					</g>
					<g id="XMLID_14613_">
						<path class="st0" d="M345,172.4l6.6,3.8c1.4,0.8,2.5,2.4,2.5,3.7c0,1.2-1.1,1.6-2.5,0.8l-6.6-3.8c-1.4-0.8-2.5-2.4-2.5-3.7
							C342.5,171.9,343.6,171.6,345,172.4z"/>
					</g>
					<g id="XMLID_14612_">
						<polygon class="st5" points="392.9,168.6 346.6,141.9 350.1,139.8 396.4,166.6 						"/>
					</g>
					<g id="XMLID_14611_">
						<polygon class="st5" points="350.1,168.6 396.4,141.9 392.9,139.8 346.6,166.6 						"/>
					</g>
					<g id="XMLID_14610_">
						<polygon class="st1" points="350.1,172.2 350.1,168.6 346.6,166.6 346.6,170.2 						"/>
					</g>
				</g>
			</g>
		</g>
		<g>
			<g id="plants_1_">
				<g id="XMLID_193_">
					<g>
						<path class="st7" d="M306.4,285.6v-15.6c0,0,0.8-8.8,7-15.5c6.2-6.7,11.7-4.4,13.5-1.2c1.8,3.2-2.3,9.2-4.9,12.6
							c-3.2,4.1-15.6,23-15.6,31.5V285.6z"/>
						<path class="st8" d="M306.4,285.6v-15.6c0,0,0.8-8.8,7-15.5c6.2-6.7,11.7-4.4,13.5-1.2c1.8,3.2-2.3,9.2-4.9,12.6
							c-3.2,4.1-15.6,23-15.6,31.5V285.6z"/>
					</g>
					<g id="XMLID_194_">
						<path class="st5" d="M306.4,283.1c0.2,0,0.3-0.1,0.4-0.3c2.8-17.1,15.8-28.8,15.9-28.9c0.2-0.1,0.2-0.4,0-0.5
							c-0.1-0.2-0.4-0.2-0.5,0c-0.1,0.1-13.3,12-16.2,29.3C306,282.9,306.1,283.1,306.4,283.1C306.4,283.1,306.4,283.1,306.4,283.1z
							"/>
					</g>
				</g>
				<g id="XMLID_183_">
					<g>
						<path class="st9" d="M306.4,285.6c0,0-0.6-1.9,2.1-2.4c2.8-0.5,3.8-2.8,4.1-6.6c0.3-3.9,1.4-6.6,4.9-7.2
							c3.5-0.6,6.3,1.2,8.5-0.6c2.3-1.7,8.1-5.9,12.9-4c4.9,1.9,3.3,6.1,0.7,8.7c-2.5,2.7-3.3,3.6-1.3,8c1.9,4.4,0.5,8.5-3.9,9.5
							c-4.5,1-7,0.5-7,5.4s-0.7,7.1-3.2,9c-2.4,1.9-10.1,1.1-13.3,1.8c-3.2,0.7-4.5,3.6-4.5,3.6V285.6z"/>
						<path class="st10" d="M306.4,285.6c0,0-0.6-1.9,2.1-2.4c2.8-0.5,3.8-2.8,4.1-6.6c0.3-3.9,1.4-6.6,4.9-7.2
							c3.5-0.6,6.3,1.2,8.5-0.6c2.3-1.7,8.1-5.9,12.9-4c4.9,1.9,3.3,6.1,0.7,8.7c-2.5,2.7-3.3,3.6-1.3,8c1.9,4.4,0.5,8.5-3.9,9.5
							c-4.5,1-7,0.5-7,5.4s-0.7,7.1-3.2,9c-2.4,1.9-10.1,1.1-13.3,1.8c-3.2,0.7-4.5,3.6-4.5,3.6V285.6z"/>
					</g>
					<g id="XMLID_192_">
						<path class="st5" d="M306.4,305.8c0.2,0,0.3-0.1,0.4-0.3c8.1-24.1,26.5-33.9,26.7-34c0.2-0.1,0.3-0.3,0.2-0.5
							c-0.1-0.2-0.3-0.3-0.5-0.2c-0.2,0.1-18.8,10-27.1,34.4c-0.1,0.2,0,0.4,0.2,0.5C306.3,305.7,306.4,305.8,306.4,305.8z"/>
					</g>
					<g id="XMLID_191_">
						<path class="st5" d="M318.1,284.7C318.1,284.7,318.1,284.7,318.1,284.7c5.4-1.2,13.9-0.6,14-0.6c0.2,0,0.4-0.1,0.4-0.4
							c0-0.2-0.1-0.4-0.4-0.4c-0.4,0-8.7-0.7-14.1,0.6c-0.2,0-0.3,0.3-0.3,0.5C317.7,284.6,317.9,284.7,318.1,284.7z"/>
					</g>
					<g id="XMLID_186_">
						<path class="st5" d="M313.7,296.3c2.4,0,5-0.2,5.2-0.2c0.2,0,0.4-0.2,0.4-0.4s-0.2-0.4-0.4-0.4c-0.1,0-6,0.4-8.3,0
							c-0.2,0-0.4,0.1-0.4,0.3c0,0.2,0.1,0.4,0.3,0.4C311.2,296.3,312.5,296.3,313.7,296.3z"/>
					</g>
					<g id="XMLID_185_">
						<path class="st5" d="M320.5,281.9C320.6,281.9,320.6,281.9,320.5,281.9c0.2,0,0.4-0.2,0.4-0.4c-0.2-4.3-1.6-7.9-1.7-8.1
							c-0.1-0.2-0.3-0.3-0.5-0.2c-0.2,0.1-0.3,0.3-0.2,0.5c0,0,1.4,3.7,1.7,7.8C320.2,281.7,320.3,281.9,320.5,281.9z"/>
					</g>
				</g>
			</g>
			<g id="window_1_">
				<g id="XMLID_182_">
					<path class="st11" d="M306.5,130.8v181.6c0,1.7-1.2,2.3-2.6,1.5L85.7,188c-1.4-0.8-2.6-2.8-2.6-4.5V1.9c0-1.7,1.2-2.3,2.6-1.5
						l218.2,126C305.4,127.2,306.5,129.2,306.5,130.8z"/>
				</g>
				<g id="XMLID_170_">
					<g id="XMLID_179_">
						<path class="st12" d="M85.7,0.4l218.2,126c1.4,0.8,2.6,2.8,2.6,4.5v11.4L83.1,12.9V1.9C83.1,0.2,84.3-0.5,85.7,0.4z"/>
					</g>
					<g id="XMLID_176_">
						<path class="st13" d="M113.6,20.5c1.4,0.8,2.6,2.8,2.6,4.4c0,1.6-1.1,2.3-2.6,1.5c-1.4-0.8-2.6-2.8-2.6-4.4
							S112.2,19.7,113.6,20.5z"/>
					</g>
					<g id="XMLID_174_">
						<path class="st13" d="M103.4,14.7c1.4,0.8,2.6,2.8,2.6,4.4s-1.1,2.3-2.6,1.5c-1.4-0.8-2.6-2.8-2.6-4.4S102,13.8,103.4,14.7z"
							/>
					</g>
					<g id="XMLID_172_">
						<path class="st13" d="M93.3,8.8c1.4,0.8,2.6,2.8,2.6,4.4s-1.1,2.3-2.6,1.5c-1.4-0.8-2.6-2.8-2.6-4.4S91.8,8,93.3,8.8z"/>
					</g>
				</g>
			</g>
			<g id="XMLID_168_">
				<path class="st5" d="M236.4,126.1l46.7,27l0,54l-46.7-27V126.1 M235.4,124.3v56.3l48.7,28.1l0-56.3L235.4,124.3L235.4,124.3z"/>
			</g>
			<g id="images_1_">
				<g id="XMLID_147_">
					<g id="XMLID_167_">
						<path class="st5" d="M169.9,143.4V85.9l49.7,28.7v57.4L169.9,143.4z M170.9,87.7v55.1l47.7,27.6v-55.1L170.9,87.7z"/>
					</g>
					<g id="XMLID_148_">
						<g id="XMLID_150_">
							<g id="XMLID_151_">
								<g id="XMLID_152_">
									<g>
										<g id="XMLID_163_">
											<path class="st14" d="M188.5,114.3l-2.6-5.7c2.5-0.5,5.4,0.1,8.4,1.7v5.1C192.2,114.4,190.2,114,188.5,114.3z"/>
											<path class="st14" d="M184.1,118.1l-4.2-4c1-2.7,2.8-4.5,5.2-5.2l2.6,5.7C186,115.1,184.8,116.3,184.1,118.1z"/>
											<path class="st14" d="M201.1,143.7l2.6,5.7c-2.4,0.5-5.3,0-8.4-1.7v-5.1C197.5,143.7,199.4,144,201.1,143.7z"/>
											<path class="st14" d="M187.6,135.2l-2.6,2.6c-2.3-3.4-4.1-7.3-5.2-11.2l4.2,0.9C184.8,130.2,186,132.8,187.6,135.2z"/>
											<path class="st14" d="M194.3,141.9v5.1c-3.1-1.9-6-4.7-8.4-8l2.6-2.6C190.2,138.7,192.1,140.6,194.3,141.9z"/>
											<path class="st14" d="M179.5,115.1l4.2,4c-0.3,1-0.4,2-0.4,3.2c0,1.2,0.2,2.5,0.4,3.7l-4.2-0.9c-0.4-1.8-0.6-3.7-0.6-5.4
												C178.9,118.1,179.1,116.5,179.5,115.1z"/>
										</g>
										<g id="XMLID_160_" class="st15">
											<path class="st14" d="M188.5,114.3l-2.6-5.7c2.5-0.5,5.4,0.1,8.4,1.7v5.1C192.2,114.4,190.2,114,188.5,114.3z"/>
											<path class="st14" d="M184.1,118.1l-4.2-4c1-2.7,2.8-4.5,5.2-5.2l2.6,5.7C186,115.1,184.8,116.3,184.1,118.1z"/>
											<path class="st14" d="M201.1,143.7l2.6,5.7c-2.4,0.5-5.3,0-8.4-1.7v-5.1C197.5,143.7,199.4,144,201.1,143.7z"/>
											<path class="st14" d="M187.6,135.2l-2.6,2.6c-2.3-3.4-4.1-7.3-5.2-11.2l4.2,0.9C184.8,130.2,186,132.8,187.6,135.2z"/>
											<path class="st14" d="M194.3,141.9v5.1c-3.1-1.9-6-4.7-8.4-8l2.6-2.6C190.2,138.7,192.1,140.6,194.3,141.9z"/>
											<path class="st14" d="M179.5,115.1l4.2,4c-0.3,1-0.4,2-0.4,3.2c0,1.2,0.2,2.5,0.4,3.7l-4.2-0.9c-0.4-1.8-0.6-3.7-0.6-5.4
												C178.9,118.1,179.1,116.5,179.5,115.1z"/>
										</g>
									</g>
									<g id="XMLID_156_">
										<path class="st5" d="M195.4,116.1V111c3.1,1.9,6,4.7,8.4,8l-2.6,2.6C199.4,119.3,197.5,117.4,195.4,116.1z"/>
									</g>
									<g id="XMLID_155_">
										<path class="st5" d="M202,122.8l2.6-2.6c2.3,3.4,4.1,7.3,5.2,11.2l-4.2-0.9C204.8,127.9,203.6,125.2,202,122.8z"/>
									</g>
									<g id="XMLID_154_">
										<path class="st5" d="M206.3,135.7c0-1.2-0.2-2.5-0.4-3.7l4.2,0.9c0.4,1.8,0.6,3.7,0.6,5.4s-0.2,3.3-0.6,4.7l-4.2-4
											C206.2,137.9,206.3,136.9,206.3,135.7z"/>
									</g>
									<g id="XMLID_153_">
										<path class="st5" d="M205.5,139.9l4.2,4c-1,2.7-2.8,4.5-5.2,5.2l-2.6-5.7C203.6,143,204.8,141.7,205.5,139.9z"/>
									</g>
								</g>
							</g>
							<g>
								<path class="st16" d="M204.3,134.5c0-6.1-4.3-13.4-9.5-16.5c-5.3-3-9.5-0.6-9.5,5.5c0,6.1,4.3,13.4,9.5,16.5
									C200.1,143,204.3,140.6,204.3,134.5z"/>
								<path class="st17" d="M204.3,134.5c0-6.1-4.3-13.4-9.5-16.5c-5.3-3-9.5-0.6-9.5,5.5c0,6.1,4.3,13.4,9.5,16.5
									C200.1,143,204.3,140.6,204.3,134.5z"/>
							</g>
						</g>
						<g id="XMLID_149_">
							<path class="st5" d="M195.9,125.1c0.1-0.2,0.2-0.4,0.4-0.5c0.2-0.1,0.4-0.1,0.6-0.1c0.3,0,0.6,0.2,0.9,0.4
								c0.3,0.2,0.7,0.4,0.9,0.7c0.3,0.3,0.5,0.5,0.6,0.8c0.2,0.3,0.3,0.6,0.4,0.9c0.1,0.3,0.1,0.6,0.2,0.9c0,0.2,0,0.4,0,0.6
								c0,0.2,0,0.4,0,0.6c0,0.3-0.1,0.6-0.2,0.8c-0.1,0.2-0.2,0.4-0.4,0.5c-0.2,0.1-0.4,0.1-0.6,0.1c-0.3,0-0.6-0.2-0.9-0.4
								c-0.3-0.2-0.6-0.4-0.9-0.7c-0.3-0.3-0.5-0.5-0.6-0.8c-0.2-0.3-0.3-0.6-0.4-0.9c-0.1-0.3-0.1-0.6-0.2-0.9c0-0.4,0-0.8,0-1.2
								C195.8,125.6,195.8,125.3,195.9,125.1z M199,136c0,0,0,0.1,0,0.1c0,0,0,0.1,0,0.1c0,0.1,0,0.2-0.1,0.2c-0.1,0-0.1,0-0.2-0.1
								l-1.1-0.6c-0.1-0.1-0.2-0.2-0.3-0.2c-0.1-0.1-0.1-0.2-0.2-0.3l-6.6-13.8c0,0,0-0.1,0-0.1c0,0,0-0.1,0-0.1
								c0-0.1,0-0.1,0.1-0.2c0.1,0,0.1,0,0.2,0.1l1.1,0.6c0.1,0.1,0.2,0.2,0.3,0.2c0.1,0.1,0.1,0.2,0.2,0.3L199,136z M198.4,127.5
								c0-0.3-0.1-0.5-0.1-0.7c-0.1-0.2-0.2-0.3-0.4-0.4c-0.2-0.1-0.3-0.1-0.4,0c-0.1,0.1-0.1,0.3-0.1,0.5c0,0.3,0,0.7,0,1
								c0,0.3,0.1,0.5,0.1,0.7c0.1,0.2,0.2,0.3,0.4,0.4c0.2,0.1,0.3,0.1,0.4,0c0.1-0.1,0.1-0.3,0.1-0.5
								C198.4,128.2,198.4,127.9,198.4,127.5z M189.7,126.9c0.1-0.2,0.2-0.4,0.4-0.5c0.2-0.1,0.4-0.1,0.6-0.1c0.3,0,0.6,0.2,0.9,0.4
								c0.3,0.2,0.7,0.4,0.9,0.7c0.3,0.3,0.5,0.5,0.6,0.8c0.2,0.3,0.3,0.6,0.4,0.9c0.1,0.3,0.1,0.6,0.2,0.9c0,0.2,0,0.4,0,0.6
								s0,0.4,0,0.6c0,0.3-0.1,0.6-0.2,0.8c-0.1,0.2-0.2,0.4-0.4,0.5c-0.2,0.1-0.4,0.1-0.6,0.1c-0.3,0-0.6-0.2-0.9-0.4
								c-0.3-0.2-0.7-0.4-0.9-0.7c-0.3-0.3-0.5-0.5-0.6-0.8c-0.2-0.3-0.3-0.6-0.4-0.9c-0.1-0.3-0.1-0.6-0.2-0.9c0-0.4,0-0.8,0-1.2
								C189.6,127.4,189.6,127.2,189.7,126.9z M192.2,129.3c0-0.3-0.1-0.5-0.1-0.7c-0.1-0.2-0.2-0.3-0.4-0.4c-0.2-0.1-0.3-0.1-0.4,0
								c-0.1,0.1-0.1,0.3-0.1,0.5c0,0.3,0,0.7,0,1c0,0.3,0.1,0.5,0.1,0.7c0.1,0.2,0.2,0.3,0.4,0.4s0.3,0.1,0.4,0
								c0.1-0.1,0.1-0.3,0.1-0.5C192.2,130,192.2,129.7,192.2,129.3z"/>
						</g>
					</g>
				</g>
				<g id="XMLID_136_">
					<g id="XMLID_146_">
						<path class="st5" d="M104.9,105.9V48.4l49.7,28.7v57.4L104.9,105.9z M105.9,50.1v55.1l47.7,27.6V77.7L105.9,50.1z"/>
					</g>
					<g id="XMLID_137_">
						<g id="XMLID_139_">
							<g id="XMLID_141_">
								<g id="XMLID_142_">
									<g id="XMLID_145_">
										<path class="st5" d="M130.4,78.6v-5.1c3.1,1.9,6,4.7,8.4,8l-2.6,2.6C134.5,81.8,132.5,79.9,130.4,78.6z"/>
									</g>
									<g id="XMLID_144_">
										<path class="st5" d="M137,85.3l2.6-2.6c2.3,3.4,4.1,7.3,5.2,11.2l-4.2-0.9C139.8,90.3,138.6,87.7,137,85.3z"/>
									</g>
									<g>
										<g id="XMLID_143_">
											<path class="st14" d="M123.5,76.8l-2.6-5.7c2.5-0.5,5.4,0.1,8.4,1.7v5.1C127.2,76.9,125.3,76.5,123.5,76.8z"/>
											<path class="st14" d="M119.1,80.6l-4.2-4c1-2.7,2.8-4.5,5.2-5.2l2.6,5.7C121,77.6,119.8,78.8,119.1,80.6z"/>
											<path class="st14" d="M136.1,106.2l2.6,5.7c-2.4,0.5-5.3,0-8.4-1.7v-5.1C132.5,106.2,134.5,106.5,136.1,106.2z"/>
											<path class="st14" d="M114.5,77.6l4.2,4c-0.3,1-0.4,2-0.4,3.2c0,1.2,0.2,2.5,0.4,3.7l-4.2-0.9c-0.4-1.8-0.6-3.7-0.6-5.4
												C113.9,80.5,114.1,79,114.5,77.6z"/>
											<path class="st14" d="M122.6,97.7l-2.6,2.6c-2.3-3.4-4.1-7.3-5.2-11.2l4.2,0.9C119.8,92.6,121,95.3,122.6,97.7z"/>
											<path class="st14" d="M141.3,98.1c0-1.2-0.2-2.5-0.4-3.7l4.2,0.9c0.4,1.8,0.6,3.7,0.6,5.4c0,1.8-0.2,3.3-0.6,4.7l-4.2-4
												C141.2,100.4,141.3,99.3,141.3,98.1z"/>
											<path class="st14" d="M140.6,102.4l4.2,4c-1,2.7-2.8,4.5-5.2,5.2L137,106C138.6,105.4,139.8,104.2,140.6,102.4z"/>
											<path class="st14" d="M129.3,104.4v5.1c-3.1-1.9-6-4.7-8.4-8l2.6-2.6C125.2,101.2,127.2,103.1,129.3,104.4z"/>
										</g>
									</g>
								</g>
							</g>
							<g id="XMLID_140_">
								<path class="st17" d="M139.3,97c0-6.1-4.3-13.4-9.5-16.5c-5.3-3-9.5-0.6-9.5,5.5c0,6.1,4.3,13.4,9.5,16.5
									C135.1,105.5,139.3,103,139.3,97z"/>
								<path class="st17" d="M139.3,97c0-6.1-4.3-13.4-9.5-16.5c-5.3-3-9.5-0.6-9.5,5.5c0,6.1,4.3,13.4,9.5,16.5
									C135.1,105.5,139.3,103,139.3,97z"/>
							</g>
						</g>
						<g id="XMLID_138_">
							<path class="st5" d="M130.9,87.6c0.1-0.2,0.2-0.4,0.4-0.5c0.2-0.1,0.4-0.1,0.6-0.1c0.3,0,0.6,0.2,0.9,0.4
								c0.3,0.2,0.7,0.4,0.9,0.7c0.3,0.3,0.5,0.5,0.6,0.8c0.2,0.3,0.3,0.6,0.4,0.9c0.1,0.3,0.1,0.6,0.2,0.9c0,0.2,0,0.4,0,0.6
								c0,0.2,0,0.4,0,0.6c0,0.3-0.1,0.6-0.2,0.8c-0.1,0.2-0.2,0.4-0.4,0.5c-0.2,0.1-0.4,0.1-0.6,0.1c-0.3,0-0.6-0.2-0.9-0.4
								c-0.3-0.2-0.7-0.4-0.9-0.7c-0.3-0.3-0.5-0.5-0.6-0.8c-0.2-0.3-0.3-0.6-0.4-0.9c-0.1-0.3-0.1-0.6-0.2-0.9c0-0.4,0-0.8,0-1.2
								C130.8,88.1,130.8,87.8,130.9,87.6z M134,98.5c0,0,0,0.1,0,0.1c0,0,0,0.1,0,0.1c0,0.1,0,0.2-0.1,0.2c-0.1,0-0.1,0-0.2-0.1
								l-1.1-0.6c-0.1-0.1-0.2-0.2-0.3-0.2c-0.1-0.1-0.1-0.2-0.2-0.3l-6.6-13.8c0,0,0-0.1,0-0.1c0,0,0-0.1,0-0.1
								c0-0.1,0-0.1,0.1-0.2c0.1,0,0.1,0,0.2,0.1l1.1,0.6c0.1,0.1,0.2,0.2,0.3,0.2c0.1,0.1,0.1,0.2,0.2,0.3L134,98.5z M133.4,90
								c0-0.3-0.1-0.5-0.1-0.7c-0.1-0.2-0.2-0.3-0.4-0.4c-0.2-0.1-0.3-0.1-0.4,0c-0.1,0.1-0.1,0.3-0.1,0.5c0,0.3,0,0.7,0,1
								c0,0.3,0.1,0.5,0.1,0.7c0.1,0.2,0.2,0.3,0.4,0.4s0.3,0.1,0.4,0c0.1-0.1,0.1-0.3,0.1-0.5C133.4,90.7,133.4,90.3,133.4,90z
								 M124.7,89.4c0.1-0.2,0.2-0.4,0.4-0.5c0.2-0.1,0.4-0.1,0.6-0.1c0.3,0,0.6,0.2,0.9,0.4c0.3,0.2,0.7,0.4,0.9,0.7
								c0.3,0.3,0.5,0.5,0.6,0.8c0.2,0.3,0.3,0.6,0.4,0.9c0.1,0.3,0.1,0.6,0.2,0.9c0,0.2,0,0.4,0,0.6c0,0.2,0,0.4,0,0.6
								c0,0.3-0.1,0.6-0.2,0.8c-0.1,0.2-0.2,0.4-0.4,0.5c-0.2,0.1-0.4,0.1-0.6,0.1c-0.3,0-0.6-0.2-0.9-0.4c-0.3-0.2-0.7-0.4-0.9-0.7
								c-0.3-0.3-0.5-0.5-0.6-0.8c-0.2-0.3-0.3-0.6-0.4-0.9c-0.1-0.3-0.1-0.6-0.2-0.9c0-0.4,0-0.8,0-1.2
								C124.6,89.9,124.6,89.6,124.7,89.4z M127.2,91.8c0-0.3-0.1-0.5-0.1-0.7c-0.1-0.2-0.2-0.3-0.4-0.4c-0.2-0.1-0.3-0.1-0.4,0
								c-0.1,0.1-0.1,0.3-0.1,0.5c0,0.3,0,0.7,0,1c0,0.3,0.1,0.5,0.1,0.7c0.1,0.2,0.2,0.3,0.4,0.4c0.2,0.1,0.3,0.1,0.4,0
								c0.1-0.1,0.1-0.3,0.1-0.5C127.2,92.5,127.2,92.1,127.2,91.8z"/>
						</g>
					</g>
				</g>
				<g id="XMLID_131_">
					<g id="XMLID_135_">
						<polygon class="st18" points="284.2,222.8 284.2,279.1 235.4,251 235.4,194.7 						"/>
						<polygon class="st19" points="284.2,222.8 284.2,279.1 235.4,251 235.4,194.7 						"/>
					</g>
					<g>
						<g id="XMLID_134_">
							<path class="st11" d="M284.2,237.7c-1.7,0.6-3.8,0.4-6.1-1c-5.3-3-9.5-10.4-9.5-16.5c0-2.4,0.7-4.2,1.8-5.4l13.8,8V237.7z"/>
							<path class="st11" d="M262.7,239.1c-0.5-1.6-1.4-1.6-2.1-0.1l-6.9,15l-10.3-38.8c-0.4-1.6-1.1-1.6-1.6,0l-6.4,22.9V251
								l37.5,21.6L262.7,239.1z"/>
						</g>
						<g id="XMLID_133_" class="st15">
							<path class="st11" d="M284.2,237.7c-1.7,0.6-3.8,0.4-6.1-1c-5.3-3-9.5-10.4-9.5-16.5c0-2.4,0.7-4.2,1.8-5.4l13.8,8V237.7z"/>
							<path class="st11" d="M262.7,239.1c-0.5-1.6-1.4-1.6-2.1-0.1l-6.9,15l-10.3-38.8c-0.4-1.6-1.1-1.6-1.6,0l-6.4,22.9V251
								l37.5,21.6L262.7,239.1z"/>
						</g>
					</g>
					<g id="XMLID_132_">
						<path class="st5" d="M236.4,196.4l46.7,27l0,54l-46.7-27V196.4 M235.4,194.7V251l48.7,28.1l0-56.3L235.4,194.7L235.4,194.7z"
							/>
						<path class="st20" d="M236.4,196.4l46.7,27l0,54l-46.7-27V196.4 M235.4,194.7V251l48.7,28.1l0-56.3L235.4,194.7L235.4,194.7z"
							/>
					</g>
				</g>
				<g id="XMLID_126_">
					<g id="XMLID_130_">
						<polygon class="st18" points="219.2,185.3 219.2,241.6 170.4,213.5 170.4,157.2 						"/>
						<polygon class="st19" points="219.2,185.3 219.2,241.6 170.4,213.5 170.4,157.2 						"/>
					</g>
					<g>
						<g id="XMLID_129_">
							<path class="st11" d="M219.2,200.2c-1.7,0.6-3.8,0.4-6.1-1c-5.3-3-9.5-10.4-9.5-16.5c0-2.4,0.7-4.2,1.8-5.4l13.8,8V200.2z"/>
							<path class="st11" d="M197.7,201.6c-0.5-1.6-1.4-1.6-2.1-0.1l-6.9,15l-10.3-38.8c-0.4-1.6-1.1-1.6-1.6,0l-6.4,22.9v12.9
								l37.5,21.6L197.7,201.6z"/>
						</g>
						<g id="XMLID_128_" class="st15">
							<path class="st11" d="M219.2,200.2c-1.7,0.6-3.8,0.4-6.1-1c-5.3-3-9.5-10.4-9.5-16.5c0-2.4,0.7-4.2,1.8-5.4l13.8,8V200.2z"/>
							<path class="st11" d="M197.7,201.6c-0.5-1.6-1.4-1.6-2.1-0.1l-6.9,15l-10.3-38.8c-0.4-1.6-1.1-1.6-1.6,0l-6.4,22.9v12.9
								l37.5,21.6L197.7,201.6z"/>
						</g>
					</g>
					<g id="XMLID_127_">
						<path class="st5" d="M171.4,158.9l46.7,27l0,54l-46.7-27V158.9 M170.4,157.2v56.3l48.7,28.1l0-56.3L170.4,157.2L170.4,157.2z"
							/>
						<path class="st20" d="M171.4,158.9l46.7,27l0,54l-46.7-27V158.9 M170.4,157.2v56.3l48.7,28.1l0-56.3L170.4,157.2L170.4,157.2z
							"/>
					</g>
				</g>
				<g id="XMLID_121_">
					<g id="XMLID_125_">
						<polygon class="st18" points="154.2,147.8 154.2,204.1 105.4,175.9 105.4,119.7 						"/>
						<polygon class="st19" points="154.2,147.8 154.2,204.1 105.4,175.9 105.4,119.7 						"/>
					</g>
					<g>
						<g id="XMLID_124_">
							<path class="st11" d="M154.2,162.7c-1.7,0.6-3.8,0.4-6.1-1c-5.3-3-9.5-10.4-9.5-16.5c0-2.4,0.7-4.2,1.8-5.4l13.8,8V162.7z"/>
							<path class="st11" d="M132.7,164.1c-0.5-1.6-1.4-1.6-2.1-0.1l-6.9,15l-10.3-38.8c-0.4-1.6-1.1-1.6-1.6,0l-6.4,22.9v12.9
								l37.5,21.6L132.7,164.1z"/>
						</g>
						<g id="XMLID_123_" class="st15">
							<path class="st11" d="M154.2,162.7c-1.7,0.6-3.8,0.4-6.1-1c-5.3-3-9.5-10.4-9.5-16.5c0-2.4,0.7-4.2,1.8-5.4l13.8,8V162.7z"/>
							<path class="st11" d="M132.7,164.1c-0.5-1.6-1.4-1.6-2.1-0.1l-6.9,15l-10.3-38.8c-0.4-1.6-1.1-1.6-1.6,0l-6.4,22.9v12.9
								l37.5,21.6L132.7,164.1z"/>
						</g>
					</g>
					<g id="XMLID_122_">
						<path class="st5" d="M106.4,121.4l46.7,27l0,54l-46.7-27V121.4 M105.4,119.7v56.3l48.7,28.1l0-56.3L105.4,119.7L105.4,119.7z"
							/>
						<path class="st20" d="M106.4,121.4l46.7,27l0,54l-46.7-27V121.4 M105.4,119.7v56.3l48.7,28.1l0-56.3L105.4,119.7L105.4,119.7z
							"/>
					</g>
				</g>
			</g>
			<g id="seleccion_1_">
				<polygon class="st9" points="111.5,138.9 97.2,142.7 102,145.5 93.2,151.9 94.4,153.7 103.4,147.2 104.6,152.5 				"/>
			</g>
		</g>
		<g id="coments">
			<g id="XMLID_184_">
				<path class="st21" d="M37,103.5l31.4,18.1c1.4,0.8,2.6,2.8,2.6,4.5v25.3l8,8.3c1.2,1.2,0.7,2-0.9,1.8l-7.1-0.8v11.1
					c0,1.7-1.2,2.3-2.6,1.5L37,155.1c-1.4-0.8-2.6-2.8-2.6-4.5V105C34.4,103.4,35.5,102.7,37,103.5z"/>
			</g>
			<g id="XMLID_70_">
				<g id="XMLID_187_">
					<path class="st5" d="M60.5,131.2l1.3-0.1c1.7-0.1,3.8-0.8,3.8-3.3c0-1.7-1.2-3.7-2.6-4.6c-1.1-0.7-2.1-0.4-2.5,0.6
						c-0.4-1.4-1.3-2.8-2.5-3.4c-1.5-0.8-2.6-0.2-2.6,1.5c0,2.4,2.1,5.5,3.8,7.7L60.5,131.2z"/>
				</g>
			</g>
			<g id="XMLID_188_">
				<path class="st5" d="M48,116.9l-7-4c-1.4-0.8-2.6-0.5-2.6,0.8c0,1.3,1.2,3,2.6,3.8l7,4c1.4,0.8,2.6,0.5,2.6-0.8
					C50.6,119.5,49.4,117.8,48,116.9z"/>
			</g>
			<g id="XMLID_190_">
				<path class="st5" d="M63,139.4l-7-4c-1.4-0.8-2.6-0.5-2.6,0.8c0,1.3,1.2,3,2.6,3.8l7,4c1.4,0.8,2.6,0.4,2.6-0.8
					S64.4,140.2,63,139.4z"/>
			</g>
			<g id="XMLID_189_">
				<path class="st5" d="M63,149.1l-22-12.7c-1.4-0.8-2.6-0.4-2.6,0.8c0,1.3,1.2,3,2.6,3.8l22,12.7c1.4,0.8,2.6,0.4,2.6-0.8
					C65.6,151.7,64.4,150,63,149.1z"/>
			</g>
			<g id="XMLID_37_">
				<path class="st5" d="M63,158.3l-22-12.7c-1.4-0.8-2.6-0.4-2.6,0.8s1.2,3,2.6,3.8L63,163c1.4,0.8,2.6,0.4,2.6-0.8
					C65.6,160.8,64.4,159.1,63,158.3z"/>
			</g>
		</g>
		<g id="image_1_">
			<g id="XMLID_107_">
				<g id="XMLID_113_">
					<polygon class="st19" points="391.8,341.3 343.1,369.4 294.3,341.3 343.1,313.1 					"/>
					<polygon class="st19" points="391.8,341.3 343.1,369.4 294.3,341.3 343.1,313.1 					"/>
				</g>
				<g>
					<g>
						<g id="XMLID_112_">
							<path class="st11" d="M378.9,348.7c-3-0.2-6-0.9-8.3-2.2c-5.3-3-5.3-7.9,0-11c2.1-1.2,4.7-1.9,7.4-2.2l13.8,8L378.9,348.7z"
								/>
						</g>
						<g id="XMLID_111_">
							<path class="st11" d="M345.5,343.2c0.6-0.9-0.7-1.2-3.1-0.7l-23.3,5.5l18.2-22.4c0.8-0.9-0.3-1.1-2.4-0.5l-29.5,9.6
								l-11.2,6.5l37.5,21.6L345.5,343.2z"/>
						</g>
					</g>
					<g class="st15">
						<g id="XMLID_110_">
							<path d="M378.9,348.7c-3-0.2-6-0.9-8.3-2.2c-5.3-3-5.3-7.9,0-11c2.1-1.2,4.7-1.9,7.4-2.2l13.8,8L378.9,348.7z"/>
						</g>
						<g id="XMLID_109_">
							<path d="M345.5,343.2c0.6-0.9-0.7-1.2-3.1-0.7l-23.3,5.5l18.2-22.4c0.8-0.9-0.3-1.1-2.4-0.5l-29.5,9.6l-11.2,6.5l37.5,21.6
								L345.5,343.2z"/>
						</g>
					</g>
				</g>
				<g id="XMLID_108_">
					<path class="st5" d="M343.1,314.3l46.7,27l-46.7,27l-46.7-27L343.1,314.3 M343.1,313.1l-48.7,28.1l48.7,28.1l48.7-28.1
						L343.1,313.1L343.1,313.1z"/>
					<path class="st20" d="M343.1,314.3l46.7,27l-46.7,27l-46.7-27L343.1,314.3 M343.1,313.1l-48.7,28.1l48.7,28.1l48.7-28.1
						L343.1,313.1L343.1,313.1z"/>
				</g>
			</g>
			<g id="XMLID_106_">
				<polygon class="st22" points="391.8,341.3 391.8,345.9 343.1,374.1 343.1,369.4 				"/>
				<polygon class="st23" points="391.8,341.3 391.8,345.9 343.1,374.1 343.1,369.4 				"/>
			</g>
			<g id="XMLID_105_">
				<polygon class="st14" points="294.3,341.3 343.1,369.4 343.1,374.1 294.3,345.9 				"/>
				<polygon class="st24" points="294.3,341.3 343.1,369.4 343.1,374.1 294.3,345.9 				"/>
			</g>
		</g>
		<g id="open_box">
			<polygon class="st9" points="14,235.8 62.8,207.7 111.5,235.8 62.8,263.9 			"/>
			<polygon class="st12" points="62.8,207.7 111.5,235.8 111.5,273.3 62.8,301.5 			"/>
			<g id="XMLID_243_">
				<g id="XMLID_32_">
					<g id="XMLID_353_">
						<polygon class="st11" points="99.3,280.4 107.5,224.1 58.7,195.9 50.6,252.2 						"/>
						<polygon class="st19" points="99.3,280.4 107.5,224.1 58.7,195.9 50.6,252.2 						"/>
					</g>
					<g id="XMLID_351_">
						<polygon class="st14" points="107.5,224.1 112.2,223.1 104.3,277.5 99.3,280.4 						"/>
						<polygon class="st24" points="107.5,224.1 112.2,223.1 104.3,277.5 99.3,280.4 						"/>
					</g>
					<g id="XMLID_350_">
						<polygon class="st22" points="63.4,194.9 58.7,195.9 107.5,224.1 112.2,223.1 						"/>
						<polygon class="st23" points="63.4,194.9 58.7,195.9 107.5,224.1 112.2,223.1 						"/>
					</g>
					<g id="XMLID_34_">
						<path class="st11" d="M92.9,223.7c0.6-2.5,2.2-4.5,4.2-5.5l10.3,6l-1.5,10.7c-1.9,1-4.1,1.2-6.4,0.5
							C94.8,233.7,91.8,228.5,92.9,223.7z"/>
						<path class="st17" d="M92.9,223.7c0.6-2.5,2.2-4.5,4.2-5.5l10.3,6l-1.5,10.7c-1.9,1-4.1,1.2-6.4,0.5
							C94.8,233.7,91.8,228.5,92.9,223.7z"/>
					</g>
					<g id="XMLID_33_">
						<path class="st25" d="M81.9,226c-0.3-1.6-1.2-1.7-1.9-0.2l-7.2,14.7L67.4,209c-0.3-1.6-1.1-1.8-1.9-0.3l-11.7,21.9l-3.1,21.6
							l40.6,23.5C91.3,275.2,84,237,81.9,226z"/>
						<path class="st11" d="M81.9,226c-0.3-1.6-1.2-1.7-1.9-0.2l-7.2,14.7L67.4,209c-0.3-1.6-1.1-1.8-1.9-0.3l-11.7,21.9l-3.1,21.6
							l40.6,23.5C91.3,275.2,84,237,81.9,226z"/>
					</g>
					<g id="XMLID_7344_">
						<path class="st14" d="M59.5,197.5l46.9,27.1l-7.8,54.2l-46.9-27.1L59.5,197.5 M58.7,195.9l-8.1,56.3l48.7,28.1l8.1-56.3
							L58.7,195.9L58.7,195.9z"/>
						<path class="st20" d="M59.5,197.5l46.9,27.1l-7.8,54.2l-46.9-27.1L59.5,197.5 M58.7,195.9l-8.1,56.3l48.7,28.1l8.1-56.3
							L58.7,195.9L58.7,195.9z"/>
					</g>
				</g>
				<g id="XMLID_395_">
					<g id="XMLID_451_">
						<polygon class="st11" points="83.1,289.7 91.2,233.5 42.5,205.3 34.4,261.6 						"/>
						<polygon class="st19" points="83.1,289.7 91.2,233.5 42.5,205.3 34.4,261.6 						"/>
					</g>
					<g id="XMLID_407_">
						<polygon class="st14" points="91.2,233.5 95.9,232.4 88.1,286.9 83.1,289.7 						"/>
						<polygon class="st24" points="91.2,233.5 95.9,232.4 88.1,286.9 83.1,289.7 						"/>
					</g>
					<g id="XMLID_403_">
						<polygon class="st22" points="47.2,204.3 42.5,205.3 91.2,233.5 95.9,232.4 						"/>
						<polygon class="st23" points="47.2,204.3 42.5,205.3 91.2,233.5 95.9,232.4 						"/>
					</g>
					<g id="XMLID_401_">
						<path class="st17" d="M76.7,233c0.6-2.5,2.2-4.5,4.2-5.5l10.3,6l-1.5,10.7c-1.9,1-4.1,1.2-6.4,0.5
							C78.5,243.1,75.6,237.9,76.7,233z"/>
						<path class="st11" d="M76.7,233c0.6-2.5,2.2-4.5,4.2-5.5l10.3,6l-1.5,10.7c-1.9,1-4.1,1.2-6.4,0.5
							C78.5,243.1,75.6,237.9,76.7,233z"/>
					</g>
					<g id="XMLID_400_">
						<path class="st25" d="M65.7,235.4c-0.3-1.6-1.2-1.7-1.9-0.2l-7.2,14.7l-5.5-31.5c-0.3-1.6-1.1-1.8-1.9-0.3L37.5,240l-3.1,21.6
							L75,285.1C75.1,284.6,67.8,246.4,65.7,235.4z"/>
						<path class="st11" d="M65.7,235.4c-0.3-1.6-1.2-1.7-1.9-0.2l-7.2,14.7l-5.5-31.5c-0.3-1.6-1.1-1.8-1.9-0.3L37.5,240l-3.1,21.6
							L75,285.1C75.1,284.6,67.8,246.4,65.7,235.4z"/>
					</g>
					<g id="XMLID_241_">
						<path class="st5" d="M43.3,206.9L90.1,234l-7.8,54.2l-46.9-27.1L43.3,206.9 M42.5,205.3l-8.1,56.3l48.7,28.1l8.1-56.3
							L42.5,205.3L42.5,205.3z"/>
						<path class="st20" d="M43.3,206.9L90.1,234l-7.8,54.2l-46.9-27.1L43.3,206.9 M42.5,205.3l-8.1,56.3l48.7,28.1l8.1-56.3
							L42.5,205.3L42.5,205.3z"/>
					</g>
				</g>
			</g>
			<g id="XMLID_242_">
				<polygon class="st9" points="62.8,301.5 14,273.3 14,235.8 62.8,263.9 				"/>
			</g>
			<g id="XMLID_7267_">
				<path class="st7" d="M62.8,301.5l48.7-28.1v-37.5l-48.7,28.1L62.8,301.5z M81.1,260.4c0-1.3,1.2-3,2.6-3.8l7-4
					c1.4-0.8,2.6-0.4,2.6,0.8c0,1.3-1.2,3-2.6,3.8l-7,4C82.2,262.1,81.1,261.7,81.1,260.4z"/>
			</g>
			<g id="XMLID_42_">
				<rect x="20.1" y="232.3" transform="matrix(0.5 -0.866 0.866 0.5 -209.37 158.2097)" class="st7" width="24.4" height="56.3"/>
			</g>
			<g id="XMLID_7391_">
				<polygon class="st12" points="111.5,245.2 115.6,247.5 111.5,235.8 				"/>
			</g>
		</g>
		<g id="cloud_1_">
			<path class="st2" d="M285.8,61.6l3.1,1.2v-6.9c0-5.5,4.4-6.8,9.1-4.1h0c4.8,2.7,8.6,9.4,8.6,14.9v1c1.1-0.4,2.5-0.3,4,0.6l0,0
				c3.4,2,6.2,6.8,6.2,10.7v0.5l4.4,2.5c2.3,1.3,4.1,4.5,4.1,7.1s-1.8,3.7-4.1,2.4L285.8,71c-2.3-1.3-4.1-4.5-4.1-7.1
				S283.5,60.3,285.8,61.6z"/>
		</g>
		<g id="Girl">
			<g id="XMLID_399_">
				<g id="XMLID_6419_">
					<path class="st26" d="M215.9,329.4l0.2-6l-5-0.9l-0.3,5.2c-0.2,1.2-1.1,1.6-1.3,2.3s3.4,7.6,5.5,9.1c2,1.5,5.4-0.4,5.7-1.2
						c0.3-0.7-2.7-0.2-3.2-1.2C216.8,335.2,215.9,329.4,215.9,329.4z"/>
				</g>
				<g id="XMLID_5952_">
					<path class="st27" d="M210.4,328.7c0.7,0.6,1.2,1.9,2.1,3.8c0.9,1.9,2.2,5,3.6,5.4c1.6,0.5,4.9-0.4,2.8-0.6
						c-0.4,0-1.2-0.2-1.4-0.7c-0.2-0.4-0.2-0.5-0.2-0.5s0.7,0.3,2.2,0.2c1.3-0.1,2.2,0.2,2.9,1.2c0.3,0.5-0.2,1.4-0.2,1.4
						c-0.6,0.8-1.8,1.5-4.5,1.7c-2.6,0.2-4.3-0.2-5.3-2c-1.2-2.2-3.3-4.6-4.1-5.8C207.2,331.3,208.8,329.1,210.4,328.7z"/>
				</g>
				<g id="XMLID_237_">
					<path class="st26" d="M217.3,336.2c0.2,0.4,1.3,0.5,1.9,0.6c0.6,0.1,0.9,0.6-0.1,0.9C217.5,338,216.6,336.2,217.3,336.2z"/>
				</g>
			</g>
			<g id="XMLID_405_">
				<g id="XMLID_505_">
					<path class="st26" d="M168.5,309.8l4.2-4.4l-3.2-4l-3.6,3.7c-1,0.7-1.9,0.5-2.5,0.8c-0.6,0.4-2.5,8-2,10.5
						c0.5,2.5,4.3,3.2,5,2.9c0.7-0.3-1.9-2-1.6-3.1C165.3,314.7,168.5,309.8,168.5,309.8z"/>
				</g>
				<g id="XMLID_503_">
					<path class="st27" d="M164.9,305.6c0.1,0.9-0.4,2.2-1,4.2c-0.6,2-1.7,5.2-0.9,6.5c0.9,1.5,3.9,2.9,2.5,1.4
						c-0.3-0.3-0.8-1-0.6-1.5c0.1-0.4,0.2-0.5,0.2-0.5s0.4,0.7,1.5,1.6c1,0.8,1.5,1.6,1.3,2.8c-0.1,0.6-1.1,0.9-1.1,0.9
						c-1,0.2-2.4,0-4.5-1.7c-2.1-1.6-3.1-3-2.6-5c0.6-2.4,0.6-5.6,0.8-7.1C160.7,305.4,163.4,304.9,164.9,305.6z"/>
				</g>
				<g id="XMLID_406_">
					<path class="st26" d="M165,315.8c-0.2,0.4,0.7,1.3,1,1.8c0.4,0.5,0.2,1.1-0.7,0.6C164,317.3,164.6,315.4,165,315.8z"/>
				</g>
			</g>
			<g id="XMLID_239_">
				<path class="st26" d="M202.2,217.2c-1.3-4.6-0.5-7.4,0.5-11.4c1.9-7.3,3.7-14.7,3.7-14.7s1.3-27.9,1.4-30.4
					c0.1-3,0.6-4.7,0.9-7.2c0.1-1.4,1.2-1.6,1.1-1.5v5.6c0,0,1.7-1.5,2.6-2.6s1.9-1,2.2-0.4c0.3,0.6-1.3,1.7-2,3.2
					c-0.7,1.5-2.8,4.2-2.8,4.2v15.2l4,2.3l0.8,14.6l-6.2,22.6L202.2,217.2z"/>
			</g>
			<g id="XMLID_14449_">
				<polygon class="st26" points="220.4,207.6 219.5,215.2 212,216.1 213.1,206 				"/>
			</g>
			<g id="XMLID_257_">
				<g id="XMLID_232_">
					<g id="XMLID_254_">
						<polygon class="st18" points="258.5,149 258.5,205.3 209.8,177.1 209.8,120.8 						"/>
						<polygon class="st19" points="258.5,149 258.5,205.3 209.8,177.1 209.8,120.8 						"/>
					</g>
					<g id="XMLID_249_">
						<path class="st11" d="M258.5,163.9c-1.7,0.6-3.8,0.4-6.1-1c-5.3-3-9.5-10.4-9.5-16.5c0-2.4,0.7-4.2,1.8-5.4l13.8,8V163.9z"/>
						<path class="st17" d="M258.5,163.9c-1.7,0.6-3.8,0.4-6.1-1c-5.3-3-9.5-10.4-9.5-16.5c0-2.4,0.7-4.2,1.8-5.4l13.8,8V163.9z"/>
					</g>
					<g id="XMLID_240_">
						<path class="st11" d="M237.1,165.2c-0.5-1.6-1.4-1.6-2.1-0.1l-6.9,15l-10.3-38.8c-0.4-1.6-1.1-1.6-1.6,0l-6.4,22.9v12.9
							l37.5,21.6L237.1,165.2z"/>
						<path class="st17" d="M237.1,165.2c-0.5-1.6-1.4-1.6-2.1-0.1l-6.9,15l-10.3-38.8c-0.4-1.6-1.1-1.6-1.6,0l-6.4,22.9v12.9
							l37.5,21.6L237.1,165.2z"/>
					</g>
					<g id="XMLID_238_">
						<path class="st24" d="M210.8,122.6l46.7,27l0,54l-46.7-27V122.6 M209.8,120.8v56.3l48.7,28.1l0-56.3L209.8,120.8L209.8,120.8z
							"/>
						<path class="st20" d="M210.8,122.6l46.7,27l0,54l-46.7-27V122.6 M209.8,120.8v56.3l48.7,28.1l0-56.3L209.8,120.8L209.8,120.8z
							"/>
					</g>
				</g>
				<g id="XMLID_255_">
					<polygon class="st14" points="258.5,205.3 262.6,202.9 262.6,146.6 258.5,149 					"/>
					<polygon class="st24" points="258.5,205.3 262.6,202.9 262.6,146.6 258.5,149 					"/>
				</g>
				<g id="XMLID_256_">
					<polygon class="st22" points="262.6,146.6 213.8,118.5 209.8,120.8 258.5,149 					"/>
					<polygon class="st23" points="262.6,146.6 213.8,118.5 209.8,120.8 258.5,149 					"/>
				</g>
			</g>
			<g id="XMLID_605_">
				<path class="st26" d="M202.2,217.2c0.1,0.6,0.4,1.9,1,4.1c1.1,4,2.8,9.7,3.5,11.6c0,0.1,0.1,0.2,0.1,0.2l-3,4.8
					c0,0,2,2.4,7.9,4.2c5.9,1.7,13-1.8,13-1.8s1.5-7.9,1.8-10.1c0-0.1,0.1-0.3,0.1-0.6c0.1-0.5,0.1-0.9,0.2-1.3c0,0,0-0.1,0-0.1
					c0.1-0.5,0.2-1.1,0.3-1.8c0.4-1.9,1.2-4.3,3.9-5.8c0.8-0.5,18.1-7.3,20.8-8.9c2.2-1.3,2.4-2.5,2.8-3.6
					c0.4-1.1,5.6-18.4,6.2-20.1c0.6-1.7,1.2-2.3,2.6-3.7c1.4-1.5,1.8-1.8,2.3-3.1c0.4-1.3-0.1-1.6-0.3-2.3c-0.3-0.9,0-1.5-0.2-2.2
					c-0.3-0.9-0.8-1.1-0.9-1.5c-0.2-0.6,0-0.9-0.4-2c-0.1-0.4-0.6-1.1-1.4-1.4v2c-0.8,3.1-4.1,4.6-4.6,4.4c-0.4-0.2-1.1-2-2-2.7
					c-0.9-0.8-2.2-0.7-1.8,0.3c0.3,0.5,0.9,2.5,1.2,3.4c0.3,0.9,1.3,2.8,1.1,4.2c-0.3,1.9-9.2,21.6-9.2,21.6s-9.6,3.2-17.3,5.5
					c-4.8,1.5-8.7,2.4-8.7,2.4c-0.5-0.1-1.4-0.2-2.4-0.4c-0.3-0.1-0.6-0.1-0.9-0.2c-4-0.7-9.9-1.8-11.5-2.1c-0.2,0-0.3-0.1-0.4-0.1
					c-0.4,0-0.8,0-1.1,0c-1.2,0.3-2.1,1.3-2.4,2.1C202,213.5,201.8,214.8,202.2,217.2z"/>
			</g>
			<g id="XMLID_4882_">
				<path class="st28" d="M219,244.3c0,0-14.5,35.5-15.8,38.7c-1.3,3.2-2.7,4.3-4.6,5.6c-1.9,1.3-27.2,18.8-27.2,18.8
					c-3.9-1.6-4-4.1-4-4.1s13.1-16.6,15.8-19c2.7-2.4,7.9-3.6,7.9-3.6l6.4-27c0.9-4.1,0.3-8.7,6.5-15.8l0,0L219,244.3z"/>
			</g>
			<g id="XMLID_14454_">
				<path class="st28" d="M214.4,242.3c-3,4.2-5.7,7.8-6.5,12.6c-1.6,10.1,2.3,22.5,2.8,30.1c0,0-2.4,3.6-2.6,7.6
					c-0.1,3.1,2.6,31.7,2.6,31.7s2.6,1.6,5.6,1c0,0,6.1-41.4,7.3-54.8c1.2-13.5,1.2-30.2,1.2-30.2L214.4,242.3z"/>
			</g>
			<g id="XMLID_6189_">
				<path class="st12" d="M225.2,196.4c0,0,1.4-3.2-1-6.4c-2.9-3.8-8.3-5.5-14-3.5c-2.8,1-6.3,4.2-6.2,11.3
					c0.1,4.3,12.2,6.6,12.2,9.6L225.2,196.4z"/>
			</g>
			<g id="XMLID_6146_">
				<path class="st29" d="M225.6,198c0,0,1.8,2.5,1.6,2.8c-0.2,0.3-1.3,0.6-1.3,0.6L225.6,198z"/>
			</g>
			<g id="XMLID_6101_">
				<path class="st26" d="M220,190.1c1.7,0.8,4.6,2.2,5.6,8.3c1,6.2,0,8.3-0.8,9.1c-0.6,0.6-3.6,0.7-5.2,0.3c-2-0.5-6.4-2-8.5-5.2
					c-2.5-3.7-3.2-8.7-0.6-10.8C214.2,188.8,218.6,189.4,220,190.1z"/>
			</g>
			<g id="XMLID_14455_">
				<path class="st28" d="M224.8,240.3l-20.9-2.4c-1.5,2.4-5,6.5-4.3,10.5c0.9,4.8,3.5,8.2,11.4,10.5"/>
			</g>
			<g id="XMLID_556_">
				<path class="st30" d="M204.1,224.4c1.1,3.9,1.9,6.7,2.6,8.5c0,0.1,0.1,0.2,0.1,0.2l-3,4.8c0,0,2,2.4,7.9,4.2
					c5.9,1.7,13-1.8,13-1.8s1.5-7.9,1.8-10.1c0-0.1,0.1-0.3,0.1-0.6c0.1-0.4,0.1-0.8,0.2-1.3c0,0,0-0.1,0-0.1
					c0.1-0.8,0.3-1.6,0.3-1.8c-7.5-3.4-5.8-13.6-5.8-13.6c-0.5-0.1-1.4-0.2-2.4-0.4c-0.3,0-0.6-0.1-0.9-0.2c-3.5-0.6-5.9-1.1-9-1.7
					C209,210.4,202.4,218,204.1,224.4z"/>
			</g>
			<g id="XMLID_612_">
				<path class="st31" d="M206.1,231c0.1,0.2,5.8,3.4,7.6,3.9c-2.7-0.1-5-0.8-6.9-1.9L206.1,231z"/>
			</g>
			<g id="XMLID_611_">
				<path class="st12" d="M220.5,190.3c0,0,1.7,5.6,0.1,9.3c0,0-1.1-2.2-3-1.5c-1.9,0.7-1.6,3.3,0,4.5c1.6,1.2,3,0.5,3,0.5
					s-0.1,2.9-1.9,5c0,0-6.2,2.5-11.5-2.7c-4.8-4.7-4.6-13.6,2.1-16.2C216,186.7,220.5,190.3,220.5,190.3z"/>
			</g>
			<g id="XMLID_6606_">
				<path class="st32" d="M208.4,270.1l-1.7-13.8c0,0-5-1.9-7.2-4.8c0,0,1,3.5,5,6.2c0.3,0.4,3,14.5,3,14.5L208.4,270.1z"/>
			</g>
			<g id="XMLID_14448_">
				<path class="st12" d="M200.8,195.9c2.3,1,4.1-0.8,5.3-3.8c1.3-2.9,1.6-5.9-0.8-6.9c-2.3-1-5.1,0.9-6.4,3.8
					C197.7,192.1,198.5,195,200.8,195.9z"/>
			</g>
			<g id="XMLID_31_">
				<path class="st26" d="M209.8,157.6c0,0,1-0.5,1.7-1.6c0.7-1.1,1.7-1.5,2.3-1.1c0.4,0.2-0.1,1-0.4,1.6c-0.3,0.7-1.1,2.5-2,3.4
					c-0.9,0.9-1.6,1.1-1.6,2.1c0,0-0.8-0.7-0.8-2.1C209.1,158.4,209.8,157.6,209.8,157.6z"/>
			</g>
		</g>
	</g>
</g>
</svg>
