<?xml version="1.0" encoding="utf-8"?>
<!-- Generator: Adobe Illustrator 21.0.2, SVG Export Plug-In . SVG Version: 6.00 Build 0)  -->
<svg version="1.1" id="Layer_1" xmlns="http://www.w3.org/2000/svg" xmlns:xlink="http://www.w3.org/1999/xlink" x="0px" y="0px"
	 viewBox="0 0 68.8 60" style="enable-background:new 0 0 68.8 60;" xml:space="preserve">
<style type="text/css">
	.st0{fill:#094EB2;}
	.st1{fill:#093272;}
	.st2{opacity:0.3;fill:url(#SVGID_1_);}
	.st3{opacity:0.3;fill:url(#SVGID_2_);}
</style>
<g>
	<path class="st0" d="M20.8,9.2H60V8.8C60,3.9,56.1,0,51.2,0H8.8C3.9,0,0,3.9,0,8.8v36.4h39.2c3.3,0,5.9-2.6,5.9-5.9v0
		c0-3.3-2.6-5.9-5.9-5.9H20.8c-6.7,0-12-5.4-12-12v0C8.8,14.6,14.2,9.2,20.8,9.2z"/>
	<path class="st1" d="M48,50.8H8.8v0.4c0,4.8,3.9,8.8,8.8,8.8H60c4.8,0,8.8-3.9,8.8-8.8V14.9H29.6c-3.3,0-5.9,2.6-5.9,5.9v0
		c0,3.3,2.6,5.9,5.9,5.9H48c6.7,0,12,5.4,12,12v0C60,45.4,54.6,50.8,48,50.8z"/>
	<linearGradient id="SVGID_1_" gradientUnits="userSpaceOnUse" x1="3.6276" y1="7.8832" x2="47.8871" y2="7.8832">
		<stop  offset="0" style="stop-color:#FFFFFF"/>
		<stop  offset="0.7592" style="stop-color:#FFFFFF;stop-opacity:0"/>
	</linearGradient>
	<path class="st2" d="M3.7,4.2c0,0,0.9-2.2,4.8-2.6h39.4v6.1H18.5c0,0-5.3,0-10.1,6.6C8.5,14.2,3.2,8.5,3.7,4.2z"/>
	<linearGradient id="SVGID_2_" gradientUnits="userSpaceOnUse" x1="33.982" y1="39.1971" x2="45.2599" y2="39.1971">
		<stop  offset="0" style="stop-color:#FFFFFF"/>
		<stop  offset="0.7592" style="stop-color:#FFFFFF;stop-opacity:0"/>
	</linearGradient>
	<path class="st3" d="M27.3,34.8H40c1.7,0,3.1,1.4,3.1,3.1v2.6c0,1.7-1.4,3.1-3.1,3.1h0C40,43.6,30.4,37.9,27.3,34.8z"/>
</g>
</svg>
