<?xml version="1.0" encoding="utf-8"?>
<!-- Generator: Adobe Illustrator 21.0.2, SVG Export Plug-In . SVG Version: 6.00 Build 0)  -->
<svg version="1.1" id="Layer_1" xmlns="http://www.w3.org/2000/svg" xmlns:xlink="http://www.w3.org/1999/xlink" x="0px" y="0px"
	 viewBox="0 0 308.5 60" style="enable-background:new 0 0 308.5 60;" xml:space="preserve">
<style type="text/css">
	.st0{fill:#FFFFFF;}
</style>
<g>
	<g>
		<path class="st0" d="M20.8,9.2H60V8.8C60,3.9,56.1,0,51.2,0H8.8C3.9,0,0,3.9,0,8.8v36.4h39.2c3.3,0,5.9-2.6,5.9-5.9l0,0
			c0-3.3-2.6-5.9-5.9-5.9H20.8c-6.7,0-12-5.4-12-12l0,0C8.8,14.6,14.2,9.2,20.8,9.2z"/>
		<path class="st0" d="M48,50.8H8.8v0.4c0,4.8,3.9,8.8,8.8,8.8H60c4.8,0,8.8-3.9,8.8-8.8V14.9H29.6c-3.3,0-5.9,2.6-5.9,5.9l0,0
			c0,3.3,2.6,5.9,5.9,5.9H48c6.7,0,12,5.4,12,12l0,0C60,45.4,54.6,50.8,48,50.8z"/>
	</g>
	<g>
		<g>
			<path class="st0" d="M89.7,35.1c-2.3-0.7-4.1-1.5-5.5-2.6l2.4-5.4c1.3,1,2.9,1.8,4.7,2.3c1.8,0.6,3.7,0.9,5.5,0.9
				c2,0,3.5-0.3,4.5-0.9s1.5-1.4,1.5-2.4c0-0.7-0.3-1.3-0.9-1.8s-1.3-0.9-2.2-1.2c-0.9-0.3-2.1-0.6-3.6-1c-2.4-0.6-4.3-1.1-5.8-1.7
				s-2.8-1.5-3.9-2.7s-1.6-2.9-1.6-5c0-1.8,0.5-3.4,1.5-4.9s2.4-2.6,4.4-3.5s4.4-1.3,7.2-1.3c2,0,3.9,0.2,5.8,0.7s3.5,1.1,5,2
				l-2.2,5.4c-2.9-1.6-5.7-2.4-8.6-2.4c-2,0-3.5,0.3-4.4,1c-1,0.6-1.4,1.5-1.4,2.6s0.6,1.9,1.7,2.4s2.8,1,5.1,1.5
				c2.4,0.6,4.3,1.1,5.8,1.7s2.8,1.4,3.9,2.7c1.1,1.2,1.6,2.8,1.6,4.9c0,1.8-0.5,3.4-1.5,4.8c-1,1.5-2.5,2.6-4.4,3.5
				c-2,0.9-4.4,1.3-7.2,1.3C94.4,36.1,92,35.8,89.7,35.1z"/>
			<path class="st0" d="M123.4,34.1c-2.6-1.4-4.6-3.3-6.1-5.7s-2.2-5.2-2.2-8.2s0.7-5.8,2.2-8.2s3.5-4.3,6.1-5.7s5.5-2.1,8.7-2.1
				c3.2,0,6.1,0.7,8.7,2.1c2.6,1.4,4.6,3.3,6.1,5.7s2.2,5.2,2.2,8.2s-0.7,5.8-2.2,8.2s-3.5,4.3-6.1,5.7s-5.5,2.1-8.7,2.1
				C128.9,36.1,126,35.4,123.4,34.1z M137,28.8c1.5-0.8,2.6-2,3.5-3.5c0.8-1.5,1.3-3.2,1.3-5.1s-0.4-3.6-1.3-5.1
				c-0.8-1.5-2-2.7-3.5-3.5s-3.1-1.3-5-1.3c-1.8,0-3.5,0.4-5,1.3c-1.5,0.8-2.6,2-3.5,3.5c-0.8,1.5-1.3,3.2-1.3,5.1s0.4,3.6,1.3,5.1
				c0.8,1.5,2,2.7,3.5,3.5s3.1,1.3,5,1.3C133.9,30,135.5,29.6,137,28.8z"/>
			<path class="st0" d="M163.8,10.4v8.2h14.3v5.7h-14.3v11.3h-7.2V4.7H180v5.7H163.8z"/>
			<path class="st0" d="M193.7,10.5h-9.9V4.7h27v5.8h-9.9v25.1h-7.2L193.7,10.5L193.7,10.5z"/>
			<path class="st0" d="M223.7,10.5h-9.9V4.7h27v5.8h-9.9v25.1h-7.2L223.7,10.5L223.7,10.5z"/>
			<path class="st0" d="M270.8,29.9v5.7h-24V4.7h23.4v5.7h-16.3v6.7h14.4v5.6h-14.4v7.2L270.8,29.9z"/>
			<path class="st0" d="M289.9,23.5l-4.2,4.3v7.8h-7.1V4.7h7.1v14.5l13.7-14.5h8l-12.8,13.8l13.6,17.2h-8.4L289.9,23.5z"/>
		</g>
		<g>
			<path class="st0" d="M88.3,45.7h-3.9v-1h8.9v1h-3.9v10h-1.2L88.3,45.7L88.3,45.7z"/>
			<path class="st0" d="M111.7,54.8v1h-7.8V44.7h7.6v1H105v3.9h5.7v1H105v4.1L111.7,54.8L111.7,54.8z"/>
			<path class="st0" d="M124.9,55.1c-0.9-0.5-1.6-1.2-2.1-2c-0.5-0.9-0.8-1.8-0.8-2.9c0-1.1,0.2-2,0.8-2.9c0.5-0.9,1.2-1.5,2.1-2
				s1.9-0.7,3-0.7c0.8,0,1.6,0.1,2.3,0.4c0.7,0.3,1.3,0.7,1.8,1.2l-0.7,0.7c-0.9-0.9-2-1.3-3.3-1.3c-0.9,0-1.7,0.2-2.4,0.6
				c-0.7,0.4-1.3,0.9-1.7,1.6c-0.4,0.7-0.6,1.5-0.6,2.3c0,0.9,0.2,1.6,0.6,2.3s1,1.2,1.7,1.6c0.7,0.4,1.5,0.6,2.4,0.6
				c1.3,0,2.4-0.4,3.3-1.3L132,54c-0.5,0.5-1.1,0.9-1.8,1.2s-1.5,0.4-2.3,0.4C126.8,55.9,125.8,55.6,124.9,55.1z"/>
			<path class="st0" d="M152.3,44.7v11.1h-1.2v-5.1h-6.9v5.1H143V44.7h1.2v4.9h6.9v-4.9H152.3z"/>
			<path class="st0" d="M173.9,44.7v11.1h-1l-7.1-9v9h-1.2V44.7h1l7.1,9v-9H173.9z"/>
			<path class="st0" d="M188,55.1c-0.9-0.5-1.6-1.2-2.1-2c-0.5-0.9-0.8-1.8-0.8-2.9c0-1.1,0.2-2,0.8-2.9c0.5-0.9,1.2-1.5,2.1-2
				c0.9-0.5,1.9-0.7,3-0.7s2.1,0.2,3,0.7s1.6,1.2,2.1,2c0.5,0.9,0.8,1.8,0.8,2.9c0,1.1-0.3,2-0.8,2.9s-1.2,1.5-2.1,2s-1.9,0.7-3,0.7
				C189.9,55.9,188.9,55.6,188,55.1z M193.3,54.2c0.7-0.4,1.3-0.9,1.7-1.6c0.4-0.7,0.6-1.5,0.6-2.3c0-0.9-0.2-1.6-0.6-2.3
				c-0.4-0.7-1-1.2-1.7-1.6c-0.7-0.4-1.5-0.6-2.4-0.6s-1.7,0.2-2.4,0.6c-0.7,0.4-1.3,0.9-1.7,1.6c-0.4,0.7-0.6,1.5-0.6,2.3
				c0,0.9,0.2,1.6,0.6,2.3c0.4,0.7,1,1.2,1.7,1.6c0.7,0.4,1.5,0.6,2.4,0.6S192.6,54.6,193.3,54.2z"/>
			<path class="st0" d="M208.1,44.7h1.2v10h6.2v1h-7.4V44.7z"/>
			<path class="st0" d="M227.7,55.1c-0.9-0.5-1.6-1.2-2.1-2c-0.5-0.9-0.8-1.8-0.8-2.9c0-1.1,0.2-2,0.8-2.9c0.5-0.9,1.2-1.5,2.1-2
				c0.9-0.5,1.9-0.7,3-0.7s2.1,0.2,3,0.7s1.6,1.2,2.1,2c0.5,0.9,0.8,1.8,0.8,2.9c0,1.1-0.3,2-0.8,2.9s-1.2,1.5-2.1,2
				c-0.9,0.5-1.9,0.7-3,0.7C229.6,55.9,228.6,55.6,227.7,55.1z M233,54.2c0.7-0.4,1.3-0.9,1.7-1.6c0.4-0.7,0.6-1.5,0.6-2.3
				c0-0.9-0.2-1.6-0.6-2.3c-0.4-0.7-1-1.2-1.7-1.6c-0.7-0.4-1.5-0.6-2.4-0.6s-1.7,0.2-2.4,0.6c-0.7,0.4-1.3,0.9-1.7,1.6
				c-0.4,0.7-0.6,1.5-0.6,2.3c0,0.9,0.2,1.6,0.6,2.3c0.4,0.7,1,1.2,1.7,1.6c0.7,0.4,1.5,0.6,2.4,0.6S232.3,54.6,233,54.2z"/>
			<path class="st0" d="M255.5,50.2h1.1v4.2c-0.5,0.5-1.1,0.8-1.8,1s-1.4,0.4-2.2,0.4c-1.1,0-2.1-0.2-3-0.7s-1.6-1.2-2.1-2
				c-0.5-0.9-0.8-1.8-0.8-2.9c0-1.1,0.3-2,0.8-2.9s1.2-1.5,2.1-2c0.9-0.5,1.9-0.7,3-0.7c0.8,0,1.6,0.1,2.3,0.4
				c0.7,0.3,1.3,0.7,1.8,1.2L256,47c-0.9-0.9-2-1.3-3.3-1.3c-0.9,0-1.7,0.2-2.4,0.6s-1.3,0.9-1.7,1.6c-0.4,0.7-0.6,1.5-0.6,2.3
				c0,0.9,0.2,1.6,0.6,2.3c0.4,0.7,1,1.2,1.7,1.6c0.7,0.4,1.5,0.6,2.4,0.6c1.1,0,2.1-0.3,2.9-0.9L255.5,50.2L255.5,50.2z"/>
			<path class="st0" d="M268.7,44.7h1.2v11.1h-1.2V44.7z"/>
			<path class="st0" d="M289.9,54.8v1h-7.8V44.7h7.6v1h-6.4v3.9h5.7v1h-5.7v4.1L289.9,54.8L289.9,54.8z"/>
			<path class="st0" d="M302,55.5c-0.8-0.3-1.3-0.6-1.7-1l0.5-0.9c0.4,0.4,0.9,0.7,1.6,1c0.7,0.2,1.3,0.4,2.1,0.4
				c1,0,1.7-0.2,2.2-0.5c0.5-0.4,0.7-0.8,0.7-1.4c0-0.4-0.1-0.8-0.4-1.1s-0.6-0.5-1-0.6s-0.9-0.3-1.6-0.5c-0.8-0.2-1.5-0.4-2-0.6
				c-0.5-0.2-0.9-0.5-1.3-0.9s-0.5-0.9-0.5-1.6c0-0.6,0.1-1.1,0.4-1.5c0.3-0.5,0.7-0.8,1.4-1.1c0.6-0.3,1.4-0.4,2.3-0.4
				c0.6,0,1.2,0.1,1.9,0.3c0.6,0.2,1.1,0.4,1.6,0.7l-0.4,0.9c-0.5-0.3-1-0.5-1.5-0.7s-1-0.2-1.5-0.2c-1,0-1.7,0.2-2.2,0.6
				c-0.5,0.4-0.7,0.9-0.7,1.4c0,0.4,0.1,0.8,0.4,1.1s0.6,0.5,1,0.6s0.9,0.3,1.6,0.5c0.8,0.2,1.5,0.4,2,0.6c0.5,0.2,0.9,0.5,1.3,0.9
				c0.3,0.4,0.5,0.9,0.5,1.6c0,0.6-0.2,1.1-0.5,1.5c-0.3,0.5-0.8,0.8-1.4,1.1s-1.4,0.4-2.3,0.4C303.6,55.9,302.8,55.7,302,55.5z"/>
		</g>
	</g>
</g>
</svg>
