<?xml version="1.0" encoding="utf-8"?>
<!-- Generator: Adobe Illustrator 21.0.2, SVG Export Plug-In . SVG Version: 6.00 Build 0)  -->
<svg version="1.1" id="Isolation_Mode" xmlns="http://www.w3.org/2000/svg" xmlns:xlink="http://www.w3.org/1999/xlink" x="0px"
	 y="0px" viewBox="0 0 745.3 345.7" style="enable-background:new 0 0 745.3 345.7;" xml:space="preserve">
<style type="text/css">
	.st0{fill:#D1A586;}
	.st1{fill:#E5BD9E;}
	.st2{fill:#DFB697;}
	.st3{fill:#A0795F;}
	.st4{fill:#FFB27D;}
	.st5{fill:#1C468A;}
	.st6{fill:#C65447;}
	.st7{fill:#163560;}
	.st8{fill:#6BB7BF;}
	.st9{fill:#F4A269;}
	.st10{fill:#599DAD;}
	.st11{fill:#C69D7F;}
	.st12{fill:#E0B594;}
	.st13{fill:#D86713;}
	.st14{fill:#F1A34F;}
	.st15{fill:#E78B37;}
	.st16{fill:#EE9849;}
	.st17{fill:#699DEE;}
	.st18{fill:#E9F3FE;}
	.st19{fill:#AFCDFB;}
	.st20{fill:#E49963;}
	.st21{fill:#E58638;}
</style>
<g>
	<g>
		<g>
			<path class="st0" d="M107.2,192.4c-0.9-22-2.9-41-5.2-54.4c-3.7-21.2-7.1-33.4-7.1-33.6c-0.5-1.9-7.6-9.4-23.3-9.2
				c-15.7,0.2-14.3,10.1-14.3,10.1l0,0c0,0.3,0,0.6,0.1,0.9c0.2,0.5,14.6,52.2,14,119c0,0.9-0.1,2.6,0,3.6c0,0,36.5,0.9,36.5,0
				C109.2,223.1,108.6,206.9,107.2,192.4z"/>
			<path class="st1" d="M111.8,225c0,0.9-0.5,1.7-1.1,1.7h0c-0.6,0-1.1-0.8-1.1-1.7H78.3c0,0.9-0.5,1.7-1.1,1.7h0
				c-0.6,0-1.1-0.8-1.1-1.7c0.2-19.1-0.9-37-2.6-52.7c-4.2-39.3-11.8-65.5-12-65.9c-0.1-0.2-0.1-0.5-0.1-0.9c0,0-1.5-9.9,14.3-10.1
				c15.8-0.2,22.8,7.3,23.3,9.2c0,0.1,1.9,7,4.4,19.4c0.8,4.1,1.7,8.8,2.7,14.1c2.3,13.3,4.3,32.4,5.2,54.4
				C112.6,206.9,113.1,219.1,111.8,225z"/>
			<path class="st2" d="M111.8,225c0,0.9-0.5,1.7-1.1,1.7h0c-0.6,0-1.1-0.8-1.1-1.7H78.3c0,0.9-0.5,1.7-1.1,1.7h0
				c-0.6,0-1.1-0.8-1.1-1.7c0.2-19.1-0.9-37-2.6-52.7c5.2-24.9,25.2-44,30-48.3c0.8,4.1,1.7,8.8,2.7,14.1
				c2.3,13.3,4.3,32.4,5.2,54.4C112.6,206.9,113.1,219.1,111.8,225z"/>
			<g>
				<path class="st0" d="M80.2,224.6l-0.1-0.1l0-0.1c0,0,0-0.1,0-0.1c0-0.6-0.9-39.9-3.1-58.7c-1.3-11.2-9.4-57.8-9.5-58
					c-0.1-0.2-0.1-0.4-0.1-0.7c0-0.1-0.3-2.4,1.4-4.5c1.8-2.1,4.9-3.2,9.3-3.2c0.2,0,0.4,0,0.5,0c11.4,0,16.6,5.5,17,7
					c0.1,0.3,9.1,36.3,10.6,56.6c0.1,1.9,0.5,5.1,0.9,9.1c2.4,23.9,4.6,49.3,1.3,49.9c-5.2,0.9-10.5,1-14.4,1c-1.3,0-2.6,0-3.8,0
					c-1.1,0-2.1,0-3,0c-4.2,0-6.8,0.3-6.8,1.5c0,0,0,0,0,0.1l0,0C80.5,224.5,80.4,224.6,80.2,224.6L80.2,224.6z M78.8,99.6
					c-0.2,0-0.3,0-0.5,0c-4.3,0.1-7.4,1.1-9.1,3.1c-1.7,2-1.4,4.2-1.4,4.2c0,0.2,0,0.5,0.1,0.6c0,0.1,8.1,46.6,9.5,58
					c2.1,17.3,2.9,52.2,3.1,57.9c0.8-0.9,3.2-1,6.8-1c0.9,0,1.9,0,3,0c1.2,0,2.5,0,3.8,0h0c4,0,9.2-0.1,14.4-1
					c3.3-0.6,0-33.6-1.6-49.5c-0.4-4.1-0.7-7.3-0.9-9.2c-1.6-20.3-10.5-56.2-10.6-56.5C95,104.9,89.9,99.6,78.8,99.6z"/>
			</g>
			<path class="st1" d="M73.8,226.6h122.6c0,0-2.9-11.4-73.9-9.7C72.3,218.1,73.8,226.6,73.8,226.6z"/>
			<g>
				<path class="st0" d="M63.8,345.7c14.2-71,10.6-114.5,10.5-115.1c0-1.1,2-2.1,3.1-2.1c1.1,0,6-0.3,6.6,0.6
					c0.7,1.2,3.6,54.9-17.6,116.6H63.8z"/>
			</g>
			<g>
				<path class="st0" d="M178.3,345.7c-14.2-71-10.6-114.5-10.5-115.1c0-1.1-2-2.1-3.1-2.1c-1.1,0-6-0.3-6.6,0.6
					c-0.7,1.2-3.6,54.9,17.6,116.6H178.3z"/>
			</g>
			<g>
				<path class="st3" d="M201,345.7c-14.2-71-10.6-114.5-10.5-115.1c0-1.1-2-2.1-3.1-2.1c-1.1,0-6-0.3-6.6,0.6
					c-0.7,1.2-3.6,54.9,17.6,116.6H201z"/>
			</g>
			<g>
				<path class="st3" d="M86.6,345.7c14.2-71,10.6-114.5,10.5-115.1c0-1.1,2-2.1,3.1-2.1c1.1,0,6-0.3,6.6,0.6
					c0.7,1.2,3.6,54.9-17.6,116.6H86.6z"/>
			</g>
			<path class="st0" d="M196.5,230.3H73.8c-1.4,0-2.5-1.1-2.5-2.5v-1.6c0-1.4,1.1-2.5,2.5-2.5h122.6c1.4,0,2.5,1.1,2.5,2.5v1.6
				C199,229.2,197.9,230.3,196.5,230.3z"/>
		</g>
		<g>
			<path class="st4" d="M171.2,149.1c0,0,22.4,25.6,27,25.2c4.7-0.4,7.5-1.9,11.6,0c2.9,1.4,12.2,8.8,9.7,8.3
				c-2.5-0.5-7-1.1-8.2-1.2c-1.6-0.2-4.3-0.2-6-0.5c-1.1-0.2-5.2-0.3-6.6-0.4c-5.9-0.2-33.8-16.5-33.8-16.5L171.2,149.1z"/>
			<path class="st5" d="M155.6,19.1c0,0-1-12.9-19.5-9.5c-4.9,0.9-8.3-7.8-16.3-4.7c-17.2,6.7-18.2-2.1-23.2,10.3
				c-2.1,5.2-15.3,11.2-11.3,20.2c4,9-2.7,15,2,22c2.5,3.6,1.5,10.1,13.1,10.4c5.8,0.1,14.8,10.8,21.3,12.8c6.5,1.9,26-0.9,25.3-9.8
				c-0.6-7,7.5-6.4,12.5-14.4c4.4-7-3.4-8.7,0.7-20C163.3,28,155.4,26,155.6,19.1z"/>
			<g>
				<path class="st4" d="M257.3,335.4c-0.4,4.3,5.6,5.3,12.5,5.7c6.9,0.3,4.8,1.8,14.3,3.5c9.5,1.7,13.3-0.9,14-2.2
					c0.6-1.1-3.8-2.9-8.5-4.9c-0.6-0.3-1.2-0.5-1.8-0.8c-5.3-2.3-8.3-7.1-12.4-11.5c-3.9-4.2-7.6-17.5-7.6-17.5l-12.9-2.8
					c0,0,3.6,12,4.9,17.2c0.7,3-0.4,6.4-1.3,9C258,332.5,257.4,333.9,257.3,335.4z"/>
				<path class="st6" d="M269.8,341.1c6.9,0.3,4.8,1.8,14.3,3.5c9.5,1.7,13.3-0.9,14-2.2c0.6-1.1-3.8-2.9-8.5-4.9l-0.1,0.1
					c0,0-6.7,2.3-14.4,0.2c-6.3-1.7-12.4-5.5-16.7-6.7c-0.5,1.4-1.1,2.8-1.2,4.3C256.9,339.7,262.9,340.8,269.8,341.1z"/>
			</g>
			<path class="st7" d="M128.7,182.3c0,0,85.8-6.5,102,3.7c16.2,10.2,42.1,129,42.1,129s-1.6,1.3-5.2,1.7
				c-3.3,0.4-10.6-1.6-10.6-1.6s-37.2-53.1-39.9-66.5c-2.6-13.4-2-25.3-8-25.7c-6-0.3-80.4,9.1-91.7-10.8s-2-39.5-2-39.5
				L128.7,182.3z"/>
			<g>
				<path class="st4" d="M227.8,335.9c-0.4,4.3,5.6,5.3,12.5,5.7c6.9,0.3,4.8,1.8,14.3,3.5c9.5,1.7,13.3-0.9,14-2.2
					c0.6-1.1-3.8-2.9-8.5-4.9c-0.6-0.3-1.2-0.5-1.8-0.8c-5.3-2.3-8.3-7.1-12.4-11.5c-3.9-4.2-7.6-17.5-7.6-17.5l-12.9-2.8
					c0,0,3.6,12,4.9,17.2c0.7,3-0.4,6.4-1.3,9C228.4,333,227.9,334.4,227.8,335.9z"/>
				<path class="st6" d="M240.3,341.6c6.9,0.3,4.8,1.8,14.3,3.5c9.5,1.7,13.3-0.9,14-2.2c0.6-1.1-3.8-2.9-8.5-4.9l-0.1,0.1
					c0,0-6.7,2.3-14.4,0.2c-6.3-1.7-12.4-5.5-16.7-6.7c-0.5,1.4-1.1,2.8-1.2,4.3C227.4,340.2,233.4,341.3,240.3,341.6z"/>
			</g>
			<path class="st5" d="M115.2,174.3c0,0,76.2,3.6,92,14.4c15.7,10.8,37,130.5,37,130.5s-1.6,1.2-5.2,1.5c-3.3,0.2-10.6-2-10.6-2
				s-35.1-54.6-37.2-68c-2.1-13.5-1-25.4-7-25.9c-6-0.6-80.7,5.9-91.2-14.4C82.5,190.1,115.2,174.3,115.2,174.3z"/>
			<path class="st4" d="M92.4,76.9c0,0,0.1-0.1,0.1-0.1c0.6-0.7,1.3-1.3,2.1-1.9l0,0c0,0,0,0,0,0c6.2-4.4,17.4-5.3,17.4-5.3v0l0,0
				c0,0,0,0,0,0c0,0,1.2-0.1,3.1-0.2c1.5-3.8,3.1-9.4,3.6-17.6l1.1,0.3l18.5,5c0,0-0.8,5.9-1.2,11.5c-0.1,1.2-0.1,2.4-0.2,3.5
				c0.5,0.2,1,0.4,1.5,0.6h0v0c0,0,10.6,1.3,13.1,3.9c2.5,2.7,7.5,20.7,8.8,23.8L89,101.7C89,101.7,87.2,83,92.4,76.9z"/>
			<path class="st8" d="M181,149.3c-0.4,0.5-1.5,2.4-3.1,4.8c-0.5,0.7-1,1.4-1.5,2.2c-2.3,3.1-5.1,6.4-8.1,7.6
				c-1.1,0.4-2.2,0.6-3.4,0.3c-1.7-0.4-4.3-2.3-7-4.8c-2.2-2.1-4.4-4.6-6.1-7.1c-0.7-1-1.2-2-1.7-2.9c-0.1,0.8-0.2,1.5-0.3,2.2v0
				c-0.4,3.7-0.5,6.7,0.2,8c0.8,1.7,3.3,3.4,6.1,5.1c5.7,3.3,12.7,6.5,10.3,9.3c-2,2.4-8.3,3.1-15,4.3c-5.3,0.9-10.8,2-14.8,4.3
				c-0.2,0.1-0.3,0.2-0.5,0.3c-9.5,5.6-38,22.8-46.5,22c-3.3-0.3-2.7-6.7-0.7-15.1c3.2-13.3,9.8-31.9,9.8-39.9
				c0-4.4-9.9-47.9-9.9-47.9S87.2,83,92.4,76.9l2.2-2l0,0c0,0,0,0,0,0c0.3,0.2,21.9,12.3,34.5,13c12.7,0.7,22.5-11.3,22.5-11.3
				c2.5,2.7,7.5,20.7,8.8,23.8c0,0,10.2,40.4,12.9,42.5C175.9,145.1,182.2,147.9,181,149.3z"/>
			<path class="st9" d="M138.4,57.1c0,0-0.8,5.9-1.2,11.5c-10.5-1-15.4-11-17.3-16.4L138.4,57.1z"/>
			<path class="st4" d="M141.6,62.6c0,0-24.9-1.2-23.9-16.8c1-15.5-1.5-26.1,14.4-26c16,0.1,18.7,6.3,19.6,11.5
				C152.6,36.7,148.1,62.6,141.6,62.6z"/>
			<path class="st5" d="M142.6,25.4c0,0-6-1.4-7.9,1.5c-1.9,2.9-0.6,4.5-4.9,5.7c-4.3,1.2-5.8,1.1-5.4,4.2c0.4,3-4.4,5.3-4.6,7.7
				c-0.2,2.4-2.2,3.6-4.1,3.8c-1.9,0.2-1-31.4,6.3-32.8c7.4-1.4,14.5,0.3,16.7,2C141,19.4,142.6,25.4,142.6,25.4z"/>
			<path class="st5" d="M142.6,25.4c0,0,5.8-0.4,6.8,2.9c1,3.3-0.3,4.1,1.1,6.1c1.5,2,0.6,5.5,0.6,5.5s11.5-21.1-0.6-22.5
				C138.5,16.1,138.8,18.5,142.6,25.4z"/>
			<path class="st10" d="M177.9,154c-0.5,0.7-1,1.4-1.5,2.2c-2.3,3.1-5.1,6.4-8.1,7.6c-1.1,0.4-2.2,0.6-3.4,0.3
				c-1.7-0.4-4.3-2.3-7-4.8c-2.2-2.1-4.4-4.6-6.1-7.1c-0.7-1-1.2-2-1.7-2.9c-0.1,0.8-0.2,1.5-0.3,2.2v-3.5c0,0,1.4-61.8,3.5-34.6
				C155,133.2,170,147.7,177.9,154z"/>
			<path class="st10" d="M102.4,111.5c0,0-30.6,52.7,33.8,71.1c0.2-0.1,0.3-0.2,0.5-0.3c4-2.3,9.5-3.4,14.8-4.3
				c6.7-1.1,13-1.8,15-4.3c2.4-2.9-4.7-6-10.3-9.3c-2.9-1.7-8.8-3.3-9.6-5C146,158.2,102.4,111.5,102.4,111.5z"/>
		</g>
	</g>
	<g>
		<g>
			<path class="st11" d="M61.9,170.2L57,198v0l-13.6,77l-12.1,68.8c-0.2,1-1.1,1.8-2.2,1.8c-1,0-1.7-0.8-1.6-1.7l10.5-78l11.2-83.4
				l1.7-12.6L61.9,170.2z"/>
		</g>
		<path class="st3" d="M57,198c0.6-12-7.8-15.6-7.8-15.6l1.7-12.6l11.1,0.3L57,198z"/>
		<g>
			<g>
				<path class="st11" d="M725.2,345.6c-1.1,0-2-0.8-2.2-1.8l-10.8-61.1l-15.5-87.9l-4.3-24.6l11.1-0.3l1.9,14.3l13.5,100.3l8,59.5
					C726.9,344.8,726.1,345.6,725.2,345.6z"/>
			</g>
			<path class="st3" d="M705.3,184.1c-7.2,3.2-8.6,10.6-8.6,10.6l-4.3-24.6l11.1-0.3L705.3,184.1z"/>
		</g>
		<path class="st12" d="M735.6,179.8H9.7c-5.3,0-9.7-4.3-9.7-9.7l0,0c0-5.3,4.3-9.7,9.7-9.7h725.9c5.3,0,9.7,4.3,9.7,9.7l0,0
			C745.3,175.5,740.9,179.8,735.6,179.8z"/>
	</g>
	<g>
		<polygon class="st13" points="314.1,131.4 162.4,131.4 176.5,16.7 328.2,16.7 		"/>
		<g>
			<polygon class="st14" points="331.3,16.7 317.2,131.3 165.6,131.3 168.8,105.2 179.7,16.7 			"/>
			<path class="st15" d="M331.3,16.7l-14.1,114.6H165.6l3.2-26.1c125.2,7.5,129.3-71.5,128.7-88.5H331.3z"/>
			<path class="st13" d="M260,66.2c-0.4-3.6-2.3-7.3-5.9-7.7l-6.4,0.1c-3.8-0.5-7.3,2.5-7.4,6.3l-2.8,86.4c-0.1,2.8-2.4,5.1-5.3,5.1
				h-15.7c-1,0-1.9,0.6-2.1,1.5c-0.4,1.4,0.7,2.7,2,2.7h49.3c0.1,0,0.2,0,0.3,0l0.6,0c1.5,0,2.7-1.3,2.5-2.8L260,66.2z"/>
			<path class="st14" d="M263.5,66.2c-0.4-3.6-2.3-7.3-5.9-7.7l-6.4,0.1c-3.8-0.5-7.3,2.5-7.4,6.3l-2.8,86.4
				c-0.1,2.8-2.4,5.1-5.3,5.1h-15.7c-1,0-1.9,0.6-2.1,1.5c-0.4,1.4,0.7,2.7,2,2.7h49.3c0.1,0,0.2,0,0.3,0l0.6,0
				c1.5,0,2.7-1.3,2.5-2.8L263.5,66.2z"/>
		</g>
	</g>
	<g>
		<g>
			<path class="st13" d="M434.5,54.4l-8.4,100c0,0-0.9,6.1,3.6,6.1c7.4,0,36.9,0,36.9,0s-5.6-1.3-5.5-4.1
				c0.1-3.3,9.8-102.9,9.8-102.9L434.5,54.4z"/>
			<path class="st16" d="M469,158.7c-1.5,0-29.6,0.1-36.8,0c-3.1,0-3.7-2.8-3.7-4.6c0-0.9,0.1-1.5,0.1-1.5l0.2-2.6l0.6-6.6l0.5-5.9
				l0.6-7.5l0.5-6.3l6-71.1l36.4-0.9c0,0-4.1,41.7-7,72c-0.3,3.4-0.6,6.6-0.9,9.6c-0.1,1-0.2,1.9-0.3,2.8c-0.3,2.9-0.5,5.5-0.7,7.8
				c-0.1,1.2-0.2,2.4-0.3,3.4c-0.4,4.1-0.6,6.7-0.6,7.2c0,0.3,0,0.6,0.1,0.8C464.2,158.6,468.5,158.7,469,158.7z"/>
			<polygon class="st14" points="346,0 366.5,82.3 369.3,93.6 378.9,131.9 556.1,131.9 520.9,0 			"/>
			<polygon class="st16" points="346,0 343.2,0.9 375.1,134.7 378.9,131.9 			"/>
			<polygon class="st13" points="375.1,134.7 551.2,134.7 556.1,131.9 378.9,131.9 			"/>
			
				<rect x="436.9" y="158.7" transform="matrix(-1 -1.224647e-16 1.224647e-16 -1 912.024 319.2285)" class="st14" width="38.1" height="1.8"/>
			<polygon class="st14" points="547.5,107.6 518.8,1.7 345.7,1.7 345.7,0 520.9,0 549.6,107.3 			"/>
			<polygon class="st13" points="465.4,134.7 465.2,136.1 429.3,143.4 429.8,137.5 430,134.7 			"/>
			<path class="st15" d="M469,158.7c-1.5,0-29.6,0.1-36.8,0c-3.1,0-3.7-2.8-3.7-4.6l35.7-6.7c-0.4,4.1-0.6,6.7-0.6,7.2
				c0,0.3,0,0.6,0.1,0.8C464.2,158.6,468.5,158.7,469,158.7z"/>
			<polygon class="st15" points="456.7,105.2 378.9,131.9 369.3,93.6 			"/>
			<polygon class="st17" points="346,0 520.9,0 549.3,106 371.5,106 			"/>
		</g>
		<path class="st13" d="M472.2,119.4c-0.5-2.6-3-4.7-5.6-4.7c-2.6,0-4.3,2.1-3.8,4.7c0.5,2.6,3,4.7,5.6,4.7
			C471,124.1,472.7,122,472.2,119.4z"/>
		<polygon class="st18" points="541.1,101.4 377.3,101.4 358.7,27.5 357.3,21.8 356.1,17 353.3,5.7 514.7,5.7 517.8,17 519.1,21.8 
			520.7,27.5 		"/>
		<polygon class="st19" points="517.8,17 356.1,17 353.3,5.7 514.7,5.7 		"/>
		<g>
			<path class="st18" d="M359.9,10.8c-0.2-0.8,0.3-1.4,1.1-1.4c0.8,0,1.6,0.6,1.8,1.4c0.2,0.8-0.3,1.4-1.1,1.4
				S360.1,11.6,359.9,10.8z"/>
			<path class="st18" d="M364.7,10.8c-0.2-0.8,0.3-1.4,1.1-1.4c0.8,0,1.6,0.6,1.8,1.4c0.2,0.8-0.3,1.4-1.1,1.4
				C365.6,12.2,364.8,11.6,364.7,10.8z"/>
			<path class="st18" d="M369.7,10.8c-0.2-0.8,0.3-1.4,1.1-1.4c0.8,0,1.6,0.6,1.8,1.4c0.2,0.8-0.3,1.4-1.1,1.4
				C370.7,12.2,369.9,11.6,369.7,10.8z"/>
		</g>
		<g>
			<path class="st19" d="M399.6,42.5h-24.7c-0.8,0-1.5-0.6-1.7-1.4l0,0c-0.2-0.8,0.3-1.4,1-1.4h24.7c0.8,0,1.5,0.6,1.7,1.4l0,0
				C400.8,41.9,400.4,42.5,399.6,42.5z"/>
			<path class="st19" d="M400.9,47.8h-24.7c-0.8,0-1.5-0.6-1.7-1.4l0,0c-0.2-0.8,0.3-1.4,1-1.4h24.7c0.8,0,1.5,0.6,1.7,1.4l0,0
				C402.1,47.1,401.7,47.8,400.9,47.8z"/>
			<path class="st19" d="M402.2,53h-24.7c-0.8,0-1.5-0.6-1.7-1.4l0,0c-0.2-0.8,0.3-1.4,1-1.4h24.7c0.8,0,1.5,0.6,1.7,1.4l0,0
				C403.5,52.4,403,53,402.2,53z"/>
		</g>
		<g>
			<path class="st19" d="M443.7,42.5H419c-0.8,0-1.5-0.6-1.7-1.4l0,0c-0.2-0.8,0.3-1.4,1-1.4h24.7c0.8,0,1.5,0.6,1.7,1.4l0,0
				C445,41.9,444.5,42.5,443.7,42.5z"/>
			<path class="st19" d="M445.1,47.8h-24.7c-0.8,0-1.5-0.6-1.7-1.4l0,0c-0.2-0.8,0.3-1.4,1-1.4h24.7c0.8,0,1.5,0.6,1.7,1.4l0,0
				C446.3,47.1,445.8,47.8,445.1,47.8z"/>
			<path class="st19" d="M446.4,53h-24.7c-0.8,0-1.5-0.6-1.7-1.4l0,0c-0.2-0.8,0.3-1.4,1-1.4h24.7c0.8,0,1.5,0.6,1.7,1.4l0,0
				C447.6,52.4,447.1,53,446.4,53z"/>
		</g>
		<g>
			<path class="st19" d="M486.2,42.5h-24.7c-0.8,0-1.5-0.6-1.7-1.4l0,0c-0.2-0.8,0.3-1.4,1-1.4h24.7c0.8,0,1.5,0.6,1.7,1.4l0,0
				C487.4,41.9,487,42.5,486.2,42.5z"/>
			<path class="st19" d="M487.5,47.8h-24.7c-0.8,0-1.5-0.6-1.7-1.4l0,0c-0.2-0.8,0.3-1.4,1-1.4h24.7c0.8,0,1.5,0.6,1.7,1.4l0,0
				C488.8,47.1,488.3,47.8,487.5,47.8z"/>
			<path class="st19" d="M488.8,53h-24.7c-0.8,0-1.5-0.6-1.7-1.4l0,0c-0.2-0.8,0.3-1.4,1-1.4h24.7c0.8,0,1.5,0.6,1.7,1.4l0,0
				C490.1,52.4,489.6,53,488.8,53z"/>
		</g>
		<g>
			<g>
				<g>
					<path class="st19" d="M509.1,24.6l1.2,4.9c0.2,0.9-0.3,1.6-1.2,1.6H369.4c-0.9,0-1.8-0.7-2-1.6l-1.2-4.9
						c-0.2-0.9,0.3-1.6,1.2-1.6H507C507.9,22.9,508.8,23.7,509.1,24.6z"/>
					<path class="st14" d="M466.4,22.9l2,8.1h-99c-0.9,0-1.8-0.7-2-1.6l-1.2-4.9c-0.2-0.9,0.3-1.6,1.2-1.6H466.4z"/>
				</g>
				<g>
					<path class="st17" d="M485.8,26.1h-1.5l-0.2-0.6h2.4l0.1,0.5l-0.8,2.7H485L485.8,26.1z"/>
					<path class="st17" d="M487.3,27.2c-0.2-1,0.2-1.7,1-1.7c0.9,0,1.6,0.7,1.9,1.7c0.2,1-0.2,1.7-1,1.7
						C488.3,28.9,487.6,28.1,487.3,27.2z M489.5,27.2c-0.1-0.6-0.6-1-1-1s-0.6,0.4-0.5,1c0.1,0.6,0.5,1,1,1
						C489.5,28.2,489.7,27.8,489.5,27.2z"/>
					<path class="st17" d="M490.5,26.3c-0.1-0.5,0.1-0.8,0.6-0.8c0.5,0,0.9,0.4,1,0.8c0.1,0.5-0.1,0.8-0.6,0.8
						C491,27.2,490.6,26.8,490.5,26.3z M493,25.5h0.6l-1.6,3.3h-0.6L493,25.5z M491.6,26.3c-0.1-0.2-0.2-0.4-0.4-0.4
						c-0.2,0-0.3,0.2-0.2,0.4c0.1,0.2,0.2,0.4,0.4,0.4C491.6,26.7,491.7,26.5,491.6,26.3z M493,28c-0.1-0.5,0.1-0.8,0.6-0.8
						c0.5,0,0.9,0.4,1,0.8c0.1,0.5-0.1,0.8-0.6,0.8C493.5,28.8,493.1,28.5,493,28z M494.1,28c-0.1-0.2-0.2-0.4-0.4-0.4
						c-0.2,0-0.3,0.2-0.2,0.4c0.1,0.2,0.2,0.4,0.4,0.4C494.1,28.4,494.1,28.2,494.1,28z"/>
				</g>
			</g>
			<g>
				<path class="st19" d="M454.8,91.5h-12.4c-1.7,0-3.5-1.4-3.9-3.1l-6-24c-0.4-1.7,0.6-3.1,2.4-3.1h12.4c1.7,0,3.5,1.4,3.9,3.1
					l6,24C457.6,90.1,456.5,91.5,454.8,91.5z"/>
				<path class="st19" d="M476.2,91.5h-12.4c-1.7,0-3.5-1.4-3.9-3.1l-6-24c-0.4-1.7,0.6-3.1,2.4-3.1h12.4c1.7,0,3.5,1.4,3.9,3.1
					l6,24C479,90.1,477.9,91.5,476.2,91.5z"/>
				<path class="st19" d="M497.2,91.5h-12.4c-1.7,0-3.5-1.4-3.9-3.1l-6-24c-0.4-1.7,0.6-3.1,2.4-3.1h12.4c1.7,0,3.5,1.4,3.9,3.1
					l6,24C500,90.1,499,91.5,497.2,91.5z"/>
				<g>
					<path class="st19" d="M430.3,91.5h-41.9c-2.9,0-5.9-2.4-6.6-5.3l-4.9-19.8c-0.7-2.9,1-5.3,4-5.3h41.9c2.9,0,5.9,2.4,6.6,5.3
						l4.9,19.8C435,89.2,433.2,91.5,430.3,91.5z"/>
					<path class="st17" d="M422.2,68.8H383c-0.7,0-1.3-0.5-1.5-1.2l0,0c-0.2-0.7,0.2-1.2,0.9-1.2h39.2c0.7,0,1.3,0.5,1.5,1.2l0,0
						C423.3,68.3,422.9,68.8,422.2,68.8z"/>
					<path class="st17" d="M423.4,73.4h-39.2c-0.7,0-1.3-0.5-1.5-1.2l0,0c-0.2-0.7,0.2-1.2,0.9-1.2h39.2c0.7,0,1.3,0.5,1.5,1.2l0,0
						C424.4,72.9,424,73.4,423.4,73.4z"/>
					<path class="st17" d="M424.5,78.1h-39.2c-0.7,0-1.3-0.5-1.5-1.2l0,0c-0.2-0.7,0.2-1.2,0.9-1.2h39.2c0.7,0,1.3,0.5,1.5,1.2l0,0
						C425.6,77.5,425.2,78.1,424.5,78.1z"/>
					<path class="st17" d="M395.9,83.2h-9.2c-0.7,0-1.3-0.5-1.5-1.2l0,0c-0.2-0.7,0.2-1.2,0.9-1.2h9.2c0.7,0,1.3,0.5,1.5,1.2l0,0
						C396.9,82.7,396.5,83.2,395.9,83.2z"/>
				</g>
			</g>
		</g>
	</g>
	<g>
		<path class="st7" d="M570.2,216.8c0,0-22.1,11-23.4,22.9c-1.3,11.9,3.5,84.1,3.5,84.1s23.2,4.4,27.3,0.1c0,0,5.8-77.2,4.8-80.7
			c-1-3.5,63.7-22.5,69.5-22.4C657.5,220.9,570.2,216.8,570.2,216.8z"/>
		<path class="st7" d="M575.8,323.5c0,0-1.4,21.8-5.6,22.1c-0.6,0-21.4,0-21.4,0l-26.6-0.2c0,0,0.2-6.4,7.9-7.8
			c7.8-1.4,20.8-6.8,25.5-17.1C560.6,309.9,575.8,323.5,575.8,323.5z"/>
	</g>
	<g>
		<path class="st7" d="M501.2,323.5c0,0-1.4,21.8-5.6,22.1c-0.6,0-21.4,0-21.4,0l-26.6-0.2c0,0,0.2-6.4,7.9-7.8
			c7.8-1.4,20.8-6.8,25.5-17.1C486,309.9,501.2,323.5,501.2,323.5z"/>
		<path class="st5" d="M663.4,178l-0.4,0.1c-0.5-2.1-1.8-3.9-4.1-5.2c-16.4-9.3-47.7-3-47.7-3S510.4,186.3,501,199.6
			c-9.3,13.3-23.9,126.3-23.9,126.3s17.6,4.6,24.9,1.9c0,0,34.7-89.6,37.6-99.3c2.4-8.4,50.4-2.3,74.5-4c14.5-0.5,37.2-1.5,43.3-3.6
			C666.8,217.7,663.4,178,663.4,178z"/>
	</g>
	<g>
		<path class="st20" d="M627.6,56.9l-8.4,10.4l-15.9,0.8c-0.2-1.5-0.7-8.1-1.2-13.7c-0.4-4.6-0.7-8.5-0.7-8.5l16.7-14.7
			c0,0.1,0.9,5,1,5.7C621.5,49.5,627.6,56.9,627.6,56.9z"/>
		<path class="st21" d="M599.8,53c0.3-0.1,21.4-5.2,23.6-4.3c2.2,0.9,3.3,5.3,3.3,5.3l-34.4,5.9C592.4,59.9,595.4,54.6,599.8,53z"/>
		<path class="st20" d="M597.1,47.4c0,0,22.5,1,22.9-13c0.4-14,3.6-23.3-10.7-24.6c-14.3-1.2-17.3,4-18.6,8.7
			C589.4,23.2,591.3,46.8,597.1,47.4z"/>
		<path class="st7" d="M591.2,17c0,0,5.3,14.8,8.3,13.3c3-1.5,5.7-2.7,6.4,2c0.7,4.7-2.2,11.1,7.6,9.4c9.9-1.7,17.2-30.2,13.3-34.2
			C615.6-4.1,575.8,3.4,591.2,17z"/>
		<path class="st16" d="M663.4,178c-5.7,6.7-53.9,5-68.1-0.7c-1.1-0.4-1.9-0.9-2.5-1.3c-8.3-6.7,10.4-12.5-10.5-63.2c0,0,0,0,0-0.1
			c-15-36.4,0.9-48.2,11-54.1c0,0,28.7-8.8,44.8-3.9C658.9,61.3,669.5,170.8,663.4,178z"/>
		<path class="st21" d="M612.6,153.1c-1,6.9-6.5,23.9-17.3,24.2c-1.1-0.4-1.9-0.9-2.5-1.3c-8.3-6.7,10.4-12.5-10.5-63.2
			c0,0,0,0,0-0.1c3.5-2.4,9.2-5.1,12.9-1C600.8,118.2,613.6,146,612.6,153.1z"/>
		<path class="st20" d="M510.5,153c0,0-9.1-5.2-12-5.7c-2.9-0.4-16.8,11.3-14.7,12.2c2,0.9,12.5-3.5,14-2.6c1.5,0.9,2.7,3.4,4.3,3.5
			c1.7,0,7.2,0,7.2,0L510.5,153z"/>
		<path class="st16" d="M593.2,58.6c0,0-19.8,10.3-22.4,20.1c-2.6,9.8-12.1,57-15.8,60.3c-3.7,3.3-45.8,11-45.8,11
			s-4.9,5.5-3.4,10.5h65.9c0,0,29.7-42.9,27.6-59.1C597.1,85.2,593.2,58.6,593.2,58.6z"/>
	</g>
	<g>
		<path class="st1" d="M680.4,222.5H543.6c0,0,3.2-11.8,82.4-10C682.1,213.7,680.4,222.5,680.4,222.5z"/>
		<g>
			<path class="st0" d="M691.6,345.7c-15.9-73.4-11.8-118.5-11.8-119.1c0-1.1-2.2-2.2-3.5-2.2c-1.2,0-6.7-0.3-7.3,0.6
				c-0.8,1.3-4,56.8,19.6,120.6H691.6z"/>
		</g>
		<g>
			<path class="st0" d="M563.8,345.7c15.9-73.4,11.8-118.5,11.8-119.1c0-1.1,2.2-2.2,3.5-2.2c1.2,0,6.7-0.3,7.4,0.6
				c0.8,1.3,4,56.8-19.6,120.6H563.8z"/>
		</g>
		<g>
			<path class="st3" d="M538.5,345.7c15.9-73.4,11.8-118.5,11.8-119.1c0-1.1,2.2-2.2,3.5-2.2c1.2,0,6.7-0.3,7.4,0.6
				c0.8,1.3,4,56.8-19.6,120.6H538.5z"/>
		</g>
		<g>
			<path class="st3" d="M666.1,345.7c-15.9-73.4-11.8-118.5-11.8-119.1c0-1.1-2.2-2.2-3.5-2.2c-1.2,0-6.7-0.3-7.4,0.6
				c-0.8,1.3-4,56.8,19.6,120.6H666.1z"/>
		</g>
		<path class="st0" d="M543.4,226.3h137.1c1.5,0,2.7-1.2,2.7-2.7v-1.5c0-1.5-1.2-2.7-2.7-2.7H543.4c-1.5,0-2.7,1.2-2.7,2.7v1.5
			C540.7,225.1,542,226.3,543.4,226.3z"/>
		<path class="st0" d="M643.1,187.1c1-22.7,3.2-42.5,5.8-56.2c4.2-22,7.9-34.6,7.9-34.7c0.5-1.9,8.5-9.7,26-9.5
			c17.6,0.2,15.9,10.5,15.9,10.5l0,0c0,0.3,0,0.7-0.1,0.9c-0.2,0.5-16.3,54-15.6,123.1c0,1,0.1,2.6,0.1,3.8c0,0-40.7,1-40.7,0
			C640.9,218.8,641.6,202.1,643.1,187.1z"/>
	</g>
	<path class="st5" d="M481.6,160.5c0,0,11-8.5,16.5-5.8c5.5,2.7,6.8,5.8,6.8,5.8H481.6z"/>
	<path class="st4" d="M135.9,154.7c0,0,10.4-2.4,13.7-1.4c3.3,1,10.6,7.1,8.8,7.2c-1.8,0-8.8-3.3-9.9-2.7c-1.1,0.6-6,3.2-9.3,1.9
		C136.1,158.5,135.9,154.7,135.9,154.7z"/>
	<path class="st8" d="M90.3,80.6c0,0-10.2,27.1-11.5,41.9c-1.9,23.3-1.8,37.8-1.8,37.8s6.6,0.3,23.4,0c16.8-0.3,36.6,0,36.6,0
		s5.1-4.9-1.8-8.7c-6.9-3.8-36-10.6-35.2-13.6c0.7-2.9,10.7-43.3,10.7-43.3L90.3,80.6z"/>
	<path class="st5" d="M140.9,160.5c0,0,6.2-4.3,10.5-3.2c4.3,1.1,7.1,3.2,7.1,3.2L140.9,160.5z"/>
</g>
</svg>
