<?xml version="1.0" encoding="utf-8"?>
<!-- Generator: Adobe Illustrator 21.0.2, SVG Export Plug-In . SVG Version: 6.00 Build 0)  -->
<svg version="1.1" id="Capa_1" xmlns="http://www.w3.org/2000/svg" xmlns:xlink="http://www.w3.org/1999/xlink" x="0px" y="0px"
	 viewBox="0 0 452 512" style="enable-background:new 0 0 452 512;" xml:space="preserve">
<style type="text/css">
	.st0{fill:#ffffff;}
</style>
<g>
	<g>
		<g>
			<path class="st0" d="M326.9,124.5C299.9,97.7,264.2,83,226.1,83c-0.3,0-0.7,0-1,0c-41.1,0.3-80.2,18.4-107.3,49.8
				c-3.6,4.2-3.1,10.5,1,14.1c4.2,3.6,10.5,3.1,14.1-1c23.3-27,56.9-42.6,92.3-42.9c0.3,0,0.6,0,0.9,0c32.7,0,63.5,12.7,86.7,35.7
				c23.4,23.3,36.3,54.3,36.3,87.3c0,31.5-11.9,61.5-33.6,84.4c-22.7,24.1-36.1,54.5-38.1,86.5H258V291h6.3
				c14.5,0,26.3-11.8,26.3-26.3v-1.3c0-14.5-11.8-26.3-26.3-26.3c-14.5,0-26.3,11.8-26.3,26.3v7.7h-24v-7.7
				c0-14.5-11.8-26.3-26.3-26.3H186c-14.5,0-26.3,11.8-26.3,26.3v1.3c0,14.5,11.8,26.3,26.3,26.3h8v106h-19.3
				c-1.9-32.4-15-62.5-37.3-85.7c-23-23.9-35.2-55.4-34.3-88.7c0.1-5.5-4.2-10.1-9.7-10.3c-5.5-0.2-10.1,4.2-10.3,9.7
				c-1.1,38.7,13.1,75.3,39.9,103.1c20.6,21.4,32,50,32,80.3v1.6v27.4c0,21.4,16.2,39.1,37,41.4v2.3c0,18.7,15.3,34,34,34
				s34-15.3,34-34v-2.2c20.9-2.2,37.2-19.9,37.2-41.4V407v-1.6c0-29.9,11.7-58.8,32.9-81.2c25.2-26.6,39-61.5,39-98.2
				C369.2,187.6,354.1,151.6,326.9,124.5z M258,263.3c0-3.5,2.8-6.3,6.3-6.3s6.3,2.8,6.3,6.3v1.3c0,3.5-2.8,6.3-6.3,6.3H258V263.3z
				 M214,291h24v106h-24V291z M186,271c-3.5,0-6.3-2.8-6.3-6.3v-1.3c0-3.5,2.8-6.3,6.3-6.3h1.7c3.5,0,6.3,2.8,6.3,6.3v7.7L186,271
				L186,271z M240,478c0,7.7-6.3,14-14,14s-14-6.3-14-14v-2h28V478z M277.3,434.4c0,11.9-9.7,21.6-21.6,21.6H250h-48h-5.4
				c-11.9,0-21.6-9.7-21.6-21.6V417h102.2V434.4z"/>
		</g>
	</g>
	<g>
		<g>
			<path class="st0" d="M226,0c-5.5,0-10,4.5-10,10v37.3c0,5.5,4.5,10,10,10c5.5,0,10-4.5,10-10V10C236,4.5,231.5,0,226,0z"/>
		</g>
	</g>
	<g>
		<g>
			<path class="st0" d="M442,216h-37.3c-5.5,0-10,4.5-10,10s4.5,10,10,10H442c5.5,0,10-4.5,10-10S447.6,216,442,216z"/>
		</g>
	</g>
	<g>
		<g>
			<path class="st0" d="M47.3,216H10c-5.5,0-10,4.5-10,10s4.5,10,10,10h37.3c5.5,0,10-4.5,10-10S52.9,216,47.3,216z"/>
		</g>
	</g>
	<g>
		<g>
			<path class="st0" d="M106.7,92.6L80.3,66.2c-3.9-3.9-10.2-3.9-14.1,0c-3.9,3.9-3.9,10.2,0,14.1l26.4,26.4c2,2,4.5,2.9,7.1,2.9
				c2.6,0,5.1-1,7.1-2.9C110.7,102.8,110.7,96.5,106.7,92.6z"/>
		</g>
	</g>
	<g>
		<g>
			<path class="st0" d="M385.8,66.2c-3.9-3.9-10.2-3.9-14.1,0l-26.4,26.4c-3.9,3.9-3.9,10.2,0,14.1c2,2,4.5,2.9,7.1,2.9
				s5.1-1,7.1-2.9l26.4-26.4C389.7,76.4,389.7,70.1,385.8,66.2z"/>
		</g>
	</g>
	<g>
		<g>
			<path class="st0" d="M319.6,188.3c-7.5-18.6-20.2-34.4-36.8-45.8c-16.8-11.5-36.5-17.6-56.9-17.6c-0.2,0-0.5,0-0.7,0
				c-5.5,0-10,4.5-9.9,10.1c0,5.5,4.5,9.9,10,9.9c0,0,0,0,0.1,0c0.2,0,0.4,0,0.6,0c33.3,0,62.8,19.9,75.2,50.8
				c1.6,3.9,5.3,6.3,9.3,6.3c1.2,0,2.5-0.2,3.7-0.7C319.2,199.2,321.7,193.4,319.6,188.3z"/>
		</g>
	</g>
	<g>
		<g>
			<path class="st0" d="M324,219c-1.9-1.9-4.4-2.9-7.1-2.9c-2.6,0-5.2,1.1-7.1,2.9c-1.9,1.9-2.9,4.4-2.9,7.1s1.1,5.2,2.9,7.1
				c1.9,1.9,4.4,2.9,7.1,2.9c2.6,0,5.2-1.1,7.1-2.9c1.9-1.9,2.9-4.4,2.9-7.1S325.9,220.8,324,219z"/>
		</g>
	</g>
	<g>
		<g>
			<path class="st0" d="M110.6,167.4c-1.9-1.9-4.4-2.9-7.1-2.9s-5.2,1.1-7.1,2.9c-1.9,1.9-2.9,4.4-2.9,7.1c0,2.6,1.1,5.2,2.9,7.1
				c1.9,1.9,4.4,2.9,7.1,2.9s5.2-1.1,7.1-2.9c1.9-1.9,2.9-4.4,2.9-7.1C113.5,171.9,112.5,169.3,110.6,167.4z"/>
		</g>
	</g>
</g>
</svg>
