<?xml version="1.0" encoding="utf-8"?>
<!-- Generator: Adobe Illustrator 21.0.2, SVG Export Plug-In . SVG Version: 6.00 Build 0)  -->
<svg version="1.1" id="Capa_1" xmlns="http://www.w3.org/2000/svg" xmlns:xlink="http://www.w3.org/1999/xlink" x="0px" y="0px"
	 viewBox="0 0 512 512" style="enable-background:new 0 0 512 512;" xml:space="preserve">
<style type="text/css">
	.st0{fill:#ffffff;}
</style>
<g>
	<g>
		<path class="st0" d="M228.7,325.6L124,221c-13.3-13.3-34.3-14.5-49-3.5v-120c0-8.4-2.8-16.2-7.5-22.5C79.9,75,90,85.1,90,97.5
			v90.1c0,4.1,3.4,7.5,7.5,7.5s7.5-3.4,7.5-7.5V97.5C105,76.8,88.2,60,67.5,60c-5.2,0-10.3,1.1-15,3.1c-4.6-2-9.7-3.1-15-3.1
			C16.8,60,0,76.8,0,97.5v181c0,9.6,4.1,23.6,9.3,31.7L110,466.7v37.8c0,4.1,3.4,7.5,7.5,7.5h123.4c4.1,0,7.5-3.4,7.5-7.5V373.4
			C248.4,355.3,241.4,338.4,228.7,325.6z M233.4,497H125v-32.5c0-1.4-0.4-2.8-1.2-4.1L21.9,302.1c-3.7-5.7-6.9-16.7-6.9-23.6v-181
			C15,85.1,25.1,75,37.5,75S60,85.1,60,97.5V248c0,0.3,0,0.5,0,0.8c0.3,9.2,4,18.3,10.9,25.2l104.6,104.6c2.9,2.9,7.7,2.9,10.6,0
			c2.9-2.9,2.9-7.7,0-10.6L81.6,263.4c-8.8-8.8-8.8-23,0-31.8c8.8-8.8,23-8.8,31.8,0l104.7,104.7c9.9,9.9,15.3,23.1,15.3,37.2V497z"
			/>
	</g>
</g>
<g>
	<g>
		<path class="st0" d="M474.5,60c-5.3,0-10.4,1.1-15,3.1c-4.7-2.1-9.8-3.1-15-3.1C423.8,60,407,76.8,407,97.5v90.1
			c0,4.1,3.4,7.5,7.5,7.5s7.5-3.4,7.5-7.5V97.5c0-12.4,10.1-22.5,22.5-22.5c-4.7,6.3-7.5,14.1-7.5,22.5v120
			c-14.7-11-35.7-9.9-49,3.5L283.3,325.6c-12.7,12.7-19.7,29.7-19.7,47.8v131.1c0,4.1,3.4,7.5,7.5,7.5h123.4c4.1,0,7.5-3.4,7.5-7.5
			v-37.8l100.7-156.5c5.2-8.1,9.3-22,9.3-31.7v-181C512,76.8,495.2,60,474.5,60z M497,278.5c0,6.8-3.2,17.8-6.9,23.6L388.2,460.4
			c-0.8,1.2-1.2,2.6-1.2,4.1V497H278.6V373.4c0-14.1,5.4-27.3,15.3-37.2l104.7-104.7c8.8-8.8,23-8.8,31.8,0
			c4.3,4.3,6.6,9.9,6.6,15.9s-2.3,11.7-6.6,15.9L325.8,368c-2.9,2.9-2.9,7.7,0,10.6c2.9,2.9,7.7,2.9,10.6,0L441,274
			c6.9-6.9,10.7-15.9,11-25.6c0-0.1,0-0.3,0-0.4V97.5c0-12.4,10.1-22.5,22.5-22.5S497,85.1,497,97.5V278.5z"/>
	</g>
</g>
<g>
	<g>
		<path class="st0" d="M315.9,0c-23.6,0-45.6,11-59.9,29.2C241.7,11,219.7,0,196.1,0c-42,0-76.1,34.1-76.1,76.1
			c0,31.3,12.1,63.2,35.8,95c2.5,3.3,7.2,4,10.5,1.5c3.3-2.5,4-7.2,1.5-10.5c-21.8-29.1-32.8-58-32.8-86c0-33.7,27.4-61.1,61.1-61.1
			c22.1,0,42.6,12,53.4,31.4c1.3,2.4,3.8,3.8,6.5,3.8s5.2-1.5,6.5-3.8C273.3,27,293.8,15,315.9,15c33.7,0,61.1,27.4,61.1,61.1
			c0,48.4-33.6,91.2-61.7,118.5c-24.8,24.1-49.9,40.8-59.3,46.7c-10.6-6.7-41.5-27.3-69.3-56.9c-2.8-3-7.6-3.2-10.6-0.3
			c-3,2.8-3.2,7.6-0.3,10.6c35.6,37.8,74.8,61,76.5,61.9c1.2,0.7,2.5,1,3.8,1c1.3,0,2.6-0.3,3.8-1c1.3-0.8,33.3-19.6,65.7-51
			c19.2-18.6,34.4-37.7,45.5-56.8c14-24.3,21.1-48.8,21.1-72.7C392,34.1,357.9,0,315.9,0z"/>
	</g>
</g>
</svg>
