<?xml version="1.0" encoding="utf-8"?>
<!-- Generator: Adobe Illustrator 21.0.2, SVG Export Plug-In . SVG Version: 6.00 Build 0)  -->
<svg version="1.1" id="Capa_1" xmlns="http://www.w3.org/2000/svg" xmlns:xlink="http://www.w3.org/1999/xlink" x="0px" y="0px"
	 viewBox="0 0 512 440.9" style="enable-background:new 0 0 512 440.9;" xml:space="preserve">
<style type="text/css">
	.st0{fill:#ffffff;}
</style>
<g>
	<g>
		<g>
			<path class="st0" d="M473,38.8C448.3,14.1,414.8,0,379.5,0S310.7,14.1,286,38.8c-13.2,13.2-22.9,29.1-30,45.9
				c-6.2-16.8-16.8-32.6-30-45.9C201.4,14.1,167.9,0,132.6,0S63.8,14.1,39.1,38.8c-52,52-52,136.7-0.9,188.7L249,438.3
				c1.8,1.8,3.5,2.6,6.2,2.6c2.6,0,4.4-0.9,6.2-2.6L473,226.6C525,174.6,525,90.8,473,38.8z M460.6,213.4L255.2,419.7L50.6,214.3
				c-45-45-44.1-118.2,0.9-163.1c22-21.2,51.1-33.5,81.1-33.5c30,0,59.1,12.3,81.1,33.5c22,22,33.5,50.3,33.5,81.1
				c0,5.3,3.5,8.8,8.8,8.8c5.3,0,8.8-3.5,8.8-8.8c0-30.9,12.3-60,33.5-81.1c22-21.2,51.1-33.5,81.1-33.5c30,0,59.1,12.3,81.1,33.5
				C505.6,96.1,505.6,169.3,460.6,213.4z"/>
			<path class="st0" d="M132.6,35.3c-52.9,0-97,44.1-97,97c0,5.3,3.5,8.8,8.8,8.8s8.8-3.5,8.8-8.8c0-44.1,35.3-79.4,79.4-79.4
				c5.3,0,8.8-3.5,8.8-8.8S137.9,35.3,132.6,35.3z"/>
			<path class="st0" d="M332.8,250.4c-3.5-3.5-8.8-3.5-12.3,0L249.9,321c-3.5,3.5-3.5,8.8,0,12.3c1.8,1.8,4.4,2.6,6.2,2.6
				c2.6,0,4.4-0.9,6.2-2.6l70.5-70.5C336.3,259.2,336.3,253.1,332.8,250.4z"/>
			<path class="st0" d="M256.1,300.7c2.6,0,4.4-0.9,6.2-2.6l35.3-35.3c3.5-3.5,3.5-8.8,0-12.3s-8.8-3.5-12.3,0l-35.3,35.3
				c-3.5,3.5-3.5,8.8,0,12.3C251.6,299.8,254.3,300.7,256.1,300.7z"/>
			<path class="st0" d="M320.4,285.7L285.2,321c-3.5,3.5-3.5,8.8,0,12.3c1.8,1.8,4.4,2.6,6.2,2.6c2.6,0,4.4-0.9,6.2-2.6l35.3-35.3
				c3.5-3.5,3.5-8.8,0-12.3C330.1,282.2,324,282.2,320.4,285.7z"/>
			<path class="st0" d="M379.5,36.2c-5.3,0-8.8,3.5-8.8,8.8s3.5,8.8,8.8,8.8c43.2,0,78.5,35.3,78.5,78.5c0,5.3,3.5,8.8,8.8,8.8
				s8.8-3.5,8.8-8.8C475.6,79.4,432.4,36.2,379.5,36.2z"/>
		</g>
	</g>
</g>
</svg>
