<?xml version="1.0" encoding="utf-8"?>
<!-- Generator: Adobe Illustrator 21.0.2, SVG Export Plug-In . SVG Version: 6.00 Build 0)  -->
<svg version="1.1" id="Capa_1" xmlns="http://www.w3.org/2000/svg" xmlns:xlink="http://www.w3.org/1999/xlink" x="0px" y="0px"
	 viewBox="0 0 480 480" style="enable-background:new 0 0 480 480;" xml:space="preserve">
<style type="text/css">
	.st0{fill:#ffffff;}
</style>
<g>
	<g>
		<g>
			<path class="st0" d="M240,0c-30.9,0-56,25.1-56,56c0,30.9,25.1,56,56,56c30.9,0,56-25.1,56-56S270.9,0,240,0z M240,96
				c-22.1,0-40-17.9-40-40c0-22.1,17.9-40,40-40c22.1,0,40,17.9,40,40S262.1,96,240,96z"/>
		</g>
	</g>
	<g>
		<g>
			<path class="st0" d="M264,120h-48c-39.7,0-72,32.3-72,72v136h32v152h16V296h-16v16h-16V192c0-30.9,25.1-56,56-56h48
				c30.9,0,56,25.1,56,56v120h-16v-16h-16v184h16V328h32V192C336,152.3,303.7,120,264,120z"/>
		</g>
	</g>
	<g>
		<g>
			<rect x="232" y="328" class="st0" width="16" height="152"/>
		</g>
	</g>
	<g>
		<g>
			<path class="st0" d="M400,80c-26.5,0-48,21.5-48,48c0,26.5,21.5,48,48,48c26.5,0,48-21.5,48-48S426.5,80,400,80z M400,160
				c-17.7,0-32-14.3-32-32s14.3-32,32-32s32,14.3,32,32S417.7,160,400,160z"/>
		</g>
	</g>
	<g>
		<g>
			<path class="st0" d="M424,184h-72v16h72c22.1,0,40,17.9,40,40v104h-16v-16h-16v152h16V360h32V240C480,209.1,454.9,184,424,184z"
				/>
		</g>
	</g>
	<g>
		<g>
			<polygon class="st0" points="352,328 352,344 320,344 320,360 352,360 352,480 368,480 368,328 			"/>
		</g>
	</g>
	<g>
		<g>
			<rect x="392" y="360" class="st0" width="16" height="120"/>
		</g>
	</g>
	<g>
		<g>
			<path class="st0" d="M80,80c-26.5,0-48,21.5-48,48c0,26.5,21.5,48,48,48c26.5,0,48-21.5,48-48S106.5,80,80,80z M80,160
				c-17.7,0-32-14.3-32-32s14.3-32,32-32s32,14.3,32,32S97.7,160,80,160z"/>
		</g>
	</g>
	<g>
		<g>
			<path class="st0" d="M56,184c-30.9,0-56,25.1-56,56v120h32v120h16V328H32v16H16V240c0-22.1,17.9-40,40-40h72v-16H56z"/>
		</g>
	</g>
	<g>
		<g>
			<polygon class="st0" points="128,344 128,328 112,328 112,480 128,480 128,360 160,360 160,344 			"/>
		</g>
	</g>
	<g>
		<g>
			<rect x="72" y="360" class="st0" width="16" height="120"/>
		</g>
	</g>
</g>
</svg>
