<?xml version="1.0" encoding="utf-8"?>
<!-- Generator: Adobe Illustrator 21.0.2, SVG Export Plug-In . SVG Version: 6.00 Build 0)  -->
<svg version="1.1" id="Capa_1" xmlns="http://www.w3.org/2000/svg" xmlns:xlink="http://www.w3.org/1999/xlink" x="0px" y="0px"
	 viewBox="0 0 320 512" style="enable-background:new 0 0 320 512;" xml:space="preserve">
<style type="text/css">
	.st0{fill:#ffffff;}
</style>
<g>
	<g>
		<g>
			<path class="st0" d="M200,296c-4.4,0-8,3.6-8,8s3.6,8,8,8c93.9,0,104,93.2,104,133.2V496H16v-50.8c0-40,10.1-133.2,104-133.2
				c4.4,0,8-3.6,8-8s-3.6-8-8-8C44.9,296,0,351.8,0,445.2V504c0,4.4,3.6,8,8,8h304c4.4,0,8-3.6,8-8v-58.8
				C320,351.8,275.1,296,200,296z"/>
		</g>
	</g>
	<g>
		<g>
			<path class="st0" d="M199,296.3c-4.4,0-7-4.7-7-0.3v28.4c0,17.7-14.3,32-32,32s-32-14.3-32-32V296c0-4.5-2.7-0.9-7.2-0.9
				s-8.8-3.5-8.8,0.9v28.4c0,26.5,21.5,48,48,48c26.5-0.1,48-21.5,48-48V296C208,291.6,203.4,296.3,199,296.3z"/>
		</g>
	</g>
	<g>
		<g>
			<path class="st0" d="M56,440c-4.4,0-8,3.6-8,8v56c0,4.4,3.6,8,8,8s8-3.6,8-8v-56C64,443.6,60.4,440,56,440z"/>
		</g>
	</g>
	<g>
		<g>
			<path class="st0" d="M264,440c-4.4,0-8,3.6-8,8v56c0,4.4,3.6,8,8,8s8-3.6,8-8v-56C272,443.6,268.4,440,264,440z"/>
		</g>
	</g>
	<g>
		<g>
			<path class="st0" d="M168,208h-16c-4.4,0-8,3.6-8,8s3.6,8,8,8h16c4.4,0,8-3.6,8-8S172.4,208,168,208z"/>
		</g>
	</g>
	<g>
		<g>
			<path class="st0" d="M189.6,242.6c-3.1-3.1-8.1-3.2-11.3-0.2c-5.3,4-11.8,6-18.4,5.7c-6.5,0.3-13-1.7-18.3-5.7c-3.1-3-8-3-11.1,0
				c-3.2,3.1-3.3,8.1-0.2,11.3c8.2,7.1,18.9,10.8,29.7,10.3c10.8,0.5,21.4-3.2,29.6-10.2C192.6,250.7,192.7,245.7,189.6,242.6z"/>
		</g>
	</g>
	<g>
		<g>
			<path class="st0" d="M237.2,57.6c17.4-15.8,10.9-49.5,10.6-51.1c-0.4-2.1-1.6-3.9-3.4-5.1c-3.7-2.5-8.6-1.5-11.1,2.2
				C225,15.8,213.4,25.5,200,31.8c-12.7-5.2-26.3-7.8-40-7.8C103.3,23.4,56.8,68.8,56,125.5v85c0.8,56.7,47.3,102.1,104,101.5
				c56.7,0.6,103.2-44.8,104-101.4v-85C263.9,100.4,254.4,76.1,237.2,57.6z M248,210.5c0,48.6-39.4,88-88,88s-88-39.4-88-88v-85
				c0.8-47.9,40.1-86.1,88-85.5c12.6,0,25.1,2.6,36.6,7.7c0.5,0.2,1,0.4,1.5,0.5c1.5,0.4,3.1,0.3,4.6-0.2
				c11.3-4.5,21.6-11.1,30.4-19.5c0.5,8.3-4,16.1-11.4,19.9c-1.4,0.4-2.6,1.2-3.5,2.3c-3,3.3-2.6,8.4,0.7,11.3
				c18.4,16,29,39.1,29.1,63.5L248,210.5L248,210.5z"/>
		</g>
	</g>
	<g>
		<g>
			<path class="st0" d="M224,304c-4.4,0-8,3.6-8,8v12.4c0,30.9-25.1,56-56,56s-56-25.1-56-56V312c0-4.4-3.6-8-8-8s-8,3.6-8,8v12.4
				c0,39.7,32.3,72,72,72c39.7-0.1,72-32.3,72-72V312C232,307.6,228.4,304,224,304z"/>
		</g>
	</g>
	<g>
		<g>
			<path class="st0" d="M261.5,130.5c-0.3-0.4-0.9-1.2-1.6-2.2c-7-9.8-28.3-39.9-59.1-49.8c-3.8-1.3-8,0.6-9.7,4.3
				c-2.9,6.4-14.8,13.1-31.2,13.1s-28.3-6.7-31.1-13c-1.6-3.7-5.8-5.5-9.7-4.3C88.3,88.4,67,118.5,60,128.4
				c-0.7,0.9-1.2,1.7-1.5,2.1c-3.1,3.1-3.1,8.2,0.1,11.3c3.1,3.1,8.2,3.1,11.3-0.1c1.1-1.2,2.1-2.6,3.1-4
				c5.8-8.1,22.5-31.7,45.4-41.7c11,11,26.1,16.8,41.6,16c15.5,0.8,30.6-5,41.6-16c22.9,10,39.6,33.6,45.4,41.7c0.9,1.4,2,2.7,3.1,4
				c1.6,1.6,3.7,2.4,5.9,2.4c2.1,0,4.1-0.8,5.4-2.4C264.5,138.6,264.6,133.6,261.5,130.5z"/>
		</g>
	</g>
	<g>
		<g>
			<path class="st0" d="M120,368c-4.4,0-8,3.6-8,8v128c0,4.4,3.6,8,8,8s8-3.6,8-8V376C128,371.6,124.4,368,120,368z"/>
		</g>
	</g>
	<g>
		<g>
			<path class="st0" d="M200,368c-4.4,0-8,3.6-8,8v128c0,4.4,3.6,8,8,8s8-3.6,8-8V376C208,371.6,204.4,368,200,368z"/>
		</g>
	</g>
</g>
</svg>
