<?xml version="1.0" encoding="utf-8"?>
<!-- Generator: Adobe Illustrator 21.0.2, SVG Export Plug-In . SVG Version: 6.00 Build 0)  -->
<svg version="1.1" id="Layer_1" xmlns="http://www.w3.org/2000/svg" xmlns:xlink="http://www.w3.org/1999/xlink" x="0px" y="0px"
	 viewBox="0 0 451.7 512" style="enable-background:new 0 0 451.7 512;" xml:space="preserve">
<style type="text/css">
	.st0{fill:#ffffff;}
</style>
<g id="XMLID_1220_">
	<g id="XMLID_339_">
		<path id="XMLID_349_" class="st0" d="M450.3,451.7l-75.2-130.2c2.7-3.1,6.4-5.5,10.7-6.5c11.8-2.8,21.7-10.7,26.9-21.6
			c5.3-11,5.3-23.6,0.1-34.6c-4-8.4-1.7-18.4,5.5-24.3c9.5-7.7,14.9-19,14.9-31.2s-5.4-23.5-14.9-31.2c-7.2-5.9-9.5-15.8-5.5-24.3
			c5.2-11,5.2-23.6-0.1-34.6c-5.3-11-15.1-18.9-26.9-21.6c-9.1-2.1-15.4-10.1-15.5-19.4c-0.1-12.2-5.6-23.5-15.1-31.1
			c-9.5-7.6-21.8-10.4-33.7-7.8c-9.1,2-18.3-2.4-22.4-10.8C293.7,11.5,283.9,3.7,272,1c-11.9-2.7-24.2,0.1-33.7,7.6
			c-7.3,5.8-17.6,5.8-24.9,0c-9.6-7.5-21.9-10.3-33.7-7.6c-11.9,2.7-21.7,10.5-27.1,21.5c-4.1,8.4-13.3,12.8-22.4,10.8
			c-11.9-2.6-24.2,0.2-33.7,7.8C87,48.7,81.5,60,81.4,72.2c-0.1,9.3-6.4,17.3-15.5,19.4c-11.8,2.8-21.7,10.7-26.9,21.6
			c-5.3,11-5.3,23.6-0.1,34.6c4,8.4,1.7,18.4-5.5,24.3c-9.5,7.7-14.9,19-14.9,31.2s5.4,23.5,14.9,31.2c7.2,5.9,9.5,15.8,5.5,24.3
			c-5.2,11-5.2,23.6,0.1,34.6c5.3,11,15.1,18.9,26.9,21.6c4.3,1,8,3.3,10.7,6.5L1.3,451.7c-2,3.5-1.7,7.9,0.7,11.1
			c2.5,3.2,6.6,4.6,10.5,3.6L65,452.1l13.9,52.5c1,3.9,4.3,6.8,8.3,7.4c0.4,0.1,0.9,0.1,1.3,0.1c3.5,0,6.9-1.9,8.7-5l64.2-111.1
			c5.1,4.7,11.3,8.1,18.3,9.7c11.9,2.7,24.2-0.1,33.7-7.6c7.3-5.8,17.6-5.8,24.9,0c7.2,5.6,15.8,8.6,24.7,8.6c3,0,6-0.3,9-1
			c7-1.6,13.2-4.9,18.3-9.7L354.5,507c1.8,3.1,5.1,5,8.7,5c0.4,0,0.9,0,1.3-0.1c4-0.5,7.3-3.4,8.3-7.4l13.9-52.5l52.4,14.2
			c3.9,1.1,8.1-0.3,10.5-3.6C452.1,459.5,452.4,455.2,450.3,451.7L450.3,451.7z M92,476l-10.3-38.7c-0.7-2.6-2.4-4.8-4.7-6.1
			c-2.3-1.3-5-1.7-7.6-1l-38.7,10.5L84,348.4c2.5,6.6,6.8,12.5,12.5,17c9.5,7.6,21.8,10.4,33.7,7.8c6.7-1.5,13.5,0.6,18.2,5.1
			L92,476z M267.6,386c-6,1.4-12.1,0-16.9-3.8c-7.3-5.7-16-8.6-24.8-8.6c-8.7,0-17.5,2.9-24.8,8.6c-4.8,3.8-11,5.2-16.9,3.8
			c-6-1.4-10.9-5.3-13.6-10.8c-8.2-16.7-26.6-25.5-44.7-21.5c-6,1.3-12.1-0.1-16.9-3.9c-4.8-3.8-7.5-9.5-7.6-15.6
			c-0.1-18.6-12.8-34.5-30.9-38.8c-5.9-1.4-10.9-5.4-13.5-10.9c-2.6-5.5-2.7-11.8-0.1-17.3c7.9-16.8,3.4-36.7-11-48.3
			c-4.7-3.8-7.5-9.5-7.5-15.6c0-6.1,2.7-11.8,7.5-15.6c14.4-11.7,19-31.6,11-48.4c-2.6-5.5-2.6-11.8,0.1-17.3
			c2.6-5.5,7.6-9.5,13.5-10.9c18.1-4.3,30.8-20.2,30.9-38.8c0-6.1,2.8-11.8,7.6-15.6c4.8-3.8,10.9-5.2,16.9-3.9
			c18.1,4,36.5-4.8,44.7-21.5c2.7-5.5,7.6-9.4,13.6-10.8c6-1.4,12.1,0,16.9,3.8c14.6,11.5,35,11.5,49.6,0c4.8-3.8,11-5.2,16.9-3.8
			c6,1.4,10.9,5.3,13.6,10.8c8.2,16.7,26.5,25.5,44.7,21.5c6-1.3,12.1,0.1,16.9,3.9c4.8,3.8,7.5,9.5,7.6,15.6
			c0.1,18.6,12.8,34.5,30.9,38.8c5.9,1.4,10.9,5.4,13.5,10.9c2.6,5.5,2.7,11.8,0.1,17.3c-7.9,16.8-3.4,36.7,11,48.3
			c4.7,3.8,7.5,9.5,7.5,15.6c0,6.1-2.7,11.8-7.5,15.6c-14.4,11.7-19,31.6-11,48.4c2.6,5.5,2.6,11.8-0.1,17.3
			c-2.6,5.5-7.6,9.5-13.5,10.9c-18.1,4.3-30.8,20.2-30.9,38.8c0,6.1-2.8,11.8-7.6,15.6c-4.8,3.8-10.9,5.2-16.9,3.9
			c-18.1-4-36.5,4.8-44.7,21.5C278.5,380.7,273.5,384.7,267.6,386z M382.2,430.2c-2.6-0.7-5.3-0.3-7.6,1c-2.3,1.3-4,3.5-4.7,6.1
			L359.7,476l-56.4-97.7c4.7-4.5,11.5-6.6,18.2-5.1c11.9,2.6,24.2-0.2,33.7-7.8c5.7-4.5,9.9-10.4,12.5-17l53.3,92.2L382.2,430.2z"/>
		<path id="XMLID_357_" class="st0" d="M273.4,278.9c2.1,0,4.1-0.6,5.9-1.9c3.5-2.5,5-7,3.6-11.2l-15.8-49l41.6-30.5
			c3.5-2.6,4.9-7.1,3.6-11.2c-1.3-4.1-5.2-6.9-9.5-6.9h-51.4l-16-48.9c-1.3-4.1-5.2-6.9-9.5-6.9c-4.3,0-8.2,2.8-9.5,6.9l-16,48.9
			h-51.4c-4.3,0-8.2,2.8-9.5,6.9c-1.3,4.1,0.1,8.6,3.6,11.2l41.6,30.5l-15.8,49c-1.3,4.1,0.1,8.6,3.6,11.2c3.5,2.5,8.2,2.5,11.7,0
			l41.7-30.1l41.7,30.1C269.3,278.3,271.4,278.9,273.4,278.9L273.4,278.9z M231.7,226.4c-1.7-1.3-3.8-1.9-5.9-1.9
			c-2.1,0-4.1,0.6-5.9,1.9l-22.9,16.5l8.6-26.9c1.3-4.1-0.1-8.6-3.6-11.1l-22.8-16.7h28.2c4.3,0,8.2-2.8,9.5-6.9l8.8-26.8l8.8,26.8
			c1.3,4.1,5.2,6.9,9.5,6.9h28.2L249.5,205c-3.5,2.5-4.9,7-3.6,11.1l8.6,26.9L231.7,226.4z"/>
		<path id="XMLID_358_" class="st0" d="M365.8,203.3c0-77.2-62.8-140-140-140s-140,62.8-140,140c0,58.7,37.1,111.6,92.3,131.6
			c5.2,1.9,10.9-0.8,12.8-6c1.9-5.2-0.8-10.9-6-12.8c-47.3-17.2-79.1-62.5-79.1-112.8c0-66.2,53.8-120,120-120s120,53.8,120,120
			c0,50.3-31.8,95.7-79.1,112.8c-5.2,1.9-7.9,7.6-6,12.8c1.5,4.1,5.3,6.6,9.4,6.6c1.1,0,2.3-0.2,3.4-0.6
			C328.8,314.9,365.8,262,365.8,203.3z"/>
		<path id="XMLID_676_" class="st0" d="M225.8,323.3c-2.6,0-5.2,1.1-7.1,2.9s-2.9,4.4-2.9,7.1s1.1,5.2,2.9,7.1s4.4,2.9,7.1,2.9
			c2.6,0,5.2-1.1,7.1-2.9s2.9-4.4,2.9-7.1s-1.1-5.2-2.9-7.1S228.5,323.3,225.8,323.3z"/>
	</g>
</g>
</svg>
