<?xml version="1.0" encoding="utf-8"?>
<!-- Generator: Adobe Illustrator 21.0.2, SVG Export Plug-In . SVG Version: 6.00 Build 0)  -->
<svg version="1.1" id="Capa_1" xmlns="http://www.w3.org/2000/svg" xmlns:xlink="http://www.w3.org/1999/xlink" x="0px" y="0px"
	 viewBox="0 0 512 512" style="enable-background:new 0 0 512 512;" xml:space="preserve">
<style type="text/css">
	.st0{fill:#ffffff;}
</style>
<path class="st0" d="M263.8,102.3C150.9,102.3,59,194.2,59,307.2S150.9,512,263.8,512s204.8-91.9,204.8-204.8
	S376.8,102.3,263.8,102.3L263.8,102.3z M263.8,482C167.4,482,89,403.6,89,307.2s78.4-174.8,174.8-174.8s174.8,78.4,174.8,174.8
	S360.2,482,263.8,482z"/>
<path class="st0" d="M353.3,345.3c-6.3-5.4-15.8-4.7-21.2,1.6c-17.1,20-42,31.4-68.3,31.4c-26.3,0-51.2-11.5-68.3-31.4
	c-5.4-6.3-14.9-7-21.2-1.6c-6.3,5.4-7,14.9-1.6,21.2c22.8,26.6,56,41.9,91.1,41.9c35,0,68.2-15.3,91.1-41.9
	C360.3,360.1,359.6,350.6,353.3,345.3L353.3,345.3z"/>
<path class="st0" d="M180.6,283.6c8.3,0,15-6.7,15-15c0-4.8,3.9-8.7,8.7-8.7s8.7,3.9,8.7,8.7c0,8.3,6.7,15,15,15s15-6.7,15-15
	c0-21.4-17.4-38.7-38.7-38.7s-38.7,17.4-38.7,38.7C165.6,276.9,172.3,283.6,180.6,283.6z"/>
<path class="st0" d="M323.4,229.8c-21.4,0-38.7,17.4-38.7,38.7c0,8.3,6.7,15,15,15s15-6.7,15-15c0-4.8,3.9-8.7,8.7-8.7
	s8.7,3.9,8.7,8.7c0,8.3,6.7,15,15,15s15-6.7,15-15C362.1,247.2,344.7,229.8,323.4,229.8L323.4,229.8z"/>
<path class="st0" d="M387.4,84.3h21.9c8.3,0,15-6.7,15-15s-6.7-15-15-15h-21.9c-8.3,0-15,6.7-15,15S379.1,84.3,387.4,84.3z"/>
<path class="st0" d="M442.2,138.5c8.3,0,15-6.7,15-15v-21.9c0-8.3-6.7-15-15-15s-15,6.7-15,15v21.9
	C427.2,131.8,433.9,138.5,442.2,138.5z"/>
<path class="st0" d="M497,54.3h-21.9c-8.3,0-15,6.7-15,15s6.7,15,15,15H497c8.3,0,15-6.7,15-15S505.3,54.3,497,54.3z"/>
<path class="st0" d="M442.2,51.9c8.3,0,15-6.7,15-15V15c0-8.3-6.7-15-15-15s-15,6.7-15,15v21.9C427.2,45.2,433.9,51.9,442.2,51.9z"
	/>
<path class="st0" d="M32.5,74.3H15c-8.3,0-15,6.7-15,15s6.7,15,15,15h17.5c8.3,0,15-6.7,15-15S40.8,74.3,32.5,74.3z"/>
<path class="st0" d="M78.7,137.6v-17.5c0-8.3-6.7-15-15-15s-15,6.7-15,15v17.5c0,8.3,6.7,15,15,15S78.7,145.9,78.7,137.6z"/>
<path class="st0" d="M95,104.3h17.5c8.3,0,15-6.7,15-15s-6.7-15-15-15H95c-8.3,0-15,6.7-15,15S86.7,104.3,95,104.3z"/>
<path class="st0" d="M63.7,73.4c8.3,0,15-6.7,15-15V40.9c0-8.3-6.7-15-15-15s-15,6.7-15,15v17.5C48.7,66.7,55.5,73.4,63.7,73.4z"/>
</svg>
