<?xml version="1.0" encoding="utf-8"?>
<!-- Generator: Adobe Illustrator 21.0.2, SVG Export Plug-In . SVG Version: 6.00 Build 0)  -->
<svg version="1.1" id="Capa_1" xmlns="http://www.w3.org/2000/svg" xmlns:xlink="http://www.w3.org/1999/xlink" x="0px" y="0px"
	 viewBox="0 0 512 435.1" style="enable-background:new 0 0 512 435.1;" xml:space="preserve">
<style type="text/css">
	.st0{fill:#ffffff;}
</style>
<g>
	<g>
		<g>
			<path class="st0" d="M510.4,251.3c-2.6-3.3-7.3-3.8-10.6-1.2l-14.7,11.7L365.9,105.4L434,61.7c3.5-2.2,4.5-6.9,2.3-10.4
				c-2.2-3.5-6.9-4.5-10.4-2.3l-75,48.1c-3.6,2.3-4.5,7.4-1.9,10.9l13.6,17.9l-9.7,7.4l-38.5-12.7c-0.8-0.2-1.6-0.4-2.4-0.4h-88.2
				c-3.4,0-6.5,2.3-7.3,5.7l-5,19.8l-12.5-5.3c-1.2-0.5-2.5-0.7-3.8-0.5l-34.8,4.1l-11.8-6.9l11.3-19.5c2-3.5,0.8-8.2-2.8-10.3
				L11.3,23.1C7.7,21.1,3.1,22.3,1,25.9c-2.1,3.6-0.8,8.2,2.8,10.3l114.4,66l-98.7,171l-8.1-4.7c-3.6-2.1-8.2-0.8-10.3,2.8
				c-2.1,3.6-0.8,8.2,2.8,10.3l39.7,22.9c3.5,2,8.2,0.8,10.3-2.8l5.7-10l16.2,8.6c-5.3,10.3-4.8,23,2.4,33c6.2,8.5,15.8,13,25.6,13
				c3.3,0,6.5-0.5,9.7-1.5c0,6.7,2.2,13.2,6.2,18.5c6.2,8.2,15.7,12.5,25.3,12.5c3.2,0,6.4-0.5,9.6-1.5c0.1,6.3,2,12.6,6,18
				c4.9,6.8,12.2,11.3,20.6,12.7c1.7,0.3,3.4,0.4,5.1,0.4c3.3,0,6.5-0.5,9.6-1.5c0.1,6.4,2.1,12.7,6,18c4.9,6.8,12.2,11.3,20.6,12.7
				c1.7,0.3,3.4,0.4,5.1,0.4c6.6,0,13-2.1,18.4-6l17.5-12.7c3.8-2.7,6.9-6.2,9.1-10.2l30.8,16.8c4.7,2.6,9.9,3.9,15.1,3.9
				c3,0,6-0.4,9-1.3c8.1-2.4,14.8-7.8,18.8-15.2c3.1-5.8,4.4-12.2,3.7-18.6c1.9,0.3,3.8,0.5,5.7,0.5c11.2,0,22-6,27.8-16.5
				c3.2-5.9,4.3-12.4,3.6-18.6c1.9,0.3,3.8,0.5,5.7,0.5c11.2,0,22-6,27.8-16.5c3.1-5.8,4.4-12.2,3.7-18.6c1.9,0.3,3.8,0.5,5.7,0.5
				c3,0,6-0.4,9-1.3c8.1-2.4,14.8-7.8,18.8-15.2c4-7.4,4.9-15.9,2.6-24c-0.6-1.9-1.3-3.8-2.2-5.6l13.2-9.4l7,9.1
				c2.5,3.3,7.4,3.9,10.6,1.3l20.7-16.5C512.4,259.3,513,254.6,510.4,251.3z M44.5,287.6l-12-7l98.7-171l12,7L44.5,287.6z
				 M113.4,328.2c-7.4,5.3-17.7,3.7-23.1-3.7c-5.3-7.4-3.7-17.7,3.7-23.1l53.2-38.5c3-2.1,6.4-3.2,9.7-3.2c4.9,0,9.8,2.2,13.1,6.5
				c5.6,7.3,4,18.1-3.4,23.5L113.4,328.2z M154.6,357.8c-7.2,5.2-17.5,3.7-22.9-3.4c-5.6-7.4-3.4-18.3,3.9-23.7l39.7-28.7
				c1.4-1,2.8-2,4.4-2.7c2.3-1,4.8-1.4,7.3-1.3c4.8,0.3,9.3,2.7,12.2,6.5c5.6,7.3,4,18.1-3.4,23.5L154.6,357.8z M195.8,387.4
				c-3.6,2.6-7.9,3.6-12.3,2.9c-4.4-0.7-8.2-3.1-10.8-6.6c-5.3-7.4-3.7-17.7,3.7-23.1c0,0,28.3-20.5,28.3-20.5l1.1-0.8
				c7.3-5.3,17.3-3.8,22.8,3.3c5.6,7.3,4,18.1-3.4,23.5L195.8,387.4z M261.1,393.3c-0.6,4.5-3,8.4-6.7,11l-17.5,12.7
				c-7.3,5.3-17.8,3.6-23.1-3.7c-5.3-7.3-3.6-17.8,3.7-23.1l16.4-11.9l1.1-0.8c7.2-5.2,17.4-3.7,22.8,3.3
				C260.6,384.4,261.8,388.8,261.1,393.3z M444.1,299.6c-4.3,7.9-14.5,10.9-22.4,6.6l-86.9-47.4c-3.6-2-8.2-0.6-10.2,3
				c-2,3.6-0.6,8.2,3,10.2l72.8,39.7c8,4.4,11,14.4,6.6,22.4c-4.4,8-14.4,11-22.4,6.6l-73.9-40.3c-3.6-2-8.2-0.6-10.2,3
				s-0.6,8.2,3,10.2l59.8,32.6c8,4.4,11,14.4,6.6,22.4c-4.3,7.9-14.5,10.9-22.4,6.6l-62.6-34.1c-3.6-2-8.2-0.6-10.2,3
				s-0.6,8.2,3,10.2l48.5,26.5c7.9,4.3,10.9,14.5,6.6,22.4c-4.3,7.9-14.5,10.9-22.4,6.6l-34-18.6c0.1-7.1-2.1-14-6.5-19.7
				c-5.9-7.7-14.6-11.9-23.5-12.4c0.1-0.7,0.3-1.3,0.4-2c1.2-8.5-1-17-6.2-23.8c-5.9-7.7-14.6-11.9-23.5-12.4c0.1-0.7,0.3-1.3,0.4-2
				c1.2-8.5-1-17-6.2-23.8c-5.9-7.7-14.6-11.9-23.5-12.4c0.1-0.7,0.3-1.3,0.4-2c1.2-8.5-1-17-6.2-23.8
				c-10.5-13.6-29.6-16.4-43.5-6.3l-52.4,37.9L67,278.7l74.2-128.5l14,8.1c1.4,0.8,3,1.2,4.6,1l35.4-4.1l12.8,5.4l-7.4,29.5
				c-0.1,0.6-0.2,1.2-0.2,1.8V256c0,21.8,17.8,39.6,39.6,39.6c21.8,0,39.6-17.8,39.6-39.6v-62l1.4-2.2l156.6,85.3
				C445.4,281.5,448.4,291.7,444.1,299.6z M447.7,265.8c-1-0.7-2-1.3-3-1.9l-155.8-84.9l5.8-9.2c2.2-3.5,1.1-8.2-2.4-10.4
				c-3.5-2.2-8.2-1.1-10.4,2.4l-16.3,26c-0.7,1.2-1.1,2.6-1.1,4V256c0,13.5-11,24.5-24.5,24.5s-24.5-11-24.5-24.5v-63.2l14.4-57.5
				h81.1l41.1,13.6c2.3,0.8,5,0.3,6.9-1.2l12.8-9.8l89.9,118L447.7,265.8z"/>
		</g>
	</g>
	<g>
		<g>
			<path class="st0" d="M510.8,3.5c-2.2-3.5-6.9-4.5-10.4-2.3l-42.1,27c-3.5,2.2-4.5,6.9-2.3,10.4c1.4,2.2,3.9,3.5,6.3,3.5
				c1.4,0,2.8-0.4,4.1-1.2l42.1-27C512,11.6,513.1,6.9,510.8,3.5z"/>
		</g>
	</g>
</g>
</svg>
