<?xml version="1.0" encoding="utf-8"?>
<!-- Generator: Adobe Illustrator 21.0.2, SVG Export Plug-In . SVG Version: 6.00 Build 0)  -->
<svg version="1.1" id="Layer_1" xmlns="http://www.w3.org/2000/svg" xmlns:xlink="http://www.w3.org/1999/xlink" x="0px" y="0px"
	 viewBox="0 0 491.9 484" style="enable-background:new 0 0 491.9 484;" xml:space="preserve">
<style type="text/css">
	.st0{fill:#ffffff;}
</style>
<g>
	<path class="st0" d="M228,155c0-3.3-2.7-6-6-6h-42c-3.3,0-6,2.7-6,6v42c0,3.3,2.7,6,6,6h42c3.3,0,6-2.7,6-6V155z M216,191h-30v-30
		h30V191z"/>
	<path class="st0" d="M228,225c0-3.3-2.7-6-6-6l0,0h-42c-3.3,0-6,2.7-6,6l0,0v42c0,3.3,2.7,6,6,6h42c3.3,0,6-2.7,6-6V225z M216,262
		h-30v-31h30V262z"/>
	<path class="st0" d="M228,296c0-3.3-2.7-6-6-6h-42c-3.3,0-6,2.7-6,6v42c0,3.3,2.7,6,6,6h42c3.3,0,6-2.7,6-6V296z M216,332h-30v-30
		h30V332z"/>
	<path class="st0" d="M158,155c0-3.3-2.7-6-6-6h-42c-3.3,0-6,2.7-6,6v42c0,3.3,2.7,6,6,6h42c3.3,0,6-2.7,6-6V155z M146,191h-30v-30
		h30V191z"/>
	<path class="st0" d="M158,225c0-3.3-2.7-6-6-6l0,0h-42c-3.3,0-6,2.7-6,6l0,0v42c0,3.3,2.7,6,6,6h42c3.3,0,6-2.7,6-6V225z M146,262
		h-30v-31h30V262z"/>
	<path class="st0" d="M158,296c0-3.3-2.7-6-6-6h-42c-3.3,0-6,2.7-6,6v42c0,3.3,2.7,6,6,6h42c3.3,0,6-2.7,6-6V296z M146,332h-30v-30
		h30V332z"/>
	<path class="st0" d="M298,155c0-3.3-2.7-6-6-6h-42c-3.3,0-6,2.7-6,6v42c0,3.3,2.7,6,6,6h42c3.3,0,6-2.7,6-6V155z M287,191h-31v-30
		h31V191z"/>
	<path class="st0" d="M298,225c0-3.3-2.7-6-6-6l0,0h-42c-3.3,0-6,2.7-6,6l0,0v42c0,3.3,2.7,6,6,6h42c3.3,0,6-2.7,6-6V225z M287,262
		h-31v-31h31V262z"/>
	<path class="st0" d="M369,155c0-3.3-2.7-6-6-6h-42c-3.3,0-6,2.7-6,6v42c0,3.3,2.7,6,6,6h42c3.3,0,6-2.7,6-6V155z M327,161h30v30
		h-30V161z"/>
	<path class="st0" d="M369,225c0-3.3-2.7-6-6-6l0,0h-42c-3.3,0-6,2.7-6,6l0,0v42c0,3.3,2.7,6,6,6h42c3.3,0,6-2.7,6-6V225z M327,231
		h30v31h-30V231z"/>
	<path class="st0" d="M87,155c0-3.3-2.7-6-6-6H39c-3.3,0-6,2.7-6,6v42c0,3.3,2.7,6,6,6h42c3.3,0,6-2.7,6-6V155z M76,191H45v-30h31
		V191z"/>
	<path class="st0" d="M87,225c0-3.3-2.7-6-6-6l0,0H39c-3.3,0-6,2.7-6,6l0,0v42c0,3.3,2.7,6,6,6h42c3.3,0,6-2.7,6-6V225z M76,262H45
		v-31h31V262z"/>
	<path class="st0" d="M87,296c0-3.3-2.7-6-6-6H39c-3.3,0-6,2.7-6,6v42c0,3.3,2.7,6,6,6h42c3.3,0,6-2.7,6-6V296z M76,332H45v-30h31
		V332z"/>
	<path class="st0" d="M402,278V64.3c0.2-17.7-14-32.1-31.7-32.3c-0.1,0-0.2,0-0.3,0H337V6.1c0.1-3.2-2.4-6-5.7-6.1c0,0-0.1,0-0.1,0
		H281c-3.3,0-6,2.8-6,6.1V32H128V6.1c-0.1-3.4-2.8-6.1-6.1-6.1H71.6C68.3,0,66,2.8,66,6.1V32H32.3C14.4,32,0,46.5,0,64.3
		c0,0,0,0,0,0v282.9C0,365.1,14.4,380,32.3,380h252.5c0,0,0,0.4,0,0.6c0,57,46.5,103.4,103.7,103.4c57.1,0,103.5-46.4,103.4-103.5
		C491.9,328.6,453.4,284.8,402,278z M287,12h38v47h-38V12z M78,12h38v47H78V12z M32.3,44H66v21.4c-0.1,2.9,2.1,5.4,5.1,5.6
		c0.2,0,0.4,0,0.5,0h50.2c3.3,0,6.1-2.3,6.1-5.6V44h147v21.4c0,3.3,2.7,5.6,6,5.6h50.2c3,0.2,5.6-2.1,5.8-5.1c0-0.1,0-0.3,0-0.4V44
		h33.1c11,0,20,9,19.9,20c0,0.1,0,0.2,0,0.3V108H12V64.3C12,53.1,21,44,32.3,44C32.2,44,32.2,44,32.3,44z M32.3,368
		C21,368,12,358.5,12,347.2V120h378v157c0,0-1.1,0.2-1.8,0.2c-52.8,0-96.3,39.8-102.7,90.8H32.3z M388.4,471.9
		c-50.6,0-91.7-41-91.7-91.4s41.1-91.5,91.7-91.5s91.7,41,91.7,91.5S439,471.9,388.4,471.9z"/>
	<path class="st0" d="M433.1,318h-82c-9.4,0-17,7.5-17.1,16.9c0,0.1,0,0.2,0,0.3v91.3c0,0.1-0.2,0.1-0.2,0.2c0,0.1-0.1,0-0.1,0.1
		c0,9.5,7.7,17.2,17.1,17.2c0,0,0.1,0,0.1,0H427c3.1,0.2,5.8-2.2,6-5.4c0-0.1,0-0.2,0-0.3V422h0.1c3.3,0,5.9-3,5.9-6.4v-91.8
		c0-3.2-2.6-5.8-5.8-5.9C433.2,318,433.1,318,433.1,318z M346,335.2c-0.1-2.8,2-5.1,4.7-5.2c0.1,0,0.2,0,0.3,0h6.9v80h-6.9
		c-1.9,0-4.1-0.1-5.1,0.5V335.2z M421,432h-69.9c-2.8,0.2-5.2-1.9-5.4-4.6c-0.2-2.8,1.9-5.2,4.6-5.4c0.2,0,0.5,0,0.7,0H421V432z
		 M427,410h-57v-80h57V410z"/>
</g>
</svg>
