<?xml version="1.0" encoding="utf-8"?>
<!-- Generator: Adobe Illustrator 21.0.2, SVG Export Plug-In . SVG Version: 6.00 Build 0)  -->
<svg version="1.1" id="Layer_1" xmlns="http://www.w3.org/2000/svg" xmlns:xlink="http://www.w3.org/1999/xlink" x="0px" y="0px"
	 viewBox="0 0 480 480" style="enable-background:new 0 0 480 480;" xml:space="preserve">
<style type="text/css">
	.st0{fill:#ffffff;}
</style>
<g id="Book-Study-Student-Share-Education">
	<path class="st0" d="M368,184h-24v-24c0-4.4-3.6-8-8-8h-64c-12.6,0-24.5,6.1-32,16.2c-7.5-10.2-19.4-16.2-32-16.2h-64
		c-4.4,0-8,3.6-8,8v24h-24c-4.4,0-8,3.6-8,8v128c0,4.4,3.6,8,8,8h256c4.4,0,8-3.6,8-8V192C376,187.6,372.4,184,368,184z M136,312
		h-16V200h16V312z M152,312v-16h56c10.2,0,19.2,6.4,22.6,16H152z M232,288.2c-6.9-5.3-15.3-8.2-24-8.2h-56V168h56
		c13.2,0,24,10.8,24,24V288.2z M328,312h-78.6c3.4-9.6,12.5-16,22.6-16h56V312z M328,280h-56c-8.7,0-17.1,2.9-24,8.2V192
		c0-13.2,10.8-24,24-24h56V280z M360,312h-16V200h16V312z"/>
	<path class="st0" d="M168,184h48v16h-48V184z"/>
	<path class="st0" d="M168,216h48v16h-48V216z"/>
	<path class="st0" d="M168,248h48v16h-48V248z"/>
	<path class="st0" d="M264,184h48v16h-48V184z"/>
	<path class="st0" d="M264,216h48v16h-48V216z"/>
	<path class="st0" d="M264,248h48v16h-48V248z"/>
	<path class="st0" d="M469.3,92.6l-22.2-14.7C452.8,72,456,64.2,456,56V32c0-17.7-14.3-32-32-32s-32,14.3-32,32v24
		c0,8.2,3.1,16,8.8,21.9l-22.1,14.6c-6.7,4.4-10.7,12-10.7,20V136c0,4.4,3.6,8,8,8h96c4.4,0,8-3.6,8-8v-23.4
		C480,104.5,476,97,469.3,92.6z M408,32c0-8.8,7.2-16,16-16c7.3,0,13.7,5,15.5,12.1l-1.8-1.8c-3.1-3.1-8.2-3.1-11.4,0L415,37.6
		c-1.5,1.5-3.5,2.4-5.7,2.4H408L408,32z M409.4,56c6.4,0,12.5-2.5,17-7l5.6-5.7l8,8V56c0,4.6-1.9,8.9-5.4,11.9
		c-6.1,5.3-15.2,5.3-21.3,0l-0.6-0.6c-3-3-4.7-7-4.7-11.3H409.4z M464,128h-80v-15.4c0-2.7,1.4-5.2,3.6-6.6l28.6-19
		c5.1,1.5,10.6,1.5,15.7,0l28.6,19c2.2,1.5,3.6,4,3.6,6.6V128z"/>
	<path class="st0" d="M101.3,92.6L79.1,77.8C84.8,72,88,64.2,88,56V32C88,14.3,73.7,0,56,0S24,14.3,24,32v24c0,8.2,3.1,16,8.8,21.9
		L10.7,92.6C4,97,0,104.5,0,112.6V136c0,4.4,3.6,8,8,8l0,0h96c4.4,0,8-3.6,8-8v-23.4C112,104.5,108,97,101.3,92.6z M40,32
		c0-8.8,7.2-16,16-16c7.3,0,13.7,5,15.5,12.1l-1.8-1.8c-3.1-3.1-8.2-3.1-11.4,0L47,37.6c-1.5,1.5-3.5,2.4-5.7,2.4H40L40,32z
		 M41.4,56c6.4,0,12.5-2.5,17-7l5.6-5.7l8,8V56c0,4.6-1.9,8.9-5.4,11.9c-6.1,5.3-15.2,5.3-21.3,0l-0.6-0.6c-3-3-4.7-7-4.7-11.3H41.4
		z M96,128H16v-15.4c0-2.7,1.4-5.2,3.6-6.6l28.6-19c2.6,0.7,5.2,1.1,7.8,1.1c2.6,0,5.3-0.4,7.8-1.1l28.6,19c2.2,1.5,3.6,4,3.6,6.6
		L96,128z"/>
	<path class="st0" d="M469.3,428.6l-22.2-14.7c5.7-5.9,8.9-13.7,8.9-21.8v-24c0-17.7-14.3-32-32-32s-32,14.3-32,32v24
		c0,8.2,3.1,16,8.8,21.9l-22.1,14.6c-6.7,4.4-10.7,12-10.7,20V472c0,4.4,3.6,8,8,8h96c4.4,0,8-3.6,8-8v-23.4
		C480,440.5,476,433,469.3,428.6L469.3,428.6z M408,368c0-8.8,7.2-16,16-16c7.3,0,13.7,5,15.5,12.1l-1.8-1.8
		c-3.1-3.1-8.2-3.1-11.4,0L415,373.6c-1.5,1.5-3.5,2.4-5.7,2.4H408L408,368z M409.4,392c6.4,0,12.5-2.5,17-7l5.6-5.7l8,8v4.7
		c0,4.6-1.9,8.9-5.4,11.9c-6.1,5.3-15.2,5.3-21.3,0l-0.6-0.6c-3-3-4.7-7-4.7-11.3H409.4z M464,464h-80v-15.4c0-2.7,1.4-5.2,3.6-6.6
		l28.6-19c5.1,1.5,10.6,1.5,15.7,0l28.6,19c2.2,1.5,3.6,4,3.6,6.6V464z"/>
	<path class="st0" d="M101.3,428.6l-22.2-14.7C84.8,408,88,400.2,88,392v-24c0-17.7-14.3-32-32-32s-32,14.3-32,32v24
		c0,8.2,3.1,16,8.8,21.9l-22.1,14.6C4,433,0,440.5,0,448.6V472c0,4.4,3.6,8,8,8h0h96c4.4,0,8-3.6,8-8v-23.4
		C112,440.5,108,433,101.3,428.6L101.3,428.6z M40,368c0-8.8,7.2-16,16-16c7.3,0,13.7,5,15.5,12.1l-1.8-1.8c-3.1-3.1-8.2-3.1-11.4,0
		L47,373.6c-1.5,1.5-3.5,2.4-5.7,2.4H40L40,368z M41.4,392c6.4,0,12.5-2.5,17-7l5.6-5.7l8,8v4.7c0,4.6-1.9,8.9-5.4,11.9
		c-6.1,5.3-15.2,5.3-21.3,0l-0.6-0.6c-3-3-4.7-7-4.7-11.3H41.4z M96,464H16v-15.4c0-2.7,1.4-5.2,3.6-6.6l28.6-19
		c2.6,0.7,5.2,1.1,7.8,1.1c2.6,0,5.3-0.4,7.8-1.1l28.6,19c2.2,1.5,3.6,4,3.6,6.6L96,464z"/>
	<path class="st0" d="M296,115.3l53.7-53.7l-11.3-11.3l-56,56c-1.5,1.5-2.3,3.5-2.3,5.7v24h16V115.3z"/>
	<path class="st0" d="M184,136h16v-24c0-2.1-0.8-4.2-2.3-5.7l-56-56l-11.3,11.3l53.7,53.7V136z"/>
	<path class="st0" d="M296,344h-16v24c0,2.1,0.8,4.2,2.3,5.7l56,56l11.3-11.3L296,364.7V344z"/>
	<path class="st0" d="M184,364.7l-53.7,53.7l11.3,11.3l56-56c1.5-1.5,2.3-3.5,2.3-5.7v-24h-16L184,364.7z"/>
	<path class="st0" d="M392,232h16v16h-16V232z"/>
	<path class="st0" d="M392,200h16v16h-16V200z"/>
	<path class="st0" d="M392,264h16v16h-16V264z"/>
	<path class="st0" d="M72,232h16v16H72V232z"/>
	<path class="st0" d="M72,200h16v16H72V200z"/>
	<path class="st0" d="M72,264h16v16H72V264z"/>
</g>
</svg>
