<?xml version="1.0" encoding="utf-8"?>
<!-- Generator: Adobe Illustrator 21.0.2, SVG Export Plug-In . SVG Version: 6.00 Build 0)  -->
<svg version="1.1" id="Layer_1" xmlns="http://www.w3.org/2000/svg" xmlns:xlink="http://www.w3.org/1999/xlink" x="0px" y="0px"
	 viewBox="0 0 589.8 361.2" style="enable-background:new 0 0 589.8 361.2;" xml:space="preserve">
<style type="text/css">
	.st0{fill:#689F63;}
	.st1{fill:#333333;}
	.st2{clip-path:url(#SVGID_2_);}
	.st3{fill:url(#SVGID_3_);}
	.st4{clip-path:url(#SVGID_5_);}
	.st5{fill:url(#SVGID_6_);}
	.st6{clip-path:url(#SVGID_8_);}
	.st7{fill:url(#SVGID_9_);}
</style>
<path class="st0" d="M291.5,361.2c-1.9,0-3.9-0.5-5.6-1.5l-17.8-10.5c-2.7-1.5-1.4-2-0.5-2.3c3.5-1.2,4.3-1.5,8-3.7
	c0.4-0.2,0.9-0.1,1.3,0.1l13.7,8.1c0.5,0.3,1.2,0.3,1.7,0l53.3-30.7c0.5-0.3,0.8-0.9,0.8-1.4v-61.5c0-0.6-0.3-1.2-0.8-1.5
	l-53.2-30.7c-0.5-0.3-1.1-0.3-1.6,0l-53.2,30.7c-0.5,0.3-0.8,0.9-0.8,1.5v61.5c0,0.6,0.3,1.1,0.8,1.4l14.6,8.4
	c7.9,4,12.8-0.7,12.8-5.4V263c0-0.9,0.7-1.5,1.5-1.5h6.7c0.8,0,1.5,0.7,1.5,1.5v60.7c0,10.6-5.8,16.6-15.8,16.6
	c-3.1,0-5.5,0-12.3-3.3l-14-8.1c-3.5-2-5.6-5.7-5.6-9.7v-61.5c0-4,2.1-7.7,5.6-9.7l53.3-30.8c3.4-1.9,7.9-1.9,11.2,0l53.3,30.8
	c3.4,2,5.6,5.7,5.6,9.7v61.5c0,4-2.1,7.7-5.6,9.7l-53.3,30.8C295.4,360.7,293.5,361.2,291.5,361.2"/>
<path class="st0" d="M308,318.9c-23.3,0-28.2-10.7-28.2-19.7c0-0.9,0.7-1.5,1.5-1.5h6.9c0.8,0,1.4,0.6,1.5,1.3
	c1,7,4.1,10.5,18.2,10.5c11.2,0,16-2.5,16-8.5c0-3.4-1.4-6-18.8-7.7c-14.6-1.4-23.6-4.7-23.6-16.3c0-10.7,9.1-17.1,24.3-17.1
	c17.1,0,25.5,5.9,26.6,18.6c0,0.4-0.1,0.9-0.4,1.2c-0.3,0.3-0.7,0.5-1.1,0.5h-6.9c-0.7,0-1.3-0.5-1.5-1.2c-1.7-7.4-5.7-9.7-16.6-9.7
	c-12.3,0-13.7,4.3-13.7,7.5c0,3.9,1.7,5,18.2,7.2c16.4,2.2,24.1,5.2,24.1,16.7C334.5,312.3,324.8,318.9,308,318.9 M372.8,253.8h1.8
	c1.5,0,1.7-1,1.7-1.6c0-1.6-1.1-1.6-1.7-1.6h-1.8L372.8,253.8z M370.6,248.7h4c1.4,0,4,0,4,3c0,2.1-1.4,2.6-2.2,2.8
	c1.6,0.1,1.7,1.1,1.9,2.6c0.1,0.9,0.3,2.5,0.6,3h-2.4c-0.1-0.5-0.4-3.5-0.4-3.6c-0.2-0.7-0.4-1-1.2-1h-2v4.6h-2.2V248.7z
	 M365.9,254.5c0,4.8,3.9,8.6,8.6,8.6c4.8,0,8.6-3.9,8.6-8.6c0-4.8-3.9-8.6-8.6-8.6C369.8,245.9,365.8,249.6,365.9,254.5
	 M384.7,254.5c0,5.7-4.6,10.3-10.3,10.3c-5.6,0-10.3-4.6-10.3-10.3c0-5.8,4.8-10.3,10.3-10.3C380,244.2,384.7,248.7,384.7,254.5"/>
<path class="st1" d="M126.6,120.7c0-2.5-1.3-4.7-3.4-5.9L66.7,82.3c-1-0.6-2-0.9-3.1-0.9H63c-1.1,0-2.2,0.3-3.1,0.9L3.4,114.8
	C1.3,116,0,118.3,0,120.7l0.1,87.5c0,1.2,0.6,2.3,1.7,2.9c1,0.6,2.3,0.6,3.4,0L38.8,192c2.1-1.3,3.4-3.5,3.4-5.9v-40.9
	c0-2.4,1.3-4.7,3.4-5.9l14.3-8.2c1.1-0.6,2.2-0.9,3.4-0.9c1.2,0,2.4,0.3,3.4,0.9l14.3,8.2c2.1,1.2,3.4,3.5,3.4,5.9v40.9
	c0,2.4,1.3,4.7,3.4,5.9l33.6,19.2c1.1,0.6,2.4,0.6,3.4,0c1-0.6,1.7-1.7,1.7-2.9L126.6,120.7z M393.1,166.3c0,0.6-0.3,1.2-0.9,1.5
	L372.8,179c-0.5,0.3-1.2,0.3-1.7,0l-19.4-11.2c-0.5-0.3-0.9-0.9-0.9-1.5v-22.4c0-0.6,0.3-1.2,0.8-1.5l19.4-11.2
	c0.5-0.3,1.2-0.3,1.7,0l19.4,11.2c0.5,0.3,0.9,0.9,0.9,1.5L393.1,166.3z M398.3,0.4c-1.1-0.6-2.3-0.6-3.4,0c-1,0.6-1.7,1.7-1.7,2.9
	v86.7c0,0.9-0.5,1.6-1.2,2.1c-0.7,0.4-1.6,0.4-2.4,0L375.5,84c-2.1-1.2-4.7-1.2-6.8,0l-56.5,32.6c-2.1,1.2-3.4,3.5-3.4,5.9v65.2
	c0,2.4,1.3,4.7,3.4,5.9l56.5,32.6c2.1,1.2,4.7,1.2,6.8,0l56.5-32.6c2.1-1.2,3.4-3.5,3.4-5.9V25.2c0-2.5-1.3-4.8-3.5-6L398.3,0.4z
	 M586.4,143.3c2.1-1.2,3.4-3.5,3.4-5.9v-15.8c0-2.4-1.3-4.7-3.4-5.9l-56.1-32.6c-2.1-1.2-4.7-1.2-6.8,0L467,115.7
	c-2.1,1.2-3.4,3.5-3.4,5.9v65.2c0,2.5,1.3,4.7,3.4,5.9l56.1,32c2.1,1.2,4.6,1.2,6.7,0l33.9-18.9c1.1-0.6,1.7-1.7,1.7-3
	c0-1.2-0.7-2.4-1.7-3L507,167.4c-1.1-0.6-1.7-1.7-1.7-2.9V144c0-1.2,0.6-2.3,1.7-3l17.7-10.2c1.1-0.6,2.3-0.6,3.4,0l17.7,10.2
	c1.1,0.6,1.7,1.7,1.7,2.9v16.1c0,1.2,0.7,2.3,1.7,3c1.1,0.6,2.4,0.6,3.4,0L586.4,143.3z"/>
<path class="st0" d="M526.1,140.3c0.4-0.2,0.9-0.2,1.3,0l10.8,6.3c0.4,0.2,0.7,0.7,0.7,1.1v12.5c0,0.5-0.2,0.9-0.7,1.1l-10.8,6.3
	c-0.4,0.2-0.9,0.2-1.3,0l-10.8-6.3c-0.4-0.2-0.7-0.7-0.7-1.1v-12.5c0-0.5,0.2-0.9,0.7-1.1L526.1,140.3z"/>
<g>
	<defs>
		<path id="SVGID_1_" d="M214.3,83.5l-56.2,32.4c-2.1,1.2-3.4,3.5-3.4,5.9v64.9c0,2.4,1.3,4.7,3.4,5.9l56.2,32.4
			c2.1,1.2,4.7,1.2,6.8,0l56.2-32.4c2.1-1.2,3.4-3.5,3.4-5.9v-64.9c0-2.4-1.3-4.7-3.4-5.9l-56.2-32.4c-1.1-0.6-2.2-0.9-3.4-0.9
			S215.3,82.8,214.3,83.5"/>
	</defs>
	<clipPath id="SVGID_2_">
		<use xlink:href="#SVGID_1_"  style="overflow:visible;"/>
	</clipPath>
	<g transform="translate(-78.306 -164.016)" class="st2">
		
			<linearGradient id="SVGID_3_" gradientUnits="userSpaceOnUse" x1="322.8739" y1="392.6089" x2="324.473" y2="392.6089" gradientTransform="matrix(-50.7531 103.536 103.536 50.7531 -23925.7188 -53119.6055)">
			<stop  offset="0.3" style="stop-color:#3E863D"/>
			<stop  offset="0.5" style="stop-color:#55934F"/>
			<stop  offset="0.8" style="stop-color:#5AAD45"/>
		</linearGradient>
		<path class="st3" d="M415.7,274.4l-158.3-77.6l-81.2,165.6L334.6,440L415.7,274.4z"/>
	</g>
</g>
<g>
	<defs>
		<path id="SVGID_4_" d="M156.1,190.8c0.5,0.7,1.2,1.3,2,1.8l48.2,27.8l8,4.6c1.2,0.7,2.6,1,3.9,0.9c0.4,0,0.9-0.1,1.3-0.2
			l59.2-108.5c-0.5-0.5-1-0.9-1.6-1.3l-36.8-21.2L221,83.4c-0.6-0.3-1.2-0.5-1.8-0.7L156.1,190.8z"/>
	</defs>
	<clipPath id="SVGID_5_">
		<use xlink:href="#SVGID_4_"  style="overflow:visible;"/>
	</clipPath>
	<g transform="translate(-78.306 -164.016)" class="st4">
		
			<linearGradient id="SVGID_6_" gradientUnits="userSpaceOnUse" x1="322.1767" y1="396.4395" x2="323.2146" y2="396.4395" gradientTransform="matrix(142.4074 -105.2221 -105.2221 -142.4074 -3944.2524 90728.9844)">
			<stop  offset="0.57" style="stop-color:#3E863D"/>
			<stop  offset="0.72" style="stop-color:#619857"/>
			<stop  offset="1" style="stop-color:#76AC64"/>
		</linearGradient>
		<path class="st5" d="M166,297.3l111.8,151.3l147.8-109.2L313.8,188.1L166,297.3z"/>
	</g>
</g>
<g>
	<defs>
		<path id="SVGID_7_" d="M217,82.6c-0.9,0.1-1.9,0.4-2.7,0.9l-56,32.3l60.4,110c0.8-0.1,1.7-0.4,2.4-0.8l56.2-32.4
			c1.7-1,2.9-2.7,3.3-4.6L219,82.7c-0.5-0.1-0.9-0.1-1.4-0.1C217.4,82.6,217.2,82.6,217,82.6"/>
	</defs>
	<clipPath id="SVGID_8_">
		<use xlink:href="#SVGID_7_"  style="overflow:visible;"/>
	</clipPath>
	<g transform="translate(-78.306 -164.016)" class="st6">
		
			<linearGradient id="SVGID_9_" gradientUnits="userSpaceOnUse" x1="321.4625" y1="396.0246" x2="322.4036" y2="396.0246" gradientTransform="matrix(129.8891 0 0 -129.8891 -41517.8789 51757.4727)">
			<stop  offset="0.16" style="stop-color:#6BBF47"/>
			<stop  offset="0.38" style="stop-color:#79B461"/>
			<stop  offset="0.47" style="stop-color:#75AC64"/>
			<stop  offset="0.7" style="stop-color:#659E5A"/>
			<stop  offset="0.9" style="stop-color:#3E863D"/>
		</linearGradient>
		<path class="st7" d="M236.6,246.6v143.2h122.2V246.6L236.6,246.6z"/>
	</g>
</g>
</svg>
