<?xml version="1.0" encoding="utf-8"?>
<!-- Generator: Adobe Illustrator 21.0.2, SVG Export Plug-In . SVG Version: 6.00 Build 0)  -->
<svg version="1.1" id="OBJECTS" xmlns="http://www.w3.org/2000/svg" xmlns:xlink="http://www.w3.org/1999/xlink" x="0px" y="0px"
	 viewBox="0 0 675.7 396.7" style="enable-background:new 0 0 675.7 396.7;" xml:space="preserve">
<style type="text/css">
	.st0{fill:#D2D9FF;}
	.st1{fill:#77C6E9;}
	.st2{fill:none;stroke:#341F78;stroke-linecap:round;stroke-linejoin:round;stroke-miterlimit:10;}
	.st3{fill:#63B3CE;}
	.st4{fill:#4958ED;}
	.st5{fill:#3E50CE;}
	.st6{fill:#98A3F4;}
	.st7{fill:#808FD8;}
	.st8{fill:#2B284F;}
	.st9{fill:#FFFFFF;}
	.st10{fill:#E9EFFF;}
	.st11{fill:#7DA2FF;}
	.st12{fill:#F2C73C;}
	.st13{fill:#FFDA73;}
	.st14{fill:#E5827C;}
	.st15{fill:#BC4D88;}
	.st16{fill:#D3A629;}
	.st17{fill:#211D35;}
	.st18{fill:#F4F3FE;}
	.st19{fill:#3500B7;}
	.st20{fill:#1A0087;}
	.st21{fill:none;stroke:#98A3F4;stroke-miterlimit:10;}
	.st22{fill:#A3A3A3;}
	.st23{fill:#D3D3D3;}
	.st24{fill:#341F78;}
</style>
<g>
	<path class="st0" d="M627,173.1H506.6c1.1,0,2.2-0.1,3.3-0.1c-16.3-1.4-29-13.2-29-27.4v0c0-14.3,12.7-26,29-27.4
		c-1.1-0.1-2.2-0.1-3.3-0.1c17.9,0,32.3-12.3,32.3-27.6l0,0c0-15.2-14.5-27.6-32.3-27.6H91.8c-17.9,0-32.3,12.3-32.3,27.6l0,0
		c0,15.2,14.5,27.6,32.3,27.6h-8.3c17.9,0,32.3,12.3,32.3,27.6v0c0,15.2-14.5,27.6-32.3,27.6H48.7C21.8,173.1,0,191.7,0,214.7l0,0
		c0,22.9,21.8,41.5,48.7,41.5h34.9c17.9,0,32.3,12.4,32.3,27.6v0c0,15.2-14.5,27.6-32.3,27.6h8.3c-17.9,0-32.3,12.3-32.3,27.6v0
		c0,15.2,14.5,27.6,32.3,27.6h414.8c17.9,0,32.3-12.3,32.3-27.6v0c0-15.2-14.5-27.6-32.3-27.6c1.1,0,2.2-0.1,3.3-0.1
		c-16.3-1.4-29-13.2-29-27.4v0c0-14.3,12.7-26,29-27.4c-1.1-0.1-2.2-0.1-3.3-0.1H627c26.9,0,48.7-18.6,48.7-41.5l0,0
		C675.7,191.7,653.9,173.1,627,173.1z"/>
	<g>
		<path class="st1" d="M173.6,370.7c0,0-12.6,18.4-31.2,5c-18.6-13.4-16.2-9.5-39.3-9.2s-18.7-23.9-13.5-30.2
			c5.2-6.3,2.6-18.6-12.3-15.2s-30.8,3-24.9-14.9c5.9-17.8-10-22.3-16-36.8c-5.9-14.5-5.6-30.8,3.7-32.7c9.3-1.9,18.2,12.6,26,12.3
			c7.8-0.4,11.5-14.1,20.8-12.4c9.3,1.7,9.4,7.2,16,22.1c6.7,14.9,14.1,13.8,23.4,10.4c9.3-3.3,18.2,1.1,23,14.1
			c4.8,13,6.6,29.4,10.5,30.8C164,315.5,184,348.9,173.6,370.7z"/>
		<path class="st2" d="M64.8,263.5c0,0,82.4,42.3,108.8,107.2"/>
		
			<ellipse transform="matrix(0.7412 -0.6713 0.6713 0.7412 -176.0465 143.2605)" class="st3" cx="97.8" cy="299.9" rx="5.4" ry="11.5"/>
		
			<ellipse transform="matrix(0.7071 -0.7071 0.7071 0.7071 -162.2518 139.0304)" class="st3" cx="86.7" cy="265.4" rx="3.7" ry="5.6"/>
		
			<ellipse transform="matrix(0.7071 -0.7071 0.7071 0.7071 -169.9472 180.473)" class="st3" cx="132.9" cy="295.4" rx="6" ry="11.6"/>
		
			<ellipse transform="matrix(0.7737 -0.6336 0.6336 0.7737 -189.2467 162.477)" class="st3" cx="132.8" cy="346.1" rx="11.2" ry="16.8"/>
	</g>
	<g>
		<path class="st4" d="M171.4,369.7c0,0-24.9-55.3-49.1-92.7c-24.2-37.4-21.2-76,8.9-79.7C161.3,193.5,187.3,260,171.4,369.7z"/>
		<path class="st2" d="M138.4,222.9c0,0,35.6,65.4,33,146.8"/>
		
			<ellipse transform="matrix(0.9405 -0.3399 0.3399 0.9405 -72.9504 57.4825)" class="st5" cx="127.6" cy="237" rx="6.2" ry="12.1"/>
		
			<ellipse transform="matrix(0.9405 -0.3399 0.3399 0.9405 -82.111 64.2241)" class="st5" cx="142.3" cy="266.5" rx="3.9" ry="7.6"/>
		<ellipse transform="matrix(0.9405 -0.3399 0.3399 0.9405 -74.6669 69.1187)" class="st5" cx="160" cy="247.7" rx="5.1" ry="12"/>
		<ellipse transform="matrix(0.9207 -0.3902 0.3902 0.9207 -103.056 82.7223)" class="st5" cx="152" cy="295" rx="2.4" ry="4"/>
	</g>
	<g>
		<path class="st6" d="M124.3,381.8c0,0-4.2-5.6,2.8-12.7c0,0-4.1-23.9,20.3-27.1c0,0,4.6-16.1,18.4-17.9c13.8-1.8,24.8,6.9,28,18.8
			c0,0,10.6-3.7,20.2,2.8c9.6,6.4,8.7,19.8,8.7,19.8s10.6,3.8,6.4,16.4H124.3z"/>
		<path class="st7" d="M170.4,355.5c0,0-7.8,0-9.3-13.5c-0.8-7,2.2-13.4,5.3-18c-0.2,0-0.4,0-0.5,0c-13.8,1.8-18.4,17.9-18.4,17.9
			c-24.3,3.2-20.3,27.1-20.3,27.1c-7.1,7.1-2.8,12.7-2.8,12.7h44.4C156.1,368.7,170.4,355.5,170.4,355.5z"/>
	</g>
	<g>
		<path class="st1" d="M501,370.7c0,0,12.6,18.4,31.2,5c18.6-13.4,16.2-9.5,39.3-9.2c23.1,0.3,18.7-23.9,13.5-30.2
			c-5.2-6.3-2.6-18.6,12.3-15.2c14.9,3.3,30.8,3,24.9-14.9c-5.9-17.8,10-22.3,16-36.8c5.9-14.5,5.6-30.8-3.7-32.7
			c-9.3-1.9-18.2,12.6-26,12.3c-7.8-0.4-11.5-14.1-20.8-12.4c-9.3,1.7-9.4,7.2-16,22.1c-6.7,14.9-14.1,13.8-23.4,10.4
			c-9.3-3.3-18.2,1.1-23,14.1c-4.8,13-6.6,29.4-10.5,30.8C510.6,315.5,490.6,348.9,501,370.7z"/>
		<path class="st2" d="M609.8,263.5c0,0-82.4,42.3-108.8,107.2"/>
		
			<ellipse transform="matrix(0.6713 -0.7412 0.7412 0.6713 -32.6992 526.1365)" class="st3" cx="576.9" cy="299.9" rx="11.5" ry="5.4"/>
		
			<ellipse transform="matrix(0.7071 -0.7071 0.7071 0.7071 -15.451 493.4384)" class="st3" cx="587.9" cy="265.4" rx="5.6" ry="3.7"/>
		
			<ellipse transform="matrix(0.7071 -0.7071 0.7071 0.7071 -50.1952 469.5841)" class="st3" cx="541.7" cy="295.4" rx="11.6" ry="6"/>
		
			<ellipse transform="matrix(0.6336 -0.7737 0.7737 0.6336 -69.2527 545.9991)" class="st3" cx="541.8" cy="346.1" rx="16.8" ry="11.2"/>
	</g>
	<g>
		<path class="st4" d="M503.3,369.7c0,0,24.9-55.3,49.1-92.7c24.2-37.4,21.2-76-8.9-79.7C513.3,193.5,487.3,260,503.3,369.7z"/>
		<path class="st2" d="M536.3,222.9c0,0-35.6,65.4-33,146.8"/>
		<ellipse transform="matrix(0.3399 -0.9405 0.9405 0.3399 138.2011 670.8748)" class="st5" cx="547" cy="237" rx="12.1" ry="6.2"/>
		
			<ellipse transform="matrix(0.3399 -0.9405 0.9405 0.3399 100.7637 676.5659)" class="st5" cx="532.3" cy="266.5" rx="7.6" ry="3.9"/>
		
			<ellipse transform="matrix(0.3399 -0.9405 0.9405 0.3399 106.7641 647.519)" class="st5" cx="514.6" cy="247.7" rx="12" ry="5.1"/>
		<ellipse transform="matrix(0.3903 -0.9207 0.9207 0.3903 47.0543 660.9922)" class="st5" cx="522.6" cy="295" rx="4" ry="2.4"/>
	</g>
	<g>
		<path class="st6" d="M550.3,381.8c0,0,4.2-5.6-2.8-12.7c0,0,4.1-23.9-20.3-27.1c0,0-4.6-16.1-18.4-17.9
			c-13.8-1.8-24.8,6.9-28,18.8c0,0-10.6-3.7-20.2,2.8c-9.6,6.4-8.7,19.8-8.7,19.8s-10.6,3.8-6.4,16.4H550.3z"/>
		<path class="st7" d="M504.2,355.5c0,0,7.8,0,9.3-13.5c0.8-7-2.2-13.4-5.3-18c0.2,0,0.4,0,0.5,0c13.8,1.8,18.4,17.9,18.4,17.9
			c24.3,3.2,20.3,27.1,20.3,27.1c7.1,7.1,2.8,12.7,2.8,12.7H506C518.5,368.7,504.2,355.5,504.2,355.5z"/>
	</g>
	<path class="st8" d="M495.7,336.4H180c-9.1,0-16.4-7.4-16.4-16.4V118.6c0-9.1,7.4-16.4,16.4-16.4h315.8c9.1,0,16.4,7.4,16.4,16.4
		v201.3C512.2,329,504.8,336.4,495.7,336.4z"/>
	<path class="st9" d="M488.3,331.4h-301c-9.1,0-16.4-7.4-16.4-16.4V123.6c0-9.1,7.4-16.4,16.4-16.4h301c9.1,0,16.4,7.4,16.4,16.4
		V315C504.7,324,497.4,331.4,488.3,331.4z"/>
	<rect x="176.9" y="122.3" class="st0" width="317.4" height="10.4"/>
	<rect x="241.6" y="276.9" class="st0" width="188.1" height="4.5"/>
	<rect x="241.6" y="288.4" class="st0" width="188.1" height="4.5"/>
	<rect x="241.6" y="299.9" class="st0" width="188.1" height="4.5"/>
	<rect x="304.6" y="336.4" class="st10" width="61.9" height="26"/>
	<path class="st11" d="M375.6,370.7h-79.9v-1c0-4,3.3-7.3,7.3-7.3h65.3c4,0,7.3,3.3,7.3,7.3V370.7z"/>
	<path class="st11" d="M10,92.8c0,0,11.1-26.1,19-26.1c7.9,0,11.5,7.2,15.5,5.9c4-1.2,12.2-36,24.5-34.7
		c12.3,1.3,10.5,30.5,22.8,32.7c12.3,2.3,19.5-17.6,33.2-14.3s16.6,28.4,20.2,34.5c3.6,6.2,9.3,10.5,1.8,10.5
		C139.5,101.5-7,101.2,10,92.8z"/>
	<path class="st11" d="M448.5,68.8c0,0,12-8.6,23.4-32.2c11.3-23.6,24.3-22.1,28.7-20.8c4.4,1.4,11,17,16.5,31.1
		c5.6,14.1,12.6,8.5,16.6-3.9c4-12.4,12.9-4.5,14.1,0.4c1.2,4.9,3.3,14,11.7,11.1s11.2-0.9,12.1,3.6c0.9,4.5,5.9,7,24.1,8.4
		c18.2,1.4,25.9,8.9,13.2,11.1C596,79.9,407.3,78.8,448.5,68.8z"/>
	<g>
		<path class="st12" d="M462.5,222.6V258c0,0.9,0.7,1.5,1.5,1.5l0,0c0.9,0,1.5-0.7,1.5-1.5v-17.2c0-1.6,1.3-2.8,2.8-2.8l0,0
			c1.6,0,2.8,1.3,2.8,2.8v23.6c0,1.9,1.6,3.5,3.5,3.5l0,0c1.9,0,3.5-1.6,3.5-3.5v-22.2c0-1.8,1.5-3.3,3.3-3.3l0,0
			c1.8,0,3.3,1.5,3.3,3.3l0,0c0,1.7,1.3,3,3,3h1.2c2.3,0,4.2-1.9,4.2-4.2v-18.5H462.5z"/>
		<path class="st13" d="M492.8,222.6h-29.2c-1,0-1.8-0.8-1.8-1.8v-3.5c0-1,0.8-1.8,1.8-1.8h29.2c1,0,1.8,0.8,1.8,1.8v3.5
			C494.6,221.8,493.8,222.6,492.8,222.6z"/>
	</g>
	<g>
		<path class="st14" d="M549.6,242.2c0,0-2.1,8.2-3.1,13c-1,4.8,7.6,6.8,7.6,6.8l-0.7,4.2c0,0,4.7-0.2,6.2,2.1l2.4-9.5
			c0,0,2.5-2.6,2-5.8c-0.5-3.2-3.8-2.8-5,0c0,0-3.7-4-3.7-9.3C555.1,243.7,552.7,245.1,549.6,242.2z"/>
		<path class="st15" d="M568.5,243.6c0,0,1.1-3.2-1.1-5.6s-6.6-2.5-9.9-2c-0.6,0.1-3.1-0.1-6.4-1.2c-3.3-1.1-6.9,0-7.7,3.5
			c-0.7,3.5,5.1,8.1,5.1,8.1l0,0c0.6-2.4,1-4.2,1-4.2c3.1,2.8,5.6,1.5,5.6,1.5c0,5.3,3.7,9.3,3.7,9.3c1.1-2.8,4.5-3.2,5,0
			c0.5,3.2-2,5.8-2,5.8s6.2-3.2,7.7-7.7C571,246.7,568.5,243.6,568.5,243.6z"/>
		<path class="st12" d="M553.3,266.2c0,0-6.9-0.6-12.3-1.7c-5.3-1.1-31.2-11.8-31.2-11.8s-2.2,2.4-2.2,5.2c0,0,16.6,11.3,22.9,13.8
			c6.3,2.5,13.4,6.9,13.4,6.9s-0.5,19.2,0,26c0.5,6.8,0.5,9.2,0.5,9.2s11.9,1.1,21.2-1.9c0,0-1-23.4-1.7-29.9s-4.4-13.8-4.4-13.8
			S557.3,265.4,553.3,266.2z"/>
		<path class="st16" d="M543.7,288.5c0.1-5.4,0.2-9.9,0.2-9.9s-0.9-0.5-2.3-1.4c0,0-8.7,7.6-9.4,7.7c-0.6,0.1-8.7-7.7-8.7-7.7
			c-1.7,0.6-4.2,2.7-4.2,2.7s9,13.8,11.8,14.4C533.8,295,543.7,288.5,543.7,288.5L543.7,288.5z"/>
		<path class="st14" d="M521.4,270.4c0,0,1.4,5.3,2.2,6.9c0,0-2.7,1.2-4.2,2.7c0,0-2.8-1.6-4.6-4.8s-2.3-4.2,1.4-6.1
			C519.9,267.1,520.6,267.7,521.4,270.4z"/>
		<polygon class="st16" points="543.9,278.6 547.5,280.7 543.9,282.9 		"/>
		<path class="st14" d="M530.9,377.4l2.5,9.3c0,0,2,2.6,6,0.7l-1.9-9.9H530.9z"/>
		<path class="st4" d="M523,393.7c0,0,0.6-1.5,3.7-2.1c3.2-0.7,6.7-4.8,6.7-4.8s2,2.7,6,0.7c0,0,1.4,3.7,1.1,6.3
			C540.6,393.7,523.7,395.9,523,393.7z"/>
		<path class="st14" d="M565.8,376.5l2.5,9.3c0,0,2,2.6,6,0.7l-1.6-11.2L565.8,376.5z"/>
		<path class="st4" d="M557.9,392.8c0,0,0.6-1.5,3.7-2.1c3.2-0.7,6.7-4.8,6.7-4.8s2,2.7,6,0.7c0,0,1.4,3.7,1.1,6.3
			C575.5,392.8,558.6,395,557.9,392.8z"/>
		<path class="st17" d="M565.9,377.4c0,0,4-0.7,6.8-2.2c0,0-4.9-28.6-6.8-36.4c-1.9-7.8-4.1-19.1-4.1-19.1l-13.9,16.7
			C547.8,336.4,563,366.6,565.9,377.4z"/>
		<path class="st8" d="M565.6,312c-9.3,3-21.2,1.9-21.2,1.9s-17,32.6-18.1,37.6c-1.1,5,4.6,26,4.6,26s3.5,2.2,6.5,0.7
			c0,0-0.6-21,0.2-25.1c0.7-4.1,15.8-19.3,23-26.9C567.9,318.5,565.6,312,565.6,312z"/>
		<polygon class="st18" points="478,222.6 517.2,273.4 519.6,271.4 482.9,222.6 		"/>
		<path class="st14" d="M509.8,252.7c0,0-3.9-2.7-5.6-3.7c-1.8-1-4-3.4-4-3.4s-0.3,1.9-1.1,2.2c-0.8,0.4-3.4,1.2-3.7,2
			c-0.3,0.7,0.5,2.2,0.7,3c0.3,0.7-0.4,1.8,0.2,2.5c0.6,0.7,0.3,2,1.2,2.1c0.9,0.1,6.2-0.1,7.5,0c1.3,0.1,2.6,0.6,2.6,0.6
			S507.4,255.4,509.8,252.7z"/>
		<path class="st14" d="M519.3,277.6c0,0-2.3-2.8,0-4.6c0,0-3.8,0.2-2.9-1.1c0.9-1.3,2.9-2.5,4.5-2.7l2,6.6L519.3,277.6z"/>
	</g>
	<g>
		
			<rect x="223.9" y="152.8" transform="matrix(0.9783 0.207 -0.207 0.9783 50.8132 -63.1318)" class="st6" width="206.4" height="117"/>
		
			<rect x="235.6" y="146.5" transform="matrix(0.9783 0.207 -0.207 0.9783 46.3942 -49.2623)" class="st7" width="46.1" height="101.2"/>
		
			<rect x="300.3" y="171.3" transform="matrix(0.9783 0.207 -0.207 0.9783 44.5296 -71.5361)" class="st7" width="127.6" height="11.5"/>
		
			<rect x="296.1" y="191.3" transform="matrix(0.9783 0.207 -0.207 0.9783 48.5874 -70.224)" class="st7" width="127.6" height="11.5"/>
		
			<rect x="291.7" y="211.8" transform="matrix(0.9783 0.207 -0.207 0.9783 52.7384 -68.8817)" class="st7" width="127.6" height="11.5"/>
		
			<rect x="287.1" y="233.7" transform="matrix(0.9783 0.207 -0.207 0.9783 57.1683 -67.4492)" class="st7" width="127.6" height="11.5"/>
	</g>
	<g>
		<path class="st14" d="M244.6,55.3c0,0-6.1-0.5-8-1c0,0-0.7,3.2-2.1,5.2c0,0,2.3,2.8,6.2,4.1c3.9,1.3,5,1.7,6.4-2.8
			C248.5,56.2,247.7,55.6,244.6,55.3z"/>
		<path class="st15" d="M246.3,10c0,0-1.7-7.7-8.9-9.5c-7.3-1.9-19.9,2.5-19.9,13.9s2.1,26.8,2.1,26.8s11.6,2.3,18.9,0
			c7.3-2.3,7.3-2.3,7.3-2.3s-3.3-7.7-2.5-12.9C244,20.7,249.3,15.8,246.3,10z"/>
		<path class="st14" d="M243.6,12.7c0,0-10.4,3.7-15.8,0c0,0,1.2-3.1-1.5-4.4c-2.7-1.2-6.6,3.5-5.8,8.5l-6.4,4.2
			c0,0,4.4,0.9,5.8,5.7l4.8-2.5c0,0,0.8,4.4,5.2,4.1C234.2,28.2,240.7,20.1,243.6,12.7z"/>
		<path class="st19" d="M183.4,39.8c0,0,21.4-19.7,30.7-18.8c0,0,5,0.7,5.8,5.7l1.9,20.1L232.3,61c0,0-0.8,3.7-3.5,4.4
			c0,0-13.9-11.4-14.7-14.1c-0.8-2.7-1.5-9.2-1.5-9.2s-5,1.7-7.1,5.2c-2.1,3.5-2.5,8.5-2.5,8.5S181.7,52.3,183.4,39.8z"/>
		<path class="st7" d="M203.1,55.8c0,0,11,10,15.1,13.7c4.1,3.7,5,27.4,5,27.4s-1.7,1.9-5.8,1c0,0-3.7-10.4-4.3-19.1l-17.7-10.2
			l-0.9-15.4L203.1,55.8z"/>
		<path class="st4" d="M194.5,53.3L194.5,53.3c-5.7-2.3-12-6.5-11.1-13.5c0,0-7.1,5.8-6,15.8c1,10,11,20.3,11,20.3
			c-4.1,7.1-7.9,24.9-7.9,24.9c0.2,3.5,4.8,2.5,4.8,2.5s14.9-23.2,14.1-27.4C198.5,71.8,194.5,53.3,194.5,53.3z"/>
		<path class="st20" d="M212.7,42.1v-8.5L208.9,44C208.9,44,210.6,42.9,212.7,42.1z"/>
		<path class="st20" d="M221.8,46.9l9.1,12.2L234,60c2.6-3.3,2.7-6.7,2.7-6.7L221.8,46.9z"/>
		<path class="st6" d="M180.5,100.8c0,0-2.1,2.7-1.5,7.5c0,0,10.4,1.5,14.8,0.7c0,0-3.7-3.3-8.5-5.7
			C185.3,103.3,181.3,104.6,180.5,100.8z"/>
		<path class="st6" d="M217.4,97.9v5.5c0,0,8.4,1.5,15.5,0c0,0-2.5-2.6-5.8-3.7c-3.3-1.1-3.9-2.9-3.9-2.9S221.2,98.5,217.4,97.9z"/>
		<path class="st14" d="M228.8,65.4c0,0,2.1,2.9,4.1,3c1.9,0.1,1.7,1.4,3.2,1.5c1.5,0.1,2.5,0.1,3.7-1.7c1.2-1.8,0.4,0.1,1.2-1.8
			c0.8-1.9-8.8-5.5-8.8-5.5S231.5,63.7,228.8,65.4z"/>
		<line class="st21" x1="241.2" y1="138" x2="241.2" y2="55.7"/>
		<path class="st14" d="M237.1,59c0,0,3.6,1.9,5-0.9c0,0,0.6,4.3,1.8,3c1.2-1.3,2.1-3.7,2.1-5.5l-7.7-0.9L237.1,59z"/>
	</g>
	<g>
		<rect x="445.1" y="363.8" class="st22" width="23.6" height="32.9"/>
		<polygon class="st23" points="445.1,396.7 468.7,396.7 445.1,363.8 		"/>
		<path class="st12" d="M445.3,362.4h23c0.8,0,1.5,0.7,1.5,1.5v10.2c0,0-0.2,3.2-2.5,1.9c-2.4-1.3-1.3-5.6-2.7-6.6
			c-1.8-1.3-5.2,3.2-3.7,7.1c0.9,2.5-0.5,4.5-3.1,4.1c-3.9-0.6-2.1-8.7-3.9-10.6c-1.6-1.8-4.8-1.3-5.4,3.9c-0.6,5.2-3.5,6.2-4.6,5.2
			c-0.9-0.8-0.3-11.4-0.1-15.3C443.8,363,444.5,362.4,445.3,362.4z"/>
	</g>
	<g>
		<g>
			<path class="st24" d="M172.2,389.4c-0.1,0-0.1,0-0.2,0c-0.9-0.1-1.6-0.9-1.5-1.9L193.3,165c0.1-0.9,0.9-1.6,1.9-1.5
				c0.9,0.1,1.6,0.9,1.5,1.9l-22.8,222.5C173.8,388.7,173.1,389.4,172.2,389.4z"/>
		</g>
		<g>
			<path class="st24" d="M241.6,389.4c-0.9,0-1.6-0.7-1.7-1.5l-22.8-222.5c-0.1-0.9,0.6-1.8,1.5-1.9c0.9-0.1,1.8,0.6,1.9,1.5
				l22.8,222.5c0.1,0.9-0.6,1.8-1.5,1.9C241.7,389.4,241.6,389.4,241.6,389.4z"/>
		</g>
		<g>
			<path class="st24" d="M221.2,191.1h-28.6c-0.9,0-1.7-0.8-1.7-1.7s0.8-1.7,1.7-1.7h28.6c0.9,0,1.7,0.8,1.7,1.7
				S222.1,191.1,221.2,191.1z"/>
		</g>
		<g>
			<path class="st24" d="M224.3,220.2h-34.7c-0.9,0-1.7-0.8-1.7-1.7c0-0.9,0.8-1.7,1.7-1.7h34.7c0.9,0,1.7,0.8,1.7,1.7
				C226,219.5,225.2,220.2,224.3,220.2z"/>
		</g>
		<g>
			<path class="st24" d="M228.1,256.9h-42.3c-0.9,0-1.7-0.8-1.7-1.7c0-0.9,0.8-1.7,1.7-1.7h42.3c0.9,0,1.7,0.8,1.7,1.7
				C229.8,256.1,229.1,256.9,228.1,256.9z"/>
		</g>
		<g>
			<path class="st24" d="M232.1,298.1h-50.6c-0.9,0-1.7-0.8-1.7-1.7c0-0.9,0.8-1.7,1.7-1.7h50.6c0.9,0,1.7,0.8,1.7,1.7
				C233.9,297.3,233.1,298.1,232.1,298.1z"/>
		</g>
		<g>
			<path class="st24" d="M238.2,356.6h-62.6c-0.9,0-1.7-0.8-1.7-1.7c0-0.9,0.8-1.7,1.7-1.7h62.6c0.9,0,1.7,0.8,1.7,1.7
				C239.9,355.9,239.1,356.6,238.2,356.6z"/>
		</g>
	</g>
	<circle class="st0" cx="66.2" cy="140.9" r="13.4"/>
	<circle class="st0" cx="539.8" cy="139.3" r="11.8"/>
	<circle class="st0" cx="649.6" cy="288.9" r="7.5"/>
	<circle class="st0" cx="22.7" cy="297.5" r="11.6"/>
</g>
</svg>
