<?xml version="1.0" encoding="utf-8"?>
<!-- Generator: Adobe Illustrator 21.0.2, SVG Export Plug-In . SVG Version: 6.00 Build 0)  -->
<svg version="1.1" id="OBJECTS" xmlns="http://www.w3.org/2000/svg" xmlns:xlink="http://www.w3.org/1999/xlink" x="0px" y="0px"
	 viewBox="0 0 447.6 391.5" style="enable-background:new 0 0 447.6 391.5;" xml:space="preserve">
<style type="text/css">
	.st0{fill:#CCCCFF;}
	.st1{fill:#B6B6EF;}
	.st2{fill:#9B9BDD;}
	.st3{fill:#161642;}
	.st4{fill:#FFFFFF;}
	.st5{fill:#E3E3FF;}
	.st6{fill:#2A3554;}
	.st7{fill:#5F46F1;}
	.st8{fill:#8380F9;}
	.st9{font-family:'Montserrat-Black';}
	.st10{font-size:76.0486px;}
	.st11{fill:#445279;}
	.st12{fill:#3C3CC2;}
	.st13{fill:#F8AE81;}
	.st14{fill:#FA8465;}
	.st15{fill:#FA664D;}
	.st16{opacity:0.5;}
	.st17{opacity:0.4;}
	.st18{opacity:0.4;fill:#8380F9;}
</style>
<g>
	<ellipse class="st0" cx="221.3" cy="335.6" rx="221.3" ry="14"/>
	<g>
		<path class="st0" d="M411.2,33.1c0,1.2-0.5,2.3-1.3,3.1c-0.8,0.8-1.9,1.3-3.1,1.3h-93.2c-2.4,0-4.4-2-4.4-4.4
			c0-1.2,0.5-2.3,1.3-3.1c0.8-0.8,1.9-1.3,3.1-1.3h4.4c1.7-4,5.8-6.9,10.4-6.9c3.1,0,6,1.3,8.1,3.4c2.7-4.7,7.8-7.8,13.6-7.8
			c1.6,0,3.1,0.2,4.6,0.7c3-5.7,9-9.6,15.9-9.6c8.3,0,15.3,5.6,17.4,13.2c1.5-0.8,3.3-1.2,5.1-1.2c5.2,0,9.5,3.5,10.9,8.2h2.8
			C409.2,28.7,411.2,30.7,411.2,33.1z"/>
		<path class="st0" d="M122.9,30.7c0,1.2-0.5,2.3-1.3,3.1c-0.8,0.8-1.9,1.3-3.1,1.3H25.3c-2.4,0-4.4-2-4.4-4.4
			c0-1.2,0.5-2.3,1.3-3.1c0.8-0.8,1.9-1.3,3.1-1.3h4.4c1.7-4,5.8-6.9,10.4-6.9c3.1,0,6,1.3,8.1,3.4C51,18.2,56.1,15,61.9,15
			c1.6,0,3.1,0.2,4.6,0.7c3-5.7,9-9.6,15.9-9.6c8.3,0,15.3,5.6,17.4,13.2c1.5-0.8,3.3-1.2,5.1-1.2c5.2,0,9.5,3.5,10.9,8.2h2.8
			C121,26.4,122.9,28.3,122.9,30.7z"/>
		<path class="st0" d="M234.4,46.9c0,1-0.4,2-1.1,2.7c-0.7,0.7-1.6,1.1-2.7,1.1h-81.4c-2.1,0-3.8-1.7-3.8-3.8c0-1,0.4-2,1.1-2.7
			c0.7-0.7,1.6-1.1,2.7-1.1h3.8c1.5-3.5,5-6,9.1-6c2.8,0,5.2,1.1,7,2.9c2.4-4.1,6.8-6.8,11.9-6.8c1.4,0,2.7,0.2,4,0.6
			c2.6-5,7.9-8.4,13.9-8.4c7.3,0,13.3,4.9,15.2,11.6c1.3-0.7,2.8-1.1,4.4-1.1c4.5,0,8.3,3,9.5,7.2h2.5
			C232.7,43.1,234.4,44.8,234.4,46.9z"/>
	</g>
	<g>
		<g>
			<g>
				<path class="st1" d="M380.5,145.6l2.3,0.4l1.2,0.2l3.4,0.6c0,0,43.7-46.5,27.8-68.4c-4.9-6.8-16.5-4.7-19.7,20.6
					C392.5,122.5,380.5,145.6,380.5,145.6z"/>
				<g>
					<path class="st2" d="M382.8,146.1l1.2,0.2c8.4-11.7,14.4-25.1,17.9-34.6c4.3-11.3,6.2-19.7,6.3-19.8c0.1-0.3-0.1-0.6-0.4-0.7
						c-0.3-0.1-0.6,0.1-0.7,0.4c0,0.1-2,8.5-6.2,19.6C397.3,120.9,391.3,134.3,382.8,146.1z"/>
				</g>
			</g>
			<g>
				<path class="st0" d="M360,168.7l2.7,2l1.5,1l4.1,3c0,0,86-33.6,79-72.1c-2.2-11.9-18.7-16.4-38.6,14.6
					C390.1,145.9,360,168.7,360,168.7z"/>
				<g>
					<path class="st1" d="M362.7,170.7l1.5,1c18.3-10.1,34.4-23.8,45-34c12.6-12.1,20.4-21.9,20.5-21.9c0.3-0.3,0.2-0.9-0.1-1.1
						c-0.3-0.3-0.9-0.2-1.1,0.1c-0.1,0.1-7.9,9.8-20.4,21.8C397.3,146.8,381.2,160.7,362.7,170.7z"/>
				</g>
			</g>
		</g>
		<g>
			<g>
				<path class="st1" d="M67.9,231.6l-2.3,0.4l-1.2,0.2l-3.4,0.6c0,0-43.7-46.5-27.8-68.4c4.9-6.8,16.5-4.7,19.7,20.6
					C55.9,208.5,67.9,231.6,67.9,231.6z"/>
				<g>
					<path class="st2" d="M65.6,232.1l-1.2,0.2c-8.4-11.7-14.4-25.1-17.9-34.6c-4.3-11.3-6.2-19.7-6.3-19.8
						c-0.1-0.3,0.1-0.6,0.4-0.7c0.3-0.1,0.6,0.1,0.7,0.4c0,0.1,2,8.5,6.2,19.6C51.1,206.9,57.1,220.3,65.6,232.1z"/>
				</g>
			</g>
			<g>
				<path class="st0" d="M88.4,254.7l-2.7,2l-1.5,1l-4.1,3c0,0-86-33.6-79-72.1c2.2-11.9,18.7-16.4,38.6,14.6
					C58.3,231.9,88.4,254.7,88.4,254.7z"/>
				<g>
					<path class="st1" d="M85.7,256.7l-1.5,1c-18.3-10.1-34.4-23.8-45-34c-12.6-12.1-20.4-21.9-20.5-21.9c-0.3-0.3-0.2-0.9,0.1-1.1
						c0.3-0.3,0.9-0.2,1.1,0.1c0.1,0.1,7.9,9.8,20.4,21.8C51,232.8,67.2,246.7,85.7,256.7z"/>
				</g>
			</g>
		</g>
		<g>
			<g>
				<path class="st1" d="M157.5,121.9c-15.5-12.4-28-23.9-37.2-34.3c-12-13.6-18.3-25.2-18.7-34.7c0-0.6,0.5-1.2,1.1-1.2
					c0.6,0,1.2,0.5,1.2,1.1c0.8,16.5,21.2,40.9,59.1,70.5L157.5,121.9z"/>
			</g>
			<path class="st0" d="M110.6,74.6c0,0-6.4,7-18.3-4.8C92.3,69.9,105.2,62,110.6,74.6z"/>
			<path class="st0" d="M116.4,81c0,0-7.3-6,3.7-18.5C120.2,62.5,128.8,74.9,116.4,81z"/>
			<path class="st0" d="M104,59.9c0,0-8.9-3.2-2.6-18.7C101.4,41.2,113.7,50,104,59.9z"/>
			<path class="st0" d="M127.7,94.2c0,0-3.7,8.8-18.8,1.7C108.9,95.9,118.3,84.1,127.7,94.2z"/>
			<path class="st0" d="M134.6,99.8c0,0-8.3-4.7,0.5-18.9C135.1,80.9,145.7,91.7,134.6,99.8z"/>
			<path class="st0" d="M143.3,108.5c0,0-3.5,8.8-18.8,2.1C124.5,110.5,133.7,98.5,143.3,108.5z"/>
		</g>
	</g>
	<g>
		<g>
			<g>
				<path class="st3" d="M397,117.9v183.5c0,7.6-6.1,13.7-13.7,13.7H70.6c-7.6,0-13.7-6.1-13.7-13.7V117.9c0-7.6,6.1-13.7,13.7-13.7
					h312.8C390.9,104.2,397,110.3,397,117.9z"/>
				<path class="st4" d="M381.9,127.2v164.9c0,4.9-3.9,8.8-8.8,8.8H80.8c-2,0-3.9-0.7-5.4-1.9c-0.4-0.3-0.8-0.7-1.1-1
					c-1.4-1.6-2.3-3.6-2.3-5.9V127.2c0-4.9,3.9-8.8,8.8-8.8h292.4c1.6,0,3.1,0.4,4.4,1.2c1.2,0.7,2.3,1.7,3,2.9
					C381.4,123.9,381.9,125.5,381.9,127.2z"/>
				<g>
					<g>
						<g>
							<g>
								<rect x="135.5" y="154.1" class="st5" width="187.8" height="106.5"/>
								<rect x="135.5" y="154.1" class="st6" width="187.8" height="9.1"/>
								<g>
									<circle class="st7" cx="303.7" cy="158.7" r="1.9"/>
									<circle class="st7" cx="309.9" cy="158.7" r="1.9"/>
									<circle class="st8" cx="315.7" cy="158.7" r="1.9"/>
								</g>
							</g>
						</g>
					</g>
					<g>
						<g>
							<g>
								<path class="st6" d="M156.6,254c-0.2,0-0.4-0.2-0.4-0.4v-84.1c0-0.2,0.2-0.4,0.4-0.4c0.2,0,0.4,0.2,0.4,0.4v84.1
									C157.1,253.8,156.9,254,156.6,254z"/>
							</g>
						</g>
						<circle class="st6" cx="156.6" cy="169.7" r="1.4"/>
						<circle class="st6" cx="156.6" cy="253.6" r="1.4"/>
					</g>
					<g>
						<g>
							<path class="st6" d="M301.8,254c-0.2,0-0.4-0.2-0.4-0.4v-84.1c0-0.2,0.2-0.4,0.4-0.4c0.2,0,0.4,0.2,0.4,0.4v84.1
								C302.3,253.8,302.1,254,301.8,254z"/>
						</g>
						<circle class="st6" cx="301.8" cy="169.7" r="1.4"/>
						<circle class="st6" cx="301.8" cy="253.6" r="1.4"/>
					</g>
					<text transform="matrix(1 0 0 1 172.9922 237.6752)" class="st6 st9 st10">Aa</text>
				</g>
				<g>
					<rect x="92.5" y="154.1" class="st5" width="23.4" height="106"/>
					<rect x="92.5" y="154.1" class="st6" width="23.4" height="7"/>
				</g>
				<g>
					<rect x="339.2" y="208" class="st5" width="23.4" height="52.1"/>
					<rect x="339.2" y="208" class="st6" width="23.4" height="7.5"/>
				</g>
				<g>
					<rect x="339.7" y="154.5" class="st5" width="23.4" height="30.4"/>
					<rect x="339.7" y="154.5" class="st6" width="23.4" height="7.5"/>
				</g>
			</g>
			<path class="st6" d="M428.8,307.8v1.2c0,5.8-1.9,11.2-5.1,15.6c-4.8,6.7-12.7,11.1-21.6,11.1H51.8c-8.9,0-16.8-4.4-21.6-11.1
				c-3.2-4.4-5.1-9.8-5.1-15.6v-1.2H428.8z"/>
			<path class="st11" d="M181.7,307.8v0.3c0,2.1,1.4,3.8,3.2,3.8h82.4c1.7,0,3.2-1.7,3.2-3.8v-0.3H181.7z"/>
			<g>
				<path class="st5" d="M381.9,127.2v9.7H72v-9.7c0-1.9,0.6-3.6,1.6-5c1.6-2.3,4.2-3.8,7.2-3.8h292.4c3,0,5.6,1.5,7.2,3.8
					C381.3,123.6,381.9,125.3,381.9,127.2z"/>
				<g>
					<circle class="st7" cx="355.5" cy="129" r="2.5"/>
					<circle class="st7" cx="363.7" cy="129" r="2.5"/>
					<circle class="st8" cx="371.4" cy="129" r="2.5"/>
				</g>
				<path class="st4" d="M307.1,130.6H142.7c-0.4,0-0.8-0.3-0.8-0.8v-3.4c0-0.4,0.3-0.8,0.8-0.8h164.4c0.4,0,0.8,0.3,0.8,0.8v3.4
					C307.8,130.3,307.5,130.6,307.1,130.6z"/>
				<path class="st6" d="M102.3,128.2v1.8c0,0.5-0.6,0.8-1,0.6l-1.6-0.9l-1.6-0.9c-0.5-0.3-0.5-0.9,0-1.2l1.6-0.9l1.6-0.9
					c0.5-0.3,1,0.1,1,0.6V128.2z"/>
				<path class="st6" d="M110.5,128.2v1.8c0,0.5,0.6,0.8,1,0.6l1.6-0.9l1.6-0.9c0.5-0.3,0.5-0.9,0-1.2l-1.6-0.9l-1.6-0.9
					c-0.5-0.3-1,0.1-1,0.6V128.2z"/>
			</g>
			<path class="st0" d="M380.3,122.2H73.6c1.6-2.3,4.2-3.8,7.2-3.8h292.4C376.1,118.4,378.8,119.9,380.3,122.2z"/>
			<path class="st5" d="M318.5,286.8H131.2c-3.7,0-6.6-3-6.6-6.6l0,0c0-3.7,3-6.6,6.6-6.6h187.2c3.7,0,6.6,3,6.6,6.6v0
				C325.1,283.8,322.1,286.8,318.5,286.8z"/>
		</g>
	</g>
	<g>
		<ellipse class="st0" cx="358.5" cy="385.3" rx="47.2" ry="6.2"/>
		<g>
			<g>
				<g>
					<g>
						<path class="st7" d="M395.7,317.8h-71.2c1.2-7.1,6.8-12.3,13.4-12.3l22.1,0.1l22.1-0.1C388.8,305.4,394.5,310.6,395.7,317.8z"
							/>
					</g>
					<g>
						<rect x="330.1" y="316.7" class="st7" width="3.9" height="66.4"/>
						<rect x="386.2" y="316.7" class="st7" width="3.9" height="66.4"/>
						<rect x="334" y="335.3" class="st12" width="52.2" height="3.7"/>
					</g>
				</g>
				<g>
					<path class="st8" d="M342.7,228.4c0,0-11.9,15.9-13.5,29.7c-1.1,9.8,13.5,24.4,13.5,24.4l5-2.5l-5-11.3
						c-1.8-5.5-4-7.7-2.4-13.2l3.6-7.8C344.4,241.8,343.8,235.3,342.7,228.4z"/>
					<path class="st8" d="M380.1,228.2c0,0,11.7,16.9,12.7,30.8c0.8,12-13.5,23.5-13.5,23.5l-4.1-2.1l5.7-11.4
						c1.8-5.5,2.6-8.8,0.2-14.8l-3.1-6.6L380.1,228.2z"/>
					<g>
						<path class="st8" d="M381.8,291.1c-10.4,2.8-44.5-1.5-44.5-1.5l7.9-25.1l-1-14.9l-0.1-2l-1.3-19.2c8.3-3.4,13.3-4.8,21.4-4.2
							c5.5,0.4,10.9,1.8,16,3.9l-3.7,35.6L381.8,291.1z"/>
						<g>
							<path class="st7" d="M353.6,236c7.5-0.9,14.5-6.1,14.8-6.3c0.2-0.1,0.2-0.4,0.1-0.6c-0.1-0.2-0.4-0.2-0.6-0.1
								c-0.1,0.1-8.3,6.1-16.2,6.2c-0.2,0-0.4,0.2-0.4,0.4c0,0.2,0.2,0.4,0.4,0.4C352.4,236.1,353,236.1,353.6,236z"/>
						</g>
						<g>
							<path class="st7" d="M357.7,261.7c7.1-2.5,12.8-9.1,13.1-9.4c0.2-0.2,0.1-0.4,0-0.6c-0.2-0.2-0.4-0.1-0.6,0
								c-0.1,0.1-6.7,7.8-14.4,9.7c-0.2,0.1-0.4,0.3-0.3,0.5c0.1,0.2,0.3,0.4,0.5,0.3C356.5,262.1,357.1,261.9,357.7,261.7z"/>
						</g>
					</g>
					<g>
						<polygon class="st13" points="359.7,370.3 360.3,375.8 366.2,376 366.7,371.4 						"/>
						<g>
							<path class="st3" d="M358.8,282.5c0,0-15.2-0.8-20.4,3.4c-5.2,4.2-4.1,16.3,1.1,19.7c5.3,3.3,14.2,9.8,14.2,9.8l5.7,56.7
								l7.5,0.3c0,0,6.9-57,3.4-68C366.9,293.3,358.8,282.5,358.8,282.5z"/>
							<path class="st6" d="M367.7,369.5c0.4,1.3,0.2,2.6-0.2,3.9l-8.7-0.2c-0.3-1.3-0.4-2.5-0.2-3.8L367.7,369.5z"/>
						</g>
					</g>
					<g>
						<path class="st4" d="M380.3,282.1h-40l-3.7-21.6c-0.3-1.9,1.1-3.6,3-3.6H381c1.9,0,3.3,1.7,3,3.6L380.3,282.1z"/>
						<path class="st0" d="M376.8,286.8H344c-2,0-3.6-1.6-3.6-3.6v-1.1h40v1.1C380.4,285.2,378.8,286.8,376.8,286.8z"/>
						<circle class="st0" cx="360.4" cy="270.4" r="3.5"/>
					</g>
					<g>
						<polygon class="st13" points="334.7,354.7 333.4,360.2 338.7,361.2 340.8,356.4 						"/>
						<g>
							<path class="st6" d="M366.5,281.6c0,0-10.2-3.5-16.2,3.9c-6,7.4-16,69.8-16,69.8l6.9,2.8l22.1-55.4c0,0,18,10.3,20.2-4.3
								C385.2,286.8,366.5,281.6,366.5,281.6z"/>
							<path class="st11" d="M342.7,355.2c0,1.4-0.6,2.6-1.4,3.7l-8.4-3c0.1-1.3,0.5-2.6,1.1-3.8L342.7,355.2z"/>
						</g>
					</g>
					<g>
						<path class="st8" d="M337.4,359.3c0,0-3.2-1.6-4.1-1.8c-0.9-0.2-8.7,5.3-10.9,5.3c-4-0.1-5.3,5.8-3,6.6c6.6,2.3,18.7,2,18.7,2
							s2.7-7.3,2.8-9.8C340.9,359.1,339.1,360.4,337.4,359.3z"/>
						<g>
							<g>
								<path class="st4" d="M330.4,364.5c0.1,0.1,0.3,0.1,0.4,0c0.2-0.1,0.4-0.4,0.3-0.6c0-0.1-0.8-2-2.1-2.9
									c-1.7-1.2-3.3-0.4-3.4-0.3c-0.2,0.1-0.3,0.4-0.2,0.6c0.1,0.2,0.4,0.3,0.6,0.2c0,0,1.1-0.6,2.4,0.3c1.1,0.7,1.8,2.4,1.8,2.4
									C330.2,364.4,330.3,364.5,330.4,364.5z"/>
							</g>
							<g>
								<path class="st4" d="M332,363.4c0.1,0.1,0.3,0.1,0.4,0c0.2-0.1,0.4-0.4,0.3-0.6c0-0.1-0.8-2-2.1-2.9
									c-1.7-1.2-3.3-0.4-3.4-0.3c-0.2,0.1-0.3,0.4-0.2,0.6c0.1,0.2,0.4,0.3,0.6,0.2c0,0,1.1-0.6,2.4,0.3c1.1,0.7,1.8,2.4,1.8,2.4
									C331.8,363.3,331.9,363.4,332,363.4z"/>
							</g>
							<g>
								<path class="st4" d="M328.4,365.3c0.1,0.1,0.2,0.1,0.4,0c0.2-0.1,0.4-0.4,0.3-0.6c0-0.1-0.8-2-2.1-2.9
									c-1.7-1.2-3.3-0.4-3.4-0.3c-0.2,0.1-0.3,0.4-0.2,0.6c0.1,0.2,0.4,0.3,0.7,0.2c0,0,1.1-0.6,2.4,0.3c1.1,0.7,1.8,2.4,1.8,2.4
									C328.2,365.2,328.2,365.3,328.4,365.3z"/>
							</g>
						</g>
					</g>
					<g>
						<path class="st8" d="M362.6,375.6c0,0,3.3-1,4.2-1c0.9,0,7.3,6.5,9.4,6.8c3.8,0.6,4,6.3,1.7,6.7c-6.6,1.1-17.9-1.2-17.9-1.2
							s-1.3-7.3-1-9.6C359.3,374.9,360.8,376.3,362.6,375.6z"/>
						<g>
							<g>
								<path class="st4" d="M368.3,381.7c-0.1,0-0.2,0-0.4-0.1c-0.2-0.1-0.3-0.4-0.1-0.6c0-0.1,1.1-1.7,2.5-2.3
									c1.8-0.8,3.2,0.2,3.2,0.3c0.2,0.2,0.2,0.4,0.1,0.6c-0.2,0.2-0.4,0.2-0.6,0.1c0,0-1-0.7-2.3-0.1c-1.1,0.5-2.1,2-2.1,2
									C368.5,381.6,368.4,381.6,368.3,381.7z"/>
							</g>
							<g>
								<path class="st4" d="M367,380.3c-0.1,0-0.2,0-0.4-0.1c-0.2-0.1-0.3-0.4-0.1-0.6c0-0.1,1.1-1.7,2.5-2.3
									c1.8-0.8,3.2,0.2,3.2,0.3c0.2,0.2,0.2,0.4,0.1,0.6c-0.2,0.2-0.4,0.2-0.6,0.1c0,0-1-0.7-2.3-0.1c-1.1,0.5-2.1,2-2.1,2
									C367.2,380.3,367.1,380.3,367,380.3z"/>
							</g>
							<g>
								<path class="st4" d="M370.1,382.7c-0.1,0-0.2,0-0.4-0.1c-0.2-0.1-0.3-0.4-0.1-0.6c0-0.1,1.1-1.7,2.5-2.3
									c1.8-0.8,3.2,0.2,3.2,0.3c0.2,0.2,0.2,0.4,0.1,0.6c-0.2,0.2-0.4,0.2-0.6,0.1c0,0-1-0.7-2.3-0.1c-1.1,0.5-2.1,2-2.1,2
									C370.3,382.6,370.2,382.7,370.1,382.7z"/>
							</g>
						</g>
					</g>
					<g>
						<path class="st6" d="M371.5,192.7c0,0,4.9,7.5,4.3,15.3c-0.5,7.8,0.7,16.9-6.3,16.5c-7-0.4-19.5,2.8-23.5-3.3
							C342.1,215.1,371.5,192.7,371.5,192.7z"/>
						<path class="st3" d="M373.3,206.5c0,0,1.3,11.3-4.1,14.5c-5.4,3.1-9.3-0.4-9.3-0.4S371.2,204.8,373.3,206.5z"/>
						<g>
							<g>
								<path class="st14" d="M350.9,206.4c0,0-1.9-2.6-3.4-0.4c-1.4,2.1,0.6,8.4,4.1,6.9L350.9,206.4z"/>
								<g>
									<path class="st15" d="M350.9,210.9c-0.1,0-0.2-0.1-0.3-0.2c-0.5-1.9-2.6-2.7-2.6-2.7c-0.2-0.1-0.2-0.2-0.2-0.4
										c0.1-0.2,0.2-0.2,0.4-0.2c0.1,0,2.3,0.9,2.9,3.1C351.2,210.7,351.1,210.9,350.9,210.9C350.9,210.9,350.9,210.9,350.9,210.9
										z"/>
								</g>
								<g>
									<path class="st15" d="M348.9,210c-0.1,0-0.1,0-0.2,0c-0.1-0.1-0.2-0.3-0.1-0.4c0,0,0.4-0.6,1.1-0.9c0.1-0.1,0.3,0,0.4,0.2
										c0.1,0.1,0,0.3-0.1,0.4c-0.6,0.3-0.9,0.7-0.9,0.7C349,209.9,349,210,348.9,210z"/>
								</g>
							</g>
							<g>
								<path class="st14" d="M370.8,206.4c0,0,1.9-2.6,3.4-0.4c1.4,2.1-0.6,8.4-4.1,6.9L370.8,206.4z"/>
								<g>
									<path class="st15" d="M370.9,210.9c0.1,0,0.2-0.1,0.3-0.2c0.5-1.9,2.6-2.7,2.6-2.7c0.2-0.1,0.2-0.2,0.2-0.4
										c-0.1-0.2-0.2-0.2-0.4-0.2c-0.1,0-2.3,0.9-2.9,3.1C370.5,210.7,370.6,210.9,370.9,210.9
										C370.8,210.9,370.8,210.9,370.9,210.9z"/>
								</g>
								<g>
									<path class="st15" d="M372.9,210c0.1,0,0.1,0,0.2,0c0.1-0.1,0.2-0.3,0.1-0.4c0,0-0.4-0.6-1.1-0.9c-0.1-0.1-0.3,0-0.4,0.2
										c-0.1,0.1,0,0.3,0.1,0.4c0.6,0.3,0.9,0.7,0.9,0.7C372.7,209.9,372.8,210,372.9,210z"/>
								</g>
							</g>
							<path class="st13" d="M365.6,218.2v6.3c0,0-1.9,3.2-4.4,3.4c-2.5,0.2-4.8-2.7-4.8-2.7v-6.5L365.6,218.2z"/>
							<path class="st14" d="M365.6,218.2v2.8c-1.7,1.9-4.7,2.5-9.2,1.9l0-4.2L365.6,218.2z"/>
							<path class="st13" d="M372.2,202.2c-0.1,2.4-0.3,5.5-0.8,7.9c-0.1,0.6-0.2,1.2-0.4,1.7c-1.3,4.6-4.6,12.5-13.8,9.2
								c-4.1-1.5-6-6-6.8-10.6c-0.6-3.1-0.7-6.3-0.6-8.6c0-2.3,1.3-4.4,3.3-5.6c5.4-3.1,11.2-1.9,15-0.5
								C370.7,196.8,372.4,199.3,372.2,202.2z"/>
							<ellipse class="st6" cx="356" cy="207.4" rx="0.8" ry="1.2"/>
							<ellipse class="st6" cx="365.5" cy="207.4" rx="0.8" ry="1.2"/>
							<path class="st6" d="M354.5,203.4c0.6-0.2,1.9-0.5,3.3-0.5c0.4,0,0.6,0.3,0.6,0.7l0,0c-0.1,0.3-0.3,0.5-0.6,0.5
								c-0.9,0-3.4,0.1-4.5,0.6c0-0.2,0.1-0.4,0.3-0.6C353.8,203.7,354.1,203.5,354.5,203.4z"/>
							<path class="st6" d="M366.9,203.4c-0.6-0.2-1.9-0.5-3.3-0.5c-0.4,0-0.6,0.3-0.6,0.7l0,0c0.1,0.3,0.3,0.5,0.6,0.5
								c0.9,0,3.4,0.1,4.5,0.6c0-0.2-0.1-0.4-0.3-0.6C367.7,203.7,367.3,203.5,366.9,203.4z"/>
							<g>
								<path class="st14" d="M361,212.3c-0.2,0-0.5,0-0.6-0.2c-0.2-0.1-0.4-0.3-0.4-0.7c-0.1-1.1,0.2-4.5,0.2-4.7
									c0-0.2,0.2-0.3,0.3-0.3c0.2,0,0.3,0.2,0.3,0.3c0,0-0.3,3.5-0.2,4.6c0,0.2,0.1,0.2,0.1,0.3c0.3,0.2,0.9,0,1.2-0.1
									c0.2-0.1,0.3,0,0.4,0.2c0.1,0.2,0,0.3-0.2,0.4C362,212.1,361.5,212.3,361,212.3z"/>
							</g>
							<path class="st4" d="M357.2,214.2c0.2,1.1,1,3.2,3.5,3.2c2.5,0,3.2-1.9,3.5-3.2H357.2z"/>
							<g>
								<path class="st14" d="M360.7,219.2c-0.7,0-1.4-0.4-1.4-0.4c-0.1-0.1-0.2-0.3-0.1-0.4c0.1-0.1,0.3-0.2,0.4-0.1l0,0
									c0,0,0.5,0.3,1.1,0.3c0.6,0,1.1-0.3,1.1-0.3c0.1-0.1,0.3,0,0.4,0.1c0.1,0.1,0,0.3-0.1,0.4
									C362.1,218.8,361.4,219.2,360.7,219.2z"/>
							</g>
						</g>
						<path class="st6" d="M373.4,201.7c-0.1,0.3-0.4,0.4-0.7,0.5c0,0.7,0,1.4-0.1,2.2c-0.4,4.3-1.5,5.1-1.7,4
							c-0.2-0.7-0.2-4.8-0.1-6.1c-0.8-0.1-1.6-0.2-1.6-0.2l-1-4.2l-0.3,4.1c-1.5,0.5-5-0.3-5-0.3l-1.2-4.1l-0.7,4
							c-2.2,1.1-5,0.4-5,0.4l-0.6-4.3l-1.5,4.3c0,0-4.8,1.7-4.8,0c0-1,0.7-3.8,1.3-6c0.7-2.4,2.2-4.4,4.3-5.5
							c5.9-3.2,12.2-1.5,14.4-0.2C373.6,193,373.4,201.7,373.4,201.7z"/>
						<path class="st6" d="M351.7,193c0,0-3.9,4.7-5.2,13.1c-1.3,8.4-3.1,14.6,2,17.3c5.5,3,5-3.1,4.9-4.8
							c-0.1-1.7-4.7-6.2-1.6-19.1C352.7,195.4,351.7,193,351.7,193z"/>
						<path class="st3" d="M350.7,210.3C350.7,210.3,350.7,210.3,350.7,210.3c0,0.1,0,0.4,0,0.9c0,0.3,0,0.7,0.1,1.2
							c0.2,2.8,0.7,7.7,2.3,9.4c0.6,0.7,1.9,1,3.3,1.1v-2.2c-1.5-0.7-2.7-1.9-3.6-3.4c-0.6-1.2-1.5-3.2-2-6.2L350.7,210.3z"/>
						<circle class="st4" cx="371.6" cy="213" r="0.7"/>
					</g>
				</g>
			</g>
		</g>
		<g>
			<path class="st7" d="M345.9,245.4c0,0-0.9,1.7-1.8,4.3l-0.1-2c0.6-1.5,1.1-2.5,1.2-2.6c0.1-0.2,0.4-0.3,0.6-0.2
				C345.9,244.9,346,245.2,345.9,245.4z"/>
		</g>
		<g>
			<path class="st7" d="M376.1,245.4c0,0,0.9,1.8,1.9,4.3l0.2-1.9c-0.6-1.5-1.2-2.7-1.3-2.8c-0.1-0.2-0.4-0.3-0.6-0.2
				C376,244.9,376,245.2,376.1,245.4z"/>
		</g>
	</g>
	<g>
		<g>
			<path class="st13" d="M166.6,255.8c1.4,2.6,2.7,4.9,4,6.8c9.5,14.3,16.5,11.3,20.3,6.8c1.3-1.6,2.3-3.2,3-4.7
				c1.1-2.5,1.5-4.7,1.7-5.6l-1.8,0.4c-2.1,1-5.5,2.3-8.1,1.9c-0.3-0.1-0.6-0.1-0.9-0.2c-2.3-0.9-5.4-5.4-7.5-8.8
				c-1.4-2.3-2.3-4-2.3-4L166.6,255.8z"/>
			<path class="st14" d="M166.6,255.8c1.4,2.6,2.7,4.9,4,6.8c2.7-3,5.1-7.3,6.6-10.3c-1.4-2.3-2.3-4-2.3-4L166.6,255.8z"/>
			<path class="st14" d="M183.6,261.9c0,0,1.9,5.9,10.3,2.8c1.1-2.5,1.5-4.7,1.7-5.6l-1.8,0.4c-2.1,1-5.5,2.3-8.1,1.9L183.6,261.9z"
				/>
		</g>
		<g>
			<path class="st13" d="M118,267.8c0,1.6,0,3.3-0.2,4.9c0,0,0,0.1,0,0.1c0,0.3-0.1,0.7-0.1,1c-1.3,8.2-9.7,15.3-11.5,4.7
				c-0.2-1.4-0.3-3-0.3-4.6c0-0.4,0-0.7,0-1.1c0-1,0.1-2,0.2-3.1c0-0.4,0.1-0.9,0.1-1.3c0.1-0.5,0.1-1,0.2-1.5
				c0.2-1.2,0.4-2.5,0.6-3.7c0.7-4,1.7-7.8,2.5-10.7c0.9-3.1,1.6-5.1,1.6-5.1l5.9,7.2c0,0,0.5,2.6,0.8,6.4c0,0.3,0,0.6,0.1,0.9
				c0.1,1.5,0.2,3.1,0.2,4.8c0,0.1,0,0.2,0,0.3C118,267.3,118,267.6,118,267.8z"/>
			<path class="st14" d="M109.5,252.7c1.7,3.2,4.6,7.4,8.3,9.3c0-0.3,0-0.6-0.1-0.9c-0.3-3.8-0.8-6.4-0.8-6.4l-5.9-7.2
				C111,247.5,110.3,249.5,109.5,252.7z"/>
			<path class="st14" d="M118,267.8c0,1.6,0,3.3-0.2,4.9c-3.6,0.3-8.8,0.5-12,0.1c0-1,0.1-2,0.2-3.1c0-0.4,0.1-0.9,0.1-1.3l11.8-1.7
				c0,0.1,0,0.2,0,0.3C118,267.3,118,267.6,118,267.8z"/>
		</g>
		<path class="st8" d="M168.1,230.1c0,0,8.5,15,9.9,20.1c0,0-5.8,9.7-11.1,10.8l-2-6.6C165,254.3,164.8,233.6,168.1,230.1z"/>
		<g>
			<path class="st8" d="M149.4,222.4l18.7,7.7l-8.3,63.9c0,0-25.7,3.6-38.9,0v-63.9L139,222L149.4,222.4z"/>
			<g>
				<g>
					<path class="st7" d="M153.3,257.2c-3.1,3.3-7.5,6.3-13.6,8.1c-0.2,0.1-0.5-0.1-0.5-0.3c0,0,0,0,0,0c0-0.2,0.1-0.4,0.3-0.4
						c6-1.7,10.2-4.7,13.3-7.9c0.2-0.2,0.6-0.1,0.7,0.2c0,0,0,0,0,0C153.4,257,153.3,257.1,153.3,257.2z"/>
				</g>
				<g>
					<path class="st7" d="M153.1,251.1L153.1,251.1c0,0.1,0,0.1,0,0.2c-0.2,0.4-0.4,0.7-0.7,1.1c-1.5,2.1-4.3,4.9-9.2,6.2
						c0,0-0.1,0-0.1,0c-0.2,0-0.3-0.1-0.4-0.3c-0.1-0.2,0.1-0.4,0.3-0.4c5.3-1.4,8.1-4.6,9.4-7C152.6,250.6,153.1,250.8,153.1,251.1
						z"/>
				</g>
				<g>
					<path class="st7" d="M152.4,234.5C152.4,234.5,152.4,234.5,152.4,234.5c0,0.2-0.2,0.4-0.4,0.3c-4.4-0.9-7.9-2.8-10.3-4.5
						c-3.2-2.3-4.9-4.6-5-4.7c-0.1-0.2-0.1-0.4,0.1-0.5c0.2-0.1,0.4-0.1,0.5,0.1c0.1,0.1,5.4,7.1,14.8,9
						C152.3,234.2,152.4,234.3,152.4,234.5z"/>
				</g>
			</g>
		</g>
		<g>
			<g>
				<g>
					<path class="st13" d="M181.1,334.7l-2-10.3h6.8l1.7,9.7C187.6,334.1,184.8,335.9,181.1,334.7z"/>
					<path class="st8" d="M185.8,334.6c0,0,1.5-2,2.7-1.9c1.2,0.1,10.3,7.5,13.4,8.1c3.1,0.6,2.5,2.9,1.9,4.1
						c-0.6,1.2-25-0.7-25-0.7s-0.6-7.3,0.2-9.5C179.8,332.5,183.3,335.1,185.8,334.6z"/>
					<g>
						<g>
							<g>
								<g>
									<path class="st4" d="M190.8,339.7c-0.1,0-0.2,0-0.3,0c-0.2-0.1-0.3-0.4-0.2-0.6c0-0.1,1-1.7,2.3-2.4
										c1.7-0.8,3.1,0.1,3.1,0.2c0.2,0.1,0.2,0.4,0.1,0.6c-0.1,0.2-0.4,0.2-0.6,0.1c0,0-1-0.7-2.2-0.1c-1.1,0.5-1.9,2-1.9,2
										C191,339.6,190.9,339.7,190.8,339.7z"/>
								</g>
							</g>
						</g>
						<g>
							<g>
								<g>
									<path class="st4" d="M189.5,338.5c-0.1,0-0.2,0-0.3,0c-0.2-0.1-0.3-0.4-0.2-0.6c0-0.1,1-1.7,2.3-2.4
										c1.7-0.8,3.1,0.1,3.1,0.2c0.2,0.1,0.2,0.4,0.1,0.6c-0.1,0.2-0.4,0.2-0.6,0.1c0,0-1-0.7-2.2-0.1c-1.1,0.5-1.9,2-1.9,2
										C189.7,338.4,189.6,338.4,189.5,338.5z"/>
								</g>
							</g>
						</g>
						<g>
							<path class="st4" d="M192.5,340.7c-0.1,0-0.2,0-0.3,0c-0.2-0.1-0.3-0.4-0.2-0.6c0-0.1,1-1.7,2.3-2.4c1.7-0.8,3.1,0.1,3.1,0.2
								c0.2,0.1,0.2,0.4,0.1,0.6c-0.1,0.2-0.4,0.2-0.6,0.1c0,0-1-0.7-2.2-0.1c-1.1,0.5-1.9,2-1.9,2
								C192.7,340.6,192.6,340.7,192.5,340.7z"/>
						</g>
					</g>
				</g>
			</g>
			<g>
				<g>
					<path class="st3" d="M150.1,287.6c0,0,11.7-29,19-27.9c11.3,1.8,18.8,36.3,17.9,68.6l-7.7,0.4c0,0-8.6-30.4-10.2-38.3
						c0,0-6,20.7-19.4,17.8C139.7,306.1,146.1,295.9,150.1,287.6z"/>
				</g>
			</g>
			<g>
				<path class="st6" d="M180.1,327.4l1-0.2c0-0.1-2.1-11.4-4.6-22.8c-5.1-23.3-7-24.4-7.6-24.8c-0.5-0.3-1-0.2-1.2-0.1
					c-1.3,0.6-1.9,3.3-2.9,7.4c-1.6,6.7-3.7,15.8-9.6,19.6l0.5,0.8c6.2-4,8.4-13.4,10-20.2c0.8-3.3,1.5-6.4,2.3-6.7
					c0,0,0.1-0.1,0.4,0.1C171,282,176.8,309.4,180.1,327.4z"/>
			</g>
			<polygon class="st6" points="187.7,325.9 178.2,326.7 178,326.7 178.5,329.9 187.8,329.2 			"/>
		</g>
		<g>
			<g>
				<path class="st6" d="M153.1,308.3c0,0-13.6,2.6-31.6-0.6c1.5-7.5,4.9-13.3,10.4-18.5l24.3,1.8
					C157.6,296.7,156.5,302.5,153.1,308.3z"/>
				<g>
					<g>
						<path class="st8" d="M156.9,332.4c0,0,3.2-0.7,4.1-0.7c0.9,0.1,6.5,6.9,8.5,7.4c3.6,0.9,3.3,6.5,1.1,6.7
							c-6.4,0.5-17.1-2.6-17.1-2.6s-0.7-7.3-0.1-9.5C153.9,331.4,155.1,333,156.9,332.4z"/>
						<path class="st13" d="M155,332.9l-2.4-9.2h6.8l1.5,8.9C161,332.5,158.8,334.1,155,332.9z"/>
						<g>
							<g>
								<g>
									<g>
										<path class="st4" d="M161.9,338.8c-0.1,0-0.2,0-0.3-0.1c-0.2-0.1-0.2-0.4-0.1-0.6c0-0.1,1.2-1.6,2.6-2.1
											c1.8-0.7,3,0.5,3.1,0.5c0.2,0.2,0.2,0.4,0,0.6c-0.2,0.2-0.4,0.2-0.6,0c0,0-0.9-0.8-2.2-0.3c-1.1,0.4-2.1,1.8-2.1,1.8
											C162.1,338.7,162,338.8,161.9,338.8z"/>
									</g>
								</g>
							</g>
							<g>
								<path class="st4" d="M160.8,337.4c-0.1,0-0.2,0-0.3-0.1c-0.2-0.1-0.2-0.4-0.1-0.6c0-0.1,1.2-1.6,2.6-2.1
									c1.8-0.7,3,0.5,3.1,0.5c0.2,0.2,0.2,0.4,0,0.6c-0.2,0.2-0.4,0.2-0.6,0c0,0-0.9-0.8-2.2-0.3c-1.1,0.4-2.1,1.8-2.1,1.8
									C161,337.3,160.9,337.4,160.8,337.4z"/>
							</g>
							<g>
								<path class="st4" d="M163.6,340c-0.1,0-0.2,0-0.3-0.1c-0.2-0.1-0.2-0.4-0.1-0.6c0-0.1,1.2-1.6,2.6-2.1
									c1.8-0.7,3,0.5,3.1,0.5c0.2,0.2,0.2,0.4,0,0.6c-0.2,0.2-0.4,0.2-0.6,0c0,0-0.9-0.8-2.2-0.3c-1.1,0.4-2.1,1.8-2.1,1.8
									C163.8,339.9,163.7,340,163.6,340z"/>
							</g>
						</g>
					</g>
				</g>
				<path class="st3" d="M123.1,308.2c1.7,0.4,3.3,0.4,4.8,0c0.5-0.1,1-0.2,1.4-0.4c9.1-3.2,13.1-17.4,13.1-17.4
					c1.6,8,10.5,38.3,10.5,38.3l1.4-0.2l1-0.1l5.3-0.7c1-31.2-6.9-66.2-18.1-68c-7.3-1.1-19,27.9-19,27.9
					C119.6,295.9,113.2,306.1,123.1,308.2z"/>
				<g>
					<path class="st6" d="M127.9,308.2c0.5-0.1,1-0.2,1.4-0.4c3.3-5.3,5-12.8,6.4-18.8c1.1-4.8,2.1-9.3,3.5-10.1
						c0.2-0.1,0.4-0.1,0.7-0.1c1.2,0.4,3.9,4.2,9.2,25.8c2.5,10.3,4.6,20.6,5.3,23.8c0.1,0.7,0.2,1,0.2,1l0.9-0.2c0,0-0.1-0.4-0.2-1
						c-0.6-3.2-2.7-13.5-5.3-23.9c-6.2-25.3-8.9-26.2-9.8-26.5c-0.5-0.2-1-0.1-1.4,0.1c-1.7,1-2.7,5.1-4,10.7
						C133.3,295.1,131.5,303,127.9,308.2z"/>
				</g>
				<polygon class="st6" points="161.3,325.5 151.9,327.2 151.7,327.3 152.6,330.3 161.8,328.8 				"/>
			</g>
		</g>
		<path class="st8" d="M120.9,230.1l-12.1,17.5c0,0,5.4,10.1,10.6,11.2c0,0,5.5-9.6,6.1-14.5C126.2,239.5,122.8,230.5,120.9,230.1z"
			/>
		<g>
			<g>
				<g>
					<g>
						
							<rect x="77.9" y="247.6" transform="matrix(0.9947 -0.1029 0.1029 0.9947 -25.5869 16.5015)" class="st7" width="138.6" height="17.3"/>
						<g>
							
								<rect x="77.4" y="250.6" transform="matrix(0.9947 -0.1029 0.1029 0.9947 -25.0688 16.4205)" class="st12" width="138.6" height="1.2"/>
							
								<rect x="77.9" y="255.7" transform="matrix(0.9947 -0.1029 0.1029 0.9947 -25.5868 16.5014)" class="st12" width="138.6" height="1.2"/>
							
								<rect x="78.4" y="260.8" transform="matrix(0.9947 -0.1029 0.1029 0.9947 -26.1043 16.5819)" class="st12" width="138.6" height="1.2"/>
						</g>
					</g>
					<g>
						
							<rect x="78.2" y="254.4" transform="matrix(0.9947 -0.1029 0.1029 0.9947 -26.6255 9.8165)" class="st6" width="7.2" height="17.3"/>
					</g>
					<path class="st8" d="M77.4,254.8l-2.1,0.2c-4.7,0.5-8.2,4.7-7.7,9.5l0,0c0.5,4.7,4.7,8.2,9.5,7.7l2.1-0.2L77.4,254.8z"/>
					<g>
						<polygon class="st13" points="217,257.7 215.2,240.6 227.3,244.5 229.8,245.3 236.9,247.6 230.1,251 227.4,252.4 						"/>
						<path class="st6" d="M230.1,251c-0.3-0.7-0.6-1.6-0.7-2.7c-0.1-1.3,0.1-2.3,0.4-3.1l7.1,2.3L230.1,251z"/>
					</g>
				</g>
			</g>
		</g>
		<g>
			<g>
				<path class="st13" d="M195.9,260.6c0,0-0.4-1.9-1.4-4.7c-0.5-1.4-2.2-2.4-2.7-0.9c-0.4,1.1,0.2,2.2,0.2,3.3c0,0-0.3-0.7-0.8-2.6
					c-0.5-1.7-1.6-1.8-2-0.7c-0.4,1-0.1,1.1,0,1.9c0.1,1.2,0.3,2.6,0.3,2.6s-0.1-1.6-1-3.7c-0.4-0.9-0.8-2-2-0.9
					c-0.6,0.5-0.4,2.4-0.3,4.4c0,0-0.4-2.7-1.6-3.6c-0.9-0.7-1.5-0.4-1.4,1.1c0.1,1.9,0.3,2.4,0.5,3.6c0.2,1.1,1.2,2.9,2.4,2.8
					c1.2-0.1,1.6-0.8,2.3-0.7c0.8,0.1,1.9,0.4,2.5,0.1c0.6-0.4,1.1-0.3,2-0.2C193.8,262.5,195.7,261.8,195.9,260.6z"/>
			</g>
		</g>
		<g>
			<path class="st13" d="M118.2,270c0,0-0.1-2-0.7-4.8c-0.3-1.4-1.6-2.7-2.3-1.4c-0.6,1-0.4,2.2-0.6,3.3c0,0-0.1-0.8-0.4-2.7
				c-0.2-1.7-1.3-2-1.9-1c-0.5,1-0.2,1-0.3,1.9c-0.1,1.2-0.1,2.6-0.1,2.6s0.2-1.6-0.4-3.8c-0.3-1-0.5-2.1-1.8-1.2
				c-0.7,0.4-0.7,2.3-1,4.3c0,0,0.3-2.3-0.7-3.4c-0.8-0.8-1.7-1-1.8,0.4c-0.2,1.9-0.1,2.4-0.1,3.6c0,1.1,0.7,3.1,1.9,3.1
				c1.2,0.1,1.7-0.6,2.4-0.3c0.7,0.2,1.8,0.7,2.5,0.5c0.7-0.3,1.2-0.2,2,0.1C115.8,271.5,117.8,271.1,118.2,270z"/>
		</g>
		<g>
			<path class="st6" d="M155.1,201.7c0,0.5,0,1-0.1,1.5c0,0.2,0,0.4-0.1,0.6c-0.9,5.8-5.3,9.8-11.5,9.8c-6.3,0-10.4-4-11-10
				c0-0.2,0-0.4,0-0.6c0-0.3,0-0.7,0-1c0-6.9,3.6-12.4,11.8-12.4C151,189.6,155.1,194.8,155.1,201.7z"/>
			<g>
				<path class="st14" d="M133.9,205c0,0-1.9-2.5-3.3-0.4c-1.4,2.1,0.6,8.3,4.1,6.8L133.9,205z"/>
				<g>
					<path class="st15" d="M133.9,209.4c-0.1,0-0.2-0.1-0.3-0.2c-0.5-1.9-2.5-2.7-2.5-2.7c-0.2-0.1-0.2-0.2-0.2-0.4
						c0.1-0.2,0.2-0.2,0.4-0.2c0.1,0,2.3,0.9,2.9,3.1C134.2,209.2,134.1,209.4,133.9,209.4C133.9,209.4,133.9,209.4,133.9,209.4z"/>
				</g>
				<g>
					<path class="st15" d="M131.9,208.5c-0.1,0-0.1,0-0.2,0c-0.1-0.1-0.2-0.3-0.1-0.4c0,0,0.4-0.6,1.1-0.9c0.1-0.1,0.3,0,0.4,0.1
						c0.1,0.1,0,0.3-0.1,0.4c-0.6,0.3-0.8,0.7-0.8,0.7C132.1,208.4,132,208.5,131.9,208.5z"/>
				</g>
			</g>
			<g>
				<path class="st14" d="M153.5,205c0,0,1.9-2.5,3.3-0.4c1.4,2.1-0.6,8.3-4.1,6.8L153.5,205z"/>
				<g>
					<g>
						<path class="st15" d="M153.6,209.4c0.1,0,0.2-0.1,0.3-0.2c0.5-1.9,2.5-2.7,2.5-2.7c0.2-0.1,0.2-0.2,0.2-0.4
							c-0.1-0.2-0.2-0.2-0.4-0.2c-0.1,0-2.3,0.9-2.9,3.1C153.2,209.2,153.3,209.4,153.6,209.4C153.5,209.4,153.5,209.4,153.6,209.4z
							"/>
					</g>
				</g>
				<g>
					<g>
						<path class="st15" d="M155.6,208.5c0.1,0,0.1,0,0.2,0c0.1-0.1,0.2-0.3,0.1-0.4c0,0-0.4-0.6-1.1-0.9c-0.1-0.1-0.3,0-0.4,0.1
							c-0.1,0.1,0,0.3,0.1,0.4c0.6,0.3,0.8,0.7,0.8,0.7C155.4,208.4,155.5,208.5,155.6,208.5z"/>
					</g>
				</g>
			</g>
			<path class="st13" d="M148.4,216.6v6.2c0,0-1.8,3.1-4.3,3.4c-2.5,0.2-4.7-2.7-4.7-2.7V217L148.4,216.6z"/>
			<path class="st14" d="M148.4,216.6v2.7c-1.7,1.9-4.6,2.3-9,1.7v-4L148.4,216.6z"/>
			<path class="st13" d="M154.9,200.8c-0.1,2.4-0.3,5.4-0.8,7.8c-0.1,0.6-0.2,1.2-0.4,1.7c-1.3,4.5-4.5,12.3-13.6,9.1
				c-4-1.4-5.9-5.9-6.7-10.4c-0.6-3.1-0.6-6.2-0.6-8.4c0-2.3,1.3-4.4,3.3-5.5c5.4-3,11-1.9,14.8-0.5
				C153.4,195.5,155,198,154.9,200.8z"/>
			<ellipse class="st6" cx="139.9" cy="205.4" rx="0.8" ry="1.2"/>
			<ellipse class="st6" cx="148.7" cy="205.4" rx="0.8" ry="1.2"/>
			<path class="st6" d="M151.1,201.3c0,0-2.4-0.9-4.2-0.1l0.2,1c0,0,2.7-0.2,4.1,0.3C151.3,202.1,151.3,201.7,151.1,201.3z"/>
			<path class="st6" d="M137.2,201.3c0,0,2.4-0.9,4.2-0.1l-0.2,1c0,0-2.7-0.2-4.1,0.3C137.1,202.1,137.1,201.7,137.2,201.3z"/>
			<g>
				<path class="st14" d="M144,210.5c-0.5,0.1-1-0.1-1.1-0.1c-0.2,0-0.2-0.2-0.2-0.4c0-0.2,0.2-0.2,0.4-0.2c0.3,0.1,0.9,0.2,1.2,0
					c0,0,0.1-0.1,0.1-0.3c0-1-0.7-4.4-0.7-4.4c0-0.2,0.1-0.3,0.2-0.3c0.2,0,0.3,0.1,0.3,0.2c0,0.1,0.7,3.5,0.7,4.5
					c0,0.4-0.2,0.6-0.3,0.8C144.5,210.4,144.2,210.5,144,210.5z"/>
			</g>
			<path class="st4" d="M140,212.3c0.2,1.2,1,3.4,3.7,3.4c2.7,0,3.4-2,3.7-3.4H140z"/>
			<g>
				<path class="st14" d="M143.5,217.5c0.8,0,1.4-0.4,1.4-0.4c0.1-0.1,0.2-0.3,0.1-0.4s-0.3-0.2-0.4-0.1c0,0-0.5,0.3-1.1,0.3
					c-0.5,0-1.1-0.3-1.1-0.3c-0.1-0.1-0.3,0-0.4,0.1c-0.1,0.1,0,0.3,0.1,0.4C142.2,217.1,142.8,217.5,143.5,217.5z"/>
			</g>
			<path class="st6" d="M154.6,205h-1.3c0.1-1.3-0.3-2.9-0.7-4c-0.9-2.4,1-3.5-0.5-4.7c-1.6-1.2-5.4-0.7-8.2-0.8
				c-2.7-0.1-7.1,0-8.2,0.2c-1.1,0.2-0.5,2-0.1,3.4c0.4,1.4-1.3,2.9-1.6,4.3c-0.1,0.4-0.1,1,0,1.7h-1.1c-0.1-1.7-0.2-3.3-0.1-4.6
				c0-2.3,1.3-4.4,3.3-5.5c5.4-3,11-1.9,14.8-0.5c2.6,1,4.2,3.5,4.1,6.3C154.9,202.1,154.8,203.6,154.6,205z"/>
			<g>
				<g>
					<path class="st4" d="M145.8,206.2c0-2,1.6-3.6,3.6-3.6c2,0,3.6,1.6,3.6,3.6c0,2-1.6,3.6-3.6,3.6
						C147.5,209.8,145.8,208.2,145.8,206.2z M146.4,206.2c0,1.7,1.4,3.1,3.1,3.1c1.7,0,3.1-1.4,3.1-3.1c0-1.7-1.4-3.1-3.1-3.1
						C147.8,203.1,146.4,204.5,146.4,206.2z"/>
				</g>
				<g>
					<path class="st4" d="M135.9,206.2c0-2,1.6-3.6,3.6-3.6c2,0,3.6,1.6,3.6,3.6c0,2-1.6,3.6-3.6,3.6
						C137.5,209.8,135.9,208.2,135.9,206.2z M136.4,206.2c0,1.7,1.4,3.1,3.1,3.1c1.7,0,3.1-1.4,3.1-3.1c0-1.7-1.4-3.1-3.1-3.1
						C137.8,203.1,136.4,204.5,136.4,206.2z"/>
				</g>
				<g>
					<path class="st4" d="M155,203.2c0.2,0.1,0.1,0.5-0.1,0.6c-1.3,0.3-2.2,1.1-2.2,1.1c-0.1,0.1-0.1,0.1-0.2,0.1
						c-0.1,0-0.1,0-0.2-0.1c-0.1-0.1-0.1-0.3,0-0.4C152.3,204.5,153.4,203.5,155,203.2z"/>
				</g>
				<g>
					<path class="st4" d="M136.7,204.9c-0.1,0.1-0.1,0.1-0.2,0.1c-0.1,0-0.1,0-0.2,0c0,0-2-1.3-3.8-1.3c-0.2-0.2-0.2-0.4,0-0.6
						c2,0,4.1,1.4,4.2,1.4C136.7,204.6,136.7,204.8,136.7,204.9z"/>
				</g>
				<g>
					<path class="st4" d="M143,205.4c0,0,0.7-0.9,1.6-0.9c0.9,0,1.5,0.9,1.5,0.9l0.5-0.3c0,0-0.8-1.2-2-1.2c-1.2,0-2,1.1-2,1.2
						L143,205.4z"/>
				</g>
			</g>
		</g>
	</g>
	<g>
		<g>
			<g>
				<g>
					<path class="st8" d="M276.5,45.9c0,8.3-2.2,16.2-6.1,22.9c-6.9,12-13.5,24.2-19.6,36.6l-3.4,7h-33.7l-5-10.2
						c-5.5-11.3-11.5-22.4-17.9-33.2c-4-6.8-6.2-14.7-6.2-23.1c0-24.9,20-45.3,44.8-45.9c0.4,0,0.9,0,1.3,0
						C256,0.1,276.5,20.6,276.5,45.9z"/>
					<g class="st16">
						<path class="st8" d="M193.8,49.6c-1.8,0-3.3-1.4-3.5-3.2c0-0.5-0.9-13.3,8.4-26.5C208.3,6.4,224.3,5,225,5
							c1.9-0.1,3.6,1.3,3.7,3.2c0.1,1.9-1.3,3.6-3.2,3.7c-0.1,0-13.5,1.2-21,11.9c-7.8,11-7.1,21.8-7.1,22c0.1,1.9-1.3,3.6-3.2,3.7
							C194,49.6,193.9,49.6,193.8,49.6z"/>
					</g>
					<g>
						<g>
							<g class="st17">
								<path class="st8" d="M246.1,66.9c-0.3,0-0.5-0.1-0.6-0.4l-1.5-2.9l-1.5,2.9c-0.1,0.2-0.4,0.4-0.6,0.4
									c-0.3,0-0.5-0.1-0.6-0.4l-1.5-2.9l-1.5,2.9c-0.1,0.2-0.4,0.4-0.6,0.4l0,0c-0.3,0-0.5-0.1-0.6-0.4l-1.5-2.9l-1.5,2.9
									c-0.1,0.2-0.4,0.4-0.6,0.4l0,0c-0.3,0-0.5-0.1-0.6-0.4l-1.5-2.9l-1.5,2.9c-0.1,0.2-0.4,0.4-0.6,0.4c-0.3,0-0.5-0.1-0.6-0.4
									l-1.5-2.9l-1.5,2.9c-0.1,0.2-0.4,0.4-0.6,0.4l0,0c-0.3,0-0.5-0.1-0.6-0.4l-1.5-2.9l-1.5,2.9c-0.1,0.2-0.4,0.4-0.6,0.4
									c-0.3,0-0.5-0.1-0.6-0.4l-1.5-2.9l-1.5,2.9c-0.1,0.2-0.4,0.4-0.6,0.4l0,0c-0.3,0-0.5-0.1-0.6-0.4l-2.1-4.1
									c-0.2-0.3,0-0.8,0.3-1c0.3-0.2,0.8,0,1,0.3l1.5,2.9l1.5-2.9c0.1-0.2,0.4-0.4,0.6-0.4c0.3,0,0.5,0.1,0.6,0.4l1.5,2.9l1.5-2.9
									c0.1-0.2,0.4-0.4,0.6-0.4c0.3,0,0.5,0.1,0.6,0.4l1.5,2.9l1.5-2.9c0.1-0.2,0.4-0.4,0.6-0.4c0.3,0,0.5,0.1,0.6,0.4l1.5,2.9
									l1.5-2.9c0.1-0.2,0.4-0.4,0.6-0.4c0.3,0,0.5,0.1,0.6,0.4l1.5,2.9l1.5-2.9c0.1-0.2,0.4-0.4,0.6-0.4l0,0
									c0.3,0,0.5,0.1,0.6,0.4l1.5,2.9l1.5-2.9c0.1-0.2,0.4-0.4,0.6-0.4c0.3,0,0.5,0.1,0.6,0.4l1.5,2.9l1.5-2.9
									c0.1-0.2,0.4-0.4,0.6-0.4c0.3,0,0.5,0.1,0.6,0.4l1.5,2.9l1.5-2.9c0.2-0.3,0.6-0.5,1-0.3c0.3,0.2,0.5,0.6,0.3,1l-2.1,4.1
									C246.6,66.7,246.4,66.9,246.1,66.9z"/>
							</g>
							<g>
								<g>
									<g>
										<polygon class="st6" points="221.5,112.5 211.9,63.8 213.3,63.5 222.9,112.5 										"/>
									</g>
								</g>
								<g>
									<g>
										<circle class="st6" cx="212.6" cy="63.7" r="3.1"/>
									</g>
								</g>
							</g>
							<g>
								<g>
									<g>
										<polygon class="st6" points="241.2,112.5 250.7,63.8 249.3,63.5 239.7,112.5 										"/>
									</g>
								</g>
								<g>
									<g>
										<circle class="st6" cx="250" cy="63.7" r="3.1"/>
									</g>
								</g>
							</g>
						</g>
					</g>
					<path class="st18" d="M276.5,45.9c0,8.3-2.2,16.2-6.1,22.9c-6.9,12-13.5,24.2-19.6,36.6l-3.4,7H217c19.6-2,41.5-37.5,38.4-71.4
						c-3.2-34.8-24.5-40.8-26-41.1c0.4,0,0.9,0,1.3,0C256,0.1,276.5,20.6,276.5,45.9z"/>
				</g>
				<g>
					<g>
						<path class="st6" d="M249,114.8v5c0,1.3-1,2.3-2.3,2.3h-32.9c-1.3,0-2.3-1-2.3-2.3v-5c0-1.3,1-2.3,2.3-2.3h32.9
							C248,112.5,249,113.5,249,114.8z"/>
						<path class="st3" d="M249,116.8v2.9c0,1.3-1,2.3-2.3,2.3h-32.9c-1.3,0-2.3-1-2.3-2.3v-2.9H249z"/>
					</g>
					<g>
						<path class="st6" d="M249,124.4v5c0,1.1-0.8,2.1-1.9,2.3c-0.1,0-0.3,0-0.4,0h-32.9c-0.1,0-0.3,0-0.4,0
							c-1.1-0.2-1.9-1.1-1.9-2.3v-5c0-1.3,1-2.3,2.3-2.3h32.9C248,122.1,249,123.1,249,124.4z"/>
						<path class="st3" d="M249,126.4v3c0,1.1-0.8,2.1-1.9,2.3h-33.7c-1.1-0.2-1.9-1.1-1.9-2.3v-3H249z"/>
					</g>
					<g>
						<path class="st6" d="M249,134v5c0,1.1-0.8,2.1-1.9,2.3c-0.1,0-0.2,0-0.4,0h-32.9c-0.1,0-0.3,0-0.4,0c-1.1-0.2-1.9-1.1-1.9-2.3
							v-5c0-1.3,1-2.3,2.3-2.3h32.9C248,131.7,249,132.7,249,134z"/>
						<path class="st3" d="M249,136v3c0,1.1-0.8,2.1-1.9,2.3h-33.7c-1.1-0.2-1.9-1.1-1.9-2.3v-3H249z"/>
					</g>
					<path class="st3" d="M221.3,141.3c0,5.1,4.1,9.1,9.2,9.1c5.1,0,9.2-4.1,9.2-9.1H221.3z"/>
				</g>
			</g>
		</g>
	</g>
	<g>
		<g>
			<g>
				<g>
					<path class="st8" d="M418.5,272.1c0,2.9-2.3,5.2-5.2,5.2c-2.9,0-5.2-2.3-5.2-5.2c0-2.9,2.3-5.2,5.2-5.2
						C416.2,266.9,418.5,269.3,418.5,272.1z M409.8,272.1c0,2,1.6,3.6,3.6,3.6c2,0,3.6-1.6,3.6-3.6c0-2-1.6-3.6-3.6-3.6
						C411.4,268.6,409.8,270.2,409.8,272.1z"/>
				</g>
				<g>
					<path class="st7" d="M423.8,245.7c0,2.9-2.3,5.2-5.2,5.2c-2.9,0-5.2-2.3-5.2-5.2c0-2.9,2.3-5.2,5.2-5.2
						C421.5,240.4,423.8,242.8,423.8,245.7z M415.1,245.7c0,2,1.6,3.6,3.6,3.6c2,0,3.6-1.6,3.6-3.6c0-2-1.6-3.6-3.6-3.6
						C416.7,242.1,415.1,243.7,415.1,245.7z"/>
				</g>
				<g>
					<g>
						<g>
							<path class="st7" d="M434.5,233.1c0,0.5-0.4,0.8-0.8,0.8h-3.6c-0.5,0-0.8-0.4-0.8-0.8s0.4-0.8,0.8-0.8h3.6
								C434.1,232.3,434.5,232.7,434.5,233.1z"/>
						</g>
						<g>
							<path class="st7" d="M440.8,233.1c0,0.5-0.4,0.8-0.8,0.8h-3.6c-0.5,0-0.8-0.4-0.8-0.8s0.4-0.8,0.8-0.8h3.6
								C440.4,232.3,440.8,232.7,440.8,233.1z"/>
						</g>
					</g>
					<g>
						<g>
							<path class="st7" d="M435.8,228v3.2c0,0.5-0.4,0.8-0.8,0.8s-0.8-0.4-0.8-0.8V228c0-0.5,0.4-0.8,0.8-0.8
								S435.8,227.6,435.8,228z"/>
						</g>
						<g>
							<path class="st7" d="M435.8,234.9v3.2c0,0.5-0.4,0.8-0.8,0.8s-0.8-0.4-0.8-0.8v-3.2c0-0.5,0.4-0.8,0.8-0.8
								S435.8,234.5,435.8,234.9z"/>
						</g>
					</g>
				</g>
				<g>
					<g>
						<g>
							<g>
								<path class="st12" d="M428.6,260.9c0,0.5-0.4,0.8-0.8,0.8h-3.6c-0.5,0-0.8-0.4-0.8-0.8c0-0.5,0.4-0.8,0.8-0.8h3.6
									C428.2,260.1,428.6,260.5,428.6,260.9z"/>
							</g>
							<g>
								<path class="st12" d="M434.9,260.9c0,0.5-0.4,0.8-0.8,0.8h-3.6c-0.5,0-0.8-0.4-0.8-0.8c0-0.5,0.4-0.8,0.8-0.8h3.6
									C434.5,260.1,434.9,260.5,434.9,260.9z"/>
							</g>
						</g>
						<g>
							<g>
								<path class="st12" d="M430,255.9v3.2c0,0.5-0.4,0.8-0.8,0.8s-0.8-0.4-0.8-0.8v-3.2c0-0.5,0.4-0.8,0.8-0.8
									S430,255.4,430,255.9z"/>
							</g>
							<g>
								<path class="st12" d="M430,262.8v3.2c0,0.5-0.4,0.8-0.8,0.8s-0.8-0.4-0.8-0.8v-3.2c0-0.5,0.4-0.8,0.8-0.8
									S430,262.3,430,262.8z"/>
							</g>
						</g>
					</g>
				</g>
			</g>
		</g>
		<g>
			<g>
				<g>
					<path class="st7" d="M32,98.3c0,2.9-2.3,5.2-5.2,5.2s-5.2-2.3-5.2-5.2c0-2.9,2.3-5.2,5.2-5.2S32,95.4,32,98.3z M30.3,98.3
						c0-2-1.6-3.6-3.6-3.6c-2,0-3.6,1.6-3.6,3.6c0,2,1.6,3.6,3.6,3.6C28.7,101.9,30.3,100.3,30.3,98.3z"/>
				</g>
				<g>
					<g>
						<path class="st8" d="M53.2,91.3c0,2.9-2.3,5.2-5.2,5.2c-2.9,0-5.2-2.3-5.2-5.2c0-2.9,2.3-5.2,5.2-5.2
							C50.9,86.1,53.2,88.4,53.2,91.3z M51.6,91.3c0-2-1.6-3.6-3.6-3.6c-2,0-3.6,1.6-3.6,3.6c0,2,1.6,3.6,3.6,3.6
							C50,94.8,51.6,93.2,51.6,91.3z"/>
					</g>
				</g>
				<g>
					<g>
						<g>
							<path class="st12" d="M53.9,68.9c-0.5,0-0.8,0.4-0.8,0.8v3.6c0,0.5,0.4,0.8,0.8,0.8s0.8-0.4,0.8-0.8v-3.6
								C54.7,69.3,54.4,68.9,53.9,68.9z"/>
						</g>
						<g>
							<path class="st12" d="M53.9,62.6c-0.5,0-0.8,0.4-0.8,0.8V67c0,0.5,0.4,0.8,0.8,0.8s0.8-0.4,0.8-0.8v-3.6
								C54.7,63,54.4,62.6,53.9,62.6z"/>
						</g>
					</g>
					<g>
						<g>
							<path class="st12" d="M59,67.5h-3.2c-0.5,0-0.8,0.4-0.8,0.8s0.4,0.8,0.8,0.8H59c0.5,0,0.8-0.4,0.8-0.8S59.4,67.5,59,67.5z"/>
						</g>
						<g>
							<path class="st12" d="M52.1,67.5h-3.2c-0.5,0-0.8,0.4-0.8,0.8s0.4,0.8,0.8,0.8h3.2c0.5,0,0.8-0.4,0.8-0.8
								S52.5,67.5,52.1,67.5z"/>
						</g>
					</g>
				</g>
				<g>
					<g>
						<g>
							<g>
								<path class="st7" d="M31.8,74.7c-0.5,0-0.8,0.4-0.8,0.8v3.6c0,0.5,0.4,0.8,0.8,0.8c0.5,0,0.8-0.4,0.8-0.8v-3.6
									C32.6,75,32.3,74.7,31.8,74.7z"/>
							</g>
							<g>
								<path class="st7" d="M31.8,68.4c-0.5,0-0.8,0.4-0.8,0.8v3.6c0,0.5,0.4,0.8,0.8,0.8c0.5,0,0.8-0.4,0.8-0.8v-3.6
									C32.6,68.7,32.3,68.4,31.8,68.4z"/>
							</g>
						</g>
						<g>
							<g>
								<path class="st7" d="M36.9,73.3h-3.2c-0.5,0-0.8,0.4-0.8,0.8s0.4,0.8,0.8,0.8h3.2c0.5,0,0.8-0.4,0.8-0.8
									S37.3,73.3,36.9,73.3z"/>
							</g>
							<g>
								<path class="st7" d="M30,73.3h-3.2c-0.5,0-0.8,0.4-0.8,0.8s0.4,0.8,0.8,0.8H30c0.5,0,0.8-0.4,0.8-0.8S30.4,73.3,30,73.3z"/>
							</g>
						</g>
					</g>
				</g>
			</g>
		</g>
		<g>
			<g>
				<g>
					<path class="st0" d="M306.8,61.9c0.1,0,0.2,0,0.3,0c1-0.4,1.6-0.6,1.6-0.6c0.3-0.1,0.5-0.4,0.4-0.8c-0.1-0.3-0.4-0.5-0.8-0.4
						c0,0-0.6,0.2-1.7,0.7c-0.3,0.1-0.5,0.5-0.3,0.8C306.4,61.7,306.6,61.8,306.8,61.9z"/>
				</g>
				<g>
					<path class="st0" d="M276,94.3c-0.4,1.1-0.8,2.2-1.1,3.4c-0.1,0.3-0.4,0.5-0.6,0.4c0,0-0.1,0-0.1,0c-0.3-0.1-0.5-0.4-0.4-0.8
						c0.4-1.2,0.7-2.3,1.2-3.4c0.1-0.3,0.5-0.5,0.8-0.4C276,93.6,276.1,93.9,276,94.3z"/>
					<path class="st0" d="M273.9,101c-0.3,1.1-0.5,2.3-0.7,3.5c-0.1,0.3-0.3,0.5-0.7,0.5c0,0,0,0,0,0c-0.3-0.1-0.5-0.4-0.5-0.7
						c0.2-1.2,0.5-2.4,0.8-3.5c0.1-0.3,0.4-0.5,0.7-0.4C273.8,100.4,274,100.7,273.9,101z"/>
					<path class="st0" d="M271.4,119.3c-0.3,0-0.5-0.3-0.5-0.6c0-1.2,0-2.4,0-3.6c0-0.3,0.3-0.6,0.6-0.6c0.3,0,0.6,0.3,0.6,0.6
						c0,1.2,0,2.4,0,3.6C272.1,119,271.8,119.3,271.4,119.3C271.4,119.3,271.4,119.3,271.4,119.3z"/>
					<path class="st0" d="M272.1,107.3c0.3,0,0.6,0.3,0.5,0.7c-0.1,0.5-0.1,1.1-0.2,1.6c-0.1,0.6-0.1,1.3-0.2,1.9
						c0,0.3-0.3,0.6-0.6,0.6c0,0,0,0,0,0c-0.3,0-0.6-0.3-0.5-0.6c0.1-0.6,0.1-1.3,0.2-1.9c0.1-0.6,0.1-1.1,0.2-1.7
						C271.5,107.5,271.8,107.3,272.1,107.3C272.1,107.3,272.1,107.3,272.1,107.3z"/>
					<path class="st0" d="M277.4,91c-0.1,0.2-0.4,0.4-0.6,0.4c-0.1,0-0.1,0-0.2,0c-0.3-0.1-0.4-0.5-0.3-0.8c0.5-1.1,1-2.2,1.6-3.3
						c0.2-0.3,0.5-0.4,0.8-0.3c0.3,0.2,0.4,0.5,0.3,0.8C278.4,88.8,277.9,89.9,277.4,91z"/>
					<path class="st0" d="M303.9,63.3c-1,0.5-2.1,1.1-3.1,1.7c-0.1,0.1-0.2,0.1-0.4,0.1c-0.2,0-0.4-0.1-0.5-0.3
						c-0.2-0.3-0.1-0.7,0.2-0.8c1-0.6,2.1-1.2,3.2-1.8c0.3-0.2,0.7,0,0.8,0.3C304.3,62.8,304.2,63.2,303.9,63.3z"/>
					<path class="st0" d="M294.9,69c-0.1,0.1-0.3,0.1-0.4,0.1c-0.2,0-0.3-0.1-0.4-0.2c-0.2-0.3-0.2-0.6,0.1-0.8
						c1-0.7,1.9-1.4,2.9-2.1c0.3-0.2,0.7-0.1,0.8,0.2c0.2,0.3,0.1,0.7-0.2,0.8C296.8,67.6,295.8,68.3,294.9,69z"/>
					<path class="st0" d="M284.7,78.9c-0.1,0.2-0.3,0.2-0.5,0.2c-0.1,0-0.2-0.1-0.3-0.1c-0.3-0.2-0.3-0.6-0.1-0.8
						c0.8-0.9,1.5-1.9,2.4-2.8c0.2-0.2,0.6-0.3,0.9,0c0.2,0.2,0.3,0.6,0,0.9C286.3,77.1,285.5,78,284.7,78.9z"/>
					<path class="st0" d="M289.5,73.6c-0.1,0.1-0.3,0.2-0.5,0.2c-0.1,0-0.3-0.1-0.4-0.2c-0.2-0.2-0.2-0.6,0-0.9
						c0.9-0.8,1.8-1.7,2.7-2.4c0.3-0.2,0.6-0.2,0.9,0.1c0.2,0.3,0.2,0.6-0.1,0.9C291.2,72,290.4,72.8,289.5,73.6z"/>
					<path class="st0" d="M280.7,84.7c-0.1,0.2-0.4,0.3-0.6,0.3c-0.1,0-0.2,0-0.3-0.1c-0.3-0.2-0.4-0.5-0.2-0.8c0.6-1,1.3-2,2-3
						c0.2-0.3,0.6-0.3,0.8-0.1c0.3,0.2,0.3,0.6,0.1,0.8C281.9,82.7,281.3,83.7,280.7,84.7z"/>
				</g>
			</g>
			<g>
				<g>
					<polygon class="st8" points="306.8,57.7 304.2,47.9 336.6,48.2 					"/>
					<polygon class="st7" points="336.6,48.2 308.4,60.1 308.3,60.1 307.1,62.1 306.8,57.7 					"/>
					<polygon class="st12" points="307.1,62.1 309.7,61.7 308.3,60.1 					"/>
					<polygon class="st8" points="311.9,58.6 308.3,60.1 315.6,68.3 336.6,48.2 					"/>
				</g>
			</g>
		</g>
		<g>
			<g>
				<rect x="402.5" y="177.9" class="st8" width="42.1" height="30.1"/>
				<polygon class="st3" points="444.6,200.1 442.6,196.7 435.8,185.2 422.2,208.1 444.6,208.1 				"/>
				<polygon class="st6" points="419.4,208.1 402.5,208.1 411,194.5 419.4,180.8 427.9,194.5 436.3,208.1 				"/>
				<polygon class="st4" points="414,189.7 419.4,193.8 424.9,189.7 419.4,180.8 				"/>
				<polygon class="st4" points="431.2,193 435.8,196.7 440.4,193 435.8,185.2 				"/>
			</g>
		</g>
		<g>
			<g>
				<path class="st8" d="M44.2,125.7V146c0,1.3-1.1,2.3-2.3,2.3H21.6c-0.9,0-1.7-0.5-2.1-1.2c0-0.1-0.1-0.2-0.1-0.2
					c0-0.1-0.1-0.2-0.1-0.4c0,0,0,0,0,0c0,0,0,0,0-0.1c0-0.1,0-0.3,0-0.4v-20.3c0-1.2,0.9-2.2,2.1-2.3c0.1,0,0.2,0,0.2,0h20.3
					c0.2,0,0.5,0,0.7,0.1c0,0,0,0,0,0C43.5,123.7,44.2,124.6,44.2,125.7z"/>
			</g>
			<g>
				<path class="st4" d="M37.5,136.8c-1.8-3.4-3.8-6.6-5.4-10.4v5.6c0.5,0.2,0.9,0.6,0.9,1.2c0,0.7-0.6,1.3-1.3,1.3
					c-0.7,0-1.3-0.6-1.3-1.3c0-0.6,0.4-1.1,0.9-1.2v-5.6c-1.6,3.9-3,5.4-5.4,10.4l3.9,3.9h1.9h1.9L37.5,136.8z"/>
				<rect x="29.8" y="141.9" class="st4" width="3.8" height="2.1"/>
			</g>
		</g>
		<g>
			<g>
				<path class="st7" d="M373.4,66.1v19.1c0,1.2-1,2.2-2.2,2.2h-19.1c-0.8,0-1.6-0.5-1.9-1.1c0-0.1-0.1-0.2-0.1-0.2
					c0-0.1-0.1-0.2-0.1-0.3c0,0,0,0,0,0s0,0,0-0.1c0-0.1,0-0.3,0-0.4V66.1c0-1.1,0.9-2.1,2-2.2c0.1,0,0.2,0,0.2,0h19.1
					c0.2,0,0.4,0,0.7,0.1c0,0,0,0,0,0C372.8,64.3,373.4,65.1,373.4,66.1z"/>
			</g>
			<g>
				<g>
					<path class="st4" d="M361.7,67.2c0,0-0.1,0-0.1,0c-2.6,0.1-4.7,2.2-4.7,4.9c0,0.9,0.2,1.7,0.7,2.5c0.7,1.2,1.3,2.3,1.9,3.5
						l0.5,1.1h0.4h3.2l0.4-0.7c0.6-1.3,1.3-2.6,2.1-3.9c0.4-0.7,0.6-1.5,0.6-2.4C366.5,69.4,364.4,67.2,361.7,67.2z"/>
					<path class="st4" d="M363.5,80.5h-3.6v1.2c0,1,0.8,1.8,1.8,1.8l0,0c1,0,1.8-0.8,1.8-1.8V80.5z"/>
				</g>
			</g>
		</g>
	</g>
	<g>
		<path class="st8" d="M284.7,343.3h-21.5c-2.9,0-5.5-1.9-6.4-4.7l-9.1-28.1c-0.4-1.1,0.4-2.3,1.6-2.4c16.6-1.3,33.1-1.3,49.4,0
			c1.2,0.1,2,1.3,1.6,2.4l-9.1,28.1C290.3,341.4,287.7,343.3,284.7,343.3z"/>
		<ellipse class="st3" cx="274.1" cy="310.2" rx="24.3" ry="1.4"/>
		<g>
			<g>
				<path class="st12" d="M275,290.2c0,0-0.2-15.7-20-18.1C255,272.1,255.7,294.3,275,290.2z"/>
			</g>
			<g>
				<path class="st12" d="M272.8,271.6c0,0,2-15.6,21.9-15.8C294.7,255.8,291.6,277.8,272.8,271.6z"/>
			</g>
			<g>
				<path class="st7" d="M272.8,259v51c0.8,0.2,1.6,0.2,2.3,0v-51c0-0.6-0.5-1.1-1.1-1.1l0,0C273.4,257.8,272.8,258.3,272.8,259z"/>
			</g>
			<g>
				<path class="st7" d="M273.7,272.6c0,0,11.6,11,24.9-10.4C298.6,262.1,275.6,257.5,273.7,272.6z"/>
			</g>
			<g>
				<path class="st7" d="M274.5,289.9c0,0,13,9.4,23.3-13.6C297.8,276.3,274.4,274.8,274.5,289.9z"/>
			</g>
			<g>
				<path class="st7" d="M274,291.9c0,0-0.5-16-25-10.2C249,281.7,262,301.2,274,291.9z"/>
			</g>
			<g>
				<path class="st7" d="M275.2,271.8c0,0-0.1-16-24.7-10.8C250.4,261,263,280.8,275.2,271.8z"/>
			</g>
		</g>
	</g>
	<g>
		<g>
			<path class="st7" d="M13.4,334.4l-3.4-0.8c-2.8-0.7-4.5-3.5-3.9-6.3l23.4-97.5l13.6,3.3l-23.4,97.5
				C19.1,333.3,16.3,335,13.4,334.4z"/>
			
				<rect x="31.8" y="210.8" transform="matrix(0.9724 0.2332 -0.2332 0.9724 52.6532 -2.9401)" class="st8" width="14" height="20.9"/>
			<path class="st4" d="M57,196.1c-0.9,5.7-3.5,11.4-9,16.5l-13.6-3.3c0,0-3.4-9,0-16.1c0.8-1.6,1.5-2.8,2.3-3.8c0,0,0,0,0,0
				c6.4-8.2,13-0.8,14.4-20C51.2,169.5,59.1,182.4,57,196.1z"/>
			<path class="st7" d="M57,196.1c-4,3.6-10.7-2.4-12.9-5.4c-2.6-3.6-7.2-1.4-7.4-1.3c6.4-8.2,13-0.8,14.4-20
				C51.2,169.5,59.1,182.4,57,196.1z"/>
		</g>
	</g>
</g>
</svg>
