<?xml version="1.0" encoding="utf-8"?>
<!-- Generator: Adobe Illustrator 21.0.2, SVG Export Plug-In . SVG Version: 6.00 Build 0)  -->
<svg version="1.1" id="BACKGROUND" xmlns="http://www.w3.org/2000/svg" xmlns:xlink="http://www.w3.org/1999/xlink" x="0px" y="0px"
	 viewBox="0 0 753.9 616.5" style="enable-background:new 0 0 753.9 616.5;" xml:space="preserve">
<style type="text/css">
	.st0{fill:#EAF4FF;}
	.st1{fill:#FFE1E8;}
	.st2{fill:#FFF6D9;}
	.st3{fill:#FAD141;}
	.st4{fill:#FC4C86;}
</style>
<g>
	<g>
		<path class="st0" d="M1.5,485.7C-7,441.5,21,397,57.7,371s81.1-38.3,123.5-53.4c83.3-29.7,164.2-74.4,218.7-144.1
			c25.8-32.9,45-70.6,70.6-103.6s60-62.4,101.3-68.7C628.6-7.5,685.7,32,708.4,84.7s15.5,114.7-7.6,167.3
			c-23,52.6-60.5,97.5-99,140.1c-48.5,53.7-99.3,105.3-152.5,154.4c-11.1,10.2-22.7,20.6-37.1,25.1c-17.6,5.5-36.6,1.4-54.6-2.8
			C239.1,541.5,120.3,514,1.6,486.5"/>
	</g>
	<g>
		<path class="st1" d="M158.6,491.8c21.9-19.9,43.5-41.5,55-68.7c14.5-34.3,11.2-73.1,13.4-110.3c2.3-37.2,13.3-78.1,45.2-97.3
			c34.3-20.6,78.1-8.1,117.9-12.8c61.7-7.3,109.7-55.5,150.9-102c25.4-28.6,57.8-60.6,95.4-53.5c30.7,5.8,51.2,37.7,53.7,68.9
			s-8.9,61.7-21.1,90.5c-37.8,89.3-85.2,174.5-141.2,253.7c-11.5,16.3-24.1,32.9-41.9,41.8c-24.7,12.3-54.1,7.3-81.3,2.9
			c-79-12.8-159.1-18.5-239.1-17"/>
	</g>
	<g>
		<path class="st2" d="M270.8,553.3c39.2-13.1,56.6-58.2,65.5-98.5c9-40.3,16.9-85.4,49.6-110.6c24.9-19.2,58.7-21.9,90.1-19.8
			c31.4,2.1,62.9,8.2,94,3.7c42-6,82-31,124-24.8c28,4.2,54.6,25.1,59.2,53.1c4.7,28.4-13.5,56.3-36.5,73.7
			c-23,17.4-50.6,27.3-75.9,41.2c-49.7,27.3-89.3,69.6-135.7,102c-46.4,32.5-106.1,55.3-159.5,36.3c-27.9-9.9-50.9-30.3-71.3-51.8"
			/>
	</g>
</g>
<g>
	<g>
		<path class="st3" d="M166.5,574.1c50.2-26.8,70.7-84.2,86.9-135.2c9.4-29.6,18.5-59.7,34.1-86.7c15.8-27.3,38.5-48.6,65.9-64
			c26.9-15.1,56.5-24.7,86.2-32.7c34.6-9.3,69.7-16.3,104.9-22.9c66.8-12.5,134.3-23.2,199.1-44.3c57.2-18.6,112.8-45.2,158.2-85.3
			c5.8-5.1,11.3-10.4,16.7-15.9c0.6-0.7-0.4-1.7-1-1c-43.6,44.5-99.4,74.5-157.7,95.2c-63.4,22.5-129.8,34.1-195.8,46.2
			c-34.9,6.4-69.8,12.9-104.3,21.3c-30,7.3-60.1,15.7-88.3,28.6c-26.5,12.1-51.4,28.7-69.8,51.6c-18.6,23.1-30.1,50.7-39.5,78.6
			c-18.2,53.6-31.4,115.9-77.8,153.2c-5.7,4.6-11.9,8.6-18.4,12.1C165,573.3,165.7,574.5,166.5,574.1L166.5,574.1z"/>
	</g>
</g>
<g>
	<g>
		<path class="st4" d="M268.9,597.6c43.4-8.5,83.1-33.5,109.3-69.2c30.3-41.2,40.5-93.2,63.8-138.2c24.6-47.5,58.1-89.7,90.8-131.9
			c17.6-22.6,35.2-45.3,52.7-67.9c15.7-20.2,31.4-40.8,50.5-58C679.6,93,737.9,83.6,794,75.8c0.9-0.1,0.5-1.5-0.4-1.4
			c-48,6.7-98.6,14-139.6,41.9c-20.7,14.1-37.6,32.8-53.2,52.2c-17.5,21.8-34.4,44.1-51.6,66.2c-32.6,41.9-66.6,83.3-94.1,128.9
			c-13.1,21.7-24.1,44.4-33.4,68c-9.4,24.1-17.8,48.8-29.9,71.8c-25.2,47.8-70.3,82.4-123.5,92.9C267.6,596.4,268,597.7,268.9,597.6
			L268.9,597.6z"/>
	</g>
</g>
</svg>
