<?xml version="1.0" encoding="utf-8"?>
<!-- Generator: Adobe Illustrator 21.0.2, SVG Export Plug-In . SVG Version: 6.00 Build 0)  -->
<svg version="1.1" id="Layer_1" xmlns="http://www.w3.org/2000/svg" xmlns:xlink="http://www.w3.org/1999/xlink" x="0px" y="0px"
	 viewBox="0 0 519 386.5" style="enable-background:new 0 0 519 386.5;" xml:space="preserve">
<style type="text/css">
	.st0{fill:#DCEAFA;}
	.st1{fill:#EAF4FF;}
	.st2{opacity:0.23;}
	.st3{fill:url(#SVGID_1_);}
	.st4{fill:url(#SVGID_2_);}
	.st5{fill:url(#SVGID_3_);}
	.st6{fill:url(#SVGID_4_);}
	.st7{fill:url(#SVGID_5_);}
	.st8{fill:url(#SVGID_6_);}
	.st9{fill:url(#SVGID_7_);}
	.st10{fill:url(#SVGID_8_);}
	.st11{fill:url(#SVGID_9_);}
	.st12{fill:url(#SVGID_10_);}
	.st13{fill:url(#SVGID_11_);}
	.st14{fill:url(#SVGID_12_);}
	.st15{fill:url(#SVGID_13_);}
	.st16{fill:url(#SVGID_14_);}
	.st17{fill:url(#SVGID_15_);}
	.st18{fill:url(#SVGID_16_);}
	.st19{fill:url(#SVGID_17_);}
	.st20{fill:url(#SVGID_18_);}
	.st21{fill:url(#SVGID_19_);}
	.st22{fill:url(#SVGID_20_);}
	.st23{fill:url(#SVGID_21_);}
	.st24{fill:url(#SVGID_22_);}
	.st25{fill:url(#SVGID_23_);}
	.st26{fill:#CFE5FF;}
	.st27{fill:#FFB700;}
	.st28{fill:#C3F0CE;}
</style>
<g>
	<path class="st0" d="M316,377.9c-8.9,0-17.8-0.9-26.5-2.8l-9.6-2.1c-0.1,0-0.2,0-0.3,0c-27.8,0-54.4-11.9-73-32.8l-0.4-0.4
		C144.4,269.3,89,263.6,44.5,259c-10.6-1.1-20.5-2.1-29.6-4c-0.2,0-0.4-0.3-0.4-0.5V67.2c0-0.1,0.1-0.3,0.2-0.4
		c22.9-20,51.2-36.7,81.8-48.4C128,6.4,161.4,0,193,0c96.7,0,147.2,29.9,162.2,57.8c8.3,15.4,7.3,31.8-3,47.3
		c-14.7,22.3-19.5,38.1-14.7,48.3c6.7,14.3,30.8,16.9,58.6,19.8c32.9,3.5,70.1,7.5,85.1,33.1c9.8,16.7,11.8,36.5,5.9,57.2
		c-10.5,36.8-45,74.4-90.1,98.2c-14,7.4-29.7,11.3-45.6,11.2l-5.9,1.5C335.9,376.7,326,377.9,316,377.9z M279.9,372c0,0,0.1,0,0.1,0
		l9.7,2.1c18.3,4,37.5,3.7,55.6-0.7l6-1.5c0,0,0.1,0,0.1,0c0.2,0,0.4,0,0.6,0c15.5,0,30.9-3.8,44.6-11
		c44.8-23.7,79.2-61.1,89.6-97.6c5.9-20.7,4-39.7-5.8-56.4c-14.7-25.2-51.7-29.1-84.3-32.6c-28.1-3-52.4-5.6-59.4-20.4
		c-5-10.6-0.2-26.7,14.8-49.3c10-15.2,11-31.1,2.9-46.2C339.4,30.6,289.2,1,193,1C130.5,1,62.5,26.4,15.5,67.4v186.7
		c8.9,1.8,18.7,2.8,29.1,3.9c44.7,4.6,100.2,10.4,162.3,81.2l0.4,0.4c18.5,20.6,44.8,32.5,72.3,32.5C279.7,372,279.8,372,279.9,372z
		"/>
	<path class="st1" d="M0.6,72C46.9,31.7,114.8,4.5,181.1,4.5c131.6,0,193.6,56.6,161,105.7C273,214.6,437,151.7,473,213.4
		c30.3,51.7-17.2,120.9-85.2,156.8c-14.2,7.5-30,11.3-46,11.3l-6,1.5c-18.6,4.5-37.9,4.8-56.6,0.7l-9.8-2.2c-28.2,0-55.3-11.9-74-33
		c-0.1-0.1-0.3-0.3-0.4-0.5c-78.2-89-147.3-76.5-194.4-86.1V72z"/>
	<g class="st2">
		
			<linearGradient id="SVGID_1_" gradientUnits="userSpaceOnUse" x1="67.1045" y1="273.9781" x2="116.9294" y2="273.9781" gradientTransform="matrix(-1 0 0 1 535.9904 0)">
			<stop  offset="0" style="stop-color:#BB7AD5"/>
			<stop  offset="1" style="stop-color:#FBFBFB"/>
		</linearGradient>
		<path class="st3" d="M419.1,250.4c0-0.4,0-0.9,0-1.3l49.8,49.8c-0.4,0-0.9,0-1.3,0L419.1,250.4z"/>
		
			<linearGradient id="SVGID_2_" gradientUnits="userSpaceOnUse" x1="61.0394" y1="270.8424" x2="116.7233" y2="270.8424" gradientTransform="matrix(-1 0 0 1 535.9904 0)">
			<stop  offset="0" style="stop-color:#BB7AD5"/>
			<stop  offset="1" style="stop-color:#FBFBFB"/>
		</linearGradient>
		<path class="st4" d="M419.3,244.2c0-0.4,0.1-0.8,0.1-1.2l55.6,55.6c-0.4,0-0.8,0.1-1.2,0.1L419.3,244.2z"/>
		
			<linearGradient id="SVGID_3_" gradientUnits="userSpaceOnUse" x1="30.9903" y1="248.735" x2="102.5575" y2="248.735" gradientTransform="matrix(-1 0 0 1 535.9904 0)">
			<stop  offset="0" style="stop-color:#BB7AD5"/>
			<stop  offset="1" style="stop-color:#FBFBFB"/>
		</linearGradient>
		<path class="st5" d="M505,283.9c-0.1,0.1-0.2,0.2-0.3,0.3c-0.1,0.1-0.2,0.2-0.3,0.3l-70.9-70.9c0.1-0.1,0.2-0.2,0.3-0.3
			c0.1-0.1,0.2-0.2,0.3-0.3L505,283.9z"/>
		
			<linearGradient id="SVGID_4_" gradientUnits="userSpaceOnUse" x1="74.0138" y1="277.1735" x2="116.4107" y2="277.1735" gradientTransform="matrix(-1 0 0 1 535.9904 0)">
			<stop  offset="0" style="stop-color:#BB7AD5"/>
			<stop  offset="1" style="stop-color:#FBFBFB"/>
		</linearGradient>
		<path class="st6" d="M419.8,257.5c-0.1-0.5-0.2-1-0.2-1.5l42.4,42.4c-0.5-0.1-1-0.2-1.5-0.2L419.8,257.5z"/>
		
			<linearGradient id="SVGID_5_" gradientUnits="userSpaceOnUse" x1="55.5808" y1="267.7011" x2="115.8993" y2="267.7011" gradientTransform="matrix(-1 0 0 1 535.9904 0)">
			<stop  offset="0" style="stop-color:#BB7AD5"/>
			<stop  offset="1" style="stop-color:#FBFBFB"/>
		</linearGradient>
		<path class="st7" d="M420.1,238.6c0.1-0.4,0.1-0.7,0.2-1.1l60.1,60.1c-0.3,0.1-0.7,0.2-1.1,0.2L420.1,238.6z"/>
		
			<linearGradient id="SVGID_6_" gradientUnits="userSpaceOnUse" x1="94.8805" y1="283.5641" x2="108.3254" y2="283.5641" gradientTransform="matrix(-1 0 0 1 535.9904 0)">
			<stop  offset="0" style="stop-color:#BB7AD5"/>
			<stop  offset="1" style="stop-color:#FBFBFB"/>
		</linearGradient>
		<path class="st8" d="M427.7,276.8l13.4,13.4c-2.6-1.8-5.1-3.8-7.4-6.1C431.4,281.9,429.4,279.4,427.7,276.8z"/>
		
			<linearGradient id="SVGID_7_" gradientUnits="userSpaceOnUse" x1="50.5997" y1="264.5506" x2="114.5792" y2="264.5506" gradientTransform="matrix(-1 0 0 1 535.9904 0)">
			<stop  offset="0" style="stop-color:#BB7AD5"/>
			<stop  offset="1" style="stop-color:#FBFBFB"/>
		</linearGradient>
		<path class="st9" d="M421.4,233.5c0.1-0.3,0.2-0.6,0.3-1l63.7,63.7c-0.3,0.1-0.6,0.2-1,0.3L421.4,233.5z"/>
		
			<linearGradient id="SVGID_8_" gradientUnits="userSpaceOnUse" x1="34.2981" y1="251.902" x2="105.5837" y2="251.902" gradientTransform="matrix(-1 0 0 1 535.9904 0)">
			<stop  offset="0" style="stop-color:#BB7AD5"/>
			<stop  offset="1" style="stop-color:#FBFBFB"/>
		</linearGradient>
		<path class="st10" d="M501.7,287c-0.2,0.2-0.5,0.4-0.7,0.6L430.4,217c0.2-0.2,0.4-0.5,0.6-0.7L501.7,287z"/>
		
			<linearGradient id="SVGID_9_" gradientUnits="userSpaceOnUse" x1="37.8965" y1="255.0672" x2="108.3155" y2="255.0672" gradientTransform="matrix(-1 0 0 1 535.9904 0)">
			<stop  offset="0" style="stop-color:#BB7AD5"/>
			<stop  offset="1" style="stop-color:#FBFBFB"/>
		</linearGradient>
		<path class="st11" d="M427.7,220.6c0.2-0.3,0.3-0.5,0.5-0.8l69.9,69.9c-0.3,0.2-0.5,0.4-0.8,0.5L427.7,220.6z"/>
		
			<linearGradient id="SVGID_10_" gradientUnits="userSpaceOnUse" x1="41.7978" y1="258.2319" x2="110.7438" y2="258.2319" gradientTransform="matrix(-1 0 0 1 535.9904 0)">
			<stop  offset="0" style="stop-color:#BB7AD5"/>
			<stop  offset="1" style="stop-color:#FBFBFB"/>
		</linearGradient>
		<path class="st12" d="M425.2,224.6c0.2-0.3,0.3-0.5,0.5-0.8l68.5,68.5c-0.3,0.2-0.5,0.3-0.8,0.5L425.2,224.6z"/>
		
			<linearGradient id="SVGID_11_" gradientUnits="userSpaceOnUse" x1="46.0211" y1="261.3936" x2="112.8436" y2="261.3936" gradientTransform="matrix(-1 0 0 1 535.9904 0)">
			<stop  offset="0" style="stop-color:#BB7AD5"/>
			<stop  offset="1" style="stop-color:#FBFBFB"/>
		</linearGradient>
		<path class="st13" d="M423.1,228.9c0.1-0.3,0.3-0.6,0.4-0.9l66.4,66.4c-0.3,0.1-0.6,0.3-0.9,0.4L423.1,228.9z"/>
		
			<linearGradient id="SVGID_12_" gradientUnits="userSpaceOnUse" x1="82.3529" y1="280.3687" x2="114.4624" y2="280.3687" gradientTransform="matrix(-1 0 0 1 535.9904 0)">
			<stop  offset="0" style="stop-color:#BB7AD5"/>
			<stop  offset="1" style="stop-color:#FBFBFB"/>
		</linearGradient>
		<path class="st14" d="M422.2,266.3c-0.2-0.7-0.5-1.3-0.7-2l32.1,32.1c-0.7-0.2-1.3-0.4-2-0.7L422.2,266.3z"/>
		
			<linearGradient id="SVGID_13_" gradientUnits="userSpaceOnUse" x1="20.7042" y1="236.0766" x2="87.5267" y2="236.0766" gradientTransform="matrix(-1 0 0 1 535.9904 0)">
			<stop  offset="0" style="stop-color:#BB7AD5"/>
			<stop  offset="1" style="stop-color:#FBFBFB"/>
		</linearGradient>
		<path class="st15" d="M448.5,203.1c0.3-0.1,0.6-0.3,0.9-0.4l65.9,65.9c-0.1,0.3-0.3,0.6-0.4,0.9L448.5,203.1z"/>
		
			<linearGradient id="SVGID_14_" gradientUnits="userSpaceOnUse" x1="22.804" y1="239.2381" x2="91.7501" y2="239.2381" gradientTransform="matrix(-1 0 0 1 535.9904 0)">
			<stop  offset="0" style="stop-color:#BB7AD5"/>
			<stop  offset="1" style="stop-color:#FBFBFB"/>
		</linearGradient>
		<path class="st16" d="M444.2,205.2c0.3-0.2,0.5-0.3,0.8-0.5l68.1,68.1c-0.2,0.3-0.3,0.5-0.5,0.8L444.2,205.2z"/>
		
			<linearGradient id="SVGID_15_" gradientUnits="userSpaceOnUse" x1="25.2323" y1="242.4029" x2="95.6513" y2="242.4029" gradientTransform="matrix(-1 0 0 1 535.9904 0)">
			<stop  offset="0" style="stop-color:#BB7AD5"/>
			<stop  offset="1" style="stop-color:#FBFBFB"/>
		</linearGradient>
		<path class="st17" d="M440.3,207.7c0.3-0.2,0.5-0.4,0.8-0.5l69.7,69.7c-0.2,0.3-0.3,0.5-0.5,0.8L440.3,207.7z"/>
		
			<linearGradient id="SVGID_16_" gradientUnits="userSpaceOnUse" x1="27.9641" y1="245.5681" x2="99.2497" y2="245.5681" gradientTransform="matrix(-1 0 0 1 535.9904 0)">
			<stop  offset="0" style="stop-color:#BB7AD5"/>
			<stop  offset="1" style="stop-color:#FBFBFB"/>
		</linearGradient>
		<path class="st18" d="M436.7,210.5c0.2-0.2,0.5-0.4,0.7-0.6l70.6,70.6c-0.2,0.2-0.4,0.5-0.6,0.7L436.7,210.5z"/>
		
			<linearGradient id="SVGID_17_" gradientUnits="userSpaceOnUse" x1="17.1371" y1="220.2966" x2="59.534" y2="220.2966" gradientTransform="matrix(-1 0 0 1 535.9904 0)">
			<stop  offset="0" style="stop-color:#BB7AD5"/>
			<stop  offset="1" style="stop-color:#FBFBFB"/>
		</linearGradient>
		<path class="st19" d="M476.5,199.1c0.5,0.1,1,0.2,1.5,0.2l40.6,40.6c0.1,0.5,0.2,1,0.2,1.5L476.5,199.1z"/>
		
			<linearGradient id="SVGID_18_" gradientUnits="userSpaceOnUse" x1="25.2223" y1="213.9059" x2="38.6674" y2="213.9059" gradientTransform="matrix(-1 0 0 1 535.9904 0)">
			<stop  offset="0" style="stop-color:#BB7AD5"/>
			<stop  offset="1" style="stop-color:#FBFBFB"/>
		</linearGradient>
		<path class="st20" d="M497.3,207.2c2.6,1.8,5.1,3.8,7.4,6.1c2.3,2.3,4.3,4.8,6.1,7.4L497.3,207.2z"/>
		
			<linearGradient id="SVGID_19_" gradientUnits="userSpaceOnUse" x1="18.9686" y1="232.9195" x2="82.9481" y2="232.9195" gradientTransform="matrix(-1 0 0 1 535.9904 0)">
			<stop  offset="0" style="stop-color:#BB7AD5"/>
			<stop  offset="1" style="stop-color:#FBFBFB"/>
		</linearGradient>
		<path class="st21" d="M453,201.2c0.3-0.1,0.6-0.2,1-0.3l63,63c-0.1,0.3-0.2,0.6-0.3,1L453,201.2z"/>
		
			<linearGradient id="SVGID_20_" gradientUnits="userSpaceOnUse" x1="16.6184" y1="223.492" x2="66.4433" y2="223.492" gradientTransform="matrix(-1 0 0 1 535.9904 0)">
			<stop  offset="0" style="stop-color:#BB7AD5"/>
			<stop  offset="1" style="stop-color:#FBFBFB"/>
		</linearGradient>
		<path class="st22" d="M469.5,198.6c0.4,0,0.9,0,1.3,0l48.5,48.5c0,0.4,0,0.9,0,1.3L469.5,198.6z"/>
		
			<linearGradient id="SVGID_21_" gradientUnits="userSpaceOnUse" x1="19.0854" y1="217.1013" x2="51.1949" y2="217.1013" gradientTransform="matrix(-1 0 0 1 535.9904 0)">
			<stop  offset="0" style="stop-color:#BB7AD5"/>
			<stop  offset="1" style="stop-color:#FBFBFB"/>
		</linearGradient>
		<path class="st23" d="M516.2,231.2c0.2,0.7,0.5,1.3,0.7,2L484.8,201c0.7,0.2,1.3,0.4,2,0.7L516.2,231.2z"/>
		
			<linearGradient id="SVGID_22_" gradientUnits="userSpaceOnUse" x1="17.6485" y1="229.769" x2="77.967" y2="229.769" gradientTransform="matrix(-1 0 0 1 535.9904 0)">
			<stop  offset="0" style="stop-color:#BB7AD5"/>
			<stop  offset="1" style="stop-color:#FBFBFB"/>
		</linearGradient>
		<path class="st24" d="M458,199.8c0.3-0.1,0.7-0.2,1.1-0.2l59.3,59.3c-0.1,0.4-0.1,0.7-0.2,1.1L458,199.8z"/>
		
			<linearGradient id="SVGID_23_" gradientUnits="userSpaceOnUse" x1="16.8245" y1="226.6277" x2="72.5085" y2="226.6277" gradientTransform="matrix(-1 0 0 1 535.9904 0)">
			<stop  offset="0" style="stop-color:#BB7AD5"/>
			<stop  offset="1" style="stop-color:#FBFBFB"/>
		</linearGradient>
		<path class="st25" d="M463.5,198.9c0.4,0,0.8-0.1,1.2-0.1l54.5,54.5c0,0.4-0.1,0.8-0.1,1.2L463.5,198.9z"/>
	</g>
	<circle class="st26" cx="474.5" cy="198" r="11.5"/>
	<circle class="st26" cx="510" cy="360.5" r="6"/>
	<circle class="st27" cx="372.5" cy="123.5" r="3.5"/>
	<circle class="st27" cx="448.5" cy="295.5" r="1.8"/>
	<circle class="st28" cx="187.5" cy="124.7" r="4.9"/>
</g>
</svg>
