<?xml version="1.0"?>
<svg xmlns="http://www.w3.org/2000/svg" id="Line_expand" data-name="Line expand" width="512px" height="512px" viewBox="0 0 512 512"><g><g><path d="M256,56a201.064,201.064,0,0,1,46.161,5.352l3.678-15.572a217.421,217.421,0,0,0-116.3,4.639l4.918,15.226A199.876,199.876,0,0,1,256,56Z" data-original="#000000" class="active-path" data-old_color="#000000" fill="#FFFFFF"/><path d="M50.419,189.541a217.168,217.168,0,0,0,0,132.918l15.226-4.918a201.157,201.157,0,0,1,0-123.082Z" data-original="#000000" class="active-path" data-old_color="#000000" fill="#FFFFFF"/><path d="M256,456a199.871,199.871,0,0,1-61.541-9.645l-4.918,15.226a217.3,217.3,0,0,0,124.608,2.5l-4.3-15.413A200.428,200.428,0,0,1,256,456Z" data-original="#000000" class="active-path" data-old_color="#000000" fill="#FFFFFF"/><path d="M463.692,315.524A216.338,216.338,0,0,0,472,256a214.164,214.164,0,0,0-20.231-91.389l-14.494,6.778A198.266,198.266,0,0,1,456,256a200.337,200.337,0,0,1-7.691,55.124Z" data-original="#000000" class="active-path" data-old_color="#000000" fill="#FFFFFF"/><path d="M78.927,205.823A184.907,184.907,0,0,0,84.546,322.91l14.9-5.82a168.909,168.909,0,0,1-5.127-106.913Z" data-original="#000000" class="active-path" data-old_color="#000000" fill="#FFFFFF"/><path d="M306.177,433.073l-4.354-15.4A168.909,168.909,0,0,1,194.91,412.55l-5.82,14.9a184.907,184.907,0,0,0,117.087,5.619Z" data-original="#000000" class="active-path" data-old_color="#000000" fill="#FFFFFF"/><path d="M408.731,185.918A166.614,166.614,0,0,1,424,256a168.345,168.345,0,0,1-6.323,45.823l15.4,4.354A184.361,184.361,0,0,0,440,256a182.512,182.512,0,0,0-16.731-76.765Z" data-original="#000000" class="active-path" data-old_color="#000000" fill="#FFFFFF"/><path d="M205.823,78.927l4.354,15.4a169.2,169.2,0,0,1,91.646,0l4.354-15.4a185.2,185.2,0,0,0-100.354,0Z" data-original="#000000" class="active-path" data-old_color="#000000" fill="#FFFFFF"/><path d="M352,228a28.048,28.048,0,0,0-18.1-26.172A18.049,18.049,0,0,0,326,200H296V182a38.043,38.043,0,0,0-38-38H240a8,8,0,0,0-8,8v51.719L213.578,216H168a8,8,0,0,0-8,8v96a8,8,0,0,0,8,8h48a8,8,0,0,0,7.452-5.083l14.018,4.672A8,8,0,0,0,240,328h86a18.045,18.045,0,0,0,7.9-1.828A28.048,28.048,0,0,0,352,300a27.731,27.731,0,0,0-5.017-16A27.982,27.982,0,0,0,344,248.424v-.848A27.707,27.707,0,0,0,352,228ZM176,312V232h32v80Zm155.19-53.581a11.947,11.947,0,0,1,0,19.162,8.1,8.1,0,0,0-3.19,6.446,8,8,0,0,0,3.19,6.392,11.963,11.963,0,0,1-3.175,20.871,8.078,8.078,0,0,0-1.082.477A1.953,1.953,0,0,1,326,312H241.3L224,306.234V228.281l20.438-13.625A8,8,0,0,0,248,208V160h10a22.025,22.025,0,0,1,22,22v26a8,8,0,0,0,8,8h38a1.975,1.975,0,0,1,.935.233,7.886,7.886,0,0,0,1.081.477,11.963,11.963,0,0,1,3.174,20.871,8,8,0,0,0-3.19,6.392v8.054A8,8,0,0,0,331.19,258.419Z" data-original="#000000" class="active-path" data-old_color="#000000" fill="#FFFFFF"/><rect x="184" y="280" width="16" height="16" data-original="#000000" class="active-path" data-old_color="#000000" fill="#FFFFFF"/><path d="M104,192a88,88,0,1,0-88-88A88.1,88.1,0,0,0,104,192Zm0-160a72,72,0,1,1-72,72A72.081,72.081,0,0,1,104,32Z" data-original="#000000" class="active-path" data-old_color="#000000" fill="#FFFFFF"/><path d="M496,40V24a8,8,0,0,0-8-8H328a8,8,0,0,0-8,8V144a8,8,0,0,0,8,8h32v32a8,8,0,0,0,8,8h16a8,8,0,0,0,6.247-3l29.6-37H472a8,8,0,0,0,5.657-2.343l16-16A8,8,0,0,0,496,128V56H480v68.686L468.686,136H416a8,8,0,0,0-6.247,3l-29.6,37H376V144a8,8,0,0,0-8-8H336V32H480v8Z" data-original="#000000" class="active-path" data-old_color="#000000" fill="#FFFFFF"/><rect x="384" y="64" width="16" height="40" data-original="#000000" class="active-path" data-old_color="#000000" fill="#FFFFFF"/><rect x="416" y="64" width="16" height="40" data-original="#000000" class="active-path" data-old_color="#000000" fill="#FFFFFF"/><path d="M88,152h16V104h16V88H104V84a12.013,12.013,0,0,1,12-12h12V56H116A28.032,28.032,0,0,0,88,84v4H80v16h8Z" data-original="#000000" class="active-path" data-old_color="#000000" fill="#FFFFFF"/><path d="M138,336H54a38.043,38.043,0,0,0-38,38v34H32V374a22.025,22.025,0,0,1,22-22h84a22.025,22.025,0,0,1,22,22v84a22.025,22.025,0,0,1-22,22H54a22.025,22.025,0,0,1-22-22V424H16v34a38.043,38.043,0,0,0,38,38h84a38.043,38.043,0,0,0,38-38V374A38.043,38.043,0,0,0,138,336Z" data-original="#000000" class="active-path" data-old_color="#000000" fill="#FFFFFF"/><path d="M96,376a40,40,0,1,0,40,40A40.045,40.045,0,0,0,96,376Zm0,64a24,24,0,1,1,24-24A24.028,24.028,0,0,1,96,440Z" data-original="#000000" class="active-path" data-old_color="#000000" fill="#FFFFFF"/><rect x="128" y="368" width="16" height="16" data-original="#000000" class="active-path" data-old_color="#000000" fill="#FFFFFF"/><path d="M408,320a88,88,0,1,0,88,88A88.1,88.1,0,0,0,408,320Zm0,160a72,72,0,1,1,72-72A72.081,72.081,0,0,1,408,480Z" data-original="#000000" class="active-path" data-old_color="#000000" fill="#FFFFFF"/><path d="M451.578,400.845l-64-32A8,8,0,0,0,376,376v64a8,8,0,0,0,11.578,7.155l64-32a8,8,0,0,0,0-14.31ZM392,427.056V388.944L430.111,408Z" data-original="#000000" class="active-path" data-old_color="#000000" fill="#FFFFFF"/></g></g> </svg>
