<svg xmlns="http://www.w3.org/2000/svg" width="243" height="259" viewBox="0 0 243 259">
  <defs>
    <style>
      .cls-1 {
        fill: #e3e2e8;
      }
    </style>
  </defs>
  <circle class="cls-1" cx="1.5" cy="1.5" r="1.5"/>
  <circle id="Ellipse_3_copy" data-name="Ellipse 3 copy" class="cls-1" cx="17.5" cy="1.5" r="1.5"/>
  <circle id="Ellipse_3_copy_2" data-name="Ellipse 3 copy 2" class="cls-1" cx="33.5" cy="1.5" r="1.5"/>
  <circle id="Ellipse_3_copy_3" data-name="Ellipse 3 copy 3" class="cls-1" cx="49.5" cy="1.5" r="1.5"/>
  <circle id="Ellipse_3_copy_4" data-name="Ellipse 3 copy 4" class="cls-1" cx="65.5" cy="1.5" r="1.5"/>
  <circle id="Ellipse_3_copy_5" data-name="Ellipse 3 copy 5" class="cls-1" cx="81.5" cy="1.5" r="1.5"/>
  <circle id="Ellipse_3_copy_6" data-name="Ellipse 3 copy 6" class="cls-1" cx="97.5" cy="1.5" r="1.5"/>
  <circle id="Ellipse_3_copy_13" data-name="Ellipse 3 copy 13" class="cls-1" cx="113.5" cy="1.5" r="1.5"/>
  <circle id="Ellipse_3_copy_12" data-name="Ellipse 3 copy 12" class="cls-1" cx="129.5" cy="1.5" r="1.5"/>
  <circle id="Ellipse_3_copy_11" data-name="Ellipse 3 copy 11" class="cls-1" cx="145.5" cy="1.5" r="1.5"/>
  <circle id="Ellipse_3_copy_10" data-name="Ellipse 3 copy 10" class="cls-1" cx="161.5" cy="1.5" r="1.5"/>
  <circle id="Ellipse_3_copy_9" data-name="Ellipse 3 copy 9" class="cls-1" cx="177.5" cy="1.5" r="1.5"/>
  <circle id="Ellipse_3_copy_8" data-name="Ellipse 3 copy 8" class="cls-1" cx="193.5" cy="1.5" r="1.5"/>
  <circle id="Ellipse_3_copy_7" data-name="Ellipse 3 copy 7" class="cls-1" cx="209.5" cy="1.5" r="1.5"/>
  <circle class="cls-1" cx="1.5" cy="17.5" r="1.5"/>
  <circle id="Ellipse_3_copy-2" data-name="Ellipse 3 copy" class="cls-1" cx="17.5" cy="17.5" r="1.5"/>
  <circle id="Ellipse_3_copy_2-2" data-name="Ellipse 3 copy 2" class="cls-1" cx="33.5" cy="17.5" r="1.5"/>
  <circle id="Ellipse_3_copy_3-2" data-name="Ellipse 3 copy 3" class="cls-1" cx="49.5" cy="17.5" r="1.5"/>
  <circle id="Ellipse_3_copy_4-2" data-name="Ellipse 3 copy 4" class="cls-1" cx="65.5" cy="17.5" r="1.5"/>
  <circle id="Ellipse_3_copy_5-2" data-name="Ellipse 3 copy 5" class="cls-1" cx="81.5" cy="17.5" r="1.5"/>
  <circle id="Ellipse_3_copy_6-2" data-name="Ellipse 3 copy 6" class="cls-1" cx="97.5" cy="17.5" r="1.5"/>
  <circle id="Ellipse_3_copy_13-2" data-name="Ellipse 3 copy 13" class="cls-1" cx="113.5" cy="17.5" r="1.5"/>
  <circle id="Ellipse_3_copy_12-2" data-name="Ellipse 3 copy 12" class="cls-1" cx="129.5" cy="17.5" r="1.5"/>
  <circle id="Ellipse_3_copy_11-2" data-name="Ellipse 3 copy 11" class="cls-1" cx="145.5" cy="17.5" r="1.5"/>
  <circle id="Ellipse_3_copy_10-2" data-name="Ellipse 3 copy 10" class="cls-1" cx="161.5" cy="17.5" r="1.5"/>
  <circle id="Ellipse_3_copy_9-2" data-name="Ellipse 3 copy 9" class="cls-1" cx="177.5" cy="17.5" r="1.5"/>
  <circle id="Ellipse_3_copy_8-2" data-name="Ellipse 3 copy 8" class="cls-1" cx="193.5" cy="17.5" r="1.5"/>
  <circle id="Ellipse_3_copy_7-2" data-name="Ellipse 3 copy 7" class="cls-1" cx="209.5" cy="17.5" r="1.5"/>
  <circle class="cls-1" cx="1.5" cy="33.5" r="1.5"/>
  <circle id="Ellipse_3_copy-3" data-name="Ellipse 3 copy" class="cls-1" cx="17.5" cy="33.5" r="1.5"/>
  <circle id="Ellipse_3_copy_2-3" data-name="Ellipse 3 copy 2" class="cls-1" cx="33.5" cy="33.5" r="1.5"/>
  <circle id="Ellipse_3_copy_3-3" data-name="Ellipse 3 copy 3" class="cls-1" cx="49.5" cy="33.5" r="1.5"/>
  <circle id="Ellipse_3_copy_4-3" data-name="Ellipse 3 copy 4" class="cls-1" cx="65.5" cy="33.5" r="1.5"/>
  <circle id="Ellipse_3_copy_5-3" data-name="Ellipse 3 copy 5" class="cls-1" cx="81.5" cy="33.5" r="1.5"/>
  <circle id="Ellipse_3_copy_6-3" data-name="Ellipse 3 copy 6" class="cls-1" cx="97.5" cy="33.5" r="1.5"/>
  <circle id="Ellipse_3_copy_13-3" data-name="Ellipse 3 copy 13" class="cls-1" cx="113.5" cy="33.5" r="1.5"/>
  <circle id="Ellipse_3_copy_12-3" data-name="Ellipse 3 copy 12" class="cls-1" cx="129.5" cy="33.5" r="1.5"/>
  <circle id="Ellipse_3_copy_11-3" data-name="Ellipse 3 copy 11" class="cls-1" cx="145.5" cy="33.5" r="1.5"/>
  <circle id="Ellipse_3_copy_10-3" data-name="Ellipse 3 copy 10" class="cls-1" cx="161.5" cy="33.5" r="1.5"/>
  <circle id="Ellipse_3_copy_9-3" data-name="Ellipse 3 copy 9" class="cls-1" cx="177.5" cy="33.5" r="1.5"/>
  <circle id="Ellipse_3_copy_8-3" data-name="Ellipse 3 copy 8" class="cls-1" cx="193.5" cy="33.5" r="1.5"/>
  <circle id="Ellipse_3_copy_7-3" data-name="Ellipse 3 copy 7" class="cls-1" cx="209.5" cy="33.5" r="1.5"/>
  <circle class="cls-1" cx="1.5" cy="49.5" r="1.5"/>
  <circle id="Ellipse_3_copy-4" data-name="Ellipse 3 copy" class="cls-1" cx="17.5" cy="49.5" r="1.5"/>
  <circle id="Ellipse_3_copy_2-4" data-name="Ellipse 3 copy 2" class="cls-1" cx="33.5" cy="49.5" r="1.5"/>
  <circle id="Ellipse_3_copy_3-4" data-name="Ellipse 3 copy 3" class="cls-1" cx="49.5" cy="49.5" r="1.5"/>
  <circle id="Ellipse_3_copy_4-4" data-name="Ellipse 3 copy 4" class="cls-1" cx="65.5" cy="49.5" r="1.5"/>
  <circle id="Ellipse_3_copy_5-4" data-name="Ellipse 3 copy 5" class="cls-1" cx="81.5" cy="49.5" r="1.5"/>
  <circle id="Ellipse_3_copy_6-4" data-name="Ellipse 3 copy 6" class="cls-1" cx="97.5" cy="49.5" r="1.5"/>
  <circle id="Ellipse_3_copy_13-4" data-name="Ellipse 3 copy 13" class="cls-1" cx="113.5" cy="49.5" r="1.5"/>
  <circle id="Ellipse_3_copy_12-4" data-name="Ellipse 3 copy 12" class="cls-1" cx="129.5" cy="49.5" r="1.5"/>
  <circle id="Ellipse_3_copy_11-4" data-name="Ellipse 3 copy 11" class="cls-1" cx="145.5" cy="49.5" r="1.5"/>
  <circle id="Ellipse_3_copy_10-4" data-name="Ellipse 3 copy 10" class="cls-1" cx="161.5" cy="49.5" r="1.5"/>
  <circle id="Ellipse_3_copy_9-4" data-name="Ellipse 3 copy 9" class="cls-1" cx="177.5" cy="49.5" r="1.5"/>
  <circle id="Ellipse_3_copy_8-4" data-name="Ellipse 3 copy 8" class="cls-1" cx="193.5" cy="49.5" r="1.5"/>
  <circle id="Ellipse_3_copy_7-4" data-name="Ellipse 3 copy 7" class="cls-1" cx="209.5" cy="49.5" r="1.5"/>
  <circle class="cls-1" cx="1.5" cy="65.5" r="1.5"/>
  <circle id="Ellipse_3_copy-5" data-name="Ellipse 3 copy" class="cls-1" cx="17.5" cy="65.5" r="1.5"/>
  <circle id="Ellipse_3_copy_2-5" data-name="Ellipse 3 copy 2" class="cls-1" cx="33.5" cy="65.5" r="1.5"/>
  <circle id="Ellipse_3_copy_3-5" data-name="Ellipse 3 copy 3" class="cls-1" cx="49.5" cy="65.5" r="1.5"/>
  <circle id="Ellipse_3_copy_4-5" data-name="Ellipse 3 copy 4" class="cls-1" cx="65.5" cy="65.5" r="1.5"/>
  <circle id="Ellipse_3_copy_5-5" data-name="Ellipse 3 copy 5" class="cls-1" cx="81.5" cy="65.5" r="1.5"/>
  <circle id="Ellipse_3_copy_6-5" data-name="Ellipse 3 copy 6" class="cls-1" cx="97.5" cy="65.5" r="1.5"/>
  <circle id="Ellipse_3_copy_13-5" data-name="Ellipse 3 copy 13" class="cls-1" cx="113.5" cy="65.5" r="1.5"/>
  <circle id="Ellipse_3_copy_12-5" data-name="Ellipse 3 copy 12" class="cls-1" cx="129.5" cy="65.5" r="1.5"/>
  <circle id="Ellipse_3_copy_11-5" data-name="Ellipse 3 copy 11" class="cls-1" cx="145.5" cy="65.5" r="1.5"/>
  <circle id="Ellipse_3_copy_10-5" data-name="Ellipse 3 copy 10" class="cls-1" cx="161.5" cy="65.5" r="1.5"/>
  <circle id="Ellipse_3_copy_9-5" data-name="Ellipse 3 copy 9" class="cls-1" cx="177.5" cy="65.5" r="1.5"/>
  <circle id="Ellipse_3_copy_8-5" data-name="Ellipse 3 copy 8" class="cls-1" cx="193.5" cy="65.5" r="1.5"/>
  <circle id="Ellipse_3_copy_7-5" data-name="Ellipse 3 copy 7" class="cls-1" cx="209.5" cy="65.5" r="1.5"/>
  <circle class="cls-1" cx="1.5" cy="81.5" r="1.5"/>
  <circle id="Ellipse_3_copy-6" data-name="Ellipse 3 copy" class="cls-1" cx="17.5" cy="81.5" r="1.5"/>
  <circle id="Ellipse_3_copy_2-6" data-name="Ellipse 3 copy 2" class="cls-1" cx="33.5" cy="81.5" r="1.5"/>
  <circle id="Ellipse_3_copy_3-6" data-name="Ellipse 3 copy 3" class="cls-1" cx="49.5" cy="81.5" r="1.5"/>
  <circle id="Ellipse_3_copy_4-6" data-name="Ellipse 3 copy 4" class="cls-1" cx="65.5" cy="81.5" r="1.5"/>
  <circle id="Ellipse_3_copy_5-6" data-name="Ellipse 3 copy 5" class="cls-1" cx="81.5" cy="81.5" r="1.5"/>
  <circle id="Ellipse_3_copy_6-6" data-name="Ellipse 3 copy 6" class="cls-1" cx="97.5" cy="81.5" r="1.5"/>
  <circle id="Ellipse_3_copy_13-6" data-name="Ellipse 3 copy 13" class="cls-1" cx="113.5" cy="81.5" r="1.5"/>
  <circle id="Ellipse_3_copy_12-6" data-name="Ellipse 3 copy 12" class="cls-1" cx="129.5" cy="81.5" r="1.5"/>
  <circle id="Ellipse_3_copy_11-6" data-name="Ellipse 3 copy 11" class="cls-1" cx="145.5" cy="81.5" r="1.5"/>
  <circle id="Ellipse_3_copy_10-6" data-name="Ellipse 3 copy 10" class="cls-1" cx="161.5" cy="81.5" r="1.5"/>
  <circle id="Ellipse_3_copy_9-6" data-name="Ellipse 3 copy 9" class="cls-1" cx="177.5" cy="81.5" r="1.5"/>
  <circle id="Ellipse_3_copy_8-6" data-name="Ellipse 3 copy 8" class="cls-1" cx="193.5" cy="81.5" r="1.5"/>
  <circle id="Ellipse_3_copy_7-6" data-name="Ellipse 3 copy 7" class="cls-1" cx="209.5" cy="81.5" r="1.5"/>
  <circle class="cls-1" cx="1.5" cy="97.5" r="1.5"/>
  <circle id="Ellipse_3_copy-7" data-name="Ellipse 3 copy" class="cls-1" cx="17.5" cy="97.5" r="1.5"/>
  <circle id="Ellipse_3_copy_2-7" data-name="Ellipse 3 copy 2" class="cls-1" cx="33.5" cy="97.5" r="1.5"/>
  <circle id="Ellipse_3_copy_3-7" data-name="Ellipse 3 copy 3" class="cls-1" cx="49.5" cy="97.5" r="1.5"/>
  <circle id="Ellipse_3_copy_4-7" data-name="Ellipse 3 copy 4" class="cls-1" cx="65.5" cy="97.5" r="1.5"/>
  <circle id="Ellipse_3_copy_5-7" data-name="Ellipse 3 copy 5" class="cls-1" cx="81.5" cy="97.5" r="1.5"/>
  <circle id="Ellipse_3_copy_6-7" data-name="Ellipse 3 copy 6" class="cls-1" cx="97.5" cy="97.5" r="1.5"/>
  <circle id="Ellipse_3_copy_13-7" data-name="Ellipse 3 copy 13" class="cls-1" cx="113.5" cy="97.5" r="1.5"/>
  <circle id="Ellipse_3_copy_12-7" data-name="Ellipse 3 copy 12" class="cls-1" cx="129.5" cy="97.5" r="1.5"/>
  <circle id="Ellipse_3_copy_11-7" data-name="Ellipse 3 copy 11" class="cls-1" cx="145.5" cy="97.5" r="1.5"/>
  <circle id="Ellipse_3_copy_10-7" data-name="Ellipse 3 copy 10" class="cls-1" cx="161.5" cy="97.5" r="1.5"/>
  <circle id="Ellipse_3_copy_9-7" data-name="Ellipse 3 copy 9" class="cls-1" cx="177.5" cy="97.5" r="1.5"/>
  <circle id="Ellipse_3_copy_8-7" data-name="Ellipse 3 copy 8" class="cls-1" cx="193.5" cy="97.5" r="1.5"/>
  <circle id="Ellipse_3_copy_7-7" data-name="Ellipse 3 copy 7" class="cls-1" cx="209.5" cy="97.5" r="1.5"/>
  <circle class="cls-1" cx="1.5" cy="113.5" r="1.5"/>
  <circle id="Ellipse_3_copy-8" data-name="Ellipse 3 copy" class="cls-1" cx="17.5" cy="113.5" r="1.5"/>
  <circle id="Ellipse_3_copy_2-8" data-name="Ellipse 3 copy 2" class="cls-1" cx="33.5" cy="113.5" r="1.5"/>
  <circle id="Ellipse_3_copy_3-8" data-name="Ellipse 3 copy 3" class="cls-1" cx="49.5" cy="113.5" r="1.5"/>
  <circle id="Ellipse_3_copy_4-8" data-name="Ellipse 3 copy 4" class="cls-1" cx="65.5" cy="113.5" r="1.5"/>
  <circle id="Ellipse_3_copy_5-8" data-name="Ellipse 3 copy 5" class="cls-1" cx="81.5" cy="113.5" r="1.5"/>
  <circle id="Ellipse_3_copy_6-8" data-name="Ellipse 3 copy 6" class="cls-1" cx="97.5" cy="113.5" r="1.5"/>
  <circle id="Ellipse_3_copy_13-8" data-name="Ellipse 3 copy 13" class="cls-1" cx="113.5" cy="113.5" r="1.5"/>
  <circle id="Ellipse_3_copy_12-8" data-name="Ellipse 3 copy 12" class="cls-1" cx="129.5" cy="113.5" r="1.5"/>
  <circle id="Ellipse_3_copy_11-8" data-name="Ellipse 3 copy 11" class="cls-1" cx="145.5" cy="113.5" r="1.5"/>
  <circle id="Ellipse_3_copy_10-8" data-name="Ellipse 3 copy 10" class="cls-1" cx="161.5" cy="113.5" r="1.5"/>
  <circle id="Ellipse_3_copy_9-8" data-name="Ellipse 3 copy 9" class="cls-1" cx="177.5" cy="113.5" r="1.5"/>
  <circle id="Ellipse_3_copy_8-8" data-name="Ellipse 3 copy 8" class="cls-1" cx="193.5" cy="113.5" r="1.5"/>
  <circle id="Ellipse_3_copy_7-8" data-name="Ellipse 3 copy 7" class="cls-1" cx="209.5" cy="113.5" r="1.5"/>
  <circle class="cls-1" cx="1.5" cy="129.5" r="1.5"/>
  <circle id="Ellipse_3_copy-9" data-name="Ellipse 3 copy" class="cls-1" cx="17.5" cy="129.5" r="1.5"/>
  <circle id="Ellipse_3_copy_2-9" data-name="Ellipse 3 copy 2" class="cls-1" cx="33.5" cy="129.5" r="1.5"/>
  <circle id="Ellipse_3_copy_3-9" data-name="Ellipse 3 copy 3" class="cls-1" cx="49.5" cy="129.5" r="1.5"/>
  <circle id="Ellipse_3_copy_4-9" data-name="Ellipse 3 copy 4" class="cls-1" cx="65.5" cy="129.5" r="1.5"/>
  <circle id="Ellipse_3_copy_5-9" data-name="Ellipse 3 copy 5" class="cls-1" cx="81.5" cy="129.5" r="1.5"/>
  <circle id="Ellipse_3_copy_6-9" data-name="Ellipse 3 copy 6" class="cls-1" cx="97.5" cy="129.5" r="1.5"/>
  <circle id="Ellipse_3_copy_13-9" data-name="Ellipse 3 copy 13" class="cls-1" cx="113.5" cy="129.5" r="1.5"/>
  <circle id="Ellipse_3_copy_12-9" data-name="Ellipse 3 copy 12" class="cls-1" cx="129.5" cy="129.5" r="1.5"/>
  <circle id="Ellipse_3_copy_11-9" data-name="Ellipse 3 copy 11" class="cls-1" cx="145.5" cy="129.5" r="1.5"/>
  <circle id="Ellipse_3_copy_10-9" data-name="Ellipse 3 copy 10" class="cls-1" cx="161.5" cy="129.5" r="1.5"/>
  <circle id="Ellipse_3_copy_9-9" data-name="Ellipse 3 copy 9" class="cls-1" cx="177.5" cy="129.5" r="1.5"/>
  <circle id="Ellipse_3_copy_8-9" data-name="Ellipse 3 copy 8" class="cls-1" cx="193.5" cy="129.5" r="1.5"/>
  <circle id="Ellipse_3_copy_7-9" data-name="Ellipse 3 copy 7" class="cls-1" cx="209.5" cy="129.5" r="1.5"/>
  <circle class="cls-1" cx="1.5" cy="145.5" r="1.5"/>
  <circle id="Ellipse_3_copy-10" data-name="Ellipse 3 copy" class="cls-1" cx="17.5" cy="145.5" r="1.5"/>
  <circle id="Ellipse_3_copy_2-10" data-name="Ellipse 3 copy 2" class="cls-1" cx="33.5" cy="145.5" r="1.5"/>
  <circle id="Ellipse_3_copy_3-10" data-name="Ellipse 3 copy 3" class="cls-1" cx="49.5" cy="145.5" r="1.5"/>
  <circle id="Ellipse_3_copy_4-10" data-name="Ellipse 3 copy 4" class="cls-1" cx="65.5" cy="145.5" r="1.5"/>
  <circle id="Ellipse_3_copy_5-10" data-name="Ellipse 3 copy 5" class="cls-1" cx="81.5" cy="145.5" r="1.5"/>
  <circle id="Ellipse_3_copy_6-10" data-name="Ellipse 3 copy 6" class="cls-1" cx="97.5" cy="145.5" r="1.5"/>
  <circle id="Ellipse_3_copy_13-10" data-name="Ellipse 3 copy 13" class="cls-1" cx="113.5" cy="145.5" r="1.5"/>
  <circle id="Ellipse_3_copy_12-10" data-name="Ellipse 3 copy 12" class="cls-1" cx="129.5" cy="145.5" r="1.5"/>
  <circle id="Ellipse_3_copy_11-10" data-name="Ellipse 3 copy 11" class="cls-1" cx="145.5" cy="145.5" r="1.5"/>
  <circle id="Ellipse_3_copy_10-10" data-name="Ellipse 3 copy 10" class="cls-1" cx="161.5" cy="145.5" r="1.5"/>
  <circle id="Ellipse_3_copy_9-10" data-name="Ellipse 3 copy 9" class="cls-1" cx="177.5" cy="145.5" r="1.5"/>
  <circle id="Ellipse_3_copy_8-10" data-name="Ellipse 3 copy 8" class="cls-1" cx="193.5" cy="145.5" r="1.5"/>
  <circle id="Ellipse_3_copy_7-10" data-name="Ellipse 3 copy 7" class="cls-1" cx="209.5" cy="145.5" r="1.5"/>
  <circle class="cls-1" cx="1.5" cy="161.5" r="1.5"/>
  <circle id="Ellipse_3_copy-11" data-name="Ellipse 3 copy" class="cls-1" cx="17.5" cy="161.5" r="1.5"/>
  <circle id="Ellipse_3_copy_2-11" data-name="Ellipse 3 copy 2" class="cls-1" cx="33.5" cy="161.5" r="1.5"/>
  <circle id="Ellipse_3_copy_3-11" data-name="Ellipse 3 copy 3" class="cls-1" cx="49.5" cy="161.5" r="1.5"/>
  <circle id="Ellipse_3_copy_4-11" data-name="Ellipse 3 copy 4" class="cls-1" cx="65.5" cy="161.5" r="1.5"/>
  <circle id="Ellipse_3_copy_5-11" data-name="Ellipse 3 copy 5" class="cls-1" cx="81.5" cy="161.5" r="1.5"/>
  <circle id="Ellipse_3_copy_6-11" data-name="Ellipse 3 copy 6" class="cls-1" cx="97.5" cy="161.5" r="1.5"/>
  <circle id="Ellipse_3_copy_13-11" data-name="Ellipse 3 copy 13" class="cls-1" cx="113.5" cy="161.5" r="1.5"/>
  <circle id="Ellipse_3_copy_12-11" data-name="Ellipse 3 copy 12" class="cls-1" cx="129.5" cy="161.5" r="1.5"/>
  <circle id="Ellipse_3_copy_11-11" data-name="Ellipse 3 copy 11" class="cls-1" cx="145.5" cy="161.5" r="1.5"/>
  <circle id="Ellipse_3_copy_10-11" data-name="Ellipse 3 copy 10" class="cls-1" cx="161.5" cy="161.5" r="1.5"/>
  <circle id="Ellipse_3_copy_9-11" data-name="Ellipse 3 copy 9" class="cls-1" cx="177.5" cy="161.5" r="1.5"/>
  <circle id="Ellipse_3_copy_8-11" data-name="Ellipse 3 copy 8" class="cls-1" cx="193.5" cy="161.5" r="1.5"/>
  <circle id="Ellipse_3_copy_7-11" data-name="Ellipse 3 copy 7" class="cls-1" cx="209.5" cy="161.5" r="1.5"/>
  <circle class="cls-1" cx="1.5" cy="177.5" r="1.5"/>
  <circle id="Ellipse_3_copy-12" data-name="Ellipse 3 copy" class="cls-1" cx="17.5" cy="177.5" r="1.5"/>
  <circle id="Ellipse_3_copy_2-12" data-name="Ellipse 3 copy 2" class="cls-1" cx="33.5" cy="177.5" r="1.5"/>
  <circle id="Ellipse_3_copy_3-12" data-name="Ellipse 3 copy 3" class="cls-1" cx="49.5" cy="177.5" r="1.5"/>
  <circle id="Ellipse_3_copy_4-12" data-name="Ellipse 3 copy 4" class="cls-1" cx="65.5" cy="177.5" r="1.5"/>
  <circle id="Ellipse_3_copy_5-12" data-name="Ellipse 3 copy 5" class="cls-1" cx="81.5" cy="177.5" r="1.5"/>
  <circle id="Ellipse_3_copy_6-12" data-name="Ellipse 3 copy 6" class="cls-1" cx="97.5" cy="177.5" r="1.5"/>
  <circle id="Ellipse_3_copy_13-12" data-name="Ellipse 3 copy 13" class="cls-1" cx="113.5" cy="177.5" r="1.5"/>
  <circle id="Ellipse_3_copy_12-12" data-name="Ellipse 3 copy 12" class="cls-1" cx="129.5" cy="177.5" r="1.5"/>
  <circle id="Ellipse_3_copy_11-12" data-name="Ellipse 3 copy 11" class="cls-1" cx="145.5" cy="177.5" r="1.5"/>
  <circle id="Ellipse_3_copy_10-12" data-name="Ellipse 3 copy 10" class="cls-1" cx="161.5" cy="177.5" r="1.5"/>
  <circle id="Ellipse_3_copy_9-12" data-name="Ellipse 3 copy 9" class="cls-1" cx="177.5" cy="177.5" r="1.5"/>
  <circle id="Ellipse_3_copy_8-12" data-name="Ellipse 3 copy 8" class="cls-1" cx="193.5" cy="177.5" r="1.5"/>
  <circle id="Ellipse_3_copy_7-12" data-name="Ellipse 3 copy 7" class="cls-1" cx="209.5" cy="177.5" r="1.5"/>
  <circle class="cls-1" cx="1.5" cy="193.5" r="1.5"/>
  <circle id="Ellipse_3_copy-13" data-name="Ellipse 3 copy" class="cls-1" cx="17.5" cy="193.5" r="1.5"/>
  <circle id="Ellipse_3_copy_2-13" data-name="Ellipse 3 copy 2" class="cls-1" cx="33.5" cy="193.5" r="1.5"/>
  <circle id="Ellipse_3_copy_3-13" data-name="Ellipse 3 copy 3" class="cls-1" cx="49.5" cy="193.5" r="1.5"/>
  <circle id="Ellipse_3_copy_4-13" data-name="Ellipse 3 copy 4" class="cls-1" cx="65.5" cy="193.5" r="1.5"/>
  <circle id="Ellipse_3_copy_5-13" data-name="Ellipse 3 copy 5" class="cls-1" cx="81.5" cy="193.5" r="1.5"/>
  <circle id="Ellipse_3_copy_6-13" data-name="Ellipse 3 copy 6" class="cls-1" cx="97.5" cy="193.5" r="1.5"/>
  <circle id="Ellipse_3_copy_13-13" data-name="Ellipse 3 copy 13" class="cls-1" cx="113.5" cy="193.5" r="1.5"/>
  <circle id="Ellipse_3_copy_12-13" data-name="Ellipse 3 copy 12" class="cls-1" cx="129.5" cy="193.5" r="1.5"/>
  <circle id="Ellipse_3_copy_11-13" data-name="Ellipse 3 copy 11" class="cls-1" cx="145.5" cy="193.5" r="1.5"/>
  <circle id="Ellipse_3_copy_10-13" data-name="Ellipse 3 copy 10" class="cls-1" cx="161.5" cy="193.5" r="1.5"/>
  <circle id="Ellipse_3_copy_9-13" data-name="Ellipse 3 copy 9" class="cls-1" cx="177.5" cy="193.5" r="1.5"/>
  <circle id="Ellipse_3_copy_8-13" data-name="Ellipse 3 copy 8" class="cls-1" cx="193.5" cy="193.5" r="1.5"/>
  <circle id="Ellipse_3_copy_7-13" data-name="Ellipse 3 copy 7" class="cls-1" cx="209.5" cy="193.5" r="1.5"/>
  <circle class="cls-1" cx="1.5" cy="209.5" r="1.5"/>
  <circle id="Ellipse_3_copy-14" data-name="Ellipse 3 copy" class="cls-1" cx="17.5" cy="209.5" r="1.5"/>
  <circle id="Ellipse_3_copy_2-14" data-name="Ellipse 3 copy 2" class="cls-1" cx="33.5" cy="209.5" r="1.5"/>
  <circle id="Ellipse_3_copy_3-14" data-name="Ellipse 3 copy 3" class="cls-1" cx="49.5" cy="209.5" r="1.5"/>
  <circle id="Ellipse_3_copy_4-14" data-name="Ellipse 3 copy 4" class="cls-1" cx="65.5" cy="209.5" r="1.5"/>
  <circle id="Ellipse_3_copy_5-14" data-name="Ellipse 3 copy 5" class="cls-1" cx="81.5" cy="209.5" r="1.5"/>
  <circle id="Ellipse_3_copy_6-14" data-name="Ellipse 3 copy 6" class="cls-1" cx="97.5" cy="209.5" r="1.5"/>
  <circle id="Ellipse_3_copy_13-14" data-name="Ellipse 3 copy 13" class="cls-1" cx="113.5" cy="209.5" r="1.5"/>
  <circle id="Ellipse_3_copy_12-14" data-name="Ellipse 3 copy 12" class="cls-1" cx="129.5" cy="209.5" r="1.5"/>
  <circle id="Ellipse_3_copy_11-14" data-name="Ellipse 3 copy 11" class="cls-1" cx="145.5" cy="209.5" r="1.5"/>
  <circle id="Ellipse_3_copy_10-14" data-name="Ellipse 3 copy 10" class="cls-1" cx="161.5" cy="209.5" r="1.5"/>
  <circle id="Ellipse_3_copy_9-14" data-name="Ellipse 3 copy 9" class="cls-1" cx="177.5" cy="209.5" r="1.5"/>
  <circle id="Ellipse_3_copy_8-14" data-name="Ellipse 3 copy 8" class="cls-1" cx="193.5" cy="209.5" r="1.5"/>
  <circle id="Ellipse_3_copy_7-14" data-name="Ellipse 3 copy 7" class="cls-1" cx="209.5" cy="209.5" r="1.5"/>
  <circle class="cls-1" cx="1.5" cy="225.5" r="1.5"/>
  <circle id="Ellipse_3_copy-15" data-name="Ellipse 3 copy" class="cls-1" cx="17.5" cy="225.5" r="1.5"/>
  <circle id="Ellipse_3_copy_2-15" data-name="Ellipse 3 copy 2" class="cls-1" cx="33.5" cy="225.5" r="1.5"/>
  <circle id="Ellipse_3_copy_3-15" data-name="Ellipse 3 copy 3" class="cls-1" cx="49.5" cy="225.5" r="1.5"/>
  <circle id="Ellipse_3_copy_4-15" data-name="Ellipse 3 copy 4" class="cls-1" cx="65.5" cy="225.5" r="1.5"/>
  <circle id="Ellipse_3_copy_5-15" data-name="Ellipse 3 copy 5" class="cls-1" cx="81.5" cy="225.5" r="1.5"/>
  <circle id="Ellipse_3_copy_6-15" data-name="Ellipse 3 copy 6" class="cls-1" cx="97.5" cy="225.5" r="1.5"/>
  <circle id="Ellipse_3_copy_13-15" data-name="Ellipse 3 copy 13" class="cls-1" cx="113.5" cy="225.5" r="1.5"/>
  <circle id="Ellipse_3_copy_12-15" data-name="Ellipse 3 copy 12" class="cls-1" cx="129.5" cy="225.5" r="1.5"/>
  <circle id="Ellipse_3_copy_11-15" data-name="Ellipse 3 copy 11" class="cls-1" cx="145.5" cy="225.5" r="1.5"/>
  <circle id="Ellipse_3_copy_10-15" data-name="Ellipse 3 copy 10" class="cls-1" cx="161.5" cy="225.5" r="1.5"/>
  <circle id="Ellipse_3_copy_9-15" data-name="Ellipse 3 copy 9" class="cls-1" cx="177.5" cy="225.5" r="1.5"/>
  <circle id="Ellipse_3_copy_8-15" data-name="Ellipse 3 copy 8" class="cls-1" cx="193.5" cy="225.5" r="1.5"/>
  <circle id="Ellipse_3_copy_7-15" data-name="Ellipse 3 copy 7" class="cls-1" cx="209.5" cy="225.5" r="1.5"/>
  <circle class="cls-1" cx="1.5" cy="241.5" r="1.5"/>
  <circle id="Ellipse_3_copy-16" data-name="Ellipse 3 copy" class="cls-1" cx="17.5" cy="241.5" r="1.5"/>
  <circle id="Ellipse_3_copy_2-16" data-name="Ellipse 3 copy 2" class="cls-1" cx="33.5" cy="241.5" r="1.5"/>
  <circle id="Ellipse_3_copy_3-16" data-name="Ellipse 3 copy 3" class="cls-1" cx="49.5" cy="241.5" r="1.5"/>
  <circle id="Ellipse_3_copy_4-16" data-name="Ellipse 3 copy 4" class="cls-1" cx="65.5" cy="241.5" r="1.5"/>
  <circle id="Ellipse_3_copy_5-16" data-name="Ellipse 3 copy 5" class="cls-1" cx="81.5" cy="241.5" r="1.5"/>
  <circle id="Ellipse_3_copy_6-16" data-name="Ellipse 3 copy 6" class="cls-1" cx="97.5" cy="241.5" r="1.5"/>
  <circle id="Ellipse_3_copy_13-16" data-name="Ellipse 3 copy 13" class="cls-1" cx="113.5" cy="241.5" r="1.5"/>
  <circle id="Ellipse_3_copy_12-16" data-name="Ellipse 3 copy 12" class="cls-1" cx="129.5" cy="241.5" r="1.5"/>
  <circle id="Ellipse_3_copy_11-16" data-name="Ellipse 3 copy 11" class="cls-1" cx="145.5" cy="241.5" r="1.5"/>
  <circle id="Ellipse_3_copy_10-16" data-name="Ellipse 3 copy 10" class="cls-1" cx="161.5" cy="241.5" r="1.5"/>
  <circle id="Ellipse_3_copy_9-16" data-name="Ellipse 3 copy 9" class="cls-1" cx="177.5" cy="241.5" r="1.5"/>
  <circle id="Ellipse_3_copy_8-16" data-name="Ellipse 3 copy 8" class="cls-1" cx="193.5" cy="241.5" r="1.5"/>
  <circle id="Ellipse_3_copy_7-16" data-name="Ellipse 3 copy 7" class="cls-1" cx="209.5" cy="241.5" r="1.5"/>
  <circle class="cls-1" cx="1.5" cy="257.5" r="1.5"/>
  <circle id="Ellipse_3_copy-17" data-name="Ellipse 3 copy" class="cls-1" cx="17.5" cy="257.5" r="1.5"/>
  <circle id="Ellipse_3_copy_2-17" data-name="Ellipse 3 copy 2" class="cls-1" cx="33.5" cy="257.5" r="1.5"/>
  <circle id="Ellipse_3_copy_3-17" data-name="Ellipse 3 copy 3" class="cls-1" cx="49.5" cy="257.5" r="1.5"/>
  <circle id="Ellipse_3_copy_4-17" data-name="Ellipse 3 copy 4" class="cls-1" cx="65.5" cy="257.5" r="1.5"/>
  <circle id="Ellipse_3_copy_5-17" data-name="Ellipse 3 copy 5" class="cls-1" cx="81.5" cy="257.5" r="1.5"/>
  <circle id="Ellipse_3_copy_6-17" data-name="Ellipse 3 copy 6" class="cls-1" cx="97.5" cy="257.5" r="1.5"/>
  <circle id="Ellipse_3_copy_13-17" data-name="Ellipse 3 copy 13" class="cls-1" cx="113.5" cy="257.5" r="1.5"/>
  <circle id="Ellipse_3_copy_12-17" data-name="Ellipse 3 copy 12" class="cls-1" cx="129.5" cy="257.5" r="1.5"/>
  <circle id="Ellipse_3_copy_11-17" data-name="Ellipse 3 copy 11" class="cls-1" cx="145.5" cy="257.5" r="1.5"/>
  <circle id="Ellipse_3_copy_10-17" data-name="Ellipse 3 copy 10" class="cls-1" cx="161.5" cy="257.5" r="1.5"/>
  <circle id="Ellipse_3_copy_9-17" data-name="Ellipse 3 copy 9" class="cls-1" cx="177.5" cy="257.5" r="1.5"/>
  <circle id="Ellipse_3_copy_8-17" data-name="Ellipse 3 copy 8" class="cls-1" cx="193.5" cy="257.5" r="1.5"/>
  <circle id="Ellipse_3_copy_7-17" data-name="Ellipse 3 copy 7" class="cls-1" cx="209.5" cy="257.5" r="1.5"/>
  <circle id="Ellipse_3_copy_14" data-name="Ellipse 3 copy 14" class="cls-1" cx="225.5" cy="1.5" r="1.5"/>
  <circle id="Ellipse_3_copy_14-2" data-name="Ellipse 3 copy 14" class="cls-1" cx="241.5" cy="1.5" r="1.5"/>
  <circle id="Ellipse_3_copy_14-3" data-name="Ellipse 3 copy 14" class="cls-1" cx="225.5" cy="17.5" r="1.5"/>
  <circle id="Ellipse_3_copy_14-4" data-name="Ellipse 3 copy 14" class="cls-1" cx="241.5" cy="17.5" r="1.5"/>
  <circle id="Ellipse_3_copy_14-5" data-name="Ellipse 3 copy 14" class="cls-1" cx="225.5" cy="33.5" r="1.5"/>
  <circle id="Ellipse_3_copy_14-6" data-name="Ellipse 3 copy 14" class="cls-1" cx="241.5" cy="33.5" r="1.5"/>
  <circle id="Ellipse_3_copy_14-7" data-name="Ellipse 3 copy 14" class="cls-1" cx="225.5" cy="49.5" r="1.5"/>
  <circle id="Ellipse_3_copy_14-8" data-name="Ellipse 3 copy 14" class="cls-1" cx="241.5" cy="49.5" r="1.5"/>
  <circle id="Ellipse_3_copy_14-9" data-name="Ellipse 3 copy 14" class="cls-1" cx="225.5" cy="65.5" r="1.5"/>
  <circle id="Ellipse_3_copy_14-10" data-name="Ellipse 3 copy 14" class="cls-1" cx="241.5" cy="65.5" r="1.5"/>
  <circle id="Ellipse_3_copy_14-11" data-name="Ellipse 3 copy 14" class="cls-1" cx="225.5" cy="81.5" r="1.5"/>
  <circle id="Ellipse_3_copy_14-12" data-name="Ellipse 3 copy 14" class="cls-1" cx="241.5" cy="81.5" r="1.5"/>
  <circle id="Ellipse_3_copy_14-13" data-name="Ellipse 3 copy 14" class="cls-1" cx="225.5" cy="97.5" r="1.5"/>
  <circle id="Ellipse_3_copy_14-14" data-name="Ellipse 3 copy 14" class="cls-1" cx="241.5" cy="97.5" r="1.5"/>
  <circle id="Ellipse_3_copy_14-15" data-name="Ellipse 3 copy 14" class="cls-1" cx="225.5" cy="113.5" r="1.5"/>
  <circle id="Ellipse_3_copy_14-16" data-name="Ellipse 3 copy 14" class="cls-1" cx="241.5" cy="113.5" r="1.5"/>
  <circle id="Ellipse_3_copy_14-17" data-name="Ellipse 3 copy 14" class="cls-1" cx="225.5" cy="129.5" r="1.5"/>
  <circle id="Ellipse_3_copy_14-18" data-name="Ellipse 3 copy 14" class="cls-1" cx="241.5" cy="129.5" r="1.5"/>
  <circle id="Ellipse_3_copy_14-19" data-name="Ellipse 3 copy 14" class="cls-1" cx="225.5" cy="145.5" r="1.5"/>
  <circle id="Ellipse_3_copy_14-20" data-name="Ellipse 3 copy 14" class="cls-1" cx="241.5" cy="145.5" r="1.5"/>
  <circle id="Ellipse_3_copy_14-21" data-name="Ellipse 3 copy 14" class="cls-1" cx="225.5" cy="161.5" r="1.5"/>
  <circle id="Ellipse_3_copy_14-22" data-name="Ellipse 3 copy 14" class="cls-1" cx="241.5" cy="161.5" r="1.5"/>
  <circle id="Ellipse_3_copy_14-23" data-name="Ellipse 3 copy 14" class="cls-1" cx="225.5" cy="177.5" r="1.5"/>
  <circle id="Ellipse_3_copy_14-24" data-name="Ellipse 3 copy 14" class="cls-1" cx="241.5" cy="177.5" r="1.5"/>
  <circle id="Ellipse_3_copy_14-25" data-name="Ellipse 3 copy 14" class="cls-1" cx="225.5" cy="193.5" r="1.5"/>
  <circle id="Ellipse_3_copy_14-26" data-name="Ellipse 3 copy 14" class="cls-1" cx="241.5" cy="193.5" r="1.5"/>
  <circle id="Ellipse_3_copy_14-27" data-name="Ellipse 3 copy 14" class="cls-1" cx="225.5" cy="209.5" r="1.5"/>
  <circle id="Ellipse_3_copy_14-28" data-name="Ellipse 3 copy 14" class="cls-1" cx="241.5" cy="209.5" r="1.5"/>
  <circle id="Ellipse_3_copy_14-29" data-name="Ellipse 3 copy 14" class="cls-1" cx="225.5" cy="225.5" r="1.5"/>
  <circle id="Ellipse_3_copy_14-30" data-name="Ellipse 3 copy 14" class="cls-1" cx="241.5" cy="225.5" r="1.5"/>
  <circle id="Ellipse_3_copy_14-31" data-name="Ellipse 3 copy 14" class="cls-1" cx="225.5" cy="241.5" r="1.5"/>
  <circle id="Ellipse_3_copy_14-32" data-name="Ellipse 3 copy 14" class="cls-1" cx="241.5" cy="241.5" r="1.5"/>
  <circle id="Ellipse_3_copy_14-33" data-name="Ellipse 3 copy 14" class="cls-1" cx="225.5" cy="257.5" r="1.5"/>
  <circle id="Ellipse_3_copy_14-34" data-name="Ellipse 3 copy 14" class="cls-1" cx="241.5" cy="257.5" r="1.5"/>
</svg>
