<?xml version="1.0" encoding="utf-8"?>
<!-- Generator: Adobe Illustrator 21.0.2, SVG Export Plug-In . SVG Version: 6.00 Build 0)  -->
<svg version="1.1" id="Layer_1" xmlns="http://www.w3.org/2000/svg" xmlns:xlink="http://www.w3.org/1999/xlink" x="0px" y="0px"
	 viewBox="0 0 352 296" style="enable-background:new 0 0 352 296;" xml:space="preserve">
<style type="text/css">
	.st0{fill:#084EB1;}
</style>
<g id="Line">
	<path class="st0" d="M24,296h304c13.3,0,24-10.7,24-24V24c0-13.3-10.7-24-24-24H24C10.7,0,0,10.7,0,24v248C0,285.3,10.7,296,24,296
		z M16,272V152h224v128H24C19.6,280,16,276.4,16,272z M75.3,136l71-71c3.1-3.1,8.2-3.2,11.3,0c0,0,0,0,0,0l71,71H75.3z M328,280h-72
		V152h80v120C336,276.4,332.4,280,328,280z M24,16h304c4.4,0,8,3.6,8,8v112h-84.7L169,53.7c-9.5-9.1-24.4-9.1-33.9,0L52.7,136H16V24
		C16,19.6,19.6,16,24,16z M48,184c0-4.4,3.6-8,8-8h144c4.4,0,8,3.6,8,8s-3.6,8-8,8H56C51.6,192,48,188.4,48,184z M208,216
		c0,4.4-3.6,8-8,8H56c-4.4,0-8-3.6-8-8s3.6-8,8-8h144C204.4,208,208,211.6,208,216z M272,96c17.7,0,32-14.3,32-32s-14.3-32-32-32
		s-32,14.3-32,32S254.3,96,272,96z M272,48c8.8,0,16,7.2,16,16s-7.2,16-16,16s-16-7.2-16-16S263.2,48,272,48z"/>
</g>
</svg>
