<?xml version="1.0" encoding="utf-8"?>
<!-- Generator: Adobe Illustrator 21.0.2, SVG Export Plug-In . SVG Version: 6.00 Build 0)  -->
<svg version="1.1" id="line" xmlns="http://www.w3.org/2000/svg" xmlns:xlink="http://www.w3.org/1999/xlink" x="0px" y="0px"
	 viewBox="0 0 336 336" style="enable-background:new 0 0 336 336;" xml:space="preserve">
<style type="text/css">
	.st0{fill:#084EB1;}
</style>
<g>
	<path class="st0" d="M168,0C75.2,0,0,75.2,0,168s75.2,168,168,168s168-75.2,168-168C335.9,75.3,260.7,0.1,168,0z M168,320
		c-83.9,0-152-68.1-152-152S84.1,16,168,16s152,68.1,152,152C319.9,251.9,251.9,319.9,168,320z"/>
	<path class="st0" d="M256,96h-89.1c-4.3-17-21.7-27.3-38.7-23c-11.3,2.9-20.1,11.7-23,23H80c-4.4,0-8,3.6-8,8c0,4.4,3.6,8,8,8h25.1
		c4.3,17,21.7,27.3,38.7,23c11.3-2.9,20.1-11.7,23-23H256c4.4,0,8-3.6,8-8C264,99.6,260.4,96,256,96z M136,120c-8.8,0-16-7.2-16-16
		s7.2-16,16-16s16,7.2,16,16S144.8,120,136,120z"/>
	<path class="st0" d="M256,160h-25.1c-4.3-17-21.7-27.3-38.7-23c-11.3,2.9-20.1,11.7-23,23H80c-4.4,0-8,3.6-8,8s3.6,8,8,8h89.1
		c4.3,17,21.7,27.3,38.7,23c11.3-2.9,20.1-11.7,23-23H256c4.4,0,8-3.6,8-8S260.4,160,256,160z M200,184c-8.8,0-16-7.2-16-16
		s7.2-16,16-16s16,7.2,16,16S208.8,184,200,184z"/>
	<path class="st0" d="M256,224H150.9c-4.3-17-21.7-27.3-38.7-23c-11.3,2.9-20.1,11.7-23,23H80c-4.4,0-8,3.6-8,8s3.6,8,8,8h9.1
		c4.3,17,21.7,27.3,38.7,23c11.3-2.9,20.1-11.7,23-23H256c4.4,0,8-3.6,8-8S260.4,224,256,224z M120,248c-8.8,0-16-7.2-16-16
		c0-8.8,7.2-16,16-16s16,7.2,16,16C136,240.8,128.8,248,120,248z"/>
</g>
</svg>
