<?xml version="1.0" encoding="utf-8"?>
<!-- Generator: Adobe Illustrator 21.0.2, SVG Export Plug-In . SVG Version: 6.00 Build 0)  -->
<svg version="1.1" id="Layer_1" xmlns="http://www.w3.org/2000/svg" xmlns:xlink="http://www.w3.org/1999/xlink" x="0px" y="0px"
	 viewBox="0 0 256 256" style="enable-background:new 0 0 256 256;" xml:space="preserve">
<style type="text/css">
	.st0{fill:#F35045;}
</style>
<g>
	<path class="st0" d="M160.4,208c2,2.9,3.2,2.7,4.8,2s81.6-27.7,84-28.6c2.4-0.9,1.7-1.7,0.9-2.9c-0.8-1.2-27.4-37.4-28.8-39.6
		c-1.3-2.1-2-1.7-4.1-1l-84.8,22.1C132.4,160.1,158.4,205.1,160.4,208L160.4,208z"/>
	<path class="st0" d="M256,171.1v-42.4c-9.5,2.5-21.6,5.8-26.4,7C236.8,145.4,248.1,160.4,256,171.1L256,171.1z"/>
	<path class="st0" d="M229.5,83.5c-1.3,0.3-30.2,5.5-32,5.8s-1.2,1.2-0.5,2.3l25.5,34.9c0,0,31.1-7.7,33-8.1c0.2,0,0.3-0.1,0.5-0.1
		v-4.6c-5.7-7.2-21.1-26.7-22.4-28.5C232,82.9,230.9,83.2,229.5,83.5L229.5,83.5z"/>
	<path class="st0" d="M47.5,28.6c6.3-0.3,6.8,1.1,9.6,5.2l69.2,115.6l87-20.8c-4.8-6.8-26.7-37.8-28.8-40.8
		c-2.4-3.3,0.1-4.9,3.9-5.5c3.9-0.7,37.1-6.2,40-6.7s5.1-1.4,9.7,4.2c2.4,2.9,10.4,12.9,18,22.3V48c0-13.2-4.7-24.5-14.1-33.9
		C232.5,4.7,221.2,0,208,0H48C34.8,0,23.5,4.7,14.1,14.1C8.7,19.5,4.9,25.5,2.6,32.1C18.2,30.8,43.1,28.8,47.5,28.6L47.5,28.6z"/>
	<path class="st0" d="M168.3,223.6c-7.3,2.2-10.6,3.3-15.4-3.3c-3.6-5-22.9-39.8-32.4-57c-18,4.7-50.8,13.3-60.3,15.6
		c-9.2,2.2-13.2-3.3-14.7-6.7c-1.1-2.4-28.2-60.9-45.5-98.4V208c0,13.2,4.7,24.5,14.1,33.9C23.5,251.3,34.8,256,48,256h160
		c13.2,0,24.5-4.7,33.9-14.1c9.4-9.4,14.1-20.7,14.1-33.9v-15.8C236.4,199.4,173.2,222.1,168.3,223.6L168.3,223.6z"/>
	<path class="st0" d="M60.4,165.3c2.6-0.6,51.3-12.3,52.4-12.5c1-0.2,1.7-0.8,0.6-2.7S48.4,38,48.4,38c-0.6-1-0.4-1.3-2-1.3
		C45,36.8,8.9,40,0.5,40.7C0.3,42.4,0.1,44.2,0,46c8.5,17.4,57.2,117.8,57.5,118.7C57.8,165.6,57.8,165.9,60.4,165.3L60.4,165.3z"/>
</g>
</svg>
