<?xml version="1.0" encoding="utf-8"?>
<!-- Generator: Adobe Illustrator 21.0.2, SVG Export Plug-In . SVG Version: 6.00 Build 0)  -->
<svg version="1.1" id="line" xmlns="http://www.w3.org/2000/svg" xmlns:xlink="http://www.w3.org/1999/xlink" x="0px" y="0px"
	 viewBox="0 0 400 400" style="enable-background:new 0 0 400 400;" xml:space="preserve">
<style type="text/css">
	.st0{fill:#ffffff;}
</style>
<g>
	<path class="st0" d="M376,0H24C10.7,0,0,10.7,0,24v352c0,13.3,10.7,24,24,24h352c13.3,0,24-10.7,24-24V24C400,10.7,389.3,0,376,0z
		 M24,16h352c4.4,0,8,3.6,8,8v40.6L16,64V24C16,19.6,19.6,16,24,16z M376,384H24c-4.4,0-8-3.6-8-8V80l368,0.6V376
		C384,380.4,380.4,384,376,384z"/>
	<path class="st0" d="M40,48h16c4.4,0,8-3.6,8-8s-3.6-8-8-8H40c-4.4,0-8,3.6-8,8S35.6,48,40,48z"/>
	<path class="st0" d="M96,48h16c4.4,0,8-3.6,8-8s-3.6-8-8-8H96c-4.4,0-8,3.6-8,8S91.6,48,96,48z"/>
	<path class="st0" d="M152,48h16c4.4,0,8-3.6,8-8s-3.6-8-8-8h-16c-4.4,0-8,3.6-8,8S147.6,48,152,48z"/>
	<path class="st0" d="M339,184c0-48.6-39.3-88-87.9-88.1c-48.6,0-88,39.3-88.1,87.9c0,14.9,3.7,29.5,10.9,42.5L71,320.3
		c-12.6,11.5-13.5,31.1-1.9,43.7c11.5,12.6,31.1,13.5,43.7,1.9c0.7-0.6,1.3-1.3,1.9-1.9l94-102.9c42.5,23.4,96,7.9,119.4-34.6
		C335.3,213.5,339.1,198.9,339,184L339,184z M251,112c39.8,0,72,32.2,72,72s-32.2,72-72,72s-72-32.2-72-72
		C179.1,144.3,211.3,112,251,112z M102.9,353.2c-14,15.3-36.1-7.4-21.1-21.1l77.2-70.5l14.4,14.4L102.9,353.2z M184.2,264.2
		l-13.4-13.4l12.2-11.1c3.7,4.5,7.8,8.6,12.3,12.3L184.2,264.2z"/>
	<path class="st0" d="M251,240c30.9,0,56-25.1,56-56s-25.1-56-56-56s-56,25.1-56,56C195.1,214.9,220.1,240,251,240z M251,144
		c22.1,0,40,17.9,40,40s-17.9,40-40,40s-40-17.9-40-40C211.1,161.9,229,144,251,144z"/>
	<path class="st0" d="M48,160h88c4.4,0,8-3.6,8-8s-3.6-8-8-8H48c-4.4,0-8,3.6-8,8S43.6,160,48,160z"/>
	<path class="st0" d="M48,200h88c4.4,0,8-3.6,8-8s-3.6-8-8-8H48c-4.4,0-8,3.6-8,8S43.6,200,48,200z"/>
	<path class="st0" d="M104,232c0-4.4-3.6-8-8-8H48c-4.4,0-8,3.6-8,8s3.6,8,8,8h48C100.4,240,104,236.4,104,232z"/>
	<path class="st0" d="M352,304h-88c-4.4,0-8,3.6-8,8s3.6,8,8,8h88c4.4,0,8-3.6,8-8S356.4,304,352,304z"/>
	<path class="st0" d="M352,264h-32c-4.4,0-8,3.6-8,8s3.6,8,8,8h32c4.4,0,8-3.6,8-8S356.4,264,352,264z"/>
</g>
</svg>
