<svg xmlns="http://www.w3.org/2000/svg" width="330.469" height="378" viewBox="0 0 330.469 378">
  <defs>
    <style>
      .cls-1 {
        fill: #084eb1;
        fill-opacity: 0;
        stroke: #dceafa;
        stroke-linejoin: round;
        stroke-width: 1px;
        fill-rule: evenodd;
      }
    </style>
  </defs>
  <path class="cls-1" d="M-145,1246.65C-99.309,1206.84-32.384,1180,33.014,1180c129.706,0,190.859,55.85,158.784,104.3-68.228,103.06,93.451,40.97,129.012,101.81,29.828,51.04-16.953,119.28-83.954,154.73a97.1,97.1,0,0,1-45.4,11.14l-5.955,1.46a123.094,123.094,0,0,1-55.789.67l-9.689-2.13a97.342,97.342,0,0,1-72.971-32.56l-0.392-.45c-77.073-87.79-145.27-75.46-191.656-84.93V1246.65Z" transform="translate(0 -1179.5)"/>
</svg>
