<?xml version="1.0" encoding="utf-8"?>
<!-- Generator: Adobe Illustrator 21.0.2, SVG Export Plug-In . SVG Version: 6.00 Build 0)  -->
<svg version="1.1" id="Layer_1" xmlns="http://www.w3.org/2000/svg" xmlns:xlink="http://www.w3.org/1999/xlink" x="0px" y="0px"
	 viewBox="0 0 400 400" style="enable-background:new 0 0 400 400;" xml:space="preserve">
<style type="text/css">
	.st0{fill:#ffffff;}
</style>
<g id="Line">
	<path class="st0" d="M344,0H56C25.1,0,0,25.1,0,56v320c0,13.3,10.7,24,24,24h256c13.3,0,24-10.7,24-24V208h72c13.3,0,24-10.7,24-24
		V56C400,25.1,374.9,0,344,0z M56,16h248.9C294.1,26.5,288,40.9,288,56v280H16V56C16,33.9,33.9,16,56,16z M280,384H24
		c-4.4,0-8-3.6-8-8v-24h272v24C288,380.4,284.4,384,280,384z M384,184c0,4.4-3.6,8-8,8h-72V56c0-22.1,17.9-40,40-40s40,17.9,40,40
		V184z M49.4,180.4c-1.8-2.7-1.8-6.1,0-8.8l48-72c2.8-3.4,7.8-4,11.2-1.2c3,2.4,3.9,6.6,2,10l-45,67.6l45,67.6
		c2.1,3.9,0.6,8.7-3.3,10.8c-3.4,1.8-7.6,1-10-2L49.4,180.4z M193.4,243.6l45-67.6l-45-67.6c-2.8-3.4-2.2-8.5,1.2-11.2
		c3.4-2.8,8.5-2.2,11.2,1.2c0.3,0.4,0.6,0.8,0.8,1.2l48,72c1.8,2.7,1.8,6.1,0,8.8l-48,72c-2.1,3.9-6.9,5.4-10.8,3.3
		c-3.9-2.1-5.4-6.9-3.3-10.8C192.8,244.4,193,244,193.4,243.6z M128,246.2l32-144c1-4.4,5.3-7.2,9.8-6.2c4.4,1,7.2,5.3,6.2,9.8
		l-32,144c-1,4.4-5.3,7.2-9.8,6.2C129.8,255,127,250.7,128,246.2z"/>
</g>
</svg>
