<?xml version="1.0" encoding="utf-8"?>
<!-- Generator: Adobe Illustrator 21.0.2, SVG Export Plug-In . SVG Version: 6.00 Build 0)  -->
<svg version="1.1" id="Layer_1" xmlns="http://www.w3.org/2000/svg" xmlns:xlink="http://www.w3.org/1999/xlink" x="0px" y="0px"
	 viewBox="0 0 333 357" style="enable-background:new 0 0 333 357;" xml:space="preserve">
<style type="text/css">
	.st0{opacity:0.85;fill:url(#SVGID_1_);enable-background:new    ;}
</style>
<linearGradient id="SVGID_1_" gradientUnits="userSpaceOnUse" x1="57.8952" y1="77.2559" x2="310.492" y2="289.2097">
	<stop  offset="0" style="stop-color:#1F6BC5"/>
	<stop  offset="1" style="stop-color:#13448B"/>
</linearGradient>
<path class="st0" d="M59.5,23.8h11.9v11.9H59.5V23.8z M83.3,23.8h11.9v11.9H83.3V23.8z M107,23.8h11.9v11.9H107V23.8z M309.2,0H59.5
	C46.3,0,35.7,10.7,35.7,23.8v0v107.1H5.9c-3.3,0-5.9,2.7-5.9,6V244c0,3.3,2.7,5.9,5.9,6h29.7v17.9H5.9c-3.3,0-5.9,2.7-5.9,5.9v47.6
	c0,3.3,2.7,5.9,5.9,6h29.7v6c0,13.1,10.6,23.8,23.8,23.8h249.8c13.1,0,23.8-10.7,23.8-23.8l0,0V23.8C333,10.7,322.4,0,309.2,0
	C309.2,0,309.2,0,309.2,0z M35.7,315.3H11.9v-35.7h23.8V315.3z M11.9,238v-95.2h154.6V238H11.9z M47.6,279.6h11.9v35.7H47.6V279.6
	L47.6,279.6z M321.1,333.2c0,6.6-5.3,11.9-11.9,11.9H59.5c-6.6,0-11.9-5.3-11.9-11.9v-6h202.2c0.9,0,1.8-0.2,2.7-0.6l47.6-23.8
	c2.9-1.5,4.1-5,2.7-8c-0.6-1.2-1.5-2.1-2.7-2.7l-47.6-23.8c-0.8-0.4-1.6-0.6-2.5-0.6c-0.1,0-0.1,0-0.2,0H47.6v-17.9h124.9
	c3.3,0,5.9-2.7,5.9-6V136.9c0-3.3-2.7-5.9-5.9-6H47.6V59.5h273.5V333.2z M243.8,303.5v11.9H71.4v-11.9H243.8L243.8,303.5z
	 M71.4,291.6v-11.9h172.4v11.9H71.4L71.4,291.6z M255.7,311.7v-28.3l28.3,14.2L255.7,311.7z M321.1,47.6H47.6V23.8
	c0-6.6,5.3-11.9,11.9-11.9h249.8c6.6,0,11.9,5.3,11.9,11.9V47.6z M69,177.3l-7.1-9.5l-23.8,17.9c-2.6,2-3.2,5.7-1.2,8.3
	c0.3,0.5,0.7,0.9,1.2,1.2L61.8,213l7.1-9.5l-17.4-13.1L69,177.3z M141.5,186.8c-0.3-0.5-0.7-0.9-1.2-1.2l-23.8-17.9l-7.1,9.5
	l17.4,13.1l-17.4,13.1l7.1,9.5l23.8-17.9C143,193.2,143.5,189.5,141.5,186.8z M71.8,217.9l23.8-59.5l11,4.4l-23.8,59.5L71.8,217.9z
	 M65.4,101.2h113v11.9h-113V101.2z M89.2,77.4h89.2v11.9H89.2L89.2,77.4L89.2,77.4z M65.4,77.4h11.9v11.9H65.4V77.4z M214.1,238
	h89.2v11.9h-89.2V238z M190.3,238h11.9v11.9h-11.9V238z M279.5,175.4c24.6-16.4,31.2-49.6,14.7-74.2C277.8,76.6,244.6,70,220,86.4
	s-31.2,49.6-14.7,74.2c3.9,5.8,8.9,10.8,14.7,14.7v9.1h-11.9v11.9H220v17.9c0,3.3,2.7,5.9,5.9,6h47.6c3.3,0,5.9-2.7,5.9-6v-17.9
	h11.9v-11.9h-11.9L279.5,175.4L279.5,175.4z M267.6,208.3h-35.7v-11.9h35.7V208.3z M270.6,166.9c-1.8,1.1-3,3-3,5.1v12.4h-11.9
	v-33.2l16.1-16.1l-8.4-8.4l-13.6,13.6l-13.6-13.6l-8.4,8.4l16.1,16.1v33.2h-11.9v-12.4c0-2.1-1.1-4.1-3-5.1
	c-19.9-11.5-26.7-36.9-15.2-56.8c11.5-19.9,36.9-26.7,56.8-15.2s26.7,36.9,15.2,56.8C282.1,158.1,276.9,163.3,270.6,166.9
	L270.6,166.9z"/>
</svg>
