<?xml version="1.0" encoding="utf-8"?>
<!-- Generator: Adobe Illustrator 21.0.2, SVG Export Plug-In . SVG Version: 6.00 Build 0)  -->
<svg version="1.1" id="OBJECTS" xmlns="http://www.w3.org/2000/svg" xmlns:xlink="http://www.w3.org/1999/xlink" x="0px" y="0px"
	 viewBox="0 0 385.4 284.9" style="enable-background:new 0 0 385.4 284.9;" xml:space="preserve">
<style type="text/css">
	.st0{fill:#6C62CA;}
	.st1{fill:#B3B8F6;}
	.st2{fill:#FFFFFF;}
	.st3{opacity:0.33;fill:#00CDC4;}
	.st4{opacity:0.6;}
	.st5{fill:#F5778F;}
	.st6{fill:#8BB4F2;}
	.st7{fill:#D8EDFA;}
	.st8{clip-path:url(#SVGID_1_);fill:#C6E3F7;}
	.st9{opacity:0.44;clip-path:url(#SVGID_1_);fill:#C6E3F7;}
	.st10{opacity:0.7;}
	.st11{fill:#C6E3F7;}
	.st12{fill:#A7C9F2;}
	.st13{opacity:0.8;}
	.st14{fill:#E4ECFF;}
	.st15{fill:#9796F7;}
	.st16{fill:#FFFAFF;}
	.st17{opacity:0.3;fill:#6642CC;}
	.st18{fill:#6253CF;}
	.st19{fill:#DBDBDB;}
	.st20{fill:none;stroke:#B9B9BA;stroke-width:0.9029;stroke-miterlimit:10;}
	.st21{fill:#202063;}
	.st22{fill:#4C45BF;}
	.st23{fill:#01E4D0;}
	.st24{fill:#00CDC4;}
	.st25{fill:#F3B9A7;}
	.st26{fill:#D9DFF7;}
	.st27{opacity:0.57;fill:#00CDC4;}
	.st28{fill:#E56A88;}
	.st29{opacity:0.5;fill:#9997E9;}
	.st30{opacity:0.5;fill:#BBB8F6;}
	.st31{fill:#8184EB;}
	.st32{fill:#BBB8F6;}
	.st33{fill:#B4B9F6;}
	.st34{fill:#D9DFF6;}
	.st35{fill:#8285DF;}
	.st36{clip-path:url(#SVGID_2_);fill:#C6E3F7;}
	.st37{opacity:0.44;clip-path:url(#SVGID_2_);fill:#C6E3F7;}
</style>
<g>
	<g>
		<g>
			<path class="st0" d="M381.7,47.8l-39.8-22.9c-1-0.6-1.9-0.6-2.6-0.2l-1.4,0.8l0.4,1.9l0.2,105.9c0,2.2,1.6,5,3.5,6.1l39,22.4
				l-1.7,1l3.3,0.7l1.7-1c0.6-0.4,1-1.1,1-2.2l-0.2-106.3C385.2,51.6,383.6,48.9,381.7,47.8z"/>
			<path class="st1" d="M379.9,48.7c2,1.1,3.5,3.8,3.5,6.1l0.2,106.3c0,2.2-1.6,3.1-3.5,2l-39.8-22.9c-2-1.1-3.5-3.8-3.5-6.1
				l-0.2-106.3c0-2.2,1.6-3.1,3.5-2L379.9,48.7z"/>
			<g>
				<path class="st2" d="M339.2,128.6c0,2.6,1.9,5.8,4.1,7.1l33.7,19c2.3,1.3,4.1,0.2,4.1-2.4l-0.2-92c0-2.6-1.9-5.8-4.1-7.1
					l-33.7-19c-2.3-1.3-4.1-0.2-4.1,2.4L339.2,128.6z"/>
			</g>
		</g>
		<g>
			<path class="st3" d="M376.3,64.4c0.1,0.2,0.1,0.4,0,0.6c-0.2,0.3-0.5,0.4-0.8,0.2l-32.9-19.2c-0.3-0.2-0.4-0.6-0.2-0.8
				c0.2-0.3,0.5-0.4,0.8-0.2l32.9,19.2C376.2,64.2,376.3,64.3,376.3,64.4z M376.2,69.8c0.1,0.2,0.1,0.4,0,0.6
				c-0.2,0.3-0.5,0.4-0.8,0.2l-32.9-19.2c-0.3-0.2-0.4-0.6-0.2-0.8c0.2-0.3,0.5-0.4,0.8-0.2L376,69.6
				C376.1,69.7,376.1,69.7,376.2,69.8z M376.1,75.3c0.1,0.2,0.1,0.4,0,0.6c-0.2,0.3-0.5,0.4-0.8,0.2L342.4,57
				c-0.3-0.2-0.4-0.6-0.2-0.8c0.2-0.3,0.5-0.4,0.8-0.2L375.9,75C376,75.1,376,75.2,376.1,75.3z M376,80.7c0.1,0.2,0.1,0.4,0,0.6
				c-0.2,0.3-0.5,0.4-0.8,0.2l-32.9-19.2c-0.3-0.2-0.4-0.6-0.2-0.8c0.2-0.3,0.5-0.4,0.8-0.2l32.9,19.2
				C375.8,80.5,375.9,80.6,376,80.7z M375.9,86.1c0.1,0.2,0.1,0.4,0,0.6c-0.2,0.3-0.5,0.4-0.8,0.2l-32.9-19.2
				c-0.3-0.2-0.4-0.6-0.2-0.8c0.2-0.3,0.5-0.4,0.8-0.2l32.9,19.2C375.7,86,375.8,86.1,375.9,86.1z M375.8,91.6
				c0.1,0.2,0.1,0.4,0,0.6c-0.2,0.3-0.5,0.4-0.8,0.2L342,73.3c-0.3-0.2-0.4-0.6-0.2-0.8c0.2-0.3,0.5-0.4,0.8-0.2l32.9,19.2
				C375.6,91.4,375.7,91.5,375.8,91.6z M375.6,97c0.1,0.2,0.1,0.4,0,0.6c-0.2,0.3-0.5,0.4-0.8,0.2l-32.9-19.2
				c-0.3-0.2-0.4-0.6-0.2-0.8c0.2-0.3,0.5-0.4,0.8-0.2l32.9,19.2C375.5,96.9,375.6,96.9,375.6,97z M375.5,102.5
				c0.1,0.2,0.1,0.4,0,0.6c-0.2,0.3-0.5,0.4-0.8,0.2l-32.9-19.2c-0.3-0.2-0.4-0.6-0.2-0.8c0.2-0.3,0.5-0.4,0.8-0.2l32.9,19.2
				C375.4,102.3,375.5,102.4,375.5,102.5z M375.4,107.9c0.1,0.2,0.1,0.4,0,0.6c-0.2,0.3-0.5,0.4-0.8,0.2l-32.9-19.2
				c-0.3-0.2-0.4-0.6-0.2-0.8c0.2-0.3,0.5-0.4,0.8-0.2l32.9,19.2C375.3,107.7,375.4,107.8,375.4,107.9z"/>
		</g>
		<g class="st4">
			<g>
				<path class="st5" d="M343.9,100.4l-0.1,24.2c0,0.7,0.4,1.4,1,1.7l24.4,14.1c1.3,0.8,3-0.2,3-1.7l0.1-24.2c0-0.7-0.4-1.4-1-1.7
					l-24.4-14.1C345.6,97.9,343.9,98.9,343.9,100.4z"/>
			</g>
			<path class="st2" d="M353.4,117.5v-5.9c0-0.8,0.7-0.8,1.3-0.1l4.4,5.5l4.4,5.5c0.6,0.7,0.6,1.7,0,1.7l-4.4,0.4l-4.4,0.4
				c-0.6,0.1-1.3-0.8-1.3-1.6V117.5z"/>
		</g>
	</g>
	<g>
		<g>
			<path class="st6" d="M302.9,59.6c-0.7-2.2-4.6-2.4-4.9-0.1c-3.7-1.1-5.5,3.6-3,4.6l17,9.9c3.1,2,4.5-3.5,1.2-5.9c0,0,0,0,0-0.1
				c1-1.6-1.4-4.6-3.1-4.5C310.5,59.4,304.6,56.1,302.9,59.6z"/>
		</g>
		<g>
			<path class="st7" d="M302,60.2c-0.7-2.2-4.6-2.4-4.9-0.1c-3.7-1.1-5.5,3.6-3,4.6l17,9.9c3.1,2,4.5-3.5,1.2-5.9c0,0,0,0,0-0.1
				c1-1.6-1.4-4.6-3.1-4.5C309.7,60,303.7,56.7,302,60.2z"/>
		</g>
	</g>
	<g>
		<g>
			<path class="st6" d="M44.8,108.8c0.7-2.2,4.6-2.4,4.9-0.1c3.7-1.1,5.5,3.6,3,4.6l-17,9.9c-3.1,2-4.5-3.5-1.2-5.9c0,0,0,0,0-0.1
				c-1-1.6,1.4-4.6,3.1-4.5C37.2,108.6,43.1,105.3,44.8,108.8z"/>
		</g>
		<g>
			<path class="st7" d="M45.7,109.4c0.7-2.2,4.6-2.4,4.9-0.1c3.7-1.1,5.5,3.6,3,4.6l-17,9.9c-3.1,2-4.5-3.5-1.2-5.9c0,0,0,0,0-0.1
				c-1-1.6,1.4-4.6,3.1-4.5C38,109.2,44,105.9,45.7,109.4z"/>
		</g>
	</g>
	<g>
		<defs>
			<path id="SVGID_5_" d="M260.7,79.8l13.6,7.9c0.5,0.3,1.1-0.1,1.1-0.6v-12c0-0.3-0.1-0.5-0.4-0.6l-13.6-7.9
				c-0.5-0.3-1.1,0.1-1.1,0.6v12C260.3,79.5,260.5,79.7,260.7,79.8z"/>
		</defs>
		<clipPath id="SVGID_1_">
			<use xlink:href="#SVGID_5_"  style="overflow:visible;"/>
		</clipPath>
		<polygon class="st8" points="260.3,79.6 275.4,88.4 275.4,74.6 260.3,65.9 		"/>
		<polygon class="st9" points="260.3,79.6 275.4,88.4 267.5,76.2 		"/>
		<path class="st8" d="M268.2,77.1l7.2-2.5l-15.1-8.7l6.5,10.7C267.1,77.1,267.7,77.3,268.2,77.1z"/>
	</g>
	<g class="st10">
		<path class="st11" d="M96.5,55.2l-7.3,4.2c-0.7,0.4-1.6-0.1-1.6-0.9v-9.9c0-0.6,0.3-1.2,0.9-1.6l7.3-4.2c0.7-0.4,1.6,0.1,1.6,0.9
			v9.9C97.4,54.3,97,54.8,96.5,55.2z"/>
		<g>
			<path class="st12" d="M91.4,55l-1,0.6c-0.1,0-0.2,0-0.2-0.1v-4.9c0,0,0-0.1,0.1-0.1l1-0.6c0.1,0,0.2,0,0.2,0.1v4.9
				C91.5,54.9,91.4,55,91.4,55z"/>
			<path class="st2" d="M93.9,47.5c-0.1-1-0.7-1.1-1-0.8c-0.2,0.2-0.1,1.5-0.5,2.1c-0.3,0.5-0.7,0.8-0.9,0.9c0,0-0.1,0.1-0.1,0.1
				v2.3v2.6c0,0.1,0.1,0.2,0.2,0.1l2.9-1.6c0.2-0.1,0.4-0.4,0.4-0.6V49c0-0.4-0.3-0.7-1-0.5c-0.1,0-0.2,0-0.2-0.1
				C93.9,48.2,93.9,47.8,93.9,47.5z"/>
		</g>
	</g>
	<g class="st10">
		<path class="st11" d="M229.9,44.2l10.9,6.3c1.1,0.6,2.4-0.2,2.4-1.4V34.4c0-1-0.5-1.8-1.3-2.3L231,25.8c-1.1-0.6-2.4,0.2-2.4,1.4
			v14.7C228.6,42.8,229.1,43.7,229.9,44.2z"/>
		<g>
			<path class="st12" d="M237.5,44l1.5,0.9c0.1,0.1,0.3,0,0.3-0.2v-7.3c0-0.1,0-0.1-0.1-0.2l-1.5-0.9c-0.1-0.1-0.3,0-0.3,0.2v7.3
				C237.4,43.9,237.4,43.9,237.5,44z"/>
			<path class="st2" d="M233.8,32.8c0.2-1.5,1.1-1.6,1.4-1.3c0.3,0.3,0.1,2.2,0.7,3.2c0.5,0.8,1.1,1.2,1.3,1.4
				c0.1,0,0.1,0.1,0.1,0.2v3.4v3.9c0,0.1-0.1,0.2-0.3,0.2l-4.4-2.3c-0.3-0.2-0.6-0.5-0.6-0.9V35c0-0.6,0.4-1,1.4-0.7
				c0.1,0,0.3-0.1,0.2-0.2C233.8,33.8,233.7,33.2,233.8,32.8z"/>
		</g>
	</g>
	<g class="st10">
		<path class="st11" d="M17.3,135.6l-14.2,8.2C1.8,144.6,0,143.6,0,142v-19.2c0-1.2,0.7-2.4,1.7-3l14.2-8.2c1.4-0.8,3.1,0.2,3.1,1.8
			v19.2C19.1,133.8,18.4,135,17.3,135.6z"/>
		<g>
			<path class="st12" d="M7.5,135.3l-2,1.2c-0.2,0.1-0.4,0-0.4-0.2v-9.6c0-0.1,0-0.2,0.1-0.2l2-1.2c0.2-0.1,0.4,0,0.4,0.2v9.6
				C7.6,135.2,7.6,135.3,7.5,135.3z"/>
			<path class="st2" d="M12.3,120.7c-0.2-2-1.4-2.1-1.9-1.6c-0.5,0.4-0.2,2.9-0.9,4.2c-0.6,1.1-1.5,1.6-1.8,1.8
				c-0.1,0-0.1,0.1-0.1,0.2v4.5v5.1c0,0.2,0.2,0.3,0.4,0.2l5.7-3.1c0.4-0.2,0.7-0.7,0.7-1.2v-7.2c0-0.8-0.6-1.4-1.9-0.9
				c-0.2,0.1-0.3-0.1-0.3-0.3C12.3,122,12.4,121.2,12.3,120.7z"/>
		</g>
	</g>
	<g class="st10">
		<path class="st5" d="M54.8,84l-15.3,8.8c-1.5,0.9-3.4-0.2-3.4-2V70.2c0-1.3,0.7-2.6,1.9-3.3l15.3-8.8c1.5-0.9,3.4,0.2,3.4,2v20.7
			C56.7,82.1,56,83.3,54.8,84z"/>
		<path class="st2" d="M39.8,75c1.1-2.8,5.2-5.2,6.4-1.9c1.2-4.7,5.3-7.1,6.4-5.7c1.6,1.9,1.5,8-6.4,16.4
			C39.3,82.8,38.7,77.9,39.8,75z"/>
	</g>
	<g class="st10">
		<path class="st5" d="M264.4,30.2l9.5,5.5c0.9,0.5,2.1-0.1,2.1-1.2V21.7c0-0.8-0.4-1.6-1.2-2l-9.5-5.5c-0.9-0.5-2.1,0.1-2.1,1.2
			v12.8C263.2,29,263.7,29.8,264.4,30.2z"/>
		<path class="st2" d="M273.7,24.7c-0.7-1.7-3.2-3.2-4-1.2c-0.7-2.9-3.3-4.4-4-3.5c-1,1.2-0.9,5,4,10.2
			C274,29.5,274.4,26.5,273.7,24.7z"/>
	</g>
	<g class="st4">
		<g>
			<path class="st5" d="M164.3,1.1l0,12.7c0,0.4-0.2,0.7-0.5,0.9l-12.8,7.4c-0.7,0.4-1.6-0.1-1.6-0.9l0-12.7c0-0.4,0.2-0.7,0.5-0.9
				l12.8-7.4C163.4-0.3,164.3,0.2,164.3,1.1z"/>
		</g>
		<path class="st2" d="M155,12.5v3.1c0,0.4,0.4,0.4,0.7,0.1l2.3-2.9l2.3-2.9c0.3-0.4,0.3-0.9,0-0.9L158,8.7l-2.3-0.2
			c-0.3,0-0.7,0.4-0.7,0.8V12.5z"/>
	</g>
	<g class="st13">
		<path class="st2" d="M305.6,84.4L329,97.8c1.1,0.6,1.7,1.7,1.7,3l0,8.7c0,2.6-2.8,4.3-5.1,3l-16.6-9.7l-8.9,0.8l5.2-2.9l-3.2-1.8
			c-1.1-0.6-1.7-1.7-1.7-3l0-8.6C300.5,84.7,303.4,83.1,305.6,84.4z"/>
		<path class="st14" d="M323.3,101.7c0.5-0.4,1.5,0.1,2.1,1c0.6,0.9,0.7,1.9,0.1,2.3c-0.5,0.4-1.5-0.1-2.1-1
			C322.8,103.1,322.7,102.1,323.3,101.7z M319,101.6c0.6,0.9,1.6,1.3,2.1,1c0.5-0.4,0.5-1.4-0.1-2.3c-0.6-0.9-1.6-1.3-2.1-1
			C318.4,99.6,318.4,100.7,319,101.6z M314.6,99.1c0.6,0.9,1.6,1.3,2.1,1c0.5-0.4,0.5-1.4-0.1-2.3c-0.6-0.9-1.6-1.3-2.1-1
			C314,97.2,314,98.2,314.6,99.1z M310.3,96.7c0.6,0.9,1.6,1.3,2.1,1c0.5-0.4,0.5-1.4-0.1-2.3c-0.6-0.9-1.6-1.3-2.1-1
			C309.6,94.7,309.6,95.8,310.3,96.7z M305.9,94.2c0.6,0.9,1.6,1.3,2.1,1c0.5-0.4,0.5-1.4-0.1-2.3c-0.6-0.9-1.6-1.3-2.1-1
			C305.2,92.3,305.3,93.3,305.9,94.2z"/>
	</g>
	<g>
		<g>
			<path class="st6" d="M117.8,12.9c0.7-2.2,4.6-2.4,4.9-0.1c3.7-1.1,5.5,3.6,3,4.6l-17,9.9c-3.1,2-4.5-3.5-1.2-5.9c0,0,0,0,0-0.1
				c-1-1.6,1.4-4.6,3.1-4.5C110.2,12.7,116.2,9.3,117.8,12.9z"/>
		</g>
		<g>
			<path class="st7" d="M118.7,13.5c0.7-2.2,4.6-2.4,4.9-0.1c3.7-1.1,5.5,3.6,3,4.6l-17,9.9c-3.1,2-4.5-3.5-1.2-5.9c0,0,0,0,0-0.1
				c-1-1.6,1.4-4.6,3.1-4.5C111.1,13.3,117,10,118.7,13.5z"/>
		</g>
	</g>
	<g>
		<g>
			<g>
				<path class="st0" d="M77.4,80.8L206.6,6.4c1-0.6,1.8-0.6,2.4-0.2l0,0l2.6,1.5l-1.7,1l0.2,99.9c0,2.1-1.5,4.7-3.3,5.7l-128.4,74
					l1.6,0.9l-2.1,1.2l-2.6-1.5l0,0c-0.6-0.4-0.9-1.1-0.9-2.1L74.1,86.6C74.1,84.5,75.6,81.9,77.4,80.8z"/>
				<path class="st1" d="M208.9,7.7c1.8-1.1,3.3-0.2,3.3,1.9l0.2,100.3c0,2.1-1.5,4.7-3.3,5.7L80,190.2c-1.8,1.1-3.3,0.2-3.3-1.9
					L76.4,87.9c0-2.1,1.5-4.7,3.3-5.7L208.9,7.7z"/>
				<g>
					<path class="st2" d="M208.4,101.8c0,2.5-1.7,5.5-3.9,6.7l-72.8,42l-47.2,27.2c-2.1,1.2-3.9,0.2-3.9-2.2l-0.2-79.3
						c0-2.5,1.7-5.5,3.9-6.7l59.2-34.1l60.9-35.1c2.1-1.2,3.9-0.2,3.9,2.2L208.4,101.8z"/>
				</g>
			</g>
		</g>
		<g>
			<g>
				<g>
					<path class="st3" d="M93.7,135.2c4.1,16.1,17,19.8,28.9,8.2c11.9-11.6,18.2-34,14.1-50.1c-4.1-16.1-17-19.8-28.9-8.2
						C95.9,96.6,89.6,119.1,93.7,135.2z"/>
					<path class="st2" d="M121.3,137.9c9.7-9.4,14.8-27.7,11.5-40.8c-3.3-13.1-13.9-16.1-23.6-6.7c-9.7,9.4-14.8,27.7-11.5,40.8
						C101,144.4,111.6,147.4,121.3,137.9z"/>
					<path class="st3" d="M119.9,132.6c7.5-7.3,11.5-21.4,8.9-31.6c-2.6-10.1-10.7-12.4-18.2-5.1c-7.5,7.3-11.5,21.4-8.9,31.6
						C104.2,137.5,112.4,139.8,119.9,132.6z"/>
					<path class="st2" d="M118.5,127.2c5.3-5.1,8.1-15.1,6.3-22.3c-1.8-7.1-7.6-8.8-12.9-3.6c-5.3,5.1-8.1,15.1-6.3,22.3
						C107.5,130.7,113.2,132.3,118.5,127.2z"/>
					<path class="st3" d="M117.2,121.8c3.1-3,4.7-8.8,3.7-13c-1.1-4.2-4.4-5.1-7.5-2.1c-3.1,3-4.7,8.8-3.7,13
						C110.7,123.8,114.1,124.8,117.2,121.8z"/>
					<path class="st2" d="M115.8,116.4c0.9-0.9,1.4-2.5,1.1-3.7c-0.3-1.2-1.3-1.5-2.2-0.6c-0.9,0.9-1.4,2.5-1.1,3.7
						C113.9,117,114.9,117.2,115.8,116.4z"/>
				</g>
			</g>
			<g>
				<polygon class="st15" points="120.8,117.8 179.3,151.8 179.3,149.6 120.8,115.6 				"/>
				<polygon class="st15" points="126.4,114.9 115.2,113.9 126.4,125.8 				"/>
				<polygon class="st15" points="183,143.5 184.4,144.4 177,148.8 175.5,147.9 				"/>
				<polygon class="st15" points="179.8,141.7 181.3,142.5 173.8,147 172.4,146.1 				"/>
				<polygon class="st15" points="176.7,139.9 178.2,140.7 170.7,145.2 169.2,144.3 				"/>
				<polygon class="st15" points="170.7,146.1 169.2,145.2 176.7,158.4 178.2,159.2 				"/>
				<polygon class="st15" points="173.8,147.9 172.4,147 179.8,160.2 181.3,161 				"/>
				<polygon class="st15" points="177,149.7 175.5,148.8 183,162 184.4,162.8 				"/>
			</g>
		</g>
		<g>
			<path class="st3" d="M197.3,96.9l-44.7,25.8c-1.6,0.9-3.7-0.2-3.7-2.1V61.8c0-0.9,0.5-1.7,1.2-2.1l44.7-25.8
				c1.6-0.9,3.7,0.2,3.7,2.1v58.9C198.5,95.7,198,96.5,197.3,96.9z"/>
			<path class="st16" d="M160.3,97l28.1-16.4c0.4-0.2,0.5-0.7,0.3-1.1c-0.2-0.4-0.7-0.5-1.1-0.3l-28.1,16.4
				c-0.4,0.2-0.5,0.7-0.3,1.1c0.2,0.3,0.4,0.4,0.7,0.4C160,97.1,160.2,97.1,160.3,97z M159.9,100.8c-0.3,0-0.6-0.1-0.7-0.4
				c-0.2-0.4-0.1-0.9,0.3-1.1l28.1-16.4c0.4-0.2,0.9-0.1,1.1,0.3c0.2,0.4,0.1,0.9-0.3,1.1l-28.1,16.4
				C160.2,100.7,160,100.8,159.9,100.8z M159.9,104.5c-0.3,0-0.6-0.1-0.7-0.4c-0.2-0.4-0.1-0.9,0.3-1.1l28.1-16.4
				c0.4-0.2,0.9-0.1,1.1,0.3c0.2,0.4,0.1,0.9-0.3,1.1l-28.1,16.4C160.2,104.4,160,104.5,159.9,104.5z M159.9,108.1
				c-0.3,0-0.6-0.1-0.7-0.4c-0.2-0.4-0.1-0.9,0.3-1.1l28.1-16.4c0.4-0.2,0.9-0.1,1.1,0.3c0.2,0.4,0.1,0.9-0.3,1.1L160.3,108
				C160.2,108.1,160,108.1,159.9,108.1z M159.9,111.8c-0.3,0-0.6-0.1-0.7-0.4c-0.2-0.4-0.1-0.9,0.3-1.1l28.1-16.4
				c0.4-0.2,0.9-0.1,1.1,0.3c0.2,0.4,0.1,0.9-0.3,1.1l-28.1,16.4C160.2,111.8,160,111.8,159.9,111.8z"/>
			<path class="st16" d="M158.6,89.5V76.1c0-0.4,0.2-0.7,0.5-0.9l3.1-1.8c0.7-0.4,1.5,0.1,1.5,0.9v13.4c0,0.4-0.2,0.7-0.5,0.9
				l-3.1,1.8C159.4,90.7,158.6,90.3,158.6,89.5z M172,83.1V62.7c0-0.8-0.8-1.3-1.5-0.9l-3.1,1.8c-0.3,0.2-0.5,0.5-0.5,0.9v20.4
				c0,0.8,0.8,1.3,1.5,0.9l3.1-1.8C171.8,83.8,172,83.4,172,83.1z M180.4,78.5v-13c0-0.8-0.8-1.3-1.5-0.9l-3.1,1.8
				c-0.3,0.2-0.5,0.5-0.5,0.9v13c0,0.8,0.8,1.3,1.5,0.9l3.1-1.8C180.2,79.2,180.4,78.8,180.4,78.5z M188.8,73.8V53.7
				c0-0.8-0.8-1.3-1.5-0.9l-3.1,1.8c-0.3,0.2-0.5,0.5-0.5,0.9v20.2c0,0.8,0.8,1.3,1.5,0.9l3.1-1.8C188.6,74.5,188.8,74.2,188.8,73.8
				z"/>
		</g>
	</g>
	<g>
		<g>
			<path class="st17" d="M192.5,176.1c1.3-0.7,3.4-0.7,4.7,0l90.1,52.4c1.3,0.7,1.3,2,0,2.7l-67.5,38.5c-1.3,0.7-3.4,0.7-4.7,0
				L125,217.3c-1.3-0.7-1.3-2,0-2.7L192.5,176.1z"/>
			<path class="st15" d="M192.7,175.5c1.3-0.7,3.3-0.7,4.6,0l88.7,51.5c1.3,0.7,1.3,1.9,0,2.7l-66.4,37.8c-1.3,0.7-3.3,0.7-4.6,0
				L126.3,216c-1.3-0.7-1.3-1.9,0-2.7L192.7,175.5z"/>
			<path class="st2" d="M193.6,178.8c1.2-0.7,3.1-0.7,4.3,0l82.3,47.8c1.2,0.7,1.2,1.8,0,2.5l-61.6,35.1c-1.2,0.7-3.1,0.7-4.3,0
				L132,216.4c-1.2-0.7-1.2-1.8,0-2.5L193.6,178.8z"/>
			<path class="st18" d="M183.7,178.4c0.9-0.5,2.4-0.5,3.3,0l3.4,2.1c0.9,0.5,0.9,1.4,0,1.9l-47.5,27.1c-0.9,0.5-2.4,0.5-3.3,0
				l-3.4-2.1c-0.9-0.5-0.9-1.4,0-1.9L183.7,178.4z"/>
			<g>
				<path class="st19" d="M206.1,256.2c-0.3,0-0.7-0.2-0.9-0.5c-0.3-0.5-0.1-1.1,0.4-1.4l35-19.7c0.5-0.3,1.1-0.1,1.4,0.4
					c0.3,0.5,0.1,1.1-0.4,1.4l-35,19.7C206.5,256.2,206.3,256.2,206.1,256.2z M198.6,251.7c-0.3,0-0.7-0.2-0.9-0.5
					c-0.3-0.5-0.1-1.1,0.4-1.4l35-19.7c0.5-0.3,1.1-0.1,1.4,0.4c0.3,0.5,0.1,1.1-0.4,1.4l-35,19.7
					C199,251.6,198.8,251.7,198.6,251.7z M191.1,247.1c-0.3,0-0.7-0.2-0.9-0.5c-0.3-0.5-0.1-1.1,0.4-1.4l35-19.7
					c0.5-0.3,1.1-0.1,1.4,0.4c0.3,0.5,0.1,1.1-0.4,1.4l-35,19.7C191.5,247.1,191.3,247.1,191.1,247.1z M183.6,242.5
					c-0.3,0-0.7-0.2-0.9-0.5c-0.3-0.5-0.1-1.1,0.4-1.4l35-19.7c0.5-0.3,1.1-0.1,1.4,0.4c0.3,0.5,0.1,1.1-0.4,1.4l-35,19.7
					C184,242.5,183.8,242.5,183.6,242.5z M176.1,238c-0.3,0-0.7-0.2-0.9-0.5c-0.3-0.5-0.1-1.1,0.4-1.4l35-19.7
					c0.5-0.3,1.1-0.1,1.4,0.4c0.3,0.5,0.1,1.1-0.4,1.4l-35,19.7C176.5,237.9,176.3,238,176.1,238z M168.6,233.4
					c-0.3,0-0.7-0.2-0.9-0.5c-0.3-0.5-0.1-1.1,0.4-1.4l35-19.7c0.5-0.3,1.1-0.1,1.4,0.4c0.3,0.5,0.1,1.1-0.4,1.4l-35,19.7
					C169,233.4,168.8,233.4,168.6,233.4z M161.1,228.9c-0.3,0-0.7-0.2-0.9-0.5c-0.3-0.5-0.1-1.1,0.4-1.4l35-19.7
					c0.5-0.3,1.1-0.1,1.4,0.4c0.3,0.5,0.1,1.1-0.4,1.4l-35,19.7C161.5,228.8,161.3,228.9,161.1,228.9z M153.6,224.3
					c-0.3,0-0.7-0.2-0.9-0.5c-0.3-0.5-0.1-1.1,0.4-1.4l35-19.7c0.5-0.3,1.1-0.1,1.4,0.4c0.3,0.5,0.1,1.1-0.4,1.4l-35,19.7
					C154,224.2,153.8,224.3,153.6,224.3z M146.1,219.7c-0.3,0-0.7-0.2-0.9-0.5c-0.3-0.5-0.1-1.1,0.4-1.4l35-19.7
					c0.5-0.3,1.1-0.1,1.4,0.4c0.3,0.5,0.1,1.1-0.4,1.4l-35,19.7C146.5,219.7,146.3,219.7,146.1,219.7z"/>
			</g>
			<path class="st20" d="M202.5,185.3c0.3-0.2,0.9-0.2,1.3,0l16.7,10c0.3,0.2,0.3,0.5,0,0.7l-18.1,10.3c-0.3,0.2-0.9,0.2-1.3,0
				l-16.7-10c-0.3-0.2-0.3-0.5,0-0.7L202.5,185.3z"/>
			<path class="st20" d="M224.5,198.2c0.3-0.2,0.9-0.2,1.3,0l16.7,10c0.3,0.2,0.3,0.5,0,0.7l-18.1,10.3c-0.3,0.2-0.9,0.2-1.3,0
				l-16.7-10c-0.3-0.2-0.3-0.5,0-0.7L224.5,198.2z"/>
			<path class="st20" d="M246.5,211.1c0.3-0.2,0.9-0.2,1.3,0l16.7,10c0.3,0.2,0.3,0.5,0,0.7l-18.1,10.3c-0.3,0.2-0.9,0.2-1.3,0
				l-16.7-10c-0.3-0.2-0.3-0.5,0-0.7L246.5,211.1z"/>
			<g>
				<path class="st0" d="M192.8,195.3c-0.6-0.2-0.9-0.9-0.7-1.4c0.2-0.6,0.9-0.9,1.4-0.7l13,4.7l-2.4-22.3c-0.1-0.6,0.3-1.2,0.9-1.3
					c0.6-0.1,1.2,0.3,1.3,0.9l3.1,26.2L192.8,195.3C192.8,195.3,192.8,195.3,192.8,195.3z"/>
			</g>
		</g>
	</g>
	<g>
		<path class="st17" d="M228.1,172.4l15.9,9.3c2.7,1.6,2.7,5.5,0,7l-2.7,1.5c-2.6,1.5-5.8,1.5-8.4,0l-15.9-9.3c-2.7-1.6-2.7-5.5,0-7
			l2.7-1.5C222.3,170.9,225.5,170.9,228.1,172.4z"/>
		<g>
			<polygon class="st21" points="224.7,171.8 223.9,174.6 219.7,180.3 228.5,176.6 228.5,172.3 			"/>
			<path class="st22" d="M222.5,120.9l0.6,52.8c0,0,5.4,3.2,6.1-0.4l4.2-53.9L222.5,120.9z"/>
		</g>
		<g>
			<polygon class="st21" points="237.4,178.1 236.6,180.9 232.9,187.9 241.3,182.9 241.3,178.6 			"/>
			<path class="st0" d="M231.9,125.7l4.2,54.6c0,0,5.4,3.2,6.1-0.4l0.6-55.6L231.9,125.7z"/>
		</g>
		<path class="st23" d="M209.7,112c-0.4-1.5,2.2-5,0.5-4.8l9.2-0.3c0,0-0.4-3.9,1.3-9c1-3.1,3.1-4.9,4.4-5.7c0,0-1.2,1.5-0.5,9.3
			c0.4,4.8-1.5,10-1.3,11.5C223.5,115.7,209.7,112,209.7,112z"/>
		<path class="st24" d="M222.5,109.9c0.3-6.5-0.9-15.3,2.5-17.7c2.8-2.1,7.5-1.2,9.4-0.7c4.9,1.4,5,2.2,6.9,8.3
			c3.5,11.5,3,20.1,3.4,26c0.1,1.6-13.3,7.9-22.4-0.8C222.2,124.9,222.1,119.6,222.5,109.9z"/>
		<path class="st25" d="M234.1,92.5c0.1,1.4-4.9,2-4.5,0.8c0-1.5,0.1-3.1,0.1-4.6c0-0.5,0-1,0.3-1.5c0.9-1.7,2.8-1.9,3.1-0.7
			C233.5,88.4,234,90.5,234.1,92.5z"/>
		<path class="st25" d="M226.6,85.2c-0.7-1.4-1.1-3.1-0.8-4.7c0.4-1.6,1.6-3,3.2-3.3c1.7-0.3,3.4,0.8,4.3,2.2
			c0.9,1.5,1.8,2.8,1.7,4.6c-0.1,1.4-1.1,3.4-2,4.5C230.3,91.7,227.8,87.6,226.6,85.2z"/>
		<path class="st22" d="M230.1,82.6c0.1,0.6-0.3,1.2-0.8,1.4c-0.6,0.2-1.2,0-1.5-0.5c0,0.7-0.7,1.1-1.4,1.1c-0.7,0-1.2-0.5-1.5-1.1
			c-0.3-0.6-0.4-1.3-0.3-1.9c0-0.6,0.1-1.3,0.3-1.9c0.2-0.7,0.4-1.3,0.8-1.9c0.9-1.4,4.1-2.6,6-1.5c3.3-0.9,4.5,2.1,5,4.8
			c0.5,1.5-0.1,2.8-0.7,4.3c-0.6,1.7-1.6,2.6-2.4,2.6c-0.7,0,1.8-3.1,1.1-4.9c-0.4-0.9-1,1.4-1.3,1.3c0,0-0.6-2.1-0.7-2.2
			C231.9,82.7,231,83.7,230.1,82.6z"/>
		<g>
			<g>
				<g>
					<path class="st26" d="M203,167.3c-1.4,0.6-2.2,1.5-2.3,2.5c-0.1,1,5.9,18.7,5.9,18.7s7.3-16.2,7.4-17.2c0.1-1-0.4-2-1.6-2.9
						C210,166.6,205.8,166.1,203,167.3z"/>
				</g>
				<path class="st26" d="M213.7,80.4c-0.4,0.1-0.7,0.2-1.1,0.4c-0.3,0.1-0.5,0.2-0.7,0.4c-0.1,0-0.1,0.1-0.2,0.1
					c-0.1,0-0.1,0.1-0.2,0.1c-0.1,0-0.1,0.1-0.2,0.1c-0.1,0.1-0.2,0.2-0.3,0.3c0,0-0.1,0.1-0.1,0.1c0,0,0,0-0.1,0.1
					c0,0-0.1,0.1-0.1,0.1c0,0,0,0,0,0l0.6-4.9c0,0,0,0,0,0c0-0.1,0-0.2,0-0.3c0-0.1,0-0.2,0.1-0.3c0-0.1,0-0.1,0.1-0.2c0,0,0,0,0,0
					c0,0,0,0,0-0.1c0-0.1,0.1-0.2,0.1-0.2c0.1-0.1,0.1-0.2,0.2-0.3c0,0,0-0.1,0.1-0.1c0,0,0,0,0-0.1c0,0,0.1-0.1,0.1-0.1
					c0.1-0.1,0.2-0.2,0.3-0.3c0,0,0.1-0.1,0.2-0.1c0,0,0.1-0.1,0.1-0.1c0.1,0,0.1-0.1,0.2-0.1c0.2-0.1,0.4-0.2,0.7-0.3
					c0.3-0.1,0.7-0.2,1-0.3c0.1,0,0.2,0,0.4-0.1c0.2,0,0.4-0.1,0.5-0.1c0.1,0,0.2,0,0.3,0c0.1,0,0.1,0,0.2,0c0.1,0,0.2,0,0.3,0
					c0.2,0,0.4,0,0.6,0c0.1,0,0.1,0,0.2,0c0,0,0.1,0,0.1,0c0.1,0,0.1,0,0.2,0c0.2,0,0.3,0,0.5,0c0.2,0,0.3,0,0.5,0c0,0,0,0,0,0
					c0,0,0,0,0,0c0.1,0,0.3,0,0.4,0.1c0.1,0,0.3,0,0.4,0.1c0.1,0,0.3,0.1,0.4,0.1c0,0,0,0,0,0c0,0,0,0,0,0c0.1,0,0.3,0.1,0.4,0.1
					c0.2,0,0.3,0.1,0.5,0.1c0.1,0,0.1,0.1,0.2,0.1c0,0,0.1,0,0.1,0c0.1,0,0.1,0,0.2,0.1c0.2,0.1,0.3,0.1,0.5,0.2
					c0.1,0,0.2,0.1,0.3,0.1c0.1,0,0.1,0.1,0.2,0.1c0,0,0.1,0,0.1,0.1c0.3,0.2,0.5,0.3,0.8,0.5c1.2,0.9,1.7,1.9,1.6,2.9l-0.5,4.8
					c-0.3-0.5-0.7-1.1-1.4-1.5c-0.3-0.2-0.5-0.4-0.8-0.5c-0.1,0-0.1-0.1-0.2-0.1c-0.1,0-0.1-0.1-0.2-0.1c0,0-1.7,1.4-4.3,1
					C214.6,81.9,213.7,80.4,213.7,80.4z"/>
				<path class="st0" d="M223.2,80.2c0.2-0.2,0.4-0.3,0.6-0.5c0,0,0,0,0-0.1c0.2-0.2,0.3-0.4,0.4-0.6c0,0,0,0,0,0
					c0.1-0.2,0.2-0.5,0.2-0.7L214,170.8c0,0,0,0,0,0c0,0.1,0,0.2,0,0.3c0,0.1,0,0.2-0.1,0.3c0,0.1,0,0.1-0.1,0.2c0,0,0,0,0,0
					c0,0,0,0,0,0.1c0,0.1-0.1,0.2-0.1,0.2c-0.1,0.1-0.1,0.2-0.2,0.3c0,0,0,0.1-0.1,0.1c0,0,0,0,0,0.1c0,0-0.1,0.1-0.1,0.1
					c-0.1,0.1-0.2,0.2-0.3,0.3c0,0-0.1,0.1-0.2,0.1c0,0-0.1,0.1-0.1,0.1c-0.1,0-0.1,0.1-0.2,0.1c-0.2,0.1-0.4,0.2-0.7,0.3
					c-0.3,0.1-0.7,0.2-1,0.3c-0.1,0-0.2,0-0.4,0.1c-0.2,0-0.4,0.1-0.5,0.1c-0.1,0-0.2,0-0.3,0c-0.1,0-0.1,0-0.2,0
					c-0.1,0-0.2,0-0.3,0c-0.2,0-0.4,0-0.6,0c-0.1,0-0.1,0-0.2,0c0,0-0.1,0-0.1,0c-0.1,0-0.1,0-0.2,0c-0.2,0-0.3,0-0.5,0
					c-0.2,0-0.3,0-0.5,0c0,0,0,0,0,0c0,0,0,0,0,0c-0.1,0-0.3,0-0.4-0.1c-0.1,0-0.3,0-0.4-0.1c-0.1,0-0.3-0.1-0.4-0.1c0,0,0,0,0,0
					c0,0,0,0,0,0c-0.1,0-0.3-0.1-0.4-0.1c-0.2,0-0.3-0.1-0.5-0.1c-0.1,0-0.1-0.1-0.2-0.1c0,0-0.1,0-0.1,0c-0.1,0-0.1,0-0.2-0.1
					c-0.2-0.1-0.3-0.1-0.5-0.2c-0.1,0-0.2-0.1-0.3-0.1c-0.1,0-0.1-0.1-0.2-0.1c0,0-0.1,0-0.1-0.1c-0.3-0.2-0.5-0.3-0.8-0.5
					c-1.2-0.9-1.7-1.9-1.6-2.9l10.5-92.5c-0.1,1,0.4,2,1.6,2.9c0.3,0.2,0.6,0.4,0.9,0.6c0.1,0,0.1,0.1,0.2,0.1
					c0.3,0.2,0.6,0.3,1,0.4c0,0,0.1,0,0.1,0c0.4,0.1,0.7,0.2,1.1,0.3c0,0,0,0,0,0c0.4,0.1,0.8,0.2,1.2,0.2c0,0,0,0,0,0
					c0.4,0,0.8,0.1,1.2,0.1c0,0,0.1,0,0.1,0c0.4,0,0.7,0,1.1-0.1c0.1,0,0.2,0,0.2,0c0.3,0,0.5-0.1,0.8-0.1c0.1,0,0.2,0,0.4-0.1
					c0.4-0.1,0.7-0.2,1-0.3c0.3-0.1,0.6-0.3,0.8-0.5C223.1,80.3,223.2,80.3,223.2,80.2z"/>
				<path class="st0" d="M204.2,181.2c1.3,3.9,2.4,7.2,2.4,7.2s1.3-2.9,2.8-6.4C208.3,183.5,204.8,183.1,204.2,181.2z"/>
			</g>
		</g>
		<path class="st25" d="M217,120.7c-2-0.1-6.1,1.3-6,2.1c0.2,0.8,1.6,2.9,7,0C223.4,119.9,217,120.7,217,120.7z"/>
		<path class="st23" d="M238.3,93.1c9,2,2.1,21.5,0.9,25.5c-1.2,4-24.3,5.5-24.3,5.5c0.3-0.9,0.3-3-0.7-3l20-6.2c0,0,1.5-9,1.7-11.9
			C236,101,235.5,92.5,238.3,93.1z"/>
	</g>
	<g>
		<path class="st17" d="M292,212.5l15.9,9.3c2.7,1.6,2.7,5.5,0,7l-2.7,1.5c-2.6,1.5-5.8,1.5-8.4,0l-15.9-9.3c-2.7-1.6-2.7-5.5,0-7
			l2.7-1.5C286.2,211,289.4,211,292,212.5z"/>
		<path class="st22" d="M284.5,105.6c-0.8,1.8-0.6,3.9-0.1,5.8c0.5,1.9,1.2,3.8,1.5,5.7c1.1,7.9-5,15-6.2,22.8
			c-1.2,7.7,2.9,15.9,9.5,20.1c6.6,4.2,15.4,4.5,22.5,1.3c5.2-2.3,9.6-6.5,11.7-11.8c2.1-5.3,1.6-11.7-1.6-16.3
			c-3.2-4.5-8.5-7-13.4-9.7c-4.9-2.7-9.9-6.2-11.5-11.5c-0.5-1.6-0.6-3.3-1-5c-0.4-1.6-1-3.3-2.4-4.4
			C290.9,100.5,285.7,102.7,284.5,105.6z"/>
		<polygon class="st21" points="291.4,212 290.9,215.2 285.7,223.6 295.6,218.8 295.9,212.3 		"/>
		<path class="st22" d="M291,215.6c1.8,1,5.5,0.4,5.2-3.1c0,0,6.9-63.1-1.8-67.2c-4.6-2.2-7.1-0.4-10.5,5.7
			C281.4,155.8,291,215.6,291,215.6z"/>
		<polygon class="st21" points="297.4,214.4 297,217.6 291.8,226 301.7,221.2 302,214.7 		"/>
		<path class="st0" d="M297.1,216.6c1.8,1,5.5,0.4,5.2-3.1c0,0,6.9-63.1-1.8-67.2c-4.6-2.2-7.1-0.4-10.5,5.7
			C287.5,156.8,297.1,216.6,297.1,216.6z"/>
		<path class="st5" d="M286.7,124.5c1.7-2.9,1.3-4.5,1.2-6.8c-3.3,0.6-10.7,11.2-10.7,11.2s-5.7-5.3-10-11.8l-0.5,5.5
			c3.1,5.7,6,12.4,10,12.4S283.6,129.6,286.7,124.5z"/>
		<g>
			<g>
				<g>
					<path class="st24" d="M273,129.8l-0.3-0.1c-0.9-0.4-1.4-1.5-1-2.4l5.8-13.6c0.2-0.6,0.9-0.8,1.5-0.6l1.7,0.7
						c0.6,0.2,0.8,0.9,0.6,1.5l-5.8,13.6C275,129.8,273.9,130.2,273,129.8z"/>
					<path class="st24" d="M279.8,108.6L279.8,108.6l-3.7-0.4c1.5,2.1,1.6,5.5,1.6,7.8c0,1.4-0.2,2.7-0.4,4l3.8-1.5
						C284.2,116.8,283.8,109.6,279.8,108.6z"/>
					<path class="st27" d="M277.4,109.8c-0.2-0.1-0.2-0.3-0.2-0.5c0-0.3,0.3-0.4,0.5-0.4l2.4,0.3c0.3,0,0.4,0.3,0.4,0.5
						c0,0.3-0.3,0.4-0.5,0.4l-2.4-0.3C277.5,109.8,277.5,109.8,277.4,109.8z M278.3,112.6l3.4-0.1c0.3,0,0.5-0.2,0.4-0.5
						c0-0.3-0.2-0.5-0.5-0.4l-3.4,0.1c-0.3,0-0.5,0.2-0.4,0.5c0,0.2,0.1,0.3,0.3,0.4C278.1,112.6,278.2,112.6,278.3,112.6z
						 M279.3,115.8l2.6-0.5c0.3,0,0.4-0.3,0.4-0.5c0-0.3-0.3-0.4-0.5-0.4l-2.6,0.5c-0.3,0-0.4,0.3-0.4,0.5c0,0.2,0.1,0.3,0.3,0.3
						C279.1,115.8,279.2,115.8,279.3,115.8z M279.1,118.7l2-0.6c0.2-0.1,0.4-0.3,0.3-0.6c-0.1-0.2-0.3-0.4-0.6-0.3l-2,0.6
						c-0.2,0.1-0.4,0.3-0.3,0.6c0,0.1,0.1,0.2,0.3,0.3C278.9,118.8,279,118.8,279.1,118.7z"/>
					<path class="st2" d="M279.8,118.3c1.1-2.7,0.6-6.7-1.1-9c-0.8-1-1.7-1.4-2.6-1.6c-4.9-1.1-16.8-3.6-16.8-3.6l3.1,24
						c0,0,10.3-5.2,15-7.6C278.3,120,279.2,119.6,279.8,118.3z"/>
					<path class="st24" d="M266.3,125.4c-2.8,5.2-7.6,5.4-10.7,0.4c-3.1-5-3.4-13.4-0.6-18.6c2.8-5.2,7.6-5.4,10.7-0.4
						C268.8,111.9,269.1,120.2,266.3,125.4z"/>
					<path class="st23" d="M265,125.4c-2.8,5.2-7.6,5.4-10.7,0.4c-3.1-5-3.4-13.4-0.6-18.6c2.8-5.2,7.6-5.4,10.7-0.4
						C267.5,111.9,267.8,120.2,265,125.4z"/>
					<path class="st24" d="M264.4,124.4c-0.8,1.5-1.8,2.5-2.8,3.1c-2.3,1.2-4.9,0.3-6.8-2.7c-2.8-4.5-3-11.9-0.6-16.5
						c1.5-2.8,3.6-4,5.7-3.5c1.4,0.3,2.8,1.4,3.9,3.2C266.7,112.3,266.9,119.8,264.4,124.4z"/>
					<path class="st22" d="M264.4,124.4c-0.8,1.5-1.8,2.5-2.8,3.1c-1.8,0.3-3.8-0.7-5.3-3.1c-2.7-4.4-3-11.6-0.5-16.2
						c1.1-2.1,2.6-3.3,4.2-3.5c1.4,0.3,2.8,1.4,3.9,3.2C266.7,112.3,266.9,119.8,264.4,124.4z"/>
					<path class="st24" d="M259.1,112l0.2,8.6l6.4,0.1c0.6-3.1,0.5-6.6-0.4-9.6L259.1,112z"/>
					<path class="st23" d="M261.2,119.3c-0.9,1.7-2.5,1.8-3.5,0.1c-1-1.6-1.1-4.4-0.2-6.1c0.9-1.7,2.5-1.8,3.5-0.1
						C262,114.9,262.1,117.6,261.2,119.3z"/>
				</g>
			</g>
		</g>
		<path class="st28" d="M281.4,160.5c6,1.7,18.2,2.4,24.1,0.4c-0.7-7.5-3.5-40.6-13-43.7c-5.9-2-7.8,2.9-8.2,9.6
			C283.4,140.4,283,155.1,281.4,160.5z"/>
		<path class="st25" d="M275,127.1c-0.5-0.6-1.2-1.2-1.9-1.3c-0.8-0.1-1.7,0.3-1.9,1.1c-0.2,0.6,0,1.2,0.3,1.7
			c0.3,0.5,0.9,1,1.5,1.2c0.6,0.2,1.4,0.1,1.8-0.4c0.5-0.5,0.6-1.3,0.2-1.8"/>
		<path class="st5" d="M295.6,119.4c-1.9-2.3-3.8-0.6-4.1,5.9c-0.2,3.6-1.5,5.8-1.5,5.8s-10.3-3.2-15.4-4.7l-1.4,3.6
			c8.1,4.2,13.7,8.2,17.9,6.7C297.8,134.4,300,124.9,295.6,119.4z"/>
		<path class="st25" d="M287.9,117.7c0,0.6,3.4,0,3.4-0.7c0-0.6-0.5-2.1-0.9-3.2c-0.3-0.8-1.3-1.4-2-0.6
			C287.9,113.7,287.9,117.2,287.9,117.7z"/>
		<path class="st25" d="M285.5,113.1c1,1.4,3.2,1.8,4.8,1c1.6-0.8,2.4-2.7,2.3-4.5c-0.2-1.8-1.3-3.4-2.8-4.3
			C284.6,102,283.3,110,285.5,113.1z"/>
		<path class="st22" d="M284.4,108.4c0.8,0.4,1.7,0.5,2.6,0.6c1.1,0.2,2.2,0.3,3.3,0.5c0.9,0.1,1.2,3,1.3,2.1
			c0.2-1.9,3.2-0.9,1.8-4.4c-0.3-0.6-0.6-1.2-1-1.7c-1.8-1.9-5.2-3-7.8-2.1C282.1,104.3,281.9,107.3,284.4,108.4z"/>
	</g>
	<g>
		<polygon class="st29" points="329.1,216 341.2,223 341.2,223 353.3,216.1 341.1,209 341.1,209 		"/>
		<polygon class="st30" points="344.3,225.2 356.4,232.2 368.5,225.3 356.3,218.2 356.3,218.2 		"/>
		<polygon class="st30" points="359.8,234 371.9,241 384.1,234.1 371.9,227 371.9,227 		"/>
		<g>
			<polygon class="st31" points="331,216.1 340.3,221.5 349.6,216.2 349.6,156.7 331,156.6 			"/>
			<polygon class="st26" points="331,156.6 340.3,162 349.6,156.7 340.2,151.2 			"/>
			<polygon class="st32" points="340.3,221.5 340.3,162 349.6,156.7 349.6,216.2 			"/>
		</g>
		<g>
			<polygon class="st31" points="346.7,225.3 356,230.7 365.3,225.4 365.3,174.1 346.7,174.1 			"/>
			<polygon class="st26" points="346.7,174.1 356,179.5 365.3,174.1 356,168.7 			"/>
			<polygon class="st33" points="356,230.7 356,179.5 365.3,174.1 365.3,225.4 			"/>
		</g>
		<g>
			<polygon class="st31" points="362.4,234.5 371.7,239.9 381.1,234.6 381.1,195 362.4,194.9 			"/>
			<polygon class="st26" points="362.4,194.9 371.7,200.3 381.1,195 371.7,189.5 			"/>
			<polygon class="st33" points="371.7,239.9 371.7,200.3 381.1,195 381.1,234.6 			"/>
		</g>
	</g>
	<g>
		<g>
			<path class="st30" d="M316.6,242.2c-21.7,0-39.2,9.6-39.2,21.3c0,11.8,17.6,21.3,39.2,21.3c21.7,0,39.2-9.6,39.2-21.3
				C355.8,251.8,338.2,242.2,316.6,242.2z M316.6,276.4c-15.6,0-28.3-5.8-28.3-12.9c0-7.1,12.7-12.9,28.3-12.9
				c15.6,0,28.3,5.8,28.3,12.9C344.9,270.7,332.2,276.4,316.6,276.4z"/>
			<path class="st31" d="M355,248.5c0,0-5.8-14.4-38.4-14.4s-38.4,21.1-38.4,21.1v7.2c0,11.5,17.2,20.9,38.4,20.9
				c21.2,0,38.4-9.4,38.4-20.9V248.5z M316.6,275c-15.3,0-27.7-5.6-27.7-12.6c0-7,12.4-12.6,27.7-12.6c15.3,0,27.7,5.6,27.7,12.6
				C344.3,269.4,331.9,275,316.6,275z"/>
			<path class="st26" d="M316.6,227.6c-21.2,0-38.4,9.4-38.4,20.9c0,11.5,17.2,20.9,38.4,20.9c21.2,0,38.4-9.4,38.4-20.9
				C355,236.9,337.8,227.6,316.6,227.6z M316.6,261.1c-15.3,0-27.7-5.6-27.7-12.6c0-7,12.4-12.6,27.7-12.6
				c15.3,0,27.7,5.6,27.7,12.6C344.3,255.4,331.9,261.1,316.6,261.1z"/>
		</g>
		<g>
			<path class="st28" d="M339.8,261.1c-5,3.4-13.5,5.7-23.2,5.7c-0.2,0-0.5,0-0.7,0v16.5c0.2,0,0.5,0,0.7,0
				c14.4,0,26.9-4.3,33.5-10.7c0-2.7,0-14,0-14S340.9,261.4,339.8,261.1z"/>
		</g>
		<g>
			<path class="st5" d="M339.8,255.3c-5,3.4-13.5,5.7-23.2,5.7c-0.2,0-0.5,0-0.7,0v8.3c0.2,0,0.5,0,0.7,0c14.4,0,26.9-4.3,33.5-10.7
				c-2.3-0.8-4.7-1.5-7-2.3C342,256,340.9,255.7,339.8,255.3z"/>
		</g>
		<g>
			<path class="st24" d="M316,269.2c-13.4,0.5-27.8-7.1-27.2-14.5c-3.6,0-10.7-5.7-10.7-5.7v13.4c0,11.4,16.9,20.7,37.9,20.9V269.2z
				"/>
			<path class="st23" d="M316,261c-14.7-0.1-26.5-5.4-27.2-12h-10.7c0.5,11.2,17.2,20.2,37.9,20.4V261z"/>
		</g>
	</g>
	<g>
		<g>
			<ellipse class="st30" cx="106.6" cy="227.2" rx="12.3" ry="6.5"/>
			<path class="st1" d="M92.7,209l2.7,16.4c0.2,3.8,5.2,6.8,11,6.8c5.8,0,10.8-3,11-6.8l2.7-16.4H92.7z"/>
			<path class="st15" d="M92.7,205.9v4.2c0,4.5,6.1,8.2,13.7,8.2c7.6,0,13.7-3.7,13.7-8.2v-4.2H92.7z"/>
			<ellipse class="st34" cx="106.5" cy="205.9" rx="13.7" ry="8.2"/>
			<g>
				<path class="st2" d="M106.5,212.7c-7.5,0-12.7-3.6-12.7-6.8c0-3.2,5.2-6.8,12.7-6.8c7.5,0,12.7,3.6,12.7,6.8
					C119.1,209.1,113.9,212.7,106.5,212.7z"/>
				<path class="st1" d="M106.5,212.7c-7.5,0-12.7-3.6-12.7-6.8c0-3.2,5.2-6.8,12.7-6.8c7.5,0,12.7,3.6,12.7,6.8
					C119.1,209.1,113.9,212.7,106.5,212.7z"/>
			</g>
			<path class="st35" d="M106.5,203.8c-5.7,0-10.1,2.1-11.8,4.5c1.8,2.4,6.1,4.5,11.8,4.5c5.7,0,10.1-2.1,11.8-4.5
				C116.5,205.8,112.1,203.8,106.5,203.8z"/>
		</g>
		<path class="st24" d="M101.1,192.9c0.2-1.4,0.4-2.9,1-4.2c0.7-1.3,1.9-2.4,3.3-2.5c1.5-0.2,3,0.8,4,2c0.9,1.3,1.3,2.8,1.6,4.3
			c0.9,3.9,1.3,8,1.3,12c0,1.5-0.1,3-0.9,4.2c-1,1.5-2.9,2.2-4.7,2.2c-1.3,0-4.2-0.2-5.2-1.2c-0.9-1-0.7-3.6-0.7-4.9
			C100.6,200.9,100.7,196.8,101.1,192.9z"/>
		<path class="st24" d="M97.2,197.4c-1-2-1.2-4.3-0.7-6.4c0.2-0.7,0.6-1.4,1.3-1.4c0.6,0,1,0.6,1,1.2c0,0.6-0.2,1.1-0.2,1.7
			c-0.2,1.5,0.6,3,1.9,3.7c0.7,0.4,1.4,0.6,2,1c0.7,0.6,1.1,1.5,1,2.4C102.9,204.1,98.1,199.1,97.2,197.4z"/>
		<path class="st24" d="M114.1,199.3c1.4-1.3,2.3-3,2.5-4.8c0.1-0.7,0.1-1.5-0.5-2c-0.6-0.5-1.6-0.3-2.1,0.2
			c-0.6,0.5-0.8,1.3-0.9,2.1c-0.1,0.8-0.1,1.6-0.4,2.3c-0.3,0.7-0.8,1.4-1.6,1.6c-0.9,0.2-1.8-0.3-2.5,0.2c-1.4,1-0.1,2.5,1.1,2.5
			C111.2,201.4,113,200.3,114.1,199.3z"/>
	</g>
	<g>
		<defs>
			<path id="SVGID_7_" d="M62.3,152.2l-22.4,13c-0.8,0.5-1.8-0.1-1.8-1v-19.8c0-0.4,0.2-0.8,0.6-1l22.4-13c0.8-0.5,1.8,0.1,1.8,1
				v19.8C62.9,151.6,62.7,152,62.3,152.2z"/>
		</defs>
		<clipPath id="SVGID_2_">
			<use xlink:href="#SVGID_7_"  style="overflow:visible;"/>
		</clipPath>
		<polygon class="st36" points="62.9,151.9 38.1,166.2 38.1,143.7 62.9,129.3 		"/>
		<polygon class="st37" points="62.9,151.9 38.1,166.2 51.2,146.1 		"/>
		<path class="st36" d="M50.1,147.8l-11.9-4.1l24.8-14.3L52.3,147C51.8,147.7,50.9,148.1,50.1,147.8z"/>
	</g>
	<g>
		<ellipse class="st30" cx="69.1" cy="254.2" rx="12.3" ry="6.5"/>
		<g>
			<path class="st28" d="M83.9,183.3c-1.6-6.5-8.5-11.9-8.5-11.9s-2.1,0-2.9,0c-3.7,0.1-7.8,1.5-11.7,5.4
				c-9.5,9.2-14.5,27.1-11.3,40c0.6,2.2,1.3,4.1,2.3,5.7l0,0L65,248.7c0.6,1.1,1.4,2,2.5,2.5l3,1.6L82.3,207l0,0
				C85,199.1,85.7,190.5,83.9,183.3z M63.9,188.8c4.6-4.5,9.6-3.1,11.2,3.2c1.6,6.2-0.9,14.9-5.5,19.4c-4.6,4.5-9.6,3.1-11.2-3.2
				C56.8,202,59.3,193.3,63.9,188.8z"/>
			<path class="st5" d="M88,183.3c-3.2-12.8-14-15.6-23.3-6.3c-9.3,9.3-14.3,27-11,39.7c0.6,2.2,1.3,4.1,2.3,5.7l0,0l14,29.8
				c0.5,1,1.9,0.9,2.2-0.1L86.4,207l0,0C89.1,199.1,89.8,190.5,88,183.3z M65.4,192.1c6-9.4,14.1-7.1,14.3,4c0.1,4.2-1.1,8.4-3.4,12
				c-6,9.4-14.1,7.1-14.3-4C61.9,199.8,63.1,195.6,65.4,192.1z"/>
		</g>
	</g>
</g>
</svg>
