<?xml version="1.0" encoding="utf-8"?>
<!-- Generator: Adobe Illustrator 21.0.2, SVG Export Plug-In . SVG Version: 6.00 Build 0)  -->
<svg version="1.1" id="svg2" xmlns="http://www.w3.org/2000/svg" xmlns:xlink="http://www.w3.org/1999/xlink" x="0px" y="0px"
	 viewBox="0 0 580 580" style="enable-background:new 0 0 580 580;" xml:space="preserve">
<style type="text/css">
	.st0{fill:#00749A;}
</style>
<g>
	<g>
		<path class="st0" d="M41.2,290c0,98.5,57.2,183.6,140.2,223.9L62.8,188.7C49,219.7,41.2,253.9,41.2,290z"/>
		<path class="st0" d="M458,277.4c0-30.7-11-52-20.5-68.6C424.8,188.3,413,171,413,150.5c0-22.9,17.3-44.2,41.8-44.2
			c1.1,0,2.1,0.1,3.2,0.2C413.7,66,354.8,41.2,290,41.2c-86.9,0-163.4,44.6-207.9,112.1c5.8,0.2,11.3,0.3,16,0.3
			c26,0,66.3-3.2,66.3-3.2c13.4-0.8,15,18.9,1.6,20.5c0,0-13.5,1.6-28.5,2.4l90.6,269.5l54.4-163.3l-38.8-106.2
			c-13.4-0.8-26.1-2.4-26.1-2.4c-13.4-0.8-11.8-21.3,1.6-20.5c0,0,41.1,3.2,65.5,3.2c26,0,66.3-3.2,66.3-3.2
			c13.4-0.8,15,18.9,1.6,20.5c0,0-13.5,1.6-28.5,2.4l89.9,267.4l24.8-82.9C449.8,323.5,458,298.7,458,277.4z"/>
		<path class="st0" d="M294.4,311.8l-74.6,216.9c22.3,6.6,45.9,10.1,70.3,10.1c29,0,56.8-5,82.6-14.1c-0.7-1.1-1.3-2.2-1.8-3.4
			L294.4,311.8z"/>
		<path class="st0" d="M508.3,170.6c1.1,7.9,1.7,16.4,1.7,25.6c0,25.2-4.7,53.6-18.9,89.1l-76,219.7c74-43.1,123.7-123.3,123.7-215
			C538.8,246.7,527.7,206.1,508.3,170.6z"/>
		<path class="st0" d="M290,0C130.1,0,0,130.1,0,290c0,159.9,130.1,290,290,290c159.9,0,290-130.1,290-290C580,130.1,449.9,0,290,0z
			 M290,566.7C137.4,566.7,13.3,442.6,13.3,290C13.3,137.4,137.4,13.3,290,13.3c152.6,0,276.7,124.1,276.7,276.7
			C566.7,442.6,442.6,566.7,290,566.7z"/>
	</g>
</g>
</svg>
