<?xml version="1.0" encoding="utf-8"?>
<!-- Generator: Adobe Illustrator 21.0.2, SVG Export Plug-In . SVG Version: 6.00 Build 0)  -->
<svg version="1.1" id="Layer_1" xmlns="http://www.w3.org/2000/svg" xmlns:xlink="http://www.w3.org/1999/xlink" x="0px" y="0px"
	 viewBox="0.8 0.3 254.3 269.4" style="enable-background:new 0.8 0.3 254.3 269.4;" xml:space="preserve">
<style type="text/css">
	.st0{fill:#B3B3B3;}
	.st1{fill:#A6120D;}
	.st2{fill:#DD1B16;}
	.st3{fill:#F2F2F2;}
</style>
<g transform="translate(0.000000, -1.000000)">
	<path class="st0" d="M127.6,1.3L0.8,45.9l20,166.1l106.9,58.7l107.4-59.5l20-166.1L127.6,1.3z"/>
	<path class="st1" d="M242.5,54.8L127.3,15.5v241.3l96.6-53.4L242.5,54.8z"/>
	<path class="st2" d="M15.1,55.5L32.2,204l95.1,52.7V15.5L15.1,55.5z"/>
	<path class="st3" d="M159,143.9l-31.7,14.8H93.9L78.2,198l-29.2,0.5l78.4-174.3L159,143.9L159,143.9z M156,136.4l-28.4-56.3
		l-23.3,55.3h23.1L156,136.4L156,136.4z"/>
	<path class="st0" d="M127.3,24.2l0.2,55.9l26.5,55.4h-26.6l-0.1,23.2l36.8,0l17.2,39.9l28,0.5L127.3,24.2z"/>
</g>
</svg>
