<?xml version="1.0" encoding="utf-8"?>
<!-- Generator: Adobe Illustrator 21.0.2, SVG Export Plug-In . SVG Version: 6.00 Build 0)  -->
<svg version="1.1" id="Isolation_Mode" xmlns="http://www.w3.org/2000/svg" xmlns:xlink="http://www.w3.org/1999/xlink" x="0px"
	 y="0px" viewBox="0 0 376.9 310.7" style="enable-background:new 0 0 376.9 310.7;" xml:space="preserve">
<style type="text/css">
	.st0{opacity:0.5;fill:#BBB8F6;}
	.st1{fill:#9796F7;}
	.st2{fill:#D9DFF6;}
	.st3{fill:#B4B9F6;}
	.st4{fill:#F7F7F7;}
	.st5{opacity:0.47;}
	.st6{opacity:0.5;}
	.st7{fill:#FFFFFF;}
	.st8{fill:#FFFAFF;}
	.st9{clip-path:url(#SVGID_1_);fill:#D1D3FF;}
	.st10{clip-path:url(#SVGID_1_);fill:#D9DFF6;}
	.st11{opacity:0.5;fill:#9997E9;}
	.st12{fill:#8184EB;}
	.st13{fill:#D9DFF7;}
	.st14{fill:#BBB8F6;}
	.st15{opacity:0.41;fill:#6782EA;}
	.st16{enable-background:new    ;}
	.st17{fill:#9391EA;}
	.st18{opacity:0.3;fill:#6642CC;}
	.st19{fill:#130159;}
	.st20{fill:#5601F3;}
	.st21{fill:#F4C5A2;}
	.st22{fill:#00CDC4;}
	.st23{fill:#681EF7;}
	.st24{fill:#FED4BD;}
	.st25{fill:#3D00BD;}
	.st26{fill:#01E4D0;}
	.st27{fill:#8285DF;}
	.st28{fill:#B3B8F6;}
	.st29{fill:#F6BF03;}
	.st30{fill:#F6DD03;}
	.st31{fill:#7676E5;}
	.st32{fill:#F70083;}
	.st33{fill:#827FDE;}
	.st34{fill:#DFE3FF;}
	.st35{fill:#F1539A;}
	.st36{fill:#603EFF;}
</style>
<g>
	<g>
		<g>
			<path class="st0" d="M180.1,145.5c1.6-0.9,4.1-0.9,5.6,0l106,61.7c1.6,0.9,1.5,2.4,0,3.3l-47.2,27.4c-1.6,0.9-4.1,0.9-5.6,0
				l-106-61.7c-1.6-0.9-1.5-2.4,0-3.3L180.1,145.5z"/>
			<g>
				<path class="st1" d="M292.2,205l-3.2-2v0.7L184.5,143c-1.5-0.9-4-0.9-5.5,0l-44.6,25.8v-0.4l-3.2,1.8v1.4h0
					c0,0.6,0.4,1.1,1.1,1.6l106.6,61.9c1.5,0.9,4,0.9,5.5,0l46.6-27c1.2-0.7,1.1-1.2,1.1-1.9C292.2,205.9,292.2,205,292.2,205z"/>
				<path class="st2" d="M179,141.6c1.5-0.9,4-0.9,5.5,0l106.6,61.9c1.5,0.9,1.5,2.3,0,3.2l-46.6,27c-1.5,0.9-4,0.9-5.5,0
					l-106.6-61.9c-1.5-0.9-1.5-2.3,0-3.2L179,141.6z"/>
				<path class="st3" d="M178.9,145.8c0.4-0.2,1-0.2,1.4,0l4.9,2.8c0.4,0.2,0.4,0.6,0,0.8l-3.8,2.2c-0.4,0.2-1,0.2-1.4,0l-4.9-2.8
					c-0.4-0.2-0.4-0.6,0-0.8L178.9,145.8z M182,151.9c-0.4,0.2-0.4,0.6,0,0.8l4.9,2.8c0.4,0.2,1,0.2,1.4,0l3.8-2.2
					c0.4-0.2,0.4-0.6,0-0.8l-4.9-2.8c-0.4-0.2-1-0.2-1.4,0L182,151.9z M189,156c-0.4,0.2-0.4,0.6,0,0.8l4.9,2.8c0.4,0.2,1,0.2,1.4,0
					l3.8-2.2c0.4-0.2,0.4-0.6,0-0.8l-4.9-2.8c-0.4-0.2-1-0.2-1.4,0L189,156z M196,160.1c-0.4,0.2-0.4,0.6,0,0.8l4.9,2.8
					c0.4,0.2,1,0.2,1.4,0l3.8-2.2c0.4-0.2,0.4-0.6,0-0.8l-4.9-2.8c-0.4-0.2-1-0.2-1.4,0L196,160.1z M203,164.1
					c-0.4,0.2-0.4,0.6,0,0.8l4.9,2.8c0.4,0.2,1,0.2,1.4,0l3.8-2.2c0.4-0.2,0.4-0.6,0-0.8l-4.9-2.8c-0.4-0.2-1-0.2-1.4,0L203,164.1z
					 M210,168.2c-0.4,0.2-0.4,0.6,0,0.8l4.9,2.8c0.4,0.2,1,0.2,1.4,0l3.8-2.2c0.4-0.2,0.4-0.6,0-0.8l-4.9-2.8c-0.4-0.2-1-0.2-1.4,0
					L210,168.2z M217,172.3c-0.4,0.2-0.4,0.6,0,0.8l4.9,2.8c0.4,0.2,1,0.2,1.4,0l3.8-2.2c0.4-0.2,0.4-0.6,0-0.8l-4.9-2.8
					c-0.4-0.2-1-0.2-1.4,0L217,172.3z M224,176.3c-0.4,0.2-0.4,0.6,0,0.8l4.9,2.8c0.4,0.2,1,0.2,1.4,0l3.8-2.2
					c0.4-0.2,0.4-0.6,0-0.8l-4.9-2.8c-0.4-0.2-1-0.2-1.4,0L224,176.3z M231,180.4c-0.4,0.2-0.4,0.6,0,0.8l4.9,2.8
					c0.4,0.2,1,0.2,1.4,0l3.8-2.2c0.4-0.2,0.4-0.6,0-0.8l-4.9-2.8c-0.4-0.2-1-0.2-1.4,0L231,180.4z M238,184.5
					c-0.4,0.2-0.4,0.6,0,0.8l4.9,2.8c0.4,0.2,1,0.2,1.4,0l3.8-2.2c0.4-0.2,0.4-0.6,0-0.8l-4.9-2.8c-0.4-0.2-1-0.2-1.4,0L238,184.5z
					 M245,188.5c-0.4,0.2-0.4,0.6,0,0.8l4.9,2.8c0.4,0.2,1,0.2,1.4,0l3.8-2.2c0.4-0.2,0.4-0.6,0-0.8l-4.9-2.8c-0.4-0.2-1-0.2-1.4,0
					L245,188.5z M252,192.6c-0.4,0.2-0.4,0.6,0,0.8l4.9,2.8c0.4,0.2,1,0.2,1.4,0l3.8-2.2c0.4-0.2,0.4-0.6,0-0.8l-4.9-2.8
					c-0.4-0.2-1-0.2-1.4,0L252,192.6z M258.9,196.6c-0.4,0.2-0.4,0.6,0,0.8l4.9,2.8c0.4,0.2,1,0.2,1.4,0l3.8-2.2
					c0.4-0.2,0.4-0.6,0-0.8l-4.9-2.8c-0.4-0.2-1-0.2-1.4,0L258.9,196.6z M265.9,200.7c-0.4,0.2-0.4,0.6,0,0.8l4.9,2.8
					c0.4,0.2,1,0.2,1.4,0l3.8-2.2c0.4-0.2,0.4-0.6,0-0.8l-4.9-2.8c-0.4-0.2-1-0.2-1.4,0L265.9,200.7z M272.9,204.8
					c-0.4,0.2-0.4,0.6,0,0.8l4.9,2.8c0.4,0.2,1,0.2,1.4,0l3.8-2.2c0.4-0.2,0.4-0.6,0-0.8l-4.9-2.8c-0.4-0.2-1-0.2-1.4,0L272.9,204.8
					z M169.4,151.3c-0.4,0.2-0.4,0.6,0,0.8l16.5,9.6c0.4,0.2,1,0.2,1.4,0l3.8-2.2c0.4-0.2,0.4-0.6,0-0.8l-16.5-9.6
					c-0.4-0.2-1-0.2-1.4,0L169.4,151.3z M188,162.1c-0.4,0.2-0.4,0.6,0,0.8l4.9,2.8c0.4,0.2,1,0.2,1.4,0l3.8-2.2
					c0.4-0.2,0.4-0.6,0-0.8l-4.9-2.8c-0.4-0.2-1-0.2-1.4,0L188,162.1z M195,166.1c-0.4,0.2-0.4,0.6,0,0.8l4.9,2.8
					c0.4,0.2,1,0.2,1.4,0l3.8-2.2c0.4-0.2,0.4-0.6,0-0.8l-4.9-2.8c-0.4-0.2-1-0.2-1.4,0L195,166.1z M201.9,170.2
					c-0.4,0.2-0.4,0.6,0,0.8l4.9,2.8c0.4,0.2,1,0.2,1.4,0l3.8-2.2c0.4-0.2,0.4-0.6,0-0.8l-4.9-2.8c-0.4-0.2-1-0.2-1.4,0L201.9,170.2
					z M208.9,174.3c-0.4,0.2-0.4,0.6,0,0.8l4.9,2.8c0.4,0.2,1,0.2,1.4,0l3.8-2.2c0.4-0.2,0.4-0.6,0-0.8l-4.9-2.8
					c-0.4-0.2-1-0.2-1.4,0L208.9,174.3z M215.9,178.3c-0.4,0.2-0.4,0.6,0,0.8l4.9,2.8c0.4,0.2,1,0.2,1.4,0l3.8-2.2
					c0.4-0.2,0.4-0.6,0-0.8l-4.9-2.8c-0.4-0.2-1-0.2-1.4,0L215.9,178.3z M222.9,182.4c-0.4,0.2-0.4,0.6,0,0.8l4.9,2.8
					c0.4,0.2,1,0.2,1.4,0l3.8-2.2c0.4-0.2,0.4-0.6,0-0.8l-4.9-2.8c-0.4-0.2-1-0.2-1.4,0L222.9,182.4z M229.9,186.5
					c-0.4,0.2-0.4,0.6,0,0.8l4.9,2.8c0.4,0.2,1,0.2,1.4,0l3.8-2.2c0.4-0.2,0.4-0.6,0-0.8l-4.9-2.8c-0.4-0.2-1-0.2-1.4,0L229.9,186.5
					z M236.9,190.5c-0.4,0.2-0.4,0.6,0,0.8l4.9,2.8c0.4,0.2,1,0.2,1.4,0l3.8-2.2c0.4-0.2,0.4-0.6,0-0.8l-4.9-2.8
					c-0.4-0.2-1-0.2-1.4,0L236.9,190.5z M243.9,194.6c-0.4,0.2-0.4,0.6,0,0.8l4.9,2.8c0.4,0.2,1,0.2,1.4,0l3.8-2.2
					c0.4-0.2,0.4-0.6,0-0.8l-4.9-2.8c-0.4-0.2-1-0.2-1.4,0L243.9,194.6z M250.9,198.6c-0.4,0.2-0.4,0.6,0,0.8l4.9,2.8
					c0.4,0.2,1,0.2,1.4,0l3.8-2.2c0.4-0.2,0.4-0.6,0-0.8l-4.9-2.8c-0.4-0.2-1-0.2-1.4,0L250.9,198.6z M257.9,202.7
					c-0.4,0.2-0.4,0.6,0,0.8l4.9,2.8c0.4,0.2,1,0.2,1.4,0l3.8-2.2c0.4-0.2,0.4-0.6,0-0.8l-4.9-2.8c-0.4-0.2-1-0.2-1.4,0L257.9,202.7
					z M264.9,206.8c-0.4,0.2-0.4,0.6,0,0.8l4.9,2.8c0.4,0.2,1,0.2,1.4,0l3.8-2.2c0.4-0.2,0.4-0.6,0-0.8l-4.9-2.8
					c-0.4-0.2-1-0.2-1.4,0L264.9,206.8z M163.5,154.6c-0.4,0.2-0.4,0.6,0,0.8l5.3,3.1c0.4,0.2,1,0.2,1.4,0l3.8-2.2
					c0.4-0.2,0.4-0.6,0-0.8l-5.3-3.1c-0.4-0.2-1-0.2-1.4,0L163.5,154.6z M170.8,158.8c-0.4,0.2-0.4,0.6,0,0.8l5.3,3.1
					c0.4,0.2,1,0.2,1.4,0l3.8-2.2c0.4-0.2,0.4-0.6,0-0.8l-5.3-3.1c-0.4-0.2-1-0.2-1.4,0L170.8,158.8z M152,161.3
					c-0.4,0.2-0.4,0.6,0,0.8l3.7,2.1c0.4,0.2,1,0.2,1.4,0l9.5-5.5c0.4-0.2,0.4-0.6,0-0.8l-3.7-2.1c-0.4-0.2-1-0.2-1.4,0L152,161.3z
					 M163.6,161.3c-0.4,0.2-0.4,0.6,0,0.8l5.3,3.1c0.4,0.2,1,0.2,1.4,0l3.8-2.2c0.4-0.2,0.4-0.6,0-0.8l-5.3-3.1
					c-0.4-0.2-1-0.2-1.4,0L163.6,161.3z M185.6,167.4c-0.4,0.2-0.4,0.6,0,0.8l4.9,2.8c0.4,0.2,1,0.2,1.4,0l3.8-2.2
					c0.4-0.2,0.4-0.6,0-0.8l-4.9-2.8c-0.4-0.2-1-0.2-1.4,0L185.6,167.4z M172.7,166.6c-0.4,0.2-0.4,0.6,0,0.8l9.7,5.6
					c0.4,0.2,1,0.2,1.4,0l3.8-2.2c0.4-0.2,0.4-0.6,0-0.8l-4.1-2.4l5.1-2.9c0.4-0.2,0.4-0.6,0-0.8l-4.9-2.8c-0.4-0.2-1-0.2-1.4,0
					l-5.8,3.3l-1.4,0.8L172.7,166.6z M192.5,171.4c-0.4,0.2-0.4,0.6,0,0.8l4.9,2.8c0.4,0.2,1,0.2,1.4,0l3.8-2.2
					c0.4-0.2,0.4-0.6,0-0.8l-4.9-2.8c-0.4-0.2-1-0.2-1.4,0L192.5,171.4z M199.5,175.5c-0.4,0.2-0.4,0.6,0,0.8l4.9,2.8
					c0.4,0.2,1,0.2,1.4,0l3.8-2.2c0.4-0.2,0.4-0.6,0-0.8l-4.9-2.8c-0.4-0.2-1-0.2-1.4,0L199.5,175.5z M206.5,179.6
					c-0.4,0.2-0.4,0.6,0,0.8l4.9,2.8c0.4,0.2,1,0.2,1.4,0l3.8-2.2c0.4-0.2,0.4-0.6,0-0.8l-4.9-2.8c-0.4-0.2-1-0.2-1.4,0L206.5,179.6
					z M213.5,183.6c-0.4,0.2-0.4,0.6,0,0.8l4.9,2.8c0.4,0.2,1,0.2,1.4,0l3.8-2.2c0.4-0.2,0.4-0.6,0-0.8l-4.9-2.8
					c-0.4-0.2-1-0.2-1.4,0L213.5,183.6z M220.5,187.7c-0.4,0.2-0.4,0.6,0,0.8l4.9,2.8c0.4,0.2,1,0.2,1.4,0l3.8-2.2
					c0.4-0.2,0.4-0.6,0-0.8l-4.9-2.8c-0.4-0.2-1-0.2-1.4,0L220.5,187.7z M227.5,191.8c-0.4,0.2-0.4,0.6,0,0.8l4.9,2.8
					c0.4,0.2,1,0.2,1.4,0l3.8-2.2c0.4-0.2,0.4-0.6,0-0.8l-4.9-2.8c-0.4-0.2-1-0.2-1.4,0L227.5,191.8z M234.5,195.8
					c-0.4,0.2-0.4,0.6,0,0.8l4.9,2.8c0.4,0.2,1,0.2,1.4,0l3.8-2.2c0.4-0.2,0.4-0.6,0-0.8l-4.9-2.8c-0.4-0.2-1-0.2-1.4,0L234.5,195.8
					z M241.5,199.9c-0.4,0.2-0.4,0.6,0,0.8l4.9,2.8c0.4,0.2,1,0.2,1.4,0l3.8-2.2c0.4-0.2,0.4-0.6,0-0.8l-4.9-2.8
					c-0.4-0.2-1-0.2-1.4,0L241.5,199.9z M248.5,203.9c-0.4,0.2-0.4,0.6,0,0.8l4.9,2.8c0.4,0.2,1,0.2,1.4,0l3.8-2.2
					c0.4-0.2,0.4-0.6,0-0.8l-4.9-2.8c-0.4-0.2-1-0.2-1.4,0L248.5,203.9z M255.6,208.1c-0.4,0.2-0.4,0.6,0,0.8l10.7,6.2
					c0.4,0.2,1,0.2,1.4,0l3.8-2.2c0.4-0.2,0.4-0.6,0-0.8l-10.7-6.2c-0.4-0.2-1-0.2-1.4,0L255.6,208.1z M184.5,173.4
					c-0.4,0.2-0.4,0.6,0,0.8l4.9,2.8c0.4,0.2,1,0.2,1.4,0l3.8-2.2c0.4-0.2,0.4-0.6,0-0.8l-4.9-2.8c-0.4-0.2-1-0.2-1.4,0L184.5,173.4
					z M191.5,177.5c-0.4,0.2-0.4,0.6,0,0.8l4.9,2.8c0.4,0.2,1,0.2,1.4,0l3.8-2.2c0.4-0.2,0.4-0.6,0-0.8l-4.9-2.8
					c-0.4-0.2-1-0.2-1.4,0L191.5,177.5z M198.5,181.6c-0.4,0.2-0.4,0.6,0,0.8l4.9,2.8c0.4,0.2,1,0.2,1.4,0l3.8-2.2
					c0.4-0.2,0.4-0.6,0-0.8l-4.9-2.8c-0.4-0.2-1-0.2-1.4,0L198.5,181.6z M205.5,185.6c-0.4,0.2-0.4,0.6,0,0.8l4.9,2.8
					c0.4,0.2,1,0.2,1.4,0l3.8-2.2c0.4-0.2,0.4-0.6,0-0.8l-4.9-2.8c-0.4-0.2-1-0.2-1.4,0L205.5,185.6z M212.5,189.7
					c-0.4,0.2-0.4,0.6,0,0.8l4.9,2.8c0.4,0.2,1,0.2,1.4,0l3.8-2.2c0.4-0.2,0.4-0.6,0-0.8l-4.9-2.8c-0.4-0.2-1-0.2-1.4,0L212.5,189.7
					z M219.5,193.8c-0.4,0.2-0.4,0.6,0,0.8l4.9,2.8c0.4,0.2,1,0.2,1.4,0l3.8-2.2c0.4-0.2,0.4-0.6,0-0.8l-4.9-2.8
					c-0.4-0.2-1-0.2-1.4,0L219.5,193.8z M226.5,197.8c-0.4,0.2-0.4,0.6,0,0.8l4.9,2.8c0.4,0.2,1,0.2,1.4,0l3.8-2.2
					c0.4-0.2,0.4-0.6,0-0.8l-4.9-2.8c-0.4-0.2-1-0.2-1.4,0L226.5,197.8z M233.5,201.9c-0.4,0.2-0.4,0.6,0,0.8l4.9,2.8
					c0.4,0.2,1,0.2,1.4,0l3.8-2.2c0.4-0.2,0.4-0.6,0-0.8l-4.9-2.8c-0.4-0.2-1-0.2-1.4,0L233.5,201.9z M240.4,205.9
					c-0.4,0.2-0.4,0.6,0,0.8l4.9,2.8c0.4,0.2,1,0.2,1.4,0l3.8-2.2c0.4-0.2,0.4-0.6,0-0.8l-4.9-2.8c-0.4-0.2-1-0.2-1.4,0L240.4,205.9
					z M247.4,210c-0.4,0.2-0.4,0.6,0,0.8l4.9,2.8c0.4,0.2,1,0.2,1.4,0l3.8-2.2c0.4-0.2,0.4-0.6,0-0.8l-4.9-2.8c-0.4-0.2-1-0.2-1.4,0
					L247.4,210z M254.4,214.1c-0.4,0.2-0.4,0.6,0,0.8l6.1,3.5c0.4,0.2,1,0.2,1.4,0l3.8-2.2c0.4-0.2,0.4-0.6,0-0.8l-6.1-3.5
					c-0.4-0.2-1-0.2-1.4,0L254.4,214.1z M157.8,164.6c-0.4,0.2-0.4,0.6,0,0.8l5.3,3.1c0.4,0.2,1,0.2,1.4,0l3.8-2.2
					c0.4-0.2,0.4-0.6,0-0.8l-5.3-3.1c-0.4-0.2-1-0.2-1.4,0L157.8,164.6z M165.4,169c-0.4,0.2-0.4,0.6,0,0.8l6.4,3.7
					c0.4,0.2,1,0.2,1.4,0l3.8-2.2c0.4-0.2,0.4-0.6,0-0.8l-6.4-3.7c-0.4-0.2-1-0.2-1.4,0L165.4,169z M174,174c-0.4,0.2-0.4,0.6,0,0.8
					l4.9,2.8c0.4,0.2,1,0.2,1.4,0l3.8-2.2c0.4-0.2,0.4-0.6,0-0.8l-4.9-2.8c-0.4-0.2-1-0.2-1.4,0L174,174z M181,178.1
					c-0.4,0.2-0.4,0.6,0,0.8l4.9,2.8c0.4,0.2,1,0.2,1.4,0l3.8-2.2c0.4-0.2,0.4-0.6,0-0.8l-4.9-2.8c-0.4-0.2-1-0.2-1.4,0L181,178.1z
					 M188,182.2c-0.4,0.2-0.4,0.6,0,0.8l4.9,2.8c0.4,0.2,1,0.2,1.4,0l3.8-2.2c0.4-0.2,0.4-0.6,0-0.8l-4.9-2.8c-0.4-0.2-1-0.2-1.4,0
					L188,182.2z M195,186.2c-0.4,0.2-0.4,0.6,0,0.8l4.9,2.8c0.4,0.2,1,0.2,1.4,0l3.8-2.2c0.4-0.2,0.4-0.6,0-0.8l-4.9-2.8
					c-0.4-0.2-1-0.2-1.4,0L195,186.2z M202,190.3c-0.4,0.2-0.4,0.6,0,0.8l4.9,2.8c0.4,0.2,1,0.2,1.4,0l3.8-2.2
					c0.4-0.2,0.4-0.6,0-0.8l-4.9-2.8c-0.4-0.2-1-0.2-1.4,0L202,190.3z M209,194.3c-0.4,0.2-0.4,0.6,0,0.8l4.9,2.8
					c0.4,0.2,1,0.2,1.4,0l3.8-2.2c0.4-0.2,0.4-0.6,0-0.8l-4.9-2.8c-0.4-0.2-1-0.2-1.4,0L209,194.3z M216,198.4
					c-0.4,0.2-0.4,0.6,0,0.8l4.9,2.8c0.4,0.2,1,0.2,1.4,0l3.8-2.2c0.4-0.2,0.4-0.6,0-0.8l-4.9-2.8c-0.4-0.2-1-0.2-1.4,0L216,198.4z
					 M223,202.5c-0.4,0.2-0.4,0.6,0,0.8l4.9,2.8c0.4,0.2,1,0.2,1.4,0l3.8-2.2c0.4-0.2,0.4-0.6,0-0.8l-4.9-2.8c-0.4-0.2-1-0.2-1.4,0
					L223,202.5z M230,206.5c-0.4,0.2-0.4,0.6,0,0.8l4.9,2.8c0.4,0.2,1,0.2,1.4,0l3.8-2.2c0.4-0.2,0.4-0.6,0-0.8l-4.9-2.8
					c-0.4-0.2-1-0.2-1.4,0L230,206.5z M237,210.6c-0.4,0.2-0.4,0.6,0,0.8l4.9,2.8c0.4,0.2,1,0.2,1.4,0l3.8-2.2
					c0.4-0.2,0.4-0.6,0-0.8l-4.9-2.8c-0.4-0.2-1-0.2-1.4,0L237,210.6z M244.1,214.7c-0.4,0.2-0.4,0.6,0,0.8l10.7,6.2
					c0.4,0.2,1,0.2,1.4,0l3.8-2.2c0.4-0.2,0.4-0.6,0-0.8l-10.7-6.2c-0.4-0.2-1-0.2-1.4,0L244.1,214.7z M140.4,167.9
					c-0.4,0.2-0.4,0.6,0,0.8l3.7,2.1c0.4,0.2,1,0.2,1.4,0l9.5-5.5c0.4-0.2,0.4-0.6,0-0.8l-3.7-2.1c-0.4-0.2-1-0.2-1.4,0L140.4,167.9
					z M151.9,167.9c-0.4,0.2-0.4,0.6,0,0.8l5.6,3.2c0.4,0.2,1,0.2,1.4,0l3.8-2.2c0.4-0.2,0.4-0.6,0-0.8l-5.6-3.2
					c-0.4-0.2-1-0.2-1.4,0L151.9,167.9z M159.6,172.4c-0.4,0.2-0.4,0.6,0,0.8l2.8,1.6c0.4,0.2,1,0.2,1.4,0l3.8-2.2
					c0.4-0.2,0.4-0.6,0-0.8l-2.8-1.6c-0.4-0.2-1-0.2-1.4,0L159.6,172.4z M164.7,175.4c-0.4,0.2-0.4,0.6,0,0.8l2.9,1.7
					c0.4,0.2,1,0.2,1.4,0l3.8-2.2c0.4-0.2,0.4-0.6,0-0.8l-2.9-1.7c-0.4-0.2-1-0.2-1.4,0L164.7,175.4z M169.8,178.3
					c-0.4,0.2-0.4,0.6,0,0.8l8,4.7c0.4,0.2,1,0.2,1.4,0l3.8-2.2c0.4-0.2,0.4-0.6,0-0.8l-8-4.7c-0.4-0.2-1-0.2-1.4,0L169.8,178.3z
					 M179.9,184.2c-0.4,0.2-0.4,0.6,0,0.8l4.9,2.8c0.4,0.2,1,0.2,1.4,0l3.8-2.2c0.4-0.2,0.4-0.6,0-0.8l-4.9-2.8
					c-0.4-0.2-1-0.2-1.4,0L179.9,184.2z M186.9,188.3c-0.4,0.2-0.4,0.6,0,0.8l4.9,2.8c0.4,0.2,1,0.2,1.4,0l3.8-2.2
					c0.4-0.2,0.4-0.6,0-0.8l-4.9-2.8c-0.4-0.2-1-0.2-1.4,0L186.9,188.3z M193.9,192.3c-0.4,0.2-0.4,0.6,0,0.8l4.9,2.8
					c0.4,0.2,1,0.2,1.4,0l3.8-2.2c0.4-0.2,0.4-0.6,0-0.8l-4.9-2.8c-0.4-0.2-1-0.2-1.4,0L193.9,192.3z M200.9,196.4
					c-0.4,0.2-0.4,0.6,0,0.8l4.9,2.8c0.4,0.2,1,0.2,1.4,0l3.8-2.2c0.4-0.2,0.4-0.6,0-0.8l-4.9-2.8c-0.4-0.2-1-0.2-1.4,0L200.9,196.4
					z M207.9,200.5c-0.4,0.2-0.4,0.6,0,0.8l4.9,2.8c0.4,0.2,1,0.2,1.4,0l3.8-2.2c0.4-0.2,0.4-0.6,0-0.8l-4.9-2.8
					c-0.4-0.2-1-0.2-1.4,0L207.9,200.5z M214.9,204.5c-0.4,0.2-0.4,0.6,0,0.8l4.9,2.8c0.4,0.2,1,0.2,1.4,0l3.8-2.2
					c0.4-0.2,0.4-0.6,0-0.8l-4.9-2.8c-0.4-0.2-1-0.2-1.4,0L214.9,204.5z M221.9,208.6c-0.4,0.2-0.4,0.6,0,0.8l4.9,2.8
					c0.4,0.2,1,0.2,1.4,0l3.8-2.2c0.4-0.2,0.4-0.6,0-0.8l-4.9-2.8c-0.4-0.2-1-0.2-1.4,0L221.9,208.6z M228.9,212.6
					c-0.4,0.2-0.4,0.6,0,0.8l4.9,2.8c0.4,0.2,1,0.2,1.4,0l3.8-2.2c0.4-0.2,0.4-0.6,0-0.8l-4.9-2.8c-0.4-0.2-1-0.2-1.4,0L228.9,212.6
					z M235.9,216.7c-0.4,0.2-0.4,0.6,0,0.8l4.9,2.8c0.4,0.2,1,0.2,1.4,0l3.8-2.2c0.4-0.2,0.4-0.6,0-0.8l-4.9-2.8
					c-0.4-0.2-1-0.2-1.4,0L235.9,216.7z M242.8,220.8c-0.4,0.2-0.4,0.6,0,0.8l4.9,2.8c0.4,0.2,1,0.2,1.4,0l3.8-2.2
					c0.4-0.2,0.4-0.6,0-0.8l-4.9-2.8c-0.4-0.2-1-0.2-1.4,0L242.8,220.8z M148.4,172.6c-0.4,0.2-0.4,0.6,0,0.8l4.9,2.8
					c0.4,0.2,1,0.2,1.4,0l3.8-2.2c0.4-0.2,0.4-0.6,0-0.8l-4.9-2.8c-0.4-0.2-1-0.2-1.4,0L148.4,172.6z M155.4,176.6
					c-0.4,0.2-0.4,0.6,0,0.8l4.9,2.8c0.4,0.2,1,0.2,1.4,0l3.8-2.2c0.4-0.2,0.4-0.6,0-0.8l-4.9-2.8c-0.4-0.2-1-0.2-1.4,0L155.4,176.6
					z M162.4,180.7c-0.4,0.2-0.4,0.6,0,0.8l4.9,2.8c0.4,0.2,1,0.2,1.4,0l3.8-2.2c0.4-0.2,0.4-0.6,0-0.8l-4.9-2.8
					c-0.4-0.2-1-0.2-1.4,0L162.4,180.7z M169.4,184.8c-0.4,0.2-0.4,0.6,0,0.8l4.9,2.8c0.4,0.2,1,0.2,1.4,0l3.8-2.2
					c0.4-0.2,0.4-0.6,0-0.8l-4.9-2.8c-0.4-0.2-1-0.2-1.4,0L169.4,184.8z M176.4,188.9c-0.4,0.2-0.4,0.6,0,0.8l32.9,19.1
					c0.4,0.2,1,0.2,1.4,0l3.8-2.2c0.4-0.2,0.4-0.6,0-0.8l-32.9-19.1c-0.4-0.2-1-0.2-1.4,0L176.4,188.9z M211.4,209.2
					c-0.4,0.2-0.4,0.6,0,0.8l4.9,2.8c0.4,0.2,1,0.2,1.4,0l3.8-2.2c0.4-0.2,0.4-0.6,0-0.8l-4.9-2.8c-0.4-0.2-1-0.2-1.4,0L211.4,209.2
					z M218.4,213.2c-0.4,0.2-0.4,0.6,0,0.8l4.9,2.8c0.4,0.2,1,0.2,1.4,0l3.8-2.2c0.4-0.2,0.4-0.6,0-0.8l-4.9-2.8
					c-0.4-0.2-1-0.2-1.4,0L218.4,213.2z M225.4,217.3c-0.4,0.2-0.4,0.6,0,0.8l4.9,2.8c0.4,0.2,1,0.2,1.4,0l3.8-2.2
					c0.4-0.2,0.4-0.6,0-0.8l-4.9-2.8c-0.4-0.2-1-0.2-1.4,0L225.4,217.3z M232.4,221.4c-0.4,0.2-0.4,0.6,0,0.8l4.9,2.8
					c0.4,0.2,1,0.2,1.4,0l3.8-2.2c0.4-0.2,0.4-0.6,0-0.8l-4.9-2.8c-0.4-0.2-1-0.2-1.4,0L232.4,221.4z M239.3,225.4
					c-0.4,0.2-0.4,0.6,0,0.8l3.8,2.2c0.4,0.2,1,0.2,1.4,0l3.8-2.2c0.4-0.2,0.4-0.6,0-0.8l-3.8-2.2c-0.4-0.2-1-0.2-1.4,0L239.3,225.4
					z"/>
			</g>
		</g>
		<g>
			<g>
				<path class="st0" d="M220.8,139.3c1-0.6,2.6-0.6,3.6,0l69.5,40.4c1,0.6,1,1.5,0,2.1l-14.8,8.2c-1,0.6-2.6,0.6-3.6,0L206,149.6
					c-1-0.6-1-1.5,0-2.1L220.8,139.3z"/>
				<path class="st1" d="M221.8,138.7c1-0.6,2.5-0.6,3.5,0l67.9,37.7c0,0,0,2,0,2.4c0,0.4-0.2,0.7-0.7,1l-14.3,7.9
					c-1,0.6-2.5,0.6-3.5,0l-67.2-39.1c-0.5-0.3-0.7-0.6-0.7-1c0-0.4,0-2.5,0-2.5L221.8,138.7z"/>
				<path class="st2" d="M221.8,136.4c1-0.6,2.5-0.6,3.5,0l67.2,39.1c1,0.6,0.9,1.5,0,2l-14.3,7.9c-1,0.6-2.5,0.6-3.5,0l-67.2-39.1
					c-1-0.6-0.9-1.5,0-2L221.8,136.4z"/>
			</g>
			<path class="st1" d="M321.8,76.4l-131.6-76c-1-0.6-1.9-0.6-2.5-0.2l0,0l-2.6,1.6l1.7,1l-0.3,101.8c0,2.2,1.5,4.8,3.4,5.9
				L320.7,186l-1.6,0.9l2.2,1.3l2.7-1.6l0,0c0.6-0.4,1-1.1,1-2.1l0.3-102.2C325.2,80.1,323.7,77.5,321.8,76.4z"/>
			<g>
				<polygon class="st1" points="269.6,144.7 269.6,169 267.3,170.3 238.9,152.3 238.9,126.3 				"/>
				<polygon class="st3" points="267.3,145.1 267.3,170.3 236.5,152.6 236.5,126.7 				"/>
			</g>
			<path class="st2" d="M318.7,78c1.9,1.1,3.4,3.7,3.4,5.9l-0.3,102.2c0,2.2-1.5,3-3.4,1.9l-131.6-76c-1.9-1.1-3.4-3.7-3.4-5.9
				L183.7,4c0-2.2,1.5-3,3.4-1.9L318.7,78z"/>
			<g>
				<path class="st4" d="M187.5,95.8c0,2.5,1.8,5.6,4,6.8l74.2,42.8l48.1,27.8c2.2,1.3,4,0.3,4-2.3l0.2-80.8c0-2.5-1.8-5.6-3.9-6.8
					l-60.3-34.8l-62-35.8c-2.2-1.3-4-0.3-4,2.3L187.5,95.8z"/>
			</g>
		</g>
		<g class="st5">
			<path class="st2" d="M207.2,30.6l92.1,53.3c0.9,0.5,1.4,1.4,1.4,2.4l0.1,65.4c0,2.2-2.3,3.5-4.2,2.4l-92.1-53.5
				c-0.9-0.5-1.4-1.4-1.4-2.4L203,33C203,30.8,205.3,29.5,207.2,30.6z"/>
			<g class="st6">
				<polygon class="st7" points="294.7,122.4 205.4,70.6 205.4,71.4 294.7,123.2 				"/>
				<polygon class="st7" points="294.7,130.8 205.4,79 205.4,79.8 294.7,131.6 				"/>
				<polygon class="st7" points="294.7,139.3 205.5,87.4 205.5,88.2 294.7,140.1 				"/>
				<polygon class="st7" points="294.7,88.9 205.4,37.1 205.4,37.9 294.7,89.7 				"/>
				<polygon class="st7" points="294.7,147.7 205.5,95.8 205.5,96.6 294.7,148.5 				"/>
				<polygon class="st7" points="294.7,97.2 205.4,45.4 205.4,46.2 294.7,98 				"/>
				<polygon class="st7" points="294.7,105.6 205.4,53.8 205.4,54.6 294.7,106.4 				"/>
				<polygon class="st7" points="294.7,114 205.4,62.2 205.4,63 294.7,114.8 				"/>
				<polygon class="st7" points="205.4,37.4 205.5,95.8 206.2,96.2 206.1,37.9 				"/>
				<polygon class="st7" points="214.3,42.6 214.3,101 215.1,101.4 215,43 				"/>
				<polygon class="st7" points="223.1,47.8 223.2,106.1 223.9,106.6 223.9,48.2 				"/>
				<polygon class="st7" points="232,52.9 232.1,111.3 232.8,111.7 232.7,53.4 				"/>
				<polygon class="st7" points="240.9,58.1 240.9,116.5 241.7,116.9 241.6,58.5 				"/>
				<polygon class="st7" points="249.7,63.3 249.8,121.6 250.5,122.1 250.5,63.7 				"/>
				<polygon class="st7" points="258.6,68.4 258.7,126.8 259.4,127.2 259.3,68.9 				"/>
				<polygon class="st7" points="267.5,73.6 267.5,132 268.3,132.4 268.2,74 				"/>
				<polygon class="st7" points="276.3,78.8 276.4,137.1 277.1,137.6 277.1,79.2 				"/>
				<polygon class="st7" points="285.2,83.9 285.3,142.3 286,142.7 285.9,84.4 				"/>
				<polygon class="st7" points="294.1,88.6 294.2,148.1 294.9,148.5 294.8,89 				"/>
			</g>
			<g>
				<polygon class="st1" points="267.5,116.9 251.3,82.7 234.8,96.6 227.7,85.3 207.4,97.9 206.8,97.2 227.9,83.8 235.1,95.2 
					251.9,80.9 268,114.4 293.2,89.1 294.1,89.5 				"/>
			</g>
		</g>
		<g>
			<g>
				<path class="st3" d="M173,45.4l20.4,11.8c1.6,0.9,3.5-0.2,3.5-2V27.9c0-0.8-0.4-1.6-1.2-2l-20.4-11.8c-1.6-0.9-3.5,0.2-3.5,2
					v27.3C171.9,44.2,172.3,44.9,173,45.4z"/>
				<path class="st8" d="M185.7,35.3v-8.7c0-0.7,0.8-1.2,1.5-0.8l6.5,3.7c0.3,0.2,0.5,0.5,0.5,0.8v8.7c0,0.7-0.8,1.2-1.5,0.8
					l-6.5-3.7C185.9,36,185.7,35.7,185.7,35.3z M184.7,25.7c0.2,0,0.3-0.1,0.4-0.3c0.1-0.2,0.1-0.6-0.2-0.7L175,19
					c-0.2-0.1-0.5-0.1-0.7,0.2c-0.1,0.2-0.1,0.6,0.2,0.7l9.9,5.8C184.5,25.7,184.6,25.7,184.7,25.7z M184.4,27.9l-9.9-5.8
					c-0.2-0.1-0.3-0.4-0.2-0.7c0.1-0.2,0.5-0.3,0.7-0.2l9.9,5.8c0.2,0.1,0.3,0.5,0.2,0.7c-0.1,0.2-0.3,0.3-0.4,0.3
					C184.6,27.9,184.5,27.9,184.4,27.9z M184.4,30.1l-9.9-5.8c-0.2-0.1-0.3-0.5-0.2-0.7c0.1-0.2,0.5-0.3,0.7-0.2l9.9,5.8
					c0.2,0.1,0.3,0.4,0.2,0.7c-0.1,0.2-0.3,0.3-0.4,0.3C184.6,30.2,184.5,30.2,184.4,30.1z M184.4,32.4l-9.9-5.8
					c-0.2-0.1-0.3-0.5-0.2-0.7c0.1-0.2,0.5-0.3,0.7-0.2l9.9,5.8c0.2,0.1,0.3,0.4,0.2,0.7c-0.1,0.2-0.3,0.3-0.4,0.3
					C184.6,32.5,184.5,32.4,184.4,32.4z M184.4,34.6l-9.9-5.8c-0.2-0.1-0.3-0.5-0.2-0.7c0.1-0.2,0.5-0.3,0.7-0.2l9.9,5.8
					c0.2,0.1,0.3,0.4,0.2,0.7c-0.1,0.2-0.3,0.3-0.4,0.3C184.6,34.7,184.5,34.7,184.4,34.6z"/>
				<path class="st8" d="M185.7,48.9v-8.7c0-0.7,0.8-1.2,1.5-0.8l6.5,3.7c0.3,0.2,0.5,0.5,0.5,0.8v8.7c0,0.7-0.8,1.2-1.5,0.8
					l-6.5-3.7C185.9,49.6,185.7,49.3,185.7,48.9z M184.7,39.2c0.2,0,0.3-0.1,0.4-0.3c0.1-0.2,0.1-0.6-0.2-0.7l-9.9-5.8
					c-0.2-0.1-0.5-0.1-0.7,0.2c-0.1,0.2-0.1,0.6,0.2,0.7l9.9,5.8C184.5,39.2,184.6,39.2,184.7,39.2z M184.4,41.4l-9.9-5.8
					c-0.2-0.1-0.3-0.5-0.2-0.7c0.1-0.2,0.5-0.3,0.7-0.2l9.9,5.8c0.2,0.1,0.3,0.5,0.2,0.7c-0.1,0.2-0.3,0.3-0.4,0.3
					C184.6,41.5,184.5,41.5,184.4,41.4z M184.4,43.7l-9.9-5.8c-0.2-0.1-0.3-0.4-0.2-0.7c0.1-0.2,0.5-0.3,0.7-0.2l9.9,5.8
					c0.2,0.1,0.3,0.4,0.2,0.7c-0.1,0.2-0.3,0.3-0.4,0.3C184.6,43.8,184.5,43.7,184.4,43.7z M184.4,46l-9.9-5.8
					c-0.2-0.1-0.3-0.5-0.2-0.7c0.1-0.2,0.5-0.3,0.7-0.2l9.9,5.8c0.2,0.1,0.3,0.5,0.2,0.7c-0.1,0.2-0.3,0.3-0.4,0.3
					C184.6,46,184.5,46,184.4,46z M184.4,48.2l-9.9-5.8c-0.2-0.1-0.3-0.5-0.2-0.7c0.1-0.2,0.5-0.3,0.7-0.2l9.9,5.8
					c0.2,0.1,0.3,0.4,0.2,0.7c-0.1,0.2-0.3,0.3-0.4,0.3C184.6,48.3,184.5,48.3,184.4,48.2z"/>
			</g>
			<g>
				<path class="st3" d="M172.2,84.1l20.4,11.8c1.6,0.9,3.5-0.2,3.5-2V66.6c0-0.8-0.4-1.6-1.2-2l-20.4-11.8c-1.6-0.9-3.5,0.2-3.5,2
					v27.3C171.1,82.9,171.5,83.7,172.2,84.1z"/>
				<path class="st8" d="M184.9,74.1v-8.7c0-0.7,0.8-1.2,1.5-0.8l6.5,3.7c0.3,0.2,0.5,0.5,0.5,0.8v8.7c0,0.7-0.8,1.2-1.5,0.8
					l-6.5-3.7C185.1,74.7,184.9,74.4,184.9,74.1z M183.9,64.4c0.2,0,0.3-0.1,0.4-0.3c0.1-0.2,0.1-0.6-0.2-0.7l-9.9-5.8
					c-0.2-0.1-0.5-0.1-0.7,0.2c-0.1,0.2-0.1,0.6,0.2,0.7l9.9,5.8C183.7,64.4,183.8,64.4,183.9,64.4z M183.6,66.6l-9.9-5.8
					c-0.2-0.1-0.3-0.4-0.2-0.7c0.1-0.2,0.5-0.3,0.7-0.2l9.9,5.8c0.2,0.1,0.3,0.5,0.2,0.7c-0.1,0.2-0.3,0.3-0.4,0.3
					C183.8,66.7,183.7,66.6,183.6,66.6z M183.6,68.9l-9.9-5.8c-0.2-0.1-0.3-0.5-0.2-0.7c0.1-0.2,0.5-0.3,0.7-0.2l9.9,5.8
					c0.2,0.1,0.3,0.5,0.2,0.7c-0.1,0.2-0.3,0.3-0.4,0.3C183.8,68.9,183.7,68.9,183.6,68.9z M183.6,71.1l-9.9-5.8
					c-0.2-0.1-0.3-0.4-0.2-0.7c0.1-0.2,0.5-0.3,0.7-0.2l9.9,5.8c0.2,0.1,0.3,0.5,0.2,0.7c-0.1,0.2-0.3,0.3-0.4,0.3
					C183.8,71.2,183.7,71.2,183.6,71.1z M183.6,73.4l-9.9-5.8c-0.2-0.1-0.3-0.4-0.2-0.7c0.1-0.2,0.5-0.3,0.7-0.2l9.9,5.8
					c0.2,0.1,0.3,0.4,0.2,0.7c-0.1,0.2-0.3,0.3-0.4,0.3C183.8,73.4,183.7,73.4,183.6,73.4z"/>
				<path class="st8" d="M184.9,87.6v-8.7c0-0.7,0.8-1.2,1.5-0.8l6.5,3.7c0.3,0.2,0.5,0.5,0.5,0.8v8.7c0,0.7-0.8,1.2-1.5,0.8
					l-6.5-3.7C185.1,88.3,184.9,88,184.9,87.6z M183.9,78c0.2,0,0.3-0.1,0.4-0.3c0.1-0.2,0.1-0.6-0.2-0.7l-9.9-5.8
					c-0.2-0.1-0.5-0.1-0.7,0.2c-0.1,0.2-0.1,0.6,0.2,0.7l9.9,5.8C183.7,77.9,183.8,78,183.9,78z M183.6,80.2l-9.9-5.8
					c-0.2-0.1-0.3-0.5-0.2-0.7c0.1-0.2,0.5-0.3,0.7-0.2l9.9,5.8c0.2,0.1,0.3,0.5,0.2,0.7c-0.1,0.2-0.3,0.3-0.4,0.3
					C183.8,80.2,183.7,80.2,183.6,80.2z M183.6,82.4l-9.9-5.8c-0.2-0.1-0.3-0.4-0.2-0.7c0.1-0.2,0.5-0.3,0.7-0.2l9.9,5.8
					c0.2,0.1,0.3,0.4,0.2,0.7c-0.1,0.2-0.3,0.3-0.4,0.3C183.8,82.5,183.7,82.5,183.6,82.4z M183.6,84.7l-9.9-5.8
					c-0.2-0.1-0.3-0.4-0.2-0.7c0.1-0.2,0.5-0.3,0.7-0.2l9.9,5.8c0.2,0.1,0.3,0.4,0.2,0.7c-0.1,0.2-0.3,0.3-0.4,0.3
					C183.8,84.7,183.7,84.7,183.6,84.7z M183.6,86.9l-9.9-5.8c-0.2-0.1-0.3-0.4-0.2-0.7c0.1-0.2,0.5-0.3,0.7-0.2l9.9,5.8
					c0.2,0.1,0.3,0.4,0.2,0.7c-0.1,0.2-0.3,0.3-0.4,0.3C183.8,87,183.7,87,183.6,86.9z"/>
			</g>
			<g>
				<path class="st3" d="M205.7,105.8l25,14.4c1.9,1.1,4.3-0.3,4.3-2.5V84.4c0-1-0.5-2-1.4-2.5l-25-14.4c-1.9-1.1-4.3,0.3-4.3,2.5
					v33.4C204.3,104.3,204.8,105.3,205.7,105.8z"/>
				<path class="st8" d="M214.5,83.1c2.8-1.8,7-0.2,9.5,3.6c2.5,3.8,2.3,8.3-0.5,10.1c-2.8,1.8-7,0.2-9.5-3.6
					C211.5,89.4,211.8,84.9,214.5,83.1z M211.9,109.4l14.3,8.2c0,0,0-10.6-2.2-14.7c-2.1-4-7.3-5.8-9.5-3.6
					C211.8,101.9,211.9,109.4,211.9,109.4z"/>
			</g>
			<g>
				<defs>
					<path id="SVGID_3_" d="M290.5,97.1l18.7,10.8c0.7,0.4,1.5-0.1,1.5-0.9V90.5c0-0.4-0.2-0.7-0.5-0.9l-18.7-10.8
						c-0.7-0.4-1.5,0.1-1.5,0.9v16.5C290,96.6,290.2,96.9,290.5,97.1z"/>
				</defs>
				<clipPath id="SVGID_1_">
					<use xlink:href="#SVGID_3_"  style="overflow:visible;"/>
				</clipPath>
				<polygon class="st9" points="290,96.8 310.8,108.8 310.8,90 290,78 				"/>
				<polygon class="st10" points="290,96.8 310.8,108.8 299.8,92 				"/>
				<path class="st10" d="M300.8,93.4l10-3.4L290,78l8.9,14.8C299.3,93.4,300.1,93.6,300.8,93.4z"/>
			</g>
		</g>
	</g>
	<g>
		<polygon class="st11" points="89.1,113.7 106.8,123.9 106.8,123.9 124.4,113.8 106.7,103.5 106.7,103.5 		"/>
		<polygon class="st0" points="111.3,127.1 128.9,137.3 146.6,127.2 128.8,116.9 128.8,116.9 		"/>
		<polygon class="st0" points="133.9,139.9 151.6,150.1 169.2,140 151.5,129.7 151.5,129.7 		"/>
		<g>
			<polygon class="st12" points="92,113.8 105.5,121.7 119.1,113.9 119.1,27.3 92,27.2 			"/>
			<polygon class="st13" points="92,27.2 105.5,35.1 119.1,27.3 105.4,19.4 			"/>
			<polygon class="st14" points="105.5,121.7 105.5,35.1 119.1,27.3 119.1,113.9 			"/>
		</g>
		<g>
			<polygon class="st12" points="114.8,127.3 128.4,135.1 142,127.4 142,52.8 114.8,52.7 			"/>
			<polygon class="st13" points="114.8,52.7 128.4,60.6 142,52.8 128.3,44.8 			"/>
			<polygon class="st3" points="128.4,135.1 128.4,60.6 142,52.8 142,127.4 			"/>
		</g>
		<g>
			<polygon class="st12" points="137.7,140.7 151.3,148.5 164.8,140.8 164.8,83.1 137.7,83 			"/>
			<polygon class="st13" points="137.7,83 151.3,90.9 164.8,83.1 151.2,75.1 			"/>
			<polygon class="st3" points="151.3,148.5 151.3,90.9 164.8,83.1 164.8,140.8 			"/>
		</g>
	</g>
	<g>
		<g>
			<ellipse class="st0" cx="273.7" cy="246.3" rx="15" ry="8"/>
			<ellipse class="st0" cx="292.2" cy="237.8" rx="15" ry="8"/>
			<ellipse class="st0" cx="306.4" cy="251.3" rx="15" ry="8"/>
		</g>
		<g>
			<g>
				<g>
					<path class="st1" d="M305.5,233v3.1c0,4.2-6.2,7.5-13.8,7.5c-7.6,0-13.8-3.4-13.8-7.5V233H305.5z"/>
					<path class="st15" d="M298.7,242.5c-0.4,0.1-0.9,0.3-1.4,0.4v-7.7h1.4V242.5z M284.6,242.5c0.4,0.1,0.9,0.3,1.4,0.4v-7.7h-1.4
						V242.5z M302.3,240.8c1-0.7,1.9-1.5,2.4-2.3v-5.2h-2.4V240.8z"/>
					<ellipse class="st2" cx="291.6" cy="233" rx="13.8" ry="7.5"/>
					<ellipse class="st3" cx="291.6" cy="232.9" rx="10.6" ry="5.7"/>
					<path class="st1" d="M291.6,228c5.6,0,10.2,2.3,10.6,5.3c0-0.1,0-0.3,0-0.4c0-3.1-4.8-5.6-10.6-5.6c-5.9,0-10.6,2.5-10.6,5.6
						c0,0.1,0,0.3,0,0.4C281.4,230.3,286,228,291.6,228z"/>
					<path class="st1" d="M296.3,230.6l1-0.6l-0.8-0.4l-1,0.6c-1.8-0.9-3.9-1.1-5.4-0.2c-1.9,1.1-0.6,2.2,0.3,3.2l-1.9,1.1
						c-0.3-0.3-0.2-0.6,0.2-0.9l-2.2-1.3c-1.5,0.9-1.2,2.1,0.4,3.2l-1,0.6l0.8,0.4l1-0.6c2,1.1,4.2,1,5.5,0.2
						c1.9-1.1,0.6-2.2-0.4-3.2l1.9-1.1c0.2,0.3,0.2,0.6-0.2,0.8l2.2,1.3C298.1,232.7,297.9,231.6,296.3,230.6z M291,234.6
						c-0.4,0.3-1.1,0.3-1.6,0l1.7-1C291.3,234.1,291.4,234.4,291,234.6z M292.3,232c-0.2-0.4-0.3-0.7,0.1-0.9c0.5-0.3,1-0.3,1.5-0.1
						L292.3,232z"/>
					<path class="st2" d="M296.3,230.2l1-0.6l-0.8-0.4l-1,0.6c-1.8-0.9-3.9-1.1-5.4-0.2c-1.9,1.1-0.6,2.2,0.3,3.2l-1.9,1.1
						c-0.3-0.3-0.2-0.6,0.2-0.9l-2.2-1.3c-1.5,0.9-1.2,2.1,0.4,3.2l-1,0.6l0.8,0.4l1-0.6c2,1.1,4.2,1,5.5,0.2
						c1.9-1.1,0.6-2.2-0.4-3.2l1.9-1.1c0.2,0.3,0.2,0.6-0.2,0.8l2.2,1.3C298.1,232.4,297.9,231.3,296.3,230.2z M291,234.3
						c-0.4,0.3-1.1,0.3-1.6,0l1.7-1C291.3,233.7,291.4,234,291,234.3z M292.3,231.7c-0.2-0.4-0.3-0.7,0.1-0.9c0.5-0.3,1-0.3,1.5-0.1
						L292.3,231.7z"/>
				</g>
			</g>
		</g>
		<g>
			<g>
				<g>
					<path class="st1" d="M305.5,228.3v3.1c0,4.2-6.2,7.5-13.8,7.5c-7.6,0-13.8-3.4-13.8-7.5v-3.1H305.5z"/>
					<path class="st15" d="M298.7,237.8c-0.4,0.1-0.9,0.3-1.4,0.4v-7.7h1.4V237.8z M284.6,237.9c0.4,0.1,0.9,0.3,1.4,0.4v-7.7h-1.4
						V237.9z M302.3,236.2c1-0.7,1.9-1.5,2.4-2.3v-5.2h-2.4V236.2z"/>
					<ellipse class="st2" cx="291.6" cy="228.3" rx="13.8" ry="7.5"/>
					<ellipse class="st3" cx="291.6" cy="228.2" rx="10.6" ry="5.7"/>
					<path class="st1" d="M291.6,223.4c5.6,0,10.2,2.3,10.6,5.3c0-0.1,0-0.3,0-0.4c0-3.1-4.8-5.6-10.6-5.6c-5.9,0-10.6,2.5-10.6,5.6
						c0,0.1,0,0.3,0,0.4C281.4,225.7,286,223.4,291.6,223.4z"/>
					<path class="st1" d="M296.3,225.9l1-0.6l-0.8-0.4l-1,0.6c-1.8-0.9-3.9-1.1-5.4-0.2c-1.9,1.1-0.6,2.2,0.3,3.2l-1.9,1.1
						c-0.3-0.3-0.2-0.6,0.2-0.9l-2.2-1.3c-1.5,0.9-1.2,2.1,0.4,3.2l-1,0.6l0.8,0.4l1-0.6c2,1.1,4.2,1,5.5,0.2
						c1.9-1.1,0.6-2.2-0.4-3.2l1.9-1.1c0.2,0.3,0.2,0.6-0.2,0.8l2.2,1.3C298.1,228.1,297.9,227,296.3,225.9z M291,230
						c-0.4,0.3-1.1,0.3-1.6,0l1.7-1C291.3,229.4,291.4,229.7,291,230z M292.3,227.4c-0.2-0.4-0.3-0.7,0.1-0.9c0.5-0.3,1-0.3,1.5-0.1
						L292.3,227.4z"/>
					<path class="st2" d="M296.3,225.6l1-0.6l-0.8-0.4l-1,0.6c-1.8-0.9-3.9-1.1-5.4-0.2c-1.9,1.1-0.6,2.2,0.3,3.2l-1.9,1.1
						c-0.3-0.3-0.2-0.6,0.2-0.9l-2.2-1.3c-1.5,0.9-1.2,2.1,0.4,3.2l-1,0.6l0.8,0.4l1-0.6c2,1.1,4.2,1,5.5,0.2
						c1.9-1.1,0.6-2.2-0.4-3.2l1.9-1.1c0.2,0.3,0.2,0.6-0.2,0.8l2.2,1.3C298.1,227.7,297.9,226.6,296.3,225.6z M291,229.6
						c-0.4,0.3-1.1,0.3-1.6,0l1.7-1C291.3,229,291.4,229.4,291,229.6z M292.3,227c-0.2-0.4-0.3-0.7,0.1-0.9c0.5-0.3,1-0.3,1.5-0.1
						L292.3,227z"/>
				</g>
			</g>
		</g>
		<g>
			<g>
				<g>
					<path class="st1" d="M305.5,223.7v3.1c0,4.2-6.2,7.5-13.8,7.5c-7.6,0-13.8-3.4-13.8-7.5v-3.1H305.5z"/>
					<path class="st15" d="M298.7,233.2c-0.4,0.1-0.9,0.3-1.4,0.4v-7.7h1.4V233.2z M284.6,233.2c0.4,0.1,0.9,0.3,1.4,0.4v-7.7h-1.4
						V233.2z M302.3,231.5c1-0.7,1.9-1.5,2.4-2.3V224h-2.4V231.5z"/>
					<ellipse class="st2" cx="291.6" cy="223.7" rx="13.8" ry="7.5"/>
					<ellipse class="st3" cx="291.6" cy="223.6" rx="10.6" ry="5.7"/>
					<path class="st1" d="M291.6,218.7c5.6,0,10.2,2.3,10.6,5.3c0-0.1,0-0.3,0-0.4c0-3.1-4.8-5.6-10.6-5.6c-5.9,0-10.6,2.5-10.6,5.6
						c0,0.1,0,0.3,0,0.4C281.4,221,286,218.7,291.6,218.7z"/>
					<path class="st1" d="M296.3,221.3l1-0.6l-0.8-0.4l-1,0.6c-1.8-0.9-3.9-1.1-5.4-0.2c-1.9,1.1-0.6,2.2,0.3,3.2l-1.9,1.1
						c-0.3-0.3-0.2-0.6,0.2-0.9l-2.2-1.3c-1.5,0.9-1.2,2.1,0.4,3.2l-1,0.6l0.8,0.4l1-0.6c2,1.1,4.2,1,5.5,0.2
						c1.9-1.1,0.6-2.2-0.4-3.2l1.9-1.1c0.2,0.3,0.2,0.6-0.2,0.8l2.2,1.3C298.1,223.4,297.9,222.3,296.3,221.3z M291,225.3
						c-0.4,0.3-1.1,0.3-1.6,0l1.7-1C291.3,224.7,291.4,225.1,291,225.3z M292.3,222.7c-0.2-0.4-0.3-0.7,0.1-0.9
						c0.5-0.3,1-0.3,1.5-0.1L292.3,222.7z"/>
					<path class="st2" d="M296.3,220.9l1-0.6l-0.8-0.4l-1,0.6c-1.8-0.9-3.9-1.1-5.4-0.2c-1.9,1.1-0.6,2.2,0.3,3.2l-1.9,1.1
						c-0.3-0.3-0.2-0.6,0.2-0.9l-2.2-1.3c-1.5,0.9-1.2,2.1,0.4,3.2l-1,0.6l0.8,0.4l1-0.6c2,1.1,4.2,1,5.5,0.2
						c1.9-1.1,0.6-2.2-0.4-3.2l1.9-1.1c0.2,0.3,0.2,0.6-0.2,0.8l2.2,1.3C298.1,223.1,297.9,222,296.3,220.9z M291,225
						c-0.4,0.3-1.1,0.3-1.6,0l1.7-1C291.3,224.4,291.4,224.7,291,225z M292.3,222.4c-0.2-0.4-0.3-0.7,0.1-0.9c0.5-0.3,1-0.3,1.5-0.1
						L292.3,222.4z"/>
				</g>
			</g>
		</g>
		<g>
			<g>
				<g>
					<path class="st1" d="M305.5,219v3.1c0,4.2-6.2,7.5-13.8,7.5c-7.6,0-13.8-3.4-13.8-7.5V219H305.5z"/>
					<path class="st15" d="M298.7,228.5c-0.4,0.1-0.9,0.3-1.4,0.4v-7.7h1.4V228.5z M284.6,228.6c0.4,0.1,0.9,0.3,1.4,0.4v-7.7h-1.4
						V228.6z M302.3,226.9c1-0.7,1.9-1.5,2.4-2.3v-5.2h-2.4V226.9z"/>
					<ellipse class="st2" cx="291.6" cy="219" rx="13.8" ry="7.5"/>
					<ellipse class="st3" cx="291.6" cy="218.9" rx="10.6" ry="5.7"/>
					<path class="st1" d="M291.6,214c5.6,0,10.2,2.3,10.6,5.3c0-0.1,0-0.3,0-0.4c0-3.1-4.8-5.6-10.6-5.6c-5.9,0-10.6,2.5-10.6,5.6
						c0,0.1,0,0.3,0,0.4C281.4,216.4,286,214,291.6,214z"/>
					<path class="st1" d="M296.3,216.6l1-0.6l-0.8-0.4l-1,0.6c-1.8-0.9-3.9-1.1-5.4-0.2c-1.9,1.1-0.6,2.2,0.3,3.2l-1.9,1.1
						c-0.3-0.3-0.2-0.6,0.2-0.9l-2.2-1.3c-1.5,0.9-1.2,2.1,0.4,3.2l-1,0.6l0.8,0.4l1-0.6c2,1.1,4.2,1,5.5,0.2
						c1.9-1.1,0.6-2.2-0.4-3.2l1.9-1.1c0.2,0.3,0.2,0.6-0.2,0.8l2.2,1.3C298.1,218.8,297.9,217.7,296.3,216.6z M291,220.7
						c-0.4,0.3-1.1,0.3-1.6,0l1.7-1C291.3,220.1,291.4,220.4,291,220.7z M292.3,218.1c-0.2-0.4-0.3-0.7,0.1-0.9
						c0.5-0.3,1-0.3,1.5-0.1L292.3,218.1z"/>
					<path class="st2" d="M296.3,216.3l1-0.6l-0.8-0.4l-1,0.6c-1.8-0.9-3.9-1.1-5.4-0.2c-1.9,1.1-0.6,2.2,0.3,3.2l-1.9,1.1
						c-0.3-0.3-0.2-0.6,0.2-0.9l-2.2-1.3c-1.5,0.9-1.2,2.1,0.4,3.2l-1,0.6l0.8,0.4l1-0.6c2,1.1,4.2,1,5.5,0.2
						c1.9-1.1,0.6-2.2-0.4-3.2l1.9-1.1c0.2,0.3,0.2,0.6-0.2,0.8l2.2,1.3C298.1,218.4,297.9,217.3,296.3,216.3z M291,220.3
						c-0.4,0.3-1.1,0.3-1.6,0l1.7-1C291.3,219.7,291.4,220.1,291,220.3z M292.3,217.7c-0.2-0.4-0.3-0.7,0.1-0.9
						c0.5-0.3,1-0.3,1.5-0.1L292.3,217.7z"/>
				</g>
			</g>
		</g>
		<g>
			<g>
				<g>
					<path class="st1" d="M305.5,214.4v3.1c0,4.2-6.2,7.5-13.8,7.5c-7.6,0-13.8-3.4-13.8-7.5v-3.1H305.5z"/>
					<path class="st15" d="M298.7,223.9c-0.4,0.1-0.9,0.3-1.4,0.4v-7.7h1.4V223.9z M284.6,223.9c0.4,0.1,0.9,0.3,1.4,0.4v-7.7h-1.4
						V223.9z M302.3,222.2c1-0.7,1.9-1.5,2.4-2.3v-5.2h-2.4V222.2z"/>
					<ellipse class="st2" cx="291.6" cy="214.4" rx="13.8" ry="7.5"/>
					<ellipse class="st3" cx="291.6" cy="214.3" rx="10.6" ry="5.7"/>
					<path class="st1" d="M291.6,209.4c5.6,0,10.2,2.3,10.6,5.3c0-0.1,0-0.3,0-0.4c0-3.1-4.8-5.6-10.6-5.6c-5.9,0-10.6,2.5-10.6,5.6
						c0,0.1,0,0.3,0,0.4C281.4,211.7,286,209.4,291.6,209.4z"/>
					<path class="st1" d="M296.3,212l1-0.6l-0.8-0.4l-1,0.6c-1.8-0.9-3.9-1.1-5.4-0.2c-1.9,1.1-0.6,2.2,0.3,3.2l-1.9,1.1
						c-0.3-0.3-0.2-0.6,0.2-0.9l-2.2-1.3c-1.5,0.9-1.2,2.1,0.4,3.2l-1,0.6l0.8,0.4l1-0.6c2,1.1,4.2,1,5.5,0.2
						c1.9-1.1,0.6-2.2-0.4-3.2l1.9-1.1c0.2,0.3,0.2,0.6-0.2,0.8l2.2,1.3C298.1,214.1,297.9,213,296.3,212z M291,216
						c-0.4,0.3-1.1,0.3-1.6,0l1.7-1C291.3,215.4,291.4,215.8,291,216z M292.3,213.4c-0.2-0.4-0.3-0.7,0.1-0.9c0.5-0.3,1-0.3,1.5-0.1
						L292.3,213.4z"/>
					<path class="st2" d="M296.3,211.6l1-0.6l-0.8-0.4l-1,0.6c-1.8-0.9-3.9-1.1-5.4-0.2c-1.9,1.1-0.6,2.2,0.3,3.2l-1.9,1.1
						c-0.3-0.3-0.2-0.6,0.2-0.9l-2.2-1.3c-1.5,0.9-1.2,2.1,0.4,3.2l-1,0.6l0.8,0.4l1-0.6c2,1.1,4.2,1,5.5,0.2
						c1.9-1.1,0.6-2.2-0.4-3.2l1.9-1.1c0.2,0.3,0.2,0.6-0.2,0.8l2.2,1.3C298.1,213.8,297.9,212.7,296.3,211.6z M291,215.7
						c-0.4,0.3-1.1,0.3-1.6,0l1.7-1C291.3,215.1,291.4,215.4,291,215.7z M292.3,213.1c-0.2-0.4-0.3-0.7,0.1-0.9
						c0.5-0.3,1-0.3,1.5-0.1L292.3,213.1z"/>
				</g>
			</g>
		</g>
		<g>
			<g>
				<g>
					<path class="st1" d="M320.2,246.4v3.1c0,4.2-6.2,7.5-13.8,7.5c-7.6,0-13.8-3.4-13.8-7.5v-3.1H320.2z"/>
					<path class="st15" d="M313.4,255.9c-0.4,0.1-0.9,0.3-1.4,0.4v-7.7h1.4V255.9z M299.4,256c0.4,0.1,0.9,0.3,1.4,0.4v-7.7h-1.4
						V256z M317,254.3c1-0.7,1.9-1.5,2.4-2.3v-5.2H317V254.3z"/>
					<ellipse class="st2" cx="306.4" cy="246.4" rx="13.8" ry="7.5"/>
					<ellipse class="st3" cx="306.4" cy="246.3" rx="10.6" ry="5.7"/>
					<path class="st1" d="M306.4,241.5c5.6,0,10.2,2.3,10.6,5.3c0-0.1,0-0.3,0-0.4c0-3.1-4.8-5.6-10.6-5.6c-5.9,0-10.6,2.5-10.6,5.6
						c0,0.1,0,0.3,0,0.4C296.2,243.8,300.8,241.5,306.4,241.5z"/>
					<path class="st1" d="M311.1,244l1-0.6l-0.8-0.4l-1,0.6c-1.8-0.9-3.9-1.1-5.4-0.2c-1.9,1.1-0.6,2.2,0.3,3.2l-1.9,1.1
						c-0.3-0.3-0.2-0.6,0.2-0.9l-2.2-1.3c-1.5,0.9-1.2,2.1,0.4,3.2l-1,0.6l0.8,0.4l1-0.6c2,1.1,4.2,1,5.5,0.2
						c1.9-1.1,0.6-2.2-0.4-3.2l1.9-1.1c0.2,0.3,0.2,0.6-0.2,0.8l2.2,1.3C312.8,246.2,312.6,245.1,311.1,244z M305.7,248.1
						c-0.4,0.3-1.1,0.3-1.6,0l1.7-1C306.1,247.5,306.1,247.8,305.7,248.1z M307.1,245.5c-0.2-0.4-0.3-0.7,0.1-0.9
						c0.5-0.3,1-0.3,1.5-0.1L307.1,245.5z"/>
					<path class="st2" d="M311.1,243.7l1-0.6l-0.8-0.4l-1,0.6c-1.8-0.9-3.9-1.1-5.4-0.2c-1.9,1.1-0.6,2.2,0.3,3.2l-1.9,1.1
						c-0.3-0.3-0.2-0.6,0.2-0.9l-2.2-1.3c-1.5,0.9-1.2,2.1,0.4,3.2l-1,0.6l0.8,0.4l1-0.6c2,1.1,4.2,1,5.5,0.2
						c1.9-1.1,0.6-2.2-0.4-3.2l1.9-1.1c0.2,0.3,0.2,0.6-0.2,0.8l2.2,1.3C312.8,245.8,312.6,244.7,311.1,243.7z M305.7,247.7
						c-0.4,0.3-1.1,0.3-1.6,0l1.7-1C306.1,247.1,306.1,247.5,305.7,247.7z M307.1,245.1c-0.2-0.4-0.3-0.7,0.1-0.9
						c0.5-0.3,1-0.3,1.5-0.1L307.1,245.1z"/>
				</g>
			</g>
		</g>
		<g>
			<g>
				<g>
					<path class="st1" d="M320.2,241.8v3.1c0,4.2-6.2,7.5-13.8,7.5c-7.6,0-13.8-3.4-13.8-7.5v-3.1H320.2z"/>
					<path class="st15" d="M313.4,251.3c-0.4,0.1-0.9,0.3-1.4,0.4V244h1.4V251.3z M299.4,251.3c0.4,0.1,0.9,0.3,1.4,0.4V244h-1.4
						V251.3z M317,249.7c1-0.7,1.9-1.5,2.4-2.3v-5.2H317V249.7z"/>
					<ellipse class="st2" cx="306.4" cy="241.8" rx="13.8" ry="7.5"/>
					<ellipse class="st3" cx="306.4" cy="241.7" rx="10.6" ry="5.7"/>
					<path class="st1" d="M306.4,236.8c5.6,0,10.2,2.3,10.6,5.3c0-0.1,0-0.3,0-0.4c0-3.1-4.8-5.6-10.6-5.6c-5.9,0-10.6,2.5-10.6,5.6
						c0,0.1,0,0.3,0,0.4C296.2,239.1,300.8,236.8,306.4,236.8z"/>
					<path class="st1" d="M311.1,239.4l1-0.6l-0.8-0.4l-1,0.6c-1.8-0.9-3.9-1.1-5.4-0.2c-1.9,1.1-0.6,2.2,0.3,3.2l-1.9,1.1
						c-0.3-0.3-0.2-0.6,0.2-0.9l-2.2-1.3c-1.5,0.9-1.2,2.1,0.4,3.2l-1,0.6l0.8,0.4l1-0.6c2,1.1,4.2,1,5.5,0.2
						c1.9-1.1,0.6-2.2-0.4-3.2l1.9-1.1c0.2,0.3,0.2,0.6-0.2,0.8l2.2,1.3C312.8,241.5,312.6,240.4,311.1,239.4z M305.7,243.4
						c-0.4,0.3-1.1,0.3-1.6,0l1.7-1C306.1,242.9,306.1,243.2,305.7,243.4z M307.1,240.9c-0.2-0.4-0.3-0.7,0.1-0.9
						c0.5-0.3,1-0.3,1.5-0.1L307.1,240.9z"/>
					<path class="st2" d="M311.1,239l1-0.6l-0.8-0.4l-1,0.6c-1.8-0.9-3.9-1.1-5.4-0.2c-1.9,1.1-0.6,2.2,0.3,3.2l-1.9,1.1
						c-0.3-0.3-0.2-0.6,0.2-0.9l-2.2-1.3c-1.5,0.9-1.2,2.1,0.4,3.2l-1,0.6l0.8,0.4l1-0.6c2,1.1,4.2,1,5.5,0.2
						c1.9-1.1,0.6-2.2-0.4-3.2l1.9-1.1c0.2,0.3,0.2,0.6-0.2,0.8l2.2,1.3C312.8,241.2,312.6,240.1,311.1,239z M305.7,243.1
						c-0.4,0.3-1.1,0.3-1.6,0l1.7-1C306.1,242.5,306.1,242.8,305.7,243.1z M307.1,240.5c-0.2-0.4-0.3-0.7,0.1-0.9
						c0.5-0.3,1-0.3,1.5-0.1L307.1,240.5z"/>
				</g>
			</g>
		</g>
		<g>
			<g>
				<g>
					<path class="st1" d="M287.5,241.4v3.1c0,4.2-6.2,7.5-13.8,7.5c-7.6,0-13.8-3.4-13.8-7.5v-3.1H287.5z"/>
					<path class="st15" d="M280.7,250.9c-0.4,0.1-0.9,0.3-1.4,0.4v-7.7h1.4V250.9z M266.7,250.9c0.4,0.1,0.9,0.3,1.4,0.4v-7.7h-1.4
						V250.9z M284.3,249.3c1-0.7,1.9-1.5,2.4-2.3v-5.2h-2.4V249.3z"/>
					<ellipse class="st2" cx="273.7" cy="241.4" rx="13.8" ry="7.5"/>
					<ellipse class="st3" cx="273.7" cy="241.3" rx="10.6" ry="5.7"/>
					<path class="st1" d="M273.7,236.4c5.6,0,10.2,2.3,10.6,5.3c0-0.1,0-0.3,0-0.4c0-3.1-4.8-5.6-10.6-5.6c-5.9,0-10.6,2.5-10.6,5.6
						c0,0.1,0,0.3,0,0.4C263.5,238.7,268.1,236.4,273.7,236.4z"/>
					<path class="st1" d="M278.4,239l1-0.6l-0.8-0.4l-1,0.6c-1.8-0.9-3.9-1.1-5.4-0.2c-1.9,1.1-0.6,2.2,0.3,3.2l-1.9,1.1
						c-0.3-0.3-0.2-0.6,0.2-0.9l-2.2-1.3c-1.5,0.9-1.2,2.1,0.4,3.2l-1,0.6l0.8,0.4l1-0.6c2,1.1,4.2,1,5.5,0.2
						c1.9-1.1,0.6-2.2-0.4-3.2l1.9-1.1c0.2,0.3,0.2,0.6-0.2,0.8l2.2,1.3C280.1,241.1,279.9,240,278.4,239z M273,243
						c-0.4,0.3-1.1,0.3-1.6,0l1.7-1C273.4,242.5,273.4,242.8,273,243z M274.4,240.5c-0.2-0.4-0.3-0.7,0.1-0.9c0.5-0.3,1-0.3,1.5-0.1
						L274.4,240.5z"/>
					<path class="st2" d="M278.4,238.7l1-0.6l-0.8-0.4l-1,0.6c-1.8-0.9-3.9-1.1-5.4-0.2c-1.9,1.1-0.6,2.2,0.3,3.2l-1.9,1.1
						c-0.3-0.3-0.2-0.6,0.2-0.9l-2.2-1.3c-1.5,0.9-1.2,2.1,0.4,3.2l-1,0.6l0.8,0.4l1-0.6c2,1.1,4.2,1,5.5,0.2
						c1.9-1.1,0.6-2.2-0.4-3.2l1.9-1.1c0.2,0.3,0.2,0.6-0.2,0.8l2.2,1.3C280.1,240.8,279.9,239.7,278.4,238.7z M273,242.7
						c-0.4,0.3-1.1,0.3-1.6,0l1.7-1C273.4,242.1,273.4,242.4,273,242.7z M274.4,240.1c-0.2-0.4-0.3-0.7,0.1-0.9
						c0.5-0.3,1-0.3,1.5-0.1L274.4,240.1z"/>
				</g>
			</g>
		</g>
		<g>
			<g>
				<g>
					<path class="st1" d="M287.5,236.8v3.1c0,4.2-6.2,7.5-13.8,7.5c-7.6,0-13.8-3.4-13.8-7.5v-3.1H287.5z"/>
					<path class="st15" d="M280.7,246.3c-0.4,0.1-0.9,0.3-1.4,0.4V239h1.4V246.3z M266.7,246.3c0.4,0.1,0.9,0.3,1.4,0.4V239h-1.4
						V246.3z M284.3,244.7c1-0.7,1.9-1.5,2.4-2.3v-5.2h-2.4V244.7z"/>
					<ellipse class="st2" cx="273.7" cy="236.8" rx="13.8" ry="7.5"/>
					<ellipse class="st3" cx="273.7" cy="236.7" rx="10.6" ry="5.7"/>
					<path class="st1" d="M273.7,231.8c5.6,0,10.2,2.3,10.6,5.3c0-0.1,0-0.3,0-0.4c0-3.1-4.8-5.6-10.6-5.6c-5.9,0-10.6,2.5-10.6,5.6
						c0,0.1,0,0.3,0,0.4C263.5,234.2,268.1,231.8,273.7,231.8z"/>
					<path class="st1" d="M278.4,234.4l1-0.6l-0.8-0.4l-1,0.6c-1.8-0.9-3.9-1.1-5.4-0.2c-1.9,1.1-0.6,2.2,0.3,3.2l-1.9,1.1
						c-0.3-0.3-0.2-0.6,0.2-0.9l-2.2-1.3c-1.5,0.9-1.2,2.1,0.4,3.2l-1,0.6l0.8,0.4l1-0.6c2,1.1,4.2,1,5.5,0.2
						c1.9-1.1,0.6-2.2-0.4-3.2l1.9-1.1c0.2,0.3,0.2,0.6-0.2,0.8l2.2,1.3C280.1,236.5,279.9,235.4,278.4,234.4z M273,238.4
						c-0.4,0.3-1.1,0.3-1.6,0l1.7-1C273.4,237.9,273.4,238.2,273,238.4z M274.4,235.9c-0.2-0.4-0.3-0.7,0.1-0.9
						c0.5-0.3,1-0.3,1.5-0.1L274.4,235.9z"/>
					<path class="st2" d="M278.4,234.1l1-0.6l-0.8-0.4l-1,0.6c-1.8-0.9-3.9-1.1-5.4-0.2c-1.9,1.1-0.6,2.2,0.3,3.2l-1.9,1.1
						c-0.3-0.3-0.2-0.6,0.2-0.9l-2.2-1.3c-1.5,0.9-1.2,2.1,0.4,3.2l-1,0.6l0.8,0.4l1-0.6c2,1.1,4.2,1,5.5,0.2
						c1.9-1.1,0.6-2.2-0.4-3.2l1.9-1.1c0.2,0.3,0.2,0.6-0.2,0.8l2.2,1.3C280.1,236.2,279.9,235.1,278.4,234.1z M273,238.1
						c-0.4,0.3-1.1,0.3-1.6,0l1.7-1C273.4,237.5,273.4,237.8,273,238.1z M274.4,235.5c-0.2-0.4-0.3-0.7,0.1-0.9
						c0.5-0.3,1-0.3,1.5-0.1L274.4,235.5z"/>
				</g>
			</g>
		</g>
	</g>
	<g>
		<g>
			<g class="st16">
				<path class="st1" d="M352.2,167.9c-0.1-0.1-0.2-0.2-0.3-0.3c0,0,0,0,0,0c-0.1-0.1-0.1-0.2-0.2-0.3c0,0,0,0,0,0
					c0-0.1-0.1-0.2-0.1-0.4l0.3,47.6c0,0,0,0,0,0c0,0,0,0.1,0,0.1c0,0,0,0.1,0,0.1c0,0,0,0.1,0,0.1c0,0,0,0,0,0c0,0,0,0,0,0
					c0,0,0,0.1,0.1,0.1c0,0,0.1,0.1,0.1,0.1c0,0,0,0,0,0c0,0,0,0,0,0c0,0,0,0.1,0.1,0.1c0,0.1,0.1,0.1,0.1,0.2c0,0,0.1,0,0.1,0.1
					c0,0,0,0,0.1,0.1c0,0,0.1,0.1,0.1,0.1c0.1,0.1,0.2,0.1,0.3,0.2c0.2,0.1,0.3,0.2,0.5,0.2c0.1,0,0.1,0,0.2,0.1
					c0.1,0,0.2,0.1,0.3,0.1c0,0,0.1,0,0.1,0c0,0,0.1,0,0.1,0c0,0,0.1,0,0.1,0c0.1,0,0.2,0,0.3,0c0,0,0.1,0,0.1,0c0,0,0,0,0.1,0
					c0,0,0.1,0,0.1,0c0.1,0,0.2,0,0.3,0c0.1,0,0.2,0,0.2,0c0,0,0,0,0,0c0,0,0,0,0,0c0.1,0,0.1,0,0.2,0c0.1,0,0.2,0,0.2,0
					c0.1,0,0.1,0,0.2,0c0,0,0,0,0,0c0,0,0,0,0,0c0.1,0,0.2,0,0.2,0c0.1,0,0.2,0,0.2,0c0,0,0.1,0,0.1,0c0,0,0,0,0,0c0,0,0.1,0,0.1,0
					c0.1,0,0.2-0.1,0.3-0.1c0.1,0,0.1,0,0.2-0.1c0,0,0.1,0,0.1,0c0,0,0.1,0,0.1,0c0.1-0.1,0.3-0.1,0.4-0.2c0.7-0.4,1-0.9,1-1.4
					l-0.3-47.6c0,0.5-0.3,1-1,1.4c-0.2,0.1-0.3,0.2-0.5,0.2c0,0-0.1,0-0.1,0c-0.2,0.1-0.3,0.1-0.5,0.2c0,0,0,0,0,0
					c-0.2,0-0.4,0.1-0.6,0.1c0,0,0,0,0,0c-0.2,0-0.4,0-0.6,0c0,0,0,0,0,0c-0.2,0-0.4,0-0.6,0c0,0,0,0-0.1,0c-0.2,0-0.4-0.1-0.5-0.1
					c0,0-0.1,0-0.1,0c-0.1,0-0.3-0.1-0.4-0.1c-0.1,0-0.1,0-0.2-0.1c-0.2-0.1-0.3-0.1-0.5-0.2C352.5,168.1,352.4,168,352.2,167.9
					C352.3,167.9,352.2,167.9,352.2,167.9z"/>
				<g>
					<path class="st17" d="M352.7,168.2c-1.3-0.8-1.4-2,0-2.8c1.3-0.8,3.5-0.8,4.8,0c1.3,0.8,1.4,2,0,2.8
						C356.2,168.9,354,169,352.7,168.2z"/>
				</g>
			</g>
		</g>
		<path class="st1" d="M336.3,118.2l5.5-3.1l0,0c0.1,0,0.1-0.1,0.2-0.1c0.1,0,0.2-0.1,0.2-0.1c0.1-0.1,0.3-0.1,0.4-0.2
			c0.1-0.1,0.2-0.1,0.4-0.2c0.1-0.1,0.3-0.1,0.4-0.2c0.1,0,0.1,0,0.1-0.1c0.1,0,0.2,0,0.2-0.1c0.1,0,0.3-0.1,0.4-0.1
			c0.1,0,0.3-0.1,0.4-0.1c0.1,0,0.3-0.1,0.4-0.1c0.1,0,0.1,0,0.2,0c0.1,0,0.1,0,0.2,0c0.2,0,0.3,0,0.5-0.1c0.1,0,0.3,0,0.4,0
			c0.2,0,0.3,0,0.5,0c0.1,0,0.2,0,0.2,0c0.1,0,0.1,0,0.2,0c0.2,0,0.4,0,0.6,0c0.1,0,0.2,0,0.4,0c0.2,0,0.5,0,0.7,0.1
			c0.1,0,0.2,0,0.3,0c0,0,0,0,0,0c0.4,0.1,0.8,0.1,1.1,0.2c0.1,0,0.2,0.1,0.3,0.1c0.3,0.1,0.6,0.2,0.9,0.2c0.1,0,0.1,0,0.2,0.1
			c0.1,0,0.1,0,0.2,0.1c0.2,0.1,0.4,0.1,0.5,0.2c0.2,0.1,0.3,0.1,0.5,0.2c0.2,0.1,0.4,0.1,0.5,0.2c0.2,0.1,0.3,0.1,0.5,0.2
			c0.2,0.1,0.4,0.2,0.5,0.3c0.2,0.1,0.3,0.2,0.5,0.2c0.2,0.1,0.4,0.2,0.6,0.3c0.1,0.1,0.2,0.1,0.3,0.2c0.1,0.1,0.2,0.1,0.4,0.2
			c0.6,0.4,1.3,0.8,1.9,1.2c0.2,0.1,0.3,0.2,0.5,0.3c0.6,0.4,1.1,0.8,1.6,1.2c0.1,0.1,0.1,0.1,0.2,0.2c0.5,0.4,1,0.8,1.4,1.2
			c0.1,0.1,0.2,0.2,0.2,0.2c0.4,0.3,0.7,0.7,1.1,1.1c0.3,0.3,0.6,0.6,0.8,0.8c0.4,0.4,0.7,0.8,1.1,1.2c0.2,0.2,0.4,0.5,0.6,0.7
			c0.1,0.1,0.1,0.1,0.2,0.2c0.1,0.1,0.2,0.3,0.3,0.4c0.4,0.5,0.8,1.1,1.3,1.6c0.1,0.2,0.2,0.3,0.4,0.5c0.1,0.1,0.2,0.2,0.2,0.3
			c0.4,0.5,0.8,1.1,1.1,1.7c0.1,0.1,0.2,0.2,0.2,0.4c0.1,0.2,0.3,0.4,0.4,0.7c0.1,0.2,0.3,0.5,0.4,0.7c0.3,0.5,0.5,0.9,0.8,1.4
			c0.1,0.2,0.2,0.3,0.3,0.5c0.1,0.2,0.2,0.4,0.3,0.7c0.2,0.4,0.5,0.9,0.7,1.3c0.1,0.2,0.2,0.4,0.3,0.6c0.1,0.2,0.2,0.4,0.3,0.6
			c0.2,0.4,0.4,0.9,0.6,1.4c0.1,0.2,0.2,0.4,0.3,0.6c0.1,0.2,0.1,0.4,0.2,0.6c0.2,0.5,0.4,1,0.5,1.5c0.1,0.2,0.2,0.5,0.3,0.7
			c0.1,0.3,0.2,0.6,0.3,0.8c0,0.1,0.1,0.3,0.1,0.4c0.2,0.6,0.3,1.2,0.5,1.8c0,0.1,0.1,0.3,0.1,0.4c0,0.2,0.1,0.4,0.1,0.6
			c0.1,0.6,0.3,1.2,0.4,1.8c0,0.2,0.1,0.4,0.1,0.5c0,0.1,0,0.2,0,0.3c0.1,0.5,0.1,0.9,0.2,1.4c0,0.3,0.1,0.5,0.1,0.8
			c0.1,0.8,0.1,1.6,0.1,2.4c0,6.6-2.4,11.3-6.1,13.5l-5.5,3.1L336.3,118.2z"/>
		<path class="st2" d="M330.2,131.7c0-13.2,9.3-18.6,20.7-12.1c11.4,6.5,20.6,22.6,20.6,35.8c0,13.2-9.3,18.6-20.7,12.1
			C339.4,160.9,330.2,144.8,330.2,131.7z M368.6,154.2c-0.2-11.5-8.4-25.7-18.2-31.6c-9.8-5.9-17.7-1.3-17.5,10.2
			c0.2,11.5,8.4,25.7,18.2,31.6C361,170.3,368.9,165.7,368.6,154.2"/>
		<path class="st7" d="M368.6,154.2c0.2,11.5-7.6,16.1-17.5,10.2c-9.8-5.9-18-20.1-18.2-31.6c-0.2-11.5,7.6-16.1,17.5-10.2
			C360.3,128.5,368.4,142.7,368.6,154.2"/>
		<path class="st17" d="M335,131.6c0.2,11.5,8.4,25.7,18.2,31.6c4.4,2.6,8.3,3.2,11.4,2c-3.2,2.5-8,2.5-13.4-0.8
			c-9.8-5.9-18-20.1-18.2-31.6c-0.1-6.4,2.3-10.7,6.1-12.2C336.5,122.7,335,126.5,335,131.6z"/>
	</g>
	<g>
		<path class="st18" d="M197.3,163.9l12.3,7.2c2.1,1.2,2.1,4.2,0,5.4l-2.1,1.2c-2,1.1-4.5,1.1-6.5,0l-12.3-7.2
			c-2.1-1.2-2.1-4.2,0-5.4l2.1-1.2C192.8,162.7,195.3,162.8,197.3,163.9z"/>
		<g>
			<g>
				<path class="st19" d="M192.5,166c0,0,0.5-1.7,3.5-1.1c0.5,0.1,1,2.2,1,2.2l5.5,1.7c0,0-10.4,3.9-10.3,2.2
					C192.3,168.4,192.5,166,192.5,166z"/>
				<path class="st20" d="M190.8,122.2l1.7,44.3c1,1.4,4.4,0.2,4.4,0.2c0.2-1.3,3.4-42.1,3.4-42.1L190.8,122.2z"/>
			</g>
			<g>
				<path class="st21" d="M212,95.5c0.7,0.3,0.8-0.5,0.9-1.1c0-0.3,0.2-0.9,0.3-0.9c0.1-0.1,0.3,0.7,0.4,0.5c0.1-0.1,1.5-2.2,2.5-1
					c0.5,0.6-1,2.6-1.6,2.9c-1.2,0.6-1.4,0-2.2,0.9L212,95.5z"/>
				<path class="st22" d="M200.8,97c2.9,1.9,5.4,2.3,5.4,2.3l6.5-4.7c0,0,0.9-0.4,1.2,1.8c0,0-6.6,7.5-8.1,7.7
					c-1.5,0.2-3.6-0.9-7.1-2.8C192.8,98.1,197.7,95,200.8,97z"/>
			</g>
			<g>
				<path class="st19" d="M197.8,168.2c0,0,0.5-1.7,3.5-1.1c0.5,0.1,1,2.2,1,2.2l5.5,1.7c0,0-10.4,3.9-10.3,2.2
					C197.7,170.6,197.8,168.2,197.8,168.2z"/>
				<path class="st23" d="M196.2,125.6l1.7,42.9c1,1.4,4.4,0.2,4.4,0.2c0.2-1.3,3.4-42.1,3.4-42.1L196.2,125.6z"/>
			</g>
			<g>
				<polygon class="st24" points="201,92 201.7,96 197.9,95.8 198.6,92.3 				"/>
				<polygon class="st7" points="202.9,95.2 197.5,94.5 196.9,96.7 203.2,97 				"/>
				<path class="st24" d="M202.4,88.9c0.3,1.9-0.3,4-2.3,3.9c-1.6-0.1-3.1-1.2-3.3-3.1c-0.3-1.9,0.8-3.7,2.3-3.9
					C200.6,85.6,202.1,87,202.4,88.9z"/>
				<path class="st25" d="M198.3,93.2c0,0,0.7,0.6,1.7-0.3c0,0,0.6-1.2,0.5-1.9c0-0.5-0.7-1.1-0.6-1.6c0.3-0.8,1.1-0.7,1.3,0.9
					c0.1-0.8,4.2-2.7,1.6-4.6c-3.3-2.4-8.3-0.3-6.6,2.8C194.9,89,197.1,91.8,198.3,93.2z"/>
			</g>
			<path class="st26" d="M204.8,98.8c0.7,2.2,1.6,20.3,3,27c-2.6,3.4-14.9,4.1-18.4,0.2c0,0,1-13.3,4.7-25.7
				C195.7,95,200.4,93.2,204.8,98.8z"/>
			<g>
				<path class="st21" d="M218.5,100.1c1,0.2,1.3-1.1,1.6-1.7c1-2.1,0.8-0.6,0.9-0.6c0.4,0.1,2.2-0.8,2.4,0.2c0.3,1.1-1.2,1.8-2,2.3
					c-1.5,0.8-1.5-0.1-2.4,1L218.5,100.1z"/>
				<path class="st26" d="M203.6,97.3c5,5.4,5.5,6,5.5,6l10.3-4.3c0,0,2,0.3,1.3,2.4c0,0-9.6,8.1-11.9,8c-2.4-0.1-5.4-3.7-8.9-7.6
					C195.3,96.6,200.4,93.8,203.6,97.3z"/>
			</g>
		</g>
	</g>
	<g>
		<g>
			<path class="st0" d="M57.1,143C25.6,143,0,156.9,0,174c0,17.2,25.6,31.1,57.1,31.1c31.5,0,57.1-13.9,57.1-31.1
				C114.3,156.9,88.7,143,57.1,143z M57.1,192.7c-22.8,0-41.2-8.4-41.2-18.7c0-10.3,18.5-18.7,41.2-18.7c22.8,0,41.2,8.4,41.2,18.7
				C98.4,184.4,79.9,192.7,57.1,192.7z"/>
			<path class="st27" d="M113.1,152c0,0-8.5-21-56-21s-56,30.7-56,30.7v10.5c0,16.8,25.1,30.4,56,30.4c30.9,0,56-13.6,56-30.4V152z
				 M57.1,190.7c-22.3,0-40.4-8.2-40.4-18.3c0-10.1,18.1-18.3,40.4-18.3c22.3,0,40.4,8.2,40.4,18.3
				C97.5,182.5,79.4,190.7,57.1,190.7z"/>
			<path class="st28" d="M57.1,121.6c-30.9,0-56,13.6-56,30.4c0,16.8,25.1,30.4,56,30.4c30.9,0,56-13.6,56-30.4
				C113.1,135.2,88,121.6,57.1,121.6z M57.1,170.4c-22.3,0-40.4-8.2-40.4-18.3c0-10.1,18.1-18.3,40.4-18.3
				c22.3,0,40.4,8.2,40.4,18.3C97.5,162.2,79.4,170.4,57.1,170.4z"/>
		</g>
		<g>
			<path class="st29" d="M90.9,170.4c-7.2,5-19.7,8.3-33.8,8.3c-0.4,0-0.7,0-1.1,0v24.1c0.4,0,0.7,0,1.1,0c21,0,39.2-6.3,48.8-15.6
				c0-3.9,0-20.3,0-20.3S92.5,170.9,90.9,170.4z"/>
		</g>
		<g>
			<path class="st30" d="M90.9,162.1c-7.2,5-19.7,8.3-33.8,8.3c-0.4,0-0.7,0-1.1,0v12.1c0.4,0,0.7,0,1.1,0c21,0,39.2-6.3,48.8-15.6
				c-3.4-1.1-6.8-2.2-10.2-3.3C94.1,163,92.5,162.6,90.9,162.1z"/>
		</g>
		<g>
			<path class="st22" d="M56.3,182.2c-19.4,0.7-40.4-10.3-39.5-21c-5.2,0-15.6-8.4-15.6-8.4v19.5c0,16.7,24.6,30.2,55.2,30.4V182.2z
				"/>
			<path class="st26" d="M56.3,170.4c-21.4-0.2-38.6-7.9-39.5-17.5H1.2c0.8,16.3,25.1,29.4,55.1,29.6V170.4z"/>
		</g>
	</g>
	<path class="st0" d="M106.5,196l1.9,1.1c1.9,1.1,1.9,3.9,0,5l-11.4,6.6c-1.8,1.1-4.1,1.1-6,0l-1.9-1.1c-1.9-1.1-1.9-3.9,0-5
		l11.4-6.6C102.4,195,104.6,195,106.5,196z"/>
	<g>
		<path class="st18" d="M242.6,185.7l1.9,1.1c1.9,1.1,1.9,3.9,0,5l-11.4,6.6c-1.8,1.1-4.1,1.1-6,0l-1.9-1.1c-1.9-1.1-1.9-3.9,0-5
			l11.4-6.6C238.4,184.7,240.7,184.7,242.6,185.7z"/>
		<path class="st21" d="M230.5,132.2c0,0-2.3-1.1-2.5-1.4c-0.3-0.3-1.3-1.5-1.9-1.5c-0.4,0-0.1,0.3,0.2,0.8c0.6,1-1.7-1-2.2-0.2
			c-0.4,0.5,0,2.5,2.7,3c1.1,0.2,2.3,1.2,2.8,1.3L230.5,132.2z"/>
		<path class="st30" d="M236.9,127.2c1,5.7,2.4,8.8,2.4,8.8l-11.3-5.6c0,0-2.3-0.5-1.3,2.7c0,0,14.4,9.6,19.2,6.5
			c2.6-1.7-0.7-14-4.7-16C239,123,236.1,122.4,236.9,127.2z"/>
		<polygon class="st24" points="233.9,119.6 233.9,123.8 237.2,123.4 235.9,119.2 		"/>
		<polygon class="st8" points="233.9,121.8 237.1,121.4 237.9,123.2 233.2,123.9 		"/>
		<path class="st19" d="M241.3,188.2c0,0-1.3-0.5-4,0.3c-1.8,0.5-5.9,2-5.9,2s9.9,2.7,9.9,1.2C241.4,189.4,241.3,188.2,241.3,188.2z
			"/>
		<path class="st19" d="M235.7,191.2c0,0-1.2-0.1-4,0.3c-1.2,0.1-5.9,2-5.9,2s9.9,2.7,9.9,1.2C235.7,192.3,235.7,191.2,235.7,191.2z
			"/>
		<path class="st20" d="M244.4,147.3l-2.3,41.3c0,0-2.2,1-5.2-0.3l-0.3-40.2L244.4,147.3z"/>
		<path class="st23" d="M239.6,148.8l-3.2,43.2c-4.5,0.5-4.8-0.9-4.8-0.9c0.3-2.5-1-44.2-1-44.2L239.6,148.8z"/>
		<path class="st24" d="M231.6,116.8c0.2,1.9,1.2,3.9,3.2,3.2c1.5-0.5,2.7-1.9,2.5-3.8c-0.2-1.9-1.6-3.4-3.2-3.2
			C232.5,113.2,231.4,114.9,231.6,116.8z"/>
		<path class="st25" d="M236.5,119.9c0,0-0.6,0.7-1.7,0.1c0,0-0.9-1.1-1-1.7c-0.1-0.5,0.4-1.3,0.2-1.6c-0.5-0.7-1.2-0.4-1,1.2
			c-0.3-0.7-4.7-1.7-2.7-4.1c2.6-3.1,8-2.3,7.1,1.1C238.8,115.1,237.4,118.3,236.5,119.9z"/>
		<path class="st29" d="M229.9,125.6c0,0,0.9,16.5,0.9,25.4c3.3,3,14.2,0.4,14.9-1.3c0.7-1.7-0.3-3.3-0.6-5.3
			c-0.9-6.6,0-15.2-1.8-18.5C240.8,121.5,235.2,121.2,229.9,125.6z"/>
		<g>
			<polygon class="st25" points="233.7,157.7 222.9,151.2 222.9,161.5 233.5,167.7 			"/>
			<path class="st31" d="M223.2,155.1c0,0-0.5-0.3-0.5-0.3c0,0.1,0,3.4,0,3.4l0.5,0.2V155.1z"/>
		</g>
		<path class="st21" d="M226.5,155.7c-0.9,1.2-1.6,4.8,0.6,5.2c0.6,0.1,1.9-2.4,2-4.3"/>
		<path class="st30" d="M228.4,128.6c0.9-4.8,4.4-4.9,5,3.1c0.3,4,0.2,6.2-0.4,11.2c-0.4,3.7-3.4,14.6-3.4,14.7
			c-0.4,0.3-3.5-1.1-3.6-2.3c1.5-4.9,1.9-6.4,2.4-12.9C228.8,136.9,227.7,132.2,228.4,128.6z"/>
	</g>
	<g>
		<path class="st25" d="M67.7,137c-0.3,1.8-0.9,4.8-1.2,6.7c-0.1,0.7-0.2,1.3-0.1,2c0.1,0.7,0.4,1.3,0.9,1.7
			c0.7,0.5,1.6,0.4,2.5,0.3c1.3-0.1,2.6-0.3,3.8-0.4c0.7-0.1,1.3-0.1,1.9-0.4c0.6-0.2,1.2-0.7,1.4-1.3c0.3-0.8,0-1.6-0.3-2.4
			c-0.5-1.3-1-2.7-1.5-4c-0.2-0.6-0.5-1.3-0.8-1.9"/>
		<polygon class="st19" points="91.8,198.7 91.6,202.8 99.6,206.2 95.7,200.2 94.7,197.9 		"/>
		<polygon class="st19" points="97.8,196.1 97.6,200.1 106.2,201.1 101.7,197.6 100.6,195.2 		"/>
		<path class="st20" d="M72.4,163.8c-1.4,5.8,1.7,7.1,5.3,8.4c3.8,1.4,11.4,2.5,11.4,2.5l8.2,22.2c1.4,1,2.9,0.7,4.4-0.6l-6.9-25.3
			l-13.7-7.6L72.4,163.8z"/>
		<path class="st23" d="M68.8,166.6c-1.4,5.8,1.7,7.1,5.3,8.4c3.8,1.4,11.4,2.5,11.4,2.5l5.6,21.8c1.2,1.1,2.8,0.9,4.6,0L90.3,174
			L78,166.1L68.8,166.6z"/>
		<path class="st32" d="M82.3,163.9c-0.2-1.5-3.3-1.2-3-7.9c0.2-4.4-0.5-10-3-11.3c-2.1-1.1-6.2,0.8-7.4,1.5
			c-2.4,1.5-1.2,2.4-1.7,5.2c-0.5,2.8-0.3,15-0.3,17.8c0,1.1,9.6,3.2,14.8-3.5"/>
		<g>
			<path class="st33" d="M81.7,173.5c-0.7-0.4-6.1-3.6-7.3-4.2c-0.1-0.1-0.1-0.2,0-0.2l13.3-7.7c0,0,0.1,0,0.1,0l7.2,4.2
				c0.1,0.1,0.1,0.2,0,0.2l-13.3,7.7C81.8,173.5,81.7,173.5,81.7,173.5z"/>
			<path class="st34" d="M95.1,165.6l-13.2,7.7c-0.1,0-0.1,0-0.2,0l-7.2-4.2c-0.1-0.1-0.1-0.2,0-0.3l13.2-7.7c0.1,0,0.1,0,0.2,0
				l7.2,4.2C95.2,165.3,95.2,165.5,95.1,165.6z"/>
		</g>
		<path class="st24" d="M86.2,162.2c1.2,0.3,3.4,1.8,3.2,2.2c-0.2,0.4-1.4,1.5-4.1-1.1C82.5,160.7,86.2,162.2,86.2,162.2z"/>
		<path class="st35" d="M80.8,162.2l4.4,2c0.1-1,1.2-1.5,2.3-1.5l-7.3-4.9l-1-3.6c0,0,0,2.5,0,3.5C79.4,159.6,79.8,161.3,80.8,162.2
			z"/>
		<path class="st24" d="M71.1,145.8c-0.1,1,2.7,0.4,2.4-0.4c-0.2-1-0.4-2-0.6-3c-0.1-0.3-0.1-0.7-0.3-1c-0.8-1-1.4-0.2-1.4,0.6
			C71.1,143.3,71.2,144.6,71.1,145.8z"/>
		<path class="st24" d="M74.7,139.7c0.3-1,0.4-2.2,0-3.2c-0.4-1-1.4-1.8-2.5-1.9c-1.2,0-2.2,0.9-2.7,1.9c-0.4,1.1-0.4,2.3-0.1,3.4
			c0.2,0.9,0.6,1.9,1.3,2.5C72.9,144.4,74.1,141.4,74.7,139.7z"/>
		<path class="st25" d="M72.1,138.4c0,0.4,0.3,0.8,0.7,0.8c0.4,0.1,0.8-0.2,1-0.5c0.1,0.4,0.6,0.7,1,0.6c0.4-0.1,0.8-0.5,0.9-0.9
			c0.1-0.4,0.1-0.9,0-1.3c-0.1-0.4-0.2-0.8-0.4-1.2c-0.2-0.4-0.4-0.8-0.7-1.2c-0.8-0.8-3-1.3-4.1-0.4c-2.3-0.3-2.8,1.8-2.8,3.7
			c-0.2,1,0.6,1.8,0.9,2.8c0.2,0.5,0.6,0.7,1.2,0.7c0.5-0.1-0.8-1.1-0.5-2.3c0.1-0.7,0.8,0.8,1,0.7c0,0,0.2-1.4,0.2-1.5
			C70.9,138.6,71.6,139.2,72.1,138.4z"/>
		<path class="st24" d="M77.8,166.8c1.2,0.3,3.4,1.8,3.2,2.2c-0.2,0.4-1.4,1.5-4.1-1.1C74.1,165.3,77.8,166.8,77.8,166.8z"/>
		<path class="st35" d="M68.5,146.7c-3.4,0.6-2.9,13.4-1.7,16s10.1,5.9,10.1,5.9c0.3-1.2,0.9-1.8,1.7-1.9l-8.5-6.2c0,0,0-5.6,0-7.6
			C70.2,151.4,71.4,146.2,68.5,146.7z"/>
		<g>
			<path class="st27" d="M81.5,173c0.5-1.7,2.1-7,2.4-8c0-0.1,0.1-0.2,0.2-0.2l13-7.5c0.2-0.1,0.4,0.1,0.3,0.2l-2.4,8
				c0,0.1-0.1,0.2-0.2,0.2l-13,7.5C81.7,173.4,81.5,173.2,81.5,173z"/>
			<path class="st2" d="M81.9,173.2c0.5-1.7,2.1-7,2.4-8c0-0.1,0.1-0.2,0.2-0.2l13-7.5c0.2-0.1,0.4,0.1,0.3,0.2l-2.4,8
				c0,0.1-0.1,0.2-0.2,0.2l-13,7.5C82,173.5,81.8,173.3,81.9,173.2z"/>
		</g>
	</g>
	<g>
		<path class="st0" d="M141.7,193.9c1.2-0.7,3.2-0.7,4.4,0l84.9,49.3c1.2,0.7,1.2,1.8,0,2.5l-63.5,36.2c-1.2,0.7-3.2,0.7-4.4,0
			l-84.9-49.3c-1.2-0.7-1.2-1.8,0-2.5L141.7,193.9z"/>
		<g>
			<path class="st3" d="M141.9,192.9c1.2-0.7,3.1-0.7,4.3,0l83.4,48.5c1.2,0.7,1.2,1.8,0,2.5l-62.5,35.6c-1.2,0.7-3.1,0.7-4.3,0
				L79.5,231c-1.2-0.7-1.2-1.8,0-2.5L141.9,192.9z"/>
			<path class="st7" d="M142.8,196c1.1-0.6,2.9-0.6,4,0l77.5,45c1.1,0.6,1.1,1.7,0,2.3l-58,33.1c-1.1,0.6-2.9,0.6-4,0l-77.5-45
				c-1.1-0.6-1.1-1.7,0-2.3L142.8,196z"/>
			<path class="st1" d="M131.5,195.6c0.9-0.5,2.2-0.5,3.1,0l3.2,2c0.8,0.5,0.8,1.3,0,1.8l-44.7,25.5c-0.9,0.5-2.2,0.5-3.1,0l-3.2-2
				c-0.8-0.5-0.8-1.3,0-1.8L131.5,195.6z"/>
			<g>
				<path class="st34" d="M157.7,267.3c-0.3,0-0.6-0.2-0.8-0.5c-0.3-0.4-0.1-1,0.3-1.3l50.3-28.6c0.5-0.3,1-0.1,1.3,0.3
					c0.3,0.4,0.1,1-0.3,1.3l-50.3,28.6C158,267.3,157.9,267.3,157.7,267.3z M150.6,263c-0.3,0-0.6-0.2-0.8-0.5
					c-0.3-0.4-0.1-1,0.3-1.3l50.3-28.6c0.5-0.3,1-0.1,1.3,0.3c0.3,0.4,0.1,1-0.3,1.3l-50.3,28.6C151,263,150.8,263,150.6,263z
					 M143.6,258.7c-0.3,0-0.6-0.2-0.8-0.5c-0.3-0.4-0.1-1,0.3-1.3l50.3-28.6c0.5-0.3,1-0.1,1.3,0.3c0.3,0.4,0.1,1-0.3,1.3
					l-50.3,28.6C143.9,258.7,143.7,258.7,143.6,258.7z M136.5,254.4c-0.3,0-0.6-0.2-0.8-0.5c-0.3-0.4-0.1-1,0.3-1.3l50.3-28.6
					c0.5-0.3,1-0.1,1.3,0.3c0.3,0.4,0.1,1-0.3,1.3L137,254.3C136.8,254.4,136.7,254.4,136.5,254.4z M129.5,250.1
					c-0.3,0-0.6-0.2-0.8-0.5c-0.3-0.4-0.1-1,0.3-1.3l50.3-28.6c0.5-0.3,1-0.1,1.3,0.3c0.3,0.4,0.1,1-0.3,1.3L129.9,250
					C129.8,250.1,129.6,250.1,129.5,250.1z M122.4,245.8c-0.3,0-0.6-0.2-0.8-0.5c-0.3-0.4-0.1-1,0.3-1.3l50.3-28.6
					c0.5-0.3,1-0.1,1.3,0.3c0.3,0.4,0.1,1-0.3,1.3l-50.3,28.6C122.7,245.8,122.6,245.8,122.4,245.8z M115.3,241.5
					c-0.3,0-0.6-0.2-0.8-0.5c-0.3-0.4-0.1-1,0.3-1.3l50.3-28.6c0.5-0.3,1-0.1,1.3,0.3c0.3,0.4,0.1,1-0.3,1.3l-50.3,28.6
					C115.7,241.5,115.5,241.5,115.3,241.5z M108.3,237.2c-0.3,0-0.6-0.2-0.8-0.5c-0.3-0.4-0.1-1,0.3-1.3l50.3-28.6
					c0.5-0.3,1-0.1,1.3,0.3c0.3,0.4,0.1,1-0.3,1.3l-50.3,28.6C108.6,237.2,108.4,237.2,108.3,237.2z M101.2,232.9
					c-0.3,0-0.6-0.2-0.8-0.5c-0.3-0.4-0.1-1,0.3-1.3l50.3-28.6c0.5-0.3,1-0.1,1.3,0.3c0.3,0.4,0.1,1-0.3,1.3l-50.3,28.6
					C101.5,232.9,101.4,232.9,101.2,232.9z"/>
			</g>
		</g>
	</g>
	<g>
		<path class="st0" d="M224.3,309.7L191,290.5c-1.6-0.9-1.6-3.3,0-4.2l48.8-28.2c2.7-1.6,6.1-1.6,8.8,0l30.1,17.4
			c2.8,1.6,2.8,5.7,0,7.4l-46.5,26.8C229.8,311.1,226.8,311.1,224.3,309.7z"/>
		<path class="st1" d="M279.5,274.4l-2,0.3L244,255.3l-50,28.9v-0.6l-2.8-0.1v2.9c0,1.2,0.6,2.3,1.7,2.9l31.5,18.3
			c2.5,1.5,5.7,1.5,8.2,0l45.1-25.9c1.2-0.7,1.9-1.9,1.9-3.2V274.4z"/>
		<path class="st3" d="M224.7,304.2l-32.4-18.7c-1.5-0.9-1.5-3,0-3.9l47.5-27.4c2.6-1.5,5.8-1.5,8.4,0l29.3,16.9
			c2.7,1.5,2.7,5.4,0,7l-45.2,26.1C230,305.6,227.1,305.6,224.7,304.2z"/>
		<g>
			<path class="st2" d="M273.7,272.5l-26-15c-2.6-1.5-5.9-1.5-8.5,0l0,0c-1.9,1.1-1.9,3.8,0,4.9l26,15c2.6,1.5,5.9,1.5,8.5,0l0,0
				C275.6,276.3,275.6,273.6,273.7,272.5z"/>
			<path class="st1" d="M228,271.8l-5.6-3.2c-0.6-0.3-0.6-1.2,0-1.5l5.6-3.2c0.3-0.2,0.6-0.2,0.9,0l5.6,3.2c0.6,0.3,0.6,1.2,0,1.5
				l-5.6,3.2C228.6,271.9,228.3,271.9,228,271.8z"/>
			<path class="st1" d="M237.1,277l-5.6-3.2c-0.6-0.3-0.6-1.2,0-1.5l5.6-3.2c0.3-0.2,0.6-0.2,0.9,0l5.6,3.2c0.6,0.3,0.6,1.2,0,1.5
				L238,277C237.7,277.2,237.4,277.2,237.1,277z"/>
			<path class="st1" d="M246.2,282.3l-5.6-3.2c-0.6-0.3-0.6-1.2,0-1.5l5.6-3.2c0.3-0.2,0.6-0.2,0.9,0l5.6,3.2c0.6,0.3,0.6,1.2,0,1.5
				l-5.6,3.2C246.8,282.4,246.5,282.4,246.2,282.3z"/>
			<path class="st26" d="M255.3,287.5l-5.6-3.2c-0.6-0.3-0.6-1.2,0-1.5l5.6-3.2c0.3-0.2,0.6-0.2,0.9,0l5.6,3.2
				c0.6,0.3,0.6,1.2,0,1.5l-5.6,3.2C255.9,287.7,255.6,287.7,255.3,287.5z"/>
			<path class="st2" d="M218.9,277.1l-5.6-3.2c-0.6-0.3-0.6-1.2,0-1.5l5.6-3.2c0.3-0.2,0.6-0.2,0.9,0l5.6,3.2c0.6,0.3,0.6,1.2,0,1.5
				l-5.6,3.2C219.5,277.2,219.1,277.2,218.9,277.1z"/>
			<path class="st2" d="M228,282.3l-5.6-3.2c-0.6-0.3-0.6-1.2,0-1.5l5.6-3.2c0.3-0.2,0.6-0.2,0.9,0l5.6,3.2c0.6,0.3,0.6,1.2,0,1.5
				l-5.6,3.2C228.6,282.5,228.2,282.5,228,282.3z"/>
			<path class="st2" d="M237,287.6l-5.6-3.2c-0.6-0.3-0.6-1.2,0-1.5l5.6-3.2c0.3-0.2,0.6-0.2,0.9,0l5.6,3.2c0.6,0.3,0.6,1.2,0,1.5
				l-5.6,3.2C237.6,287.7,237.3,287.7,237,287.6z"/>
			<path class="st2" d="M246.1,292.8l-5.6-3.2c-0.6-0.3-0.6-1.2,0-1.5l5.6-3.2c0.3-0.2,0.6-0.2,0.9,0l5.6,3.2c0.6,0.3,0.6,1.2,0,1.5
				l-5.6,3.2C246.7,293,246.4,293,246.1,292.8z"/>
			<path class="st2" d="M209.7,282.4l-5.6-3.2c-0.6-0.3-0.6-1.2,0-1.5l5.6-3.2c0.3-0.2,0.6-0.2,0.9,0l5.6,3.2c0.6,0.3,0.6,1.2,0,1.5
				l-5.6,3.2C210.3,282.5,210,282.5,209.7,282.4z"/>
			<path class="st2" d="M218.8,287.6l-5.6-3.2c-0.6-0.3-0.6-1.2,0-1.5l5.6-3.2c0.3-0.2,0.6-0.2,0.9,0l5.6,3.2c0.6,0.3,0.6,1.2,0,1.5
				l-5.6,3.2C219.4,287.8,219,287.8,218.8,287.6z"/>
			<path class="st2" d="M227.9,292.9l-5.6-3.2c-0.6-0.3-0.6-1.2,0-1.5l5.6-3.2c0.3-0.2,0.6-0.2,0.9,0l5.6,3.2c0.6,0.3,0.6,1.2,0,1.5
				l-5.6,3.2C228.5,293,228.1,293,227.9,292.9z"/>
			<path class="st29" d="M227.1,303l-4.8-2.7c-0.7-0.4-0.7-1.3,0-1.7l13.9-8c0.7-0.4,1.5-0.4,2.1,0l4.8,2.7c0.7,0.4,0.7,1.3,0,1.7
				l-13.9,8C228.6,303.4,227.8,303.4,227.1,303z"/>
			<path class="st2" d="M200.5,287.7l-5.6-3.2c-0.6-0.3-0.6-1.2,0-1.5l5.6-3.2c0.3-0.2,0.6-0.2,0.9,0l5.6,3.2c0.6,0.3,0.6,1.2,0,1.5
				l-5.6,3.2C201.1,287.8,200.8,287.8,200.5,287.7z"/>
			<path class="st2" d="M209.6,292.9l-5.6-3.2c-0.6-0.3-0.6-1.2,0-1.5l5.6-3.2c0.3-0.2,0.6-0.2,0.9,0l5.6,3.2c0.6,0.3,0.6,1.2,0,1.5
				l-5.6,3.2C210.2,293.1,209.9,293.1,209.6,292.9z"/>
			<path class="st2" d="M218.7,298.2l-5.6-3.2c-0.6-0.3-0.6-1.2,0-1.5l5.6-3.2c0.3-0.2,0.6-0.2,0.9,0l5.6,3.2c0.6,0.3,0.6,1.2,0,1.5
				l-5.6,3.2C219.3,298.3,219,298.3,218.7,298.2z"/>
		</g>
	</g>
	<g>
		<g>
			<ellipse class="st0" cx="127.4" cy="156.6" rx="13" ry="6.9"/>
			<path class="st28" d="M112.7,137.3l2.9,17.4c0.3,4.1,5.5,7.2,11.7,7.2c6.2,0,11.4-3.2,11.7-7.2l2.9-17.4H112.7z"/>
			<path class="st1" d="M112.7,134v4.5c0,4.8,6.5,8.7,14.5,8.7c8,0,14.5-3.9,14.5-8.7V134H112.7z"/>
			<ellipse class="st2" cx="127.3" cy="134" rx="14.5" ry="8.7"/>
			<g>
				<path class="st7" d="M127.3,141.2c-7.9,0-13.4-3.8-13.4-7.2c0-3.4,5.5-7.2,13.4-7.2c7.9,0,13.4,3.8,13.4,7.2
					C140.7,137.4,135.2,141.2,127.3,141.2z"/>
				<path class="st28" d="M127.3,141.2c-7.9,0-13.4-3.8-13.4-7.2c0-3.4,5.5-7.2,13.4-7.2c7.9,0,13.4,3.8,13.4,7.2
					C140.7,137.4,135.2,141.2,127.3,141.2z"/>
			</g>
			<path class="st27" d="M127.3,131.7c-6,0-10.7,2.2-12.5,4.8c1.9,2.6,6.5,4.8,12.5,4.8c6,0,10.7-2.2,12.5-4.8
				C137.9,133.9,133.3,131.7,127.3,131.7z"/>
		</g>
		<path class="st36" d="M121.6,120.2c0.2-1.5,0.4-3.1,1.1-4.4c0.7-1.4,2-2.5,3.5-2.7c1.6-0.2,3.2,0.8,4.2,2.1c1,1.3,1.4,3,1.7,4.6
			c0.9,4.2,1.4,8.4,1.3,12.7c0,1.5-0.1,3.2-0.9,4.5c-1,1.6-3.1,2.4-5,2.4c-1.4,0-4.5-0.2-5.5-1.3c-1-1-0.7-3.9-0.8-5.2
			C121,128.6,121.2,124.4,121.6,120.2z"/>
		<path class="st36" d="M117.5,124.9c-1.1-2.1-1.3-4.6-0.7-6.8c0.2-0.7,0.6-1.5,1.3-1.5c0.6,0,1,0.7,1.1,1.3c0,0.6-0.2,1.2-0.2,1.8
			c-0.2,1.6,0.6,3.2,2,4c0.7,0.4,1.5,0.6,2.1,1.1c0.8,0.6,1.2,1.6,1,2.5C123.5,132.1,118.4,126.8,117.5,124.9z"/>
		<path class="st36" d="M135.4,127c1.4-1.3,2.4-3.2,2.7-5.1c0.1-0.7,0.1-1.6-0.5-2.1c-0.6-0.5-1.7-0.4-2.2,0.2
			c-0.6,0.6-0.8,1.4-1,2.2c-0.1,0.8-0.2,1.7-0.4,2.4c-0.3,0.8-0.9,1.5-1.7,1.7c-0.9,0.2-2-0.4-2.7,0.2c-1.5,1.1-0.1,2.7,1.2,2.7
			C132.3,129.2,134.2,128,135.4,127z"/>
	</g>
	<g>
		<path class="st0" d="M72.3,245.7L72.3,245.7c1.1-0.6,2.5-0.6,3.6,0l55.6,32.3c2.4,1.4,2.4,4.9,0,6.2l0,0c-1.1,0.6-2.5,0.6-3.6,0
			L72.3,252C69.9,250.6,69.9,247.1,72.3,245.7z"/>
		<g>
			<path class="st3" d="M124.8,271.7c0.2-0.1,0.3-0.1,0.5-0.1c0,0,0,0,0,0c0.2,0,0.3,0,0.5,0c0,0,0,0,0,0c0.2,0,0.3,0.1,0.4,0.2
				l-49.6-28.9c0,0,0,0,0,0c0,0-0.1-0.1-0.1-0.1c-0.1,0-0.1,0-0.2-0.1c0,0-0.1,0-0.1,0c0,0,0,0,0,0c0,0,0,0,0,0c-0.1,0-0.1,0-0.2,0
				c-0.1,0-0.1,0-0.2,0c0,0,0,0-0.1,0c0,0,0,0,0,0c0,0-0.1,0-0.1,0c-0.1,0-0.2,0-0.3,0.1c0,0-0.1,0-0.1,0c0,0-0.1,0-0.1,0
				c0,0-0.1,0-0.1,0c-0.1,0.1-0.3,0.1-0.4,0.2c-0.2,0.1-0.4,0.2-0.5,0.4c-0.1,0-0.1,0.1-0.2,0.1c-0.1,0.1-0.2,0.1-0.3,0.2
				c0,0-0.1,0.1-0.1,0.1c0,0-0.1,0.1-0.1,0.1c0,0-0.1,0.1-0.1,0.1c-0.1,0.1-0.2,0.2-0.2,0.3c0,0-0.1,0.1-0.1,0.1c0,0,0,0,0,0.1
				c0,0-0.1,0.1-0.1,0.1c-0.1,0.1-0.1,0.2-0.2,0.3c-0.1,0.1-0.1,0.2-0.2,0.2c0,0,0,0,0,0c0,0,0,0,0,0c0,0.1-0.1,0.1-0.1,0.2
				c0,0.1-0.1,0.2-0.1,0.2c0,0.1-0.1,0.1-0.1,0.2c0,0,0,0,0,0c0,0,0,0,0,0c0,0.1-0.1,0.2-0.1,0.3c0,0.1-0.1,0.2-0.1,0.3
				c0,0,0,0.1,0,0.1c0,0,0,0,0,0.1c0,0,0,0.1,0,0.1c0,0.1-0.1,0.2-0.1,0.3c0,0.1,0,0.1,0,0.2c0,0,0,0.1,0,0.1c0,0,0,0.1,0,0.1
				c0,0.2,0,0.4,0,0.6c0,0.9,0.3,1.6,0.9,1.9l49.6,28.9c-0.5-0.3-0.8-1-0.9-1.9c0-0.2,0-0.4,0.1-0.7c0,0,0-0.1,0-0.1
				c0-0.2,0.1-0.4,0.1-0.6c0,0,0,0,0-0.1c0.1-0.2,0.2-0.5,0.3-0.7c0,0,0,0,0,0c0.1-0.2,0.2-0.5,0.3-0.7c0,0,0,0,0,0
				c0.1-0.2,0.3-0.4,0.4-0.6c0,0,0,0,0-0.1c0.1-0.2,0.3-0.3,0.4-0.5c0,0,0.1-0.1,0.1-0.1c0.1-0.1,0.2-0.2,0.4-0.3
				c0.1,0,0.1-0.1,0.2-0.1c0.2-0.1,0.4-0.3,0.5-0.4c0.2-0.1,0.4-0.2,0.5-0.2C124.7,271.7,124.8,271.7,124.8,271.7z"/>
			<path class="st1" d="M71.7,247.5C71.7,247.5,71.7,247.5,71.7,247.5c0-0.1,0-0.2,0-0.2c0-0.1,0-0.1,0-0.2c0-0.1,0.1-0.2,0.1-0.3
				c0,0,0-0.1,0-0.1c0,0,0,0,0-0.1c0,0,0-0.1,0-0.1c0-0.1,0.1-0.2,0.1-0.3c0-0.1,0.1-0.2,0.1-0.3c0,0,0,0,0,0c0,0,0,0,0,0
				c0-0.1,0.1-0.1,0.1-0.2c0-0.1,0.1-0.2,0.1-0.2c0-0.1,0.1-0.1,0.1-0.2c0,0,0,0,0,0c0,0,0,0,0,0c0-0.1,0.1-0.2,0.2-0.2
				c0.1-0.1,0.1-0.2,0.2-0.3c0,0,0-0.1,0.1-0.1c0,0,0,0,0-0.1c0,0,0.1-0.1,0.1-0.1c0.1-0.1,0.2-0.2,0.2-0.3c0,0,0.1-0.1,0.1-0.1
				c0,0,0.1-0.1,0.1-0.1c0,0,0.1-0.1,0.1-0.1c0.1-0.1,0.2-0.1,0.3-0.2c0.1,0,0.1-0.1,0.2-0.1c0.2-0.1,0.4-0.3,0.5-0.4
				c0.1-0.1,0.3-0.1,0.4-0.2c0,0,0.1,0,0.1,0c0,0,0.1,0,0.1,0c0,0,0.1,0,0.1,0c0.1,0,0.2,0,0.3-0.1c0,0,0.1,0,0.1,0c0,0,0,0,0,0
				c0,0,0,0,0.1,0c0.1,0,0.1,0,0.2,0c0.1,0,0.1,0,0.2,0c0,0,0,0,0,0c0,0,0,0,0,0c0,0,0.1,0,0.1,0c0.1,0,0.1,0,0.2,0.1
				c0.1,0,0.1,0,0.1,0.1c0,0,0,0,0,0l2.6,1.5c0,0,0,0,0,0c0,0,0,0-0.1,0c0,0,0,0,0,0c0,0-0.1,0-0.1,0c-0.1,0-0.2,0-0.3,0.1
				c0,0-0.1,0-0.1,0c0,0-0.1,0-0.1,0c0,0-0.1,0-0.1,0c-0.1,0.1-0.3,0.1-0.4,0.2c-0.2,0.1-0.4,0.3-0.6,0.4c-0.1,0-0.1,0.1-0.2,0.2
				c-0.1,0.1-0.2,0.2-0.3,0.2c0,0-0.1,0.1-0.1,0.1c0,0-0.1,0.1-0.1,0.1c0,0-0.1,0.1-0.1,0.1c-0.1,0.1-0.2,0.2-0.3,0.3
				c0,0-0.1,0.1-0.1,0.1c0,0,0,0,0,0.1c0,0-0.1,0.1-0.1,0.1c-0.1,0.1-0.1,0.2-0.2,0.3c-0.1,0.1-0.1,0.2-0.2,0.3c0,0,0,0,0,0
				c0,0,0,0,0,0c0,0.1-0.1,0.1-0.1,0.2c0,0.1-0.1,0.2-0.1,0.3c0,0.1-0.1,0.2-0.1,0.2c0,0,0,0,0,0c0,0,0,0,0,0c0,0.1-0.1,0.2-0.1,0.3
				c0,0.1-0.1,0.2-0.1,0.3c0,0,0,0.1,0,0.1c0,0,0,0,0,0.1c0,0,0,0.1,0,0.1c0,0.1-0.1,0.2-0.1,0.4c0,0.1,0,0.1,0,0.2c0,0,0,0.1,0,0.1
				c0,0,0,0.1,0,0.1c0,0.2,0,0.4,0,0.6c0,0.5,0.1,0.9,0.2,1.2l-2.6-1.5c-0.5-0.3-0.8-1-0.9-1.9C71.7,247.9,71.7,247.7,71.7,247.5z"
				/>
			<g>
				<path class="st7" d="M124.2,271.9c0.8-0.5,1.5-0.5,2.1-0.2c0.5,0.3,7.1,9.8,7.1,9.8s-10.7-2.4-11.2-2.7c-0.5-0.3-0.9-1-0.9-1.9
					C121.3,275.1,122.6,272.9,124.2,271.9z"/>
			</g>
			<path class="st1" d="M130.6,277.7c1.4,2,2.7,3.8,2.7,3.8s-1.9-0.4-4.2-0.9C128.2,279.2,129.9,277.4,130.6,277.7z"/>
		</g>
	</g>
</g>
</svg>
