<?xml version="1.0" encoding="utf-8"?>
<!-- Generator: Adobe Illustrator 21.0.2, SVG Export Plug-In . SVG Version: 6.00 Build 0)  -->
<svg version="1.1" id="Layer_1" xmlns="http://www.w3.org/2000/svg" xmlns:xlink="http://www.w3.org/1999/xlink" x="0px" y="0px"
	 viewBox="0 0 292.8 276.6" style="enable-background:new 0 0 292.8 276.6;" xml:space="preserve">
<style type="text/css">
	.st0{fill:url(#SVGID_1_);}
	.st1{fill:url(#SVGID_2_);}
	.st2{fill:url(#SVGID_3_);}
	.st3{fill:url(#SVGID_4_);}
	.st4{fill:url(#SVGID_5_);}
	.st5{fill:url(#SVGID_6_);}
	.st6{fill:url(#SVGID_7_);}
	.st7{fill:url(#SVGID_8_);}
	.st8{fill:url(#SVGID_9_);}
	.st9{fill:url(#SVGID_10_);}
	.st10{fill:url(#SVGID_11_);}
	.st11{fill:url(#SVGID_12_);}
	.st12{fill:#629FF9;}
	.st13{fill:#306DC6;}
	.st14{fill:#BDDEFF;}
	.st15{fill:#55C3FE;}
	.st16{fill:#179ECC;}
	.st17{fill:#97DFFF;}
	.st18{fill:#35AFE5;}
	.st19{fill:#F0FBFF;}
	.st20{fill:#FFFFFF;}
	.st21{fill:#FF64A9;}
	.st22{fill:#ED358D;}
	.st23{fill:#FFBDDD;}
	.st24{fill:#D1D2D3;}
	.st25{opacity:0.3;fill:#F4DCBD;}
	.st26{fill:#39E5D4;}
	.st27{fill:#24C1D1;}
	.st28{fill:#62F9E6;}
	.st29{fill:#49A3DB;}
	.st30{fill:#2F96C9;}
	.st31{fill:#7DD6F9;}
	.st32{fill:#B26ABF;}
	.st33{fill:#CC75DB;}
	.st34{fill:#DA8CE5;}
	.st35{fill:#3E82E5;}
	.st36{fill:#2760C4;}
	.st37{fill:#57A0F7;}
	.st38{fill:#5A34D1;}
	.st39{fill:#4721A5;}
	.st40{fill:#7A5DF4;}
	.st41{fill:#8ABFFF;}
	.st42{fill:#2E4759;}
	.st43{fill:#40B5B5;}
	.st44{fill:#F6F5FB;}
	.st45{fill:#235999;}
	.st46{fill:#2F6FAF;}
	.st47{fill:#2B2B2B;}
	.st48{fill:#04467C;}
	.st49{fill:#098EB2;}
	.st50{fill:#FCAF90;}
	.st51{fill:#DFECF2;}
	.st52{fill:#1067BF;}
	.st53{fill:#333333;}
	.st54{fill:#F789C3;}
	.st55{fill:#E846A3;}
	.st56{fill:#7A8389;}
	.st57{fill:#F2C555;}
	.st58{fill:#6DAAE2;}
	.st59{fill:#E54E8C;}
	.st60{fill:#02D1AF;}
	.st61{fill:#6E777F;}
	.st62{fill:#F79800;}
	.st63{fill:#FEDC78;}
	.st64{fill:#03F4D1;}
	.st65{fill:#8EC2FC;}
	.st66{fill:#353535;}
	.st67{fill:#5B5B5B;}
	.st68{fill:#164072;}
	.st69{fill:#E2E2E2;}
	.st70{fill:#EDF4F4;}
	.st71{fill:#F7FFFF;}
	.st72{fill:#70380F;}
	.st73{fill:#A0A0A0;}
	.st74{fill:#D6D6D6;}
	.st75{fill:url(#SVGID_13_);}
	.st76{fill:#EFEFEF;}
	.st77{fill:#2D2D2D;}
	.st78{fill:#444444;}
	.st79{fill:#113559;}
	.st80{fill:#1C0687;}
	.st81{opacity:0.4;}
	.st82{fill:#A3A3A3;}
	.st83{fill:url(#SVGID_14_);}
	.st84{fill:#F2E941;}
	.st85{fill:#6B79FC;}
	.st86{fill:#F438B1;}
	.st87{fill:#2C4370;}
	.st88{fill:#282828;}
	.st89{fill:#1C1C1C;}
	.st90{fill:#17253D;}
	.st91{fill:#1B2A49;}
	.st92{fill:#27365B;}
	.st93{fill:#EA977A;}
	.st94{fill:#BC610F;}
	.st95{fill:#EF6FB5;}
	.st96{opacity:0.6;fill:url(#SVGID_15_);}
	.st97{opacity:0.6;fill:url(#SVGID_16_);}
	.st98{fill:#D8128D;}
	.st99{fill:#F431A1;}
	.st100{fill:#86E5FF;}
	.st101{fill:#F3FDFF;}
</style>
<g>
	<g>
		
			<radialGradient id="SVGID_1_" cx="257.1888" cy="40.5261" r="35.2683" gradientTransform="matrix(-0.9696 0 0 0.5753 412.9307 218.5922)" gradientUnits="userSpaceOnUse">
			<stop  offset="0" style="stop-color:#7C969E"/>
			<stop  offset="0.148" style="stop-color:#819AA2;stop-opacity:0.852"/>
			<stop  offset="0.332" style="stop-color:#91A7AD;stop-opacity:0.668"/>
			<stop  offset="0.5351" style="stop-color:#AABBC0;stop-opacity:0.4649"/>
			<stop  offset="0.752" style="stop-color:#CDD7DA;stop-opacity:0.248"/>
			<stop  offset="0.9775" style="stop-color:#FAFBFB;stop-opacity:2.245986e-02"/>
			<stop  offset="1" style="stop-color:#FFFFFF;stop-opacity:0"/>
		</radialGradient>
		<ellipse class="st0" cx="163.6" cy="241.9" rx="35.3" ry="20.6"/>
		
			<radialGradient id="SVGID_2_" cx="168.0331" cy="22.3621" r="35.268" gradientTransform="matrix(-0.9696 0 0 0.5753 412.9307 216.3466)" gradientUnits="userSpaceOnUse">
			<stop  offset="0" style="stop-color:#7C969E"/>
			<stop  offset="1" style="stop-color:#FFFFFF;stop-opacity:0"/>
		</radialGradient>
		<ellipse class="st1" cx="250" cy="229.2" rx="35.3" ry="20.6"/>
		
			<radialGradient id="SVGID_3_" cx="227.5925" cy="-10.5175" r="22.3191" gradientTransform="matrix(-0.9696 0 0 0.5753 412.9307 212.2817)" gradientUnits="userSpaceOnUse">
			<stop  offset="0" style="stop-color:#7C969E"/>
			<stop  offset="1" style="stop-color:#FFFFFF;stop-opacity:0"/>
		</radialGradient>
		<ellipse class="st2" cx="192.3" cy="206.2" rx="22.3" ry="13.1"/>
		
			<radialGradient id="SVGID_4_" cx="304.4379" cy="31.2887" r="25.5101" gradientTransform="matrix(-0.9696 0 0 0.5753 412.9307 217.4502)" gradientUnits="userSpaceOnUse">
			<stop  offset="0" style="stop-color:#7C969E"/>
			<stop  offset="1" style="stop-color:#FFFFFF;stop-opacity:0"/>
		</radialGradient>
		<ellipse class="st3" cx="117.7" cy="235.5" rx="25.5" ry="14.9"/>
		
			<radialGradient id="SVGID_5_" cx="361.0618" cy="20.0446" r="37.6502" gradientTransform="matrix(-0.9696 0 0 0.5753 412.9307 216.0601)" gradientUnits="userSpaceOnUse">
			<stop  offset="0" style="stop-color:#7C969E"/>
			<stop  offset="1" style="stop-color:#FFFFFF;stop-opacity:0"/>
		</radialGradient>
		<ellipse class="st4" cx="62.8" cy="227.6" rx="37.7" ry="22"/>
		
			<radialGradient id="SVGID_6_" cx="339.9737" cy="26.8173" r="37.6501" gradientTransform="matrix(-0.9696 0 0 0.5753 412.9307 216.8974)" gradientUnits="userSpaceOnUse">
			<stop  offset="0" style="stop-color:#7C969E"/>
			<stop  offset="1" style="stop-color:#FFFFFF;stop-opacity:0"/>
		</radialGradient>
		<ellipse class="st5" cx="83.3" cy="232.3" rx="37.7" ry="22"/>
		
			<radialGradient id="SVGID_7_" cx="339.9737" cy="32.4239" r="37.6497" gradientTransform="matrix(-0.9696 0 0 0.5753 412.9307 217.5905)" gradientUnits="userSpaceOnUse">
			<stop  offset="0" style="stop-color:#7C969E"/>
			<stop  offset="1" style="stop-color:#FFFFFF;stop-opacity:0"/>
		</radialGradient>
		<ellipse class="st6" cx="83.3" cy="236.2" rx="37.7" ry="22"/>
		
			<radialGradient id="SVGID_8_" cx="387.0319" cy="44.4161" r="37.6499" gradientTransform="matrix(-0.9696 0 0 0.5753 412.9307 219.0731)" gradientUnits="userSpaceOnUse">
			<stop  offset="0" style="stop-color:#7C969E"/>
			<stop  offset="1" style="stop-color:#FFFFFF;stop-opacity:0"/>
		</radialGradient>
		<ellipse class="st7" cx="37.7" cy="244.6" rx="37.7" ry="22"/>
		
			<radialGradient id="SVGID_9_" cx="326.7142" cy="17.1537" r="37.6501" gradientTransform="matrix(-0.9696 0 0 0.5753 412.9307 215.7027)" gradientUnits="userSpaceOnUse">
			<stop  offset="0" style="stop-color:#7C969E"/>
			<stop  offset="1" style="stop-color:#FFFFFF;stop-opacity:0"/>
		</radialGradient>
		<ellipse class="st8" cx="96.1" cy="225.6" rx="37.7" ry="22"/>
		
			<radialGradient id="SVGID_10_" cx="289.9181" cy="23.0691" r="25.5097" gradientTransform="matrix(-0.9696 0 0 0.5753 412.9307 216.434)" gradientUnits="userSpaceOnUse">
			<stop  offset="0" style="stop-color:#7C969E"/>
			<stop  offset="1" style="stop-color:#FFFFFF;stop-opacity:0"/>
		</radialGradient>
		<ellipse class="st9" cx="131.8" cy="229.7" rx="25.5" ry="14.9"/>
		
			<radialGradient id="SVGID_11_" cx="251.5755" cy="-7.1507" r="25.5092" gradientTransform="matrix(-0.9696 0 0 0.5753 412.9307 212.698)" gradientUnits="userSpaceOnUse">
			<stop  offset="0" style="stop-color:#7C969E"/>
			<stop  offset="1" style="stop-color:#FFFFFF;stop-opacity:0"/>
		</radialGradient>
		<ellipse class="st10" cx="169" cy="208.6" rx="25.5" ry="14.9"/>
		
			<radialGradient id="SVGID_12_" cx="244.3497" cy="-15.6469" r="25.5097" gradientTransform="matrix(-0.9696 0 0 0.5753 412.9307 211.6476)" gradientUnits="userSpaceOnUse">
			<stop  offset="0" style="stop-color:#7C969E"/>
			<stop  offset="1" style="stop-color:#FFFFFF;stop-opacity:0"/>
		</radialGradient>
		<ellipse class="st11" cx="176" cy="202.6" rx="25.5" ry="14.9"/>
		<g>
			<g>
				<g>
					<polygon class="st12" points="76.2,239.8 44,221.1 44,121.7 76.2,140.3 					"/>
					<polygon class="st13" points="169.5,185.7 76.2,239.5 76.2,140.3 170,86.4 					"/>
					<polygon class="st14" points="137.8,67.8 44,121.7 76.2,140.3 170,86.4 					"/>
				</g>
				<polygon class="st13" points="74.2,151.9 46,135.7 46,140.3 74.2,156.6 				"/>
				<polygon class="st13" points="74.2,159.1 46,142.8 46,147.5 74.2,163.8 				"/>
				<polygon class="st13" points="74.2,217.4 46,201.1 46,205.8 74.2,222.1 				"/>
				<polygon class="st13" points="74.2,224.6 46,208.3 46,212.9 74.2,229.2 				"/>
			</g>
			<g>
				<g>
					<g>
						<g>
							<path class="st15" d="M189.1,198.6L189.1,198.6l0-4.9l-3.5,1.8l-6.1-3.5c-2-1.2-5.2-1.2-7.2,0l-61.7,35.6l-3.5-1.7v4.8l0,0
								c-0.1,0.8,0.4,1.6,1.5,2.3l8.1,4.7c2,1.2,5.2,1.2,7.2,0l63.7-36.8C188.6,200.3,189.1,199.4,189.1,198.6z"/>
							<path class="st16" d="M110.5,227.6l-3.5-1.7v4.8l0,0c-0.1,0.8,0.4,1.6,1.5,2.3l8.1,4.7c1,0.6,2.2,0.8,3.5,0.9V222
								L110.5,227.6z"/>
							<path class="st17" d="M116.6,232.5c2,1.2,5.2,1.2,7.2,0l63.7-36.8c2-1.2,2-3,0-4.2l-8.1-4.7c-2-1.2-5.2-1.2-7.2,0l-63.7,36.8
								c-2,1.2-2,3,0,4.2L116.6,232.5z"/>
						</g>
						<path class="st18" d="M209.6,78.5l-4.2-2.4c-0.1-0.1-0.2-0.1-0.3-0.2l0,0l0,0c-0.4-0.2-0.9-0.1-1.5,0.2L83.8,145.5
							c-1.3,0.7-2.3,2.5-2.3,4v92.1c0,0.7,0.3,1.3,0.7,1.5c0.1,0,0.1,0.1,0.2,0.1l4.1,2.4l0.9-4.5l-1.2,0.5l117.6-67.9
							c1.3-0.7,2.3-2.5,2.3-4V81.1L209.6,78.5z"/>
						<path class="st17" d="M205.5,76.2c-0.1-0.1-0.2-0.1-0.3-0.2l0,0l0,0c-0.4-0.2-0.9-0.1-1.5,0.2L83.8,145.5
							c-0.6,0.3-1.1,0.9-1.5,1.5l80.1,50.6l41.2-23.8c1.3-0.7,2.3-2.5,2.3-4V81.1l3.6-2.5L205.5,76.2z"/>
						<path class="st15" d="M210.3,172.1c0,1.5-1,3.3-2.3,4L88.1,245.4c-1.3,0.7-2.3,0.1-2.3-1.3V152c0-1.5,1-3.3,2.3-4L208,78.7
							c1.3-0.7,2.3-0.1,2.3,1.3V172.1z"/>
						<polygon class="st19" points="208.1,165.4 88,234.7 88,151.8 208.1,82.5 						"/>
						<polygon class="st20" points="206.9,83.2 206.9,164.5 88,233.1 88,234.7 208.1,165.4 208.1,82.5 						"/>
					</g>
				</g>
			</g>
			<g>
				<g>
					<polygon class="st21" points="194.1,209.5 185.7,204.8 185.7,170.1 194.1,170.1 					"/>
					<polygon class="st22" points="194.1,209.5 199,206.6 199,170.1 194.1,170.1 					"/>
				</g>
				<g>
					<path class="st23" d="M196.4,142.2L196.4,142.2c-2.4-1.4-5.8-1.2-9.6,1c-7.5,4.3-13.5,14.8-13.5,23.4c0,4.2,1.4,7.2,3.8,8.7
						c0.2,0.1,0.4,0.2,0.6,0.3l0,0l20.3,10.6l21-33.2L196.4,142.2z"/>
					<g>
						<path class="st21" d="M216.1,151.7C216.1,151.7,216.1,151.7,216.1,151.7c-3.5-0.9-6.8-1.2-10.3,0.9
							c-7.4,4.5-13.5,14.8-13.5,23.4c0,3.9,1.3,6.8,3.4,8.3c0,0,0,0,0,0c19.2,13.7,38.8,41.6,38.8,41.6s17-31.1,42-66.5
							C245.8,159.4,216.1,151.7,216.1,151.7z"/>
						<path class="st22" d="M232.8,215.5c0,19.1,13.4,26.9,30,17.3c16.6-9.6,30-32.9,30-52c0-19.1-13.4-26.9-30-17.3
							C246.2,173.1,232.8,196.4,232.8,215.5z"/>
						<g>
							<path class="st24" d="M236.1,197.8l21,10.7l12.1-20.1l-20.9-12.2C243.1,182.5,238.9,190.1,236.1,197.8z"/>
							<path class="st20" d="M254.5,203c0,5.3,3.7,7.4,8.3,4.8c4.6-2.7,8.3-9.1,8.3-14.4c0-5.3-3.7-7.4-8.3-4.8
								C258.2,191.2,254.5,197.7,254.5,203z"/>
						</g>
						<path class="st25" d="M259.5,186.9c15.2-8.7,27.7-3,29.7,12.7c2.3-6.3,3.6-12.7,3.6-18.7c0-19.1-13.4-26.9-30-17.3
							c-16.6,9.6-30,32.9-30,52c0,1.6,0.1,3.2,0.3,4.7C238.2,206.5,248.1,193.4,259.5,186.9z"/>
					</g>
				</g>
			</g>
			<g>
				<g>
					<g>
						<g>
							<g>
								<polygon class="st26" points="136.9,202.2 141.9,199.3 141.9,158.8 136.9,161.7 								"/>
								<polygon class="st27" points="131.8,199.3 136.9,202.2 136.9,161.7 131.8,158.8 								"/>
							</g>
							<polygon class="st28" points="136.9,161.7 141.9,158.8 136.9,155.8 131.8,158.8 							"/>
						</g>
						<g>
							<g>
								<g>
									<polygon class="st29" points="125.2,208.9 130.3,206 130.3,157.2 125.2,160.1 									"/>
									<polygon class="st30" points="120.2,206 125.2,208.9 125.2,160.1 120.2,157.2 									"/>
								</g>
								<polygon class="st31" points="125.2,160.1 130.3,157.2 125.2,154.2 120.2,157.2 								"/>
							</g>
						</g>
						<g>
							<g>
								<polygon class="st32" points="113.6,215.6 118.6,212.7 118.6,155.2 113.6,158.1 								"/>
								<polygon class="st33" points="108.6,212.7 113.6,215.6 113.6,158.1 108.6,155.2 								"/>
							</g>
							<polygon class="st34" points="113.6,158.1 118.6,155.2 113.6,152.3 108.6,155.2 							"/>
						</g>
						<g>
							<g>
								<polygon class="st35" points="113.6,215.7 118.7,212.8 118.7,155.3 113.6,158.2 								"/>
								<polygon class="st36" points="108.6,212.8 113.6,215.7 113.6,158.2 108.6,155.3 								"/>
							</g>
							<polygon class="st37" points="113.6,158.2 118.7,155.3 113.6,152.4 108.6,155.3 							"/>
						</g>
						<g>
							<g>
								<polygon class="st38" points="102,222.4 107,219.5 107,153.3 102,156.2 								"/>
								<polygon class="st39" points="97,219.5 102,222.4 102,156.2 97,153.3 								"/>
							</g>
							<polygon class="st40" points="102,156.2 107,153.3 102,150.4 97,153.3 							"/>
						</g>
					</g>
				</g>
			</g>
			<g>
				<g>
					<g>
						<path class="st41" d="M178.8,117.4l0.6-0.9l-3.1-2.6c-4.6-2.7-8.7-2-14.5,1.4c-6.1,3.5-11.4,9.6-14.7,16.1
							c-2.1,4.2-3.3,8.5-3.3,12.3c0,4.6,0.7,6.8,3.2,8.9l3.6,2.1l2.6-0.7c2.6-0.1,5.5-1,8.6-2.8c3-1.7,5.9-4.1,8.4-6.9
							c5.7-6.3,9.7-14.6,9.7-21.5C179.8,120.7,179.5,118.9,178.8,117.4z"/>
						<path class="st42" d="M167.4,127.5c0,4.5-3.7,10.4-8.2,13c-4.5,2.6-8.2,1.1-8.2-3.5c0-4.5,3.7-10.4,8.2-13
							C163.7,121.4,167.4,123,167.4,127.5z"/>
						<path class="st43" d="M162.5,130.3c0,1.8-1.5,4.2-3.3,5.3c-1.8,1.1-3.3,0.4-3.3-1.4c0-1.8,1.5-4.2,3.3-5.3
							C161,127.9,162.5,128.5,162.5,130.3z"/>
					</g>
					<g>
						<path class="st13" d="M182.5,124.8c0,10-8.1,22.7-18,28.4c-10,5.7-18,2.3-18-7.6c0-10,8.1-22.7,18-28.4
							C174.4,111.5,182.5,114.9,182.5,124.8z"/>
						<path class="st44" d="M177.7,127.6c0,7.3-5.9,16.6-13.2,20.8c-7.3,4.2-13.2,1.7-13.2-5.6c0-7.3,5.9-16.6,13.2-20.8
							C171.8,117.8,177.7,120.3,177.7,127.6z"/>
						<path class="st13" d="M172.7,130.5c0,4.5-3.7,10.4-8.2,13c-4.5,2.6-8.2,1.1-8.2-3.5c0-4.5,3.7-10.4,8.2-13
							C169,124.4,172.7,125.9,172.7,130.5z"/>
						<path class="st44" d="M167.8,133.3c0,1.8-1.5,4.2-3.3,5.3c-1.8,1.1-3.3,0.4-3.3-1.4c0-1.8,1.5-4.2,3.3-5.3
							C166.3,130.8,167.8,131.5,167.8,133.3z"/>
					</g>
				</g>
				<g>
					<g>
						<g>
							<polygon class="st26" points="188.3,144.1 197,149.1 193.3,150.7 184.5,145.6 							"/>
							<polygon class="st26" points="188.3,154.1 197,159.1 193.3,153.3 184.5,148.2 							"/>
						</g>
					</g>
					<path class="st45" d="M185.1,146l-20.5-11.9c0,0,0,0,0,0l0,0l0,0c-0.1-0.1-0.3,0-0.5,0.1c-0.4,0.3-0.8,0.9-0.8,1.4
						c0,0.3,0.1,0.5,0.3,0.5l0,0l29.9,17.2l1.1-1.9L185.1,146z"/>
					<path class="st46" d="M194.7,151.9c0,0.5-0.4,1.1-0.8,1.4c-0.4,0.3-0.8,0-0.8-0.5c0-0.5,0.4-1.1,0.8-1.4
						C194.3,151.2,194.7,151.4,194.7,151.9z"/>
				</g>
			</g>
			<g>
				<g>
					<path class="st47" d="M77,113.1c0,0-0.5,2.4-0.4,3.1c0.1,0.7,0.5,2,3.5,1.5c3-0.5,7.5-1.8,8.2-3.1c0.7-1.3-1.5-1.9-4.4-1
						c-1.8,0.5-3.2-0.6-3.2-0.6L77,113.1z"/>
					<path class="st48" d="M64.6,92c5.9-3.5,15.5-8.5,16.8-5c1.8,5.1,0,26.2,0,26.2s-2.6,1.6-5.1,0.3c-0.4-8.4-0.7-18.3-0.7-18.3
						s-5.1,6.1-11,8.3V92z"/>
				</g>
				<g>
					<polygon class="st15" points="83.4,102.9 83.4,125.7 80.6,131.7 70.2,133.3 62.6,128.9 62.6,106.1 					"/>
					<polygon class="st49" points="75,104.2 83.4,102.9 83.4,125.7 80.6,131.7 75,132.5 					"/>
					<polygon class="st16" points="80.6,108.9 80.6,131.7 70.2,133.3 70.2,110.5 					"/>
					<polygon class="st17" points="75.8,98.5 65.4,100.1 62.6,106.1 70.2,110.5 80.6,108.9 83.4,102.9 					"/>
				</g>
				<g>
					<path class="st50" d="M61.3,57.8c0.3-5.2,0.4-12.7,0.4-14.9l0,0c0-0.7-0.9-2.9-1.1-3.7c-0.1-0.4,2.5-1.6,2.5-1.6
						s0.5-3.6,0.6-4.2c0.1-0.6,0.7-0.5,0.8,1.1c0.1,1.6-0.1,3.9-0.2,4.4c0,0.5,0.2,0.8,0.2,0.8s0.2-1.3,0.1-1.9
						c-0.2-0.6,0.6-0.6,0.9,0.5c0.3,1.1,0.1,1.7-0.2,2.9c-0.1,0.5-0.3,1.2-0.4,1.8c-0.1,0.6-0.2,1.8-0.2,2.6c-0.2,2.2-0.2,2,0.1,7.9
						c0,0.8-0.5,6.9-0.7,8.2l1.2-2.8C64,68.5,61,75.4,61,75.4l-3.6-1.2C57.5,74.2,60.1,62.6,61.3,57.8z"/>
					<path class="st20" d="M64,66.7c-1,5.3-1.9,8.8-1.9,8.8l-4.6-1.2c0,0,0.7-4.3,1.6-8.9C60.7,66,62.4,66.2,64,66.7z"/>
				</g>
				<g>
					<polygon class="st51" points="103.1,86.4 82.9,94.6 74.7,85.2 92.9,77.1 					"/>
					<path class="st47" d="M79.1,100.4c0,0,0.3,2.3,0.5,2.9c0.3,0.6,0.9,1.6,3.2,0.2c2.2-1.4,5.4-4,5.5-5.4c0.1-1.4-1.7-1.3-3.7,0.5
						c-1.2,1-2.7,0.5-2.7,0.5L79.1,100.4z"/>
					<g>
						<path class="st47" d="M86.1,119.8c0,0-0.7,2.3-0.7,3c0.1,0.7,0.3,2,3.4,1.8c3.1-0.2,7.7-1.2,8.4-2.4c0.8-1.2-1.3-2.1-4.3-1.4
							c-1.8,0.4-3.1-0.9-3.1-0.9L86.1,119.8z"/>
						<path class="st52" d="M70.7,100.1c0,0,20.4-11.3,21.9-6c1.4,5.2-2.1,26.1-2.1,26.1s-2.8,1.4-5.1-0.1
							c0.3-8.4,0.8-18.3,0.8-18.3s-8.1,8.2-15.4,7.9c-7.2-0.3-16.2-6.9-11.1-15.3C65.9,93.9,70.7,100.1,70.7,100.1z"/>
					</g>
					<g>
						<path class="st20" d="M66,72.4c0,0,4.4,1.5,6,5.7c1.6,4.2,3.5,12.9,3.5,12.9l0.6,3c0,0,1.8,13.4-14.6,9.9
							c-6.6-1.4-4.3-4.8-4.4-5.9c-0.2-1.1,0.6-4.6,0-9.2c-0.6-4.6-2.2-20.2,6.3-18.9C67.5,71.2,66,72.4,66,72.4z"/>
						<g>
							<path class="st50" d="M73,62c0,0,0,0,0.1,0.1c0.2,0.4,0.7,1.6,0.4,2.8c-0.3,1.3,1.1,1.9,1.1,1.9s0.4,0.4-0.3,0.6
								c-0.6,0.2-1,0.4-1,0.4s-0.5,2.6-0.8,3c-0.2,0.4-1.4,0.4-2.4,0.4c-1,0-1.8,1.6-1.9,2.5c-2.9-0.7-5.1-3.1-5.1-3.1l0.9-2.3
								C64.1,68.3,67.6,58.2,73,62z"/>
							<path class="st53" d="M70,67.5c0,0,1.8-2.9,1.3-4.4c-0.5-1.6,2-0.6,2-0.6s2.2-1.9,1.6-3.8c-0.4,0.4-1.1,0.3-1.1,0.3l0.4-0.9
								c0,0-2.3,0.3-2.9,0.1c0.6-0.3,0.9-1,0.9-1s-2.4,0.4-3.7,0.4c-1.2,0-4.1-0.2-4.9,2.2c-1.5,2-2.3,7.7,0.2,9.3
								c1.5,1.1,2.4,0.6,2.4,0.6s1.1-2.6,1.2-3.7c0.2-1,2.5-1.5,2.1,0.4c-0.2,1-0.2,1.5-0.2,1.5L70,67.5z"/>
						</g>
					</g>
					<path class="st50" d="M73,87c0,0,3.2,7.4,3.4,8.4c2.2-0.8,11.4-3,13.6-3.4c0,0,0,0,0,0s0.8-1.3,1.6-1.9
						c0.7-0.6,0.8-1.3,0.8-1.7c0-0.4,0.9-0.8,1,0.2c0.1,1.1-0.5,1.9-0.5,1.9l3.6-1.4c0,0-0.9,3.4-5.5,5.2c0,0,0,0,0,0
						s-6.2,3-10.6,4.4c-4.4,1.5-7.4,2.6-9-0.1c-1.6-2.7-4.9-11.8-4.9-11.8L73,87z"/>
					<path class="st20" d="M74.7,90c0,0-2.2-10.9-3.2-12.5c-1-1.7-5.3-2.1-6.7,1.4C63.3,82.4,67,92.2,67,92.2L74.7,90z"/>
				</g>
			</g>
			<g>
				<polygon class="st19" points="236.3,40.3 187.9,59.2 208.8,61.7 				"/>
				<polygon class="st17" points="208.5,61.6 211.7,70.7 236.3,40.3 				"/>
				<polygon class="st15" points="215.4,63.7 211.7,70.7 236.3,40.3 				"/>
				<polygon class="st19" points="236.3,40.3 229.8,72.2 215.4,63.7 				"/>
			</g>
			<g>
				<polygon class="st23" points="218.1,7.9 169.7,26.8 190.5,29.3 				"/>
				<polygon class="st54" points="190.2,29.3 193.4,38.3 218.1,7.9 				"/>
				<polygon class="st55" points="197.1,31.4 193.4,38.3 218.1,7.9 				"/>
				<polygon class="st23" points="218.1,7.9 211.6,39.8 197.1,31.4 				"/>
			</g>
			<g>
				<g>
					<g>
						<path class="st56" d="M190.5,227.9l-2.7,0c-1.2-1.4-2.8-2.7-4.8-3.8c-10-5.7-26.1-5.7-36.1,0c-1.9,1.1-3.4,2.3-4.5,3.6l-2.9,0
							l0,6.8v0c0,3.8,2.5,7.5,7.5,10.4c10,5.7,26.1,5.7,36.1,0c5-2.9,7.5-6.6,7.5-10.4c0,0,0,0,0,0L190.5,227.9z"/>
						<path class="st57" d="M140.8,227.6l-1.3,0l0,6.8v0c0,3.8,2.5,7.5,7.5,10.4c0,0,0,0,0.1,0v-7.3
							C143.6,235.9,142.2,231.3,140.8,227.6z"/>
						<path class="st58" d="M147.3,237.7c-0.1,0-0.2-0.1-0.3-0.1v7.3c5.6,3.2,13.1,4.6,20.4,4.2v-7.2
							C160.6,242.1,153.4,240.4,147.3,237.7z"/>
						<path class="st59" d="M190.5,227.9l-2.7,0c-1.2-1.4-2.8-2.7-4.8-3.8c-10-5.7-26.1-5.7-36.1,0c-1.9,1.1-3.4,2.3-4.5,3.6l-1.7,0
							c1.5,3.7,2.8,8.3,6.3,10v-1v1c0.1,0,0.2,0.1,0.3,0.1c6.1,2.7,13.3,4.4,20.1,4.1v-0.4v0.4c5.7-0.2,11.2-1.7,15.5-5.1v-0.6v0.6
							c2.3-1.8,4.3-4.1,5.9-7.1c-1.6,2.9-3.6,5.3-5.9,7.1v8.2c0,0,0.1,0,0.1-0.1c5-2.9,7.5-6.6,7.5-10.4c0,0,0,0,0,0L190.5,227.9z"
							/>
						<path class="st60" d="M167.4,241.9v7.2c5.7-0.3,11.2-1.7,15.5-4.2v-8.2C178.6,240.1,173.1,241.7,167.4,241.9z"/>
						<g>
							<path class="st61" d="M183,238.3c-10,5.7-26.1,5.7-36.1,0c-10-5.7-10-15.1,0-20.8c10-5.7,26.1-5.7,36.1,0
								C193,223.2,193,232.6,183,238.3z"/>
							<path class="st62" d="M183,217.5c-10-5.7-26.1-5.7-36.1,0c0,0,0,0,0,0c-9.9,5.7-9.9,15.1,0,20.8c0,0,0,0,0.1,0l18-10.4
								L183,217.5C183.1,217.5,183,217.5,183,217.5z"/>
							<path class="st63" d="M142.2,221.3c-4.7,5.5-3.1,12.4,4.8,17c0,0,0,0,0.1,0l18-10.4L142.2,221.3z"/>
							<path class="st21" d="M183,238.3c9.9-5.7,10-15,0.1-20.8L165,228L183,238.3C183,238.3,183,238.3,183,238.3z"/>
							<path class="st64" d="M165,228l-18,10.4c10,5.7,26,5.7,36,0L165,228z"/>
							<path class="st65" d="M165,228l-18,10.4c5.6,3.2,13.1,4.6,20.3,4.2L165,228z"/>
						</g>
					</g>
				</g>
			</g>
			<g>
				<g>
					<g>
						<path class="st66" d="M222.3,176.2c0,0,0.1,0.9,0.4,1.5c0.3,0.7,0.4,2,0.4,2s-2.3,1.4-3.8,3.1c-1.7,1.9-3.1,2.1-4.4,1.8
							c-0.6-0.1-0.8-1.4-0.3-1.9c0.5-0.5,5-3.7,4.8-5.2C220.1,176.7,222.3,176.2,222.3,176.2z"/>
						<path class="st67" d="M214.9,183.9c1.3,0.3,2.3,0.1,4.4-1.8c1.5-1.5,3.5-2.6,3.8-2.9c0,0.3,0.1,0.6,0.1,0.6s-1.8,1-3.4,2.7
							c-2.1,2.1-3.5,2.3-4.8,2c-0.5-0.1-0.7-0.8-0.6-1.3C214.4,183.6,214.6,183.9,214.9,183.9z"/>
					</g>
					<path class="st68" d="M229.5,156.5c0,0-4.7,3.2-10.5,6.3c2.9,4.7,3.2,12.3,3,13.7c-1.8,1.7-3.1,0.8-3.1,0.8s-6-13.2-6.8-15.3
						c-0.8-2.1,11.5-11.7,11.5-11.7L229.5,156.5z"/>
					<path class="st66" d="M224.3,188.8c0,0,0.4,2.4,0.7,4.7c0.3,2.2-0.2,4.3-1.8,5.1c-1.5,0-3.1-1.3-2.5-3.9c0.5-2.6,0.3-4.8,0.3-6
						C220.9,187.4,224.3,188.8,224.3,188.8z"/>
					<path class="st68" d="M237.8,161.6c0,0-2.9,1.6-9.4,6.2c-1.9,1.4-2,12.8-3.9,20.8c-1.4,2.5-3.7-0.2-3.7-0.2s-0.3-17.8,1.2-23.4
						c0.6-2.2,9.2-7.6,9.2-7.6L237.8,161.6z"/>
					<g>
						<g>
							<g>
								<g>
									<g>
										<g>
											<path class="st69" d="M218.8,148.9c-0.2-0.1-0.4-0.3-0.5-0.5l1.1,0.6C219,148.9,218.8,148.9,218.8,148.9z"/>
											<g>
												<path class="st70" d="M216.6,145.8c3.5,1.2,9.1-7,10.2-7.8c0.5-0.4,0.7-1.2,0.7-2.1h2.6c-0.7,2.8-1.7,5.5-2,6
													c-0.7,0.9-8.5,8.5-10.3,5.6C218.8,146.8,216.4,147.1,216.6,145.8z"/>
												<g>
													<g>
														<g>
															<path class="st68" d="M230.4,159.5c0.2-2.6,0.5-5.1-0.1-6.3c-0.5-1,0.3-4.5,0.3-4.5l12.2,0.5c0,0,1.7,3.5-0.2,8.5
																c-1.1,2.8-2.7,3.6-10.2,7.4C232.8,162.8,233.3,158.9,230.4,159.5z"/>
														</g>
													</g>
													<path class="st71" d="M226.9,148.1c0,0-1.7-19.4,3.6-21.5c5.3-2,10.2,2.8,12.3,7.5c2.1,4.7,1.3,14.9,1.4,17
														C236.9,156.2,226.7,150.5,226.9,148.1z"/>
													<g>
														<path class="st50" d="M229,118.8c0,0-1.3,2.1-0.1,6.7c1,3.7,1.1,4.8,2.6,4.9c1.6,0.2,4.9-0.9,5.4-3.9
															c0.5-0.1,1.8-1.9,1-3.3c-0.8-1.4-1.3,0.1-1.3,0.1s0-3.1-2.2-4.2C232.3,118.2,229,118.8,229,118.8z"/>
														<path class="st72" d="M234.1,122.5c0-0.2-1.7,2.2-4.3,1.4c0.9-0.3,1.1-0.9,1.1-0.9s-0.9,1.2-2.4,0.8
															c0.7-0.3,1-0.6,1-0.6s-1,0.5-2,0.1c0.6-0.3,0.5-0.7,0.5-0.7s-0.5,0.5-1.6-0.4c0.4-0.1,0.4-2,1.9-3.4
															c1.5-1.4,3.2-2.8,5.2-2.5c-0.5-0.5-0.4-0.7-1.2-0.5c0.8-0.5,2.6-0.1,3.2,0.7c1.6-0.6,3.6,1.8,2.6,7.7
															c0-0.1-0.2-1.1-0.7-1.3c-0.6-0.2-1,0.9-0.9,1.2c0.1,0.3,0.2,2,0.2,2l-0.7,0.4c0,0,0.2-1.5-0.3-1.9
															C235.2,124.2,234.2,124.8,234.1,122.5z"/>
													</g>
												</g>
											</g>
										</g>
									</g>
								</g>
							</g>
						</g>
						<g>
							<polygon class="st73" points="228.4,162.4 210.9,152.3 210.9,151.5 239.1,155.4 239.1,156.2 							"/>
							<polygon class="st74" points="228.4,161.6 210.9,151.5 221.6,145.3 239.1,155.4 							"/>
							
								<linearGradient id="SVGID_13_" gradientUnits="userSpaceOnUse" x1="38.3484" y1="145.9476" x2="59.2128" y2="145.9476" gradientTransform="matrix(1 0 0 1 185.1182 0)">
								<stop  offset="0" style="stop-color:#FFE2C4"/>
								<stop  offset="1" style="stop-color:#FFB870"/>
							</linearGradient>
							<path class="st75" d="M223.7,152.4c0.7-0.1,1.6,0.1,2.9,0.1c1.3,0,1.3-0.7,1.3-1.8c0.4,0.3,0.7,1.1,1.3,1.6c0.7,0.5,1,0,1,0
								l0.1,0.1c4.7-0.8,9-4.5,9.7-5.7c0.8-1.2-0.3-5.9-0.5-9c0,0,0.7-2.8,3.2-1.4c2.5,1.4,1.2,11.6,1.2,12.8
								c0,1.1-9.4,5.3-13.8,5.7c-0.7,0.4-1.7,0.8-2.5,0.9C223.8,155.8,223,152.5,223.7,152.4z"/>
							<path class="st50" d="M223.7,152.4c0.7-0.1,1.6,0.1,2.9,0.1c1.3,0,1.3-0.7,1.3-1.8c0.4,0.3,0.7,1.1,1.3,1.6c0.7,0.5,1,0,1,0
								l0.1,0.1c4.7-0.8,9-4.5,9.7-5.7c0.5-0.7,0.2-3-0.1-5.3c-0.3-2.1-1.7-4.7-1.4-8c0,0,0.2-3.6,2.7-2.2c1.3,0.7,2.4,5.3,3.1,9.1
								c0.6,4.8,0.3,7.9,0.3,8.7c0,1.1-10.1,5.4-14.5,5.8c-0.7,0.4-1.7,0.8-2.5,0.9C223.8,155.8,223,152.5,223.7,152.4z"/>
							<path class="st70" d="M231.8,151.5c3.9-1.3,7.6-3.7,8.2-4.6c0.5-0.7,0.2-3-0.1-5.3c-0.3-2.1-1.7-4.7-1.4-8
								c0,0,0.2-3.6,2.7-2.2c1.3,0.7,2.4,5.3,3.1,9.1c0.6,4.8,0.3,7.9,0.3,8.7c0,0.9-6.8,4.5-11.7,5.8
								C233.1,154.2,232.6,152.3,231.8,151.5z"/>
							<polygon class="st20" points="210.9,139.1 228.4,161.6 229,161.3 229,148.9 211.5,138.8 							"/>
							<polygon class="st76" points="210.9,151.5 228.4,161.6 228.4,149.2 210.9,139.1 							"/>
						</g>
					</g>
				</g>
			</g>
			<g>
				<g>
					<g>
						<g>
							<path class="st15" d="M115.4,75.4L115.4,75.4l0-3l2.1,1.1l3.8-2.2c1.2-0.7,3.2-0.7,4.4,0l37.9,21.9l2.2-1.1v3l0,0
								c0,0.5-0.3,1-0.9,1.4l-5,2.9c-1.2,0.7-3.2,0.7-4.4,0l-39.1-22.6C115.6,76.4,115.3,75.9,115.4,75.4z"/>
							<path class="st16" d="M163.6,93.2l2.2-1.1v3l0,0c0,0.5-0.3,1-0.9,1.4l-5,2.9c-0.6,0.3-1.4,0.5-2.2,0.5V89.7L163.6,93.2z"/>
							<path class="st17" d="M159.9,96.2c-1.2,0.7-3.2,0.7-4.4,0l-39.1-22.6c-1.2-0.7-1.2-1.9,0-2.6l5-2.9c1.2-0.7,3.2-0.7,4.4,0
								l39.1,22.6c1.2,0.7,1.2,1.9,0,2.6L159.9,96.2z"/>
						</g>
						<path class="st18" d="M102.7,1.6l2.6-1.5c0.1,0,0.1-0.1,0.2-0.1l0,0l0,0c0.2-0.1,0.6-0.1,0.9,0.1L180,42.7
							c0.8,0.5,1.4,1.6,1.4,2.5v56.5c0,0.5-0.2,0.8-0.4,0.9c0,0-0.1,0-0.1,0.1l-2.5,1.5l-0.5-2.8l0.8,0.3L106.4,60
							c-0.8-0.5-1.4-1.6-1.4-2.5V3.2L102.7,1.6z"/>
						<path class="st17" d="M105.3,0.1c0.1,0,0.1-0.1,0.2-0.1l0,0l0,0c0.2-0.1,0.6-0.1,0.9,0.1L180,42.7c0.3,0.2,0.7,0.5,0.9,0.9
							l-49.2,31.1L106.4,60c-0.8-0.5-1.4-1.6-1.4-2.5V3.2l-2.2-1.5L105.3,0.1z"/>
						<path class="st15" d="M102.3,59.1c0,0.9,0.6,2,1.4,2.5l73.6,42.5c0.8,0.5,1.4,0.1,1.4-0.8V46.7c0-0.9-0.6-2-1.4-2.5L103.7,1.7
							c-0.8-0.5-1.4-0.1-1.4,0.8V59.1z"/>
						<polygon class="st19" points="103.7,54.9 177.4,97.5 177.4,46.6 103.7,4 						"/>
						<polygon class="st20" points="104.4,4.5 104.4,54.4 177.4,96.5 177.4,97.5 103.7,54.9 103.7,4 						"/>
					</g>
				</g>
			</g>
			<g>
				<g>
					<path class="st77" d="M177.6,220.6c0,0,2.6-0.7,3.1-0.7c0.5,0,1.7,0,1.9,0.4c0.2,0.4,0.5,6.8,0.1,8.1c-0.4,1.3-4.8,1.7-5.7,1.2
						c-0.6-1.2,1.5-2.6,2.3-3.1c0.9-0.4-0.2-2.9-1.4-2.9C176.7,223.6,177.6,220.6,177.6,220.6z"/>
					<g>
						<path class="st78" d="M182.6,220.2c0-0.1-0.1-0.1-0.2-0.2c-0.9-0.1-1.6,0.4-1.4,0.8c0.2,0.4,1.1,6.4-0.4,8
							c-0.8,0.8-2.8,0.8-2.9,0.9c4.1,0,4.7-0.8,4.9-1.4C183.1,227,182.8,220.6,182.6,220.2z"/>
					</g>
					<g>
						<g>
							<g>
								<path class="st70" d="M169,184.2c0,0,2.9,3.1,3.3,13.6c-0.6,2-5.6,0.9-6.2,0c-0.6-0.9,0-2.7,0-2.7h2.5l-0.8-5.1L169,184.2z"
									/>
								<g>
									<path class="st79" d="M178.8,219.8l-14.2,2.3c-0.8-1.1,1.6-6.6,2.4-8.4c2.6-4.8-1.4-9.3-1.4-9.3l-6.4-1.9
										c0,0-3.5,16.8-4.7,20.4c-2.1,6.5,18.4,2.9,24.5,1.8C178.9,224,177.7,221,178.8,219.8z"/>
									<path class="st77" d="M169.7,226.3c0,0,2.6-0.7,3.1-0.7c0.5,0,1.7,0,1.9,0.4c0.2,0.4,0.5,6.8,0.1,8.1
										c-0.4,1.3-4.8,1.7-5.7,1.2c-0.6-1.2,1.5-2.6,2.3-3.1c0.9-0.4-0.2-2.9-1.4-2.9C168.8,229.3,169.7,226.3,169.7,226.3z"/>
									<g>
										<path class="st78" d="M174.7,225.9c0-0.1-0.1-0.1-0.2-0.2c-0.9-0.1-1.6,0.4-1.4,0.8c0.2,0.4,1.1,6.4-0.4,8
											c-0.8,0.8-2.8,0.8-2.9,0.9c4.1,0,4.7-0.8,4.9-1.4C175.2,232.7,174.8,226.4,174.7,225.9z"/>
									</g>
									<path class="st68" d="M171.1,225.6l-14.1-0.8c-0.8-1.1,3.6-5.8,4.4-7.6c3.8-7.2,3.2-10.5,3.2-10.5l-11.9-0.5
										c0,0-3.6,14.5-4.6,19.8c-1.2,6.8,11.5,2.2,22.6,4.7C170.6,229.8,169.9,226.6,171.1,225.6z"/>
									<path class="st50" d="M157.7,171.4c0,0-1.9-0.1-2.7,2c-0.1,0.3-0.2,0.6-0.1,1c0.1,0.6-0.1,1.5-0.4,2.2
										c-0.5,1.2,0.3,3.4,1.1,4.5c1,0.4,1.8-0.4,1.8-0.4l0.6,2.3l5.1-1.1c0,0-0.6-1.8,0.1-4.6c0.7-2.8,0.5-4.2-1.3-5.2
										C160.1,171.1,157.7,171.4,157.7,171.4"/>
									<path class="st80" d="M155.9,168c0,0,1.3,0.9,5.4,1.3c4.1,0.4,4.1,3.2,3.5,4.7c1.2,0.5-1.5,4.8-1.6,6.6
										c-2.3,0.8-4.1-0.4-4.1-0.4s-0.8-1.4-0.2-2.9c0.6-1.5-0.4-3-1-2.6c-0.1,0.1-0.4,2.5-0.5,2.5c-0.1,0-0.3,0-0.3,0
										c-0.2,0,0.1-0.7-0.1-1.7c-0.1-0.5-0.7-1.6-0.7-1.9c0.1-0.4,0.5-1.5,0.5-1.5L156,172c0,0-1,0.1-0.9-0.9
										C155.1,169.4,155.9,168,155.9,168"/>
									<path class="st71" d="M151.1,187.2c0,0,2.2-2.6,6.9-4.4c2.2-0.8,4.7-1.1,4.7-1.1s3.8-0.6,6.5,2.9c0.8,1,1.8,3.7,0.3,7.5
										c-1.5,3.8-1.1,8.5-1.4,10.4c-0.3,2.4,0.3,9,0.3,9s-0.1,0.5-3.6,1.2l-1.8,0.3c-3.5,0.4-7.6,0.6-12.7-1.9
										c0.5-2.8,1.7-9,2.2-11.6C153.2,197,151.1,187.2,151.1,187.2"/>
								</g>
							</g>
						</g>
					</g>
				</g>
				<path class="st50" d="M136.7,175.1c0,0-0.7-1.4-0.9-2.5c-0.2-1.1-0.5-2-1.2-2.7c-0.6-0.7-2.4-2-2.6-2.1
					c-0.2-0.1-0.8,0.1-0.2,0.6c0.6,0.5,1.4,1.3,1.4,1.7c0,0.3-1.4,1.8-0.8,3c0.6,1.2,0.4,0.3,2.2,3.1
					C136.3,178,136.7,175.1,136.7,175.1z"/>
				<path class="st70" d="M156.6,186.4c0,0-1.2-1.9-5.4-0.1c-4.2,1.8-8.5,0.1-8.5,0.1s-4.5-10.6-5.3-11.4c-3,1.3-3.5,1.5-3.5,1.5
					s3.1,10.8,4.8,13.6c1.7,2.8,8.7,3.1,12.5,2.8C154.8,192.6,157.6,189.2,156.6,186.4z"/>
			</g>
			<g>
				<g>
					<g class="st81">
						<g>
							<g>
								<g>
									<polygon class="st82" points="167.6,87 124.1,61.9 124.1,61.6 167.6,86.7 									"/>
								</g>
								<g>
									<polygon class="st82" points="167.6,83.1 124.1,57.9 124.1,57.6 167.6,82.7 									"/>
								</g>
								<g>
									<polygon class="st82" points="167.6,79.1 124.1,53.9 124.1,53.6 167.6,78.7 									"/>
								</g>
								<g>
									<polygon class="st82" points="167.6,75.1 124.1,50 124.1,49.6 167.6,74.7 									"/>
								</g>
								<g>
									<polygon class="st82" points="167.6,71.1 124.1,46 124.1,45.6 167.6,70.7 									"/>
								</g>
								<g>
									<polygon class="st82" points="167.6,67.1 124.1,42 124.1,41.6 167.6,66.7 									"/>
								</g>
								<g>
									<polygon class="st82" points="167.6,63.1 124.1,38 124.1,37.6 167.6,62.8 									"/>
								</g>
								<g>
									<polygon class="st82" points="167.6,58.9 124.1,33.8 124.1,33.4 167.6,58.5 									"/>
								</g>
								<g>
									<polygon class="st82" points="167.6,54.9 124.1,29.8 124.1,29.4 167.6,54.5 									"/>
								</g>
								<g>
									<polygon class="st82" points="167.6,50.9 124.1,25.8 124.1,25.4 167.6,50.5 									"/>
								</g>
							</g>
						</g>
					</g>
					<g>
						
							<linearGradient id="SVGID_14_" gradientUnits="userSpaceOnUse" x1="-99.8892" y1="63.217" x2="-56.8774" y2="63.217" gradientTransform="matrix(-1 0 0 1 68.0107 0)">
							<stop  offset="0" style="stop-color:#4CC194"/>
							<stop  offset="0.2836" style="stop-color:#4CD08B"/>
							<stop  offset="0.6803" style="stop-color:#4CE083"/>
							<stop  offset="1" style="stop-color:#4CE580"/>
						</linearGradient>
						<polygon class="st83" points="167.4,87.1 161.2,56.5 155.9,63.5 150.9,52.3 146.1,49.1 141.2,40.8 136.6,58.3 130.9,47.5 
							125.4,62.6 124.9,62.4 130.8,46.1 136.4,56.8 141,39.3 146.5,48.7 151.3,51.9 156,62.4 161.5,55.2 167.9,87 						"/>
					</g>
					<g>
						<polygon class="st84" points="167.4,87.1 161.3,58.8 155.9,67.6 150.9,56.8 146.1,57.4 141.1,49.3 136.6,58.1 130.9,49.5 
							125.4,62.6 124.9,62.4 130.8,48.3 136.5,57 141,48.1 146.4,56.8 151.3,56.2 156,66.4 161.5,57.3 167.9,87 						"/>
					</g>
					<g>
						<polygon class="st85" points="167.4,87.1 161.2,70.5 155.7,70.8 151,59.7 146.3,64.9 141,58.3 136.5,60.3 130.9,54.6 
							125.4,62.7 124.9,62.4 130.8,53.7 136.6,59.7 141.2,57.7 146.3,64 151.2,58.7 156.1,70.2 161.6,69.9 167.9,86.9 						"/>
					</g>
					<g>
						<polygon class="st86" points="167.4,87.2 161.2,76.1 155.7,75.5 150.9,64.6 146.2,65.9 141.1,60.9 136.5,64.6 130.8,59 
							125.3,62.7 125,62.3 130.8,58.2 136.5,63.9 141.1,60.2 146.3,65.3 151.3,63.9 156.1,75 161.5,75.6 167.9,86.9 						"/>
					</g>
				</g>
				<ellipse class="st27" cx="125" cy="62.4" rx="0.6" ry="0.8"/>
				<ellipse class="st27" cx="130.8" cy="58.9" rx="0.6" ry="0.8"/>
				<ellipse class="st27" cx="130.8" cy="54.1" rx="0.6" ry="0.8"/>
				<ellipse class="st27" cx="130.8" cy="48.9" rx="0.6" ry="0.8"/>
				<ellipse class="st27" cx="130.8" cy="46.8" rx="0.6" ry="0.8"/>
				<ellipse class="st27" cx="141" cy="40.1" rx="0.6" ry="0.8"/>
				<ellipse class="st27" cx="141.2" cy="48.7" rx="0.6" ry="0.8"/>
				<ellipse class="st27" cx="141" cy="58.1" rx="0.6" ry="0.8"/>
				<ellipse class="st27" cx="141" cy="60.8" rx="0.6" ry="0.8"/>
				<ellipse class="st27" cx="146.2" cy="65.7" rx="0.6" ry="0.8"/>
				<ellipse class="st27" cx="146.2" cy="64.2" rx="0.6" ry="0.8"/>
				<ellipse class="st27" cx="146.2" cy="57" rx="0.6" ry="0.8"/>
				<ellipse class="st27" cx="146.2" cy="48.9" rx="0.6" ry="0.8"/>
				<ellipse class="st27" cx="151.1" cy="52.2" rx="0.6" ry="0.8"/>
				<ellipse class="st27" cx="151.1" cy="56.4" rx="0.6" ry="0.8"/>
				<ellipse class="st27" cx="151.1" cy="59.3" rx="0.6" ry="0.8"/>
				<ellipse class="st27" cx="151.1" cy="64.5" rx="0.6" ry="0.8"/>
				<ellipse class="st27" cx="156" cy="75.4" rx="0.6" ry="0.8"/>
				<ellipse class="st27" cx="156" cy="70.4" rx="0.6" ry="0.8"/>
				<ellipse class="st27" cx="156" cy="66.8" rx="0.6" ry="0.8"/>
				<ellipse class="st27" cx="156" cy="62.9" rx="0.6" ry="0.8"/>
				<ellipse class="st27" cx="161.4" cy="55.7" rx="0.6" ry="0.8"/>
				<ellipse class="st27" cx="161.4" cy="57.8" rx="0.6" ry="0.8"/>
				<ellipse class="st27" cx="161.4" cy="70.3" rx="0.6" ry="0.8"/>
				<ellipse class="st27" cx="161.4" cy="75.9" rx="0.6" ry="0.8"/>
				<ellipse class="st27" cx="167.6" cy="86.9" rx="0.6" ry="0.8"/>
				<ellipse class="st27" cx="136.6" cy="59.8" rx="0.6" ry="0.8"/>
				<ellipse class="st27" cx="136.4" cy="57.7" rx="0.6" ry="0.8"/>
				<ellipse class="st27" cx="136.4" cy="64" rx="0.6" ry="0.8"/>
			</g>
			<g>
				<path class="st50" d="M134.9,35.1c0,0,1.2-0.5,1.5-1.2c0.3-0.6,0.2-0.7,0.5-1.1c0.3-0.4,0.8-1.2,1.3-1.5
					c0.5-0.2,0.4,0.6,0.2,0.8c-0.2,0.2-0.4,0.8-0.4,0.8s2.5-1.4,3.1-1.4c0.6,0,0.1,0.6,0,0.7c0.7-0.3,0.9-0.1,0.9-0.1
					c0.1,0,0.1,0.4-0.4,0.6c0.2-0.2,0.8,0.1-0.3,0.9c0.6-0.3,0.6,0.2,0.2,0.5c-0.3,0.3-1.8,1.7-3.3,1.8c-1.5,0.1-2.5,0.8-2.5,0.8
					L134.9,35.1z"/>
				<g>
					<path class="st87" d="M135.1,34.1c0,0-11.2,3.5-12.1,4.7c-0.9,1-7.1-12-8.6-12.6c-1.4-0.6-3.7,2.5-2.2,6.5
						c3.1,7.9,9.7,12.2,11.1,11.4c1.4-0.7,13.3-6.7,13.3-6.7S136.4,35.6,135.1,34.1z"/>
				</g>
				<g>
					<g>
						<path class="st88" d="M114.8,93.5c0,0,0.4,0.7,0.9,1.5c0.5,0.8,2,0.8,2.3,1.2c0.3,0.4,0.3,1.8,0.3,1.8s-1.9,0.4-3.6-0.6
							c-1.7-1-3.2-1.7-3.2-1.7s0-1.9,0.1-2.2C111.8,93.2,114.8,93.5,114.8,93.5z"/>
						<path class="st89" d="M114.7,97c-1.7-1-3.1-1.7-3.2-1.7c0,0.3,0,0.5,0,0.5s1.5,0.7,3.2,1.7c1.7,1,3.6,0.6,3.6,0.6s0-0.2,0-0.5
							C118.3,97.6,116.4,97.9,114.7,97z"/>
						<path class="st90" d="M106.6,56.5c0,0,3.7,12.4,4,15.6c0.4,3.2-0.7,13.8,0.9,21.4c2.2,1.1,3.1,0.6,3.1,0.6l0.4-1
							c0,0,1.5-17.1,1.5-21.1c-0.1-4-0.8-15.3-0.8-15.3L106.6,56.5z"/>
					</g>
					<g>
						<path class="st88" d="M108.6,95.8c0,0,0.4,0.7,0.9,1.5c0.5,0.8,2,1.4,2.3,1.8c0.3,0.4,0.3,1.8,0.3,1.8s-2.3,0.3-4-0.7
							c-1.7-1-2.8-2.3-2.8-2.3s0-1.9,0.2-2.2C105.6,95.5,108.6,95.8,108.6,95.8z"/>
						<path class="st89" d="M112,100.4c0,0-2.3,0.3-4-0.7c-1.6-1-2.7-2.1-2.8-2.3c0,0.3,0,0.6,0,0.6s1.1,1.2,2.8,2.3
							c1.7,1,4,0.7,4,0.7S112.1,100.7,112,100.4C112,100.4,112,100.4,112,100.4z"/>
						<path class="st91" d="M101.1,58.7c0,0,3.4,12.5,3.7,15.7c0.3,3.2-1.3,14,0.2,21.6c2.2,1.2,3.1,0.9,3.1,0.9l0.8-0.9
							c0,0,1.7-17.7,1.7-21.7c0-4-0.4-15.3-0.4-15.3L101.1,58.7z"/>
					</g>
					<path class="st92" d="M107.3,23.9c0,0-6.6,2-8.9,6.7c-2.2,4.7,0.7,10.8,0.6,12.3C99,44.4,99.3,60,99.3,60l11.9,0.2l1.3-2.9
						l1.6,2.1l2.6-2.4c0,0-1-14-0.8-17c0.2-2.9,1.5-10.6-1.1-14.3C112.7,24.6,107.9,23.7,107.3,23.9z"/>
					<path class="st76" d="M104.8,24.6c0,0-2.6,2.1-2.3,3.5c0.3,1.4,8.8,8.7,9.1,10.7c1.5-2.9-0.4-11.6-1.3-13.3
						C109.4,23.9,104.8,24.6,104.8,24.6z"/>
					<polygon class="st93" points="104.6,20.8 104.2,25.7 108.4,28.5 109.2,27.4 109.5,24.6 					"/>
					<path class="st50" d="M112.3,16.6c0,0,1.2,7.5-2.6,9.3c-1.6,0.3-4.9-1.9-4.9-4.3c-1.3-0.3-1.3-2.8-0.7-3.3
						c0.7-0.5,0.9,0.9,0.9,0.9s-0.6-3.4,1.4-3.4C108.5,15.7,112.3,16.6,112.3,16.6z"/>
					<path class="st94" d="M106.2,16.9c0,0,3.1,1.7,4.8,1.4c1.7-0.3,2.2-1.1,2.4-2c0.3-0.9-5.2-8-9.7-2.7c-2,0.7-1.4,7.5,0.7,8.6
						c0-0.2,0.1-0.6,0.1-0.6s-0.7-0.8-0.6-1.8c0.1-0.9,0.3-1.2,0.5-1.2c0.2,0,0.6,0.7,0.7,1c0.1,0.4,0,0.8,0,0.8l0.5,0.1
						c0,0,0-0.9,0.1-1.2C105.9,18.9,106.8,17.5,106.2,16.9z"/>
					<path class="st95" d="M108.4,28.5l-0.7,1.5l0.9,0.6l1,5.3l2.1,3c0,0,0.8-1.1,0.6-3.6c-1.5-2.5-2.6-4.8-2.6-4.8l0.2-1.2
						L108.4,28.5z"/>
					<path class="st50" d="M105.4,59.9l-2.6,0.9c0,0,1.3,1.6,1.1,2.3c-0.2,0.6,0,1.3,0.3,1.8l2.6-3.4
						C105.8,60.7,105.4,59.9,105.4,59.9z"/>
					<g>
						<path class="st87" d="M106.3,60.5c0,0-4.6-12.1-6-13.1c-1.2-0.9,1.6-10.6,2.2-12.2c0.6-1.6-1.5-7.7-4.3-3.9
							c-2.8,3.7-4.1,16.4-3.3,18c0.8,1.6,8.3,13.5,8.3,13.5S104.6,62,106.3,60.5z"/>
					</g>
				</g>
			</g>
		</g>
	</g>
	<g>
		
			<radialGradient id="SVGID_15_" cx="112.3532" cy="71.2593" r="22.5571" gradientTransform="matrix(0.9696 0 0 0.5753 -1.6196 222.3918)" gradientUnits="userSpaceOnUse">
			<stop  offset="0" style="stop-color:#7C969E"/>
			<stop  offset="0.148" style="stop-color:#819AA2;stop-opacity:0.852"/>
			<stop  offset="0.332" style="stop-color:#91A7AD;stop-opacity:0.668"/>
			<stop  offset="0.5351" style="stop-color:#AABBC0;stop-opacity:0.4649"/>
			<stop  offset="0.752" style="stop-color:#CDD7DA;stop-opacity:0.248"/>
			<stop  offset="0.9775" style="stop-color:#FAFBFB;stop-opacity:2.245986e-02"/>
			<stop  offset="1" style="stop-color:#FFFFFF;stop-opacity:0"/>
		</radialGradient>
		<ellipse class="st96" cx="107.3" cy="263.4" rx="22.6" ry="13.2"/>
		
			<radialGradient id="SVGID_16_" cx="128.1206" cy="56.6019" r="22.5571" gradientTransform="matrix(0.9696 0 0 0.5753 -1.6196 220.5797)" gradientUnits="userSpaceOnUse">
			<stop  offset="0" style="stop-color:#7C969E"/>
			<stop  offset="0.148" style="stop-color:#819AA2;stop-opacity:0.852"/>
			<stop  offset="0.332" style="stop-color:#91A7AD;stop-opacity:0.668"/>
			<stop  offset="0.5351" style="stop-color:#AABBC0;stop-opacity:0.4649"/>
			<stop  offset="0.752" style="stop-color:#CDD7DA;stop-opacity:0.248"/>
			<stop  offset="0.9775" style="stop-color:#FAFBFB;stop-opacity:2.245986e-02"/>
			<stop  offset="1" style="stop-color:#FFFFFF;stop-opacity:0"/>
		</radialGradient>
		<ellipse class="st97" cx="122.6" cy="253.1" rx="22.6" ry="13.2"/>
		<g>
			<g>
				<g>
					<g>
						<path class="st98" d="M115.2,263.5c0.4-0.2,0.8-0.4,1.1-0.6c0.4-0.2,0.7-0.4,1-0.6c0,0,0-1.1,0-1.2c-0.9-0.9-2.1-0.8-1.7-1.2
							c0.4-0.4,2.5-0.5,4.3-0.6c0.3-0.6,0.4-1.1,0.4-1.7c0,0,0-1.2,0-1.2c-1.7-0.4-3.7,0.3-3.8-0.2c-0.1-0.4,1.5-1.2,2.9-1.9
							c0,0,0-1.2,0-1.2c-1.8,0.2-5.2,0.2-5.8-0.1c-0.6-0.3,0-1.5,0.4-2.6v-1.2c-1.3,0.8-5.2,2.1-6,2.1c-0.8-0.1-1.5-1.2-2.3-2.2
							c-1,0-1.9,0.1-2.9,0.3c-0.2,1.1-0.3,2.3-1,2.5c-0.7,0.2-2.4-0.5-4.1-1c-0.4,0.2-1.8-0.1-2.1,0.1v1.2c0.9,0.9,2.1,2,1.7,2.4
							c-0.4,0.4-2.8,0.6-4.6,0.7c-0.3,0.5-0.1,1-0.1,1.6c1.7,0.4,3.7,0.9,3.8,1.3c0.1,0.4-1.6,0.1-2.9,0.8v1.2
							c0.3,0.5,0.8,1,1.3,1.5c1.8-0.2,3.9-0.5,4.4-0.2c0.5,0.3,0,0.4-0.4,1.4c0,0.1,0,1.1,0,1.2c0.8,0.3,1.7,0.6,2.6,0.8
							c1.3-0.8,2.6-1.7,3.3-1.7c0.8,0.1,1.5,1.2,2.3,2.2c1,0,2-0.1,2.9-0.3c0.2-1.1,0.3-2.3,1-2.5
							C111.8,262.3,113.6,262.9,115.2,263.5z M101.7,260c-2.7-1.5-2.7-4,0-5.6c2.7-1.5,7-1.5,9.7,0c2.7,1.5,2.7,4,0,5.6
							C108.7,261.6,104.4,261.6,101.7,260z"/>
					</g>
				</g>
				<g>
					<path class="st99" d="M115.2,262.3c0.4-0.2,0.8-0.4,1.1-0.6c0.4-0.2,0.7-0.4,1-0.6c-0.9-0.9-2.1-2-1.7-2.3
						c0.4-0.4,2.5-0.5,4.3-0.6c0.3-0.6,0.4-1.1,0.4-1.7c-1.7-0.4-3.7-0.9-3.8-1.3c-0.1-0.4,1.5-1.2,2.9-1.9c-0.3-0.5-0.8-1-1.3-1.5
						c-1.8,0.2-3.9,0.5-4.4,0.2c-0.6-0.3,0-1.5,0.4-2.6c-0.8-0.3-1.7-0.6-2.6-0.8c-1.3,0.8-2.6,1.7-3.3,1.7
						c-0.8-0.1-1.5-1.2-2.3-2.2c-1,0-1.9,0.1-2.9,0.3c-0.2,1.1-0.3,2.3-1,2.5c-0.7,0.2-2.4-0.5-4.1-1c-0.4,0.2-0.8,0.4-1.1,0.6
						c-0.4,0.2-0.7,0.4-1,0.6c0.9,0.9,2.1,2,1.7,2.4c-0.4,0.4-2.4,0.5-4.3,0.6c-0.3,0.6-0.4,1.1-0.5,1.7c1.7,0.4,3.7,0.9,3.8,1.3
						c0.1,0.4-1.5,1.2-2.9,1.9c0.3,0.5,0.8,1,1.3,1.5c1.8-0.2,3.9-0.5,4.4-0.2c0.6,0.3,0,1.5-0.4,2.6c0.8,0.3,1.7,0.6,2.6,0.8
						c1.3-0.8,2.6-1.7,3.3-1.7c0.8,0.1,1.5,1.2,2.3,2.2c1,0,2-0.1,2.9-0.3c0.2-1.1,0.3-2.3,1-2.5
						C111.8,261.1,113.6,261.8,115.2,262.3z M101.7,258.9c-2.7-1.5-2.7-4,0-5.6c2.7-1.5,7-1.5,9.7,0c2.7,1.5,2.7,4,0,5.6
						C108.7,260.4,104.4,260.4,101.7,258.9z"/>
				</g>
			</g>
			<g>
				<g>
					<path class="st98" d="M129.6,252c0.2-0.1,0.5-0.2,0.7-0.4c0.2-0.1,0.4-0.3,0.6-0.4c0,0,0-1,0-1.1c-0.6-0.6-1.3-0.2-1.1-0.4
						c0.2-0.3,1.5-0.3,2.7-0.4c0.2-0.3,0.3-0.7,0.3-1.1c0,0,0-1.1,0-1.1c-1.1-0.3-2.3,0.5-2.4,0.2c-0.1-0.3,0.9-0.8,1.8-1.2
						c0,0,0-1.1,0-1.1c-1.2,0.1-3.3,0.5-3.6,0.3c-0.4-0.2,0-0.9,0.2-1.6v-1.1c-0.8,0.5-3.3,1.7-3.7,1.6c-0.5,0-1-0.8-1.4-1.4
						c-0.6,0-1.2,0.1-1.8,0.2c-0.1,0.7-0.2,1.4-0.6,1.6c-0.4,0.1-1.5-0.3-2.6-0.6c-0.2,0.1-1.1-0.4-1.3-0.3v1.1
						c0.6,0.6,1.3,1.2,1.1,1.5c-0.2,0.3-1.8,0.3-3,0.4c0,0,0,0.7,0,1.1c1.1,0.3,2.3,0.6,2.4,0.8c0.1,0.3-1-0.3-1.8,0.1v1.1
						c0.2,0.3,0.5,0.6,0.8,0.9c1.2-0.1,2.4-0.3,2.8-0.1c0.1,0,0-0.1-0.2,0.5c0,0.1,0,1,0,1.1c0.5,0.2,1.1,0.4,1.6,0.5
						c0.8-0.5,1.6-1.1,2.1-1.1c0.5,0,1,0.8,1.4,1.4c0.6,0,1.2-0.1,1.8-0.2c0.1-0.7,0.2-1.4,0.6-1.6
						C127.4,251.3,128.6,251.7,129.6,252z M121.1,249.9c-1.7-1-1.7-2.5,0-3.5c1.7-1,4.4-1,6.1,0c1.7,1,1.7,2.5,0,3.5
						C125.5,250.8,122.8,250.8,121.1,249.9z"/>
				</g>
				<g>
					<path class="st99" d="M129.6,251c0.2-0.1,0.5-0.2,0.7-0.4c0.2-0.1,0.4-0.3,0.6-0.4c-0.6-0.6-1.3-1.2-1.1-1.5
						c0.2-0.3,1.5-0.3,2.7-0.4c0.2-0.3,0.3-0.7,0.3-1c-1.1-0.3-2.3-0.6-2.4-0.8c-0.1-0.3,0.9-0.8,1.8-1.2c-0.2-0.3-0.5-0.6-0.8-0.9
						c-1.2,0.1-2.4,0.3-2.8,0.1c-0.4-0.2,0-0.9,0.2-1.6c-0.5-0.2-1.1-0.4-1.6-0.5c-0.8,0.5-1.6,1.1-2.1,1.1c-0.5,0-1-0.8-1.4-1.4
						c-0.6,0-1.2,0.1-1.8,0.2c-0.1,0.7-0.2,1.4-0.6,1.6c-0.4,0.1-1.5-0.3-2.6-0.6c-0.2,0.1-0.5,0.2-0.7,0.4
						c-0.2,0.1-0.4,0.3-0.6,0.4c0.6,0.6,1.3,1.2,1.1,1.5c-0.2,0.3-1.5,0.3-2.7,0.4c-0.2,0.3-0.3,0.7-0.3,1.1
						c1.1,0.3,2.3,0.6,2.4,0.8c0.1,0.3-0.9,0.8-1.8,1.2c0.2,0.3,0.5,0.6,0.8,0.9c1.2-0.1,2.4-0.3,2.8-0.1c0.3,0.2,0,0.9-0.2,1.6
						c0.5,0.2,1.1,0.4,1.6,0.5c0.8-0.5,1.6-1.1,2.1-1.1c0.5,0,1,0.8,1.4,1.4c0.6,0,1.2-0.1,1.8-0.2c0.1-0.7,0.2-1.4,0.6-1.6
						C127.4,250.2,128.6,250.6,129.6,251z M121.1,248.8c-1.7-1-1.7-2.5,0-3.5c1.7-1,4.4-1,6.1,0c1.7,1,1.7,2.5,0,3.5
						C125.5,249.8,122.8,249.8,121.1,248.8z"/>
				</g>
			</g>
		</g>
	</g>
	<g>
		<g>
			<g>
				<path class="st100" d="M49.8,240.3v-3.4h-1.5c-0.5-0.6-1.2-1.1-2.1-1.6c-4.8-2.8-12.6-2.8-17.4,0c-0.8,0.5-1.5,1-2.1,1.6h-1.5
					v3.4c0,1.8,1.2,3.6,3.6,5c4.8,2.8,12.6,2.8,17.4,0C48.6,243.9,49.8,242.1,49.8,240.3z"/>
				<path class="st101" d="M46.2,241.9c-4.8,2.8-12.6,2.8-17.4,0c-4.8-2.8-4.8-7.3,0-10c4.8-2.8,12.6-2.8,17.4,0
					C51,234.6,51,239.1,46.2,241.9z"/>
				<path class="st17" d="M48.8,180.5c-1.4-7.9-11.3-30.1-11.3-30.1s-9.8,22.2-11.3,30.1c-2.5,13.6,0,55.3,0,55.3h0
					c0,1.7,1.1,3.3,3.3,4.6c4.4,2.5,11.5,2.5,16,0c2.2-1.3,3.3-3,3.3-4.6C48.8,235,51.2,193.9,48.8,180.5z"/>
				<path class="st21" d="M49.2,181.8c-0.1-0.5-0.1-0.9-0.2-1.3c-1.4-7.9-11.3-30.1-11.3-30.1s-9.8,22.2-11.3,30.1
					c-0.1,0.4-0.1,0.9-0.2,1.3c-0.1,0.4-0.1,0.9-0.2,1.3c0.1,1.7,1.2,3.3,3.4,4.6c4.6,2.6,11.9,2.6,16.5,0c2.2-1.3,3.3-2.9,3.4-4.6
					C49.3,182.6,49.2,182.2,49.2,181.8z"/>
			</g>
			<g>
				<polygon class="st23" points="58.9,254.1 45.6,213.6 46.7,212.8 58.2,224.6 60.1,253.4 				"/>
				<polygon class="st21" points="45.6,240.2 45.6,213.6 57,225.3 58.9,254.1 				"/>
			</g>
			<g>
				<polygon class="st23" points="15.5,254.1 28.9,213.6 27.7,212.8 16.3,224.6 14.4,253.4 				"/>
				<polygon class="st21" points="28.9,240.2 28.9,213.6 17.4,225.3 15.5,254.1 				"/>
			</g>
		</g>
		<rect x="34.2" y="220.8" class="st101" width="5.9" height="18.5"/>
		<rect x="34.2" y="196.3" class="st101" width="5.9" height="20.2"/>
	</g>
</g>
</svg>
