<?xml version="1.0" encoding="utf-8"?>
<!-- Generator: Adobe Illustrator 21.0.2, SVG Export Plug-In . SVG Version: 6.00 Build 0)  -->
<svg version="1.1" id="Слой_1" xmlns="http://www.w3.org/2000/svg" xmlns:xlink="http://www.w3.org/1999/xlink" x="0px" y="0px"
	 viewBox="0 0 636.6 411.3" style="enable-background:new 0 0 636.6 411.3;" xml:space="preserve">
<style type="text/css">
	.st0{fill:url(#SVGID_1_);}
	.st1{fill:url(#SVGID_2_);}
	.st2{fill:url(#SVGID_3_);}
	.st3{fill:url(#SVGID_4_);}
	.st4{fill:url(#SVGID_5_);}
	.st5{fill:url(#SVGID_6_);}
	.st6{fill:url(#SVGID_7_);}
	.st7{fill:url(#SVGID_8_);}
	.st8{fill:url(#SVGID_9_);}
	.st9{fill:url(#SVGID_10_);}
	.st10{fill:url(#SVGID_11_);}
	.st11{fill:url(#SVGID_12_);}
	.st12{fill:url(#SVGID_13_);}
	.st13{fill:url(#SVGID_14_);}
	.st14{fill:url(#SVGID_15_);}
	.st15{fill:url(#SVGID_16_);}
	.st16{fill:url(#SVGID_17_);}
	.st17{fill:url(#SVGID_18_);}
	.st18{fill:url(#SVGID_19_);}
	.st19{fill:url(#SVGID_20_);}
	.st20{fill:url(#SVGID_21_);}
	.st21{fill:url(#SVGID_22_);}
	.st22{fill:url(#SVGID_23_);}
	.st23{fill:url(#SVGID_24_);}
	.st24{fill:url(#SVGID_25_);}
	.st25{fill:url(#SVGID_26_);}
	.st26{fill:url(#SVGID_27_);}
	.st27{fill:#FF7759;}
	.st28{fill:#FF6A59;}
	.st29{fill:url(#SVGID_28_);}
	.st30{fill:url(#SVGID_29_);}
	.st31{fill:url(#SVGID_30_);}
	.st32{opacity:0.95;fill:url(#SVGID_31_);}
	.st33{fill:#FF5458;}
	.st34{fill:url(#SVGID_32_);}
	.st35{fill:#38D2E0;}
	.st36{fill:#EEA886;}
	.st37{fill:#DB9C7C;}
	.st38{fill:#323657;}
	.st39{fill:#424773;}
	.st40{fill:#292C47;}
	.st41{fill:#E2D2CA;}
	.st42{fill:#EFAA88;}
	.st43{fill:#CF8C6C;}
	.st44{fill:#EB4747;}
	.st45{fill:#23344A;}
	.st46{fill:#9E4CC7;}
	.st47{fill:#3F74A0;}
	.st48{fill:#5B83C2;}
	.st49{fill:#AD3434;}
	.st50{fill:#B06E2A;}
	.st51{fill:#223247;}
	.st52{fill:#FAA146;}
	.st53{fill:#5B2C73;}
	.st54{fill:#F0DDD5;}
	.st55{fill:#A77860;}
	.st56{fill:#FF4D4D;}
	.st57{fill:#C43B3B;}
	.st58{fill:#EEECF0;}
	.st59{fill:#78C2FF;}
	.st60{fill:#E6E6E6;}
</style>
<g>
	<g>
		<linearGradient id="SVGID_1_" gradientUnits="userSpaceOnUse" x1="107.265" y1="199.4951" x2="445.2564" y2="199.4951">
			<stop  offset="0" style="stop-color:#A246C4"/>
			<stop  offset="1" style="stop-color:#5EAFFF"/>
		</linearGradient>
		<rect x="127.8" y="53.9" class="st0" width="302.4" height="291.1"/>
		<g>
			<linearGradient id="SVGID_2_" gradientUnits="userSpaceOnUse" x1="448.1191" y1="226.6451" x2="505.8067" y2="226.6451">
				<stop  offset="5.181350e-03" style="stop-color:#595959"/>
				<stop  offset="1" style="stop-color:#FFFFFF"/>
			</linearGradient>
			<path class="st1" d="M502.5,238.8c0,0-16.4-45.1-54.4-33.3c0,0,32,5.1,48.5,32C513,264.3,502.5,238.8,502.5,238.8z"/>
			<linearGradient id="SVGID_3_" gradientUnits="userSpaceOnUse" x1="492.7493" y1="226.6451" x2="550.4365" y2="226.6451">
				<stop  offset="5.181350e-03" style="stop-color:#595959"/>
				<stop  offset="1" style="stop-color:#FFFFFF"/>
			</linearGradient>
			<path class="st2" d="M496,238.8c0,0,16.4-45.1,54.4-33.3c0,0-32,5.1-48.5,32C485.6,264.3,496,238.8,496,238.8z"/>
			<linearGradient id="SVGID_4_" gradientUnits="userSpaceOnUse" x1="536.0488" y1="223.3547" x2="567.8789" y2="223.3547">
				<stop  offset="5.181350e-03" style="stop-color:#B3B3B3"/>
				<stop  offset="1" style="stop-color:#FFFFFF"/>
			</linearGradient>
			<path class="st3" d="M536,203.6c0,0,25.8-2.7,1,38l13.4,1.6C550.4,243.2,598,201.5,536,203.6z"/>
			<linearGradient id="SVGID_5_" gradientUnits="userSpaceOnUse" x1="490.4657" y1="236.3689" x2="507.0195" y2="236.3689">
				<stop  offset="5.181350e-03" style="stop-color:#B3B3B3"/>
				<stop  offset="1" style="stop-color:#FFFFFF"/>
			</linearGradient>
			<path class="st4" d="M507,238.9l-4.5,2l-1.2,0.5c0,0-17.8-5-7.8-9.3c2.4-1,4.4-1.2,6.1-0.8C505,232.6,507,238.9,507,238.9z"/>
			<linearGradient id="SVGID_6_" gradientUnits="userSpaceOnUse" x1="490.4657" y1="236.3689" x2="502.5088" y2="236.3689">
				<stop  offset="5.181350e-03" style="stop-color:#595959"/>
				<stop  offset="1" style="stop-color:#FFFFFF"/>
			</linearGradient>
			<path class="st5" d="M502.5,241l-1.2,0.5c0,0-17.8-5-7.8-9.3c2.4-1,4.4-1.2,6.1-0.8c0,0,0,0,0,0
				C499.6,231.4,491.8,234.1,502.5,241z"/>
			<linearGradient id="SVGID_7_" gradientUnits="userSpaceOnUse" x1="497.3959" y1="367.835" x2="497.3959" y2="275.0959">
				<stop  offset="0" style="stop-color:#40D5E6"/>
				<stop  offset="1" style="stop-color:#5577FF"/>
			</linearGradient>
			<rect x="428.2" y="236.4" class="st6" width="138.3" height="108.7"/>
			<linearGradient id="SVGID_8_" gradientUnits="userSpaceOnUse" x1="423.3164" y1="252.7021" x2="571.4736" y2="252.7021">
				<stop  offset="0" style="stop-color:#40D5E6"/>
				<stop  offset="1" style="stop-color:#5577FF"/>
			</linearGradient>
			<rect x="423.3" y="236.4" class="st7" width="148.2" height="32.6"/>
			<linearGradient id="SVGID_9_" gradientUnits="userSpaceOnUse" x1="519.9078" y1="290.7221" x2="473.3987" y2="290.7221">
				<stop  offset="5.181350e-03" style="stop-color:#B3B3B3"/>
				<stop  offset="1" style="stop-color:#FFFFFF"/>
			</linearGradient>
			<rect x="482.5" y="236.4" class="st8" width="29.8" height="108.7"/>
		</g>
		<g>
			<linearGradient id="SVGID_10_" gradientUnits="userSpaceOnUse" x1="562.7765" y1="263.9543" x2="585.748" y2="263.9543">
				<stop  offset="0" style="stop-color:#1F3073"/>
				<stop  offset="1" style="stop-color:#4E6CDE"/>
			</linearGradient>
			<path class="st9" d="M585.7,272.6c0,0-12-4.4-18.7-9.3c-2-1.5-3.5-3-4-4.4c-0.5-1.3-0.3-2.5,0.9-3.6c0,0,0.8-0.3,2.8,0.5
				c3,1.3,8.8,5.1,18.6,16.4C585.5,272.4,585.6,272.5,585.7,272.6z"/>
			<linearGradient id="SVGID_11_" gradientUnits="userSpaceOnUse" x1="551.5314" y1="266.7629" x2="585.748" y2="266.7629">
				<stop  offset="0" style="stop-color:#7C3596"/>
				<stop  offset="1" style="stop-color:#3098FF"/>
			</linearGradient>
			<path class="st10" d="M585.7,272.6l-0.7,3.4c0,0-24,6-31.7-1.8c-0.1-0.1-0.2-0.2-0.3-0.3c-0.7-0.8-1.1-1.6-1.3-2.4
				c-2.2-7.4,12.2-16.1,12.2-16.1c-0.3,0.4-0.2,1,0.2,1.7c0.4,0.7,1.1,1.5,2,2.3C571.8,264.7,585.7,272.6,585.7,272.6z"/>
			<linearGradient id="SVGID_12_" gradientUnits="userSpaceOnUse" x1="547.8424" y1="275.3055" x2="569.3387" y2="254.3071">
				<stop  offset="0" style="stop-color:#354996"/>
				<stop  offset="1" style="stop-color:#4E6CDE"/>
			</linearGradient>
			<path class="st11" d="M566.1,259.3c0,0-4.9,2-6.4,5.2c-1.5,3.2-2.3,5.9-4.4,6.9c-1,0.5-1.7,1.4-2.2,2.4c-0.7-0.8-1.1-1.6-1.3-2.4
				c0.2-1.3,0.6-2.7,1.7-3.9c3.1-3.6,6.2-6.3,6.6-7.6c0.3-1,2.9-2.3,4.1-2.9C564.5,257.7,565.2,258.5,566.1,259.3L566.1,259.3z"/>
			<linearGradient id="SVGID_13_" gradientUnits="userSpaceOnUse" x1="593.0703" y1="263.9543" x2="616.0435" y2="263.9543">
				<stop  offset="0" style="stop-color:#1F3073"/>
				<stop  offset="1" style="stop-color:#4E6CDE"/>
			</linearGradient>
			<path class="st12" d="M593.1,272.6c0,0,12-4.4,18.7-9.3c2-1.5,3.5-3,4-4.4c0.5-1.3,0.3-2.5-0.9-3.6c0,0-0.8-0.3-2.8,0.5
				c-3,1.3-8.8,5.1-18.6,16.4C593.3,272.4,593.2,272.5,593.1,272.6z"/>
			<linearGradient id="SVGID_14_" gradientUnits="userSpaceOnUse" x1="593.0703" y1="266.7629" x2="627.2885" y2="266.7629">
				<stop  offset="0" style="stop-color:#7C3596"/>
				<stop  offset="1" style="stop-color:#3098FF"/>
			</linearGradient>
			<path class="st13" d="M593.1,272.6l0.7,3.4c0,0,24,6,31.7-1.8c0.1-0.1,0.2-0.2,0.3-0.3c0.7-0.8,1.1-1.6,1.3-2.4
				c2.2-7.4-12.2-16.1-12.2-16.1c0.3,0.4,0.2,1-0.2,1.7c-0.4,0.7-1.1,1.5-2,2.3C607.1,264.7,593.1,272.6,593.1,272.6z"/>
			<linearGradient id="SVGID_15_" gradientUnits="userSpaceOnUse" x1="589.3618" y1="274.8338" x2="588.8636" y2="268.7464">
				<stop  offset="0" style="stop-color:#354996"/>
				<stop  offset="1" style="stop-color:#4E6CDE"/>
			</linearGradient>
			<path class="st14" d="M584.8,272.6c0,0,1.1-1.3,1.9-0.8c0.8,0.5,1.9-1,3.1-0.4c1.2,0.6,1.3-1,2.8-0.1c1.5,0.9,2.3,3.8,1.2,5.2
				c-1.1,1.5-1.7-0.3-2.2,0c-0.5,0.3-1.5,1.6-3.2,0.6c-1.7-1-4.1,0.9-3.9-0.3C584.7,275.6,584.1,275,584.8,272.6z"/>
			<linearGradient id="SVGID_16_" gradientUnits="userSpaceOnUse" x1="589.4091" y1="331.2338" x2="589.4091" y2="281.2397">
				<stop  offset="0" style="stop-color:#FFC05C"/>
				<stop  offset="1" style="stop-color:#FF3857"/>
			</linearGradient>
			<rect x="545.4" y="275.9" class="st15" width="88.1" height="69.2"/>
			<linearGradient id="SVGID_17_" gradientUnits="userSpaceOnUse" x1="589.4092" y1="304.0086" x2="589.4092" y2="248.8795">
				<stop  offset="0" style="stop-color:#FFC05C"/>
				<stop  offset="1" style="stop-color:#FF3857"/>
			</linearGradient>
			<rect x="542.3" y="275.9" class="st16" width="94.3" height="24"/>
			<linearGradient id="SVGID_18_" gradientUnits="userSpaceOnUse" x1="589.4091" y1="347.2811" x2="589.4091" y2="251.6606">
				<stop  offset="0" style="stop-color:#7C3596"/>
				<stop  offset="1" style="stop-color:#3098FF"/>
			</linearGradient>
			<rect x="579.9" y="275.9" class="st17" width="18.9" height="69.2"/>
		</g>
		<g>
			<linearGradient id="SVGID_19_" gradientUnits="userSpaceOnUse" x1="34.1041" y1="106.4174" x2="121.0135" y2="106.4174">
				<stop  offset="0" style="stop-color:#40D5E6"/>
				<stop  offset="1" style="stop-color:#5577FF"/>
			</linearGradient>
			<path class="st18" d="M76.7,155.7c15.2,10.6,30.2,17.7,38.2,13.4c0.5-0.3,0.9-0.6,1.3-0.9c4.6-3.6,6.2-12.1,3.1-27.5
				C111.2,99.9,85.5,93.4,61.5,81c-23.7-12.1-14.7-38-14.4-38.6C14.3,100.5,50.9,137.7,76.7,155.7z"/>
			<g>
				
					<linearGradient id="SVGID_20_" gradientUnits="userSpaceOnUse" x1="-5861.4341" y1="2252.7051" x2="-5861.4341" y2="2168.7373" gradientTransform="matrix(-0.7847 0.6199 0.6199 0.7847 -5872.3193 2044.7085)">
					<stop  offset="0" style="stop-color:#40D5E6"/>
					<stop  offset="1" style="stop-color:#5577FF"/>
				</linearGradient>
				<path class="st19" d="M115,169.1c0.5-0.3,0.9-0.6,1.3-0.9c-3-8-9.7-23.3-18.8-31.7c-4.3-3.9-9.3-7.5-14.6-11.2
					c-10-7.1-20.3-14.5-27.3-25.3l-1.3,0.8c7.2,11.1,17.6,18.5,27.7,25.7c5.2,3.7,10.2,7.3,14.4,11.1
					C105.3,145.8,112,161.4,115,169.1z"/>
			</g>
		</g>
		<g>
			<linearGradient id="SVGID_21_" gradientUnits="userSpaceOnUse" x1="0" y1="178.8898" x2="150.8281" y2="178.8898">
				<stop  offset="0" style="stop-color:#40D5E6"/>
				<stop  offset="1" style="stop-color:#5577FF"/>
			</linearGradient>
			<path class="st20" d="M32,197.5c21,3.4,34.6-13.2,58.8,17.4c20.9,26.4,50.5-2.8,58.1-11.3c1.2-1.3,1.9-2.2,1.9-2.2
				s-0.5,0.1-1.3,0.3c-5.2,1.1-25.1,4.4-29.8-10.8c-5.4-17.5-20.9-41.2-41.3-34.9c-20.4,6.3-24.8-9.1-39.9-20.7
				C23.5,123.9,0,145.2,0,145.2S11,194.1,32,197.5z"/>
			<g>
				
					<linearGradient id="SVGID_22_" gradientUnits="userSpaceOnUse" x1="-3146.6565" y1="1965.9318" x2="-3146.6565" y2="1862.4492" gradientTransform="matrix(-0.5585 0.8295 0.8295 0.5585 -3245.2542 1728.858)">
					<stop  offset="0" style="stop-color:#40D5E6"/>
					<stop  offset="1" style="stop-color:#5577FF"/>
				</linearGradient>
				<path class="st21" d="M97.9,191.8c4,6.9,8.1,14.1,17.5,18.1c12.8,5.4,25.8-0.9,33.6-6.1c1.2-1.3,1.9-2.2,1.9-2.2
					s-0.5,0.1-1.3,0.3c-7.3,5.2-20.7,12.4-33.7,6.9c-9-3.8-13-10.8-16.9-17.6c-4.5-7.8-9.2-15.9-21.4-18.7
					c-5.4-1.2-10.2-0.8-14.9-0.5c-6.7,0.6-13,1.1-19.9-3.7l-0.7,1c7.3,5,13.8,4.5,20.7,3.9c4.6-0.4,9.3-0.8,14.5,0.4
					C89,176.3,93.3,183.8,97.9,191.8z"/>
			</g>
		</g>
		<g>
			
				<linearGradient id="SVGID_23_" gradientUnits="userSpaceOnUse" x1="3873.4827" y1="-5673.0464" x2="3918.1938" y2="-5737.2358" gradientTransform="matrix(0.7071 0.7071 -0.7071 0.7071 -6361.9404 1368.2263)">
				<stop  offset="0" style="stop-color:#40D5E6"/>
				<stop  offset="1" style="stop-color:#5577FF"/>
			</linearGradient>
			<path class="st22" d="M423.9,99.7c2.3,41.6,35.2,39.5,37.8,39.3c0.1,0,0.2,0,0.2,0c-0.7-0.8-1.4-1.7-2-2.5
				c-16.5-22.9,2.3-54.2,2-77.2c-0.3-23.9-21.6-29.1-21.6-29.1C455.9,43.3,421.5,56.5,423.9,99.7z"/>
			<g>
				
					<linearGradient id="SVGID_24_" gradientUnits="userSpaceOnUse" x1="-11965.9023" y1="-680.9985" x2="-11921.1924" y2="-745.1855" gradientTransform="matrix(-0.9932 -0.1166 -0.1166 0.9932 -11907.6504 -1357.598)">
					<stop  offset="0" style="stop-color:#40D5E6"/>
					<stop  offset="1" style="stop-color:#5577FF"/>
				</linearGradient>
				<path class="st23" d="M443.2,120.7c4.5,8,11.5,14,18.5,18.3c0.1,0,0.2,0,0.2,0c-0.7-0.8-1.4-1.7-2-2.5
					c-6-4.1-11.8-9.5-15.7-16.3c-5-8.8-5.8-18.6-2.5-29c10.4-33,4.5-38.3,4.3-38.5l-0.4,0.5l-0.4,0.4c0,0,0,0,0,0
					c0.3,0.3,5.2,6.2-4.6,37.3C437.2,101.5,438,111.5,443.2,120.7z"/>
			</g>
		</g>
		<g>
			<linearGradient id="SVGID_25_" gradientUnits="userSpaceOnUse" x1="464.8289" y1="167.8502" x2="512.0067" y2="-27.1594">
				<stop  offset="0" style="stop-color:#40D5E6"/>
				<stop  offset="1" style="stop-color:#5577FF"/>
			</linearGradient>
			<path class="st24" d="M490.3,141.3c-13.1,16.2-27,28.5-37,26.3c-0.6-0.1-1.2-0.3-1.7-0.5c-6.1-2.5-10.4-11.1-11.9-28.6
				c-3.9-46.5,21.7-61.5,43.8-82.2c21.8-20.4,14.4-45.4,13.9-46C550.7,62.5,512.5,113.9,490.3,141.3z"/>
			<g>
				<linearGradient id="SVGID_26_" gradientUnits="userSpaceOnUse" x1="438.1138" y1="157.5762" x2="524.3861" y2="71.3038">
					<stop  offset="0" style="stop-color:#40D5E6"/>
					<stop  offset="1" style="stop-color:#5577FF"/>
				</linearGradient>
				<path class="st25" d="M453.3,167.5c-0.6-0.1-1.2-0.3-1.7-0.5c0.8-9.5,3.2-28.1,10.4-39.9c3.4-5.6,7.7-10.9,12.2-16.6
					c8.5-10.7,17.4-21.9,21.5-35.7l1.7,0.5c-4.2,14.2-13.2,25.4-21.8,36.3c-4.5,5.6-8.7,11-12.1,16.4
					C456.5,139.5,454.1,158.3,453.3,167.5z"/>
			</g>
		</g>
		<linearGradient id="SVGID_27_" gradientUnits="userSpaceOnUse" x1="87.2617" y1="214.7202" x2="470.7109" y2="214.7202">
			<stop  offset="0" style="stop-color:#FFC05C"/>
			<stop  offset="1" style="stop-color:#FF3857"/>
		</linearGradient>
		<path class="st26" d="M451.2,333.7H106.8c-10.8,0-19.5-8.7-19.5-19.5v-199c0-10.8,8.7-19.5,19.5-19.5h344.4
			c10.8,0,19.5,8.7,19.5,19.5v199C470.7,325,462,333.7,451.2,333.7z"/>
		<g>
			<path class="st27" d="M405.2,177.7c-17.4,0-31.6-14.2-31.6-31.6c0-17.4,14.2-31.6,31.6-31.6c17.4,0,31.6,14.2,31.6,31.6
				C436.7,163.6,422.6,177.7,405.2,177.7z M405.2,119.2c-14.8,0-26.9,12.1-26.9,26.9c0,14.8,12.1,26.9,26.9,26.9
				c14.8,0,26.9-12.1,26.9-26.9C432.1,131.3,420,119.2,405.2,119.2z"/>
		</g>
		<g>
			<path class="st28" d="M130.2,279.3c-1.7,0-3.3-0.3-4.8-0.9c-1.5-0.6-2.8-1.4-3.9-2.4c-1.1-1-2-2.2-2.6-3.6c-0.6-1.4-1-2.8-1-4.4
				c0-1.5,0.3-3,1-4.4c0.6-1.4,1.5-2.6,2.6-3.6c1.1-1,2.4-1.8,3.9-2.4c1.5-0.6,3.1-0.9,4.8-0.9c1.7,0,3.3,0.3,4.8,0.9
				c1.5,0.6,2.8,1.4,3.9,2.4c1.1,1,2,2.2,2.6,3.6c0.6,1.4,1,2.8,1,4.4c0,1.6-0.3,3.1-1,4.4c-0.6,1.4-1.5,2.5-2.6,3.6
				c-1.1,1-2.4,1.8-3.9,2.4C133.5,279,131.9,279.3,130.2,279.3z M122.1,306.8l20.9-24.4l19.3-25.4l4.5,4l-20.3,24l-20,25.8
				L122.1,306.8z M130.2,274.3c0.7,0,1.4-0.2,2-0.5c0.6-0.3,1.2-0.8,1.7-1.4c0.5-0.6,0.9-1.2,1.2-2c0.3-0.8,0.4-1.6,0.4-2.4
				c0-1.7-0.5-3.2-1.6-4.4c-1-1.2-2.3-1.8-3.7-1.8c-0.7,0-1.4,0.2-2,0.5c-0.6,0.3-1.2,0.8-1.7,1.4c-0.5,0.6-0.9,1.2-1.2,2
				c-0.3,0.7-0.4,1.5-0.4,2.4c0,1.7,0.5,3.2,1.6,4.5C127.5,273.7,128.8,274.3,130.2,274.3z M158.9,311c-1.7,0-3.3-0.3-4.8-0.9
				c-1.5-0.6-2.8-1.4-3.9-2.4c-1.1-1-2-2.2-2.6-3.5c-0.6-1.4-1-2.8-1-4.4c0-1.6,0.3-3.1,1-4.4c0.6-1.4,1.5-2.5,2.6-3.6
				c1.1-1,2.4-1.8,3.9-2.4c1.5-0.6,3.1-0.9,4.8-0.9c1.7,0,3.3,0.3,4.8,0.9c1.5,0.6,2.8,1.4,3.9,2.4c1.1,1,2,2.2,2.6,3.6
				c0.6,1.4,0.9,2.8,0.9,4.4c0,1.6-0.3,3.1-0.9,4.4c-0.6,1.4-1.5,2.5-2.6,3.5c-1.1,1-2.4,1.8-3.9,2.4
				C162.2,310.7,160.6,311,158.9,311z M158.9,306c0.7,0,1.4-0.2,2-0.5c0.6-0.3,1.2-0.8,1.7-1.4c0.5-0.6,0.9-1.2,1.2-2
				c0.3-0.7,0.4-1.5,0.4-2.4c0-0.9-0.1-1.7-0.4-2.5c-0.3-0.8-0.7-1.4-1.2-2c-0.5-0.6-1-1-1.7-1.3c-0.6-0.3-1.3-0.5-2-0.5
				c-0.7,0-1.4,0.2-2,0.5c-0.6,0.3-1.2,0.8-1.7,1.4c-0.5,0.6-0.9,1.2-1.2,2c-0.3,0.8-0.4,1.6-0.4,2.4c0,1.7,0.5,3.2,1.6,4.4
				C156.2,305.4,157.4,306,158.9,306z"/>
		</g>
		<linearGradient id="SVGID_28_" gradientUnits="userSpaceOnUse" x1="31.4874" y1="133.8232" x2="356.25" y2="133.8232">
			<stop  offset="0" style="stop-color:#FFC05C"/>
			<stop  offset="1" style="stop-color:#FF3857"/>
		</linearGradient>
		<rect x="109.7" y="126.5" class="st29" width="203.4" height="14.6"/>
		<linearGradient id="SVGID_29_" gradientUnits="userSpaceOnUse" x1="31.4874" y1="116.4623" x2="356.25" y2="116.4623">
			<stop  offset="0" style="stop-color:#FFC05C"/>
			<stop  offset="1" style="stop-color:#FF3857"/>
		</linearGradient>
		<rect x="109.7" y="114.6" class="st30" width="203.4" height="3.8"/>
		<linearGradient id="SVGID_30_" gradientUnits="userSpaceOnUse" x1="31.4875" y1="156.4282" x2="356.2504" y2="156.4282">
			<stop  offset="0" style="stop-color:#FFC05C"/>
			<stop  offset="1" style="stop-color:#FF3857"/>
		</linearGradient>
		<rect x="109.7" y="149.2" class="st31" width="104" height="14.6"/>
		<linearGradient id="SVGID_31_" gradientUnits="userSpaceOnUse" x1="427.019" y1="255.8798" x2="144.1469" y2="255.8798">
			<stop  offset="0" style="stop-color:#EDF4FF"/>
			<stop  offset="1" style="stop-color:#EDFFFE"/>
		</linearGradient>
		<path class="st32" d="M343.7,355.3H214.3c-8.2,0-14.9-6.7-14.9-14.9V171.3c0-8.2,6.7-14.9,14.9-14.9h129.4
			c8.2,0,14.9,6.7,14.9,14.9v169.1C358.6,348.7,351.9,355.3,343.7,355.3z"/>
		<g>
			<path class="st33" d="M319.3,321c-9.7,0-17.5-7.9-17.5-17.5c0-9.7,7.9-17.5,17.5-17.5c9.7,0,17.5,7.9,17.5,17.5
				C336.8,313.1,328.9,321,319.3,321z M319.3,289.3c-7.8,0-14.1,6.3-14.1,14.1c0,7.8,6.3,14.1,14.1,14.1c7.8,0,14.1-6.3,14.1-14.1
				C333.4,295.6,327.1,289.3,319.3,289.3z"/>
		</g>
		<g>
			<polygon class="st33" points="318.2,310.3 310.2,302.4 312.6,300 318.2,305.5 326,297.7 328.4,300.1 			"/>
		</g>
		<g>
			<rect x="368" y="295.7" class="st27" width="5.1" height="23.5"/>
			<rect x="375.5" y="295.7" class="st27" width="2.5" height="23.5"/>
			<rect x="380.5" y="295.7" class="st27" width="4.6" height="23.5"/>
			<rect x="387.7" y="295.7" class="st27" width="2.8" height="23.5"/>
			<rect x="392.4" y="295.8" class="st27" width="1.3" height="23.5"/>
			<rect x="395.6" y="295.7" class="st27" width="4.4" height="23.5"/>
			<rect x="401.8" y="295.7" class="st27" width="3.4" height="23.5"/>
			<rect x="406.8" y="295.7" class="st27" width="1.7" height="23.5"/>
			<rect x="410.4" y="295.7" class="st27" width="4.8" height="23.5"/>
			<rect x="416.4" y="295.7" class="st27" width="3.6" height="23.5"/>
			<rect x="421.5" y="295.7" class="st27" width="1.8" height="23.5"/>
			<rect x="424.7" y="295.7" class="st27" width="2.5" height="23.5"/>
			<rect x="428.9" y="295.8" class="st27" width="7.8" height="23.5"/>
		</g>
		<linearGradient id="SVGID_32_" gradientUnits="userSpaceOnUse" x1="278.9873" y1="83.7713" x2="278.9873" y2="35.2441">
			<stop  offset="0" style="stop-color:#7C3596"/>
			<stop  offset="1" style="stop-color:#3098FF"/>
		</linearGradient>
		<path class="st34" d="M118.6,35.2v43.1c0,0,8.6,12.2,18.9,0h18.9c0,0,8.6,12.2,18.9,0h18.9c0,0,8.6,12.2,18.9,0h18.9
			c0,0,8.6,12.2,18.9,0h18.9c0,0,8.6,12.2,18.9,0h18.9c0,0,8.6,12.2,18.9,0H345c0,0,8.6,12.2,18.9,0h18.9c0,0,8.6,12.2,18.9,0h18.9
			c0,0,8.6,12.2,18.9,0V35.2H118.6z"/>
		<g>
			<path class="st35" d="M137.5,78.4c0,0,8.6,12.2,18.9,0V35.2h-18.9V78.4z"/>
			<path class="st35" d="M175.2,78.4c0,0,8.6,12.2,18.9,0V35.2h-18.9V78.4z"/>
			<path class="st35" d="M213,78.4c0,0,8.6,12.2,18.9,0V35.2H213V78.4z"/>
			<path class="st35" d="M250.7,78.4c0,0,8.6,12.2,18.9,0V35.2h-18.9V78.4z"/>
			<path class="st35" d="M288.4,78.4c0,0,8.6,12.2,18.9,0V35.2h-18.9V78.4z"/>
			<path class="st35" d="M326.1,78.4c0,0,8.6,12.2,18.9,0V35.2h-18.9V78.4z"/>
			<path class="st35" d="M363.9,78.4c0,0,8.6,12.2,18.9,0V35.2h-18.9V78.4z"/>
			<path class="st35" d="M401.6,35.2v43.1c0,0,8.6,12.2,18.9,0V35.2H401.6z"/>
		</g>
		<path class="st33" d="M308.7,186l-2.7,11.7h-68.1v2.7l9.8,45.5v1.3h5.6l1.4,5.9h2c-1.9,0.7-3.3,2.5-3.3,4.7c0,2.7,2.2,5,5,5
			c2.7,0,5-2.2,5-5c0-2.1-1.4-4-3.3-4.7h28c-1.9,0.7-3.3,2.5-3.3,4.7c0,2.7,2.2,5,5,5c2.7,0,5-2.2,5-5c0-2.1-1.4-4-3.3-4.7h2.2V251
			h-37.4l-0.9-3.8h42.3v-1.3l8-37.2l4.7-20.5h28.6V186H308.7z M261.3,257.8c0,1.6-1.3,2.9-2.9,2.9c-1.6,0-2.9-1.3-2.9-2.9
			c0-1.6,1.3-2.9,2.9-2.9C260,254.9,261.3,256.2,261.3,257.8z M292.7,257.8c0,1.6-1.3,2.9-2.9,2.9c-1.6,0-2.9-1.3-2.9-2.9
			c0-1.6,1.3-2.9,2.9-2.9C291.4,254.9,292.7,256.2,292.7,257.8z M263.8,216h17.8l-0.9,13h-16L263.8,216z M262.4,228.9h-15.9l-2.8-13
			h17.8L262.4,228.9z M281.8,213.3h-18.2l-0.9-13h20.1L281.8,213.3z M285.1,200.4h20l-2.8,13h-18.2L285.1,200.4z M280.5,231.6
			l-0.9,13h-13.7l-0.9-13H280.5z M282.8,231.6h15.5l-2.8,13h-13.7L282.8,231.6z M298.9,228.9H283l0.9-13h17.8l-2.7,12.7L298.9,228.9
			z M260.3,200.4l0.9,13h-18.2l-2.8-13H260.3z M247,231.6h15.5l0.9,13h-13.7L247,231.6z"/>
		<rect x="271" y="332.7" class="st33" width="16" height="2"/>
		<rect x="271" y="167.8" class="st33" width="16" height="2"/>
		<rect x="222.9" y="294.5" class="st33" width="39.4" height="5.3"/>
		<rect x="222.9" y="307.1" class="st33" width="58.4" height="5.3"/>
		<rect x="375.5" y="209" class="st28" width="61.2" height="20.1"/>
		<rect x="375.5" y="234.6" class="st28" width="61.2" height="12"/>
		<g>
			<g>
				<g>
					<g>
						<path class="st36" d="M403.3,299.5c0,0-0.8,1.3-0.9,2.4c-0.1,0.8-0.8,2.1-1.1,2.8c-0.3,0.7-1.3,3.9-1.3,4.7
							c0,0.3,0.7,2.5,0.6,3.1c-0.1,0.7-0.5,2,0.1,2.1c0.6,0.1,1.3-1,1.3-1s-0.1,0.6,0.5,0.9c1,0.5,1.5,0.1,1.5,0.1s0.4,0.7,0.8,0.8
							c1,0.2,1.5-0.2,1.5-0.2s0.5,0.4,1.2,0.4c0.9,0,1.3-0.8,1.3-0.8s1.1,0.2,1.5-0.3c0.3-0.5,0.3-1.1,0.4-1.6c0.1-0.5,0-4.9-1.5-8
							c-1.5-3.2,0.4-6.2,0.4-6.2L403.3,299.5z"/>
					</g>
				</g>
			</g>
			<g>
				<g>
					<path class="st37" d="M401.8,313.2c0,0-0.1-3.9,0.9-4.8c1-0.8,1.2,0.6,1.2,0.6s-0.1-1.4,1-1.6c1.1-0.2,1.2,1.5,1.2,1.5
						s0.2-1.1,1.4-0.9c1.2,0.2,0.9,1.6,0.9,1.6s1.1-1.4,1.9-0.1c1.2,2.2,0,4.8,0,4.8s-0.4,0.6-1.5,0.3c0,0-0.8,1.5-2.5,0.4
						c0,0-1.7,1-2.4-0.6C404,314.6,402.1,315.5,401.8,313.2z"/>
				</g>
			</g>
			<path class="st38" d="M389.9,242.8c0,0,6.7,22.5,9,30.7c0.7,2.6,2.4,27.4,2.7,28.4c0.3,1,8.9,2.4,8.9,2.4s-1-31-1.1-32.7
				c-0.1-1.7-9.4-36.4-12.1-37.6c-2-0.9-3.1-0.2-5.7,1.7C388,238.4,389.9,242.8,389.9,242.8z"/>
			<g>
				<g>
					<path class="st39" d="M395.4,396.1c0,0,0.6,4.3,0.7,4.9c0.1,0.6,6.8-0.4,6.8-0.4l0.5-5.1C403.4,395.6,396.2,395.5,395.4,396.1z
						"/>
				</g>
			</g>
			<g>
				<g>
					<path class="st40" d="M396,400.5c0,0-2.1,2.6-4.2,3.7c-2.1,1.1-5.3,1.6-6.5,2.7c-0.9,0.8-3.2,4.4,5.4,4.4
						c8.6-0.1,12.7,0.5,13.7-0.9c0.9-1.4-1.3-10.2-1.3-10.2S400.9,401,396,400.5z"/>
				</g>
			</g>
			<g>
				<g>
					<path class="st39" d="M347,396.1c0,0,0.6,4.3,0.7,4.9c0.1,0.6,6.8-0.4,6.8-0.4l0.5-5.1C355,395.6,347.8,395.5,347,396.1z"/>
				</g>
			</g>
			<g>
				<g>
					<path class="st40" d="M347.6,400.5c0,0-2.1,2.6-4.2,3.7c-2.1,1.1-9.7,2-10.9,3.2c-0.9,0.8-2.4,4.2,9.7,3.9
						c8.6-0.2,12.7,0.5,13.7-0.9c0.9-1.4-1.3-10.2-1.3-10.2S352.6,401,347.6,400.5z"/>
				</g>
			</g>
			<g>
				<g>
					<path class="st40" d="M389.8,286.6c0,0,6.3,10.1,5.9,19.2c-0.5,9.1,2.3,19.1,3.3,28.6c1.1,10.6,5.4,35.8,5.6,41.4
						c0.2,5.7-0.7,23.8-0.7,23.8l-8.7,0.2c0,0-7.3-43.9-9.2-48.4c-1.9-4.5-11.3-36.5-11.6-40C374,307.8,389.8,286.6,389.8,286.6z"/>
				</g>
			</g>
			<g>
				<g>
					<path class="st40" d="M356.4,287.9c0,0-4.8,25-5.4,30.6c-0.6,5.6-1.1,27-1.4,30.5c-0.3,3.5-3,45.5-3.8,50.8h11.1
						c0,0,8.5-30.6,8.5-45.1c0-14.5,6.6-31.5,10.9-41.1c4.3-9.6,14-9.8,16.6-27.5C393,286.1,359.9,282.3,356.4,287.9z"/>
				</g>
			</g>
			<g>
				<g>
					<path class="st36" d="M379.2,201.8c0,0-8.5-3.2-12.5,3.3c-3.9,6.5-3.6,19.5,0.7,21.1c4.3,1.6,10.7,0.8,12.9-3.3
						c2.2-4.1,4.2-9.9,4.1-13.8C384.4,205.1,381.4,202.9,379.2,201.8z"/>
				</g>
			</g>
			<g>
				<g>
					<path class="st36" d="M368.4,226.4c0,0,0.4,2.3-0.2,3.4c-0.6,1.1,11,1.2,11,1.2s0.9-6.2,2.7-11.4
						C383.7,214.5,368.4,226.4,368.4,226.4z"/>
				</g>
			</g>
			<g>
				<g>
					<path class="st38" d="M381.9,219.7c0,0-0.8,1.3-4.1,0.8c-3.3-0.5-7.3-4.9-8.6-5.4c-1.4-0.5-1.4-1.3-1.4-1.3l-0.9,1.3l-1.5,0.1
						c0,0,1.3-3.9-0.7-5.5c-2-1.6,2.1-12.6,12.6-8.9c0,0,8.1,2.2,7.8,6.8C384.9,212.2,383.8,217.4,381.9,219.7z"/>
				</g>
			</g>
			<g>
				<g>
					<path class="st41" d="M367.5,229.7c0,0,0-2.2,1-2.4c1-0.2,10.8-1.2,12-0.7v2.5C380.5,229.2,378.2,230.6,367.5,229.7z"/>
				</g>
			</g>
			<g>
				<g>
					<path class="st36" d="M368.1,212.2c0.2-0.8,2.1-3,2.9-0.6c0.8,2.4-1.1,5.5-2.2,5.3C367.7,216.5,367.6,214.1,368.1,212.2z"/>
				</g>
			</g>
			<g>
				<g>
					<path class="st38" d="M328.4,255.3C328.4,255.3,328.4,255.3,328.4,255.3C328.3,255.4,328.3,255.4,328.4,255.3z"/>
				</g>
			</g>
			<g>
				<g>
					<path class="st38" d="M381.6,202.5c0,0,10.9,0.9,0.3,17.1L381.6,202.5z"/>
				</g>
			</g>
			<path class="st42" d="M307.6,205.8c0.3-1.1,1.5-1.4,1.5-1.4c0.5-0.7,1.7-1.1,1.7-1.1c0-0.1,0-0.1,0.1-0.1c-0.8-0.8-3-2.4-3.1-2.7
				c-0.2-0.4-0.1-0.4,0.3-0.6c0.4-0.2,4,2.2,5.2,3c0.3,0.2,0.5,0.4,0.6,0.4c0.3,0.3,1,0.5,1.6,1.1c0.1,0.1,0.1,0.1,0.2,0.2
				c0.6,0.8,2,7,2,7l-2.5,1.1l-2.5,2.1c0,0-2.9-2.4-3.6-3.1c-0.7-0.7-1.1-1.6-1.3-2c0-0.1-0.1-0.2-0.2-0.4c-0.3-0.5-0.8-1.1-0.8-1.1
				c-0.3-0.4-0.4-1.2-0.4-1.2C306.4,206.3,307.6,205.8,307.6,205.8z"/>
			<g>
				<g>
					<path class="st38" d="M351.2,233c6.8-0.9,16.3-3.3,16.3-3.3l13.1-0.5c0,0,12,2.6,16.7,4.8c0.4,0.2,0.4,10.7,1.7,13.4l-3.9,8.3
						c0,0-2.3,16.4-2.7,23.6c-0.2,3.3,4.7,31.3,4.7,31.3s-5.2,1.5-14.1,2.5c-8.9,1-31.2-0.4-31.3-1.4c-0.1-1.1,4.3-39.2,4.5-41.2
						c0.3-3-1-19.1-1-19.1c-2.1-1.6-20.1-10-25.1-14.4c-1.3-1.2-6.9-6.6-8.5-8.5c-5.6-6.6-10.2-12.3-10.8-13.5
						c-0.6-0.7,6.1-4.4,6.7-4.6c0.5-0.2,8.1,9.6,11,12.8c1.3,1.4,6.7,5.3,6.7,5.3S347,233.3,351.2,233z"/>
				</g>
			</g>
		</g>
		<g>
			<g>
				<path class="st36" d="M139.7,227.8c0,0,1.6-2.9,1.8-3.4c0.3-0.4,1.5-1.1,3.1-1.7c1.5-0.6,3.9-0.7,4.1-0.5
					c0.2,0.2,0.5,0.2,0.8,0.9c0.2,0.7,0,1.4,0,1.4s0.6,0.7,0.4,1.6c0,0,0.7,0.6,0.2,1.6c0,0,0.7,0.7,0.3,1.3c0,0-1.3,0.6-1.7,1
					c-0.4,0.4-3.2,1.5-6,2.2C142.7,232.2,139.8,232,139.7,227.8z"/>
			</g>
			<g>
				<path class="st43" d="M144.3,226.6c0,0-0.2,1.7-0.4,2.1c-0.3,0.4,3.2,1.9,3.2,1.9S146.3,226.9,144.3,226.6z"/>
			</g>
			<g>
				<g>
					<polygon class="st44" points="184.1,269.5 142.5,274.9 135.4,236.8 179,229.3 					"/>
				</g>
			</g>
			<g>
				<g>
					<path class="st45" d="M163,233c-0.1-4-1.6-8.8-4.7-11.4c-2.3-1.9-5.1-2.3-8-1.8c-6.8,1.1-7.2,8.2-5.8,13.1L163,233z
						 M145.2,232.1c-1.2-5.3-0.1-10.5,5.3-11.4c2.6-0.4,5.2-0.1,7.3,1.6c2.7,2.2,4,6.3,4.3,9.8L145.2,232.1z"/>
				</g>
			</g>
			<g>
				<g>
					<path class="st45" d="M164.7,233c-0.1-4-1.9-8.8-5-11.4c-2.3-1.9-5.1-2.3-8-1.8c-6.8,1.1-6,8.2-4.6,13.1L164.7,233z
						 M147.8,232.1c-1.2-5.3-1.4-10.5,4.1-11.4c2.6-0.4,5.2-0.1,7.3,1.6c2.7,2.2,4.6,6.3,4.9,9.8L147.8,232.1z"/>
				</g>
			</g>
			<g>
				<g>
					<polygon class="st46" points="177.7,275.6 129.1,271.9 133,232.5 178.2,231.1 					"/>
				</g>
			</g>
			<g>
				<path class="st36" d="M41.9,253.8c0,0,0.4-3.3,0.4-3.8c0-0.5-0.6-1.8-1.6-3.1c-0.9-1.4-2.8-2.8-3-2.8c-0.3,0-0.6-0.1-1.2,0.3
					c-0.6,0.4-0.8,1.1-0.8,1.1s-1,0.2-1.3,1.1c0,0-0.9,0.2-1,1.2c0,0-0.9,0.2-1,0.9c0,0,0.7,1.2,0.8,1.8c0.1,0.5,1.7,3,3.6,5.2
					C36.9,255.7,39.4,257.1,41.9,253.8z"/>
			</g>
			<g>
				<g>
					<path class="st45" d="M47.2,258.4c0.4-3.1,0-7-2-9.4c-1.4-1.6-3.2-2.2-5.2-2.3c-2.8-0.1-5.4,0.7-7.3,2.8
						c-2.6,2.8-3.3,7.6-2.9,11.4L47.2,258.4z M30.5,259.9c-0.2-3.3,0.5-7.3,2.8-9.8c1.7-1.9,4.1-2.6,6.7-2.5c1.8,0,3.4,0.6,4.6,2
						c1.7,2,2.2,5.4,1.9,8.1L30.5,259.9z"/>
				</g>
			</g>
			<g>
				<g>
					<polygon class="st47" points="11.1,303.3 14.3,262.2 21.4,302.7 16.5,301.9 					"/>
				</g>
			</g>
			<g>
				<g>
					<polygon class="st48" points="21.4,302.7 63.7,295.3 56.8,255.9 14.1,261.9 					"/>
				</g>
			</g>
			<g>
				<g>
					<path class="st45" d="M66.7,267.2c0.7,2,0,4.6-0.8,6.5l0.8,0.1c0.9-2,1.5-4.6,0.8-6.7L66.7,267.2z"/>
				</g>
			</g>
			<g>
				<g>
					<polygon class="st44" points="35.5,304.3 70.2,308.8 76.1,277 39.8,270.8 					"/>
				</g>
			</g>
			<g>
				<g>
					<polygon class="st49" points="28.4,303.3 39.8,270.9 35.5,304.1 31.8,302.7 					"/>
				</g>
			</g>
			<g>
				<g>
					<path class="st45" d="M67.4,266.3c1.2,2.4,0.6,5.8,0.4,6.7l0.7,0.3c0.2-1,1.1-5-0.8-7.9L67.4,266.3z"/>
				</g>
			</g>
			<g>
				<g>
					<polygon class="st50" points="31.8,308.2 39.5,273.1 40.8,309.2 36.6,307.6 					"/>
				</g>
			</g>
			<g>
				<path class="st36" d="M36.9,255.7c0,0,2.6,2.3,3.9,2.3c1.3,0,2-3.6,2-3.6l-1.2-2.3L36.9,255.7z"/>
			</g>
			<g>
				<path class="st36" d="M137.9,229.9c0,0,1.3-1.2,1.9-2.3c0.6-1.1,3.2,4.5,3.2,4.5s-3.2,0.1-4.6,1.1
					C136.9,234.3,137.9,229.9,137.9,229.9z"/>
			</g>
			<g>
				<path class="st37" d="M148.3,222.4c0,0-3.8,1.6-3.7,2.2c0.2,0.6,0.6,0.8,0.6,0.8l-1.3,1.4c0,0-0.3,1.4,1.3,1.3
					c0,0-0.4,1.3,1.1,1c0,0,0.1,1,0.8,1c0.7,0,3.2-1.1,3.2-1.1s0.4-0.5-0.2-1.3c0,0,0.5-0.9-0.2-1.6c0,0,0.3-0.8-0.4-1.6
					c0,0,0.5-1.7-0.9-2.3C148.7,222.2,148.4,222.3,148.3,222.4z"/>
			</g>
			<g>
				<path class="st36" d="M141.6,224.4c0,0,2.8,0.2,4.3,1c0.3,0.2,0.6,0.4,0.6,0.8c0,0.4-0.6,0.8-1.9,0.8c-1.2,0-2.8,0.5-2.8,0.5
					S140.6,227.1,141.6,224.4z"/>
			</g>
			<g>
				<path class="st43" d="M38.8,250.2c0,0-0.8,1.5-0.9,2c0,0.5-3.7-0.3-3.7-0.3S37,249.2,38.8,250.2z"/>
			</g>
			<g>
				<path class="st37" d="M38,244.4c0,0,2.2,3.5,1.7,3.9c-0.5,0.4-1,0.3-1,0.3l0.3,1.9c0,0-0.5,1.3-1.8,0.4c0,0-0.4,1.3-1.5,0.2
					c0,0-0.6,0.7-1.2,0.3c-0.6-0.4-2-2.7-2-2.7s-0.1-0.6,0.9-1c0,0,0.1-1,1.1-1.2c0,0,0.2-0.8,1.2-1c0,0,0.6-1.7,2-1.4
					C37.7,244.1,37.9,244.3,38,244.4z"/>
			</g>
			<g>
				<path class="st36" d="M42.2,249.9c0,0-2.5-1.4-4.1-1.6c-0.4,0-0.8,0-0.9,0.3c-0.2,0.3,0.1,1,1.1,1.7c1,0.7,2.1,2,2.1,2
					S41.6,252.7,42.2,249.9z"/>
			</g>
			<g>
				<g>
					<path class="st47" d="M87.8,403.1c-2,0.6-2.6,4-4.3,5c-1.7,1-9.9,1.7-10.2-0.9c-0.3-2.6,3.5-4.9,5.1-6.2
						c1.7-1.3,5.5-5.5,6.3-7.2c0,0,0.7,1.1,2.7,0.7c2-0.3,2.4-0.9,2.4-0.9c-0.1,2,0.6,3.4,0.8,4.2C91.3,400.6,89.8,402.6,87.8,403.1
						z"/>
				</g>
			</g>
			<g>
				<g>
					<path class="st47" d="M101.2,403.6c-1.5,1.4-1.8,3.6-3.5,4.6c-0.5,0.3-1.5,0.6-2.6,0.8c-2.1,0.4-4.7,0.4-6-0.3
						c-0.4-0.3-0.7-0.6-0.8-1.1c-0.3-2.6,3.5-5.5,5.2-6.8c1-0.8,2.1-2.6,3-4.3c0.5-1.1,1-2.1,1.3-2.7c0,0,0,0,0,0
						c0,0,0.1,0.2,0.3,0.4c0.3,0.2,1,0.5,2.2,0.3c1.6-0.3,2.2-0.7,2.4-0.9c0,0,0,0,0,0c0,0,0,0,0,0c0,0,0,0,0,0c0,0,0,0,0,0l0,0
						c0,0,0,0,0,0c0.3,1.6,0.9,3.3,1.1,4C104.6,400.3,102.7,402.3,101.2,403.6z"/>
				</g>
			</g>
			<g>
				<g>
					<path class="st51" d="M86.7,199.9c0,0,6.4-0.7,8.8,5.6c2.3,6.2,4.5,8.3,4.8,11.5c1.1,13.2,7.3,10.2,5.5,17.9
						c-1.7,7.6-2.9,8.8-2.9,8.8l-14.8-2.9l-15,0c0,0,5.9-2.9,4.5-9.1c-1.3-6.2-4.5-16.4-2.7-23.4C76.8,201.3,82.8,200.4,86.7,199.9z
						"/>
				</g>
			</g>
			<g>
				<g>
					<polygon class="st52" points="40.8,309.2 78.2,307.9 78.9,272.9 39.5,272.9 					"/>
				</g>
			</g>
			<g>
				<g>
					<polygon class="st49" points="194,266.7 179,229.3 184.1,269.5 188.5,266.9 					"/>
				</g>
			</g>
			<g>
				<g>
					<polygon class="st53" points="188.6,274.4 178.2,231.1 177.7,275.6 182.8,273.7 					"/>
				</g>
			</g>
			<g>
				<g>
					<path class="st36" d="M76,288.6c0,0-5.4,18.9-6.4,23.8c-0.9,4.8-3.6,28.2-3.9,32.2c-0.3,4,8.9,22.6,9.4,24
						c1.9,5.2,9.8,24.1,9.8,24.1s5.1,3,4.5-1.4c-1.7-13.5-2.5-16.8-3.8-23.8c-2.7-15.3-8.2-17.3-7.3-19.6
						c8.5-22.6,10.2-37.9,11.4-39.3c1.1-1.3,1.3,0.7,2,3.6c0.7,2.9-0.3,23.2,0.9,31c0.7,4.2,2.1,13.8,2.6,19.3
						c0.5,5.5,3,30.9,3,30.9s0.3,0.9,4.1-1.2c0.6-0.3,3.6-22.5,3.7-29c0.1-6.5-2.8-7.5-0.5-20.1c5-27.1,4.3-31.8-1.5-51.3
						C89.9,244.1,76,288.6,76,288.6z"/>
				</g>
			</g>
			<g>
				<g>
					<path class="st54" d="M142.3,233.2c-0.2-0.2-14,10.3-15.5,11.2c-3,1.7-6.2,1.6-9.5,1.8c-3.7,0.2-8-0.2-11.7,0.6
						c-1.9,0.4-2.1,0.9-3.1,2.9c-2.7,5.5-3.6,12.4-3.9,18.5c-0.4,6.3,2.1,10.7,4.6,16.3c0.9,1.9,2.1,3.9,0.4,5.6
						c-1.5,1.6-4.5,1.9-6.5,2.1c-4.9,0.6-12.4,1-17.1-0.9c-5.8-2.4-4.7-9.6-5.3-14.7c-0.4-3.4-2-8.5-3-11.7c-0.9-3.2-1-4.6-0.8-8
						c-1.8,5.1-3.3,13.8-8.1,17c-3.7,2.5-7.1-0.9-9.8-3.2c-5.1-4.4-10.2-8.9-15.3-13.3c1.1-1,2.2-2,3.3-3c0.4-0.3,0.4-0.4,0.8-0.7
						c1-0.8,0.8-1,1.8-0.4c0.7,0.4,2.4,2.1,3,2.6c1.8,1.7,3.5,2.8,5.3,4.5c1.6,1.5,4.4,5,6.8,3.7c1.9-0.9,2.4-4.8,3.1-6.5
						c1.8-4.8,3.6-9.6,5.8-14.2c2.3-5,7.4-7.6,12.4-9.6c4.3-1.7,10-1.4,14.4-0.3c3.1,0.8,4.1,0.8,7.2,1.7c2.9,0.8,5.6,1.8,8.6,2.4
						c3.4,0.7,6.9,1,10.4,1c2.8,0,3.9-0.4,6.2-2c3.1-2.2,7.7-5.9,11.1-7.6C139.9,227.9,140.6,231.5,142.3,233.2z"/>
				</g>
			</g>
			<g>
				<g>
					<path class="st36" d="M91.1,225.7c0,0-0.5,6.4,0.7,8.4c1.2,1.9-1.1,4.5-5.8,3.6c-4.7-0.9-4.5-3.6-4.5-3.6s1.3-4,0.9-7.2
						C82.1,223.8,91.1,225.7,91.1,225.7z"/>
				</g>
			</g>
			<g>
				<g>
					<path class="st36" d="M94.2,233.6c0,0-4.3,10-9.8,12.1c0,0-5.5-4.8-4-12C80.4,233.6,87.5,230,94.2,233.6z"/>
				</g>
			</g>
			<g>
				<g>
					<path class="st36" d="M87.5,203.5c0,0,8.5,1.2,7.3,13.8C93.6,230,86,229,85.5,228.9c-0.5,0-7.6,0.3-8.2-15.1
						C77.4,213.8,77.1,202.5,87.5,203.5z"/>
				</g>
			</g>
			<g>
				<g>
					<path class="st51" d="M86.5,208.1c0,0,4,4.2,5.8,6.3c1.9,2.1,2.1,6.2,2.1,6.2s3.1-3.8,1.8-8.3c-1.3-4.4-4.4-13.1-12.2-10.4
						c-7.8,2.7-8.1,14.3-7.2,20.1C76.9,222.1,80.4,209.3,86.5,208.1z"/>
				</g>
			</g>
			<g>
				<path class="st55" d="M83.3,228.4c0,0,3.7,1.8,7.4-1.1c0,0-1.4,2.4-3.9,2.5C84.2,230,83.3,228.4,83.3,228.4z"/>
			</g>
			<g>
				<path class="st45" d="M59.8,262.9c-0.4,0.8-1.2,1.2-1.2,1.2c-3.9,2.1-4.6,7.1-4.7,8.8l-0.8,0C53.8,263.8,59.8,262.9,59.8,262.9z
					"/>
			</g>
			<g>
				<path class="st45" d="M59.6,263c0,0-6.3,0.3-8.1,9.9l0.6,0.1c0,0,1.2-7,6.3-8.9C58.4,264,59.1,263.7,59.6,263z"/>
			</g>
			<g>
				<path class="st54" d="M104.2,287c0,0,8.6,17.9,2.8,54.1c0,0-17.6-1.6-44-3.5c0,0,12-48.7,12.3-51.8
					C75.7,282.6,104.2,287,104.2,287z"/>
			</g>
			<g>
				<g>
					<path class="st36" d="M84.8,392.3c0,0,2.5,1.6,4.7-0.5l0.2,1.9c0,0-3.9,3.5-4.9-0.3V392.3z"/>
				</g>
			</g>
			<g>
				<g>
					<path class="st36" d="M98.9,392c0,0,1.5,1.3,3.7-0.7l0.3,2.2c0,0-3.8,3.9-4.8,0.1L98.9,392z"/>
				</g>
			</g>
			<g>
				<g>
					<path class="st47" d="M84.8,393.4c0,0-2,2.4-1.8,2.8c0.2,0.4,4.6,1.3,5.3,0.3c0.7-0.9,1.5-2.9,1.5-2.9S85.9,395.4,84.8,393.4z"
						/>
				</g>
			</g>
			<g>
				<g>
					<path class="st47" d="M98.2,393.4c0,0-1.9,2.7-1.7,3.1c0.2,0.4,4.1,1,4.8,0.1c0.7-0.9,1.6-2.9,1.6-2.9S99.3,395.4,98.2,393.4z"
						/>
				</g>
			</g>
			<g>
				<path class="st56" d="M75.1,283.2c0,0,10.4,3.8,25.3-4.6c0,0,0.6,1.2,1.3,2.9c0,0-13.6,8.4-26.3,4.3
					C75.4,285.7,75,283.8,75.1,283.2z"/>
			</g>
			<g>
				<path class="st49" d="M72.1,248.2c-1.2,3.1-1.3,8.7-1.3,8.7s-0.4,1.5-1,3.2C69.6,251.7,72.1,248.2,72.1,248.2z"/>
			</g>
			<g>
				<g>
					<path class="st57" d="M85.8,234.3c-0.5,0-1-0.1-1.5-0.1c-1.7-0.3-2.4-1.1-2.5-1.2l0.2-0.8c0,0,1,0.9,2.5,1.1
						c2,0.4,4.3-0.2,6.6-1.6l0.3,0.8C89.3,233.9,87.3,234.3,85.8,234.3z"/>
				</g>
			</g>
		</g>
		<g>
			<path class="st58" d="M112.3,99.7l-20,3.7c-1.1,0.2-2.2,0.8-2.9,1.7l-45.3,52.4c-1.8,2.1-1.6,5.4,0.5,7.2l19.1,16.5
				c2.1,1.8,5.4,1.6,7.2-0.5l45.3-52.4c0.8-0.9,1.2-2,1.2-3.1l0.8-20.3C118.5,101.7,115.6,99.1,112.3,99.7z M115.2,106.7
				c-1,1.1-2.7,1.3-3.9,0.3c-1.1-1-1.3-2.7-0.3-3.9c1-1.1,2.7-1.3,3.9-0.3C116.1,103.8,116.2,105.6,115.2,106.7z"/>
			<g>
				<path class="st59" d="M73.4,161.5c-0.7,0.8-1.4,1.4-2.3,1.9c-0.9,0.5-1.8,0.8-2.7,0.9l-0.7-2.9c0.1,0,0.4,0,0.7,0
					c0.3-0.1,0.7-0.2,1.1-0.3c0.4-0.2,0.8-0.4,1.2-0.6c0.4-0.3,0.8-0.6,1.2-1c0.5-0.6,0.8-1.2,0.8-1.7c0-0.5-0.2-0.9-0.6-1.3
					c-0.2-0.2-0.4-0.3-0.7-0.3c-0.2,0-0.5,0-0.8,0.2c-0.3,0.1-0.6,0.3-1,0.5c-0.3,0.2-0.7,0.4-1.1,0.7c-0.9,0.6-1.7,0.9-2.4,1
					c-0.7,0.1-1.4-0.1-2-0.7c-0.6-0.6-1.1-1.2-1.4-1.9c-0.3-0.7-0.4-1.4-0.4-2.1c0-0.7,0.2-1.5,0.5-2.2c0.3-0.7,0.7-1.4,1.3-2
					c0.6-0.7,1.3-1.3,2.1-1.6c0.7-0.4,1.4-0.6,2.1-0.7l0.6,2.8c-0.1,0-0.3,0-0.5,0c-0.3,0-0.5,0.1-0.9,0.3c-0.3,0.1-0.6,0.3-1,0.5
					c-0.3,0.2-0.6,0.5-0.9,0.8c-0.5,0.6-0.8,1.2-0.8,1.7c0,0.5,0.2,1,0.7,1.4c0.2,0.2,0.4,0.2,0.6,0.3c0.2,0,0.4,0,0.7-0.1
					c0.3-0.1,0.5-0.2,0.8-0.4c0.3-0.2,0.6-0.4,1-0.6c0.5-0.3,0.9-0.6,1.4-0.8c0.4-0.2,0.9-0.3,1.3-0.4c0.4-0.1,0.8,0,1.2,0.1
					c0.4,0.1,0.8,0.3,1.2,0.7c0.7,0.6,1.2,1.2,1.4,1.9c0.3,0.7,0.4,1.4,0.3,2.1c-0.1,0.7-0.3,1.4-0.6,2.1
					C74.3,160.3,73.9,160.9,73.4,161.5z"/>
				<path class="st59" d="M80.8,153c-0.4,0.5-0.8,0.8-1.3,1c-0.5,0.2-1,0.3-1.5,0.3c-0.5,0-1-0.1-1.6-0.4c-0.5-0.2-1-0.5-1.5-0.9
					c-0.7-0.6-1.2-1.3-1.6-2c-0.4-0.8-0.7-1.6-0.8-2.4c-0.1-0.8-0.1-1.6,0.1-2.4c0.2-0.8,0.5-1.5,1-2.1c0.5-0.6,1-0.9,1.7-1.1
					c0.6-0.1,1.2-0.1,1.8,0.2l-1.1-1.5l1.8-2.1l4.7,6.1c0.1,0.1,0.2,0.2,0.2,0.3c0.2,0.2,0.4,0.2,0.7-0.1l1.4,1.9
					c-0.1,0.2-0.2,0.4-0.3,0.6c-0.1,0.2-0.2,0.3-0.3,0.4c-0.3,0.4-0.6,0.6-1,0.7c-0.3,0.1-0.7,0-1-0.3c-0.1-0.1-0.3-0.3-0.5-0.6
					c0.2,0.8,0.2,1.6,0,2.4C81.6,151.8,81.3,152.5,80.8,153z M79.9,150.5c0.2-0.2,0.3-0.4,0.4-0.7c0.1-0.3,0.2-0.5,0.2-0.8
					c0-0.3,0-0.6,0-0.9c0-0.3-0.1-0.6-0.2-0.9l-1.6-2.1c-0.5-0.3-1-0.5-1.6-0.4c-0.6,0-1,0.3-1.3,0.7c-0.3,0.3-0.5,0.7-0.6,1.2
					c-0.1,0.5-0.1,0.9,0,1.4c0.1,0.5,0.2,0.9,0.5,1.4c0.2,0.4,0.5,0.8,0.9,1.2c0.5,0.5,1.1,0.7,1.7,0.7
					C78.9,151.3,79.4,151.1,79.9,150.5z"/>
				<path class="st59" d="M88.1,144.5c-0.5,0.5-0.9,0.8-1.4,0.9c-0.5,0.1-1-0.1-1.4-0.5c-0.1-0.1-0.2-0.2-0.3-0.3
					c-0.1-0.1-0.2-0.2-0.3-0.3L77,134.2l1.8-2.1l7.1,9.4c0,0.1,0.1,0.1,0.1,0.2c0,0,0.1,0.1,0.1,0.1c0.4,0.4,0.8,0.3,1.2-0.1
					c0.1-0.1,0.2-0.3,0.3-0.4c0.1-0.2,0.2-0.4,0.2-0.6l1.5,1.4c-0.1,0.4-0.3,0.8-0.6,1.3C88.6,143.9,88.3,144.2,88.1,144.5z"/>
				<path class="st59" d="M93.7,138.2c-0.4,0.5-0.9,0.9-1.5,1.2c-0.5,0.3-1.1,0.4-1.6,0.4c-0.6,0-1.1-0.1-1.7-0.3
					c-0.5-0.2-1.1-0.5-1.6-1c-0.7-0.6-1.2-1.3-1.6-2.1c-0.4-0.8-0.6-1.6-0.7-2.5c-0.1-0.9,0-1.7,0.3-2.6c0.3-0.9,0.7-1.7,1.3-2.4
					c0.8-0.9,1.6-1.4,2.4-1.6c0.8-0.2,1.6,0,2.4,0.7c1.7,1.5,1.3,3.8-1.4,7c-0.2,0.2-0.3,0.4-0.5,0.6c-0.2,0.2-0.4,0.4-0.6,0.6
					l0.2,0.2c0.5,0.5,1.1,0.7,1.7,0.8c0.6,0,1.1-0.2,1.5-0.7c0.4-0.4,0.6-0.9,0.7-1.4c0.1-0.5,0.1-1.1-0.1-1.6l1.9-1.2
					c0.1,0.5,0.2,1,0.2,1.5c0,0.5-0.1,1.1-0.2,1.6c-0.1,0.5-0.3,1-0.5,1.5C94.3,137.3,94,137.8,93.7,138.2z M88,130.7
					c-0.3,0.3-0.4,0.6-0.6,1c-0.1,0.4-0.2,0.7-0.2,1.1c0,0.4,0.1,0.7,0.2,1.1c0.1,0.4,0.3,0.7,0.5,1.1c0.2-0.2,0.3-0.3,0.4-0.5
					c0.1-0.2,0.3-0.3,0.4-0.5c0.4-0.5,0.8-0.9,1-1.3c0.2-0.4,0.4-0.7,0.5-1c0.1-0.3,0.1-0.6,0-0.8c-0.1-0.2-0.2-0.4-0.4-0.6
					c-0.3-0.3-0.6-0.3-1-0.2C88.7,130.1,88.3,130.3,88,130.7z"/>
			</g>
		</g>
		<g>
			<g>
				<path class="st60" d="M115,103.2l-0.2-0.6c0,0,1.5-0.4,3.6-1.6l0.3,0.6C116.6,102.7,115.1,103.2,115,103.2z"/>
			</g>
			<g>
				<path class="st60" d="M359.3,156.2l-0.6-0.2c0.9-2.7,1.7-5.1,2.4-7.6l0.6,0.2C361,151.1,360.2,153.6,359.3,156.2z M363.8,141
					l-0.6-0.2c0.7-2.7,1.3-5.3,1.7-7.7l0.7,0.1C365.1,135.7,364.5,138.3,363.8,141z M366.8,125.3l-0.7-0.1c0.3-2.7,0.5-5.4,0.6-7.9
					l0.7,0C367.3,119.9,367.2,122.6,366.8,125.3z M366.4,109.5c-0.3-2.7-0.8-5.3-1.5-7.7l0.6-0.2c0.7,2.5,1.2,5.1,1.5,7.9
					L366.4,109.5z M124.8,96.3l-0.5-0.4c1.6-2,2.8-4.4,3.5-6.9l0.6,0.2C127.7,91.8,126.5,94.2,124.8,96.3z M362.1,94.4
					c-1.2-2.3-2.7-4.5-4.3-6.5l0.5-0.4c1.7,2,3.2,4.3,4.4,6.7L362.1,94.4z M352.1,82.4c-2-1.6-4.2-3-6.6-4.2l0.3-0.6
					c2.4,1.3,4.7,2.7,6.7,4.3L352.1,82.4z M129.4,81.2l-0.7,0c0.1-2.4,0.3-5.2,0.7-8l0.7,0.1C129.7,76.1,129.5,78.8,129.4,81.2z
					 M338.2,75c-2.4-0.8-4.9-1.6-7.6-2.2l0.2-0.6c2.7,0.6,5.3,1.4,7.7,2.2L338.2,75z M322.8,71.3c-2.5-0.4-5.2-0.7-7.9-0.9l0.1-0.7
					c2.7,0.2,5.4,0.5,7.9,0.9L322.8,71.3z M307,69.8c-2.7-0.3-5.4-0.6-7.9-1l0.1-0.7c2.5,0.4,5.1,0.7,7.9,1L307,69.8z M291.3,67.3
					c-2.7-0.6-5.3-1.3-7.7-2.1l0.2-0.6c2.4,0.8,4.9,1.5,7.6,2.1L291.3,67.3z M131.5,65.5l-0.6-0.1c0.6-2.6,1.3-5.2,2.1-7.7l0.6,0.2
					C132.8,60.3,132.1,62.9,131.5,65.5z M276.2,62.2c-2.4-1.1-4.7-2.4-7-3.9l0.4-0.6c2.2,1.4,4.5,2.7,6.9,3.8L276.2,62.2z
					 M262.8,53.7c-2.2-1.8-4.3-3.6-6-5.2l0.4-0.5c1.7,1.6,3.8,3.4,6,5.2L262.8,53.7z M136.5,50.4l-0.6-0.3c1.1-2.5,2.3-4.9,3.6-7.1
					l0.6,0.3C138.8,45.6,137.6,48,136.5,50.4z M250.9,43.1c-2.2-2-4.2-3.6-6.1-5.1l0.4-0.5c1.9,1.5,3.9,3.1,6.1,5.1L250.9,43.1z
					 M144.5,36.9l-0.5-0.4c1.7-2.1,3.5-4.1,5.4-5.9l0.5,0.5C148,32.8,146.2,34.7,144.5,36.9z M238.4,33.5c-2.2-1.4-4.5-2.7-6.9-3.9
					l0.3-0.6c2.4,1.2,4.7,2.5,6.9,4L238.4,33.5z M224.4,26.3c-2.4-1-4.9-1.9-7.4-2.7l0.2-0.6c2.6,0.8,5.1,1.8,7.5,2.7L224.4,26.3z
					 M156,26.1l-0.4-0.6c2.2-1.5,4.6-2.8,7-3.9l0.3,0.6C160.5,23.3,158.2,24.6,156,26.1z M209.4,21.3c-2-0.5-4.2-1-6.3-1.5
					c-0.5-0.1-0.9-0.2-1.4-0.3l0.1-0.7c0.5,0.1,0.9,0.2,1.4,0.3c2.2,0.5,4.3,1,6.4,1.5L209.4,21.3z M170.3,19.6l-0.2-0.6
					c2.5-0.7,5.1-1.2,7.8-1.5l0.1,0.7C175.4,18.5,172.8,19,170.3,19.6z M193.8,18.3c-2.7-0.3-5.4-0.5-7.9-0.5l0-0.7
					c2.6,0,5.3,0.2,8,0.5L193.8,18.3z"/>
			</g>
			<g>
				<path class="st60" d="M355.1,167.9l-0.6-0.2c0.4-1.2,0.9-2.5,1.4-3.7l0.6,0.2C356,165.4,355.5,166.7,355.1,167.9z"/>
			</g>
		</g>
		<g>
			<path class="st59" d="M517.9,169l21-12.1l20.1-13.2l2.2,4l-20.4,11.9L520.2,173L517.9,169z M530.6,151.6c-1.2-0.4-2.3-1-3.2-1.8
				c-0.9-0.8-1.6-1.7-2.1-2.7s-0.8-2.1-0.9-3.2c-0.1-1.1,0-2.3,0.4-3.4c0.4-1.1,1-2,1.8-2.9c0.8-0.8,1.7-1.4,2.7-1.9
				c1-0.4,2.1-0.7,3.3-0.7c1.2,0,2.4,0.1,3.6,0.6c1.2,0.4,2.3,1,3.2,1.8c0.9,0.8,1.6,1.7,2.2,2.7c0.5,1,0.8,2,0.9,3.2
				c0.1,1.1,0,2.3-0.4,3.3c-0.4,1.1-1,2.1-1.8,2.9c-0.8,0.8-1.7,1.4-2.7,1.9c-1,0.4-2.1,0.7-3.4,0.7
				C533,152.2,531.8,152,530.6,151.6z M531.8,148.1c0.5,0.2,1.1,0.2,1.6,0.1c0.5-0.1,1-0.3,1.5-0.6c0.5-0.3,0.9-0.7,1.3-1.1
				c0.4-0.5,0.7-1,0.9-1.6c0.4-1.2,0.4-2.4,0-3.5c-0.4-1.1-1.2-1.9-2.2-2.2c-0.5-0.2-1.1-0.2-1.6-0.1c-0.5,0.1-1,0.3-1.5,0.6
				c-0.5,0.3-0.9,0.6-1.3,1.1c-0.4,0.5-0.7,1-0.9,1.6c-0.4,1.2-0.4,2.4,0,3.6C530.1,146.9,530.8,147.7,531.8,148.1z M543,181.3
				c-1.2-0.4-2.3-1-3.2-1.8c-0.9-0.8-1.6-1.7-2.1-2.7c-0.5-1-0.8-2-1-3.2c-0.1-1.1,0-2.3,0.4-3.4c0.4-1.1,1-2.1,1.8-2.9
				c0.8-0.8,1.7-1.4,2.7-1.9c1-0.4,2.1-0.7,3.3-0.7c1.2,0,2.4,0.1,3.6,0.6c1.2,0.4,2.3,1,3.2,1.8c0.9,0.8,1.6,1.7,2.2,2.7
				c0.5,1,0.9,2.1,0.9,3.2c0.1,1.1-0.1,2.2-0.5,3.4c-0.4,1.1-1,2.1-1.8,2.9c-0.8,0.8-1.7,1.4-2.7,1.8c-1,0.4-2.2,0.7-3.4,0.7
				C545.4,181.9,544.2,181.7,543,181.3z M544.2,177.7c0.5,0.2,1.1,0.2,1.6,0.1c0.5-0.1,1-0.3,1.5-0.6c0.5-0.3,0.9-0.6,1.3-1.1
				c0.4-0.5,0.7-1,0.9-1.6c0.2-0.6,0.3-1.3,0.3-1.9c0-0.6-0.1-1.2-0.3-1.7c-0.2-0.5-0.5-1-0.9-1.4c-0.4-0.4-0.8-0.7-1.3-0.8
				c-0.5-0.2-1.1-0.2-1.6-0.1c-0.5,0.1-1,0.3-1.5,0.6c-0.5,0.3-0.9,0.7-1.3,1.1c-0.4,0.5-0.7,1-0.9,1.6c-0.4,1.2-0.4,2.4,0,3.5
				C542.5,176.6,543.2,177.4,544.2,177.7z"/>
		</g>
		<g>
			<path class="st59" d="M65.3,18.2c-0.7,0.5-1.5,0.8-2.3,1c-0.8,0.2-1.5,0.2-2.3,0.1c-0.7-0.1-1.4-0.4-2.1-0.8
				c-0.6-0.4-1.2-0.9-1.6-1.6c-0.4-0.6-0.7-1.3-0.8-2.1c-0.1-0.8-0.1-1.5,0.1-2.2c0.2-0.7,0.5-1.4,1-2.1c0.5-0.7,1-1.2,1.8-1.7
				c0.7-0.5,1.5-0.8,2.2-0.9c0.8-0.2,1.6-0.2,2.3-0.1c0.7,0.1,1.4,0.4,2.1,0.8c0.7,0.4,1.2,0.9,1.6,1.6c0.4,0.7,0.7,1.4,0.8,2.1
				c0.1,0.7,0.1,1.5-0.1,2.2c-0.2,0.7-0.5,1.4-1,2.1C66.6,17.2,66,17.7,65.3,18.2z M63.9,16.1c0.3-0.2,0.5-0.5,0.7-0.8
				c0.2-0.3,0.3-0.7,0.3-1c0-0.4,0-0.8-0.1-1.2c-0.1-0.4-0.3-0.8-0.5-1.1c-0.5-0.7-1.1-1.2-1.9-1.4c-0.8-0.2-1.5-0.1-2.1,0.3
				c-0.3,0.2-0.5,0.5-0.7,0.8c-0.2,0.3-0.3,0.7-0.3,1c0,0.4,0,0.8,0.1,1.1c0.1,0.4,0.3,0.8,0.5,1.1c0.5,0.7,1.1,1.2,1.9,1.4
				C62.7,16.6,63.3,16.5,63.9,16.1z M69.5,31.9l2-16L72.6,0l3,0.4L73.7,16l-1.2,16.3L69.5,31.9z M86,23.5c-0.7,0.5-1.5,0.8-2.3,1
				c-0.8,0.2-1.5,0.2-2.3,0.1c-0.7-0.1-1.4-0.4-2.1-0.8c-0.6-0.4-1.2-0.9-1.6-1.6c-0.4-0.7-0.7-1.4-0.8-2.1
				c-0.1-0.7-0.1-1.5,0.1-2.2c0.2-0.7,0.5-1.4,0.9-2.1c0.5-0.7,1-1.2,1.8-1.7c0.7-0.5,1.5-0.8,2.3-1c0.8-0.2,1.5-0.2,2.3-0.1
				c0.7,0.1,1.4,0.4,2.1,0.8c0.6,0.4,1.2,0.9,1.6,1.6c0.4,0.7,0.7,1.4,0.8,2.1c0.1,0.7,0.1,1.5-0.1,2.2c-0.2,0.7-0.5,1.4-1,2.1
				C87.3,22.5,86.8,23.1,86,23.5z M84.7,21.5c0.3-0.2,0.5-0.5,0.7-0.8c0.2-0.3,0.3-0.7,0.3-1c0-0.4,0-0.8-0.1-1.1
				c-0.1-0.4-0.3-0.8-0.5-1.1c-0.2-0.4-0.5-0.7-0.9-0.9c-0.3-0.2-0.7-0.4-1-0.5c-0.4-0.1-0.7-0.1-1.1-0.1c-0.4,0-0.7,0.2-1,0.4
				c-0.3,0.2-0.5,0.5-0.7,0.8c-0.2,0.3-0.3,0.7-0.3,1c0,0.4,0,0.8,0.1,1.2c0.1,0.4,0.3,0.8,0.5,1.1c0.5,0.7,1.1,1.2,1.9,1.4
				C83.4,21.9,84.1,21.9,84.7,21.5z"/>
		</g>
	</g>
</g>
</svg>
