<?xml version="1.0" encoding="utf-8"?>
<!-- Generator: Adobe Illustrator 21.0.2, SVG Export Plug-In . SVG Version: 6.00 Build 0)  -->
<svg version="1.1" id="Layer_1" xmlns="http://www.w3.org/2000/svg" xmlns:xlink="http://www.w3.org/1999/xlink" x="0px" y="0px"
	 viewBox="0 0 512 438" style="enable-background:new 0 0 512 438;" xml:space="preserve">
<style type="text/css">
	.st0{fill:#FFFFFF;}
</style>
<g>
	<g>
		<path class="st0" d="M490.5,373h-15c1.9-3.8,3-8,3-12.5l0-260c0-15.2-12.3-27.5-27.5-27.5h-40.5v-9.2c0-7.2-5.9-13.1-13.1-13.1
			H385V13.1c0-4.2-2.1-8.2-5.5-10.7c-3.4-2.5-7.9-3.1-11.9-1.7L344,8.9c-3.9,1.4-6,5.6-4.6,9.5c1.4,3.9,5.6,6,9.5,4.6l21.1-7.3
			v180.4L263.5,233V52.6l55.1-19.1c3.9-1.4,6-5.6,4.6-9.5c-1.4-3.9-5.6-6-9.5-4.6l-57.7,20L144.4,0.7c-4-1.4-8.4-0.7-11.9,1.7
			c-3.4,2.5-5.5,6.4-5.5,10.7v37.6h-12.4c-7.2,0-13.1,5.9-13.1,13.1V73H61c-15.2,0-27.5,12.3-27.5,27.5l0,26.7
			c0,4.1,3.4,7.5,7.5,7.5s7.5-3.4,7.5-7.5l0-26.7C48.5,93.6,54.1,88,61,88h40.5v15H71c-2,0-3.9,0.8-5.3,2.2
			c-1.4,1.4-2.2,3.3-2.2,5.3l0,240c0,4.1,3.4,7.5,7.5,7.5l370,0c2,0,3.9-0.8,5.3-2.2c1.4-1.4,2.2-3.3,2.2-5.3l0-240
			c0-4.1-3.4-7.5-7.5-7.5h-30.5V88H451c6.9,0,12.5,5.6,12.5,12.5l0,260c0,6.9-5.6,12.5-12.5,12.5l-390,0c-6.9,0-12.5-5.6-12.5-12.5
			l0-201.2c0-4.1-3.4-7.5-7.5-7.5s-7.5,3.4-7.5,7.5l0,201.2c0,4.5,1.1,8.7,3,12.5h-15C9.6,373,0,382.6,0,394.5v22
			C0,428.4,9.6,438,21.5,438h298.2c4.1,0,7.5-3.4,7.5-7.5s-3.4-7.5-7.5-7.5H21.5c-3.6,0-6.5-2.9-6.5-6.5v-22c0-3.6,2.9-6.5,6.5-6.5
			h184v5.3c0,10.3,8.4,18.7,18.7,18.7h63.5c10.3,0,18.7-8.4,18.7-18.7V388h184c3.6,0,6.5,2.9,6.5,6.5v22c0,3.6-2.9,6.5-6.5,6.5
			H352.4c-4.1,0-7.5,3.4-7.5,7.5s3.4,7.5,7.5,7.5h138.1c11.9,0,21.5-9.6,21.5-21.5v-22C512,382.6,502.4,373,490.5,373L490.5,373z
			 M376.2,209.9c5.3-1.8,8.8-6.8,8.8-12.4V65.7h10.5V236h-94.9L376.2,209.9z M142,15.8l106.5,36.8V233L142,196.1V15.8z M116.5,65.7
			H127v131.8c0,5.6,3.5,10.6,8.8,12.4l75.5,26.1h-94.9L116.5,65.7z M433.5,118l0,225l-355,0l0-225h23v119.9
			c0,7.2,5.9,13.1,13.1,13.1h282.8c7.2,0,13.1-5.9,13.1-13.1V118L433.5,118z M291.5,393.3c0,2.1-1.7,3.7-3.7,3.7h-63.5
			c-2.1,0-3.7-1.7-3.7-3.7V388h71V393.3z"/>
		<path class="st0" d="M354.5,272.4h-197c-4.1,0-7.5,3.4-7.5,7.5s3.4,7.5,7.5,7.5h197c4.1,0,7.5-3.4,7.5-7.5
			S358.7,272.4,354.5,272.4z"/>
		<path class="st0" d="M285.3,304.2H157.5c-4.1,0-7.5,3.4-7.5,7.5s3.4,7.5,7.5,7.5h127.8c4.1,0,7.5-3.4,7.5-7.5
			S289.4,304.2,285.3,304.2z"/>
	</g>
</g>
</svg>
