<?xml version="1.0" encoding="utf-8"?>
<!-- Generator: Adobe Illustrator 21.0.2, SVG Export Plug-In . SVG Version: 6.00 Build 0)  -->
<svg version="1.1" id="Capa_1" xmlns="http://www.w3.org/2000/svg" xmlns:xlink="http://www.w3.org/1999/xlink" x="0px" y="0px"
	 viewBox="0 0 512 451.7" style="enable-background:new 0 0 512 451.7;" xml:space="preserve">
<style type="text/css">
	.st0{fill:#FFFFFF;}
</style>
<g>
	<g>
		<g>
			<path class="st0" d="M424.5,51.7c-5.5,0-10,4.5-10,10s4.5,10,10,10s10-4.5,10-10C434.5,56.2,430,51.7,424.5,51.7z"/>
		</g>
	</g>
	<g>
		<g>
			<path class="st0" d="M476.5,41.6C452.6,14.8,419.5,0,383.3,0c-39.6,0-75.8,15.4-104.6,44.4c-10,10.1-17.5,20.2-22.7,28.2
				c-5.2-8-12.7-18.1-22.7-28.2C204.5,15.4,168.4,0,128.8,0C52.9,0,0,63.5,0,138.9c0,101.9,108,187.7,249.5,310.3
				c1.9,1.6,4.2,2.4,6.5,2.4s4.7-0.8,6.5-2.4C404.3,326.4,512,240.7,512,138.9C512,101.9,499.4,67.4,476.5,41.6z M256,428.4
				C122.4,312.9,20,229.8,20,138.9C20,71.1,66.8,20,128.8,20c34.4,0,64.7,12.8,89.9,38c19.2,19.2,28.2,38.8,28.3,39
				c1.6,3.6,5.2,5.9,9.1,5.9c0,0,0,0,0,0c3.9,0,7.5-2.3,9.1-5.9c0.1-0.2,9-19.8,28.3-39c25.2-25.2,55.4-38,89.9-38
				c62,0,108.8,51.1,108.8,118.9C492,231.9,382.8,318.7,256,428.4z"/>
		</g>
	</g>
	<g>
		<g>
			<path class="st0" d="M459.5,87.3c-2.6-4.9-8.6-6.8-13.5-4.2c-4.9,2.6-6.8,8.6-4.2,13.5c6.6,12.6,10.2,27.6,10.2,42.3
				c0,28.9-13.8,59.6-43.3,96.5c-3.4,4.3-2.7,10.6,1.6,14.1c4.3,3.5,10.6,2.7,14.1-1.6c32.5-40.7,47.7-75.3,47.7-109
				C472,120.8,467.7,102.9,459.5,87.3z"/>
		</g>
	</g>
	<g>
		<g>
			<path class="st0" d="M352,191.7h-56v-56c0-5.5-4.5-10-10-10h-60c-5.5,0-10,4.5-10,10v56h-56c-5.5,0-10,4.5-10,10v60
				c0,5.5,4.5,10,10,10h56v56c0,5.5,4.5,10,10,10h60c5.5,0,10-4.5,10-10v-56h56c5.5,0,10-4.5,10-10v-60
				C362,196.1,357.5,191.7,352,191.7z M342,251.7h-56c-5.5,0-10,4.5-10,10v56h-40v-56c0-5.5-4.5-10-10-10h-56v-40h56
				c5.5,0,10-4.5,10-10v-56h40v56c0,5.5,4.5,10,10,10h56V251.7z"/>
		</g>
	</g>
</g>
</svg>
