<?xml version="1.0" encoding="utf-8"?>
<!-- Generator: Adobe Illustrator 21.0.2, SVG Export Plug-In . SVG Version: 6.00 Build 0)  -->
<svg version="1.1" id="Layer_1" xmlns="http://www.w3.org/2000/svg" xmlns:xlink="http://www.w3.org/1999/xlink" x="0px" y="0px"
	 viewBox="89.2 90 433.6 612" style="enable-background:new 89.2 90 433.6 612;" xml:space="preserve">
<style type="text/css">
	.st0{fill:#E44D26;}
	.st1{fill:#F16529;}
	.st2{fill:#EBEBEB;}
	.st3{fill:#FFFFFF;}
</style>
<g>
	<polygon class="st0" points="128.7,652.8 89.2,210.3 522.8,210.3 483.3,652.8 305.7,702 	"/>
	<polygon class="st1" points="306,664.4 449.5,624.6 483.2,246.5 306,246.5 	"/>
	<polygon class="st2" points="306,410.6 234.2,410.6 229.2,355 306,355 306,300.7 305.8,300.7 169.9,300.7 171.2,315.3 184.5,464.9 
		306,464.9 	"/>
	<polygon class="st2" points="306,551.6 305.8,551.6 245.3,535.3 241.4,492 212.1,492 187,492 194.6,577.3 305.8,608.1 306,608 	"/>
	<path d="M129.6,90h27.6v27.3h25.2V90H210v82.5h-27.6v-27.6h-25.2v27.6h-27.6L129.6,90L129.6,90z"/>
	<path d="M246.2,117.4h-24.3V90h76.2v27.4h-24.3v55.2h-27.6L246.2,117.4L246.2,117.4z"/>
	<path d="M310.2,90H339l17.7,29l17.7-29h28.8v82.5h-27.5v-40.9l-19,29.3h-0.5l-19-29.3v40.9h-27V90z"/>
	<path d="M416.8,90h27.6v55.3h38.8v27.3h-66.4V90z"/>
	<polygon class="st3" points="305.8,410.6 305.8,464.9 372.7,464.9 366.4,535.3 305.8,551.6 305.8,608.1 417.1,577.3 417.9,568.1 
		430.7,425.2 432,410.6 417.4,410.6 	"/>
	<polygon class="st3" points="305.8,300.7 305.8,334.5 305.8,354.9 305.8,355 436.7,355 436.7,355 436.9,355 438,342.8 440.5,315.3 
		441.8,300.7 	"/>
</g>
</svg>
