<?xml version="1.0" encoding="utf-8"?>
<!-- Generator: Adobe Illustrator 21.0.2, SVG Export Plug-In . SVG Version: 6.00 Build 0)  -->
<svg version="1.1" id="图层_1" xmlns="http://www.w3.org/2000/svg" xmlns:xlink="http://www.w3.org/1999/xlink" x="0px" y="0px"
	 viewBox="0 0 56.9 80.3" style="enable-background:new 0 0 56.9 80.3;" xml:space="preserve">
<style type="text/css">
	.st0{fill:#4B4B4D;}
	.st1{fill:#F48131;}
	.st2{fill:#F99C35;}
	.st3{fill-rule:evenodd;clip-rule:evenodd;}
	.st4{fill:#FFFFFF;}
	.st5{fill:#EBEBEC;}
</style>
<g>
	<polyline class="st0" points="28.4,80.3 5.2,73.8 0,15.8 56.9,15.8 51.7,73.8 	"/>
	<polyline class="st0" points="47.2,70.1 51.7,20.5 28.4,20.5 28.4,75.3 	"/>
	<polyline class="st0" points="29.9,0 29.9,2.9 33,7.3 30.2,7.3 30.2,10.8 38.8,10.8 38.8,7.5 35.9,3.8 38.8,3.8 38.8,0 	"/>
	<polyline class="st0" points="29.7,27.6 29.7,34.8 45.6,34.4 46.2,27.6 	"/>
	<polyline class="st0" points="43,42 29.7,42 29.7,49.2 38.8,48.6 38,58.1 29.7,60.2 29.7,67.6 43,63.9 43.1,62.7 44.8,44 44.9,42 	
		"/>
	<polyline class="st0" points="35.6,45.7 29.7,45.7 29.7,31.2 36.3,31.2 	"/>
	<polyline class="st0" points="26.9,60.1 17.7,57.5 17.4,53.5 12.8,52.7 13.8,63.9 26.9,67.5 	"/>
	<polyline class="st0" points="26.9,27.6 20.9,27.6 22.1,64.1 26.9,64.1 	"/>
	<polyline class="st0" points="23.2,0 23.2,7.2 21.7,7.2 21.7,5.9 18.1,5.9 18.1,10.8 26.8,10.8 26.8,0 	"/>
	<polyline class="st1" points="28.4,80.3 5.2,73.8 0,15.8 56.9,15.8 51.7,73.8 	"/>
	<polyline class="st2" points="47.2,70.1 51.7,20.5 28.4,20.5 28.4,75.3 	"/>
	<polyline class="st3" points="29.9,0 29.9,2.9 33,7.3 30.2,7.3 30.2,10.8 38.8,10.8 38.8,7.5 35.9,3.8 38.8,3.8 38.8,0 	"/>
	<polyline class="st4" points="29.7,27.6 29.7,34.8 45.6,34.4 46.2,27.6 	"/>
	<polyline class="st4" points="43,42 29.7,42 29.7,49.2 38.8,48.6 38,58.1 29.7,60.2 29.7,67.6 43,63.9 43.1,62.7 44.8,44 44.9,42 	
		"/>
	<polyline class="st4" points="35.6,45.7 29.7,45.7 29.7,31.2 36.3,31.2 	"/>
	<polyline class="st5" points="26.9,60.1 17.7,57.5 17.4,53.5 12.8,52.7 13.8,63.9 26.9,67.5 	"/>
	<polyline class="st5" points="26.9,27.6 20.9,27.6 22.1,64.1 26.9,64.1 	"/>
	<polyline class="st3" points="23.2,0 23.2,7.2 21.7,7.2 21.7,5.9 18.1,5.9 18.1,10.8 26.8,10.8 26.8,0 	"/>
</g>
</svg>
