<?xml version="1.0" encoding="utf-8"?>
<!-- Generator: Adobe Illustrator 21.0.2, SVG Export Plug-In . SVG Version: 6.00 Build 0)  -->
<svg version="1.1" id="Layer_1" xmlns="http://www.w3.org/2000/svg" xmlns:xlink="http://www.w3.org/1999/xlink" x="0px" y="0px"
	 viewBox="0 0 480 384" style="enable-background:new 0 0 480 384;" xml:space="preserve">
<style type="text/css">
	.st0{fill:#FFFFFF;}
</style>
<g id="Outline">
	<path class="st0" d="M470.4,228.8l-24.1-18.1l-23.2-46.3l-11.6-23.2c-4-8.2-12.4-13.3-21.5-13.3H320V72c0-4.4-3.6-8-8-8H8
		c-4.4,0-8,3.6-8,8v40h16V80h198.3l-12.6,16H64v16h134.6l17.9,22.8l-27.2,13.3c-3.3,1.6-5.1,5.3-4.3,8.9l6.5,29.6l-30.3,0.2
		c-3.7,0-6.9,2.6-7.7,6.2l-6.9,29.5l-27.4-13c-3.3-1.6-7.3-0.7-9.6,2.2l-19.1,23.6l-19.1-23.6c-2.3-2.9-6.3-3.8-9.6-2.2l-27.4,13
		L27.4,193c-0.8-3.6-4-6.1-7.7-6.2l-3.7,0V128H0v200c0,4.4,3.6,8,8,8h24.6c4.4,30.6,32.8,51.8,63.4,47.4
		c24.6-3.5,43.9-22.9,47.4-47.4h185.2c4.4,30.6,32.8,51.8,63.4,47.4s51.8-32.8,47.4-63.4s-32.8-51.8-63.4-47.4
		c-24.6,3.5-43.9,22.9-47.4,47.4H320V144h70.1c3,0,5.8,1.7,7.2,4.4l5.8,11.6H360c-4.4,0-8,3.6-8,8v48c0,4.4,3.6,8,8,8h77.3
		l23.5,17.6c2,1.5,3.2,3.9,3.2,6.4v8h-20c-6.6,0-12,5.4-12,12v24c0,6.6,5.4,12,12,12h20v16h-8v16h16c4.4,0,8-3.6,8-8v-80
		C480,240.4,476.4,233.3,470.4,228.8z M88,368c-22.1,0-40-17.9-40-40s17.9-40,40-40s40,17.9,40,40C128,350.1,110.1,368,88,368z
		 M304,136v184H143.4c-4.4-30.6-32.8-51.8-63.4-47.4c-24.6,3.5-43.9,22.9-47.4,47.4H16V214.4l5,21.4c1,4.3,5.3,7,9.6,6
		c0.5-0.1,1.1-0.3,1.6-0.6l30.6-14.5L84.2,253c2.8,3.4,7.8,4,11.3,1.2c0.4-0.4,0.8-0.8,1.2-1.2l21.3-26.4l30.6,14.5
		c4,1.9,8.8,0.2,10.7-3.8c0.2-0.5,0.4-1,0.6-1.6l7.8-33l33.9-0.2c4.4,0,8-3.6,7.9-8.1c0-0.6-0.1-1.1-0.2-1.7l-7.3-33.1l30.4-14.9
		c4-1.9,5.6-6.7,3.7-10.7c-0.2-0.5-0.5-1-0.9-1.4L218.9,112H288V96h-65.9l12.6-16H304V136z M384,288c22.1,0,40,17.9,40,40
		s-17.9,40-40,40s-40-17.9-40-40C344,305.9,361.9,288,384,288z M368,208v-32h43.1l16,32H368z M464,288h-16v-16h16V288z M88,304
		c-13.3,0-24,10.7-24,24s10.7,24,24,24s24-10.7,24-24C112,314.8,101.2,304,88,304z M88,336c-4.4,0-8-3.6-8-8s3.6-8,8-8s8,3.6,8,8
		C96,332.4,92.4,336,88,336z M384,352c13.3,0,24-10.7,24-24s-10.7-24-24-24s-24,10.7-24,24C360,341.2,370.8,352,384,352z M384,320
		c4.4,0,8,3.6,8,8s-3.6,8-8,8s-8-3.6-8-8C376,323.6,379.6,320,384,320z M152,288h136v16H152V288z M48,112H32V96h16V112z M184,48H72
		V32h112V48z M312,368h-96v-16h96V368z M200,352v16h-16v-16H200z M128,16H32V0h96V16z M16,16H0V0h16V16z"/>
</g>
</svg>
