<?xml version="1.0" encoding="utf-8"?>
<!-- Generator: Adobe Illustrator 21.0.2, SVG Export Plug-In . SVG Version: 6.00 Build 0)  -->
<svg version="1.1" id="Layer_1" xmlns="http://www.w3.org/2000/svg" xmlns:xlink="http://www.w3.org/1999/xlink" x="0px" y="0px"
	 viewBox="0 0 512 484" style="enable-background:new 0 0 512 484;" xml:space="preserve">
<style type="text/css">
	.st0{fill:#FFFFFF;}
</style>
<g id="XMLID_1400_">
	<g id="XMLID_190_">
		<path id="XMLID_217_" class="st0" d="M498.9,231.4c-8.2-4.7-17.9-4.6-26,0.2l-60,35.3c-2,1.2-3.5,3-4.3,5.2H388v-22
			c0-18.7-15.3-34-34-34h-12.4c31.5-21.2,52.3-57.2,52.3-98c0-65.1-52.9-118-118-118c-55.7,0-102.6,38.8-114.8,90.9
			C144.6,69.7,118.9,56,90,56C40.4,56,0,96.4,0,146c0,28.3,13.1,53.5,33.5,70C15,216.3,0,231.4,0,250v200c0,18.7,15.3,34,34,34h115
			c5.5,0,10-4.5,10-10s-4.5-10-10-10H34c-7.7,0-14-6.3-14-14V250c0-7.7,6.3-14,14-14h320c7.7,0,14,6.3,14,14v200c0,7.7-6.3,14-14,14
			H239c-5.5,0-10,4.5-10,10s4.5,10,10,10h115c18.7,0,34-15.3,34-34v-22h20.6c0.8,2.1,2.3,4,4.3,5.2l60,35.3
			c4.1,2.4,8.6,3.6,13.2,3.6c4.4,0,8.8-1.2,12.9-3.5c8.2-4.7,13.1-13.1,13.1-22.5V253.9C512,244.5,507.1,236,498.9,231.4
			L498.9,231.4z M275.9,20c54,0,98,44,98,98s-44,98-98,98s-98-44-98-98S221.9,20,275.9,20z M20,146c0-38.6,31.4-70,70-70
			s70,31.4,70,70s-31.4,70-70,70S20,184.6,20,146z M146.5,216c12.3-10,22-23.2,27.7-38.3c9,15.3,21.4,28.4,36.1,38.3H146.5z
			 M388,292h20v116h-20V292z M492,446.1c0,3.1-2.1,4.6-3,5.2c-0.9,0.5-3.3,1.5-6,0l-55-32.4V418V282v-0.8l55-32.4
			c2.7-1.6,5.1-0.6,6,0s3,2,3,5.2V446.1z"/>
		<path id="XMLID_1198_" class="st0" d="M306,332c18.7,0,34-15.3,34-34s-15.3-34-34-34s-34,15.3-34,34S287.3,332,306,332z M306,284
			c7.7,0,14,6.3,14,14s-6.3,14-14,14c-7.7,0-14-6.3-14-14S298.3,284,306,284z"/>
		<path id="XMLID_1201_" class="st0" d="M194,464c-2.6,0-5.2,1.1-7.1,2.9s-2.9,4.4-2.9,7.1s1.1,5.2,2.9,7.1s4.4,2.9,7.1,2.9
			s5.2-1.1,7.1-2.9c1.9-1.9,2.9-4.4,2.9-7.1c0-2.6-1.1-5.2-2.9-7.1C199.2,465.1,196.6,464,194,464z"/>
		<path id="XMLID_1508_" class="st0" d="M275.9,196c43,0,78-35,78-78s-35-78-78-78s-78,35-78,78S232.9,196,275.9,196z M275.9,60
			c32,0,58,26,58,58s-26,58-58,58c-32,0-58-26-58-58S244,60,275.9,60z"/>
		<path id="XMLID_1509_" class="st0" d="M275.9,100.7c2.6,0,5.2-1.1,7.1-2.9c1.9-1.9,2.9-4.4,2.9-7.1c0-2.6-1.1-5.2-2.9-7.1
			c-1.9-1.9-4.4-2.9-7.1-2.9c-2.6,0-5.2,1.1-7.1,2.9c-1.9,1.8-2.9,4.4-2.9,7.1c0,2.6,1.1,5.2,2.9,7.1
			C270.7,99.6,273.3,100.7,275.9,100.7z"/>
		<path id="XMLID_1511_" class="st0" d="M275.9,155.3c2.6,0,5.2-1.1,7.1-2.9c1.9-1.9,2.9-4.4,2.9-7.1s-1.1-5.2-2.9-7.1
			c-1.9-1.9-4.4-2.9-7.1-2.9c-2.6,0-5.2,1.1-7.1,2.9c-1.9,1.9-2.9,4.4-2.9,7.1c0,2.6,1.1,5.2,2.9,7.1
			C270.7,154.3,273.3,155.3,275.9,155.3z"/>
		<path id="XMLID_1513_" class="st0" d="M303.3,128c2.6,0,5.2-1.1,7.1-2.9c1.9-1.9,2.9-4.4,2.9-7.1s-1.1-5.2-2.9-7.1
			c-1.9-1.9-4.4-2.9-7.1-2.9c-2.6,0-5.2,1.1-7.1,2.9c-1.9,1.9-2.9,4.4-2.9,7.1s1.1,5.2,2.9,7.1C298.1,126.9,300.6,128,303.3,128z"/>
		<path id="XMLID_1514_" class="st0" d="M248.6,128c2.6,0,5.2-1.1,7.1-2.9c1.9-1.9,2.9-4.4,2.9-7.1s-1.1-5.2-2.9-7.1
			c-1.9-1.9-4.4-2.9-7.1-2.9c-2.6,0-5.2,1.1-7.1,2.9c-1.9,1.9-2.9,4.4-2.9,7.1s1.1,5.2,2.9,7.1C243.4,126.9,246,128,248.6,128
			L248.6,128z"/>
		<path id="XMLID_1517_" class="st0" d="M90,192c25.4,0,46-20.6,46-46s-20.6-46-46-46s-46,20.6-46,46S64.6,192,90,192z M90,120
			c14.3,0,26,11.7,26,26s-11.7,26-26,26s-26-11.7-26-26S75.7,120,90,120z"/>
		<path id="XMLID_1993_" class="st0" d="M248,426v-96c0-5.5-4.5-10-10-10H64c-5.5,0-10,4.5-10,10v96c0,5.5,4.5,10,10,10h174
			C243.5,436,248,431.5,248,426z M228,416H74v-76h154V416z"/>
		<path id="XMLID_1996_" class="st0" d="M272,418c0,5.5,4.5,10,10,10h48c5.5,0,10-4.5,10-10v-48c0-5.5-4.5-10-10-10h-48
			c-5.5,0-10,4.5-10,10V418z M292,380h28v28h-28V380z"/>
	</g>
</g>
</svg>
