<?xml version="1.0"?>
<svg xmlns="http://www.w3.org/2000/svg" id="Capa_1" enable-background="new 0 0 512 512" height="512px" viewBox="0 0 512 512" width="512px"><g><path d="m106.162 351.497c0 4.142 3.361 7.5 7.506 7.5s7.506-3.358 7.506-7.5v-162.607h1.427c23.454 0 42.535-19.067 42.535-42.505v-43.006c0-23.438-19.081-42.505-42.535-42.505h-1.427v-23.374c0-12.407 10.102-22.5 22.519-22.5h28.375v22.5c0 9.649 7.857 17.5 17.515 17.5h132.11c9.657 0 17.515-7.851 17.515-17.5v-22.5h28.672c12.417 0 22.519 10.093 22.519 22.5v26.369c0 4.142 3.361 7.5 7.506 7.5s7.506-3.358 7.506-7.5v-26.369c0-20.678-16.836-37.5-37.531-37.5h-224.187c-20.695 0-37.531 16.822-37.531 37.5v23.374h-63.627c-23.454 0-42.535 19.067-42.535 42.505v43.006c0 23.438 19.081 42.505 42.535 42.505h9.192l21.968 29.551c4.868 6.547 15.336 3.116 15.336-5.069v-24.482h17.132v162.607zm218.033-336.497v22.5c0 1.378-1.122 2.5-2.502 2.5h-132.11c-1.38 0-2.502-1.122-2.502-2.5v-22.5zm-242.671 158.89c-4.146 0-7.506 3.358-7.506 7.5v12.329l-12.489-16.801c-1.416-1.905-3.651-3.028-6.026-3.028h-12.968c-15.176 0-27.523-12.339-27.523-27.505v-43.006c0-15.166 12.347-27.505 27.523-27.505h80.067c15.176 0 27.523 12.339 27.523 27.505v43.006c0 15.166-12.347 27.505-27.523 27.505z" data-original="#000000" class="active-path" data-old_color="#000000" fill="#FFFFFF"/><path d="m302.227 464h-92.88c-4.146 0-7.506 3.358-7.506 7.5s3.361 7.5 7.506 7.5h92.88c4.146 0 7.506-3.358 7.506-7.5s-3.361-7.5-7.506-7.5z" data-original="#000000" class="active-path" data-old_color="#000000" fill="#FFFFFF"/><path d="m469.465 255h-64.053v-159.131c0-4.142-3.361-7.5-7.506-7.5s-7.506 3.358-7.506 7.5v159.131h-1.001c-23.454 0-42.535 19.067-42.535 42.505v43.006c0 23.438 19.081 42.505 42.535 42.505h1.001v49.484h-33.925v-28.68c0-35.622-29.005-64.603-64.657-64.603h-13.491v-14.223c23.106-7.323 41.371-25.615 48.642-48.728 1.322.293 2.668.443 4.022.443 13.971 0 24.41-17.417 24.41-32.99 0-12.174-6.323-20.353-14.276-24.039 6.95-28.288.63-61.696-22.065-79.222-3.28-2.533-7.995-1.929-10.529 1.348-2.535 3.277-1.931 7.987 1.349 10.521 9.395 7.255 14.901 17.317 17.853 32.625 2.828 14.652-.332 28.447-2.049 34.323-4.143 2.369-6.851 6.638-8.449 11.46-9.97-16.731-28.088-23.54-45.686-30.153-14.882-5.592-28.938-10.874-38.07-21.722-7.116-8.455-14.691-7.646-18.574-6.409-11.443 3.642-18.929 19.664-19.729 29.341-.242 2.736-1.198 15.02-2.409 25.125-1.622-3.21-3.877-5.932-6.89-7.65-6.722-22.777-2.814-51.597 14.718-66.062 11.555-9.533 30.124-14.367 55.192-14.367 10.421 0 19.799.832 27.873 2.471 4.065.823 8.025-1.797 8.851-5.855.826-4.06-1.798-8.019-5.86-8.844-9.056-1.839-19.44-2.772-30.864-2.772-29.052 0-50.232 5.823-64.751 17.8-15.061 12.426-19.732 29.051-21.935 40.474-2.921 15.135-.713 29.178 1.349 37.569-7.952 3.686-14.276 11.865-14.276 24.039 0 15.573 10.439 32.99 24.41 32.99 1.354 0 2.7-.151 4.022-.444 7.273 23.111 25.545 41.403 48.682 48.727v14.224h-13.531c-35.652 0-64.657 28.981-64.657 64.603v28.68h-33.925v-48.259c0-4.142-3.361-7.5-7.506-7.5s-7.506 3.358-7.506 7.5v90.259c0 20.678 16.836 37.5 37.531 37.5h224.186c20.695 0 37.531-16.822 37.531-37.5v-91.483h17.558v24.481c0 8.187 10.471 11.616 15.337 5.068l21.967-29.55h9.192c23.454 0 42.535-19.068 42.535-42.505v-43.006c0-23.438-19.081-42.505-42.535-42.505zm-221.163 99.217h15.013v37.913c0 4.136-3.367 7.5-7.506 7.5s-7.506-3.364-7.506-7.5v-37.913zm82.687-92.507c-.343 0-.676-.051-.996-.138.598-5.873.31-9.248.385-18.562.002-.063.004-.125.004-.188.039-4.224 1.31-8.813 2.432-10.2 3.756.748 7.572 3.955 7.572 11.098.001 9.479-6.382 17.99-9.397 17.99zm-150.405 0c-3.014 0-9.397-8.511-9.397-17.99 0-7.143 3.816-10.35 7.572-11.098 1.122 1.386 2.393 5.974 2.432 10.177 0 .076.002.151.004.226.075 9.234-.214 12.663.385 18.546-.32.088-.653.139-.996.139zm15.623-7.74v-3.101c3.037-.647 5.791-2.312 7.649-5.336 3.776-6.159 5.161-31.357 6.28-42.502.497-6.009 5.726-15.143 9.325-16.289.733-.229 2.013 1.161 2.527 1.771 11.66 13.853 28.24 20.083 44.274 26.108 18.652 7.009 34.761 13.062 40.805 29.57 1.286 3.512 4.245 6.145 8.298 6.906v2.872c0 32.803-26.709 59.49-59.619 59.49-32.825.001-59.539-26.682-59.539-59.489zm67.106 74.117v11.13h-15.013v-11.132c4.981.499 10.029.501 15.013.002zm-93.201 75.733c0-27.351 22.27-49.603 49.644-49.603h13.533v37.913c0 12.407 10.102 22.5 22.519 22.5s22.519-10.093 22.519-22.5v-37.913h13.489c27.374 0 49.644 22.252 49.644 49.603v28.5h-171.348zm197.768 93.18h-224.187c-12.417 0-22.519-10.093-22.519-22.5v-27h269.224v27c.001 12.407-10.101 22.5-22.518 22.5zm129.107-156.489c0 15.167-12.347 27.505-27.523 27.505h-12.967c-2.375 0-4.61 1.123-6.026 3.028l-12.489 16.801v-12.329c0-4.142-3.361-7.5-7.506-7.5h-41.078c-15.176 0-27.523-12.339-27.523-27.505v-43.006c0-15.166 12.347-27.505 27.523-27.505h80.067c15.176 0 27.523 12.339 27.523 27.505v43.006z" data-original="#000000" class="active-path" data-old_color="#000000" fill="#FFFFFF"/><path d="m107.467 114.383-28.688-17.257c-8.101-4.873-18.433 1.006-18.433 10.5v34.512c0 9.537 10.384 15.341 18.434 10.499l28.687-17.256c7.893-4.747 7.904-16.244 0-20.998zm-32.108 22.804v-24.61l20.456 12.305z" data-original="#000000" class="active-path" data-old_color="#000000" fill="#FFFFFF"/><path d="m461.958 292.5h-62.052c-4.146 0-7.506 3.358-7.506 7.5s3.361 7.5 7.506 7.5h62.052c4.146 0 7.506-3.358 7.506-7.5s-3.36-7.5-7.506-7.5z" data-original="#000000" class="active-path" data-old_color="#000000" fill="#FFFFFF"/><path d="m461.958 322.5h-62.052c-4.146 0-7.506 3.358-7.506 7.5s3.361 7.5 7.506 7.5h62.052c4.146 0 7.506-3.358 7.506-7.5s-3.36-7.5-7.506-7.5z" data-original="#000000" class="active-path" data-old_color="#000000" fill="#FFFFFF"/></g> </svg>
