<?xml version="1.0"?>
<svg xmlns="http://www.w3.org/2000/svg" xmlns:xlink="http://www.w3.org/1999/xlink" version="1.1" id="Capa_1" x="0px" y="0px" viewBox="0 0 512 512" style="enable-background:new 0 0 512 512;" xml:space="preserve" width="512px" height="512px" class=""><g><g>
	<g>
		<path d="M360.599,252.554c-1.195-5.06-4.923-9.14-9.855-10.784l-73.592-24.531l52.265-104.531    c3.289-6.58,1.322-14.575-4.646-18.876c-5.968-4.303-14.176-3.64-19.377,1.562l-150,150c-3.676,3.676-5.187,8.993-3.992,14.053    s4.923,9.14,9.855,10.784l73.592,24.531l-52.265,104.531c-3.29,6.58-1.323,14.575,4.646,18.876    c6.005,4.33,14.209,3.606,19.377-1.562l150-150C360.283,262.931,361.794,257.614,360.599,252.554z M250.753,330.033l18.662-37.325    c1.945-3.889,2.106-8.431,0.442-12.448c-1.664-4.017-4.99-7.115-9.115-8.49l-66.975-22.325l67.478-67.478l-18.662,37.325    c-1.945,3.889-2.106,8.431-0.442,12.448c1.664,4.017,4.99,7.115,9.115,8.49l66.975,22.325L250.753,330.033z" data-original="#000000" class="active-path" data-old_color="#000000" fill="#FFFFFF"/>
	</g>
</g><g>
	<g>
		<path d="M256,0C179.982,0,108.434,34.238,60,91.687V76c0-8.284-6.716-15-15-15s-15,6.716-15,15v63.488    c-0.001,0.073,0,0.146,0,0.219v0.019c0,8.638,7.344,15.498,15.93,14.971l60-3.726c8.269-0.514,14.555-7.633,14.041-15.901    c-0.513-8.27-7.665-14.549-15.9-14.042l-30.546,1.897C115.915,65,183.539,30,256,30c124.617,0,226,101.383,226,226    c0,8.284,6.716,15,15,15s15-6.716,15-15C512,115.041,396.951,0,256,0z" data-original="#000000" class="active-path" data-old_color="#000000" fill="#FFFFFF"/>
	</g>
</g><g>
	<g>
		<path d="M466.07,357.304l-60,3.725c-8.268,0.513-14.555,7.632-14.041,15.9c0.513,8.269,7.615,14.545,15.9,14.042l30.545-1.896    C396.084,447,328.461,482,256,482C131.383,482,30,380.617,30,256c0-8.284-6.716-15-15-15s-15,6.716-15,15    c0,140.959,115.049,256,256,256c76.164,0,147.662-34.353,196-91.688V436c0,8.284,6.716,15,15,15s15-6.716,15-15v-63.504    C482.141,363.906,474.839,356.777,466.07,357.304z" data-original="#000000" class="active-path" data-old_color="#000000" fill="#FFFFFF"/>
	</g>
</g></g> </svg>
