<?xml version="1.0" encoding="utf-8"?>
<!-- Generator: Adobe Illustrator 21.0.2, SVG Export Plug-In . SVG Version: 6.00 Build 0)  -->
<svg version="1.1" id="Layer_1" xmlns="http://www.w3.org/2000/svg" xmlns:xlink="http://www.w3.org/1999/xlink" x="0px" y="0px"
	 viewBox="0 0 226 201" style="enable-background:new 0 0 226 201;" xml:space="preserve">
<style type="text/css">
	.st0{fill:#53C1DE;}
	.st1{fill:#FFFFFF;}
</style>
<g>
	<path class="st0" d="M185.8,65.2c-2.3-0.8-4.8-1.6-7.3-2.3c0.4-1.7,0.8-3.3,1.1-5c5.5-26.7,1.9-48.3-10.4-55.3
		c-11.8-6.8-31.1,0.3-50.5,17.2c-1.9,1.6-3.7,3.4-5.6,5.2c-1.3-1.2-2.5-2.4-3.7-3.5C88.9,3.4,68.5-4.3,56.2,2.9
		C44.4,9.7,40.9,29.9,45.9,55.2c0.5,2.4,1,4.9,1.7,7.5c-2.9,0.8-5.7,1.7-8.4,2.6C15.3,73.7,0,86.8,0,100.3c0,14,16.4,28,41.3,36.6
		c2,0.7,4,1.3,6.1,1.9c-0.7,2.7-1.3,5.4-1.8,8.1c-4.7,24.9-1,44.7,10.7,51.4c12.1,7,32.5-0.2,52.3-17.5c1.6-1.4,3.1-2.8,4.7-4.3
		c2,2,4.1,3.8,6.1,5.6c19.2,16.5,38.2,23.2,49.9,16.4c12.1-7,16.1-28.2,10.9-54.1c-0.4-2-0.8-4-1.4-6c1.4-0.4,2.8-0.9,4.2-1.3
		c25.9-8.6,42.8-22.5,42.8-36.6C226,86.7,210.2,73.6,185.8,65.2L185.8,65.2L185.8,65.2z"/>
	<path class="st1" d="M180.2,127.8c-1.2,0.4-2.5,0.8-3.8,1.2c-2.9-9.1-6.7-18.7-11.4-28.6c4.5-9.7,8.2-19.2,11-28.2
		c2.3,0.7,4.6,1.4,6.7,2.1c20.9,7.2,33.7,17.8,33.7,26C216.3,109.1,202.5,120.4,180.2,127.8L180.2,127.8L180.2,127.8z M170.9,146.2
		c2.3,11.4,2.6,21.7,1.1,29.8c-1.3,7.3-4.1,12.1-7.4,14c-7.1,4.1-22.3-1.2-38.8-15.4c-1.9-1.6-3.8-3.3-5.7-5.2
		c6.4-7,12.7-15.1,18.9-24c10.9-1,21.2-2.6,30.6-4.7C170.1,142.6,170.5,144.4,170.9,146.2L170.9,146.2L170.9,146.2z M77,189.3
		c-7,2.5-12.5,2.5-15.8,0.6c-7.1-4.1-10.1-20-6-41.3c0.5-2.4,1-4.9,1.6-7.5c9.3,2,19.5,3.5,30.5,4.4c6.3,8.8,12.8,16.9,19.4,24
		c-1.4,1.4-2.9,2.7-4.3,4C93.6,181.2,84.8,186.6,77,189.3L77,189.3L77,189.3z M44.4,127.8c-11-3.8-20.1-8.7-26.4-14
		c-5.6-4.8-8.4-9.6-8.4-13.4c0-8.2,12.3-18.7,32.7-25.9c2.5-0.9,5.1-1.7,7.8-2.4c2.8,9.2,6.5,18.8,11,28.5
		c-4.5,9.9-8.3,19.6-11.2,28.9C48.1,129,46.2,128.4,44.4,127.8L44.4,127.8L44.4,127.8z M55.4,53.4c-4.2-21.7-1.4-38.1,5.7-42.2
		c7.6-4.4,24.3,1.9,41.9,17.5c1.1,1,2.3,2,3.4,3.1c-6.6,7-13.1,15.1-19.2,23.8c-10.6,1-20.8,2.6-30.2,4.7
		C56.3,58,55.8,55.7,55.4,53.4L55.4,53.4L55.4,53.4z M152.8,77.5c-2.2-3.9-4.5-7.6-6.9-11.3c7.2,0.9,14.1,2.1,20.6,3.6
		c-1.9,6.2-4.4,12.8-7.2,19.5C157.3,85.3,155.1,81.4,152.8,77.5L152.8,77.5L152.8,77.5z M113.1,38.7c4.5,4.8,8.9,10.2,13.3,16.1
		c-4.4-0.2-8.9-0.3-13.4-0.3c-4.5,0-8.9,0.1-13.3,0.3C104.1,49,108.6,43.6,113.1,38.7L113.1,38.7L113.1,38.7z M73.1,77.5
		c-2.2,3.9-4.4,7.8-6.4,11.7c-2.8-6.7-5.2-13.2-7.2-19.6C66,68.2,72.8,67,80,66.1C77.6,69.8,75.3,73.6,73.1,77.5L73.1,77.5
		L73.1,77.5z M80.2,135.2c-7.4-0.8-14.4-1.9-20.8-3.3c2-6.4,4.5-13.1,7.3-19.9c2,3.9,4.2,7.8,6.4,11.7h0
		C75.4,127.6,77.8,131.4,80.2,135.2L80.2,135.2L80.2,135.2z M113.4,162.6c-4.6-4.9-9.1-10.4-13.6-16.3c4.3,0.2,8.7,0.3,13.2,0.3
		c4.6,0,9.2-0.1,13.6-0.3C122.2,152.3,117.8,157.7,113.4,162.6L113.4,162.6L113.4,162.6z M159.4,111.6c3,6.9,5.6,13.5,7.6,19.9
		c-6.6,1.5-13.6,2.7-21.1,3.6c2.3-3.7,4.7-7.6,6.9-11.5C155.2,119.5,157.4,115.5,159.4,111.6L159.4,111.6L159.4,111.6z M144.5,118.7
		c-3.5,6.1-7.2,12-10.8,17.5c-6.7,0.5-13.6,0.7-20.7,0.7c-7,0-13.9-0.2-20.5-0.6c-3.8-5.6-7.5-11.5-11-17.5h0
		c-3.5-6-6.7-12.1-9.6-18.2c2.9-6.1,6.1-12.2,9.6-18.2l0,0c3.5-6.1,7.2-11.9,11-17.4c6.7-0.5,13.6-0.8,20.6-0.8h0
		c7,0,13.9,0.3,20.6,0.8c3.7,5.5,7.4,11.3,10.9,17.4c3.5,6.1,6.8,12.2,9.7,18.1C151.3,106.5,148,112.6,144.5,118.7L144.5,118.7
		L144.5,118.7z M164.4,10.9c7.6,4.4,10.5,22,5.8,45c-0.3,1.5-0.6,3-1,4.5c-9.4-2.2-19.6-3.8-30.2-4.8c-6.2-8.8-12.6-16.9-19.1-23.8
		c1.7-1.7,3.5-3.3,5.2-4.8C141.7,12.6,157.3,6.8,164.4,10.9L164.4,10.9L164.4,10.9z"/>
	<path class="st0" d="M113,80.2c11.1,0,20.2,9,20.2,20.2c0,11.1-9,20.2-20.2,20.2s-20.2-9-20.2-20.2C92.8,89.2,101.8,80.2,113,80.2"
		/>
</g>
</svg>
