<?xml version="1.0" encoding="utf-8"?>
<!-- Generator: Adobe Illustrator 21.0.2, SVG Export Plug-In . SVG Version: 6.00 Build 0)  -->
<svg version="1.1" id="Capa_1" xmlns="http://www.w3.org/2000/svg" xmlns:xlink="http://www.w3.org/1999/xlink" x="0px" y="0px"
	 viewBox="0 0 512 463.9" style="enable-background:new 0 0 512 463.9;" xml:space="preserve">
<style type="text/css">
	.st0{fill:#FFFFFF;}
</style>
<g>
	<g>
		<g>
			<path class="st0" d="M504.5,448.9H496V313.8c4.9-4.3,8-10.6,8-17.7s-3.1-13.4-8-17.7v-92.9c4.9-4.3,8-10.6,8-17.7
				s-3.1-13.4-8-17.7v-109c4.9-4.3,8-10.6,8-17.7c0-13-10.6-23.5-23.5-23.5H31.5C18.6,0,8,10.6,8,23.5c0,7,3.1,13.4,8,17.7v108.9
				c-4.9,4.3-8,10.6-8,17.7s3.1,13.4,8,17.7v92.9c-4.9,4.3-8,10.6-8,17.7s3.1,13.4,8,17.7v135.2H7.5c-4.1,0-7.5,3.4-7.5,7.5
				s3.4,7.5,7.5,7.5h497c4.1,0,7.5-3.4,7.5-7.5S508.6,448.9,504.5,448.9z M481,448.9H31v-33.1h33.1v8.5c0,4.1,3.4,7.5,7.5,7.5h48.1
				c4.1,0,7.5-3.4,7.5-7.5v-8.5h17.1v8.5c0,4.1,3.4,7.5,7.5,7.5h48.1c4.1,0,7.5-3.4,7.5-7.5v-8.5h17.1v8.5c0,4.1,3.4,7.5,7.5,7.5
				H280c4.1,0,7.5-3.4,7.5-7.5v-8.5h17.1v8.5c0,4.1,3.4,7.5,7.5,7.5h48.1c4.1,0,7.5-3.4,7.5-7.5v-8.5h17.1v8.5
				c0,4.1,3.4,7.5,7.5,7.5h48.1c4.1,0,7.5-3.4,7.5-7.5v-8.5H481V448.9z M79.1,416.8v-65.2h33.1v65.2L79.1,416.8L79.1,416.8z
				 M159.3,416.8v-65.2h33.1v65.2L159.3,416.8L159.3,416.8z M239.5,416.8v-65.2h33.1v65.2L239.5,416.8L239.5,416.8z M319.6,416.8
				v-65.2h33.1v65.2L319.6,416.8L319.6,416.8z M399.8,416.8v-65.2h33.1v65.2L399.8,416.8L399.8,416.8z M480.5,304.6H111.7
				c-4.1,0-7.5,3.4-7.5,7.5c0,4.1,3.4,7.5,7.5,7.5h368.7c0.2,0,0.3,0,0.5,0v81.2h-33.1v-56.6c0-4.1-3.4-7.5-7.5-7.5h-48.1
				c-4.1,0-7.5,3.4-7.5,7.5v56.6h-17.1v-56.6c0-4.1-3.4-7.5-7.5-7.5h-48.1c-4.1,0-7.5,3.4-7.5,7.5v56.6h-17.1v-56.6
				c0-4.1-3.4-7.5-7.5-7.5h-48.1c-4.1,0-7.5,3.4-7.5,7.5v56.6h-17.1v-56.6c0-4.1-3.4-7.5-7.5-7.5h-48.1c-4.1,0-7.5,3.4-7.5,7.5v56.6
				h-17.1v-56.6c0-4.1-3.4-7.5-7.5-7.5H71.6c-4.1,0-7.5,3.4-7.5,7.5v56.6H31v-81.2c0.2,0,0.3,0,0.5,0h48.1c4.1,0,7.5-3.4,7.5-7.5
				c0-4.1-3.4-7.5-7.5-7.5H31.5c-4.7,0-8.5-3.8-8.5-8.5c0-4.7,3.8-8.5,8.5-8.5h448.9c4.7,0,8.5,3.8,8.5,8.5
				C489,300.8,485.2,304.6,480.5,304.6z M79.1,272.5v-49.1h33.1v49.1H79.1z M159.3,272.5v-49.1h33.1v49.1H159.3z M239.5,272.5v-49.1
				h33.1v49.1H239.5z M352.7,272.5h-33.1v-49.1h33.1L352.7,272.5L352.7,272.5z M432.9,272.5h-33.1v-49.1h33.1L432.9,272.5
				L432.9,272.5z M480.5,176.4h-24c-4.1,0-7.5,3.4-7.5,7.5s3.4,7.5,7.5,7.5h24c0.2,0,0.3,0,0.5,0v81.2c-0.2,0-0.3,0-0.5,0h-32.6
				v-56.6c0-4.1-3.4-7.5-7.5-7.5h-48.1c-4.1,0-7.5,3.4-7.5,7.5v56.6h-17.1v-56.6c0-4.1-3.4-7.5-7.5-7.5h-48.1
				c-4.1,0-7.5,3.4-7.5,7.5v56.6h-17.1v-56.6c0-4.1-3.4-7.5-7.5-7.5h-48.1c-4.1,0-7.5,3.4-7.5,7.5v56.6h-17.1v-56.6
				c0-4.1-3.4-7.5-7.5-7.5h-48.1c-4.1,0-7.5,3.4-7.5,7.5v56.6h-17.1v-56.6c0-4.1-3.4-7.5-7.5-7.5H71.6c-4.1,0-7.5,3.4-7.5,7.5v56.6
				H31.5c-0.2,0-0.3,0-0.5,0v-81.2c0.2,0,0.3,0,0.5,0h344.7c4.1,0,7.5-3.4,7.5-7.5s-3.4-7.5-7.5-7.5H31.5c-4.7,0-8.5-3.8-8.5-8.5
				c0-4.7,3.8-8.5,8.5-8.5h448.9c4.7,0,8.5,3.8,8.5,8.5C489,172.5,485.2,176.4,480.5,176.4z M55.6,55.1c4.1,0,7.5-3.4,7.5-7.5v-0.5
				h25.1v0.5c0,4.1,3.4,7.5,7.5,7.5s7.5-3.4,7.5-7.5v-0.5h25.1v0.5c0,4.1,3.4,7.5,7.5,7.5s7.5-3.4,7.5-7.5v-0.5h25.1v0.5
				c0,4.1,3.4,7.5,7.5,7.5s7.5-3.4,7.5-7.5v-0.5h25.1v0.5c0,4.1,3.4,7.5,7.5,7.5s7.5-3.4,7.5-7.5v-0.5h25.1v0.5
				c0,4.1,3.4,7.5,7.5,7.5c4.1,0,7.5-3.4,7.5-7.5v-0.5h25.1v0.5c0,4.1,3.4,7.5,7.5,7.5s7.5-3.4,7.5-7.5v-0.5h25.1v0.5
				c0,4.1,3.4,7.5,7.5,7.5s7.5-3.4,7.5-7.5v-0.5h25.1v0.5c0,4.1,3.4,7.5,7.5,7.5s7.5-3.4,7.5-7.5v-0.5h25.1v0.5
				c0,4.1,3.4,7.5,7.5,7.5s7.5-3.4,7.5-7.5v-0.5h25.1v0.5c0,4.1,3.4,7.5,7.5,7.5s7.5-3.4,7.5-7.5v-0.5h16.5c0.2,0,0.3,0,0.5,0v97.3
				c-0.2,0-0.3,0-0.5,0h-32.6V87.7c0-4.1-3.4-7.5-7.5-7.5h-48.1c-4.1,0-7.5,3.4-7.5,7.5v56.6h-17.1V87.7c0-4.1-3.4-7.5-7.5-7.5
				h-48.1c-4.1,0-7.5,3.4-7.5,7.5v56.6h-17.1V87.7c0-4.1-3.4-7.5-7.5-7.5H232c-4.1,0-7.5,3.4-7.5,7.5v56.6h-17.1V87.7
				c0-4.1-3.4-7.5-7.5-7.5h-48.1c-4.1,0-7.5,3.4-7.5,7.5v56.6h-17.1V87.7c0-4.1-3.4-7.5-7.5-7.5H71.6c-4.1,0-7.5,3.4-7.5,7.5v56.6
				H31.5c-0.2,0-0.3,0-0.5,0V47.1c0.2,0,0.3,0,0.5,0h16.5v0.5C48.1,51.7,51.5,55.1,55.6,55.1z M432.9,144.3h-33.1V95.2h33.1
				L432.9,144.3L432.9,144.3z M352.7,144.3h-33.1V95.2h33.1L352.7,144.3L352.7,144.3z M272.5,95.2v49.1h-33.1V95.2H272.5z
				 M192.4,95.2v49.1h-33.1V95.2H192.4z M112.2,95.2v49.1H79.1V95.2H112.2z M480.5,32.1H31.5c-4.7,0-8.5-3.8-8.5-8.5
				s3.8-8.5,8.5-8.5h448.9c4.7,0,8.5,3.8,8.5,8.5C489,28.2,485.2,32.1,480.5,32.1z"/>
		</g>
	</g>
	<g>
		<g>
			<path class="st0" d="M424.3,176.4h-16c-4.1,0-7.5,3.4-7.5,7.5s3.4,7.5,7.5,7.5h16c4.1,0,7.5-3.4,7.5-7.5
				C431.8,179.7,428.5,176.4,424.3,176.4z"/>
		</g>
	</g>
</g>
</svg>
