<?xml version="1.0" encoding="utf-8"?>
<!-- Generator: Adobe Illustrator 21.0.2, SVG Export Plug-In . SVG Version: 6.00 Build 0)  -->
<svg version="1.1" id="Capa_1" xmlns="http://www.w3.org/2000/svg" xmlns:xlink="http://www.w3.org/1999/xlink" x="0px" y="0px"
	 viewBox="0 0 503.7 512" style="enable-background:new 0 0 503.7 512;" xml:space="preserve">
<style type="text/css">
	.st0{fill:#FFFFFF;}
</style>
<g>
	<g>
		<g>
			<path class="st0" d="M492.1,176.6C450.6,44.1,309.1-29.9,176.6,11.5C44.1,53-29.9,194.5,11.5,327l16.3-5.1
				C-10.9,198.4,58.2,66.5,181.7,27.8c59.8-18.7,123.4-13,178.9,16c55.6,29.1,96.5,78,115.2,137.9c18.7,59.8,13,123.4-16,178.9
				c-29.1,55.6-78,96.5-137.9,115.2c-100.2,31.3-209.9-8.2-267-96.3l-14.3,9.3c47.2,72.8,128,114.7,211.7,114.7
				c24.9,0,50.1-3.7,74.7-11.4c64.2-20.1,116.7-64,147.9-123.6C506.1,308.9,512.2,240.8,492.1,176.6z"/>
		</g>
	</g>
	<g>
		<g>
			<path class="st0" d="M202.4,119.4l4.9-16.3L122,77.5c-3-0.9-6.3-0.1-8.5,2.1L96.4,96.7c-2,2-2.9,4.8-2.4,7.6
				c0.5,2.8,2.4,5.1,4.9,6.2l76.8,34.1l6.9-15.6L117.3,100l4.7-4.7L202.4,119.4z"/>
		</g>
	</g>
	<g>
		<g>
			<path class="st0" d="M281.6,68.6c0-4.7-3.8-8.5-8.5-8.5c0,0,0,0,0,0c-18.8,0-36.4,7.3-49.7,20.6L151,153l-29.4-7.4
				c-2.9-0.7-6,0.1-8.1,2.2l-17.1,17.1c-1.9,1.9-2.8,4.5-2.4,7.1c0.3,2.6,1.8,4.9,4.1,6.3l40.8,24.5l24.5,40.8
				c1.3,2.3,3.7,3.8,6.3,4.1c0.3,0,0.7,0.1,1,0.1c2.2,0,4.4-0.9,6-2.5l17.1-17.1c2.1-2.1,3-5.2,2.2-8.1l-7.4-29.4l73.5-72.8
				C274.7,104.8,281.6,87.5,281.6,68.6z M173.2,181.9c-2.1,2.1-3,5.2-2.3,8.1l7.4,29.4l-5.9,5.9l-20-33.3c-0.7-1.2-1.7-2.2-2.9-2.9
				l-33.3-20l5.9-5.9l29.4,7.4c2.9,0.7,6-0.1,8.1-2.2l75.7-75.7c7.8-7.9,17.7-12.9,28.4-14.8c-1.7,10.5-6.5,20.3-13.9,28
				L173.2,181.9z"/>
		</g>
	</g>
	<g>
		<g>
			<path class="st0" d="M264.2,220.8l-25.6-86.4l-16.4,4.8l24,81.2l-5.2,4.6l-28.4-66l-15.7,6.8l33.1,76.8c1.1,2.5,3.3,4.4,6,4.9
				c0.6,0.1,1.2,0.2,1.9,0.2c2.1,0,4.1-0.7,5.6-2.1l18.1-15.9C264.1,227.4,265.1,224,264.2,220.8z"/>
		</g>
	</g>
	<g>
		<g>
			<path class="st0" d="M162.5,470.3c-60.7,28.8-108.4,32.5-130.7,10.2c-38.7-38.7,3.3-151,97.7-261.4l-13-11.1
				C13,329.1-26.8,446,19.7,492.5c13,13,31.3,19.5,54.1,19.5c26.5,0,59-8.8,96-26.3L162.5,470.3z"/>
		</g>
	</g>
	<g>
		<g>
			<path class="st0" d="M451.2,294.9c-1.5-2.8-4.4-4.5-7.5-4.5h-28.8l-23.2-46.5c-1.5-2.9-4.4-4.7-7.6-4.7h-85.3
				c-4.7,0-8.5,3.8-8.5,8.5v68.2c0,4.7,3.8,8.5,8.5,8.5h25.6v93.8c0,4.7,3.8,8.5,8.5,8.5h42.6c2.3,0,4.4-0.9,6-2.5l34.1-34.1
				c1.6-1.6,2.5-3.8,2.5-6v-31.5l32.7-49C452.5,301,452.7,297.6,451.2,294.9z M402.4,345.3c-0.9,1.4-1.4,3.1-1.4,4.7v30.6
				l-29.1,29.1h-30.6h0v-93.8c0-4.7-3.8-8.5-8.5-8.5h-25.6v-51.2h71.5l23.2,46.5c1.5,2.9,4.4,4.7,7.6,4.7h18.2L402.4,345.3z"/>
		</g>
	</g>
	<g>
		<g>
			<path class="st0" d="M457.1,222.1l-31.7-55.4c-1.5-2.7-4.4-4.3-7.4-4.3h-51.2c-2.8,0-5.5,1.4-7.1,3.8L345.3,188h-21v-42.6h42.6
				c2.3,0,4.4-0.9,6-2.5l31.6-31.6h39.1V94.2H401c-2.3,0-4.4,0.9-6,2.5l-31.6,31.6h-47.6c-4.7,0-8.5,3.8-8.5,8.5v59.7
				c0,4.7,3.8,8.5,8.5,8.5h34.1c2.8,0,5.5-1.4,7.1-3.8l14.5-21.8h41.7l31.7,55.4c1.5,2.7,4.4,4.3,7.4,4.3h34.1v-17.1L457.1,222.1
				L457.1,222.1z"/>
		</g>
	</g>
	<g>
		<g>
			<path class="st0" d="M247.5,307.4h-47.6l-23.1-23.1c-1.6-1.6-3.8-2.5-6-2.5h-42.6c-4.7,0-8.5,3.8-8.5,8.5v59.7
				c0,4.7,3.8,8.5,8.5,8.5h34.1v85.3c0,3.2,1.8,6.2,4.7,7.6c1.2,0.6,2.5,0.9,3.8,0.9c1.8,0,3.6-0.6,5.1-1.7l34.1-25.6
				c2.1-1.6,3.4-4.1,3.4-6.8v-21.5l39.4-31.5c2-1.6,3.2-4.1,3.2-6.7v-42.6C256,311.2,252.2,307.4,247.5,307.4z M238.9,354.5
				L199.5,386c-2,1.6-3.2,4.1-3.2,6.7V414l-17.1,12.8v-76.8c0-4.7-3.8-8.5-8.5-8.5h-34.1v-42.6h30.6l23.1,23.1
				c1.6,1.6,3.8,2.5,6,2.5h42.6L238.9,354.5L238.9,354.5z"/>
		</g>
	</g>
	<g>
		<g>
			<path class="st0" d="M75.7,183.6L50.1,141c-1.5-2.6-4.3-4.1-7.3-4.1h-8.5v17.1H38l19.7,32.8l-20.9,20.9c-1.6,1.6-2.5,3.8-2.5,6
				v25.6H8.7v17.1h34.1c4.7,0,8.5-3.8,8.5-8.5v-30.6L74.4,194C77.2,191.3,77.7,187,75.7,183.6z"/>
		</g>
	</g>
	<g>
		<g>
			<path class="st0" d="M264.5,8.9v10.4l-27.7,6.9c-0.9,0.2-1.9,0.6-2.7,1.2l-21.5,14.3L166,18.3l-7.6,15.3l51.2,25.6
				c1.2,0.6,2.5,0.9,3.8,0.9c1.7,0,3.3-0.5,4.7-1.4l24.4-16.2l32.7-8.2c3.8-0.9,6.5-4.4,6.5-8.3V8.9H264.5z"/>
		</g>
	</g>
</g>
</svg>
