<?xml version="1.0" encoding="utf-8"?>
<!-- Generator: Adobe Illustrator 21.0.2, SVG Export Plug-In . SVG Version: 6.00 Build 0)  -->
<svg version="1.1" id="OBJECTS" xmlns="http://www.w3.org/2000/svg" xmlns:xlink="http://www.w3.org/1999/xlink" x="0px" y="0px"
	 viewBox="0 0 449 335.8" style="enable-background:new 0 0 449 335.8;" xml:space="preserve">
<style type="text/css">
	.st0{fill:#C8DBFB;}
	.st1{fill:none;stroke:#C8DBFB;stroke-linecap:round;stroke-linejoin:round;}
	.st2{fill:none;stroke:#C8DBFB;stroke-linecap:round;stroke-linejoin:round;stroke-dasharray:3.9929,3.9929;}
	.st3{fill:#5193F4;}
	.st4{fill:none;stroke:#0B43A4;stroke-linecap:round;stroke-linejoin:round;stroke-miterlimit:10;}
	.st5{fill:#00AD9F;}
	.st6{fill:none;stroke:#00AD9F;stroke-linecap:round;stroke-linejoin:round;stroke-miterlimit:10;}
	.st7{fill:#0056EC;}
	.st8{fill:#52D2BC;}
	.st9{opacity:0.2;fill:#5275A0;}
	.st10{fill:#7EE8D4;}
	.st11{fill:#4A49CA;}
	.st12{fill:none;stroke:#0B43A4;stroke-linecap:round;stroke-linejoin:round;stroke-miterlimit:10;stroke-dasharray:4;}
	.st13{fill:none;stroke:#C8DBFB;stroke-linecap:round;stroke-linejoin:round;stroke-miterlimit:10;stroke-dasharray:4;}
	.st14{fill:#0B43A4;}
	.st15{fill:#FFFFFF;}
	.st16{fill:#0C2340;}
	.st17{fill:#EF832B;}
	.st18{fill:#FFB9A3;}
	.st19{fill:#047F76;}
	.st20{fill:#009790;}
	.st21{fill:#D8742A;}
</style>
<g>
	<ellipse class="st0" cx="152.5" cy="332.2" rx="38.6" ry="3.6"/>
	<ellipse class="st0" cx="351" cy="332.2" rx="38.6" ry="3.6"/>
	<g>
		<g>
			<g>
				<path class="st1" d="M432.7,78c-0.1-0.7-0.2-1.3-0.4-2"/>
				<path class="st2" d="M431.4,72.1c-6.9-23.5-28.9-21.2-48.7-21.2c-21.4,0-352.5,0.7-352.5,0.7c-33.3,0.1-30.1,48.1-4,48.1
					c15,0,20.7,28.1-5.2,28.2c-15.5,0-16,19.7-5.6,23.7"/>
				<path class="st1" d="M17.2,152.1c0.6,0.1,1.3,0.2,2,0.2"/>
			</g>
		</g>
		<ellipse transform="matrix(0.9858 -0.1681 0.1681 0.9858 -25.3102 5.2921)" class="st3" cx="18.6" cy="152.1" rx="4.8" ry="4.8"/>
		
			<ellipse transform="matrix(0.1792 -0.9838 0.9838 0.1792 277.1772 490.7422)" class="st3" cx="432.7" cy="79.3" rx="4.8" ry="4.8"/>
	</g>
	<g>
		<g>
			<path class="st3" d="M72.1,116.3c-0.7,3.9-1.7,7.7-2.9,11.4c-2.6,8.1-6.3,15.9-10,23.6c-1.9,4-9.8,13.3-14,15.1
				c0.5-10.5,0.5-22.7-0.7-33.3c-1.2-10.2,2.5-17.9-1.5-27.4c-0.5-1.2-1-2.4-1.6-3.6c-2-4.5-4-9-4.6-13.9
				c-0.8-6.2,1.1-13.2,6.4-16.4c3.8-2.3,8.8-2.2,12.9-0.4c4.1,1.8,7.4,5.1,9.9,8.8C73.1,90.7,74.3,104.1,72.1,116.3z"/>
			<path class="st4" d="M53.5,82.4c7.8,11.1,8.5,23.9,9.2,37.5c0.7,13.5-2.6,27.2-9.3,39"/>
		</g>
		<g>
			<path class="st5" d="M53.2,286.3c-5.5-4.9-11-9.8-15.1-15.9c-3.5-5.3-5.8-11.3-8.9-16.9c-2-3.6-4.3-7.1-5.5-11.1
				c-1.2-4-0.9-8.7,1.9-11.7c2.9-3.1,8-3.6,12-2c4,1.6,7,5,9.4,8.6c3.1,4.8,5.2,10.3,6,15.9c0.8,5.1,0.6,10.4,1.4,15.5
				c0.7,4.8,2.3,9.4,4.4,13.7c1.8,4,6.5,11,7.7,15.1C63.1,299.3,55.5,288.4,53.2,286.3z"/>
			<path class="st6" d="M34,236c5.2,2.3,7.3,8.5,8.4,14.1c1.2,6.4,1,13.3,3.9,19c5.5,10.9,12.7,23.3,18,27"/>
		</g>
		<g>
			<path class="st7" d="M26.2,271.4c-4.6-1.8-10.6-2.5-13.6,1.4c-2.4,3.3-1.2,8,0.5,11.7c1.4,3.2,3.2,6.4,6.2,8.1
				c2.1,1.2,4.5,1.5,6.8,1.8c6.5,0.8,13.1,1.2,19.7,1.1c7.6,0,16.9,3.1,23.2,7.9C61.1,288.3,41.5,277.5,26.2,271.4z"/>
			<path class="st4" d="M18.2,281.2c5.8,0.2,11.6,0.7,17.2,2.3c5.7,1.7,27.6,11.7,31,16"/>
		</g>
		<g>
			<path class="st8" d="M75.9,240.5c-5.9-9.3-16.1-15.8-27-17.2c-8.1-1.1-16.4,0.4-24.3-1.3c-8.4-1.8-15.9-7.1-20.3-14.5
				c-4.4-7.3-5.5-16.5-3-24.7c1.9-6.2,6.1-12.1,12.3-14.1c3.4-1.1,7.1-0.9,10.5-0.1c3.2,0.8,6.1,2.1,8.8,3.8
				c6.2,3.9,11.2,10,15,16.4c3.4,5.9,11.9,15,17.6,20.9c3.4,3.5,5.8,5.8,5.8,5.8C75.4,220.5,73.5,234.6,75.9,240.5z"/>
			<path class="st6" d="M11.8,186.7c19.4,8.7,40.5,20.2,54.2,36.4"/>
		</g>
		<g>
			<path class="st9" d="M67.9,220.9c0,0-28.9-23.4-34.9-48.5c6.2,3.9,11.2,10,15,16.4c3.4,5.9,11.9,15,17.6,20.9
				C66.3,212.9,67,216.5,67.9,220.9z"/>
			<path class="st9" d="M69.2,127.8c-2.6,8.1-6.3,15.9-10,23.6c-1.9,4-9.8,13.3-14,15.1c0.5-10.5,0.5-22.7-0.7-33.3
				c-1.2-10.2,2.5-17.9-1.5-27.4c-0.5-1.2-1-2.4-1.6-3.6c0.4,0.1,0.7,0.3,1.1,0.4c6.6,2.8,9.6,9.8,10.2,16.5
				c0.5,5.6-0.5,11.2-1.3,16.7c-0.3,2.6-0.6,5.2-0.1,7.7c0,0,0,0,0,0.1c0.7,3,5.1,2.8,5.6-0.2l1.8-9.3c0.5-2.8,1.1-5.7,3.4-7.6
				c0.9-0.8,2.1-1.3,3.2-1.2C67.2,125.2,68.4,126.3,69.2,127.8z"/>
			<path class="st10" d="M67.9,215c-4.6-23.8-7-27.5-5-33.4c2.6-7.6,1.1-15.3,3.5-22.9c2.4-7.7,4.1-15.9,2.1-23.7
				c-0.6-2.5-1.9-5.1-4.8-5.2c-1.2,0-2.3,0.4-3.2,1.2c-2.3,1.9-2.9,4.9-3.4,7.6l-1.7,9.3c-0.6,3-4.9,3.2-5.6,0.2c0,0,0-0.1,0-0.1
				c-0.6-2.5-0.3-5.1,0.1-7.7c0.7-5.6,1.8-11.1,1.3-16.7c-0.6-6.8-3.6-13.7-10.2-16.5c-2.3-1-5-1.2-7.4-0.6
				c-6.9,1.8-8.7,8.5-7.6,14.2c0.7,4,2.6,7.7,4.3,11.5c4.2,9.1,1.1,17.4,1.7,27.4C33.5,187.2,67.9,215,67.9,215z"/>
			<path class="st6" d="M37.2,113.7c3.4,16.9,6.8,34,13.4,50c1.9,4.7,2.9,10.8,14,23.6"/>
		</g>
		<g>
			<path class="st3" d="M169.5,118c-3.5-4-6.8-8.1-10.2-12c-2.2-2.5-4.5-5-7-7.4c-1.2-1.2-2.5-2.3-3.8-3.4c-7.9-6.5-16.8-12-26.2-16
				c-5.7-2.4-11.7-4.5-16.6-8.3c-4.8-3.9-8.3-10.3-6.7-16.3c1.2-4.3,4.8-7.7,9-9.2c4.2-1.5,8.9-1.4,13.2-0.5
				c12.2,2.6,22.4,11.4,29.3,21.8c0.1,0.2,0.3,0.4,0.4,0.6c5.1,7.8,8.6,16.4,11.7,25.2c1,2.8,1.9,5.7,2.9,8.5
				C167,105.1,171.3,113.8,169.5,118z"/>
			<path class="st4" d="M113.7,55.1c13.3,2.5,22.7,11.4,32.6,20.6s17,21.4,20.4,34.5"/>
		</g>
		<g>
			<path class="st9" d="M159.3,106c-0.1,1.4-0.1,2.8,0.2,4.2c-3.3-0.8-5.6-5.9-7.2-11.6c-1.5-5.5-2.2-11.4-2.5-14.1
				c-0.4-5.8-0.1-11.6,1.1-17.3c5.1,7.8,8.6,16.4,11.7,25.2c-1.1,3.2-2,6.3-2.7,9.6C159.7,103.3,159.4,104.6,159.3,106z"/>
			<path class="st8" d="M182.4,58c-1.1,5-4.1,9.3-6.8,13.7c-1.4,2.3-2.7,4.7-3.9,7.1c-3.9,7.7-6.9,15.8-8.9,24.2
				c-0.6,2.8-1,5.4-0.5,8.2c-6.6-1.5-9.2-20.1-9.6-25.7c-0.8-10,0.9-20.2,5-29.4c1.8-4,4.1-8,7.7-10.5c3.6-2.6,8.6-3.5,12.4-1.2
				c2.3,1.3,3.7,3.6,4.4,6.1C182.9,52.9,182.9,55.5,182.4,58z"/>
			<path class="st6" d="M159.8,105.7c-4.1-10.2-1.6-31.9,4.9-45.6c2-4.1,4.8-8,8.7-10.3"/>
		</g>
		<g>
			<path class="st9" d="M182.4,58c-1.1,5-4.1,9.3-6.8,13.7c-1.4,2.3-2.7,4.7-3.9,7.1c-1.8-3-3-6.4-3.4-9.8c-0.6-5.8,1.7-12,6.4-15.5
				c2.2-1.6,4.8-2.5,7.5-2.9C182.9,52.9,182.9,55.5,182.4,58z"/>
			<path class="st5" d="M220.3,101.4c-0.3,1.9-0.9,3.7-1.7,5.5c-2.9,6.3-9,11.7-18.2,16.1c0,0-0.5-10-0.6-12.6
				c-0.4-11.4-12.8-17.7-20.7-26.1c-4-4.2-7-9.6-7.6-15.4c-0.6-5.8,1.7-12,6.4-15.5c4-2.9,9.1-3.5,14-3.1
				c7.9,0.6,15.8,3.9,20.7,10.1c0.2,0.2,0.4,0.5,0.6,0.7c3,4.1,4.5,9.1,5.7,14C220.8,83.7,221.7,92.7,220.3,101.4z"/>
			<path class="st6" d="M181.3,59.5c8.6,4.4,17.2,9.8,22.2,18.1c7,11.5,5.4,26.5,0.1,38.9"/>
		</g>
		<g>
			<path class="st8" d="M363.7,175c5.5-9,2.7-20.6,4.6-30.9c1.5-8,5.9-15.3,12.2-20.4c4-3.2,9.6-5.4,14.1-3c1,0.5,2.1,1.2,3.1,0.7
				c0.6-0.3,0.8-1,0.9-1.7c1.1-5.6-1.5-11.7,0.6-17c1.2-2.8,3.6-5,6.2-6.6c5-3.2,10.8-5,16.8-5.3c1.6-0.1,3.2,0,4.6,0.7
				c2.5,1.3,3.7,4.4,3.4,7.3c-0.3,2.8-1.9,5.3-3.6,7.6c-5.7,7.5-14.2,14-15.3,23.4c-0.1,1.2-0.1,2.4,0.4,3.5c0.5,1,1.5,1.8,2.1,2.8
				c1.8,3.2-1.6,6.9-5,8.5c-3,1.5-6.4,2.4-9.7,2.7c-2.3,0.2-4.9,0.3-6.5,2c-2.9,3.2,0.4,8.2-0.2,12.5c-0.4,2.7-2.3,4.8-4.2,6.6
				c-3.6,3.4-7.5,6.5-11.7,9.2c-3.4,2.2-7,4.1-10,6.8c-3,2.7-5.4,6.3-5.6,10.3"/>
			<path class="st6" d="M371,166.3c0.9-4.4,2.9-8.4,4.9-12.4c3.1-6.2,6.3-12.5,11.1-17.6c3.6-3.9,8-6.9,11.7-10.7
				c2.6-2.7,4.8-5.8,6.6-9.1c0.9-1.8,1.8-3.7,3-5.3c1.5-1.9,3.6-3.2,5.4-4.9c2.4-2.2,4.4-4.9,5.7-7.9"/>
		</g>
		<g>
			<path class="st3" d="M442.3,181.3c-1.2,4.7-3.1,9.4-6.2,13.2c-2.2,2.6-4.9,4.6-7.8,6.3c-1.5,0.9-3.1,1.6-4.7,2.3
				c-6.3,2.6-13,4.1-19.8,4.4c-9.9,0.4-20-1.8-29.5,1c-4.4,1.3-8.4,3.6-11.6,6.8c-2.1,1.9-3.8,4.2-5.2,6.6l1.3-8.2
				c2.4-8.8,4.8-17.8,9.7-25.5c3.2-5,7.2-9.4,11.6-13.4c6.9-6.4,14.7-12.1,23.2-16.2c6.9-3.3,14.5-5.7,22.1-4.8
				c7.6,0.9,15.1,5.7,17.4,13C444.2,171.4,443.5,176.5,442.3,181.3z"/>
			<path class="st4" d="M365.1,207.4c7.3-10.7,18.1-19,30.4-23.1c7.7-2.6,15.8-3.5,23.5-5.8c7.8-2.2,15.5-6,20.1-12.7"/>
		</g>
		<g>
			<path class="st8" d="M369.9,286.1c0.4-11,6.1-21.2,13.1-29.8c5.8-7.2,12.7-13.7,21.3-17c2.7-1,5.7-1.7,8.5-1
				c2.8,0.7,5.3,3.1,5.4,6c0,2.4-1.6,4.6-3.3,6.3c-5.7,5.7-13,9.3-19.8,13.4c-11.8,7.1-23,16.6-27.7,29.6"/>
			<path class="st6" d="M374.2,276.5c7.2-16.1,25.8-30.4,38.1-32.2"/>
		</g>
		<g>
			<path class="st5" d="M365.4,294.9c-0.1-1.8,5.9-6.7,7.3-7.9c7.5-6.8,16.5-11.8,25.9-14.8c3.8-1.2,7.9-2.1,11.7-1.1
				c3.8,0.9,7.3,4.1,7.7,8.2c0.4,4-2.3,7.9-5.7,9.9c-3.4,1.9-7.4,2.2-11.3,2c-5.9-0.3-11.7-1.8-17.6-1.8S369.1,290,365.4,294.9z"/>
			<path class="st6" d="M371.5,289.3c12.1-6.6,30.4-10.8,43.7-9.2"/>
		</g>
		<g>
			<path class="st9" d="M220.3,101.4c-0.3,1.9-0.9,3.7-1.7,5.5c-4.2-9-8-20.8-8.9-35.2c-0.2-3.9,0.8-7.9,2.9-11.3
				c0.2,0.2,0.4,0.5,0.6,0.7c3,4.1,4.5,9.1,5.7,14C220.8,83.7,221.7,92.7,220.3,101.4z"/>
			<path class="st10" d="M262.1,100.9c9-3.2,18.4-5.8,26.7-10.7c2.5-1.5,4.9-3.2,6.6-5.5c1.8-2.3,2.8-5.2,2.5-8.1
				c-0.4-2.9-2.3-5.7-1.6-8.6c0.4-1.9,1.8-3.4,2.9-5c2.6-3.8,3.4-8.8,2-13.3c-1.4-4.8-5-8.6-7-13.1c-1.7-3.7-2.3-7.9-1.7-11.9
				c-7.6,0.1-14.5,4.2-22,5.6c-5.7,1.1-11.6,0.5-17.3,1.8c-10.3,2.4-18.7,11.4-20.3,21.9c-4.8-0.8-9.9,0.9-13.3,4.4
				c-3.5,3.8-5.5,9.1-5.2,14.3c2.3,37.4,23.8,57,23.8,57S258.7,102.1,262.1,100.9z"/>
			<g>
				<path class="st6" d="M241.9,100.6c-0.9-9.2,2.3-18.4,6-26.9c3.6-8.3,7.8-16.4,13.3-23.5c5.6-7.1,12.7-13.2,21-16.7"/>
				<path class="st6" d="M250,39.2c-0.9,8.2-0.3,18.1,1.9,26.2"/>
				<path class="st6" d="M253.4,62.4c9.4-6,23.9-9.7,35-9.1"/>
				<path class="st6" d="M230.4,63.9c11.3,4.8,11.8,21.4,12.1,26.1"/>
				<path class="st6" d="M245.5,79.5c8.7-6.2,21.2-8.1,30.4-5.8"/>
				<path class="st6" d="M269.2,34.9c-2.6,3.2-3.3,7-3,9.7"/>
				<path class="st6" d="M268.6,42.2c4-2,9.3-2.5,15-1.1"/>
			</g>
		</g>
		<g>
			<path class="st11" d="M46,60.4c1.1-0.1,8.3-5.4,11.1-7.2c0.8-0.5,1.6-1,2.1-1.8c0.5-0.8,0.8-1.8,0.4-2.6
				c-0.5-1.1-1.3-2.1-3.4-2.1c-3.6,0-4.9,1.2-6.6,3C43.8,55.6,46,60.4,46,60.4z"/>
			<path class="st11" d="M78.5,82c3.2,1.4,6.5,2.8,10,2.4c1.3-0.2,2.8-0.8,3.2-2c0.4-1.1-0.1-2.3-1-3.1c-0.9-0.8-2-1.1-3.1-1.4
				c-4.2-1-10.1-0.5-14.3,0.7C73.3,78.6,76.6,81.2,78.5,82z"/>
			<path class="st11" d="M99.3,35.4c-1.4-0.9-3-2.1-3-3.7c0-1.7,1.7-2.9,3.4-3s3.2,0.9,4.5,2c5.3,4.7,4.7,10,4.7,10
				S100.9,36.4,99.3,35.4z"/>
			<path class="st11" d="M103.5,21.1c-1.2-0.5-2.5-1.2-3.2-2.3c-0.4-0.6-0.6-1.3-0.3-1.9c0.4-1,1-2,3.6-1.5c8.2,1.5,10,7.1,10,7.1
				S105.7,22.1,103.5,21.1z"/>
			<path class="st11" d="M127.7,33.6c3.3-0.3,6.7-1.9,8.8-4.5c0.8-1,1.5-2.1,1.8-3.3c0.3-1.2,0-2.6-1-3.5c-1.2-1-3-0.8-4.3,0
				c-1.3,0.8-2.1,2.2-2.8,3.6C129.4,27.8,127.7,33.6,127.7,33.6z"/>
			<path class="st4" d="M68.6,154.3c-8-7.1-16-14.1-24-21.2c-4.3-3.8-8.6-7.6-11.3-12.6c-5.8-10.8-2.5-24.8,5.4-34.1
				c7.9-9.4,19.4-14.9,30.9-19c11.6-4,23.6-6.9,34.6-12.2c6.9-3.3,13.9-8.3,15.7-15.8c1.1-4.5,0.2-9.4-2.5-13.2
				c-2.7-3.7-7.2-6.1-11.8-6.4"/>
			<path class="st4" d="M133.3,26c-2.2,6.7-10.7,10.8-14.6,16.6"/>
			<path class="st4" d="M102.6,33.7c1.7,1.8,3.7,3.2,5.2,5.2c3.1,4.1,3.4,10.8-1.2,15"/>
			<path class="st4" d="M59.5,71.3c7.1,5.4,16.4,9.1,25.3,9.4"/>
			<path class="st4" d="M43.3,81.2c-3.3-9.6,0.3-21.1,8.4-27.2"/>
		</g>
		<g>
			<path class="st11" d="M301.7,40.7c-0.4-1.2-0.4-2.6,0.5-3.5c0.7-0.7,1.9-1,2.8-0.6c7,3.1,6.3,14.1,6.3,14.1
				S304.6,49.6,301.7,40.7z"/>
			<path class="st11" d="M301.6,61.2c-4.5,8.2,11.6,7.6,17.4,2.8C319,64,305.5,54.2,301.6,61.2z"/>
			<path class="st11" d="M322,41.3c-1.1-1.5-1.5-3.7-0.3-5.2c0.9-1.1,2.4-1.4,3.8-1.1c1.4,0.3,3.4,1.5,4.3,2.6
				c5.3,6.6,2.8,13.1,2.8,13.1S323.8,43.8,322,41.3z"/>
			<path class="st11" d="M386.2,61.7c-0.4-1.3-0.3-2.8,0.7-3.7c0.6-0.6,1.5-0.8,2.4-0.7c0.8,0.1,1.6,0.4,2.4,0.7
				c1.6,0.8,2.9,2.1,3.7,3.7c2,4.1,0.6,9.2,0.6,9.2S387.2,64.9,386.2,61.7z"/>
			<path class="st11" d="M366,76.7c-2.9-2.5-7.2-3.3-10.7-1.7c-0.9,0.4-1.7,0.9-2.3,1.7c-1.3,1.8-0.8,4.3,0.5,6.1
				c1.3,1.7,3.3,2.8,5.3,3.7c3.6,1.6,9.2,2,13,2.9C371.8,89.4,371.8,81.8,366,76.7z"/>
			<path class="st4" d="M306.8,42.5c2.4,7.8,9.1,13.7,16.6,16.8c7.5,3.2,15.7,4,23.9,4.5c8.1,0.5,16.3,0.8,24.2,2.9
				c7.7,2.1,15.3,6.4,18.6,13.6c4,8.8,0.5,19.3-5.2,27.1c-5.6,7.9-13.2,14.2-18.6,22.2c-2.5,3.7-4.6,8-4.1,12.4
				c0.7,5.9,5.6,10.2,10.2,13.9"/>
			<path class="st4" d="M325.5,39.6c5.4,6,9.7,15.3,10.7,23.2"/>
			<path class="st4" d="M307.4,62.6c3.1,0.8,6.2,1.6,9.4,1.6c3.2,0,6.9-1.8,9.2-4"/>
			<path class="st4" d="M391.4,62.1c2.9,2.8,4.6,6.7,4.8,10.7c0.1,4-2.1,8.9-4.7,11.9"/>
			<path class="st4" d="M361.3,80.3c5.8,5.3,10.8,9.6,17.2,14.1c2.9,2.1,8.7,4.7,11.3,4"/>
		</g>
		<g>
			<path class="st9" d="M428.2,200.8c-1.5,0.9-3.1,1.6-4.7,2.3c-6.3,2.6-13,4.1-19.8,4.4c-9.9,0.4-20-1.8-29.5,1
				c-4.4,1.3-8.4,3.6-11.6,6.8c-0.3,0.2-0.7,0.3-1,0.5c-0.8-6.7,15.9-15.4,21-17.7c9.1-4.1,19.4-5.9,29.4-5.1
				c4.4,0.3,8.9,1.2,12.5,3.7C425.9,197.7,427.3,199.1,428.2,200.8z"/>
			<path class="st8" d="M411.9,196.9c4.4,0.3,8.9,1.2,12.5,3.7s6.2,6.9,5.3,11.3c-1,5-6.2,8.3-11.2,8.9c-5.1,0.6-10.2-0.8-15.2-1.8
				c-11.1-2.3-22.5-2.8-33.8-1.5c-2.8,0.3-5.5,0.9-7.9,2.3c-0.8-6.7,15.9-15.4,21-17.7C391.7,198,401.9,196.1,411.9,196.9z"/>
			<path class="st6" d="M365.9,215.5c8.3-7.3,29.5-12.2,44.6-10.6c4.5,0.5,9.1,1.8,12.6,4.8"/>
		</g>
	</g>
	<path class="st12" d="M350.4,133.7l80.9-0.2c9.5,0,17.2,7.7,17.2,17.2v0c0,9.5-7.7,17.2-17.2,17.2l-55.3,0.1"/>
	<path class="st12" d="M105.7,193.1l-56.6,0.1c-5.4,0-9.7,4.4-9.7,9.7l0,0c0,5.4,4.4,9.7,9.7,9.7l16.5,0"/>
	<g>
		<path class="st13" d="M15.4,236.9c-19.4,0-19.8,28.9,4.9,28.9c24.7-0.1,348.1-0.7,363.4-0.7s16.9-23.8-2-23.8
			c-37.5,0.1-38.8-17.8-17.9-17.9"/>
		<ellipse transform="matrix(0.9858 -0.1681 0.1681 0.9858 -39.6163 5.9319)" class="st3" cx="15.2" cy="236.9" rx="4.8" ry="4.8"/>
		
			<ellipse transform="matrix(0.9858 -0.1681 0.1681 0.9858 -32.4757 65.1159)" class="st14" cx="368.3" cy="224.3" rx="4.8" ry="4.8"/>
	</g>
	<g>
		<path class="st9" d="M378.2,307.1l-300.9,0.6c-4,0-7.3-3.2-7.3-7.3l-0.4-199.3c0-4,3.2-7.3,7.3-7.3l300.9-0.6c4,0,7.3,3.2,7.3,7.3
			l0.4,199.3C385.5,303.8,382.3,307.1,378.2,307.1z"/>
		<g>
			<path class="st15" d="M372.4,303.3l-300.9,0.6c-4,0-7.3-3.2-7.3-7.3L63.8,97.3c0-4,3.2-7.3,7.3-7.3l300.9-0.6
				c4,0,7.3,3.2,7.3,7.3l0.4,199.3C379.6,300,376.4,303.3,372.4,303.3z"/>
			<path class="st7" d="M371.4,89.4L71.8,90.1c-4.4,0-7.9,3.6-7.9,7.9l0,6.9l315.4-0.7l0-6.9C379.3,93,375.8,89.4,371.4,89.4z"/>
			<path class="st0" d="M72.2,303.9l45.3-0.1L117,104.8l-53.2,0.1L64.2,296C64.3,300.4,67.8,303.9,72.2,303.9z"/>
			<g>
				<path class="st7" d="M372,91.4c2.9,0,5.3,2.4,5.3,5.3l0.4,199.3c0,2.9-2.4,5.3-5.3,5.3l-300.9,0.6c-2.9,0-5.3-2.4-5.3-5.3
					L65.8,97.3c0-1.4,0.5-2.7,1.5-3.7c1-1,2.3-1.5,3.7-1.6L372,91.4L372,91.4 M372,89.4C372,89.4,372,89.4,372,89.4L71.1,90.1
					c-4,0-7.3,3.3-7.3,7.3l0.4,199.3c0,4,3.3,7.3,7.3,7.3c0,0,0,0,0,0l300.9-0.6c4,0,7.3-3.3,7.3-7.3l-0.4-199.3
					C379.3,92.7,376,89.4,372,89.4L372,89.4z"/>
			</g>
			<path class="st15" d="M109.8,288.7l-34.9,0.1c-1.5,0-2.8-1.2-2.8-2.8l0-0.3c0-1.5,1.2-2.8,2.8-2.8l34.9-0.1
				c1.5,0,2.8,1.2,2.8,2.8l0,0.3C112.6,287.5,111.4,288.7,109.8,288.7z"/>
			<path class="st15" d="M105.6,153.6l-29.7,0.1c-2.8,0-5.1-2.3-5.1-5.1l-0.1-29.7c0-2.8,2.3-5.1,5.1-5.1l29.7-0.1
				c2.8,0,5.1,2.3,5.1,5.1l0.1,29.7C110.7,151.4,108.4,153.6,105.6,153.6z"/>
			<path class="st0" d="M232.8,242.6l-103.5,0.2c-2,0-3.6-1.6-3.6-3.6l0-0.5c0-2,1.6-3.6,3.6-3.6l103.5-0.2c2,0,3.6,1.6,3.6,3.6
				l0,0.5C236.4,241,234.8,242.6,232.8,242.6z"/>
			<path class="st0" d="M226.8,124.7l-81.8,0.2c-2,0-3.6-1.6-3.6-3.6l0-0.5c0-2,1.6-3.6,3.6-3.6l81.8-0.2c2,0,3.6,1.6,3.6,3.6l0,0.5
				C230.4,123.1,228.8,124.7,226.8,124.7z"/>
			<path class="st0" d="M356.1,207.4l-109,0.2c-2,0-3.6-1.6-3.6-3.6l0-0.5c0-2,1.6-3.6,3.6-3.6l109-0.2c2,0,3.6,1.6,3.6,3.6l0,0.5
				C359.7,205.8,358.1,207.4,356.1,207.4z"/>
			<path class="st0" d="M232.8,258.6l-103.5,0.2c-2,0-3.6-1.6-3.6-3.6l0-0.5c0-2,1.6-3.6,3.6-3.6l103.5-0.2c2,0,3.6,1.6,3.6,3.6
				l0,0.5C236.4,257,234.8,258.6,232.8,258.6z"/>
			<path class="st0" d="M232.8,274.6l-103.5,0.2c-2,0-3.6-1.6-3.6-3.6l0-0.5c0-2,1.6-3.6,3.6-3.6l103.5-0.2c2,0,3.6,1.6,3.6,3.6
				l0,0.5C236.5,272.9,234.8,274.6,232.8,274.6z"/>
			<path class="st0" d="M353.8,285l-104.3,0.2c-3.3,0-6-2.7-6-6l-0.1-44.8c0-3.3,2.7-6,6-6l104.3-0.2c3.3,0,6,2.7,6,6l0.1,44.8
				C359.8,282.3,357.2,285,353.8,285z"/>
			
				<ellipse transform="matrix(1 -2.059587e-03 2.059587e-03 1 -0.2002 0.1622)" class="st0" cx="78.7" cy="97.3" rx="2.5" ry="2.5"/>
			
				<ellipse transform="matrix(1 -2.059587e-03 2.059587e-03 1 -0.2002 0.1845)" class="st0" cx="89.5" cy="97.3" rx="2.5" ry="2.5"/>
			
				<ellipse transform="matrix(1 -2.059587e-03 2.059587e-03 1 -0.2001 0.2067)" class="st0" cx="100.3" cy="97.3" rx="2.5" ry="2.5"/>
			
				<ellipse transform="matrix(1 -2.062215e-03 2.062215e-03 1 -0.2494 0.2684)" class="st0" cx="130" cy="121.1" rx="7.4" ry="7.4"/>
			<path class="st15" d="M107.7,159.9L75,159.9c-0.8,0-1.4-0.6-1.4-1.4l0-0.2c0-0.8,0.6-1.4,1.4-1.4l32.6-0.1c0.8,0,1.4,0.6,1.4,1.4
				l0,0.2C109.1,159.3,108.4,159.9,107.7,159.9z"/>
			<path class="st15" d="M107.7,166.1l-32.6,0.1c-0.8,0-1.4-0.6-1.4-1.4l0-0.2c0-0.8,0.6-1.4,1.4-1.4l32.6-0.1
				c0.8,0,1.4,0.6,1.4,1.4l0,0.2C109.1,165.5,108.5,166.1,107.7,166.1z"/>
			<path class="st0" d="M145.1,179.3l-9.2,0.1l0.1,38.7l-8,0c-2.8,0-5.1-2.3-5.1-5.1l-0.1-71.5c0-2.8,2.3-5.1,5.1-5.2l17.1,0
				L145.1,179.3z"/>
			<g>
				<path class="st0" d="M205,136.2v1c2.8,0,5,2.2,5,5l0.1,69.7c0,2.8-2.2,5-5,5l-76.3,0.2c-2.8,0-5-2.2-5-5l-0.1-69.7
					c0-2.8,2.2-5,5-5l76.3-0.2L205,136.2 M205,136.2C205,136.2,205,136.2,205,136.2l-76.3,0.2c-3.3,0-6,2.7-6,6l0.1,69.7
					c0,3.3,2.7,6,6,6c0,0,0,0,0,0l76.3-0.2c3.3,0,6-2.7,6-6l-0.1-69.7C211,138.8,208.3,136.2,205,136.2L205,136.2z"/>
			</g>
		</g>
		<path class="st0" d="M332.3,193.6l-101.7-23c-3.2-0.7-5.3-4-4.5-7.2l11.4-50.6c0.7-3.2,4-5.3,7.2-4.5l101.7,23
			c3.2,0.7,5.3,4,4.5,7.2L339.5,189C338.8,192.3,335.6,194.3,332.3,193.6z"/>
		<g>
			<polygon class="st7" points="135.4,331.3 121.2,331.3 117.7,313.2 138.9,313.1 			"/>
			<path class="st0" d="M121.7,313.1c0,1.5-0.3,4,0.7,4c1,0,0.6-2.4,1.7-2.3c0.7,0-0.3,7.9,2.4,8.1c1.9,0.1,1.5-3.8,1.7-6.3
				c0.1-1.7,2.3-1.4,2.3-0.2c0,1.2-0.1,2.1,0,3.5c0.1,2.4,3.7,1.7,3.6-1.4s0-5.3,0-5.3L121.7,313.1z"/>
			<g>
				<path class="st16" d="M118.3,324.1c-0.3,0-0.6,0-0.8-0.1c-1-0.2-1.8-0.8-2.2-1.6c-1.5-3.1,2.4-8.8,2.5-9.1l0.2,1
					c0,0.1-3.4,5-2.1,7.8c0.3,0.7,0.9,1.1,1.7,1.2c0.2,0,0.5,0.1,0.7,0.1c5.1,0,13.9-9.6,14-9.7c0.4-0.4,1,0,0.8,0.3
					C132.7,314.5,123.8,324.1,118.3,324.1z"/>
			</g>
		</g>
		<g>
			<path class="st9" d="M267.8,76.1c-20.2-0.8-48.1,14.2-38.2,50.8c-0.2,3.1,1.6,5.3,3.6,4.7c2-0.6,0.2-6.5,0.2-6.5
				c3.4-27.2,9.7-31.9,20.4-31.8l25.1-0.1c6.2,0.9,17.5,5.3,19.2,27l6.2,1.2C304.8,105.7,301,77.4,267.8,76.1z"/>
			<path class="st17" d="M267.8,72.9c-20.2-0.8-48.1,14.2-38.2,50.8l3.8-1.8c3.4-27.2,9.7-31.9,20.4-31.8l25.1-0.1
				c6.2,0.9,17.8,6.4,19.5,28.2l5.9,0C304.8,102.5,301,74.2,267.8,72.9z"/>
			<path class="st18" d="M263.7,73.5l-3,6.6c0,0,0.4,3.7,4,3.6c3.6-0.1,4.1-1.8,4.1-1.8l0.5-7.6L263.7,73.5z"/>
			<path class="st18" d="M279.1,68c-3.4,6.1-4.9,7.9-9.4,8.8c-5.8,1.2-12.3-2.7-9.3-12.4c2.5-7.9,6.2-6.7,9.9-6.4
				C273.9,58.4,282.8,61.5,279.1,68z"/>
			<path class="st16" d="M265.5,63.2c-0.9-0.5-2.1-0.1-2.8,0.7c-0.7,0.8-1.1,1.9-0.8,2.9c-1.4,0-2.6,1.4-2.5,2.8
				c-1-2.2-0.4-4.6-0.6-6.8c-0.2-2.3,0.1-4.8,1.5-6.5c0.6-0.7,1.4-1.3,2.2-1.7c3.2-1.7,7.1-1.7,10.3-0.1c0.7,0.3,2.3,1.4,4.6,0.8
				c4.4-1.1,7,1.9,4.3,4.7c0.9,0.3,1.8,0.7,2.2,1.5c0.1,0.2,0.1,0.5,0,0.7c-0.1,0.1-0.3,0.2-0.4,0.3c-0.7,0.3-1.6,0.3-2.3,0.2
				c0.3,0.3,1.9,0.4,2.4,1.3c1.3,2.5-3.9,1.3-4.7,1c0.9,0.2,3.3,2.1,2.5,3.4c-0.2,0.3-3.4,2.1-6.8-1.8c-0.8-0.9-1.8-1.8-2.9-2.1
				c-0.9-0.2-1.9,0.1-2.8,0.4c-0.6,0.2-2.3,1.2-2.8,0.6C265.9,64.8,266.6,63.8,265.5,63.2z"/>
			<path class="st18" d="M299,118.3c-0.9,3.1-1.8,3.4-0.7,3.9c1.1,0.5,2-1.2,2-1.2l5,1c0,0-1.1-3.3-1.9-3.7
				C302.6,117.9,299,118.3,299,118.3z"/>
			<path class="st18" d="M233.5,121.9c0.7,1.6,0.8,1.6,1.7,3.6c1.7,3.7-2.3,9.7-4.9,3.2c-0.7-1.8-0.7-5-0.7-5L233.5,121.9z"/>
		</g>
		<g>
			<g>
				<path class="st16" d="M272.7,54.9c3.4,0.2,7.7-2.2,10.3,0.9c0.2,0.3,0.7-0.1,0.5-0.4c-2.6-3.7-7.3-0.9-10.9-1
					C272.3,54.3,272.3,54.9,272.7,54.9L272.7,54.9z"/>
				<path class="st16" d="M274,53c-2.3,0.4-4.6-0.7-7-0.3c-1.9,0.3-3.6,1.3-5.1,2.5c-0.4,0.3,0.1,1,0.5,0.7c2-1.3,4-2.5,6.5-2.3
					c1.8,0.1,3.4,0.7,5.2,0.1C274.7,53.6,274.5,53,274,53L274,53z"/>
				<path class="st16" d="M260.7,56.2c-1.7,1-2.6,2.4-2.8,4.4c-0.1,1.4-0.2,4.7,1.2,5.5c0.3,0.2,0.7-0.3,0.4-0.5
					c-0.9-0.9-1-3.4-0.9-4.6c0.1-1.8,0.9-3.2,2.3-4.3C261.2,56.5,261,56.1,260.7,56.2L260.7,56.2z"/>
				<path class="st16" d="M286.1,61.9c-0.8-1.5-3-2.8-4.7-1.8c-0.3,0.1-0.1,0.5,0.1,0.6c0.7,0,1.4-0.1,2.1,0.1
					c0.8,0.2,1.5,0.7,2,1.4C285.8,62.4,286.2,62.2,286.1,61.9L286.1,61.9z"/>
			</g>
		</g>
		<g>
			<path class="st14" d="M174.8,214.4c10.6,3.9,19.8,16.1,17.7,24.9c-2.4,10-9.3,14.3-9.3,14.3l-2.2-4c0,0,5.5-8.6,5-12.7
				c-0.8-6.5-9-10.9-9-10.9L174.8,214.4z"/>
			<path class="st16" d="M148.7,327.1c0,0-6.5,2.6-8.1,4.1l12.9,0l0-4.1L148.7,327.1z"/>
			<path class="st16" d="M177.2,326.9c0,0,1.8,2.1,2.2,4.3l-8.8,0c0.2-1.5,0.8-2.9,1.6-4.3L177.2,326.9z"/>
			<path class="st19" d="M177.7,327.1l-6,0c0.1-7.1-1.3-31.2-2.8-49.3c-0.8-10.6-1.7-19.1-2.1-20.8l3.2-0.7l12.2-2.7
				C184.3,263.1,179.5,306.7,177.7,327.1z"/>
			<path class="st20" d="M155.6,256.7c-4.7,7.4-5.9,60.7-7.9,70.6l5.7,0.3c0,0,6.5-33.6,20.5-71.5L155.6,256.7z"/>
			<path class="st9" d="M176.4,256.1c-2.8,7.5-5.2,14.8-7.4,21.7c-0.8-10.6-1.7-19.1-2.1-20.8l3.2-0.7L176.4,256.1z"/>
			<path class="st20" d="M155.6,256.7c-4.7,7.4-5.9,60.7-7.9,70.6l5.7,0.3c0,0,6.5-33.6,20.5-71.5L155.6,256.7z"/>
			<path class="st18" d="M159.2,197.1c0,0-3.6,13.9,5.5,13.9l-0.5,3.6l6.9,0.8l-1.5-5c0,0,1.4-8.7,1.5-10.3
				C171.2,197.1,163,191.9,159.2,197.1z"/>
			<g>
				
					<rect x="134" y="181.5" transform="matrix(1 -1.973264e-03 1.973264e-03 1 -0.3691 0.2675)" class="st16" width="2.7" height="11.3"/>
				<path class="st7" d="M143.1,181.5l-15.4,0c-1.1,0-2-0.9-2-1.9l0-0.4c0-1.1,0.9-2,2-2l15.4,0c1.1,0,2,0.9,2,1.9l0,0.4
					C145,180.6,144.1,181.5,143.1,181.5z"/>
			</g>
			<path class="st18" d="M133.3,195.8c-0.1-2.6-2.2-1.9-1-6.1c0.7-2.6,6.1,0.4,5.4,2.2c-0.7,1.8-1.4,4.6-1.4,4.6L133.3,195.8z"/>
			<path class="st7" d="M164.8,213.7c-13.6,0.9-14.5,5.5-20.6,4.8c-9-1.1-7.4-17.8-6.3-23.8l-5.4,0c0,0-9.7,38.2,21,31.1
				c-1.2,6.7,6.5,17.6-0.9,30.9c11.7,3.2,22.5,3.9,31.8-0.1c-1.6-2.2,3.3-24.4-6.4-40.4C176,213.1,165.8,213.6,164.8,213.7z"/>
			<path class="st7" d="M164.8,213.7c-13.6,0.9-14.5,5.5-20.6,4.8c-9-1.1-7.4-17.8-6.3-23.8l-5.4,0c0,0-9.7,38.2,21,31.1
				c-1.2,6.7,6.5,17.6-0.9,30.9c11.7,3.2,22.5,3.9,31.8-0.1c-1.6-2.2,3.3-24.4-6.4-40.4C176,213.1,165.8,213.6,164.8,213.7z"/>
			<path class="st17" d="M162.9,199.8c0.9,0.2,1.9,0.4,2.4,1.2c0.3,0.5,0.3,1.1,0.3,1.7c0.2-0.6,0.8-1,1.5-1
				c0.6,0.1,1.2,0.6,1.2,1.3c0,0.3-0.1,0.6-0.2,0.8c-0.3,0.7-0.6,1.3-1,1.9c1.1,0.4,2,3.7,2.6,4.7c1.9-0.5,6-2.1,6.4-8.7
				c0.2-3.1-0.8-6.8-4.1-8.8c-2.4-1.5-6.3-1.5-9-0.8c-2.2,0.6-5.7,2.8-4.1,5.3C159.6,198.6,161.4,199.4,162.9,199.8z"/>
			<path class="st17" d="M174.6,195.5c1.3-0.4,2.9-0.2,3.6,0.9c0.6,0.8,0.5,1.9,0.7,2.9c0.1,0.5,0.3,1,0.6,1.3
				c0.4,0.4,1.1,0.5,1.7,0.5c1.5,0.1,3-0.1,4.4,0.1c1.4,0.2,2.9,1.1,3.3,2.4c0.2,0.7,0.1,1.6,0.4,2.3c0.4,1.1,1.6,1.7,2.6,2.4
				c2.2,1.4,4,3.2,5.4,5.3c0.8,1.3,1.5,2.8,1.6,4.4c0.1,1.6,1.2,3.6,0.9,5.2c-0.3,1.7-2,3.9-5.2,5c-5.6,1.8-7.4,2.6-12.7-0.6
				c-0.6-0.4-1.9-1.7-2.5-2.2c-0.5-0.4-0.8-0.9-0.9-1.5c-0.4-1.5,0.1-3.2,0.9-4.6s1.9-2.6,2.7-4c0.5-0.8,0.9-1.8,0.8-2.7
				c0-0.4-0.1-0.7-0.4-1c-0.2-0.2-0.6-0.3-0.9-0.4c-1.2-0.2-2.5,0-3.5-0.5c-1-0.5-1.6-1.8-1.3-2.8c0.2-0.7,0.8-1.3,0.9-2.1
				c0.2-1.1-0.4-2.1-1.4-2.8c-0.9-0.6-2.1-0.9-3.2-1c-0.5-0.1-1.1-0.2-1.6-0.5c-0.5-0.4-0.8-1.1-0.8-1.7
				C170.9,197.7,172.6,196.2,174.6,195.5z"/>
		</g>
		<g>
			<g>
				<path class="st17" d="M173.6,201.1c6.7,1.5-1.8,7.8,1.8,10.9c1,0.9,2.2,0.6,3.4,0.8c4.6,0.6,2.1,3.7,1.8,6.2
					c0,0.4,0.6,0.4,0.6,0.1c0.4-1.7,1.9-3.7,1.1-5.5c-0.7-1.6-2.4-1.4-3.9-1.4c-1.8-0.1-3.8,0-3.1-3.6c0.1-0.8,0.8-1.6,1.1-2.3
					c0.4-0.9,0.6-1.7,0.4-2.6c-0.3-1.6-1.7-2.5-3.2-2.8C173.4,200.7,173.3,201.1,173.6,201.1L173.6,201.1z"/>
			</g>
		</g>
		<g>
			<g>
				<path class="st17" d="M159.7,192.9c5.2-2.6,10.4-2.1,14.8,1.8c0.3,0.3,0.7-0.1,0.4-0.4c-3.9-4.3-10.7-5.1-15.4-1.6
					C159.4,192.7,159.5,193,159.7,192.9L159.7,192.9z"/>
			</g>
		</g>
		<g>
			<polygon class="st18" points="334.3,209.2 332.1,213.7 337.6,216 338.2,210.7 			"/>
			<path class="st18" d="M337.6,194.4c-12.5,5.4-7.4,18.6,0.2,17.1c3.7-0.8,5.6-12.7,5.6-12.7L337.6,194.4z"/>
			<path class="st11" d="M341.8,192.6c-0.4-0.8-0.8-1.6-1.5-2.1c-0.7-0.5-1.7-0.7-2.4-0.1c-0.8,0.8-0.3,2.2,0.5,3
				c-0.7,0.1-1.6-0.4-2.1,0.1c-0.4,0.4-0.3,1.1,0,1.6c0.6,1.2,1.5,2.2,2.6,2.9c-0.6,0.4-1.4,1.1-1,1.7c0.1,0.2,0.3,0.3,0.4,0.5
				c0.2,0.4,0,0.9-0.2,1.3c-0.4,0.7-0.8,1.3-1.3,1.9c0.4-0.6,1.5-0.3,1.8,0.3c0.3,0.7,0,1.5-0.4,2c-0.3,0.3-0.6,0.6-1,0.6
				c-0.3,0.1-1.9,4.8-0.7,5.7c1.5,1.1,6.4,0.1,7.1-1.1c0.7,0.8,1.8,1.4,2.8,1.2c1-0.2,1.8-1.5,1.3-2.4c1.1,0.4,2.5,0,3.3-0.9
				c0.8-0.9,0.9-2.3,0.3-3.4c0.6-0.2,0.7-1,0.6-1.6c-0.3-1.3-1.3-2.3-2.6-2.7c0.6,0,1.1-0.6,1.2-1.3c0-0.6-0.3-1.2-0.7-1.7
				c-1.2-1.4-2.6-1.8-4.3-2.1C343.5,195.8,342.6,194,341.8,192.6z"/>
			<path class="st16" d="M330.1,326.3c0,0-7.3,3.5-8.3,4.6c0,0,14.4,0.6,15.5,0c1.1-0.7-2.3-4.6-2.3-4.6L330.1,326.3z"/>
			<path class="st16" d="M357.3,322.3c0,0-6.4,4.9-7.2,6.2c0,0,15.2-2.3,15.2-3.2c0-1-3.2-4-3.2-4L357.3,322.3z"/>
			<path class="st21" d="M337.2,258.5c-0.3,1.5-10.3,41,18.4,64.7l8.3-1.9c0,0-9.7-9.1-14.2-25.3c-4.3-15.4-0.9-16.9,1.7-25.4
				c2.9-9.4,0.7-16.2,0.7-16.2L337.2,258.5z"/>
			<path class="st17" d="M323.5,258.4c-4.5,10.8-12.3,47.8,4.7,68.6l8.5,0c0,0-6.7-7.3-7.4-24.3c-0.7-17,3.6-24.4,6.6-30.1
				c3-5.6,5.9-15.1,5.9-15.1L323.5,258.4z"/>
			<path class="st14" d="M317.5,191.1c-2.3,7.9-3,22.6,8.3,28.5l7.6-1.8c0,0-13.6-7.1-10.7-25.2L317.5,191.1z"/>
			<path class="st7" d="M296.7,187.1l5.9-0.7c0,0-0.7,24.6,27.7,26.7c21.7,1.6,23.4,42.3,23.4,42.3c-7,4.7-18.7,6.1-33.8,5.1
				c0,0,1-29.1-1.4-37C318.5,223.4,294.8,216,296.7,187.1z"/>
			<path class="st18" d="M289.5,182.6c-1,1.2,3.2,2.6,7.2,4.5l5.1-0.6c0,0,0.1-1,0-2.1c-0.1-1.1-0.6-1.7-1.2-0.8
				c-0.6,0.9-3.2,1.2-4.4,0.4C294.9,183.1,290.5,181.5,289.5,182.6z"/>
			<path class="st18" d="M317.5,191.1c-1.9-1.9-1.4-1.7-1.4-1.7l5.8,1.3c0,0,1.3-2.8,2.3-2.9c1.1-0.1-0.8,1.9-0.4,2.7
				c0.4,0.7-1.2,2.2-1.2,2.2L317.5,191.1z"/>
		</g>
		<g>
			<g>
				<path class="st11" d="M345,195.3c1.2,0.3,2.4,0.4,3.4,1.2c1,0.8,1.4,2.2,0.7,3.3c-0.3,0.5,0.5,0.9,0.8,0.5
					c0.9-1.2,0.7-2.8-0.2-3.9c-1-1.3-3-1.8-4.6-1.6C344.8,194.8,344.7,195.2,345,195.3L345,195.3z"/>
			</g>
		</g>
		<g>
			<g>
				<path class="st11" d="M350.2,205.9c0.8,0.5,1.4,1.2,1.1,2.2c-0.3,0.9-1.2,1.4-1.9,1.9c-0.4,0.2,0,0.8,0.3,0.6
					c1.1-0.6,2.2-1.4,2.4-2.7c0.1-1.1-0.6-2-1.6-2.5C350.2,205.2,349.9,205.7,350.2,205.9L350.2,205.9z"/>
			</g>
		</g>
		<g>
			<g>
				<path class="st11" d="M337.1,211.9c2.7,1.6,6.4,1.4,8.6-0.9c0.3-0.3-0.1-0.8-0.4-0.6c-2.4,1.8-5.1,2.3-7.9,1.1
					C337.1,211.4,336.8,211.7,337.1,211.9L337.1,211.9z"/>
			</g>
		</g>
		<g>
			<g>
				<path class="st11" d="M350.6,197c1.5,1.4,0,3.4-1,4.7c-0.2,0.3,0.1,0.6,0.4,0.4c0.9-0.8,1.7-1.7,1.9-3c0.1-0.9-0.3-1.8-1.1-2.3
					C350.6,196.8,350.5,196.9,350.6,197L350.6,197z"/>
			</g>
		</g>
	</g>
	<g>
		<polygon class="st14" points="181.4,14.3 179.1,8.6 201.7,0 		"/>
		<polygon class="st3" points="182.6,10.8 201.7,0 188.4,13.5 		"/>
		<polygon class="st3" points="173.9,6.3 201.7,0 179.1,8.6 		"/>
		<polygon class="st7" points="182.6,10.8 181.4,14.3 184.9,11.9 		"/>
	</g>
	<path class="st13" d="M178.8,13.6c-5.9-1-13.9,5-10.5,11.2c1.2,2.1,7.2,1.2,6.8-1.1c-0.2-1.1-1.6-1.6-2.7-1.5
		c-6.6,0.8-6.9,6.3-6.6,7.7c1.5,7.3,12.7,4.8,16.4,3.8"/>
</g>
</svg>
