<?xml version="1.0"?>
<svg xmlns="http://www.w3.org/2000/svg" id="Capa_1" enable-background="new 0 0 512 512" height="512px" viewBox="0 0 512 512" width="512px"><g><g><path d="m504.518 203.02c-4.633-2.682-10.342-2.694-14.982-.03l-99.536 57.11v-14.1c0-30.327-24.673-55-55-55h-6.596c19.483-19.073 31.596-45.646 31.596-75 0-57.897-47.103-105-105-105-48.531 0-89.47 33.098-101.448 77.904-13.094-11.152-30.045-17.904-48.552-17.904-41.355 0-75 33.645-75 75 0 17.239 5.861 33.126 15.675 45.807-25.899 4.444-45.675 27.045-45.675 54.193v200c0 30.327 24.673 55 55 55h280c30.327 0 55-24.673 55-55v-14.1l99.535 57.11c2.312 1.327 4.888 1.989 7.465 1.989 2.597 0 5.193-.673 7.518-2.02 4.631-2.682 7.482-7.629 7.482-12.98v-259.999c0-5.352-2.852-10.298-7.482-12.98zm-249.518-162.02c41.355 0 75 33.645 75 75s-33.645 75-75 75-75-33.645-75-75 33.645-75 75-75zm-73.404 150h-16.637c2.594-3.447 4.882-7.133 6.859-11.003 3.002 3.893 6.27 7.569 9.778 11.003zm-76.596-90c24.813 0 45 20.187 45 45s-20.187 45-45 45-45-20.187-45-45 20.187-45 45-45zm255 345c0 13.785-11.215 25-25 25h-280c-13.785 0-25-11.215-25-25v-200c0-13.785 11.215-25 25-25h280c13.785 0 25 11.215 25 25zm122 4.1-92-52.787v-102.626l92-52.787z" data-original="#000000" class="active-path" data-old_color="#000000" fill="#FFFFFF"/><circle cx="105" cy="146" r="15" data-original="#000000" class="active-path" data-old_color="#000000" fill="#FFFFFF"/><circle cx="255" cy="76" r="15" data-original="#000000" class="active-path" data-old_color="#000000" fill="#FFFFFF"/><circle cx="255" cy="156" r="15" data-original="#000000" class="active-path" data-old_color="#000000" fill="#FFFFFF"/><circle cx="215" cy="116" r="15" data-original="#000000" class="active-path" data-old_color="#000000" fill="#FFFFFF"/><circle cx="295" cy="116" r="15" data-original="#000000" class="active-path" data-old_color="#000000" fill="#FFFFFF"/><path d="m285 251c-24.813 0-45 20.187-45 45s20.187 45 45 45 45-20.187 45-45-20.187-45-45-45zm0 60c-8.271 0-15-6.729-15-15s6.729-15 15-15 15 6.729 15 15-6.729 15-15 15z" data-original="#000000" class="active-path" data-old_color="#000000" fill="#FFFFFF"/><path d="m210 326v-60c0-8.284-6.716-15-15-15h-120c-8.284 0-15 6.716-15 15v60c0 8.284 6.716 15 15 15h120c8.284 0 15-6.716 15-15zm-30-15h-90v-30h90z" data-original="#000000" class="active-path" data-old_color="#000000" fill="#FFFFFF"/><path d="m315 411h-100c-8.284 0-15 6.716-15 15s6.716 15 15 15h100c8.284 0 15-6.716 15-15s-6.716-15-15-15z" data-original="#000000" class="active-path" data-old_color="#000000" fill="#FFFFFF"/></g></g> </svg>
