<?xml version="1.0" encoding="utf-8"?>
<!-- Generator: Adobe Illustrator 21.0.2, SVG Export Plug-In . SVG Version: 6.00 Build 0)  -->
<svg version="1.1" id="Layer_1" xmlns="http://www.w3.org/2000/svg" xmlns:xlink="http://www.w3.org/1999/xlink" x="0px" y="0px"
	 viewBox="0 0 234.5 233.2" style="enable-background:new 0 0 234.5 233.2;" xml:space="preserve">
<style type="text/css">
	.st0{opacity:0.4;}
	.st1{fill:#FFFFFF;}
	.st2{opacity:0.2;fill:#FFFFFF;}
	.st3{fill:#F4767A;}
	.st4{fill:#ED5561;}
	.st5{fill:#BBCEE1;}
	.st6{fill:#D8395A;}
	.st7{fill:#933E31;}
	.st8{fill:#1C75BC;}
	.st9{fill:#9D4D36;}
	.st10{fill:#A7BCCE;}
	.st11{fill:#2A87C6;}
	.st12{fill:#E8EBF5;}
	.st13{fill:#0F4463;}
	.st14{fill:#0B3B56;}
	.st15{fill:#1F5E77;}
	.st16{fill:#07304B;}
	.st17{fill:url(#SVGID_1_);}
	.st18{fill:#FED4BD;}
	.st19{fill:#F4C5A2;}
	.st20{fill:#DE495A;}
	.st21{fill:#EF4136;}
	.st22{fill:#91A6B7;}
	.st23{fill:#79FF68;}
	.st24{fill:#50E85E;}
	.st25{fill:#3CC743;}
	.st26{fill:#9263C1;}
	.st27{fill:#8444B2;}
	.st28{fill:#7231A3;}
	.st29{fill:#FFA8E1;}
	.st30{fill:#FF7AD2;}
	.st31{fill:#DE64C6;}
	.st32{fill:#FCEC32;}
	.st33{fill:#F5D012;}
	.st34{fill:#EAA10C;}
	.st35{fill:#EDF0F8;}
	.st36{fill:#F0CEC9;}
	.st37{fill:#FFFBF0;}
	.st38{fill:#F5DDD8;}
	.st39{fill:#DFBAB8;}
</style>
<g>
	<g class="st0">
		<g>
			<polygon class="st1" points="112.8,28.5 112.8,29.6 117.3,32.2 117.3,31.1 			"/>
			<polygon class="st1" points="112.8,30.5 112.8,31.5 117.3,34.1 117.3,33.1 			"/>
			<polygon class="st1" points="112.8,32.4 112.8,33.5 117.3,36.1 117.3,35 			"/>
			<polygon class="st1" points="146.8,55 146.8,54 119,37.9 119,39 			"/>
			<polygon class="st1" points="112.8,34.4 112.8,35.4 117.3,38 117.3,37 			"/>
			<polygon class="st1" points="112.8,36.3 112.8,37.4 117.3,40 117.3,38.9 			"/>
			<polygon class="st1" points="146.8,57 146.8,55.9 119,39.9 119,41 			"/>
			<polygon class="st1" points="112.8,42.2 112.8,43.3 117.3,45.9 117.3,44.8 			"/>
			<polygon class="st1" points="112.8,44.2 112.8,45.2 117.3,47.8 117.3,46.7 			"/>
			<polygon class="st1" points="112.8,52 112.8,53 117.3,55.6 117.3,54.6 			"/>
			<polygon class="st1" points="112.8,53.9 112.8,55 117.3,57.6 117.3,56.5 			"/>
			<g>
				<polygon class="st1" points="136.5,67.6 119,57.5 119,58.6 136.5,68.7 				"/>
				<polygon class="st1" points="137.4,68.1 137.4,69.2 146.8,74.6 146.8,73.5 				"/>
			</g>
			<g>
				<polygon class="st1" points="127.8,60.6 119,55.5 119,56.6 127.8,61.7 				"/>
				<polygon class="st1" points="128.7,61.1 128.7,62.2 146.8,72.6 146.8,71.6 				"/>
			</g>
			<polygon class="st1" points="144.4,64.3 144.4,65.4 146.8,66.8 146.8,65.7 			"/>
			<polygon class="st1" points="131.5,54.9 119,47.7 119,48.8 131.5,56 			"/>
			<polygon class="st1" points="126.4,36.3 119,32.1 119,33.1 126.4,37.4 			"/>
			<g>
				<polygon class="st1" points="138.4,43.3 127.3,36.9 127.3,37.9 138.4,44.4 				"/>
			</g>
			<polygon class="st1" points="131.9,41.5 124.1,37 124.1,38 131.9,42.6 			"/>
			<g>
				<polygon class="st1" points="140.2,46.2 132.9,42 132.9,43.1 140.2,47.3 				"/>
				<polygon class="st1" points="141.1,46.8 141.1,47.8 146.8,51.1 146.8,50 				"/>
			</g>
			<polygon class="st1" points="120.5,36.8 120.5,37.9 126.4,41.3 126.4,40.2 			"/>
			<polygon class="st1" points="144.5,50.7 127.3,40.8 127.3,41.8 144.5,51.7 			"/>
			<polygon class="st1" points="134.6,50.9 123.4,44.4 123.4,45.5 134.6,51.9 			"/>
			<polygon class="st1" points="144.5,56.5 135.6,51.4 135.6,52.5 144.5,57.6 			"/>
			<g>
				<polygon class="st1" points="143.5,61.8 132.4,55.4 132.4,56.5 143.5,62.9 				"/>
			</g>
			<polygon class="st1" points="137.4,60.3 137.4,61.4 143.5,64.9 143.5,63.8 			"/>
			<polygon class="st1" points="121.2,50.9 119,49.7 119,50.7 121.2,52 			"/>
			<g>
				<polygon class="st1" points="125.3,53.3 125.3,54.3 136.5,60.8 136.5,59.8 				"/>
				<polygon class="st1" points="124.3,52.7 122.1,51.5 122.1,52.5 124.3,53.8 				"/>
			</g>
			<polygon class="st1" points="134.4,60.5 122.1,53.4 122.1,54.5 134.4,61.6 			"/>
		</g>
	</g>
	<g class="st0">
		<polygon class="st1" points="136.8,10.8 118.2,0 118.2,0.9 136.8,11.7 		"/>
		<polygon class="st1" points="118.2,2.8 146.8,19.4 146.8,18.4 118.2,1.9 		"/>
		<polygon class="st1" points="138.1,11.5 138.1,12.4 146.8,17.5 146.8,16.5 		"/>
		<polygon class="st1" points="136.8,14.4 118.2,3.6 118.2,4.6 136.8,15.4 		"/>
		<polygon class="st1" points="118.2,6.4 146.8,23 146.8,22 118.2,5.5 		"/>
		<polygon class="st1" points="138.1,16.1 146.8,21.1 146.8,20.2 138.1,15.1 		"/>
		<polygon class="st1" points="136.8,20.4 118.2,9.6 118.2,10.6 136.8,21.4 		"/>
		<polygon class="st1" points="118.2,12.4 146.8,29 146.8,28 118.2,11.5 		"/>
		<polygon class="st1" points="138.1,22.1 146.8,27.1 146.8,26.2 138.1,21.1 		"/>
		<polygon class="st1" points="136.8,24.1 118.2,13.3 118.2,14.2 136.8,25 		"/>
		<polygon class="st1" points="118.2,16.1 146.8,32.6 146.8,31.7 118.2,15.1 		"/>
		<polygon class="st1" points="138.1,25.7 146.8,30.8 146.8,29.8 138.1,24.8 		"/>
		<polygon class="st1" points="136.8,30.1 118.2,19.3 118.2,20.2 136.8,31 		"/>
		<polygon class="st1" points="118.2,22.1 146.8,38.6 146.8,37.7 118.2,21.1 		"/>
		<polygon class="st1" points="138.1,31.7 146.8,36.8 146.8,35.8 138.1,30.8 		"/>
		<polygon class="st1" points="136.8,33.7 118.2,22.9 118.2,23.9 136.8,34.6 		"/>
		<polygon class="st1" points="118.2,25.7 146.8,42.3 146.8,41.3 118.2,24.8 		"/>
		<polygon class="st1" points="138.1,35.4 146.8,40.4 146.8,39.4 138.1,34.4 		"/>
	</g>
	<path class="st2" d="M86.5,24.4l-13.9-8C71.9,16,71,16.4,71,17.2v16.7c0,0.8,0.4,1.6,1.1,2l13.9,8.1c0.7,0.4,1.6-0.1,1.6-0.9
		l0-16.6C87.7,25.6,87.2,24.8,86.5,24.4z"/>
	<g>
		<g>
			<g>
				<path class="st3" d="M80.3,38.5L62.1,27.9c-0.6-0.3-1.2-0.3-1.8,0.1l0,0l-4,2.3l1.9,2.5l0.7,0.8v18.1c0,1.1,0.6,2.1,1.5,2.6
					L74,62.3l0.1,0.8l2.8,3.9l4.3-2.5c0,0,0,0,0,0l0,0v0c0.4-0.2,0.7-0.7,0.7-1.2l0-22C81.9,40.1,81.3,39,80.3,38.5z"/>
				<path class="st4" d="M76.1,41L57.6,30.3c-0.9-0.5-2,0.1-2,1.2v22.1c0,1.1,0.6,2.1,1.5,2.6l18.5,10.7c0.9,0.5,2.1-0.1,2.1-1.2
					l0-22C77.6,42.6,77,41.5,76.1,41z"/>
			</g>
		</g>
		<g>
			<path class="st5" d="M76.9,66.9L76.9,66.9L76.9,66.9C76.9,66.9,76.9,66.9,76.9,66.9z"/>
			<path class="st6" d="M77.6,65.7l0-22c0-0.4-0.1-0.7-0.2-1.1l4.3-2.5c0.1,0.3,0.2,0.7,0.2,1l0,22c0,0.5-0.3,0.9-0.7,1.2v0l0,0
				c0,0,0,0,0,0l-4.3,2.5C77.3,66.7,77.6,66.2,77.6,65.7z"/>
		</g>
	</g>
	<g>
		<path class="st1" d="M59.9,40.9l-2.2-1.3l0,8.1l1.5,0.9l0-2.9l0.6,0.4c0.9,0.5,1.5,0.7,2,0.5c0.5-0.2,0.7-0.7,0.7-1.6
			c0-0.8-0.2-1.6-0.7-2.3C61.4,42,60.8,41.4,59.9,40.9z M60.7,44.8c-0.2,0.1-0.6,0-1-0.3l-0.5-0.3l0-2.4l0.7,0.4
			c0.4,0.2,0.7,0.5,0.9,0.8c0.2,0.3,0.3,0.7,0.3,1.1C61,44.5,60.9,44.8,60.7,44.8z"/>
		<polygon class="st1" points="67.8,48.6 65,47 65,43.8 63.5,43 63.5,51 65,51.9 65,48.4 67.7,50 67.7,53.5 69.2,54.4 69.3,46.3 
			67.8,45.4 		"/>
		<path class="st1" d="M74.8,50.1c-0.4-0.7-1.1-1.3-1.9-1.8l-2.2-1.3l0,8.1l1.5,0.9l0-2.9l0.6,0.4c0.9,0.5,1.5,0.7,2,0.5
			c0.5-0.2,0.7-0.7,0.7-1.6C75.5,51.6,75.3,50.8,74.8,50.1z M73.6,52.3c-0.2,0.1-0.6,0-1-0.3l-0.5-0.3l0-2.4l0.7,0.4
			c0.4,0.2,0.7,0.5,0.9,0.8c0.2,0.3,0.3,0.7,0.3,1.1C74,52,73.9,52.2,73.6,52.3z"/>
	</g>
	<g class="st0">
		<g>
			<polygon class="st1" points="37.2,39.3 37.2,40.4 41.7,43 41.7,41.9 			"/>
			<polygon class="st1" points="37.2,41.2 37.2,42.3 41.7,44.9 41.7,43.8 			"/>
			<polygon class="st1" points="37.2,43.2 37.2,44.3 41.7,46.9 41.7,45.8 			"/>
			<polygon class="st1" points="71.1,65.8 71.1,64.7 43.4,48.7 43.4,49.8 			"/>
			<polygon class="st1" points="37.2,45.2 37.2,46.2 41.7,48.8 41.7,47.8 			"/>
			<polygon class="st1" points="37.2,47.1 37.2,48.2 41.7,50.8 41.7,49.7 			"/>
			<polygon class="st1" points="71.1,67.8 71.1,66.7 43.4,50.7 43.4,51.8 			"/>
			<polygon class="st1" points="37.2,53 37.2,54.1 41.7,56.6 41.7,55.6 			"/>
			<polygon class="st1" points="37.2,54.9 37.2,56 41.7,58.6 41.7,57.5 			"/>
			<polygon class="st1" points="37.2,62.8 37.2,63.8 41.7,66.4 41.7,65.4 			"/>
			<polygon class="st1" points="37.2,64.7 37.2,65.8 41.7,68.4 41.7,67.3 			"/>
			<g>
				<polygon class="st1" points="60.9,78.4 43.4,68.3 43.4,69.4 60.9,79.4 				"/>
				<polygon class="st1" points="61.8,78.9 61.8,80 71.1,85.4 71.1,84.3 				"/>
			</g>
			<g>
				<polygon class="st1" points="52.2,71.4 43.4,66.3 43.4,67.4 52.2,72.5 				"/>
				<polygon class="st1" points="53.1,71.9 53.1,73 71.1,83.4 71.1,82.3 				"/>
			</g>
			<polygon class="st1" points="68.8,75.1 68.8,76.2 71.1,77.5 71.1,76.5 			"/>
			<polygon class="st1" points="55.8,65.7 43.4,58.5 43.4,59.6 55.8,66.8 			"/>
			<polygon class="st1" points="50.7,47.1 43.4,42.9 43.4,43.9 50.7,48.2 			"/>
			<g>
				<polygon class="st1" points="62.8,54.1 51.7,47.6 51.7,48.7 62.8,55.1 				"/>
			</g>
			<polygon class="st1" points="56.3,52.3 48.5,47.7 48.5,48.8 56.3,53.3 			"/>
			<g>
				<polygon class="st1" points="64.5,57 57.2,52.8 57.2,53.9 64.5,58.1 				"/>
				<polygon class="st1" points="65.5,57.6 65.5,58.6 71.1,61.9 71.1,60.8 				"/>
			</g>
			<polygon class="st1" points="44.8,47.6 44.8,48.7 50.7,52.1 50.7,51 			"/>
			<polygon class="st1" points="68.8,61.4 51.7,51.5 51.7,52.6 68.8,62.5 			"/>
			<polygon class="st1" points="59,61.6 47.8,55.2 47.8,56.2 59,62.7 			"/>
			<polygon class="st1" points="68.8,67.3 59.9,62.2 59.9,63.2 68.8,68.4 			"/>
			<g>
				<polygon class="st1" points="67.8,72.6 56.8,66.2 56.8,67.3 67.8,73.7 				"/>
			</g>
			<polygon class="st1" points="61.8,71.1 61.8,72.2 67.8,75.6 67.8,74.6 			"/>
			<polygon class="st1" points="45.5,61.7 43.4,60.5 43.4,61.5 45.5,62.8 			"/>
			<g>
				<polygon class="st1" points="49.6,64.1 49.6,65.1 60.9,71.6 60.9,70.6 				"/>
				<polygon class="st1" points="48.7,63.5 46.5,62.2 46.5,63.3 48.7,64.6 				"/>
			</g>
			<polygon class="st1" points="58.8,71.3 46.5,64.2 46.5,65.3 58.8,72.4 			"/>
		</g>
	</g>
	<path class="st2" d="M171.3,53.2l-13.9-8c-0.7-0.4-1.5,0.1-1.5,0.9v16.7c0,0.8,0.4,1.6,1.1,2l13.9,8.1c0.7,0.4,1.6-0.1,1.6-0.9
		l0-16.6C172.5,54.4,172,53.6,171.3,53.2z"/>
	<path class="st2" d="M190.3,21l-13.9-8c-0.7-0.4-1.5,0.1-1.5,0.9v16.7c0,0.8,0.4,1.6,1.1,2l13.9,8.1c0.7,0.4,1.6-0.1,1.6-0.9
		l0-16.6C191.5,22.2,191,21.4,190.3,21z"/>
	<path class="st2" d="M233.3,108.2l-13.9-8c-0.7-0.4-1.5,0.1-1.5,0.9v16.7c0,0.8,0.4,1.6,1.1,2l13.9,8.1c0.7,0.4,1.6-0.1,1.6-0.9
		l0-16.6C234.5,109.4,234,108.6,233.3,108.2z"/>
	<path class="st2" d="M112.1,67.1l-13.9-8c-0.7-0.4-1.5,0.1-1.5,0.9v16.7c0,0.8,0.4,1.6,1.1,2l13.9,8.1c0.7,0.4,1.6-0.1,1.6-0.9
		l0-16.6C113.2,68.3,112.8,67.6,112.1,67.1z"/>
	<path class="st7" d="M59.6,204.2c-3.7,0-2.5-2.8-2.5-2.8c-5.5-1.7-8.2-0.7-8.2-0.7c-1.4,4.8-0.8,7.8-0.9,8.9c0,0.6,0.4,0.9,0.9,1.1
		c3,1.1,5.6,1.8,11.1,1.3c4-0.4,8.3-4.1,7.4-8C66.9,201.6,63.4,204.1,59.6,204.2z"/>
	<path class="st8" d="M58.1,169.4c-1.1-1.4-2.9-2.6-6-1.8L19,174l1.2,8.5c0,0,5.1,6.7,13.9,4.1c8.9-2.5,14.6-6.7,14.6-6.7l-1.1,23.4
		c0,0,5.2,1.6,9.8-1.2c0.8-0.5,1.5-23.1,1.7-28.9C59.2,171.7,59,170.7,58.1,169.4z"/>
	<path class="st9" d="M75.5,210.9c-3.8,0-2.6-2.9-2.6-2.9c-5.7-1.7-8.5-0.8-8.5-0.8c-1.4,5-0.9,8.1-0.9,9.3c0,0.6,0.4,1,1,1.2
		c3.1,1.1,5.9,1.9,11.6,1.3c4.2-0.4,8.6-4.3,7.6-8.3C83.1,208.3,79.4,210.9,75.5,210.9z"/>
	<g>
		<polygon class="st5" points="37.9,201.6 9.6,185.2 9.6,189.2 37.9,205.6 		"/>
		<polygon class="st1" points="35.3,170.4 9.6,185.2 37.9,201.6 63.8,186.8 		"/>
		<polygon class="st10" points="63.8,186.8 37.9,201.6 37.9,205.6 63.8,190.6 		"/>
	</g>
	<path class="st11" d="M73.9,174.8c-1.1-1.5-3.1-2.7-6.3-1.9l-34.3,6.6l1.3,8.8c0,0,5.3,6.9,14.5,4.3c9.2-2.6,15.2-6.9,15.2-6.9
		l-1.2,24.3c0,0,5.4,1.7,10.2-1.2c0.8-0.5,1.6-23.9,1.8-30C75.1,177.3,74.9,176.2,73.9,174.8z"/>
	<g>
		<path class="st12" d="M12.5,125.2l58.6-34c2.5-1.4,5.5-1.4,8,0l92.3,53.4c2.4,1.4,2.4,4.8,0,6.1L114.2,184c-3,1.7-6.6,1.7-9.5,0
			l-92.1-53.3C10.4,129.5,10.4,126.4,12.5,125.2z"/>
		<path class="st10" d="M12.5,130.7l92.1,53.3c3,1.7,6.6,1.7,9.5,0l57.3-33.3c1.2-0.7,1.8-1.9,1.8-3v4.4c0,0,0,0,0,0v0.1l0,0
			c0,1.2-0.6,2.3-1.8,3l-57.3,33.3c-3,1.7-6.6,1.7-9.5,0l-92.1-53.3c-1.1-0.6-1.6-1.7-1.6-2.8l0,0v-4.4
			C10.9,129,11.5,130.1,12.5,130.7z"/>
		<path class="st5" d="M12.5,130.7l92.1,53.3c1.4,0.8,2.9,1.2,4.4,1.3v4.4c-1.5-0.1-3-0.5-4.4-1.3l-92.1-53.3
			c-1.1-0.6-1.6-1.7-1.6-2.8l0,0v-4.4C10.9,129,11.5,130.1,12.5,130.7z"/>
	</g>
	<g>
		<g>
			<g>
				<path class="st13" d="M55.8,137.5l9.9-5.8c0.5-0.3,1-0.3,1.5,0L98,149.5c0.4,0.3,0.4,0.9,0,1.2l-9.7,5.6c-0.6,0.3-1.2,0.3-1.8,0
					l-30.7-17.7C55.4,138.3,55.4,137.7,55.8,137.5z"/>
				<path class="st14" d="M55.8,138.5l30.7,17.7c0.6,0.3,1.2,0.3,1.8,0l9.7-5.6c0.2-0.1,0.3-0.4,0.3-0.6v1.2c0,0,0,0,0,0v0l0,0
					c0,0.2-0.1,0.4-0.3,0.6l-9.7,5.6c-0.6,0.3-1.2,0.3-1.8,0l-30.7-17.7c-0.2-0.1-0.3-0.3-0.3-0.5h0V138
					C55.5,138.2,55.6,138.4,55.8,138.5z"/>
			</g>
			<g>
				<polygon class="st15" points="65.7,133.3 66.9,132.6 68.3,133.4 67.1,134.2 				"/>
				<polygon class="st15" points="67.4,134.4 68.7,133.6 70.1,134.5 68.9,135.2 				"/>
				<polygon class="st15" points="69.2,135.4 70.4,134.7 71.9,135.5 70.6,136.2 				"/>
				<polygon class="st15" points="71,136.4 72.2,135.7 73.6,136.5 72.4,137.2 				"/>
				<polygon class="st15" points="72.7,137.4 74,136.7 75.4,137.5 74.1,138.2 				"/>
				<polygon class="st15" points="74.5,138.4 75.7,137.7 77.2,138.5 75.9,139.2 				"/>
				<polygon class="st15" points="76.3,139.4 77.5,138.7 78.9,139.5 77.7,140.3 				"/>
				<polygon class="st15" points="78,140.5 79.3,139.7 80.7,140.6 79.4,141.3 				"/>
				<polygon class="st15" points="79.8,141.5 81,140.8 82.5,141.6 81.2,142.3 				"/>
				<polygon class="st15" points="81.6,142.5 82.8,141.8 84.2,142.6 83,143.3 				"/>
				<polygon class="st15" points="83.3,143.5 84.6,142.8 86,143.6 84.7,144.3 				"/>
				<polygon class="st15" points="85.1,144.5 86.3,143.8 87.8,144.6 86.5,145.3 				"/>
				<polygon class="st15" points="88.1,144.8 89.5,145.6 88.3,146.4 86.9,145.5 				"/>
				<polygon class="st15" points="65.5,135.1 64.1,134.3 65.3,133.6 66.7,134.4 				"/>
				<polygon class="st15" points="68.5,135.4 67.2,136.1 65.8,135.3 67.1,134.6 				"/>
				<polygon class="st15" points="70.2,136.4 69,137.1 67.6,136.3 68.8,135.6 				"/>
				<polygon class="st15" points="72,137.4 70.8,138.1 69.4,137.3 70.6,136.6 				"/>
				<polygon class="st15" points="73.8,138.4 72.5,139.2 71.1,138.3 72.4,137.6 				"/>
				<polygon class="st15" points="75.5,139.5 74.3,140.2 72.9,139.4 74.1,138.6 				"/>
				<polygon class="st15" points="77.3,140.5 76.1,141.2 74.7,140.4 75.9,139.7 				"/>
				<polygon class="st15" points="79.1,141.5 77.8,142.2 76.4,141.4 77.7,140.7 				"/>
				<polygon class="st15" points="80.8,142.5 79.6,143.2 78.2,142.4 79.4,141.7 				"/>
				<polygon class="st15" points="82.6,143.5 81.4,144.2 79.9,143.4 81.2,142.7 				"/>
				<polygon class="st15" points="84.4,144.5 83.1,145.3 81.7,144.4 83,143.7 				"/>
				<polygon class="st15" points="86.1,145.6 84.9,146.3 83.5,145.5 84.7,144.7 				"/>
				<polygon class="st15" points="86.5,145.8 87.9,146.6 86.7,147.3 85.2,146.5 				"/>
				<polygon class="st15" points="63.9,136 62.4,135.2 63.7,134.5 65.1,135.3 				"/>
				<polygon class="st15" points="66.9,136.3 65.6,137 64.2,136.2 65.5,135.5 				"/>
				<polygon class="st15" points="66,137.3 67.2,136.5 68.6,137.3 67.4,138.1 				"/>
				<polygon class="st15" points="70.4,138.4 69.2,139.1 67.7,138.3 69,137.5 				"/>
				<polygon class="st15" points="72.2,139.4 70.9,140.1 69.5,139.3 70.8,138.6 				"/>
				<polygon class="st15" points="73.9,140.4 72.7,141.1 71.3,140.3 72.5,139.6 				"/>
				<polygon class="st15" points="75.7,141.4 74.5,142.1 73,141.3 74.3,140.6 				"/>
				<polygon class="st15" points="77.5,142.4 76.2,143.1 74.8,142.3 76,141.6 				"/>
				<polygon class="st15" points="79.2,143.4 78,144.2 76.6,143.3 77.8,142.6 				"/>
				<polygon class="st15" points="81,144.5 79.8,145.2 78.3,144.4 79.6,143.6 				"/>
				<polygon class="st15" points="82.8,145.5 81.5,146.2 80.1,145.4 81.3,144.7 				"/>
				<polygon class="st15" points="81.9,146.4 83.1,145.7 84.5,146.5 83.3,147.2 				"/>
				<polygon class="st15" points="84.9,146.7 86.3,147.5 85.1,148.2 83.6,147.4 				"/>
				<polygon class="st15" points="62.3,137 60.8,136.2 62.1,135.4 63.5,136.2 				"/>
				<polygon class="st15" points="62.6,137.2 63.8,136.4 65.3,137.3 64,138 				"/>
				<polygon class="st15" points="64.4,138.2 65.6,137.5 67,138.3 65.8,139 				"/>
				<polygon class="st15" points="66.1,139.2 67.4,138.5 68.8,139.3 67.5,140 				"/>
				<polygon class="st15" points="67.9,140.2 69.1,139.5 70.6,140.3 69.3,141 				"/>
				<polygon class="st15" points="69.7,141.2 70.9,140.5 72.3,141.3 71.1,142 				"/>
				<polygon class="st15" points="71.4,142.2 72.7,141.5 74.1,142.3 72.8,143.1 				"/>
				<polygon class="st15" points="73.2,143.3 74.4,142.5 75.9,143.4 74.6,144.1 				"/>
				<polygon class="st15" points="75,144.3 76.2,143.6 77.6,144.4 76.4,145.1 				"/>
				<polygon class="st15" points="76.7,145.3 78,144.6 79.4,145.4 78.1,146.1 				"/>
				<polygon class="st15" points="78.5,146.3 79.7,145.6 81.2,146.4 79.9,147.1 				"/>
				<polygon class="st15" points="80.3,147.3 81.5,146.6 82.9,147.4 81.7,148.1 				"/>
				<polygon class="st15" points="83.3,147.6 84.7,148.4 83.4,149.2 82,148.3 				"/>
				<polygon class="st15" points="60.6,137.9 59.2,137.1 60.5,136.4 61.9,137.2 				"/>
				<polygon class="st15" points="61,138.1 62.2,137.4 63.6,138.2 62.4,138.9 				"/>
				<polygon class="st15" points="62.8,139.1 64,138.4 65.4,139.2 64.2,139.9 				"/>
				<polygon class="st15" points="64.5,140.1 65.8,139.4 67.2,140.2 65.9,140.9 				"/>
				<polygon class="st15" points="66.3,141.2 67.5,140.4 68.9,141.2 67.7,142 				"/>
				<polygon class="st15" points="68,142.2 69.3,141.4 70.7,142.3 69.5,143 				"/>
				<polygon class="st15" points="69.8,143.2 71.1,142.5 72.5,143.3 71.2,144 				"/>
				<polygon class="st15" points="71.6,144.2 72.8,143.5 74.2,144.3 73,145 				"/>
				<polygon class="st15" points="73.3,145.2 74.6,144.5 76,145.3 74.8,146 				"/>
				<polygon class="st15" points="75.1,146.2 76.4,145.5 77.8,146.3 76.5,147 				"/>
				<polygon class="st15" points="76.9,147.2 78.1,146.5 79.5,147.3 78.3,148.1 				"/>
				<polygon class="st15" points="78.6,148.3 79.9,147.5 81.3,148.4 80.1,149.1 				"/>
				<polygon class="st15" points="81.7,148.6 83.1,149.4 81.8,150.1 80.4,149.3 				"/>
				<polygon class="st15" points="58.9,137.3 60.3,138.1 59,138.8 57.6,138 				"/>
				<polygon class="st15" points="62,139.1 60.8,139.8 59.4,139 60.6,138.3 				"/>
				<polygon class="st15" points="63.8,140.1 62.6,140.9 61.1,140.1 62.4,139.3 				"/>
				<polygon class="st15" points="65.6,141.2 64.3,141.9 62.9,141.1 64.2,140.3 				"/>
				<polygon class="st15" points="67.3,142.2 66.1,142.9 64.7,142.1 65.9,141.4 				"/>
				<polygon class="st15" points="69.1,143.2 67.9,143.9 66.4,143.1 67.7,142.4 				"/>
				<polygon class="st15" points="69.4,143.4 71.2,144.4 71.2,144.4 71.6,144.6 73,145.4 73,145.4 73.7,145.8 74.7,146.4 
					74.7,146.4 75.9,147.1 77.9,148.3 76.7,149 74.5,147.8 73.5,147.2 73.5,147.2 72.4,146.5 71.7,146.2 71.7,146.1 70.3,145.3 
					70,145.1 70,145.1 68.2,144.1 				"/>
				<polygon class="st15" points="79.7,149.3 78.5,150 77,149.2 78.3,148.5 				"/>
				<polygon class="st15" points="81.5,150.3 80.2,151 78.8,150.2 80,149.5 				"/>
			</g>
			<g>
				<polygon class="st15" points="90.4,147.6 91.6,146.9 93,147.7 91.8,148.4 				"/>
				<polygon class="st15" points="92.2,148.6 93.4,147.9 94.8,148.7 93.6,149.4 				"/>
				<polygon class="st15" points="93.9,149.6 95.2,148.9 96.6,149.7 95.3,150.4 				"/>
				<polygon class="st15" points="91.4,148.6 90.2,149.3 88.8,148.5 90,147.8 				"/>
				<polygon class="st15" points="93.2,149.6 92,150.3 90.5,149.5 91.8,148.8 				"/>
				<polygon class="st15" points="95,150.6 93.7,151.4 92.3,150.5 93.6,149.8 				"/>
				<polygon class="st15" points="89.8,149.5 88.6,150.3 87.2,149.4 88.4,148.7 				"/>
				<polygon class="st15" points="91.6,150.6 90.4,151.3 88.9,150.5 90.2,149.7 				"/>
				<polygon class="st15" points="93.4,151.6 92.1,152.3 90.7,151.5 91.9,150.8 				"/>
				<polygon class="st15" points="85.6,150.4 86.8,149.7 88.2,150.5 87,151.2 				"/>
				<polygon class="st15" points="87.3,151.4 88.6,150.7 90,151.5 88.7,152.2 				"/>
				<polygon class="st15" points="89.1,152.4 90.3,151.7 91.7,152.5 90.5,153.2 				"/>
				<polygon class="st15" points="83.9,151.3 85.2,150.6 86.6,151.4 85.4,152.1 				"/>
				<polygon class="st15" points="85.7,152.3 87,151.6 88.4,152.4 87.1,153.1 				"/>
				<polygon class="st15" points="87.5,153.3 88.7,152.6 90.1,153.4 88.9,154.2 				"/>
				<polygon class="st15" points="85,152.3 83.7,153.1 82.3,152.2 83.6,151.5 				"/>
				<polygon class="st15" points="86.8,153.4 85.5,154.1 84.1,153.3 85.3,152.5 				"/>
			</g>
		</g>
		<g>
			<path class="st15" d="M77.9,127.9l9.8-5.7c0.4-0.2,0.9-0.2,1.3,0l23.2,13.4c0.4,0.2,0.4,0.8,0,1l-9.6,5.6c-0.5,0.3-1.1,0.3-1.6,0
				l-23.2-13.4C77.6,128.7,77.6,128.1,77.9,127.9z"/>
			<path class="st16" d="M77.9,128.9l23.2,13.4c0.5,0.3,1.1,0.3,1.6,0l9.6-5.6c0.2-0.1,0.3-0.3,0.3-0.5v1.2c0,0,0,0,0,0v0l0,0
				c0,0.2-0.1,0.4-0.3,0.5l-9.6,5.6c-0.5,0.3-1.1,0.3-1.6,0l-23.2-13.4c-0.2-0.1-0.3-0.3-0.3-0.5l0,0v-1.2
				C77.6,128.6,77.7,128.8,77.9,128.9z"/>
			<path class="st14" d="M77.9,128.9l23.2,13.4c0.2,0.1,0.5,0.2,0.7,0.2v1.2c-0.3,0-0.5-0.1-0.7-0.2l-23.2-13.4
				c-0.2-0.1-0.3-0.3-0.3-0.5l0,0v-1.2C77.6,128.6,77.7,128.8,77.9,128.9z"/>
		</g>
		<g>
			<polygon class="st13" points="103.3,128.8 85.2,118.4 85.2,127.3 103.3,137.8 			"/>
			<polygon class="st16" points="87.8,117 85.2,118.4 103.3,128.8 105.8,127.4 			"/>
			<polygon class="st16" points="105.8,127.4 103.3,128.8 103.3,137.8 105.8,136.3 			"/>
		</g>
		<g>
			<g>
				<linearGradient id="SVGID_1_" gradientUnits="userSpaceOnUse" x1="87.3029" y1="132.4386" x2="104.5654" y2="75.6396">
					<stop  offset="0" style="stop-color:#1C75BC"/>
					<stop  offset="0.2787" style="stop-color:#2077BC"/>
					<stop  offset="0.5411" style="stop-color:#2B7EBC"/>
					<stop  offset="0.7962" style="stop-color:#3E88BC"/>
					<stop  offset="1" style="stop-color:#5394BC"/>
				</linearGradient>
				<polygon class="st17" points="67,72.9 121.9,104.7 121.9,145.1 67,113.1 				"/>
				<polygon class="st16" points="121.9,104.7 123.7,103.6 123.7,144 121.9,145.1 				"/>
				<polygon class="st15" points="67,72.9 68.9,71.8 123.7,103.6 121.9,104.7 				"/>
			</g>
			<path class="st14" d="M67,72.9v40.2l54.9,31.9l0-40.4L67,72.9z M120.6,142.8l-52.3-30.4V75.1l52.3,30.3L120.6,142.8z"/>
		</g>
	</g>
	
		<ellipse transform="matrix(9.815928e-02 -0.9952 0.9952 9.815928e-02 -86.832 147.9683)" class="st18" cx="38.2" cy="121.9" rx="10.5" ry="8.5"/>
	<path class="st19" d="M53.7,136.2c0,0,2,0.5,2.7,0.6c0.7,0.1,3.4,0.6,4.5,0.3s-1-1.1-1.5-1.4c-0.5-0.4-0.5-1.3,0.6-1.7
		c1.1-0.3,3.6-0.2,4.9-0.4c1.3-0.2-1.3-4.2-3.5-4.6c-2.1-0.4-4-0.1-5.9,0.8c-1.8,0.9-2.8,2.4-3.7,2.7L53.7,136.2z"/>
	<path class="st4" d="M53.9,130.7L40,134.2l-0.7,8.8l16.4-5.6C56.1,134.3,53.9,130.7,53.9,130.7z"/>
	<path class="st4" d="M19.6,134.5c0,0-3.8,4.8,0,11.5c0,0,2.7,3.7,10.1,0.1L19.6,134.5z"/>
	<path class="st20" d="M31,128.8c0,0,6-0.4,10.7,2.9c0,0,0.3,1,1.3,1.6c0.9,0.6,5.6,2.5,5.6,2.5s-2.1,27.4,0.3,40.7
		c0,0-10.1,7.9-26,0c0,0-2.3-33.6-3.3-42C19.6,134.5,22.3,131.2,31,128.8z"/>
	<g>
		<polygon class="st5" points="28.4,174 0,157.6 9.6,185.3 37.9,201.6 		"/>
		<polygon class="st1" points="3.1,155.8 0,157.6 28.4,174 31.5,172.1 		"/>
		<polygon class="st10" points="31.5,172.1 28.4,174 37.9,201.6 41.1,199.8 		"/>
	</g>
	<path class="st19" d="M72.4,148.3c0,0,1.5-1.6,2.1-2c0.6-0.4,2.7-2.4,3.8-2.7c1.2-0.3-0.8,1.8-1.1,2.4c-0.2,0.6,1.2-0.5,2.3-0.9
		c1.1-0.4,2.4-0.3,3.7,0.1c2.7,1,2.6,6.3,0.4,5.7c-3.6-1-5.2,1.8-7.4,2.4c-1.5,0.4-2.1,0.4-3.1,0.6L72.4,148.3z"/>
	<path class="st4" d="M48.6,135.8l11.7,15.6l12.2-3.6c0,0,2.6,3.3,1.8,6.8L58,160.9l-13.2-14.6C44.8,146.3,40.4,137.1,48.6,135.8z"
		/>
	<path class="st9" d="M42.1,106.5c0,0,0.9,2.2-3.4,2.8c-4.3,0.6-9.7,2.7-11.1,7.3c-0.9,2.9,0.1,6,1.6,8.6c0.5,0.9,1.1,1.7,1.7,2.5
		c0,0,2.9,0.8,6.4-1.1c0,0,2.1-1.4,3.4-4.2c0,0,2.6,1.1,3.4-1.1c0.6-1.6,2.4-2,3.5-2.8C47.5,118.5,53.4,109,42.1,106.5z"/>
	<g>
		<polygon class="st5" points="203.1,189.3 184.3,178.4 184.3,185.5 203.1,196.3 		"/>
		<polygon class="st1" points="203.8,167.3 184.3,178.4 203.1,189.3 222.6,178.2 		"/>
		<polygon class="st10" points="222.6,178.2 203.1,189.3 203.1,196.3 222.6,185.1 		"/>
	</g>
	<g>
		<polygon class="st5" points="203.1,177.8 184.3,166.9 184.3,174 203.1,184.8 		"/>
		<polygon class="st1" points="203.8,155.8 184.3,166.9 203.1,177.8 222.6,166.7 		"/>
		<polygon class="st10" points="222.6,166.7 203.1,177.8 203.1,184.8 222.6,173.6 		"/>
	</g>
	<g>
		<polygon class="st5" points="171.3,207.8 152.5,196.8 152.5,203.9 171.3,214.8 		"/>
		<polygon class="st1" points="172,185.7 152.5,196.8 171.3,207.8 190.8,196.6 		"/>
		<polygon class="st10" points="190.8,196.6 171.3,207.8 171.3,214.8 190.8,203.5 		"/>
	</g>
	<g>
		<polygon class="st5" points="171.3,196.3 152.5,185.3 152.5,192.4 171.3,203.3 		"/>
		<polygon class="st1" points="172,174.2 152.5,185.3 171.3,196.3 190.8,185.1 		"/>
		<polygon class="st10" points="190.8,185.1 171.3,196.3 171.3,203.3 190.8,192 		"/>
	</g>
	<g>
		<polygon class="st5" points="139.5,226.2 120.7,215.3 120.7,222.3 139.5,233.2 		"/>
		<polygon class="st1" points="140.2,204.1 120.7,215.3 139.5,226.2 159,215 		"/>
		<polygon class="st10" points="159,215 139.5,226.2 139.5,233.2 159,221.9 		"/>
	</g>
	<g>
		<polygon class="st5" points="139.5,214.7 120.7,203.8 120.7,210.8 139.5,221.7 		"/>
		<polygon class="st1" points="140.2,192.6 120.7,203.8 139.5,214.7 159,203.5 		"/>
		<polygon class="st10" points="159,203.5 139.5,214.7 139.5,221.7 159,210.4 		"/>
	</g>
	<g>
		<path class="st8" d="M145.4,207.8l-1.2-0.7c-0.9,0.3-1.8,0.6-2.8,0.7l0,1l-2.9,0l0-1c-1-0.1-1.9-0.3-2.8-0.7l-1.2,0.7l-2-1.2
			l1.2-0.7c-0.6-0.5-1-1-1.2-1.6l-1.7,0l0-1.7l1.7,0c0.2-0.6,0.6-1.1,1.1-1.6l-1.2-0.7l2-1.2l1.2,0.7c0.9-0.3,1.8-0.6,2.8-0.7l0-1
			h2.9l0,1c1,0.1,1.9,0.3,2.8,0.7l1.2-0.7l2,1.2l-1.2,0.7c0.6,0.5,1,1,1.2,1.6l1.7,0l0,1.7l-1.7,0c-0.2,0.6-0.6,1.1-1.1,1.6l1.2,0.7
			L145.4,207.8z M137.4,205c1.5,0.9,3.9,0.9,5.3,0c1.5-0.9,1.5-2.2,0-3.1c-1.5-0.9-3.9-0.9-5.3,0C135.9,202.8,135.9,204.2,137.4,205
			"/>
	</g>
	<polygon class="st21" points="173.4,180.2 175.2,184.1 177.1,188 170.3,187 163.6,186 168.5,183.1 	"/>
	<g>
		<path class="st22" d="M196.4,165.8c-1-0.6-0.6-1.4,1.4-2.6c0.9-0.5,1.8-0.9,2.6-1c0.8-0.2,1.4-0.1,1.8,0.2
			c0.2,0.1,0.4,0.3,0.5,0.5c0.1,0.2,0.2,0.3,0.2,0.5l1.8-0.4c-0.1-0.3-0.3-0.6-0.5-0.8c-0.2-0.2-0.4-0.4-0.8-0.6
			c-0.9-0.5-2-0.7-3.3-0.6c-1.3,0.1-2.6,0.6-4,1.4c-1.4,0.8-2.2,1.5-2.4,2.3c-0.2,0.7,0.1,1.4,1.1,1.9c0.6,0.4,1.3,0.6,2,0.7
			l1.4-0.8C197.5,166.3,196.9,166.1,196.4,165.8z"/>
		<path class="st22" d="M204.9,168c0.2-0.3,0.2-0.8,0-1.3c-0.1-0.4-0.2-0.7-0.1-0.9c0-0.2,0.2-0.4,0.5-0.6s0.6-0.3,0.9-0.3
			c0.3,0,0.6,0,0.8,0.2c0.2,0.1,0.4,0.3,0.5,0.4c0.1,0.2,0.2,0.3,0.3,0.5l1.8-0.4c-0.2-0.6-0.7-1-1.3-1.4c-0.7-0.4-1.4-0.6-2.2-0.6
			c-0.8,0-1.6,0.2-2.3,0.6c-0.4,0.2-0.7,0.4-0.8,0.7c-0.2,0.2-0.3,0.5-0.3,0.7c0,0.2,0,0.5,0.1,0.9c0.1,0.4,0.2,0.7,0.1,1
			c0,0.2-0.2,0.4-0.5,0.6c-0.3,0.2-0.6,0.2-0.9,0.3c-0.3,0-0.6-0.1-0.9-0.2c-0.5-0.3-0.9-0.8-1.1-1.4l-1.5,0.9
			c0.2,0.5,0.7,0.9,1.4,1.3c0.7,0.4,1.5,0.6,2.3,0.6c0.8,0,1.6-0.2,2.4-0.7C204.4,168.6,204.7,168.3,204.9,168z"/>
		<path class="st22" d="M213,167c-0.7-0.4-1.4-0.6-2.2-0.6c-0.8,0-1.6,0.2-2.3,0.6c-0.4,0.2-0.7,0.4-0.8,0.7
			c-0.2,0.2-0.3,0.5-0.3,0.7c0,0.2,0,0.5,0.1,0.9c0.1,0.4,0.2,0.7,0.1,1c0,0.2-0.2,0.4-0.5,0.6c-0.3,0.2-0.6,0.2-0.9,0.3
			c-0.3,0-0.6-0.1-0.9-0.2c-0.5-0.3-0.9-0.8-1.1-1.4l-1.5,0.9c0.2,0.5,0.7,0.9,1.4,1.3c0.7,0.4,1.5,0.6,2.3,0.6
			c0.8,0,1.6-0.2,2.4-0.7c0.5-0.3,0.8-0.6,1-0.9c0.2-0.3,0.2-0.8,0-1.3c-0.1-0.4-0.2-0.7-0.1-0.9c0-0.2,0.2-0.4,0.5-0.6
			c0.3-0.2,0.6-0.3,0.9-0.3c0.3,0,0.6,0,0.8,0.2c0.2,0.1,0.4,0.3,0.5,0.4c0.1,0.2,0.2,0.3,0.3,0.5l1.8-0.4
			C214.1,167.9,213.7,167.4,213,167z"/>
	</g>
	<g>
		<g>
			<g>
				<path class="st23" d="M202.7,104.2l-18.3-10.5c-0.6-0.3-1.2-0.3-1.8,0.1l0,0l-4,2.3l1.9,2.5l0.7,0.8v18.1c0,1.1,0.6,2.1,1.5,2.6
					l13.7,7.9l0.1,0.8l2.8,3.9l4.3-2.5c0,0,0,0,0,0l0,0v0c0.4-0.2,0.7-0.7,0.7-1.2l0-22C204.3,105.8,203.7,104.8,202.7,104.2z"/>
				<path class="st24" d="M198.5,106.7L180,96.1c-0.9-0.5-2,0.1-2,1.2v22.1c0,1.1,0.6,2.1,1.5,2.6l18.5,10.7
					c0.9,0.5,2.1-0.1,2.1-1.2l0-22C200,108.3,199.4,107.3,198.5,106.7z"/>
			</g>
		</g>
		<g>
			<path class="st5" d="M199.3,132.7L199.3,132.7L199.3,132.7C199.3,132.7,199.3,132.7,199.3,132.7z"/>
			<path class="st25" d="M200,131.5l0-22c0-0.4-0.1-0.7-0.2-1.1l4.3-2.5c0.1,0.3,0.2,0.7,0.2,1l0,22c0,0.5-0.3,0.9-0.7,1.2v0l0,0
				c0,0,0,0,0,0l-4.3,2.5C199.7,132.4,200,132,200,131.5z"/>
		</g>
	</g>
	<g>
		<g>
			<g>
				<path class="st26" d="M223.6,60.2l-18.3-10.5c-0.6-0.3-1.2-0.3-1.8,0.1l0,0l-4,2.3l1.9,2.5l0.7,0.8v18.1c0,1.1,0.6,2.1,1.5,2.6
					l13.7,7.9l0.1,0.8l2.8,3.9l4.3-2.5c0,0,0,0,0,0l0,0v0c0.4-0.2,0.7-0.7,0.7-1.2l0-22C225.2,61.8,224.6,60.8,223.6,60.2z"/>
				<path class="st27" d="M219.4,62.7l-18.5-10.7c-0.9-0.5-2,0.1-2,1.2v22.1c0,1.1,0.6,2.1,1.5,2.6l18.5,10.7
					c0.9,0.5,2.1-0.1,2.1-1.2l0-22C220.9,64.3,220.3,63.3,219.4,62.7z"/>
			</g>
		</g>
		<g>
			<path class="st5" d="M220.2,88.7L220.2,88.7L220.2,88.7C220.2,88.7,220.2,88.7,220.2,88.7z"/>
			<path class="st28" d="M220.9,87.5l0-22c0-0.4-0.1-0.7-0.2-1.1l4.3-2.5c0.1,0.3,0.2,0.7,0.2,1l0,22c0,0.5-0.3,0.9-0.7,1.2v0l0,0
				c0,0,0,0,0,0l-4.3,2.5C220.6,88.4,220.9,88,220.9,87.5z"/>
		</g>
	</g>
	<g>
		<g>
			<g>
				<path class="st29" d="M162.6,60.6L144.3,50c-0.6-0.3-1.2-0.3-1.8,0.1l0,0l-4,2.3l1.9,2.5l0.7,0.8v18.1c0,1.1,0.6,2.1,1.5,2.6
					l13.7,7.9l0.1,0.8l2.8,3.9l4.3-2.5c0,0,0,0,0,0l0,0v0c0.4-0.2,0.7-0.7,0.7-1.2l0-22C164.1,62.1,163.5,61.1,162.6,60.6z"/>
				<path class="st30" d="M158.3,63.1l-18.5-10.7c-0.9-0.5-2,0.1-2,1.2v22.1c0,1.1,0.6,2.1,1.5,2.6L157.8,89
					c0.9,0.5,2.1-0.1,2.1-1.2l0-22C159.8,64.6,159.2,63.6,158.3,63.1z"/>
			</g>
		</g>
		<g>
			<path class="st5" d="M159.1,89L159.1,89L159.1,89C159.1,89,159.1,89,159.1,89z"/>
			<path class="st31" d="M159.8,87.8l0-22c0-0.4-0.1-0.7-0.2-1.1l4.3-2.5c0.1,0.3,0.2,0.7,0.2,1l0,22c0,0.5-0.3,0.9-0.7,1.2v0l0,0
				c0,0,0,0,0,0l-4.3,2.5C159.6,88.7,159.8,88.3,159.8,87.8z"/>
		</g>
	</g>
	<g>
		<g>
			<g>
				<path class="st32" d="M122.6,17.9L104.3,7.4c-0.6-0.3-1.2-0.3-1.8,0.1l0,0l-4,2.3l1.9,2.5l0.7,0.8v18.1c0,1.1,0.6,2.1,1.5,2.6
					l13.7,7.9l0.1,0.8l2.8,3.9l4.3-2.5c0,0,0,0,0,0l0,0v0c0.4-0.2,0.7-0.7,0.7-1.2l0-22C124.1,19.5,123.5,18.4,122.6,17.9z"/>
				<path class="st33" d="M118.3,20.4L99.8,9.7c-0.9-0.5-2,0.1-2,1.2V33c0,1.1,0.6,2.1,1.5,2.6l18.5,10.7c0.9,0.5,2.1-0.1,2.1-1.2
					l0-22C119.8,22,119.3,21,118.3,20.4z"/>
			</g>
		</g>
		<g>
			<path class="st5" d="M119.2,46.3L119.2,46.3L119.2,46.3C119.1,46.3,119.1,46.3,119.2,46.3z"/>
			<path class="st34" d="M119.8,45.1l0-22c0-0.4-0.1-0.7-0.2-1.1l4.3-2.5c0.1,0.3,0.2,0.7,0.2,1l0,22c0,0.5-0.3,0.9-0.7,1.2v0l0,0
				c0,0,0,0,0,0l-4.3,2.5C119.6,46.1,119.8,45.7,119.8,45.1z"/>
		</g>
	</g>
	<path class="st1" d="M154.6,67.4c-1.1-1.9-2.6-3.4-4.1-4.3c-1.5-0.9-2.9-1.1-4.1-0.4c-2,1.1-2.2,4.6-0.7,8l-5,2.9l1.5,2.5l5-2.9
		c1,1.3,2.1,2.4,3.3,3.1c1.5,0.8,2.9,1.1,4.1,0.4C156.9,75.5,156.9,71.3,154.6,67.4z M153.2,74.2c-0.7,0.4-1.7,0.3-2.6-0.3
		c-0.9-0.5-1.9-1.5-2.6-2.7c-1.4-2.5-1.4-5.2,0-6c0.7-0.4,1.7-0.3,2.6,0.3c0.9,0.5,1.9,1.5,2.6,2.7
		C154.6,70.7,154.6,73.4,153.2,74.2z"/>
	<g>
		<path class="st27" d="M103.6,22.3c0.3,0.2,0.6,0.4,0.8,0.7c0.3,0.3,0.6,0.6,0.8,0.9l0.5-1.2c-0.7-0.8-1.5-1.5-2.2-1.9
			c-0.7-0.4-1.3-0.6-1.9-0.5c-0.5,0.1-0.9,0.3-1.2,0.8c-0.3,0.5-0.4,1.2-0.4,2.1c0,1.4,0.3,2.7,0.9,3.8c0.6,1.1,1.4,2,2.5,2.6
			c0.8,0.4,1.4,0.7,2.1,0.7l0-1.5c-0.8-0.1-1.4-0.3-1.9-0.6c-1.3-0.7-1.9-2-1.9-4c0-0.9,0.2-1.5,0.5-1.9
			C102.5,21.9,103,22,103.6,22.3z"/>
		<polygon class="st27" points="109.7,25.9 108.6,25.2 108.6,27.5 106.6,26.4 106.6,27.7 108.6,28.8 108.6,31.1 109.7,31.7 
			109.7,29.4 111.7,30.6 111.7,29.3 109.7,28.2 		"/>
		<polygon class="st27" points="115.7,31.6 115.7,29.3 114.6,28.7 114.6,31 112.6,29.8 112.6,31.1 114.6,32.3 114.6,34.5 
			115.7,35.2 115.7,32.9 117.7,34 117.7,32.8 		"/>
	</g>
	<g>
		<path class="st1" d="M204.9,61.3c-0.2,0.2-0.3,0.6-0.3,1.2l0,2.6l0,0.1c0,0.5-0.2,0.8-0.5,0.8c-0.3,0-0.8-0.1-1.4-0.5l0,1.8
			c0.6,0.3,1.1,0.7,1.4,1.1c0.3,0.4,0.5,0.9,0.5,1.4l0,2.6c0,0.6,0.1,1.1,0.3,1.6c0.2,0.4,0.5,0.9,0.9,1.3c0.4,0.4,1,0.8,1.8,1.3
			l0-1.7c-0.5-0.3-0.8-0.6-1-0.9c-0.2-0.3-0.3-0.6-0.3-1l0-2.5l0-0.1c0-1-0.5-1.9-1.7-2.7l0-0.1c1.1,0.4,1.6,0.1,1.7-0.9l0-2.5
			c0-0.4,0.1-0.6,0.3-0.7c0.2-0.1,0.5,0,1,0.3l0-1.7c-0.7-0.4-1.3-0.7-1.8-0.8C205.4,61.1,205.1,61.1,204.9,61.3z"/>
		<path class="st1" d="M215.2,72.5c-0.3-0.4-0.5-0.9-0.5-1.4l0-0.1l0-2.6c0-0.9-0.2-1.6-0.7-2.2c-0.5-0.6-1.2-1.2-2.4-1.9l0,1.7
			c0.5,0.3,0.8,0.6,1,0.9c0.2,0.3,0.3,0.6,0.3,1l0,2.5c0,1.1,0.6,2,1.7,2.8l0,0.1c-0.5-0.2-1-0.3-1.2-0.1c-0.3,0.1-0.4,0.5-0.4,1
			l0,0.1l0,2.5c0,0.4-0.1,0.7-0.3,0.7c-0.2,0.1-0.5,0-1-0.3l0,1.7c1.1,0.6,1.9,0.9,2.4,0.8c0.5-0.1,0.7-0.6,0.7-1.4l0-2.6
			c0-0.5,0.2-0.8,0.5-0.9c0.3,0,0.8,0.1,1.4,0.5l0-1.8C216,73.3,215.5,72.9,215.2,72.5z"/>
	</g>
	<g>
		<polygon class="st15" points="180.3,110.3 186,116.5 186,115 182.1,110.8 186,111 186,109.4 180.3,109.4 		"/>
		<polygon class="st15" points="186.6,118.2 188.2,119.2 191.4,111.3 189.8,110.3 		"/>
		<polygon class="st15" points="191.9,112.8 191.9,114.4 195.9,118.8 191.9,118.4 191.9,120 197.7,120.4 197.7,119.4 		"/>
	</g>
	<g>
		<g>
			<polygon class="st33" points="73.8,81.3 73.8,82.3 78.3,84.9 78.3,83.9 			"/>
			<polygon class="st35" points="73.8,83.2 73.8,84.3 78.3,86.9 78.3,85.8 			"/>
			<polygon class="st35" points="73.8,85.2 73.8,86.3 78.3,88.9 78.3,87.8 			"/>
			<polygon class="st35" points="107.8,107.8 107.8,106.7 80,90.7 80,91.8 			"/>
			<polygon class="st35" points="73.8,87.1 73.8,88.2 78.3,90.8 78.3,89.7 			"/>
			<polygon class="st35" points="73.8,89.1 73.8,90.2 78.3,92.8 78.3,91.7 			"/>
			<polygon class="st24" points="107.8,109.7 107.8,108.7 80,92.7 80,93.7 			"/>
			<polygon class="st35" points="73.8,95 73.8,96 78.3,98.6 78.3,97.6 			"/>
			<polygon class="st33" points="73.8,96.9 73.8,98 78.3,100.6 78.3,99.5 			"/>
			<polygon class="st35" points="73.8,104.7 73.8,105.8 78.3,108.4 78.3,107.3 			"/>
			<polygon class="st35" points="73.8,106.7 73.8,107.8 78.3,110.4 78.3,109.3 			"/>
			<g>
				<polygon class="st24" points="97.5,120.4 80,110.3 80,111.3 97.5,121.4 				"/>
				<polygon class="st35" points="98.4,120.9 98.4,122 107.8,127.3 107.8,126.3 				"/>
			</g>
			<g>
				<polygon class="st35" points="88.8,113.4 80,108.3 80,109.4 88.8,114.5 				"/>
				<polygon class="st35" points="89.7,113.9 89.7,115 107.8,125.4 107.8,124.3 				"/>
			</g>
			<polygon class="st35" points="105.4,117.1 105.4,118.2 107.8,119.5 107.8,118.4 			"/>
			<polygon class="st4" points="92.5,107.7 80,100.5 80,101.6 92.5,108.7 			"/>
			<polygon class="st35" points="87.4,89.1 80,84.8 80,85.9 87.4,90.2 			"/>
			<g>
				<polygon class="st35" points="99.4,96 88.3,89.6 88.3,90.7 99.4,97.1 				"/>
			</g>
			<polygon class="st35" points="92.9,94.3 85.1,89.7 85.1,90.8 92.9,95.3 			"/>
			<g>
				<polygon class="st4" points="101.2,99 93.9,94.8 93.9,95.9 101.2,100.1 				"/>
				<polygon class="st35" points="102.1,99.5 102.1,100.6 107.8,103.9 107.8,102.8 				"/>
			</g>
			<polygon class="st4" points="81.5,89.6 81.5,90.7 87.4,94.1 87.4,93 			"/>
			<polygon class="st35" points="105.5,103.4 88.3,93.5 88.3,94.6 105.5,104.5 			"/>
			<polygon class="st35" points="95.6,103.6 84.4,97.2 84.4,98.2 95.6,104.7 			"/>
			<polygon class="st35" points="105.5,109.3 96.6,104.2 96.6,105.2 105.5,110.4 			"/>
			<g>
				<polygon class="st35" points="104.5,114.6 93.4,108.2 93.4,109.3 104.5,115.7 				"/>
			</g>
			<polygon class="st24" points="98.4,113.1 98.4,114.1 104.5,117.6 104.5,116.5 			"/>
			<polygon class="st35" points="82.2,103.7 80,102.4 80,103.5 82.2,104.8 			"/>
			<g>
				<polygon class="st35" points="86.2,106 86.2,107.1 97.5,113.6 97.5,112.5 				"/>
				<polygon class="st35" points="85.3,105.5 83.1,104.2 83.1,105.3 85.3,106.6 				"/>
			</g>
			<polygon class="st35" points="95.4,113.3 83.1,106.2 83.1,107.3 95.4,114.4 			"/>
		</g>
		<g>
			<polygon class="st35" points="109.7,102 109.7,102.3 111,103 111,102.7 			"/>
			<polygon class="st35" points="109.7,102.5 109.7,102.8 111,103.5 111,103.2 			"/>
			<polygon class="st35" points="109.7,103.1 109.7,103.4 111,104.1 111,103.8 			"/>
			<polygon class="st35" points="119.1,109.3 119.1,109 111.4,104.6 111.4,104.9 			"/>
			<polygon class="st35" points="109.7,103.6 109.7,103.9 111,104.6 111,104.3 			"/>
			<polygon class="st35" points="109.7,104.1 109.7,104.4 111,105.2 111,104.9 			"/>
			<polygon class="st35" points="119.1,109.8 119.1,109.5 111.4,105.1 111.4,105.4 			"/>
			<polygon class="st35" points="109.7,105.8 109.7,106.1 111,106.8 111,106.5 			"/>
			<polygon class="st35" points="109.7,106.3 109.7,106.6 111,107.3 111,107 			"/>
			<polygon class="st35" points="109.7,108.5 109.7,108.8 111,109.5 111,109.2 			"/>
			<polygon class="st35" points="109.7,109 109.7,109.3 111,110 111,109.7 			"/>
			<g>
				<polygon class="st35" points="116.2,112.8 111.4,110 111.4,110.3 116.2,113.1 				"/>
				<polygon class="st35" points="116.5,112.9 116.5,113.2 119.1,114.7 119.1,114.4 				"/>
			</g>
			<g>
				<polygon class="st35" points="113.8,110.8 111.4,109.4 111.4,109.7 113.8,111.1 				"/>
				<polygon class="st35" points="114.1,111 114.1,111.3 119.1,114.1 119.1,113.8 				"/>
			</g>
			<polygon class="st35" points="118.4,111.9 118.4,112.2 119.1,112.5 119.1,112.2 			"/>
			<polygon class="st35" points="114.9,109.3 111.4,107.3 111.4,107.6 114.9,109.6 			"/>
			<polygon class="st35" points="113.5,104.1 111.4,103 111.4,103.3 113.5,104.4 			"/>
			<g>
				<polygon class="st35" points="116.8,106.1 113.7,104.3 113.7,104.6 116.8,106.4 				"/>
			</g>
			<polygon class="st35" points="115,105.6 112.8,104.3 112.8,104.6 115,105.9 			"/>
			<g>
				<polygon class="st35" points="117.3,106.9 115.2,105.7 115.2,106 117.3,107.2 				"/>
				<polygon class="st35" points="117.5,107 117.5,107.3 119.1,108.2 119.1,107.9 				"/>
			</g>
			<polygon class="st35" points="111.8,104.3 111.8,104.6 113.5,105.5 113.5,105.2 			"/>
			<polygon class="st35" points="118.4,108.1 113.7,105.4 113.7,105.7 118.4,108.4 			"/>
			<polygon class="st35" points="115.7,108.1 112.6,106.4 112.6,106.7 115.7,108.4 			"/>
			<polygon class="st35" points="118.4,109.7 116,108.3 116,108.6 118.4,110 			"/>
			<g>
				<polygon class="st35" points="118.2,111.2 115.1,109.4 115.1,109.7 118.2,111.5 				"/>
			</g>
			<polygon class="st35" points="116.5,110.8 116.5,111 118.2,112 118.2,111.7 			"/>
			<polygon class="st35" points="112,108.2 111.4,107.8 111.4,108.1 112,108.5 			"/>
			<g>
				<polygon class="st35" points="113.1,108.8 113.1,109.1 116.2,110.9 116.2,110.6 				"/>
				<polygon class="st35" points="112.9,108.7 112.3,108.3 112.3,108.6 112.9,109 				"/>
			</g>
			<polygon class="st35" points="115.7,110.8 112.3,108.9 112.3,109.1 115.7,111.1 			"/>
		</g>
		<g>
			<polygon class="st35" points="109.7,111.1 109.7,111.4 111,112.1 111,111.8 			"/>
			<polygon class="st35" points="109.7,111.6 109.7,111.9 111,112.7 111,112.4 			"/>
			<polygon class="st35" points="109.7,112.2 109.7,112.5 111,113.2 111,112.9 			"/>
			<polygon class="st35" points="119.1,118.4 119.1,118.1 111.4,113.7 111.4,114 			"/>
			<polygon class="st35" points="109.7,112.7 109.7,113 111,113.7 111,113.4 			"/>
			<polygon class="st35" points="109.7,113.3 109.7,113.6 111,114.3 111,114 			"/>
			<polygon class="st35" points="119.1,119 119.1,118.7 111.4,114.2 111.4,114.5 			"/>
			<polygon class="st35" points="109.7,114.9 109.7,115.2 111,115.9 111,115.6 			"/>
			<polygon class="st35" points="109.7,115.4 109.7,115.7 111,116.4 111,116.1 			"/>
			<polygon class="st35" points="109.7,117.6 109.7,117.9 111,118.6 111,118.3 			"/>
			<polygon class="st35" points="109.7,118.1 109.7,118.4 111,119.1 111,118.8 			"/>
			<g>
				<polygon class="st35" points="116.2,121.9 111.4,119.1 111.4,119.4 116.2,122.2 				"/>
				<polygon class="st35" points="116.5,122 116.5,122.3 119.1,123.8 119.1,123.5 				"/>
			</g>
			<g>
				<polygon class="st35" points="113.8,120 111.4,118.6 111.4,118.8 113.8,120.2 				"/>
				<polygon class="st35" points="114.1,120.1 114.1,120.4 119.1,123.3 119.1,123 				"/>
			</g>
			<polygon class="st35" points="118.4,121 118.4,121.3 119.1,121.6 119.1,121.3 			"/>
			<polygon class="st35" points="114.9,118.4 111.4,116.4 111.4,116.7 114.9,118.7 			"/>
			<polygon class="st35" points="113.5,113.3 111.4,112.1 111.4,112.4 113.5,113.6 			"/>
			<g>
				<polygon class="st35" points="116.8,115.2 113.7,113.4 113.7,113.7 116.8,115.5 				"/>
			</g>
			<polygon class="st35" points="115,114.7 112.8,113.4 112.8,113.7 115,115 			"/>
			<g>
				<polygon class="st35" points="117.3,116 115.2,114.8 115.2,115.1 117.3,116.3 				"/>
				<polygon class="st35" points="117.5,116.1 117.5,116.4 119.1,117.3 119.1,117 				"/>
			</g>
			<polygon class="st35" points="111.8,113.4 111.8,113.7 113.5,114.6 113.5,114.3 			"/>
			<polygon class="st35" points="118.4,117.2 113.7,114.5 113.7,114.8 118.4,117.5 			"/>
			<polygon class="st35" points="115.7,117.3 112.6,115.5 112.6,115.8 115.7,117.6 			"/>
			<polygon class="st35" points="118.4,118.8 116,117.4 116,117.7 118.4,119.1 			"/>
			<g>
				<polygon class="st35" points="118.2,120.3 115.1,118.5 115.1,118.8 118.2,120.6 				"/>
			</g>
			<polygon class="st35" points="116.5,119.9 116.5,120.2 118.2,121.1 118.2,120.8 			"/>
			<polygon class="st35" points="112,117.3 111.4,116.9 111.4,117.2 112,117.6 			"/>
			<g>
				<polygon class="st35" points="113.1,117.9 113.1,118.2 116.2,120 116.2,119.7 				"/>
				<polygon class="st35" points="112.9,117.8 112.3,117.4 112.3,117.7 112.9,118.1 				"/>
			</g>
			<polygon class="st35" points="115.7,119.9 112.3,118 112.3,118.3 115.7,120.2 			"/>
		</g>
		<g>
			<polygon class="st35" points="109.7,120.2 109.7,120.5 111,121.2 111,120.9 			"/>
			<polygon class="st35" points="109.7,120.8 109.7,121.1 111,121.8 111,121.5 			"/>
			<polygon class="st35" points="109.7,121.3 109.7,121.6 111,122.3 111,122 			"/>
			<polygon class="st35" points="119.1,127.5 119.1,127.2 111.4,122.8 111.4,123.1 			"/>
			<polygon class="st35" points="109.7,121.8 109.7,122.1 111,122.8 111,122.6 			"/>
			<polygon class="st35" points="109.7,122.4 109.7,122.7 111,123.4 111,123.1 			"/>
			<polygon class="st35" points="119.1,128.1 119.1,127.8 111.4,123.4 111.4,123.7 			"/>
			<polygon class="st35" points="109.7,124 109.7,124.3 111,125 111,124.7 			"/>
			<polygon class="st35" points="109.7,124.5 109.7,124.8 111,125.5 111,125.2 			"/>
			<polygon class="st35" points="109.7,126.7 109.7,127 111,127.7 111,127.4 			"/>
			<polygon class="st35" points="109.7,127.2 109.7,127.5 111,128.2 111,127.9 			"/>
			<g>
				<polygon class="st35" points="116.2,131 111.4,128.2 111.4,128.5 116.2,131.3 				"/>
				<polygon class="st35" points="116.5,131.1 116.5,131.4 119.1,132.9 119.1,132.6 				"/>
			</g>
			<g>
				<polygon class="st35" points="113.8,129.1 111.4,127.7 111.4,128 113.8,129.4 				"/>
				<polygon class="st35" points="114.1,129.2 114.1,129.5 119.1,132.4 119.1,132.1 				"/>
			</g>
			<polygon class="st35" points="118.4,130.1 118.4,130.4 119.1,130.8 119.1,130.5 			"/>
			<polygon class="st35" points="114.9,127.5 111.4,125.5 111.4,125.8 114.9,127.8 			"/>
			<polygon class="st35" points="113.5,122.4 111.4,121.2 111.4,121.5 113.5,122.7 			"/>
			<g>
				<polygon class="st35" points="116.8,124.3 113.7,122.5 113.7,122.8 116.8,124.6 				"/>
			</g>
			<polygon class="st35" points="115,123.8 112.8,122.6 112.8,122.8 115,124.1 			"/>
			<g>
				<polygon class="st35" points="117.3,125.1 115.2,123.9 115.2,124.2 117.3,125.4 				"/>
				<polygon class="st35" points="117.5,125.3 117.5,125.6 119.1,126.5 119.1,126.2 				"/>
			</g>
			<polygon class="st35" points="111.8,122.5 111.8,122.8 113.5,123.7 113.5,123.5 			"/>
			<polygon class="st35" points="118.4,126.3 113.7,123.6 113.7,123.9 118.4,126.6 			"/>
			<polygon class="st35" points="115.7,126.4 112.6,124.6 112.6,124.9 115.7,126.7 			"/>
			<polygon class="st35" points="118.4,127.9 116,126.5 116,126.8 118.4,128.2 			"/>
			<g>
				<polygon class="st35" points="118.2,129.4 115.1,127.6 115.1,127.9 118.2,129.7 				"/>
			</g>
			<polygon class="st35" points="116.5,129 116.5,129.3 118.2,130.2 118.2,129.9 			"/>
			<polygon class="st35" points="112,126.4 111.4,126.1 111.4,126.4 112,126.7 			"/>
			<g>
				<polygon class="st35" points="113.1,127 113.1,127.3 116.2,129.1 116.2,128.8 				"/>
				<polygon class="st35" points="112.9,126.9 112.3,126.5 112.3,126.8 112.9,127.2 				"/>
			</g>
			<polygon class="st35" points="115.7,129 112.3,127.1 112.3,127.4 115.7,129.3 			"/>
		</g>
		<g>
			<polygon class="st35" points="109.7,129.3 109.7,129.6 111,130.4 111,130.1 			"/>
			<polygon class="st35" points="109.7,129.9 109.7,130.2 111,130.9 111,130.6 			"/>
			<polygon class="st35" points="109.7,130.4 109.7,130.7 111,131.4 111,131.1 			"/>
			<polygon class="st35" points="119.1,136.6 119.1,136.4 111.4,131.9 111.4,132.2 			"/>
			<polygon class="st35" points="109.7,131 109.7,131.3 111,132 111,131.7 			"/>
			<polygon class="st35" points="109.7,131.5 109.7,131.8 111,132.5 111,132.2 			"/>
			<polygon class="st35" points="119.1,137.2 119.1,136.9 111.4,132.5 111.4,132.8 			"/>
			<polygon class="st35" points="109.7,133.1 109.7,133.4 111,134.1 111,133.8 			"/>
			<polygon class="st35" points="109.7,133.7 109.7,133.9 111,134.7 111,134.4 			"/>
			<polygon class="st35" points="118.4,139.2 118.4,139.5 119.1,139.9 119.1,139.6 			"/>
			<polygon class="st35" points="114.9,136.6 111.4,134.6 111.4,134.9 114.9,136.9 			"/>
			<polygon class="st35" points="113.5,131.5 111.4,130.3 111.4,130.6 113.5,131.8 			"/>
			<g>
				<polygon class="st35" points="116.8,133.4 113.7,131.6 113.7,131.9 116.8,133.7 				"/>
			</g>
			<polygon class="st35" points="115,132.9 112.8,131.7 112.8,132 115,133.2 			"/>
			<g>
				<polygon class="st35" points="117.3,134.2 115.2,133.1 115.2,133.4 117.3,134.5 				"/>
				<polygon class="st35" points="117.5,134.4 117.5,134.7 119.1,135.6 119.1,135.3 				"/>
			</g>
			<polygon class="st35" points="111.8,131.6 111.8,131.9 113.5,132.9 113.5,132.6 			"/>
			<polygon class="st35" points="118.4,135.4 113.7,132.7 113.7,133 118.4,135.7 			"/>
			<polygon class="st35" points="115.7,135.5 112.6,133.7 112.6,134 115.7,135.8 			"/>
			<polygon class="st35" points="118.4,137.1 116,135.6 116,135.9 118.4,137.4 			"/>
			<g>
				<polygon class="st35" points="118.2,138.5 115.1,136.8 115.1,137.1 118.2,138.8 				"/>
			</g>
			<polygon class="st35" points="116.5,138.1 116.5,138.4 118.2,139.4 118.2,139.1 			"/>
			<polygon class="st35" points="112,135.5 111.4,135.2 111.4,135.5 112,135.8 			"/>
			<g>
				<polygon class="st35" points="113.1,136.2 113.1,136.5 116.2,138.3 116.2,138 				"/>
				<polygon class="st35" points="112.9,136 112.3,135.7 112.3,136 112.9,136.3 				"/>
			</g>
			<polygon class="st35" points="115.7,138.2 112.3,136.2 112.3,136.5 115.7,138.5 			"/>
		</g>
		<g>
			<path class="st24" d="M70.9,79.6l-1.5-0.9c-0.1,0-0.2,0-0.2,0.1v1.8c0,0.1,0,0.2,0.1,0.2l1.5,0.9c0.1,0,0.2,0,0.2-0.1v-1.8
				C71.1,79.7,71,79.7,70.9,79.6z"/>
			<path class="st24" d="M70.9,82.3l-1.5-0.9c-0.1,0-0.2,0-0.2,0.1v1.8c0,0.1,0,0.2,0.1,0.2l1.5,0.9c0.1,0,0.2,0,0.2-0.1v-1.8
				C71.1,82.4,71,82.3,70.9,82.3z"/>
			<path class="st24" d="M70.9,84.9l-1.5-0.9c-0.1,0-0.2,0-0.2,0.1v1.8c0,0.1,0,0.2,0.1,0.2l1.5,0.9c0.1,0,0.2,0,0.2-0.1v-1.8
				C71.1,85,71,85,70.9,84.9z"/>
			<path class="st24" d="M70.9,87.6l-1.5-0.9c-0.1,0-0.2,0-0.2,0.1v1.8c0,0.1,0,0.2,0.1,0.2l1.5,0.9c0.1,0,0.2,0,0.2-0.1v-1.8
				C71.1,87.7,71,87.6,70.9,87.6z"/>
			<path class="st24" d="M70.9,90.2l-1.5-0.9c-0.1,0-0.2,0-0.2,0.1v1.8c0,0.1,0,0.2,0.1,0.2l1.5,0.9c0.1,0,0.2,0,0.2-0.1v-1.8
				C71.1,90.4,71,90.3,70.9,90.2z"/>
			<path class="st24" d="M70.9,92.9L69.5,92c-0.1,0-0.2,0-0.2,0.1v1.8c0,0.1,0,0.2,0.1,0.2l1.5,0.9c0.1,0,0.2,0,0.2-0.1v-1.8
				C71.1,93,71,92.9,70.9,92.9z"/>
			<path class="st24" d="M70.9,95.5l-1.5-0.9c-0.1,0-0.2,0-0.2,0.1v1.8c0,0.1,0,0.2,0.1,0.2l1.5,0.9c0.1,0,0.2,0,0.2-0.1v-1.8
				C71.1,95.7,71,95.6,70.9,95.5z"/>
			<path class="st24" d="M70.9,98.2l-1.5-0.9c-0.1,0-0.2,0-0.2,0.1v1.8c0,0.1,0,0.2,0.1,0.2l1.5,0.9c0.1,0,0.2,0,0.2-0.1v-1.8
				C71.1,98.3,71,98.2,70.9,98.2z"/>
			<path class="st24" d="M70.9,100.8l-1.5-0.9c-0.1,0-0.2,0-0.2,0.1v1.8c0,0.1,0,0.2,0.1,0.2l1.5,0.9c0.1,0,0.2,0,0.2-0.1v-1.8
				C71.1,101,71,100.9,70.9,100.8z"/>
			<path class="st24" d="M70.9,103.5l-1.5-0.9c-0.1,0-0.2,0-0.2,0.1v1.8c0,0.1,0,0.2,0.1,0.2l1.5,0.9c0.1,0,0.2,0,0.2-0.1v-1.8
				C71.1,103.6,71,103.5,70.9,103.5z"/>
			<path class="st24" d="M70.9,106.1l-1.5-0.9c-0.1,0-0.2,0-0.2,0.1v1.8c0,0.1,0,0.2,0.1,0.2l1.5,0.9c0.1,0,0.2,0,0.2-0.1v-1.8
				C71.1,106.3,71,106.2,70.9,106.1z"/>
			<path class="st24" d="M70.9,108.8l-1.5-0.9c-0.1,0-0.2,0-0.2,0.1v1.8c0,0.1,0,0.2,0.1,0.2l1.5,0.9c0.1,0,0.2,0,0.2-0.1V109
				C71.1,108.9,71,108.8,70.9,108.8z"/>
		</g>
	</g>
	<g class="st0">
		<g>
			<polygon class="st1" points="140.5,89 140.5,90.1 145,92.7 145,91.6 			"/>
			<polygon class="st1" points="140.5,91 140.5,92 145,94.6 145,93.6 			"/>
			<polygon class="st1" points="140.5,92.9 140.5,94 145,96.6 145,95.5 			"/>
			<polygon class="st1" points="174.5,115.5 174.5,114.5 146.7,98.4 146.7,99.5 			"/>
			<polygon class="st1" points="140.5,94.9 140.5,96 145,98.5 145,97.5 			"/>
			<polygon class="st1" points="140.5,96.8 140.5,97.9 145,100.5 145,99.4 			"/>
			<polygon class="st1" points="174.5,117.5 174.5,116.4 146.7,100.4 146.7,101.5 			"/>
			<polygon class="st1" points="140.5,102.7 140.5,103.8 145,106.4 145,105.3 			"/>
			<polygon class="st1" points="140.5,104.7 140.5,105.7 145,108.3 145,107.3 			"/>
			<polygon class="st1" points="140.5,112.5 140.5,113.6 145,116.1 145,115.1 			"/>
			<polygon class="st1" points="140.5,114.4 140.5,115.5 145,118.1 145,117 			"/>
			<g>
				<polygon class="st1" points="164.2,128.1 146.7,118 146.7,119.1 164.2,129.2 				"/>
				<polygon class="st1" points="165.2,128.6 165.2,129.7 174.5,135.1 174.5,134 				"/>
			</g>
			<g>
				<polygon class="st1" points="155.5,121.1 146.7,116 146.7,117.1 155.5,122.2 				"/>
				<polygon class="st1" points="156.4,121.7 156.4,122.7 174.5,133.1 174.5,132.1 				"/>
			</g>
			<polygon class="st1" points="172.1,124.8 172.1,125.9 174.5,127.3 174.5,126.2 			"/>
			<polygon class="st1" points="159.2,115.4 146.7,108.2 146.7,109.3 159.2,116.5 			"/>
			<polygon class="st1" points="154.1,96.8 146.7,92.6 146.7,93.7 154.1,97.9 			"/>
			<g>
				<polygon class="st1" points="166.2,103.8 155,97.4 155,98.4 166.2,104.9 				"/>
			</g>
			<polygon class="st1" points="159.7,102 151.8,97.5 151.8,98.5 159.7,103.1 			"/>
			<g>
				<polygon class="st1" points="167.9,106.7 160.6,102.5 160.6,103.6 167.9,107.8 				"/>
				<polygon class="st1" points="168.8,107.3 168.8,108.3 174.5,111.6 174.5,110.5 				"/>
			</g>
			<polygon class="st1" points="148.2,97.3 148.2,98.4 154.1,101.8 154.1,100.7 			"/>
			<polygon class="st1" points="172.2,111.2 155,101.3 155,102.3 172.2,112.2 			"/>
			<polygon class="st1" points="162.3,111.4 151.1,104.9 151.1,106 162.3,112.4 			"/>
			<polygon class="st1" points="172.2,117 163.3,111.9 163.3,113 172.2,118.1 			"/>
			<g>
				<polygon class="st1" points="171.2,122.3 160.1,116 160.1,117 171.2,123.4 				"/>
			</g>
			<polygon class="st1" points="165.2,120.8 165.2,121.9 171.2,125.4 171.2,124.3 			"/>
			<polygon class="st1" points="148.9,111.4 146.7,110.2 146.7,111.3 148.9,112.5 			"/>
			<g>
				<polygon class="st1" points="153,113.8 153,114.8 164.2,121.4 164.2,120.3 				"/>
				<polygon class="st1" points="152,113.2 149.8,112 149.8,113 152,114.3 				"/>
			</g>
			<polygon class="st1" points="162.2,121 149.8,113.9 149.8,115 162.2,122.1 			"/>
		</g>
	</g>
	<g class="st0">
		<g>
			<polygon class="st1" points="181.9,22 181.9,23.1 186.4,25.7 186.4,24.6 			"/>
			<polygon class="st1" points="181.9,24 181.9,25 186.4,27.6 186.4,26.5 			"/>
			<polygon class="st1" points="181.9,25.9 181.9,27 186.4,29.6 186.4,28.5 			"/>
			<polygon class="st1" points="215.8,48.5 215.8,47.4 188.1,31.4 188.1,32.5 			"/>
			<polygon class="st1" points="181.9,27.9 181.9,28.9 186.4,31.5 186.4,30.5 			"/>
			<polygon class="st1" points="181.9,29.8 181.9,30.9 186.4,33.5 186.4,32.4 			"/>
			<polygon class="st1" points="215.8,50.5 215.8,49.4 188.1,33.4 188.1,34.5 			"/>
			<polygon class="st1" points="181.9,35.7 181.9,36.8 186.4,39.4 186.4,38.3 			"/>
			<polygon class="st1" points="181.9,37.6 181.9,38.7 186.4,41.3 186.4,40.2 			"/>
			<polygon class="st1" points="181.9,45.5 181.9,46.5 186.4,49.1 186.4,48.1 			"/>
			<polygon class="st1" points="181.9,47.4 181.9,48.5 186.4,51.1 186.4,50 			"/>
			<g>
				<polygon class="st1" points="205.6,61.1 188.1,51 188.1,52.1 205.6,62.2 				"/>
				<polygon class="st1" points="206.5,61.6 206.5,62.7 215.8,68.1 215.8,67 				"/>
			</g>
			<g>
				<polygon class="st1" points="196.9,54.1 188.1,49 188.1,50.1 196.9,55.2 				"/>
				<polygon class="st1" points="197.8,54.6 197.8,55.7 215.8,66.1 215.8,65 				"/>
			</g>
			<polygon class="st1" points="213.4,57.8 213.4,58.9 215.8,60.2 215.8,59.2 			"/>
			<polygon class="st1" points="200.5,48.4 188.1,41.2 188.1,42.3 200.5,49.5 			"/>
			<polygon class="st1" points="195.4,29.8 188.1,25.6 188.1,26.6 195.4,30.9 			"/>
			<g>
				<polygon class="st1" points="207.5,36.8 196.3,30.3 196.3,31.4 207.5,37.8 				"/>
			</g>
			<polygon class="st1" points="201,35 193.2,30.5 193.2,31.5 201,36.1 			"/>
			<g>
				<polygon class="st1" points="209.2,39.7 201.9,35.5 201.9,36.6 209.2,40.8 				"/>
				<polygon class="st1" points="210.2,40.3 210.2,41.3 215.8,44.6 215.8,43.5 				"/>
			</g>
			<polygon class="st1" points="189.5,30.3 189.5,31.4 195.4,34.8 195.4,33.7 			"/>
			<polygon class="st1" points="213.5,44.2 196.3,34.3 196.3,35.3 213.5,45.2 			"/>
			<polygon class="st1" points="203.7,44.4 192.5,37.9 192.5,39 203.7,45.4 			"/>
			<polygon class="st1" points="213.5,50 204.6,44.9 204.6,46 213.5,51.1 			"/>
			<g>
				<polygon class="st1" points="212.5,55.3 201.5,48.9 201.5,50 212.5,56.4 				"/>
			</g>
			<polygon class="st1" points="206.5,53.8 206.5,54.9 212.5,58.3 212.5,57.3 			"/>
			<polygon class="st1" points="190.2,44.4 188.1,43.2 188.1,44.2 190.2,45.5 			"/>
			<g>
				<polygon class="st1" points="194.3,46.8 194.3,47.8 205.6,54.3 205.6,53.3 				"/>
				<polygon class="st1" points="193.4,46.2 191.2,44.9 191.2,46 193.4,47.3 				"/>
			</g>
			<polygon class="st1" points="203.5,54 191.2,46.9 191.2,48 203.5,55.1 			"/>
		</g>
	</g>
	<path class="st13" d="M100.6,159.4c0,0-2.5-1.1-5.5,0.8c-3,2-5,4.7-3.8,5.8c1.2,1,3.6,2.1,5.1,1.6
		C97.9,167,105.5,162.6,100.6,159.4z"/>
	<g>
		<polygon class="st4" points="163.5,147.7 139.9,161.1 124.9,152.4 148.5,139.1 		"/>
		<g>
			<polygon class="st36" points="144.6,160.8 144.6,161.3 168.1,147.8 168.1,147.4 			"/>
			<polygon class="st37" points="168.1,147.4 144.6,160.8 129.5,152.1 153.1,138.7 			"/>
			<polygon class="st38" points="144.6,160.8 144.6,161.3 129.5,152.6 129.5,152.1 			"/>
		</g>
		<polygon class="st39" points="152.9,140.2 162,145.4 161.6,145.6 152.5,140.4 		"/>
		<polygon class="st39" points="152,140.7 161.1,145.9 160.7,146.2 151.6,140.9 		"/>
		<polygon class="st39" points="149.8,141.9 162.3,149.1 161.9,149.4 149.4,142.2 		"/>
		<polygon class="st39" points="148.9,142.4 161.4,149.6 161,149.9 148.5,142.7 		"/>
		<polygon class="st39" points="148.1,142.9 160.6,150.1 160.2,150.4 147.7,143.1 		"/>
		<polygon class="st39" points="147.2,143.4 159.7,150.6 159.3,150.8 146.8,143.6 		"/>
		<polygon class="st39" points="146.3,143.9 158.8,151.1 158.4,151.3 145.9,144.1 		"/>
		<polygon class="st39" points="145.5,144.4 158,151.6 157.6,151.8 145.1,144.6 		"/>
		<polygon class="st39" points="144.6,144.9 157.1,152.1 156.7,152.3 144.2,145.1 		"/>
		<polygon class="st39" points="143.7,145.4 156.2,152.6 155.8,152.8 143.3,145.6 		"/>
		<polygon class="st39" points="142.9,145.9 155.4,153.1 155,153.3 142.5,146.1 		"/>
		<polygon class="st39" points="142,146.4 154.5,153.6 154.1,153.8 141.6,146.6 		"/>
		<polygon class="st39" points="141.2,146.8 153.6,154.1 153.2,154.3 140.8,147.1 		"/>
		<polygon class="st39" points="140.3,147.3 152.8,154.5 152.4,154.8 139.9,147.6 		"/>
		<polygon class="st39" points="139.4,147.8 151.9,155 151.5,155.3 139,148.1 		"/>
		<polygon class="st39" points="138.6,148.3 151,155.5 150.7,155.8 138.2,148.5 		"/>
		<polygon class="st39" points="137.7,148.8 150.2,156 149.8,156.2 137.3,149 		"/>
	</g>
	<g>
		<path class="st10" d="M127.5,155.5h-2.2v2.4h2.2c0.8,0,1.5,0.7,1.5,1.5v3.9c0,0.8-0.7,1.5-1.5,1.5h-3.2v2.4h3.2
			c2.1,0,3.9-1.7,3.9-3.9v-3.9C131.4,157.2,129.6,155.5,127.5,155.5z"/>
		<path class="st5" d="M126.7,154.2v13.4c0,2.1-3.1,3.8-6.9,3.8c-3.8,0-6.9-1.7-6.9-3.8v-13.4H126.7z"/>
		<ellipse class="st1" cx="119.8" cy="154.2" rx="6.9" ry="3.8"/>
		<ellipse class="st10" cx="119.8" cy="154.1" rx="5.5" ry="2.9"/>
		<path class="st9" d="M119.8,153.1c-2.4,0-4.5,0.8-5.2,2c0.8,1.1,2.8,2,5.2,2s4.5-0.8,5.2-2C124.3,154,122.2,153.1,119.8,153.1z"/>
		<path class="st10" d="M122.4,157.7v13.4c1.4-0.3,2.5-0.8,3.3-1.5v-13.4C124.9,156.8,123.7,157.4,122.4,157.7z"/>
	</g>
</g>
</svg>
